<svg xmlns="http://www.w3.org/2000/svg" fill="none" viewBox="0 0 24 24"><path fill="#E5E8EB" fill-rule="evenodd" d="M3 2a2 2 0 0 1 2-2h10.167a2 2 0 0 1 1.416.587l3.833 3.84A2 2 0 0 1 21 5.838V22a2 2 0 0 1-2 2H5a2 2 0 0 1-2-2V2Z" clip-rule="evenodd"/><path fill="#535C69" d="M16 .182a2 2 0 0 1 .583.405l3.833 3.84c.167.167.302.362.4.573H16.4a.4.4 0 0 1-.4-.4V.182Z" opacity=".3"/><path fill="#2FC6F6" fill-rule="evenodd" d="M17.36 9.267h-2.68c-.192-.774-.383-1.548-1.149-1.548H10.47c-.766 0-.957.774-1.149 1.548H6.64a.772.772 0 0 0-.765.774v6.966c0 .426.345.774.766.774h10.718a.772.772 0 0 0 .766-.774v-6.966a.772.772 0 0 0-.766-.774Zm-7.423 4.282c0 1.163.932 2.105 2.082 2.105s2.082-.942 2.082-2.105a2.094 2.094 0 0 0-2.082-2.105c-1.15 0-2.082.942-2.082 2.105Zm2.082 2.874c-1.57 0-2.843-1.287-2.843-2.874 0-1.588 1.273-2.874 2.843-2.874s2.843 1.286 2.843 2.874c0 1.587-1.273 2.874-2.843 2.874Zm5.07-5.465h-1.051v-.72h1.051v.72Z" clip-rule="evenodd"/></svg>