<svg width="40" height="40" viewBox="0 0 40 40" fill="none" xmlns="http://www.w3.org/2000/svg">
	<path d="M2 8C2 6.34315 3.34315 5 5 5H14.169C14.7128 5 15.2463 5.14777 15.7125 5.42752L19.2875 7.57248C19.7537 7.85223 20.2872 8 20.831 8H35C36.6569 8 38 9.34315 38 11V12.5H2L2 8Z" fill="url(#paint0_linear_31103_7979)"/>
	<path d="M2 14H37.9999L38 31C38 33.2091 36.2091 35 34 35H6.00007C3.79093 35 2.00007 33.2091 2.00006 31L2 14Z" fill="url(#paint1_linear_31103_7979)"/>
	<path d="M33.9897 18.707C34.2796 18.707 34.5147 18.9421 34.5147 19.232V25.002C34.515 25.0102 34.5152 25.0185 34.5152 25.0269C34.5152 25.0352 34.515 25.0435 34.5147 25.0518V30.243C34.5147 30.533 34.2796 30.768 33.9897 30.768C33.6997 30.768 33.4647 30.533 33.4647 30.243V25.5519H29.2639C28.9739 25.5519 28.7389 25.3168 28.7389 25.0269V19.256C28.7389 18.966 28.9739 18.731 29.2639 18.731C29.5538 18.731 29.7889 18.966 29.7889 19.256V24.5019H33.4647V19.232C33.4647 18.9421 33.6997 18.707 33.9897 18.707Z" fill="white"/>
	<path d="M27.0006 22.1364C27.0006 21.2016 26.6903 20.4383 26.1778 19.8741C25.6708 19.316 24.9909 18.9794 24.2864 18.8425C22.9048 18.574 21.2699 19.0571 20.511 20.3958C20.368 20.6481 20.4566 20.9685 20.7088 21.1115C20.9611 21.2545 21.2814 21.1659 21.4244 20.9137C21.9044 20.067 23.0234 19.6667 24.0861 19.8732C24.6036 19.9738 25.0684 20.2144 25.4006 20.5801C25.7273 20.9398 25.9506 21.447 25.9506 22.1364C25.9506 22.6968 25.7446 23.2225 25.3702 23.7738C24.9903 24.3331 24.4621 24.8834 23.854 25.497C23.7902 25.5614 23.7255 25.6265 23.6602 25.6921C22.5103 26.8486 21.1569 28.2096 20.475 30.0621C20.4157 30.2231 20.4389 30.403 20.5371 30.5438C20.6353 30.6845 20.7961 30.7684 20.9677 30.7684L26.4756 30.7683C26.7655 30.7683 27.0006 30.5333 27.0006 30.2433C27.0006 29.9534 26.7655 29.7183 26.4756 29.7183L21.7688 29.7184C22.4207 28.4313 23.4404 27.4041 24.444 26.3931L24.5998 26.2361C25.2003 25.6302 25.7964 25.015 26.2387 24.3638C26.6865 23.7047 27.0006 22.9751 27.0006 22.1364Z" fill="white"/>
	<defs>
		<linearGradient id="paint0_linear_31103_7979" x1="20" y1="4.2148" x2="20" y2="18.684" gradientUnits="userSpaceOnUse">
			<stop stop-color="#58BCF4"/>
			<stop offset="1" stop-color="#3F81EC"/>
		</linearGradient>
		<linearGradient id="paint1_linear_31103_7979" x1="20" y1="11.9389" x2="20" y2="49.9206" gradientUnits="userSpaceOnUse">
			<stop stop-color="#58BCF4"/>
			<stop offset="1" stop-color="#3F81EC"/>
		</linearGradient>
	</defs>
</svg>
