<svg width="40" height="40" viewBox="0 0 40 40" fill="none" xmlns="http://www.w3.org/2000/svg">
	<path d="M2 8C2 6.34315 3.34315 5 5 5H14.169C14.7128 5 15.2463 5.14777 15.7125 5.42752L19.2875 7.57248C19.7537 7.85223 20.2872 8 20.831 8H35C36.6569 8 38 9.34315 38 11V12.5H2V8Z" fill="url(#paint0_linear_27375_21161)"/>
	<path d="M2 14H37.9999L38 31C38 33.2091 36.2091 35 34 35H6.00007C3.79093 35 2.00007 33.2091 2.00006 31L2 14Z" fill="url(#paint1_linear_27375_21161)"/>
	<path fill-rule="evenodd" clip-rule="evenodd" d="M28.3771 19.376C29.6543 18.0989 31.6194 17.813 32.9928 19.1864C33.6647 19.8583 33.9306 20.6785 33.8417 21.5021C33.7546 22.3092 33.3329 23.0777 32.7083 23.7031L30.8909 25.5593C30.1681 26.282 29.3991 26.6923 28.5867 26.6921C27.7743 26.6919 27.0457 26.2813 26.4036 25.6392C26.2536 25.4892 26.1203 25.3284 26.0039 25.159C25.8396 24.9201 25.9002 24.5932 26.1391 24.4289C26.378 24.2647 26.7049 24.3252 26.8691 24.5642C26.9494 24.6809 27.0416 24.7923 27.146 24.8967C27.6756 25.4263 28.153 25.642 28.587 25.6421C29.0204 25.6422 29.5374 25.4272 30.1465 24.8187L31.9638 22.9626C32.46 22.4664 32.7417 21.9086 32.7977 21.3894C32.8521 20.8858 32.7003 20.3789 32.2503 19.9288C31.3807 19.0592 30.0885 19.1516 29.1221 20.1159L27.796 21.4808C27.594 21.6887 27.2616 21.6935 27.0537 21.4915C26.8457 21.2894 26.8409 20.957 27.043 20.7491L28.3771 19.376ZM26.4268 22.4166C27.2515 22.3483 28.0056 22.6891 28.6698 23.3149L28.6755 23.3202L29.0598 23.7045C29.2648 23.9096 29.2648 24.242 29.0598 24.447C28.8548 24.652 28.5224 24.6521 28.3173 24.447L27.9442 24.074C27.4338 23.595 26.9611 23.426 26.5135 23.4631C26.0475 23.5017 25.4975 23.7723 24.8656 24.4041L23.0891 26.1853C22.1236 27.1508 22.0316 28.449 22.903 29.3204C23.3529 29.7704 23.8592 29.9216 24.3621 29.8669C24.8807 29.8105 25.438 29.5285 25.9344 29.0323L27.2354 27.7268C27.4401 27.5214 27.7725 27.5208 27.9779 27.7255C28.1832 27.9301 28.1838 28.2626 27.9792 28.4679L26.6779 29.7737L26.6772 29.7744C26.0518 30.3998 25.2831 30.8229 24.4756 30.9108C23.6524 31.0003 22.8325 30.7349 22.1605 30.0629C20.7882 28.6906 21.0678 26.7218 22.3459 25.4435L24.1222 23.6625C24.8489 22.9358 25.6188 22.4836 26.4268 22.4166Z" fill="white"/>
	<defs>
		<linearGradient id="paint0_linear_27375_21161" x1="20" y1="4.2148" x2="20" y2="18.684" gradientUnits="userSpaceOnUse">
			<stop stop-color="#58BCF4"/>
			<stop offset="1" stop-color="#3F81EC"/>
		</linearGradient>
		<linearGradient id="paint1_linear_27375_21161" x1="20" y1="11.9389" x2="20" y2="49.9206" gradientUnits="userSpaceOnUse">
			<stop stop-color="#58BCF4"/>
			<stop offset="1" stop-color="#3F81EC"/>
		</linearGradient>
	</defs>
</svg>
