<svg width="40" height="40" viewBox="0 0 40 40" fill="none" xmlns="http://www.w3.org/2000/svg">
	<path d="M2 8C2 6.34315 3.34315 5 5 5H14.169C14.7128 5 15.2463 5.14777 15.7125 5.42752L19.2875 7.57248C19.7537 7.85223 20.2872 8 20.831 8H35C36.6569 8 38 9.34315 38 11V12.5H2V8Z" fill="url(#paint0_linear_27375_21165)"/>
	<path d="M2 14H37.9999L38 31C38 33.2091 36.2091 35 34 35H6.00007C3.79093 35 2.00007 33.2091 2.00006 31L2 14Z" fill="url(#paint1_linear_27375_21165)"/>
	<g opacity="0.9">
		<path fill-rule="evenodd" clip-rule="evenodd" d="M31.7892 20.7438L28.608 18.9071C27.9222 18.5112 27.0772 18.5112 26.3914 18.9071L23.2102 20.7438C22.5243 21.1398 22.1019 21.8715 22.1019 22.6635V26.3368C22.1019 27.1287 22.5243 27.8605 23.2102 28.2565L26.3914 30.0932C27.0772 30.4891 27.9222 30.4891 28.608 30.0932L31.7892 28.2565C32.4751 27.8605 32.8976 27.1287 32.8976 26.3368V22.6635C32.8976 21.8715 32.4751 21.1398 31.7892 20.7438ZM29.083 18.0844C28.1033 17.5187 26.8962 17.5187 25.9164 18.0844L22.7352 19.9211C21.7554 20.4867 21.1519 21.5321 21.1519 22.6635V26.3368C21.1519 27.4681 21.7554 28.5135 22.7352 29.0792L25.9164 30.9159C26.8962 31.4816 28.1033 31.4816 29.083 30.9159L32.2642 29.0792C33.244 28.5135 33.8476 27.4681 33.8476 26.3368V22.6635C33.8476 21.5321 33.244 20.4867 32.2642 19.9211L29.083 18.0844Z" fill="white"/>
		<path fill-rule="evenodd" clip-rule="evenodd" d="M30.0434 22.6674L27.8149 21.3808C27.6199 21.2682 27.3797 21.2682 27.1847 21.3808L24.9562 22.6674C24.7612 22.78 24.6411 22.9881 24.6411 23.2132V25.7865C24.6411 26.0116 24.7612 26.2197 24.9562 26.3322L27.1847 27.6189C27.3797 27.7314 27.6199 27.7314 27.8149 27.6189L30.0434 26.3322C30.2384 26.2197 30.3585 26.0116 30.3585 25.7865V23.2132C30.3585 22.9881 30.2384 22.78 30.0434 22.6674ZM28.2899 20.5581C27.801 20.2758 27.1986 20.2758 26.7097 20.5581L24.4812 21.8447C23.9923 22.127 23.6911 22.6487 23.6911 23.2132V25.7865C23.6911 26.351 23.9923 26.8727 24.4812 27.155L26.7097 28.4416C27.1986 28.7239 27.801 28.7239 28.2899 28.4416L30.5184 27.155C31.0073 26.8727 31.3085 26.351 31.3085 25.7865V23.2132C31.3085 22.6487 31.0073 22.127 30.5184 21.8447L28.2899 20.5581Z" fill="white"/>
	</g>
	<defs>
		<linearGradient id="paint0_linear_27375_21165" x1="20" y1="5" x2="20" y2="12.5" gradientUnits="userSpaceOnUse">
			<stop stop-color="#19CC45"/>
			<stop offset="1" stop-color="#1CB14E"/>
		</linearGradient>
		<linearGradient id="paint1_linear_27375_21165" x1="20" y1="14" x2="20" y2="35" gradientUnits="userSpaceOnUse">
			<stop stop-color="#19CC45"/>
			<stop offset="1" stop-color="#1CB14E"/>
		</linearGradient>
	</defs>
</svg>
