<svg width="40" height="40" viewBox="0 0 40 40" fill="none" xmlns="http://www.w3.org/2000/svg">
	<path d="M2 8C2 6.34315 3.34315 5 5 5H14.169C14.7128 5 15.2463 5.14777 15.7125 5.42752L19.2875 7.57248C19.7537 7.85223 20.2872 8 20.831 8H35C36.6569 8 38 9.34315 38 11V12.5H2L2 8Z" fill="url(#paint0_linear_31103_27409)"/>
	<path d="M2 14H37.9999L38 31C38 33.2091 36.2091 35 34 35H6.00007C3.79093 35 2.00007 33.2091 2.00006 31L2 14Z" fill="url(#paint1_linear_31103_27409)"/>
	<path fill-rule="evenodd" clip-rule="evenodd" d="M23.4885 26.7572C24.6781 26.0618 26.1563 25.8446 27.5001 25.8446C28.844 25.8446 30.3222 26.0618 31.5118 26.7572C32.7335 27.4713 33.6122 28.6701 33.7401 30.5112C33.7795 31.0779 33.317 31.5113 32.7937 31.5113H22.2065C21.6833 31.5113 21.2208 31.0779 21.2602 30.5112C21.3881 28.6701 22.2667 27.4713 23.4885 26.7572ZM22.3176 30.4613H32.6827C32.5513 29.0473 31.8844 28.1912 30.9819 27.6637C30.0214 27.1022 28.7571 26.8946 27.5001 26.8946C26.2432 26.8946 24.9789 27.1022 24.0184 27.6637C23.1158 28.1912 22.4489 29.0473 22.3176 30.4613Z" fill="white"/>
	<path fill-rule="evenodd" clip-rule="evenodd" d="M26.8287 18.6747C26.5751 18.7588 26.3861 18.8598 26.2965 18.9258C25.5039 19.5092 25.1297 20.7526 25.3981 21.9751C25.658 23.1591 26.4138 23.9209 27.4931 23.9209C28.1747 23.9209 28.6797 23.6286 29.0465 23.158C29.4324 22.6631 29.668 21.957 29.6859 21.2103C29.7038 20.4628 29.5016 19.7771 29.1408 19.3046C28.8046 18.8643 28.2913 18.55 27.4931 18.55C27.3181 18.55 27.079 18.5918 26.8287 18.6747ZM25.674 18.0802C23.2299 19.8794 24.0411 24.9709 27.4931 24.9709C31.6375 24.9709 31.9953 17.5 27.4931 17.5C26.86 17.5 26.0799 17.7814 25.674 18.0802Z" fill="white"/>
	<defs>
		<linearGradient id="paint0_linear_31103_27409" x1="20" y1="4.2148" x2="20" y2="18.684" gradientUnits="userSpaceOnUse">
			<stop stop-color="#58BCF4"/>
			<stop offset="1" stop-color="#3F81EC"/>
		</linearGradient>
		<linearGradient id="paint1_linear_31103_27409" x1="20" y1="11.9389" x2="20" y2="49.9206" gradientUnits="userSpaceOnUse">
			<stop stop-color="#58BCF4"/>
			<stop offset="1" stop-color="#3F81EC"/>
		</linearGradient>
	</defs>
</svg>
