<svg xmlns="http://www.w3.org/2000/svg" fill="none" viewBox="0 0 24 24"><path fill="#E5E8EB" fill-rule="evenodd" d="M2 2a2 2 0 0 1 2-2h10.167a2 2 0 0 1 1.416.587l3.833 3.84A2 2 0 0 1 20 5.838V22a2 2 0 0 1-2 2H4a2 2 0 0 1-2-2V2Z" clip-rule="evenodd"/><path fill="#535C69" d="M15 .182a2 2 0 0 1 .583.405l3.833 3.84c.167.167.302.362.4.573H15.4a.4.4 0 0 1-.4-.4V.182Z" opacity=".3"/><path fill="#40A4DD" d="M5 12a1 1 0 0 1 1-1h16a1 1 0 0 1 1 1v7a1 1 0 0 1-1 1H6a1 1 0 0 1-1-1v-7Z"/><path fill="#fff" d="M20.231 15.455c0 .824-.229 1.456-.687 1.893-.458.435-1.118.653-1.98.653h-1.397v-4.997h1.545c.795 0 1.414.214 1.856.643.442.428.663 1.03.663 1.808Zm-.861.027c0-1.196-.56-1.794-1.679-1.794h-.707v3.626h.58c1.204 0 1.806-.61 1.806-1.832ZM15.2 16.644c0 .444-.16.793-.482 1.046-.322.252-.765.379-1.33.379-.565 0-1.027-.088-1.387-.263v-.773c.227.107.469.192.724.253.258.062.497.092.718.092.323 0 .562-.061.714-.184a.6.6 0 0 0 .233-.496.621.621 0 0 0-.212-.475c-.142-.13-.433-.283-.875-.461-.456-.185-.777-.396-.964-.633a1.338 1.338 0 0 1-.28-.854c0-.417.148-.745.444-.985.296-.239.694-.358 1.193-.358.478 0 .955.104 1.428.314l-.26.667c-.444-.187-.84-.28-1.189-.28-.264 0-.465.057-.601.174a.562.562 0 0 0-.205.454c0 .13.027.242.082.335a.848.848 0 0 0 .27.26c.125.082.35.19.677.325.366.152.635.295.806.427.171.132.296.281.376.448.08.166.12.362.12.588ZM11.32 14.515c0 .521-.17.921-.512 1.2-.342.277-.829.416-1.46.416h-.52v1.87h-.816v-4.997H9.45c.624 0 1.091.128 1.401.383.312.255.468.63.468 1.128Zm-2.491.93h.434c.419 0 .727-.074.922-.22.197-.145.294-.373.294-.683 0-.287-.087-.501-.263-.643-.175-.14-.449-.211-.82-.211h-.567v1.756Z"/></svg>