<svg viewBox="0 0 24 24" fill="none" xmlns="http://www.w3.org/2000/svg">
	<path fill-rule="evenodd" clip-rule="evenodd" d="M2 2C2 1.46957 2.21071 0.960859 2.58579 0.585787C2.96086 0.210714 3.46957 8.23288e-08 4 8.23288e-08H14.167C14.43 -7.53851e-05 14.6905 0.0517333 14.9335 0.152459C15.1764 0.253186 15.3972 0.400851 15.583 0.587L19.416 4.427C19.7896 4.80158 19.9996 5.30894 20 5.838V22C20 22.5304 19.7893 23.0391 19.4142 23.4142C19.0391 23.7893 18.5304 24 18 24H4C3.46957 24 2.96086 23.7893 2.58579 23.4142C2.21071 23.0391 2 22.5304 2 22V2Z" fill="#E5E8EB"/>
	<path d="M5 12C5 11.7348 5.10536 11.4804 5.29289 11.2929C5.48043 11.1054 5.73478 11 6 11H22C22.2652 11 22.5196 11.1054 22.7071 11.2929C22.8946 11.4804 23 11.7348 23 12V19C23 19.2652 22.8946 19.5196 22.7071 19.7071C22.5196 19.8946 22.2652 20 22 20H6C5.73478 20 5.48043 19.8946 5.29289 19.7071C5.10536 19.5196 5 19.2652 5 19V12Z" fill="#0E85CD"/>
	<path d="M19.0716 18C18.688 18 18.3546 17.9428 18.0715 17.8284C17.7906 17.714 17.5691 17.5545 17.407 17.3498C17.2449 17.1452 17.1535 16.9065 17.133 16.6337L17.1296 16.5875H17.9859L17.9893 16.6205C18.003 16.7547 18.0578 16.8713 18.1537 16.9703C18.2519 17.0693 18.382 17.1474 18.5442 17.2046C18.7063 17.2596 18.8912 17.2871 19.099 17.2871C19.2977 17.2871 19.4735 17.2574 19.6265 17.198C19.7795 17.1386 19.8994 17.0572 19.9862 16.9538C20.0729 16.8482 20.1163 16.7272 20.1163 16.5908V16.5875C20.1163 16.4158 20.0467 16.2761 19.9074 16.1683C19.7681 16.0583 19.5386 15.9703 19.2189 15.9043L18.688 15.7987C18.1811 15.6953 17.8123 15.5303 17.5817 15.3036C17.3533 15.0748 17.2392 14.7833 17.2392 14.429V14.4257C17.2392 14.1419 17.3168 13.8933 17.4721 13.6799C17.6296 13.4664 17.8454 13.3003 18.1194 13.1815C18.3957 13.0605 18.712 13 19.0682 13C19.4336 13 19.7498 13.0594 20.017 13.1782C20.2841 13.2948 20.4942 13.4543 20.6472 13.6568C20.8002 13.8592 20.8858 14.088 20.9041 14.3432L20.9075 14.3861H20.0649L20.0581 14.3465C20.0375 14.2211 19.9839 14.1122 19.8971 14.0198C19.8126 13.9252 19.6996 13.8504 19.558 13.7954C19.4164 13.7404 19.2509 13.7129 19.0614 13.7129C18.881 13.7129 18.72 13.7404 18.5784 13.7954C18.4368 13.8482 18.3249 13.923 18.2427 14.0198C18.1628 14.1166 18.1229 14.2332 18.1229 14.3696V14.3729C18.1229 14.5402 18.1902 14.6788 18.3249 14.7888C18.462 14.8988 18.6846 14.9846 18.9929 15.0462L19.5238 15.1551C20.0444 15.2607 20.42 15.4202 20.6506 15.6337C20.8835 15.8449 21 16.1309 21 16.4917V16.495C21 16.8031 20.9212 17.0693 20.7637 17.2937C20.6084 17.5182 20.3858 17.692 20.0958 17.8152C19.808 17.9384 19.4667 18 19.0716 18Z" fill="white"/>
	<path d="M12.4261 17.8812V13.1188H14.2791C14.7701 13.1188 15.188 13.2112 15.5328 13.396C15.8798 13.5809 16.1447 13.8493 16.3274 14.2013C16.5124 14.5534 16.6048 14.978 16.6048 15.4752V15.4818C16.6048 15.9901 16.5135 16.4235 16.3308 16.7822C16.1481 17.1386 15.8833 17.4114 15.5362 17.6007C15.1914 17.7877 14.7724 17.8812 14.2791 17.8812H12.4261ZM13.3098 17.165H14.1627C14.4892 17.165 14.7678 17.1001 14.9984 16.9703C15.2291 16.8405 15.4037 16.6513 15.5225 16.4026C15.6435 16.154 15.704 15.8515 15.704 15.495V15.4884C15.704 15.1408 15.6424 14.8438 15.5191 14.5974C15.398 14.3487 15.2222 14.1595 14.9916 14.0297C14.761 13.8999 14.4847 13.835 14.1627 13.835H13.3098V17.165Z" fill="white"/>
	<path d="M9.33938 18C8.8553 18 8.43857 17.8988 8.0892 17.6964C7.74212 17.4917 7.47381 17.2024 7.28429 16.8284C7.09476 16.4543 7 16.0121 7 15.5017V15.495C7 14.9824 7.09476 14.5402 7.28429 14.1683C7.4761 13.7943 7.74668 13.5061 8.09605 13.3036C8.4477 13.1012 8.86215 13 9.33938 13C9.81891 13 10.2334 13.1012 10.5827 13.3036C10.9321 13.5061 11.2015 13.7943 11.3911 14.1683C11.5806 14.5424 11.6753 14.9846 11.6753 15.495V15.5017C11.6753 16.0121 11.5806 16.4543 11.3911 16.8284C11.2038 17.2024 10.9355 17.4917 10.5861 17.6964C10.2368 17.8988 9.82119 18 9.33938 18ZM9.33938 17.264C9.63395 17.264 9.88855 17.1914 10.1032 17.0462C10.3178 16.901 10.4834 16.6964 10.5998 16.4323C10.7186 16.1683 10.778 15.8581 10.778 15.5017V15.495C10.778 15.1364 10.7186 14.8262 10.5998 14.5644C10.4834 14.3003 10.3178 14.0968 10.1032 13.9538C9.88855 13.8086 9.63395 13.736 9.33938 13.736C9.0471 13.736 8.7925 13.8086 8.57557 13.9538C8.36093 14.0968 8.19424 14.3003 8.0755 14.5644C7.95904 14.8262 7.90082 15.1364 7.90082 15.495V15.5017C7.90082 15.8581 7.9579 16.1683 8.07208 16.4323C8.18853 16.6964 8.35408 16.901 8.56872 17.0462C8.78565 17.1914 9.04254 17.264 9.33938 17.264Z" fill="white"/>
</svg>