<svg viewBox="0 0 24 24" fill="none" xmlns="http://www.w3.org/2000/svg">
	<path fill-rule="evenodd" clip-rule="evenodd" d="M2 2C2 1.46957 2.21071 0.960859 2.58579 0.585787C2.96086 0.210714 3.46957 8.23288e-08 4 8.23288e-08H14.167C14.43 -7.53851e-05 14.6905 0.0517333 14.9335 0.152459C15.1764 0.253186 15.3972 0.400851 15.583 0.587L19.416 4.427C19.7896 4.80158 19.9996 5.30894 20 5.838V22C20 22.5304 19.7893 23.0391 19.4142 23.4142C19.0391 23.7893 18.5304 24 18 24H4C3.46957 24 2.96086 23.7893 2.58579 23.4142C2.21071 23.0391 2 22.5304 2 22V2Z" fill="#E5E8EB"/>
	<path d="M5 12C5 11.7348 5.10536 11.4804 5.29289 11.2929C5.48043 11.1054 5.73478 11 6 11H22C22.2652 11 22.5196 11.1054 22.7071 11.2929C22.8946 11.4804 23 11.7348 23 12V19C23 19.2652 22.8946 19.5196 22.7071 19.7071C22.5196 19.8946 22.2652 20 22 20H6C5.73478 20 5.48043 19.8946 5.29289 19.7071C5.10536 19.5196 5 19.2652 5 19V12Z" fill="#0E85CD"/>
	<path d="M17.7896 16.3069V15.6205H19.1039C19.421 15.6205 19.6674 15.5424 19.8431 15.3861C20.0188 15.2277 20.1067 15.0055 20.1067 14.7195V14.7129C20.1067 14.4246 20.0188 14.2024 19.8431 14.0462C19.6674 13.89 19.421 13.8119 19.1039 13.8119H17.7896V13.1188H19.3195C19.6549 13.1188 19.9481 13.1848 20.1991 13.3168C20.4501 13.4488 20.6463 13.6348 20.7878 13.8746C20.9293 14.1122 21 14.3905 21 14.7096V14.7162C21 15.033 20.9293 15.3113 20.7878 15.5512C20.6463 15.7888 20.4501 15.9747 20.1991 16.1089C19.9481 16.2409 19.6549 16.3069 19.3195 16.3069H17.7896ZM17.348 17.8812V13.1188H18.2311V17.8812H17.348Z" fill="white"/>
	<path d="M12.4222 17.8812V13.1188H14.2738C14.7644 13.1188 15.182 13.2112 15.5265 13.396C15.8733 13.5809 16.138 13.8493 16.3206 14.2013C16.5054 14.5534 16.5978 14.978 16.5978 15.4752V15.4818C16.5978 15.9901 16.5065 16.4235 16.324 16.7822C16.1414 17.1386 15.8768 17.4114 15.5299 17.6007C15.1854 17.7877 14.7667 17.8812 14.2738 17.8812H12.4222ZM13.3052 17.165H14.1574C14.4837 17.165 14.7621 17.1001 14.9926 16.9703C15.223 16.8405 15.3976 16.6513 15.5162 16.4026C15.6372 16.154 15.6976 15.8515 15.6976 15.495V15.4884C15.6976 15.1408 15.636 14.8438 15.5128 14.5974C15.3919 14.3487 15.2162 14.1595 14.9857 14.0297C14.7553 13.8999 14.4792 13.835 14.1574 13.835H13.3052V17.165Z" fill="white"/>
	<path d="M9.33767 18C8.85393 18 8.43751 17.8988 8.0884 17.6964C7.74157 17.4917 7.47347 17.2024 7.28408 16.8284C7.09469 16.4543 7 16.0121 7 15.5017V15.495C7 14.9824 7.09469 14.5402 7.28408 14.1683C7.47575 13.7943 7.74614 13.5061 8.09525 13.3036C8.44664 13.1012 8.86078 13 9.33767 13C9.81684 13 10.231 13.1012 10.5801 13.3036C10.9292 13.5061 11.1984 13.7943 11.3878 14.1683C11.5772 14.5424 11.6719 14.9846 11.6719 15.495V15.5017C11.6719 16.0121 11.5772 16.4543 11.3878 16.8284C11.2007 17.2024 10.9326 17.4917 10.5835 17.6964C10.2344 17.8988 9.81912 18 9.33767 18ZM9.33767 17.264C9.63202 17.264 9.88643 17.1914 10.1009 17.0462C10.3154 16.901 10.4808 16.6964 10.5972 16.4323C10.7159 16.1683 10.7752 15.8581 10.7752 15.5017V15.495C10.7752 15.1364 10.7159 14.8262 10.5972 14.5644C10.4808 14.3003 10.3154 14.0968 10.1009 13.9538C9.88643 13.8086 9.63202 13.736 9.33767 13.736C9.0456 13.736 8.79119 13.8086 8.57442 13.9538C8.35993 14.0968 8.19336 14.3003 8.07471 14.5644C7.95834 14.8262 7.90016 15.1364 7.90016 15.495V15.5017C7.90016 15.8581 7.9572 16.1683 8.07129 16.4323C8.18766 16.6964 8.35309 16.901 8.56757 17.0462C8.78434 17.1914 9.04104 17.264 9.33767 17.264Z" fill="white"/>
</svg>