<svg viewBox="0 0 24 24" fill="none" xmlns="http://www.w3.org/2000/svg">
<path fill-rule="evenodd" clip-rule="evenodd" d="M3 2C3 0.89543 3.89543 0 5 0H15.1674C15.6984 0 16.2076 0.211199 16.5828 0.587037L20.4155 4.42646C20.7898 4.80143 21 5.3096 21 5.83942V22C21 23.1046 20.1046 24 19 24H5C3.89543 24 3 23.1046 3 22V2Z" fill="#E5E8EB"/>
<path opacity="0.3" d="M16 0.181641C16.2149 0.280026 16.4126 0.416631 16.5828 0.587112L20.4155 4.42654C20.583 4.59437 20.7177 4.78888 20.8153 5.00008H16.4C16.1791 5.00008 16 4.82099 16 4.60008V0.181641Z" fill="#535C69"/>
</svg>
