<svg viewBox="0 0 24 24" fill="none" xmlns="http://www.w3.org/2000/svg">
	<path fill-rule="evenodd" clip-rule="evenodd" d="M2 2C2 1.46957 2.21071 0.960859 2.58579 0.585787C2.96086 0.210714 3.46957 8.23288e-08 4 8.23288e-08H14.167C14.43 -7.53851e-05 14.6905 0.0517333 14.9335 0.152459C15.1764 0.253186 15.3972 0.400851 15.583 0.587L19.416 4.427C19.7896 4.80158 19.9996 5.30894 20 5.838V22C20 22.5304 19.7893 23.0391 19.4142 23.4142C19.0391 23.7893 18.5304 24 18 24H4C3.46957 24 2.96086 23.7893 2.58579 23.4142C2.21071 23.0391 2 22.5304 2 22V2Z" fill="#E5E8EB"/>
	<path d="M5 12C5 11.7348 5.10536 11.4804 5.29289 11.2929C5.48043 11.1054 5.73478 11 6 11H22C22.2652 11 22.5196 11.1054 22.7071 11.2929C22.8946 11.4804 23 11.7348 23 12V19C23 19.2652 22.8946 19.5196 22.7071 19.7071C22.5196 19.8946 22.2652 20 22 20H6C5.73478 20 5.48043 19.8946 5.29289 19.7071C5.10536 19.5196 5 19.2652 5 19V12Z" fill="#0E85CD"/>
	<path d="M17.7338 17.8812V13.1188H21V13.835H18.6497V15.2442H20.7976V15.9373H18.6497V17.8812H17.7338Z" fill="white"/>
	<path d="M12.6243 17.8812V13.1188H14.545C15.0538 13.1188 15.487 13.2112 15.8443 13.396C16.2041 13.5809 16.4787 13.8493 16.668 14.2013C16.8597 14.5534 16.9556 14.978 16.9556 15.4752V15.4818C16.9556 15.9901 16.8609 16.4235 16.6716 16.7822C16.4822 17.1386 16.2077 17.4114 15.8479 17.6007C15.4905 17.7877 15.0562 17.8812 14.545 17.8812H12.6243ZM13.5402 17.165H14.4243C14.7627 17.165 15.0515 17.1001 15.2905 16.9703C15.5296 16.8405 15.7106 16.6513 15.8337 16.4026C15.9591 16.154 16.0219 15.8515 16.0219 15.495V15.4884C16.0219 15.1408 15.958 14.8438 15.8301 14.5974C15.7047 14.3487 15.5225 14.1595 15.2834 14.0297C15.0444 13.8999 14.758 13.835 14.4243 13.835H13.5402V17.165Z" fill="white"/>
	<path d="M9.42481 18C8.92304 18 8.4911 17.8988 8.12897 17.6964C7.76922 17.4917 7.49112 17.2024 7.29467 16.8284C7.09822 16.4543 7 16.0121 7 15.5017V15.495C7 14.9824 7.09822 14.5402 7.29467 14.1683C7.49348 13.7943 7.77395 13.5061 8.13608 13.3036C8.50057 13.1012 8.93014 13 9.42481 13C9.92184 13 10.3514 13.1012 10.7135 13.3036C11.0757 13.5061 11.355 13.7943 11.5514 14.1683C11.7478 14.5424 11.8461 14.9846 11.8461 15.495V15.5017C11.8461 16.0121 11.7478 16.4543 11.5514 16.8284C11.3573 17.2024 11.0792 17.4917 10.7171 17.6964C10.355 17.8988 9.92421 18 9.42481 18ZM9.42481 17.264C9.73013 17.264 9.99403 17.1914 10.2165 17.0462C10.439 16.901 10.6106 16.6964 10.7313 16.4323C10.8544 16.1683 10.9159 15.8581 10.9159 15.5017V15.495C10.9159 15.1364 10.8544 14.8262 10.7313 14.5644C10.6106 14.3003 10.439 14.0968 10.2165 13.9538C9.99403 13.8086 9.73013 13.736 9.42481 13.736C9.12186 13.736 8.85796 13.8086 8.63311 13.9538C8.41063 14.0968 8.23785 14.3003 8.11477 14.5644C7.99407 14.8262 7.93371 15.1364 7.93371 15.495V15.5017C7.93371 15.8581 7.99288 16.1683 8.11122 16.4323C8.23193 16.6964 8.40353 16.901 8.62601 17.0462C8.85086 17.1914 9.11712 17.264 9.42481 17.264Z" fill="white"/>
</svg>