<svg xmlns="http://www.w3.org/2000/svg" fill="none" viewBox="0 0 24 24"><path fill="#C3F0FF" fill-rule="evenodd" d="M3 2a2 2 0 0 1 2-2h10.167a2 2 0 0 1 1.416.587l3.833 3.84A2 2 0 0 1 21 5.838V22a2 2 0 0 1-2 2H5a2 2 0 0 1-2-2V2Z" clip-rule="evenodd"/><path fill="#00789E" d="M16 .182a2 2 0 0 1 .583.405l3.833 3.84c.167.167.302.362.4.573H16.4a.4.4 0 0 1-.4-.4V.182Z" opacity=".3"/><path fill="#11A9D9" fill-rule="evenodd" d="m10.56 11.328-.812.072v3.725a1.762 1.762 0 0 0-.83-.203c-.875 0-1.584.614-1.584 1.372 0 .758.709 1.372 1.583 1.372s1.64-.613 1.642-1.37m0-4.968v4.966-4.966Z" clip-rule="evenodd"/><path fill="#11A9D9" d="M10.175 8.866a.489.489 0 0 0-.427.497v2.041l5.5-.549v3.684a1.762 1.762 0 0 0-.83-.203c-.875 0-1.584.614-1.584 1.372 0 .758.71 1.372 1.584 1.372.863 0 1.645-.597 1.664-1.34V10.78h.002V8.832c0-.294-.239-.524-.514-.497l-5.395.531Z"/></svg>