<svg xmlns="http://www.w3.org/2000/svg" fill="none" viewBox="0 0 24 24"><path fill="#DFF2F4" fill-rule="evenodd" d="M2 2a2 2 0 0 1 2-2h10.167a2 2 0 0 1 1.416.587l3.833 3.84A2 2 0 0 1 20 5.838V22a2 2 0 0 1-2 2H4a2 2 0 0 1-2-2V2Z" clip-rule="evenodd"/><path fill="#92D9E2" d="M15 .182a2 2 0 0 1 .583.405l3.833 3.84c.167.167.302.362.4.573H15.4a.4.4 0 0 1-.4-.4V.182Z"/><path fill="#43AA55" d="M5 12a1 1 0 0 1 1-1h16a1 1 0 0 1 1 1v7a1 1 0 0 1-1 1H6a1 1 0 0 1-1-1v-7Z"/><path fill="#28B0C1" fill-rule="evenodd" d="M5.298 2.687a.506.506 0 1 1-1.012 0 .506.506 0 0 1 1.012 0Zm0 3.543a.506.506 0 1 1-1.012 0 .506.506 0 0 1 1.012 0Zm-.506 4.048a.506.506 0 1 0 0-1.012.506.506 0 0 0 0 1.012Zm.506 3.037a.506.506 0 1 1-1.012 0 .506.506 0 0 1 1.012 0Zm-.506 4.049a.506.506 0 1 0 0-1.012.506.506 0 0 0 0 1.012Zm.506 3.036a.506.506 0 1 1-1.012 0 .506.506 0 0 1 1.012 0ZM8.166 3.193a.506.506 0 1 0 0-1.012.506.506 0 0 0 0 1.012Zm.506 3.037a.506.506 0 1 1-1.012 0 .506.506 0 0 1 1.012 0Zm-.506 4.048a.506.506 0 1 0 0-1.012.506.506 0 0 0 0 1.012Zm.506 3.037a.506.506 0 1 1-1.012 0 .506.506 0 0 1 1.012 0Zm-.506 4.049a.506.506 0 1 0 0-1.012.506.506 0 0 0 0 1.012Zm.506 3.036a.506.506 0 1 1-1.012 0 .506.506 0 0 1 1.012 0ZM11.54 3.193a.506.506 0 1 0 0-1.012.506.506 0 0 0 0 1.012Zm.506 3.037a.506.506 0 1 1-1.012 0 .506.506 0 0 1 1.012 0Zm2.868.506a.506.506 0 1 0 0-1.012.506.506 0 0 0 0 1.012Zm-2.868 3.036a.506.506 0 1 1-1.012 0 .506.506 0 0 1 1.012 0Zm2.868.506a.506.506 0 1 0 0-1.012.506.506 0 0 0 0 1.012Zm3.88-.506a.506.506 0 1 1-1.012 0 .506.506 0 0 1 1.012 0ZM11.54 13.82a.506.506 0 1 0 0-1.013.506.506 0 0 0 0 1.013Zm.506 3.037a.506.506 0 1 1-1.012 0 .506.506 0 0 1 1.012 0Zm-.506 4.048a.506.506 0 1 0 0-1.012.506.506 0 0 0 0 1.012Zm3.88-.506a.506.506 0 1 1-1.012 0 .506.506 0 0 1 1.012 0Zm2.868.506a.506.506 0 1 0 0-1.012.506.506 0 0 0 0 1.012Z" clip-rule="evenodd" opacity=".2"/><path fill="#20ADBF" d="M3.97 11.865c0-.482.44-.873.983-.873h17.422c.543 0 .982.39.982.873v7.288c0 .482-.44.873-.982.873H4.953c-.543 0-.983-.391-.983-.873v-7.288Z"/><path fill="#fff" d="M19.045 17.82v-4.6h1.179c1.459 0 2.225.928 2.225 2.269 0 1.368-.829 2.332-2.275 2.332h-1.129Zm.655-.62h.48c1.153 0 1.571-.782 1.571-1.704 0-.992-.517-1.655-1.583-1.655H19.7V17.2ZM15.937 17.82v-4.6h1.028c.4 0 .68.076.892.21.405.23.567.635.567 1.081 0 .622-.318 1.027-.81 1.201v.014c.124.077.286.328.505.74l.704 1.355h-.754l-.63-1.222c-.2-.398-.35-.593-.461-.621h-.387v1.843h-.655Zm.654-2.45h.35a.892.892 0 0 0 .492-.125c.187-.126.311-.35.311-.657 0-.258-.087-.482-.268-.607-.112-.098-.274-.16-.53-.16h-.355v1.55ZM12.04 17.821l1.577-4.622h.505l1.627 4.622h-.705l-.405-1.18h-1.52l-.394 1.18h-.685Zm1.271-1.78h1.129l-.337-1.047c-.112-.377-.175-.587-.218-.74h-.013c-.037.16-.1.37-.224.74l-.337 1.047ZM10.24 17.89c-1.19 0-2.05-.935-2.05-2.352 0-1.397.854-2.36 2.05-2.36 1.204 0 2.045.977 2.045 2.36 0 1.424-.873 2.352-2.044 2.352Zm0-.62c.811 0 1.353-.657 1.353-1.732 0-1.04-.51-1.739-1.352-1.739-.81 0-1.353.663-1.353 1.739 0 1.075.542 1.731 1.353 1.731ZM5.377 17.82v-4.6H6.5c.879 0 1.271.558 1.271 1.166 0 .426-.187.796-.517.963v.014c.48.126.785.566.785 1.117 0 .733-.486 1.34-1.427 1.34H5.377Zm.655-.607h.524c.51 0 .816-.21.816-.726 0-.44-.293-.705-.748-.705h-.592v1.431Zm0-2.038h.387c.46 0 .704-.266.704-.678 0-.384-.212-.67-.704-.67h-.387v1.348Z"/></svg>