<svg viewBox="0 0 24 24" fill="none" xmlns="http://www.w3.org/2000/svg">
	<path fill-rule="evenodd" clip-rule="evenodd" d="M2 2C2 1.46957 2.21071 0.960859 2.58579 0.585787C2.96086 0.210714 3.46957 8.23288e-08 4 8.23288e-08H14.167C14.43 -7.53851e-05 14.6905 0.0517333 14.9335 0.152459C15.1764 0.253186 15.3972 0.400851 15.583 0.587L19.416 4.427C19.7896 4.80158 19.9996 5.30894 20 5.838V22C20 22.5304 19.7893 23.0391 19.4142 23.4142C19.0391 23.7893 18.5304 24 18 24H4C3.46957 24 2.96086 23.7893 2.58579 23.4142C2.21071 23.0391 2 22.5304 2 22V2Z" fill="#E5E8EB"/>
	<path d="M5 12C5 11.7348 5.10536 11.4804 5.29289 11.2929C5.48043 11.1054 5.73478 11 6 11H22C22.2652 11 22.5196 11.1054 22.7071 11.2929C22.8946 11.4804 23 11.7348 23 12V19C23 19.2652 22.8946 19.5196 22.7071 19.7071C22.5196 19.8946 22.2652 20 22 20H6C5.73478 20 5.48043 19.8946 5.29289 19.7071C5.10536 19.5196 5 19.2652 5 19V12Z" fill="#0E85CD"/>
	<path d="M18.5615 17.8812V13.835H17.0193V13.1188H21V13.835H19.4577V17.8812H18.5615Z" fill="white"/>
	<path d="M12.5029 17.8812V13.1188H14.3821C14.88 13.1188 15.3038 13.2112 15.6534 13.396C16.0054 13.5809 16.274 13.8493 16.4593 14.2013C16.6469 14.5534 16.7407 14.978 16.7407 15.4752V15.4818C16.7407 15.9901 16.648 16.4235 16.4628 16.7822C16.2775 17.1386 16.0089 17.4114 15.6569 17.6007C15.3072 17.7877 14.8823 17.8812 14.3821 17.8812H12.5029ZM13.3991 17.165H14.264C14.5951 17.165 14.8777 17.1001 15.1116 16.9703C15.3454 16.8405 15.5226 16.6513 15.643 16.4026C15.7657 16.154 15.8271 15.8515 15.8271 15.495V15.4884C15.8271 15.1408 15.7646 14.8438 15.6395 14.5974C15.5168 14.3487 15.3385 14.1595 15.1046 14.0297C14.8707 13.8999 14.5905 13.835 14.264 13.835H13.3991V17.165Z" fill="white"/>
	<path d="M9.37247 18C8.88153 18 8.45891 17.8988 8.1046 17.6964C7.75261 17.4917 7.48051 17.2024 7.28831 16.8284C7.0961 16.4543 7 16.0121 7 15.5017V15.495C7 14.9824 7.0961 14.5402 7.28831 14.1683C7.48283 13.7943 7.75724 13.5061 8.11155 13.3036C8.46818 13.1012 8.88848 13 9.37247 13C9.85877 13 10.2791 13.1012 10.6334 13.3036C10.9877 13.5061 11.2609 13.7943 11.4532 14.1683C11.6454 14.5424 11.7415 14.9846 11.7415 15.495V15.5017C11.7415 16.0121 11.6454 16.4543 11.4532 16.8284C11.2633 17.2024 10.9912 17.4917 10.6369 17.6964C10.2826 17.8988 9.86109 18 9.37247 18ZM9.37247 17.264C9.6712 17.264 9.9294 17.1914 10.1471 17.0462C10.3648 16.901 10.5327 16.6964 10.6508 16.4323C10.7712 16.1683 10.8314 15.8581 10.8314 15.5017V15.495C10.8314 15.1364 10.7712 14.8262 10.6508 14.5644C10.5327 14.3003 10.3648 14.0968 10.1471 13.9538C9.9294 13.8086 9.6712 13.736 9.37247 13.736C9.07606 13.736 8.81785 13.8086 8.59786 13.9538C8.38018 14.0968 8.21113 14.3003 8.09071 14.5644C7.97261 14.8262 7.91356 15.1364 7.91356 15.495V15.5017C7.91356 15.8581 7.97145 16.1683 8.08724 16.4323C8.20534 16.6964 8.37323 16.901 8.59091 17.0462C8.8109 17.1914 9.07142 17.264 9.37247 17.264Z" fill="white"/>
</svg>