<svg width="40" height="40" viewBox="0 0 40 40" fill="none" xmlns="http://www.w3.org/2000/svg">
	<path d="M2 8C2 6.34315 3.34315 5 5 5H14.169C14.7128 5 15.2463 5.14777 15.7125 5.42752L19.2875 7.57248C19.7537 7.85223 20.2872 8 20.831 8H35C36.6569 8 38 9.34315 38 11V12.5H2L2 8Z" fill="url(#paint0_linear_27375_21157)"/>
	<path d="M2 14H37.9999L38 31C38 33.2091 36.2091 35 34 35H6.00007C3.79093 35 2.00007 33.2091 2.00006 31L2 14Z" fill="url(#paint1_linear_27375_21157)"/>
	<path fill-rule="evenodd" clip-rule="evenodd" d="M22.1275 26.2087C23.2159 25.5777 24.5617 25.3817 25.781 25.3817C27.0004 25.3817 28.3462 25.5777 29.4345 26.2087C30.5544 26.8579 31.3649 27.949 31.4938 29.6211C31.5377 30.1918 31.0713 30.6252 30.5493 30.6252H21.0128C20.4908 30.6252 20.0243 30.1918 20.0683 29.6211C20.1972 27.949 21.0076 26.8579 22.1275 26.2087ZM21.1267 29.5752H30.4354C30.3056 28.3332 29.7102 27.5821 28.9079 27.1171C28.0472 26.6181 26.9136 26.4317 25.781 26.4317C24.6485 26.4317 23.5148 26.6181 22.6541 27.1171C21.8519 27.5821 21.2564 28.3332 21.1267 29.5752Z" fill="white"/>
	<path fill-rule="evenodd" clip-rule="evenodd" d="M25.2015 19.009C24.9776 19.0832 24.8158 19.1709 24.7448 19.2232C24.0643 19.7242 23.7275 20.8096 23.9657 21.8948C24.1955 22.9415 24.8535 23.5867 25.7747 23.5867C26.3612 23.5867 26.793 23.3372 27.1098 22.9308C27.4456 22.5001 27.6544 21.8795 27.6702 21.2185C27.6861 20.5565 27.5066 19.9565 27.1948 19.5481C26.9076 19.1721 26.4697 18.9006 25.7747 18.9006C25.6287 18.9006 25.4219 18.9359 25.2015 19.009ZM24.1223 18.3776C21.9023 20.0118 22.6391 24.6367 25.7747 24.6367C29.5392 24.6367 29.8642 17.8506 25.7747 17.8506C25.1996 17.8506 24.491 18.1062 24.1223 18.3776Z" fill="white"/>
	<path fill-rule="evenodd" clip-rule="evenodd" d="M29.3052 18.9022C29.9469 18.9253 30.3586 19.189 30.6328 19.5481C30.9446 19.9565 31.1241 20.5565 31.1082 21.2185C31.0924 21.8795 30.8836 22.5001 30.5478 22.9308C30.231 23.3372 29.7993 23.5867 29.2127 23.5867C29.1704 23.5867 29.1287 23.5853 29.0876 23.5826L28.3977 24.522C28.6482 24.5964 28.92 24.6367 29.2127 24.6367C32.9772 24.6367 33.3022 17.8506 29.2127 17.8506C28.9709 17.8506 28.7056 17.8958 28.4518 17.9683L29.3052 18.9022ZM32.3729 30.6256H33.9873C34.5092 30.6256 34.9757 30.1922 34.9318 29.6215C34.8029 27.9494 33.9924 26.8583 32.8725 26.209C32.0589 25.7374 31.1015 25.5088 30.1606 25.4235L31.4949 26.7461C31.7986 26.8435 32.0848 26.9661 32.3459 27.1175C33.1482 27.5825 33.7436 28.3336 33.8734 29.5756H32.3729V30.6256Z" fill="white"/>
	<path fill-rule="evenodd" clip-rule="evenodd" d="M22.1275 26.2087C23.2159 25.5777 24.5617 25.3817 25.781 25.3817C27.0004 25.3817 28.3462 25.5777 29.4345 26.2087C30.5544 26.8579 31.3649 27.949 31.4938 29.6211C31.5377 30.1918 31.0713 30.6252 30.5493 30.6252H21.0128C20.4908 30.6252 20.0243 30.1918 20.0683 29.6211C20.1972 27.949 21.0076 26.8579 22.1275 26.2087ZM21.1267 29.5752H30.4354C30.3056 28.3332 29.7102 27.5821 28.9079 27.1171C28.0472 26.6181 26.9136 26.4317 25.781 26.4317C24.6485 26.4317 23.5148 26.6181 22.6541 27.1171C21.8519 27.5821 21.2564 28.3332 21.1267 29.5752Z" fill="white"/>
	<path fill-rule="evenodd" clip-rule="evenodd" d="M25.2015 19.009C24.9776 19.0832 24.8158 19.1709 24.7448 19.2232C24.0643 19.7242 23.7275 20.8096 23.9657 21.8948C24.1955 22.9415 24.8535 23.5867 25.7747 23.5867C26.3612 23.5867 26.793 23.3372 27.1098 22.9308C27.4456 22.5001 27.6544 21.8795 27.6702 21.2185C27.6861 20.5565 27.5066 19.9565 27.1948 19.5481C26.9076 19.1721 26.4697 18.9006 25.7747 18.9006C25.6287 18.9006 25.4219 18.9359 25.2015 19.009ZM24.1223 18.3776C21.9023 20.0118 22.6391 24.6367 25.7747 24.6367C29.5392 24.6367 29.8642 17.8506 25.7747 17.8506C25.1996 17.8506 24.491 18.1062 24.1223 18.3776Z" fill="white"/>
	<path fill-rule="evenodd" clip-rule="evenodd" d="M29.3052 18.9022C29.9469 18.9253 30.3586 19.189 30.6328 19.5481C30.9446 19.9565 31.1241 20.5565 31.1082 21.2185C31.0924 21.8795 30.8836 22.5001 30.5478 22.9308C30.231 23.3372 29.7993 23.5867 29.2127 23.5867C29.1704 23.5867 29.1287 23.5853 29.0876 23.5826L28.3977 24.522C28.6482 24.5964 28.92 24.6367 29.2127 24.6367C32.9772 24.6367 33.3022 17.8506 29.2127 17.8506C28.9709 17.8506 28.7056 17.8958 28.4518 17.9683L29.3052 18.9022ZM32.3729 30.6256H33.9873C34.5092 30.6256 34.9757 30.1922 34.9318 29.6215C34.8029 27.9494 33.9924 26.8583 32.8725 26.209C32.0589 25.7374 31.1015 25.5088 30.1606 25.4235L31.4949 26.7461C31.7986 26.8435 32.0848 26.9661 32.3459 27.1175C33.1482 27.5825 33.7436 28.3336 33.8734 29.5756H32.3729V30.6256Z" fill="white"/>
	<defs>
		<linearGradient id="paint0_linear_27375_21157" x1="20" y1="4.2148" x2="20" y2="18.684" gradientUnits="userSpaceOnUse">
			<stop stop-color="#58BCF4"/>
			<stop offset="1" stop-color="#3F81EC"/>
		</linearGradient>
		<linearGradient id="paint1_linear_27375_21157" x1="20" y1="11.9389" x2="20" y2="49.9206" gradientUnits="userSpaceOnUse">
			<stop stop-color="#58BCF4"/>
			<stop offset="1" stop-color="#3F81EC"/>
		</linearGradient>
	</defs>
</svg>
