<svg version="1.0" xmlns="http://www.w3.org/2000/svg" width="1260" height="333.333" viewBox="0 0 945 250"><path d="M860.1 10c-24.1 5.1-42.7 22.2-49.7 45.5-2.5 8.2-2.5 24.8 0 32.9 6.8 22.7 25.5 40.5 47.4 45.2 25.4 5.3 51.5-5.3 65.8-26.7 6.7-10.1 9.6-19.1 10.2-31.7.6-12.7-1.3-21.4-7.1-32.6-7.2-14-21.4-25.9-36.7-30.7-7.4-2.3-23.1-3.3-29.9-1.9zM884 22.1c6.5 1.5 17.1 7.4 22.3 12.4 19.4 18.5 21.9 47.4 6 68.5-16 21.3-46.5 26.7-68.9 12.2-15-9.8-23.4-25.3-23.4-43.2.1-33.7 30.5-57.4 64-49.9z"/><path d="m867.2 60.7.3 19.8h39l.3-4.3.3-4.2H876V41h-9l.2 19.7zM153.5 42.9c-9.4 2.3-14.7 8.7-15.3 18.5-.3 5 .1 6.9 2 10.6 3.5 6.5 9.7 10.1 17.4 10.1 6.9.1 9.8-.9 14.3-4.6 6.5-5.5 8.9-15.2 5.7-22.8-2-4.9-7.5-9.6-13-11.2-5.4-1.6-6.5-1.7-11.1-.6zM387.1 43.5c-8.6 2.7-13.4 9.6-13.4 19 0 6.9 1.7 11 6.5 15 4.4 3.7 7.3 4.7 14 4.7 13.4 0 22.8-11.7 19.7-24.4-2.7-11.5-15.1-18.1-26.8-14.3zM607 51.6c-14.1 2.2-26.8 5.6-38.8 10.7-4 1.6-7.1 3.5-6.9 4.1.2.6 2.2 6.4 4.3 12.8 2.1 6.5 4.3 11.8 5 11.8.6 0 4.2-1.4 8-3.1 3.8-1.7 11-4.2 16.1-5.5 23.7-6 40.1-3.4 47.7 7.4 2.5 3.5 3.1 5.5 3.4 11.3.4 6 .1 7.7-2.3 12.4-3.7 7.7-9.4 13.2-28.5 27.5-30.8 23.1-43.8 38.2-52.8 61.7-3.2 8.2-7.2 25.7-7.2 31.2v3.1h129v-28h-85.2l.6-2.8c1.3-5.3 6.6-14.8 12-21.3 5.2-6.4 15.7-15.5 34.9-30.3 18.7-14.4 27.9-25.1 32.5-37.5 4.6-12.5 3.8-29.1-1.9-40.3-5.9-11.5-19.8-21.1-35.1-24.2-7.1-1.5-27.7-2-34.8-1z"/><path d="M758.8 60.7c-4.1 5.4-24.7 32-45.7 59.2L675 169.4V192l41.3.2 41.2.3.3 22.3.2 22.2h33v-45h27v-27h-27V51H766.3l-7.5 9.7zm-.7 73.3-.6 30.5-22.3.3c-12.3.1-22.2-.1-22-.6.4-1.2 45.1-61.2 45.3-60.9.1.1-.1 13.9-.4 30.7zM11.8 52.6c-.5.4-.8 42.1-.8 92.6V237h35c40.8 0 45.4-.6 59.6-7.5 14.1-6.9 23.5-17.8 27.8-32.4 2-6.8 2.1-20.7.2-27.9-3.6-13.5-14.7-25.3-28.2-29.9l-4.8-1.6 2.5-1.6c15.8-10.3 23.2-29.9 18.3-48.6-4.1-16.1-16.5-27.4-35.9-32.8-6.1-1.7-11.2-2-40-2.4-18.1-.3-33.3-.2-33.7.3zm56.9 28.5c13.3 2.3 20.8 11 20.6 23.8-.1 7.8-1.1 10.6-5.4 15.5-5.9 6.8-9.6 8-25.1 8.4l-13.8.4V80h8.7c4.7 0 11.5.5 15 1.1zm9.2 76.9c8 1.4 12.8 3.8 17.4 8.9 4.4 4.9 6.1 10.6 5.4 18.6-.8 10.3-5.1 16.5-14.2 20.7-4.5 2-6.8 2.3-23.2 2.6l-18.3.4V157h13.3c7.2 0 16.1.5 19.6 1zM231 66.1c-3.6 1.1-10.9 3.3-16.2 5l-9.8 3V105h-24.1l.3 12.7.3 12.8 11.8.3 11.7.3v36.7c0 20.4.5 39.5 1 43.1 2.1 12.4 9.3 21.7 20.6 26.2 12 4.7 36.4 2.5 50.5-4.6 2.7-1.4 4.9-2.7 4.9-3 0-.5-9.1-21.7-9.6-22.4-.2-.1-2.8.9-5.8 2.3s-8.2 2.9-11.5 3.2c-8.1.9-11.8-.7-14.2-6-1.7-3.7-1.9-7.2-1.9-39.9V131h31.9l3.6-11.5c2-6.4 3.8-12.2 4.2-13 .4-1.3-2.4-1.5-19.6-1.5H239V84.5c0-11.3-.3-20.5-.7-20.4-.5 0-3.7 1-7.3 2zM343 102.5c-6.5 1.9-14.2 6.3-21 12.3l-4.9 4.3-1-3.9c-.6-2.1-1.4-5.2-1.7-7l-.6-3.2H285v132h33v-92.8l4.3-3.7c2.3-2 6.9-5.1 10.2-6.8 7.6-3.9 16.5-4.3 23.6-1.1l4.6 2.1 5.6-13.6c3.2-7.5 5.7-14 5.7-14.4 0-.4-2.1-1.7-4.6-2.8-6.1-2.8-17.3-3.4-24.4-1.4zM141 171v66h34V105h-34v66zM377 171v66h34V105h-34v66zM417.6 106.2c.4.7 11.1 15.4 23.7 32.6 12.5 17.3 22.6 31.9 22.3 32.5-.3.7-11.3 15.6-24.5 33.2l-23.9 32 17 .3c9.7.1 17.5-.2 18.2-.7.6-.5 7.9-10.2 16.1-21.5 8.3-11.3 15.5-20.5 16-20.5.6 0 7.9 9.7 16.4 21.5l15.4 21.4h17.4c13.7 0 17.3-.3 16.7-1.3-.4-.6-11.3-15.5-24.2-33-12.9-17.4-23.2-32.3-22.9-33 .3-.6 11.1-15.4 23.9-32.7l23.4-31.5-16.5-.3c-9.1-.1-17-.1-17.6.1-.5.3-7.7 9.7-16 21-8.2 11.4-15.3 20.6-15.7 20.7-.3 0-7.5-9.5-15.9-21l-15.3-21h-17.3c-13.7 0-17.3.3-16.7 1.2z"/></svg>