
<svg width="126" height="126" viewBox="0 0 126 126" fill="none" xmlns="http://www.w3.org/2000/svg">
  <path d="M28.0742 37.3964C28.0742 29.8165 34.4373 23.7902 42.0064 24.2015L87.315 26.6637C94.3245 27.0446 99.8129 32.8391 99.8129 39.8586V85.0832C99.8129 91.9973 94.4828 97.7425 87.5878 98.2604L42.2791 101.664C34.6123 102.24 28.0742 96.1745 28.0742 88.4864V37.3964Z" fill="#0075FF" fill-opacity="0.78"/>
  <path d="M41.9822 24.6463L87.2908 27.1085C94.064 27.4766 99.3675 33.0758 99.3675 39.8586V85.0832C99.3675 91.7642 94.217 97.3157 87.5544 97.8162L42.2457 101.219C34.8373 101.776 28.5197 95.9153 28.5197 88.4864V37.3964C28.5197 30.0721 34.6682 24.2488 41.9822 24.6463Z" stroke="white" stroke-opacity="0.24" stroke-width="0.890909"/>
  <mask id="path-3-inside-1_376_118713" fill="white">
    <path fill-rule="evenodd" clip-rule="evenodd" d="M66.2213 60.2586L66.2299 60.266H66.2129L66.2213 60.2586ZM50.1527 46.3975L66.2213 60.2586L81.1503 47.1416L50.1527 46.3975ZM66.2299 66.7601L83.7533 50.879V74.5231C83.7533 75.9776 82.6644 77.2122 81.3204 77.2799L49.9485 78.8697C48.3833 78.9373 47.0903 77.7196 47.0903 76.1298V50.3378L66.2299 66.7601Z"/>
  </mask>
  <path fill-rule="evenodd" clip-rule="evenodd" d="M66.2213 60.2586L66.2299 60.266H66.2129L66.2213 60.2586ZM50.1527 46.3975L66.2213 60.2586L81.1503 47.1416L50.1527 46.3975ZM66.2299 66.7601L83.7533 50.879V74.5231C83.7533 75.9776 82.6644 77.2122 81.3204 77.2799L49.9485 78.8697C48.3833 78.9373 47.0903 77.7196 47.0903 76.1298V50.3378L66.2299 66.7601Z" fill="white" fill-opacity="0.9"/>
  <path d="M66.2299 60.266V60.9023H67.9418L66.6456 59.7841L66.2299 60.266ZM66.2129 60.266L65.7929 59.7879L64.5243 60.9023H66.2129V60.266ZM50.1527 46.3975L50.1679 45.7613L48.3915 45.7186L49.737 46.8793L50.1527 46.3975ZM81.1503 47.1416L81.5703 47.6197L82.794 46.5445L81.1656 46.5054L81.1503 47.1416ZM83.7533 50.879H84.3896V49.4434L83.3259 50.4074L83.7533 50.879ZM66.2299 66.7601L65.8155 67.2431L66.2414 67.6085L66.6572 67.2316L66.2299 66.7601ZM81.3204 77.2799L81.2884 76.6443L81.2882 76.6443L81.3204 77.2799ZM49.9485 78.8697L49.976 79.5055L49.9807 79.5052L49.9485 78.8697ZM47.0903 50.3378L47.5047 49.8548L46.454 48.9532V50.3378H47.0903ZM66.6456 59.7841L66.637 59.7767L65.8057 60.7404L65.8142 60.7478L66.6456 59.7841ZM66.2129 60.9023H66.2299V59.6296H66.2129V60.9023ZM65.8013 59.7805L65.7929 59.7879L66.6329 60.7441L66.6413 60.7367L65.8013 59.7805ZM66.637 59.7767L50.5683 45.9156L49.737 46.8793L65.8057 60.7404L66.637 59.7767ZM80.7303 46.6636L65.8013 59.7805L66.6414 60.7366L81.5703 47.6197L80.7303 46.6636ZM50.1374 47.0336L81.135 47.7778L81.1656 46.5054L50.1679 45.7613L50.1374 47.0336ZM83.3259 50.4074L65.8026 66.2886L66.6572 67.2316L84.1806 51.3505L83.3259 50.4074ZM84.3896 74.5231V50.879H83.1169V74.5231H84.3896ZM81.3524 77.9154C83.0778 77.8286 84.3896 76.2721 84.3896 74.5231H83.1169C83.1169 75.6831 82.2511 76.5959 81.2884 76.6443L81.3524 77.9154ZM49.9807 79.5052L81.3526 77.9154L81.2882 76.6443L49.9163 78.2341L49.9807 79.5052ZM46.454 76.1298C46.454 78.0846 48.0517 79.5886 49.976 79.5055L49.921 78.2339C48.715 78.286 47.7267 77.3546 47.7267 76.1298H46.454ZM46.454 50.3378V76.1298H47.7267V50.3378H46.454ZM66.6443 66.2772L47.5047 49.8548L46.6759 50.8207L65.8155 67.2431L66.6443 66.2772Z" fill="white" fill-opacity="0.18" mask="url(#path-3-inside-1_376_118713)"/>
  <path d="M6.36365 70.6116C6.36365 65.4064 10.565 61.1805 15.7623 61.1581L30.8652 61.0929C36.0942 61.0703 40.3451 65.3094 40.3451 70.5464V87.6134C40.3451 92.5703 36.5222 96.6855 31.5857 97.0425L16.4828 98.1347C11.0161 98.5301 6.36365 94.1949 6.36365 88.7056V70.6116Z" fill="#1BCE7B" fill-opacity="0.78"/>
  <path d="M15.7636 61.4762L30.8665 61.411C35.9188 61.3892 40.027 65.4852 40.027 70.5464V87.6134C40.027 92.4039 36.3325 96.3802 31.5627 96.7251L16.4598 97.8174C11.1779 98.1993 6.68183 94.0106 6.68183 88.7056V70.6116C6.68183 65.5811 10.742 61.4979 15.7636 61.4762Z" stroke="white" stroke-opacity="0.18" stroke-width="0.636364"/>
  <g filter="url(#filter0_d_376_118713)">
    <path d="M25.3976 69.6639C25.1597 69.424 24.7785 69.6247 24.7785 69.9919V74.7457C24.7348 74.7286 24.6887 74.7213 24.6426 74.7237C16.3198 75.2647 13.6879 84.4296 12.9814 87.984C12.8989 88.405 13.3529 88.6326 13.6297 88.3242C15.4263 86.3096 19.7455 82.0992 24.6329 81.8667C24.6838 81.8642 24.7348 81.8495 24.7785 81.8275V87.3548C24.7785 87.722 25.1597 87.8909 25.3976 87.6315L33.5796 78.726C33.7908 78.4984 33.7908 78.114 33.5796 77.9035L25.3976 69.6639Z" fill="white" fill-opacity="0.9" shape-rendering="crispEdges"/>
  </g>
  <path d="M91.3179 38.7061C91.3179 34.3977 94.9063 30.9598 99.2039 31.1506L112.419 31.7377C116.455 31.917 119.636 35.2466 119.636 39.2931V55.0312C119.636 59.1589 116.331 62.5241 112.211 62.5931L98.9955 62.8143C94.7762 62.8849 91.3179 59.4787 91.3179 55.2524V38.7061Z" fill="#9BD4FF" fill-opacity="0.8"/>
  <path d="M99.1898 31.4685L112.405 32.0555C116.271 32.2272 119.318 35.4164 119.318 39.2931V55.0312C119.318 58.9857 116.152 62.2089 112.205 62.275L98.9901 62.4961C94.9491 62.5637 91.6361 59.3014 91.6361 55.2524V38.7061C91.6361 34.5785 95.0737 31.2857 99.1898 31.4685Z" stroke="white" stroke-opacity="0.18" stroke-width="0.636364"/>
  <g filter="url(#filter1_d_376_118713)">
    <path d="M113.028 55.6651C112.773 51.2328 109.504 50.0769 106.523 50.053C103.542 50.0291 100.084 51.1659 99.8131 55.7248V55.9302C99.8131 56.1475 99.9654 56.3242 100.152 56.3242L112.705 56.2502C112.884 56.2502 113.025 56.0759 113.025 55.8633V55.6651H113.028Z" fill="white" fill-opacity="0.9" shape-rendering="crispEdges"/>
    <path d="M104.656 38.9937C104.837 38.8456 105.128 38.6761 105.491 38.5471C105.843 38.4182 106.205 38.3537 106.504 38.3632C107.673 38.4014 108.477 39.0009 109.005 39.8415C109.54 40.706 109.813 41.8905 109.792 43.1036C109.771 44.3168 109.456 45.5013 108.889 46.3515C108.34 47.1921 107.547 47.727 106.504 47.7151C104.795 47.6936 103.673 46.1915 103.308 44.2093C102.941 42.2129 103.427 40.0445 104.666 38.9937H104.656Z" fill="white" fill-opacity="0.9" shape-rendering="crispEdges"/>
  </g>
  <defs>
    <filter id="filter0_d_376_118713" x="6.60792" y="65.7414" width="33.4938" height="31.6345" filterUnits="userSpaceOnUse" color-interpolation-filters="sRGB">
      <feFlood flood-opacity="0" result="BackgroundImageFix"/>
      <feColorMatrix in="SourceAlpha" type="matrix" values="0 0 0 0 0 0 0 0 0 0 0 0 0 0 0 0 0 0 127 0" result="hardAlpha"/>
      <feOffset dy="2.54545"/>
      <feGaussianBlur stdDeviation="3.18182"/>
      <feComposite in2="hardAlpha" operator="out"/>
      <feColorMatrix type="matrix" values="0 0 0 0 0 0 0 0 0 0 0 0 0 0 0 0 0 0 0.05 0"/>
      <feBlend mode="normal" in2="BackgroundImageFix" result="effect1_dropShadow_376_118713"/>
      <feBlend mode="normal" in="SourceGraphic" in2="effect1_dropShadow_376_118713" result="shape"/>
    </filter>
    <filter id="filter1_d_376_118713" x="93.4495" y="34.5441" width="25.9422" height="30.6892" filterUnits="userSpaceOnUse" color-interpolation-filters="sRGB">
      <feFlood flood-opacity="0" result="BackgroundImageFix"/>
      <feColorMatrix in="SourceAlpha" type="matrix" values="0 0 0 0 0 0 0 0 0 0 0 0 0 0 0 0 0 0 127 0" result="hardAlpha"/>
      <feOffset dy="2.54545"/>
      <feGaussianBlur stdDeviation="3.18182"/>
      <feComposite in2="hardAlpha" operator="out"/>
      <feColorMatrix type="matrix" values="0 0 0 0 0 0 0 0 0 0 0 0 0 0 0 0 0 0 0.05 0"/>
      <feBlend mode="normal" in2="BackgroundImageFix" result="effect1_dropShadow_376_118713"/>
      <feBlend mode="normal" in="SourceGraphic" in2="effect1_dropShadow_376_118713" result="shape"/>
    </filter>
  </defs>
</svg>
