<svg width="24" height="24" viewBox="0 0 24 24" fill="none" xmlns="http://www.w3.org/2000/svg">
<path fill-rule="evenodd" clip-rule="evenodd" d="M11.9989 6.47337L16.4626 18.1484C16.6007 18.5095 17.0053 18.6903 17.3664 18.5523C17.7275 18.4142 17.9084 18.0096 17.7703 17.6484L13.12 5.48532C12.7269 4.45711 11.2724 4.45659 10.8785 5.48451L6.21792 17.648C6.07959 18.009 6.26011 18.4138 6.62112 18.5521C6.98212 18.6904 7.38691 18.5099 7.52523 18.1489L11.9989 6.47337Z" fill="#333333"/>
<path fill-rule="evenodd" clip-rule="evenodd" d="M7.79999 14.0005C7.79999 13.6139 8.11339 13.3005 8.49999 13.3005H15.5C15.8866 13.3005 16.2 13.6139 16.2 14.0005C16.2 14.3871 15.8866 14.7005 15.5 14.7005H8.49999C8.11339 14.7005 7.79999 14.3871 7.79999 14.0005Z" fill="#333333"/>
</svg>
