<svg width="24" height="24" viewBox="0 0 24 24" fill="none" xmlns="http://www.w3.org/2000/svg">
<path fill-rule="evenodd" clip-rule="evenodd" d="M11.9065 5.20762C8.79579 5.20762 6.27402 7.72938 6.27402 10.8401C6.27402 13.9509 8.79579 16.4727 11.9065 16.4727C15.0173 16.4727 17.5391 13.9509 17.5391 10.8401C17.5391 7.72938 15.0173 5.20762 11.9065 5.20762ZM4.87402 10.8401C4.87402 6.95618 8.02259 3.80762 11.9065 3.80762C15.7905 3.80762 18.9391 6.95618 18.9391 10.8401C18.9391 14.7241 15.7905 17.8727 11.9065 17.8727C8.02259 17.8727 4.87402 14.7241 4.87402 10.8401Z" fill="#333333"/>
<path fill-rule="evenodd" clip-rule="evenodd" d="M11.9061 9.15893L11.5983 9.81338C11.4849 10.0547 11.2586 10.2236 10.995 10.2638L10.241 10.3788L10.8117 10.9627C10.9894 11.1445 11.0701 11.4 11.0291 11.6509L10.9015 12.4323L11.5196 12.0912C11.7601 11.9585 12.052 11.9585 12.2926 12.0912L12.9107 12.4323L12.783 11.6509C12.742 11.4 12.8227 11.1445 13.0004 10.9627L13.5711 10.3788L12.8171 10.2638C12.5535 10.2236 12.3273 10.0547 12.2138 9.81338L11.9061 9.15893ZM11.1795 7.41407C11.4697 6.79687 12.3424 6.79687 12.6326 7.41407L13.3445 8.92807L14.9226 9.16874C15.6166 9.27459 15.803 10.0983 15.3752 10.536L14.2136 11.7244L14.4891 13.4106C14.5849 13.997 13.966 14.6136 13.3094 14.2513L11.9061 13.4769L10.5027 14.2513C9.8461 14.6136 9.22718 13.997 9.32301 13.4106L9.59856 11.7244L8.43694 10.536C8.00916 10.0983 8.19551 9.27459 8.88955 9.16874L10.4676 8.92807L11.1795 7.41407Z" fill="#333333"/>
<path fill-rule="evenodd" clip-rule="evenodd" d="M7.90605 15.2236C8.29265 15.2236 8.60605 15.537 8.60605 15.9236V19.3723L11.6452 18.1518C11.8126 18.0845 11.9995 18.0845 12.1669 18.1518L15.2061 19.3723V15.9236C15.2061 15.537 15.5195 15.2236 15.9061 15.2236C16.2927 15.2236 16.6061 15.537 16.6061 15.9236V20.4078C16.6061 20.6403 16.4907 20.8575 16.2981 20.9877C16.1055 21.1179 15.8609 21.144 15.6452 21.0574L11.9061 19.5557L8.16693 21.0574C7.95123 21.144 7.70659 21.1179 7.51402 20.9877C7.32144 20.8575 7.20605 20.6403 7.20605 20.4078V15.9236C7.20605 15.537 7.51946 15.2236 7.90605 15.2236Z" fill="#333333"/>
</svg>
