<svg width="24" height="24" viewBox="0 0 24 24" fill="none" xmlns="http://www.w3.org/2000/svg">
<path d="M16.0067 10.3068C16.2679 10.0218 16.2487 9.57902 15.9637 9.31779C15.6787 9.05655 15.2359 9.0758 14.9747 9.36079L11.439 13.2179L9.41191 11.4804C9.11839 11.2288 8.67648 11.2628 8.42488 11.5563C8.17329 11.8499 8.20728 12.2918 8.50081 12.5434L11.0419 14.7215C11.3286 14.9672 11.7584 14.9413 12.0135 14.663L16.0067 10.3068Z" fill="#333333"/>
<path fill-rule="evenodd" clip-rule="evenodd" d="M10.5 3.7613C11.4282 3.2254 12.5718 3.2254 13.5 3.7613L18.3843 6.58125C19.3125 7.11715 19.8843 8.10753 19.8843 9.17933V14.8192C19.8843 15.891 19.3125 16.8814 18.3843 17.4173L13.5 20.2373C12.5718 20.7732 11.4282 20.7732 10.5 20.2373L5.61572 17.4173C4.68752 16.8814 4.11572 15.891 4.11572 14.8192V9.17933C4.11572 8.10753 4.68752 7.11715 5.61572 6.58125L10.5 3.7613ZM12.8 4.97373L17.6843 7.79369C18.1794 8.0795 18.4843 8.6077 18.4843 9.17933V14.8192C18.4843 15.3909 18.1794 15.9191 17.6843 16.2049L12.8 19.0248C12.305 19.3106 11.6951 19.3106 11.2 19.0248L6.31572 16.2049C5.82068 15.9191 5.51572 15.3909 5.51572 14.8192V9.17933C5.51572 8.6077 5.82068 8.0795 6.31572 7.79369L11.2 4.97373C11.6951 4.68792 12.305 4.68792 12.8 4.97373Z" fill="#333333"/>
</svg>
