<svg width="24" height="24" viewBox="0 0 24 24" fill="none" xmlns="http://www.w3.org/2000/svg">
<path d="M17.0146 4.96777C18.3762 5.106 19.4385 6.25629 19.4385 7.6543C19.4385 7.79048 19.2992 7.88224 19.1738 7.8291L18.0869 7.36816C18.0297 7.34381 17.9878 7.2942 17.9678 7.23535C17.7933 6.72322 17.3095 6.35449 16.7383 6.35449H7.15918C6.44121 6.35449 5.85938 6.93633 5.85938 7.6543V16.2998C5.85958 17.0176 6.44134 17.5996 7.15918 17.5996H16.7383C16.9603 17.5996 17.1688 17.5427 17.3516 17.4443C17.3968 17.42 17.4488 17.4104 17.499 17.4209L17.8311 17.4912L18.7959 17.5732C18.9401 17.5856 19.0222 17.7423 18.9385 17.8604C18.4997 18.4784 17.8091 18.9047 17.0146 18.9854L16.7383 18.999H7.15918L6.88281 18.9854C5.61204 18.8562 4.60157 17.846 4.47266 16.5752L4.45898 16.2998V7.6543C4.45898 6.25636 5.52136 5.10608 6.88281 4.96777L7.15918 4.9541H16.7383L17.0146 4.96777Z" fill="#15C674"/>
<path fill-rule="evenodd" clip-rule="evenodd" d="M14.5016 7.98047C14.7022 7.77993 15.0045 7.72008 15.2663 7.8291L22.2711 10.748L22.3668 10.7969C22.5793 10.9265 22.7096 11.1619 22.7018 11.416C22.694 11.67 22.5495 11.8963 22.3297 12.0127L22.2311 12.0557L19.5163 12.9951L18.5768 15.71C18.4818 15.9844 18.2274 16.1717 17.9372 16.1807C17.6469 16.1896 17.3809 16.0181 17.2692 15.75L14.3502 8.74512C14.2412 8.48331 14.3011 8.18101 14.5016 7.98047ZM17.8551 13.5156L18.3053 12.2168L18.3356 12.1426C18.4159 11.9752 18.5605 11.8456 18.7379 11.7842L20.0368 11.334L16.2965 9.77539L17.8551 13.5156Z" fill="#15C674"/>
<path d="M14.1094 13.5674C14.4281 13.6329 14.668 13.9148 14.668 14.2529C14.668 14.591 14.4281 14.873 14.1094 14.9385L13.9688 14.9531H8.54785C8.16125 14.9531 7.84766 14.6395 7.84766 14.2529C7.84766 13.8663 8.16125 13.5527 8.54785 13.5527H13.9688L14.1094 13.5674Z" fill="#15C674"/>
<path d="M12.7539 10.0693C13.0728 10.1347 13.3135 10.4167 13.3135 10.7549C13.3135 11.0931 13.0728 11.3751 12.7539 11.4404L12.6133 11.4551H8.54785C8.16125 11.4551 7.84766 11.1415 7.84766 10.7549C7.84766 10.3683 8.16125 10.0547 8.54785 10.0547H12.6133L12.7539 10.0693Z" fill="#15C674"/>
</svg>
