<svg width="24" height="24" viewBox="0 0 24 24" fill="none" xmlns="http://www.w3.org/2000/svg">
<path fill-rule="evenodd" clip-rule="evenodd" d="M6.24477 18.1994C6.37086 17.2252 6.77123 16.2586 7.56043 15.516C8.41339 14.7134 9.7982 14.0994 12 14.0994C12.5291 14.0994 13.0111 14.135 13.4495 14.2C13.8319 14.2567 14.1879 13.9926 14.2445 13.6102C14.3012 13.2278 14.0371 12.8718 13.6547 12.8151C13.1426 12.7392 12.5917 12.6994 12 12.6994C9.53102 12.6994 7.77219 13.3944 6.60103 14.4964C5.43552 15.5931 4.92932 17.0204 4.82234 18.3436C4.76407 19.0644 5.35409 19.5994 5.99998 19.5994H13.0727C13.4593 19.5994 13.7727 19.286 13.7727 18.8994C13.7727 18.5128 13.4593 18.1994 13.0727 18.1994H6.24477Z" fill="#333333"/>
<path fill-rule="evenodd" clip-rule="evenodd" d="M11.2956 4.9318C11.0193 5.0234 10.8237 5.13047 10.7429 5.18996C9.91895 5.79651 9.49779 7.1262 9.79298 8.47097C10.0769 9.76434 10.8816 10.5376 11.9919 10.5376C12.7033 10.5376 13.2244 10.2368 13.6096 9.74278C14.02 9.21631 14.2784 8.45266 14.298 7.635C14.3176 6.81611 14.0953 6.07984 13.716 5.58316C13.3696 5.12951 12.8418 4.79941 11.992 4.79941C11.8189 4.79941 11.5673 4.84171 11.2956 4.9318ZM9.91298 4.06249C7.11972 6.1187 8.04674 11.9376 11.9919 11.9376C16.7284 11.9376 17.1373 3.39941 11.992 3.39941C11.2683 3.39941 10.3768 3.72106 9.91298 4.06249Z" fill="#333333"/>
<path fill-rule="evenodd" clip-rule="evenodd" d="M17 13.1994C17.3866 13.1994 17.7 13.5128 17.7 13.8994V18.8994C17.7 19.286 17.3866 19.5994 17 19.5994C16.6134 19.5994 16.3 19.286 16.3 18.8994V13.8994C16.3 13.5128 16.6134 13.1994 17 13.1994Z" fill="#333333"/>
<path fill-rule="evenodd" clip-rule="evenodd" d="M13.8 16.3994C13.8 16.0128 14.1134 15.6994 14.5 15.6994H19.5C19.8866 15.6994 20.2 16.0128 20.2 16.3994C20.2 16.786 19.8866 17.0994 19.5 17.0994H14.5C14.1134 17.0994 13.8 16.786 13.8 16.3994Z" fill="#333333"/>
</svg>
