<svg width="24" height="24" viewBox="0 0 24 24" fill="none" xmlns="http://www.w3.org/2000/svg">
<path d="M5.6998 4.9998C5.6998 4.61321 5.3864 4.2998 4.9998 4.2998C4.61321 4.2998 4.2998 4.61321 4.2998 4.9998V7.26456C3.65585 7.53737 3.2041 8.17525 3.2041 8.91864C3.2041 9.66202 3.65585 10.2999 4.2998 10.5727V13.5038C3.65529 13.7767 3.20312 14.4151 3.20312 15.1591C3.20312 15.903 3.65529 16.5414 4.2998 16.8143V18.9998C4.2998 19.3864 4.61321 19.6998 4.9998 19.6998C5.3864 19.6998 5.6998 19.3864 5.6998 18.9998V16.8144C6.34439 16.5415 6.79663 15.9031 6.79663 15.1591C6.79663 14.415 6.34439 13.7766 5.6998 13.5037V10.5726C6.34364 10.2997 6.79528 9.66194 6.79528 8.91864C6.79528 8.17534 6.34364 7.53752 5.6998 7.26466V4.9998Z" fill="#333333"/>
<path fill-rule="evenodd" clip-rule="evenodd" d="M10.0422 6C9.04807 6 8.24219 6.80589 8.24219 7.8V9.59056C8.24219 10.5847 9.04808 11.3906 10.0422 11.3906H18.1989C19.193 11.3906 19.9989 10.5847 19.9989 9.59056V7.8C19.9989 6.80589 19.193 6 18.1989 6H10.0422ZM10.0422 7.4C9.82127 7.4 9.64219 7.57909 9.64219 7.8V9.59056C9.64219 9.81147 9.82127 9.99056 10.0422 9.99056H18.1989C18.4198 9.99056 18.5989 9.81147 18.5989 9.59056V7.8C18.5989 7.57909 18.4198 7.4 18.1989 7.4H10.0422Z" fill="#333333"/>
<path d="M10.0089 16.5986C9.80355 16.5817 9.64219 16.4097 9.64219 16.2V14.4709C9.64219 14.25 9.82127 14.0709 10.0422 14.0709H12.4119L12.4132 14.0689H14C14.3866 14.0689 14.7 13.7555 14.7 13.3689C14.7 12.9823 14.3866 12.6689 14 12.6689H11V12.6709H10.0422C9.04807 12.6709 8.24219 13.4768 8.24219 14.4709V16.2C8.24219 17.1941 9.04808 18 10.0422 18H11.5725L11.5722 17.9986H12C12.3866 17.9986 12.7 17.6852 12.7 17.2986C12.7 16.912 12.3866 16.5986 12 16.5986H10.0089Z" fill="#333333"/>
<path d="M16.9998 13.7998C17.3864 13.7998 17.6998 14.1132 17.6998 14.4998V16.2998H19.4998C19.8864 16.2998 20.1998 16.6132 20.1998 16.9998C20.1998 17.3864 19.8864 17.6998 19.4998 17.6998H17.6998V19.4998C17.6998 19.8864 17.3864 20.1998 16.9998 20.1998C16.6132 20.1998 16.2998 19.8864 16.2998 19.4998V17.6998H14.4998C14.1132 17.6998 13.7998 17.3864 13.7998 16.9998C13.7998 16.6132 14.1132 16.2998 14.4998 16.2998H16.2998V14.4998C16.2998 14.1132 16.6132 13.7998 16.9998 13.7998Z" fill="#333333"/>
</svg>
