<svg width="24" height="24" viewBox="0 0 24 24" fill="none" xmlns="http://www.w3.org/2000/svg">
<path d="M11.9998 8.2998C12.3864 8.2998 12.6998 8.61321 12.6998 8.9998V10.7998H14.4998C14.8864 10.7998 15.1998 11.1132 15.1998 11.4998C15.1998 11.8864 14.8864 12.1998 14.4998 12.1998H12.6998V13.9998C12.6998 14.3864 12.3864 14.6998 11.9998 14.6998C11.6132 14.6998 11.2998 14.3864 11.2998 13.9998V12.1998H9.4998C9.11321 12.1998 8.7998 11.8864 8.7998 11.4998C8.7998 11.1132 9.11321 10.7998 9.4998 10.7998H11.2998V8.9998C11.2998 8.61321 11.6132 8.2998 11.9998 8.2998Z" fill="#333333"/>
<path fill-rule="evenodd" clip-rule="evenodd" d="M4 8C4 6.34315 5.34315 5 7 5H17.0001C18.6569 5 20.0001 6.34315 20.0001 8V15C20.0001 16.6569 18.6569 18 17.0001 18H11.0619L8.47522 20.5867C7.59874 21.4631 6.1001 20.8424 6.1001 19.6029V17.8627C4.88292 17.4804 4 16.3433 4 15V8ZM6.51956 16.527C7.10308 16.7103 7.5001 17.2511 7.5001 17.8627V19.5819L10.0719 17.0101C10.3345 16.7475 10.6906 16.6 11.0619 16.6H17.0001C17.8838 16.6 18.6001 15.8837 18.6001 15V8C18.6001 7.11634 17.8838 6.4 17.0001 6.4H7C6.11634 6.4 5.4 7.11634 5.4 8V15C5.4 15.7143 5.86913 16.3227 6.51956 16.527Z" fill="#333333"/>
</svg>
