<svg width="24" height="24" viewBox="0 0 24 24" fill="none" xmlns="http://www.w3.org/2000/svg">
<path fill-rule="evenodd" clip-rule="evenodd" d="M3.69102 8.02563C3.0409 6.65426 4.04107 5.07324 5.55873 5.07324H18.4416C19.9592 5.07324 20.9594 6.65425 20.3093 8.02562L20.2891 8.06812C19.9471 8.78969 19.22 9.24967 18.4214 9.24967H5.57889C4.78035 9.24967 4.05324 8.7897 3.71117 8.06813L3.69102 8.02563ZM5.55873 6.47324C5.06902 6.47324 4.74628 6.9834 4.95606 7.42591L4.97621 7.46842C5.08659 7.70125 5.32121 7.84967 5.57889 7.84967H18.4214C18.6791 7.84967 18.9137 7.70125 19.0241 7.46841L19.0442 7.42591C19.254 6.9834 18.9313 6.47324 18.4416 6.47324H5.55873Z" fill="#333333"/>
<path d="M7.18523 11.898C6.69424 11.898 6.37155 12.4106 6.58382 12.8533L6.60556 12.8987C6.7165 13.1301 6.95035 13.2773 7.20697 13.2773H12.5929C12.9795 13.2773 13.2929 13.5907 13.2929 13.9773C13.2929 14.3639 12.9795 14.6773 12.5929 14.6773H7.20697C6.4117 14.6773 5.68696 14.2211 5.34315 13.5039L5.32141 13.4586C4.66359 12.0865 5.66363 10.498 7.18523 10.498H14.445C14.8316 10.498 15.145 10.8114 15.145 11.198C15.145 11.5846 14.8316 11.898 14.445 11.898H7.18523Z" fill="#333333"/>
<path d="M9.92683 17.2107L11.5709 17.2105C11.9575 17.2105 12.2709 16.8971 12.2708 16.5105C12.2708 16.1239 11.9574 15.8105 11.5708 15.8105L9.92674 15.8107C8.41183 15.8108 7.41169 17.3866 8.0565 18.7574L8.06994 18.786C8.41082 19.5107 9.13966 19.9732 9.94052 19.9732L11.5709 19.973C11.9575 19.9729 12.2709 19.6595 12.2708 19.2729C12.2708 18.8863 11.9574 18.5729 11.5708 18.573L9.94038 18.5732C9.68196 18.5732 9.44678 18.4239 9.33678 18.1901L9.32335 18.1615C9.11528 17.7192 9.438 17.2107 9.92683 17.2107Z" fill="#333333"/>
<path d="M16.9998 13.7998C17.3864 13.7998 17.6998 14.1132 17.6998 14.4998V16.2998H19.4998C19.8864 16.2998 20.1998 16.6132 20.1998 16.9998C20.1998 17.3864 19.8864 17.6998 19.4998 17.6998H17.6998V19.4998C17.6998 19.8864 17.3864 20.1998 16.9998 20.1998C16.6132 20.1998 16.2998 19.8864 16.2998 19.4998V17.6998H14.4998C14.1132 17.6998 13.7998 17.3864 13.7998 16.9998C13.7998 16.6132 14.1132 16.2998 14.4998 16.2998H16.2998V14.4998C16.2998 14.1132 16.6132 13.7998 16.9998 13.7998Z" fill="#333333"/>
</svg>
