<svg width="24" height="24" viewBox="0 0 24 24" fill="none" xmlns="http://www.w3.org/2000/svg">
<path fill-rule="evenodd" clip-rule="evenodd" d="M10.7057 4.22264C11.5103 3.77325 12.4886 3.76529 13.3004 4.20153L18.2779 6.8763C19.1535 7.34686 19.6998 8.26055 19.6998 9.25465V12.9996C19.6998 13.3862 19.3864 13.6996 18.9998 13.6996C18.6132 13.6996 18.2998 13.3862 18.2998 12.9996V9.25465C18.2998 9.18286 18.2939 9.11194 18.2824 9.04248L12.6998 12.396V18.5113C13.0302 18.3542 13.4303 18.4787 13.6111 18.8028C13.7995 19.1404 13.6784 19.5668 13.3408 19.7551L13.3217 19.7658C12.5022 20.2229 11.5041 20.2218 10.6857 19.7628L5.67955 16.9551C4.82772 16.4774 4.30029 15.5769 4.30029 14.6002V9.38485C4.30029 8.40649 4.82954 7.50468 5.6837 7.02761L10.7057 4.22264ZM11.2998 18.5021V12.3958L5.7422 9.05728C5.7147 9.16288 5.70029 9.27282 5.70029 9.38485V14.6002C5.70029 15.0704 5.95424 15.504 6.36438 15.734L11.2998 18.5021ZM12.6377 5.43475L17.3521 7.96815L12 11.1832L6.75527 8.03267L11.3884 5.44492C11.7758 5.22854 12.2468 5.22471 12.6377 5.43475Z" fill="#333333"/>
<path d="M17.0013 13.7998C17.3879 13.7998 17.7013 14.1132 17.7013 14.4998V16.2998H19.5013C19.8879 16.2998 20.2013 16.6132 20.2013 16.9998C20.2013 17.3864 19.8879 17.6998 19.5013 17.6998H17.7013V19.4998C17.7013 19.8864 17.3879 20.1998 17.0013 20.1998C16.6147 20.1998 16.3013 19.8864 16.3013 19.4998V17.6998H14.5013C14.1147 17.6998 13.8013 17.3864 13.8013 16.9998C13.8013 16.6132 14.1147 16.2998 14.5013 16.2998H16.3013V14.4998C16.3013 14.1132 16.6147 13.7998 17.0013 13.7998Z" fill="#333333"/>
</svg>
