<svg width="24" height="24" viewBox="0 0 24 24" fill="none" xmlns="http://www.w3.org/2000/svg">
<path d="M15.4317 3.59668C15.9288 3.59668 16.3317 3.99962 16.3317 4.49668V4.8916H17.31C18.8564 4.8916 20.11 6.1452 20.11 7.6916V10.9829C20.11 11.3695 19.7966 11.6829 19.41 11.6829C19.0234 11.6829 18.71 11.3695 18.71 10.9829V7.6916C18.71 6.9184 18.0832 6.2916 17.31 6.2916H16.3317V6.92637C16.3317 7.42342 15.9288 7.82637 15.4317 7.82637C14.9347 7.82637 14.5317 7.42342 14.5317 6.92637V6.2916H9.45186V6.92637C9.45186 7.42342 9.04891 7.82637 8.55186 7.82637C8.0548 7.82637 7.65186 7.42342 7.65186 6.92637V6.2916H6.69355C5.92036 6.2916 5.29355 6.9184 5.29355 7.6916V16.2758C5.29355 17.049 5.92035 17.6758 6.69355 17.6758H11.6287C12.0153 17.6758 12.3287 17.9892 12.3287 18.3758C12.3287 18.7624 12.0153 19.0758 11.6287 19.0758H6.69355C5.14715 19.0758 3.89355 17.8222 3.89355 16.2758V7.6916C3.89355 6.14521 5.14716 4.8916 6.69355 4.8916H7.65186V4.49668C7.65186 3.99962 8.0548 3.59668 8.55186 3.59668C9.04891 3.59668 9.45186 3.99962 9.45186 4.49668V4.8916H14.5317V4.49668C14.5317 3.99962 14.9347 3.59668 15.4317 3.59668Z" fill="#333333"/>
<path fill-rule="evenodd" clip-rule="evenodd" d="M15.1706 9.29883C14.7288 9.29883 14.3706 9.657 14.3706 10.0988V10.9449C14.3706 11.3868 14.7288 11.7449 15.1706 11.7449H15.9787C16.4205 11.7449 16.7787 11.3868 16.7787 10.9449V10.0988C16.7787 9.657 16.4205 9.29883 15.9787 9.29883H15.1706Z" fill="#333333"/>
<path fill-rule="evenodd" clip-rule="evenodd" d="M10.854 10.0988C10.854 9.657 11.2122 9.29883 11.654 9.29883H12.4621C12.9039 9.29883 13.2621 9.657 13.2621 10.0988V10.9449C13.2621 11.3868 12.9039 11.7449 12.4621 11.7449H11.654C11.2122 11.7449 10.854 11.3868 10.854 10.9449V10.0988Z" fill="#333333"/>
<path d="M14 16.5975C14 16.2109 14.3134 15.8975 14.7 15.8975H16.5V14.0975C16.5 13.7109 16.8134 13.3975 17.2 13.3975C17.5866 13.3975 17.9 13.7109 17.9 14.0975V15.8975H19.7C20.0866 15.8975 20.4 16.2109 20.4 16.5975C20.4 16.9841 20.0866 17.2975 19.7 17.2975H17.9V19.0975C17.9 19.4841 17.5866 19.7975 17.2 19.7975C16.8134 19.7975 16.5 19.4841 16.5 19.0975V17.2975H14.7C14.3134 17.2975 14 16.9841 14 16.5975Z" fill="#333333"/>
<path fill-rule="evenodd" clip-rule="evenodd" d="M7.17383 10.0988C7.17383 9.657 7.532 9.29883 7.97383 9.29883H8.78193C9.22376 9.29883 9.58193 9.657 9.58193 10.0988V10.9449C9.58193 11.3868 9.22376 11.7449 8.78193 11.7449H7.97383C7.532 11.7449 7.17383 11.3868 7.17383 10.9449V10.0988Z" fill="#333333"/>
<path fill-rule="evenodd" clip-rule="evenodd" d="M7.17383 13.923C7.17383 13.4812 7.532 13.123 7.97383 13.123H8.78193C9.22376 13.123 9.58193 13.4812 9.58193 13.923V14.7692C9.58193 15.211 9.22376 15.5692 8.78193 15.5692H7.97383C7.532 15.5692 7.17383 15.211 7.17383 14.7692V13.923Z" fill="#333333"/>
</svg>
