<svg width="24" height="24" viewBox="0 0 24 24" fill="none" xmlns="http://www.w3.org/2000/svg">
<path fill-rule="evenodd" clip-rule="evenodd" d="M12.169 3.9209C12.4488 3.92104 12.7022 4.08848 12.8125 4.3457C12.9225 4.60283 12.8685 4.90088 12.6758 5.10352C11.0661 6.79367 10.1036 8.98664 9.93654 11.2998H12.3682L12.5098 11.3145C12.8286 11.3798 13.0684 11.6618 13.0684 12C13.0684 12.3382 12.8286 12.6202 12.5098 12.6855L12.3682 12.7002H9.93264C10.0735 14.7744 10.8564 16.7524 12.1699 18.3623C13.007 17.336 13.6338 16.1548 14.0117 14.8857C14.1222 14.5154 14.5124 14.3047 14.8828 14.415C15.2529 14.5255 15.4636 14.9149 15.3535 15.2852C15.0094 16.4408 14.4834 17.5324 13.7998 18.5215C14.8194 18.2659 15.768 17.7746 16.5654 17.082C17.2939 16.4493 17.8748 15.6685 18.2715 14.7959C18.4316 14.4442 18.8465 14.2885 19.1983 14.4482C19.5498 14.6083 19.7055 15.0233 19.5459 15.375C19.0663 16.4299 18.364 17.3737 17.4834 18.1387C16.3531 19.1204 14.9721 19.7698 13.4951 20.0146C13.0574 20.0872 12.6159 20.1228 12.1758 20.123C12.1737 20.1231 12.1711 20.1239 12.169 20.124C12.1668 20.124 12.1643 20.1232 12.1621 20.123C11.122 20.1219 10.0873 19.9207 9.11623 19.5254C7.72961 18.9608 6.5256 18.0233 5.63967 16.8164C4.75382 15.6095 4.21977 14.1805 4.0967 12.6885C3.97369 11.1963 4.26709 9.69906 4.94338 8.36328C5.6197 7.02756 6.65328 5.90517 7.92873 5.12109C9.2041 4.33722 10.6719 3.92129 12.169 3.9209ZM5.5049 12.7002C5.6257 13.8884 6.06095 15.0242 6.76857 15.9883C7.50138 16.9865 8.4967 17.7625 9.64357 18.2295C9.93537 18.3483 10.2348 18.4453 10.5381 18.5215C9.35292 16.8068 8.65487 14.7946 8.53029 12.7002H5.5049ZM10.5371 5.52344C9.87851 5.68901 9.24515 5.95452 8.66115 6.31348C7.6063 6.96198 6.75182 7.89045 6.1924 8.99512C5.82599 9.71882 5.59661 10.5001 5.50978 11.2998H8.53322C8.66495 9.22171 9.36059 7.22575 10.5371 5.52344Z" fill="#15C674"/>
<path fill-rule="evenodd" clip-rule="evenodd" d="M16.5625 4.39941C16.8628 3.86681 17.65 3.86675 17.9502 4.39941L18.0069 4.52246L18.4912 5.83105C18.7242 6.46041 19.2203 6.9565 19.8496 7.18945L21.1582 7.67383C21.8547 7.93154 21.8546 8.917 21.1582 9.1748L19.8496 9.65918C19.2203 9.89211 18.7242 10.3883 18.4912 11.0176L18.0069 12.3262C17.7491 13.0227 16.7636 13.0227 16.5059 12.3262L16.0215 11.0176C15.7885 10.3883 15.2924 9.89213 14.6631 9.65918L13.3545 9.1748C12.658 8.91707 12.658 7.93155 13.3545 7.67383L14.6631 7.18945C15.2924 6.95647 15.7886 6.46036 16.0215 5.83105L16.5059 4.52246L16.5625 4.39941ZM17.2559 6.51074C16.8827 7.36711 16.1991 8.0506 15.3428 8.42383C16.1991 8.79687 16.8825 9.48082 17.2559 10.3369C17.6291 9.48095 18.313 8.79699 19.169 8.42383C18.3128 8.05049 17.6289 7.36705 17.2559 6.51074Z" fill="#15C674"/>
</svg>
