<svg width="24" height="24" viewBox="0 0 24 24" fill="none" xmlns="http://www.w3.org/2000/svg">
<path d="M5.74609 15.1446H7.67773C8.06422 15.1446 8.37774 15.4583 8.37793 15.8448C8.37793 16.2314 8.06433 16.5449 7.67773 16.5449H7.13184C7.27211 16.6968 7.41781 16.8455 7.57227 16.9864L7.78906 17.1768C8.80371 18.0307 9.90616 18.5293 11.1172 18.6719C12.3342 18.8152 13.7079 18.6036 15.2637 17.9668C15.6211 17.821 16.0293 17.9924 16.1758 18.3496C16.3221 18.7072 16.1513 19.116 15.7939 19.2627C14.0724 19.9674 12.4575 20.2387 10.9531 20.0616C9.44317 19.8836 8.08906 19.2592 6.88672 18.2471L6.62793 18.0215C6.43435 17.845 6.25307 17.6579 6.07812 17.4668V18.1485L6.06348 18.2891C5.99824 18.6081 5.71618 18.8476 5.37793 18.8477C5.03964 18.8477 4.75764 18.6081 4.69238 18.2891L4.67773 18.1485V15.8448C4.67793 15.4583 4.99145 15.1446 5.37793 15.1446H5.66309C5.69087 15.1426 5.71842 15.1432 5.74609 15.1446Z" fill="#15C674"/>
<path d="M14.9512 5.26956C15.1329 4.92883 15.5555 4.79935 15.8965 4.9805L16.1797 5.14065C17.5745 5.97072 18.6776 7.2882 19.3584 8.75491C20.0838 10.3179 20.3572 12.1102 19.9404 13.7403L19.8496 14.0723C19.7608 14.3699 19.6546 14.6597 19.5361 14.9424L20.0625 14.7403L20.1992 14.7022C20.5201 14.6487 20.8452 14.8263 20.9668 15.1416C21.088 15.457 20.9662 15.8069 20.6924 15.9824L20.5645 16.0459L18.415 16.8731C18.0545 17.0118 17.6499 16.8329 17.5107 16.4727L16.6836 14.3252C16.5448 13.9644 16.7251 13.5588 17.0859 13.4199C17.4467 13.2812 17.8524 13.4615 17.9912 13.8223L18.2285 14.4395C18.3345 14.1905 18.4293 13.9349 18.5078 13.6719L18.585 13.3936C18.9061 12.1376 18.7075 10.6779 18.0889 9.34475C17.4707 8.01285 16.459 6.86617 15.2383 6.21585L15.1221 6.13772C14.871 5.93018 14.7921 5.56823 14.9512 5.26956Z" fill="#15C674"/>
<path fill-rule="evenodd" clip-rule="evenodd" d="M11.9414 9.56057C12.279 8.96073 13.1653 8.96073 13.5029 9.56057L13.5664 9.69827L13.9551 10.7481C14.0868 11.1036 14.3671 11.384 14.7227 11.5157L15.7725 11.9043C16.5068 12.1763 16.5528 13.1676 15.9102 13.5293L15.7725 13.5928L14.7227 13.9815C14.4115 14.0967 14.1575 14.3254 14.0107 14.6192L13.9551 14.7491L13.5664 15.7989C13.2944 16.5329 12.3032 16.5788 11.9414 15.9366L11.8779 15.7989L11.4893 14.7491C11.3741 14.4379 11.1453 14.1839 10.8516 14.0371L10.7217 13.9815L9.67188 13.5928C8.88857 13.3028 8.88865 12.1944 9.67188 11.9043L10.7217 11.5157C11.0773 11.384 11.3575 11.1036 11.4893 10.7481L11.8779 9.69827L11.9414 9.56057ZM12.7217 11.4258C12.4525 12.0101 11.9837 12.479 11.3994 12.7481C11.9837 13.0171 12.4525 13.4862 12.7217 14.0703C12.9907 13.4863 13.4599 13.0172 14.0439 12.7481C13.4599 12.4789 12.9907 12.01 12.7217 11.4258Z" fill="#15C674"/>
<path d="M9.99902 2.78421C10.2165 2.52508 10.5819 2.46316 10.8682 2.61819L10.9854 2.69729L12.751 4.17874C13.0257 4.40927 13.075 4.80407 12.8828 5.09671C12.8331 5.21034 12.7544 5.30649 12.6562 5.37893L11.3584 6.92776C11.11 7.22378 10.6682 7.26281 10.3721 7.01468C10.0759 6.76617 10.0367 6.32352 10.2852 6.02737L10.6162 5.63186C10.494 5.65436 10.3717 5.67907 10.25 5.70804L9.97168 5.7803C9.08812 6.02784 8.2937 6.47637 7.62207 7.07034C6.47763 8.11392 5.76324 9.61178 5.46777 11.3321L5.38965 11.877C5.38235 11.9387 5.36361 11.9966 5.3418 12.0518C5.33966 12.1232 5.3379 12.1948 5.33789 12.2666C5.33789 12.6532 5.0242 12.9667 4.6377 12.9668C4.2511 12.9668 3.9375 12.6532 3.9375 12.2666C3.9377 9.88737 4.93356 7.62257 6.6123 6.09378C7.41237 5.34424 8.40066 4.76587 9.58984 4.43264L9.92285 4.34573C10.1521 4.29121 10.3827 4.24929 10.6133 4.21389L10.085 3.77054L9.98633 3.66897C9.78397 3.414 9.78175 3.04334 9.99902 2.78421Z" fill="#15C674"/>
<path d="M8.62109 8.67288C8.82561 8.30686 9.36579 8.30686 9.57031 8.67288L9.6084 8.75589L9.7666 9.18753L10.1953 9.34768L10.2783 9.38577C10.6411 9.59108 10.6412 10.1278 10.2783 10.333L10.1953 10.3721L9.7666 10.5313L9.6084 10.9629C9.4439 11.4099 8.84047 11.4379 8.62109 11.0469L8.58301 10.9629L8.42383 10.5313L7.99609 10.3721C7.52204 10.1955 7.52214 9.52442 7.99609 9.34768L8.42383 9.18753L8.58301 8.75589L8.62109 8.67288Z" fill="#15C674"/>
</svg>
