<svg width="24" height="24" viewBox="0 0 24 24" fill="none" xmlns="http://www.w3.org/2000/svg">
<path d="M4.69838 13.3252C4.53897 13.3733 4.41229 13.4749 4.32533 13.6025C4.32078 13.609 4.316 13.6154 4.31166 13.6221C4.29944 13.6414 4.28678 13.6603 4.2765 13.6807C4.26175 13.7091 4.25041 13.7395 4.23939 13.7705C4.23597 13.7806 4.23259 13.7906 4.22963 13.8008C4.22643 13.8112 4.22164 13.8213 4.21889 13.832L3.6017 16.2383L3.58021 16.3779C3.56416 16.7031 3.77801 17.0057 4.1056 17.0898C4.47988 17.1858 4.86192 16.9602 4.95814 16.5859L5.0851 16.0918C6.51046 18.4078 9.06644 19.954 11.9865 19.9541C15.6462 19.9541 18.7378 17.5274 19.7433 14.1973C19.855 13.8273 19.6455 13.437 19.2755 13.3252C18.9055 13.2135 18.5152 13.4229 18.4035 13.793C17.5714 16.5485 15.0118 18.5537 11.9865 18.5537C9.60717 18.5536 7.51737 17.3125 6.32826 15.4424L6.91811 15.7217C7.26763 15.8864 7.68478 15.7362 7.84975 15.3867C8.01452 15.0372 7.86511 14.6201 7.51576 14.4551L5.2101 13.3662C5.18289 13.3534 5.15484 13.3431 5.12709 13.334C5.10855 13.3276 5.08952 13.3232 5.07045 13.3184C5.0574 13.3152 5.04447 13.3119 5.03139 13.3096C4.9239 13.2889 4.81044 13.2914 4.69838 13.3252Z" fill="#15C674"/>
<path fill-rule="evenodd" clip-rule="evenodd" d="M12.631 7.77734C12.4062 7.20109 11.5652 7.18847 11.3234 7.75781L11.2814 7.88867L11.2179 8.16504C10.8465 9.78335 9.53881 11.0202 7.90248 11.3018C7.13751 11.4339 7.11004 12.5224 7.86732 12.6934L7.99721 12.7227C9.59335 13.0826 10.8474 14.3177 11.2316 15.9082L11.2833 16.1211C11.4612 16.8571 12.5133 16.8408 12.6681 16.0996L12.6808 16.0391C13.0272 14.3795 14.3165 13.0785 15.9728 12.7168L16.0744 12.6943C16.8379 12.5277 16.8101 11.4301 16.0392 11.3018L15.7287 11.2373C14.1987 10.8591 13.0108 9.62785 12.7003 8.06348L12.6691 7.91016L12.631 7.77734ZM11.9679 10.0273C12.4509 10.8571 13.1431 11.5461 13.9738 12.0244C13.1468 12.5174 12.4588 13.2119 11.9728 14.043C11.4854 13.2087 10.7924 12.5137 9.96303 12.0205C10.7913 11.542 11.4838 10.8557 11.9679 10.0273Z" fill="#15C674"/>
<path d="M11.9865 4.04297C8.32668 4.04297 5.23516 6.46964 4.22963 9.7998C4.11796 10.1699 4.32734 10.5601 4.6974 10.6719C5.06746 10.7835 5.45775 10.5742 5.56947 10.2041C6.40158 7.44853 8.96108 5.44336 11.9865 5.44336C14.3644 5.44352 16.4543 6.68245 17.6437 8.55078L17.0558 8.27441C16.7062 8.10938 16.2882 8.25977 16.1232 8.60938C15.9584 8.9589 16.1087 9.37605 16.4581 9.54102L18.7638 10.6299C18.7866 10.6406 18.81 10.6491 18.8331 10.6572C18.9704 10.7075 19.1238 10.7173 19.2746 10.6719C19.4315 10.6245 19.5568 10.5252 19.6437 10.4004C19.6524 10.3882 19.6611 10.3761 19.6691 10.3633C19.6786 10.3475 19.6882 10.3319 19.6964 10.3154C19.712 10.2854 19.7251 10.2536 19.7365 10.2207C19.7392 10.2123 19.7418 10.2038 19.7443 10.1953C19.7474 10.1849 19.7513 10.1747 19.754 10.1641L20.3712 7.75781L20.3937 7.61816C20.4097 7.29305 20.1949 6.99038 19.8673 6.90625C19.4931 6.81047 19.111 7.03598 19.0148 7.41016L18.8888 7.9043C17.4634 5.58843 14.9064 4.04313 11.9865 4.04297Z" fill="#15C674"/>
</svg>
