<svg width="24" height="24" viewBox="0 0 24 24" fill="none" xmlns="http://www.w3.org/2000/svg">
<path d="M6.35674 3.86523C6.74334 3.86523 7.05674 4.17864 7.05674 4.56523V5.25H7.74165C8.12825 5.25 8.44165 5.5634 8.44165 5.95C8.44165 6.3366 8.12825 6.65 7.74165 6.65H7.05674V7.33589C7.05674 7.72248 6.74334 8.03588 6.35674 8.03588C5.97014 8.03588 5.65674 7.72248 5.65674 7.33589V6.65H4.971C4.5844 6.65 4.271 6.3366 4.271 5.95C4.271 5.5634 4.5844 5.25 4.971 5.25H5.65674V4.56523C5.65674 4.17864 5.97014 3.86523 6.35674 3.86523Z" fill="#333333"/>
<path fill-rule="evenodd" clip-rule="evenodd" d="M11.2629 4.90209C11.5529 4.11858 12.661 4.11858 12.951 4.90209L14.4579 8.97387C14.5896 9.32967 14.8701 9.61019 15.2259 9.74186L19.2977 11.2487C20.0812 11.5387 20.0812 12.6469 19.2977 12.9368L15.2259 14.4437C14.8701 14.5754 14.5896 14.8559 14.4579 15.2117L12.951 19.2835C12.661 20.067 11.5529 20.067 11.2629 19.2835L9.75602 15.2117C9.62435 14.8559 9.34383 14.5754 8.98803 14.4437L4.91625 12.9368C4.13274 12.6469 4.13274 11.5387 4.91625 11.2487L8.98803 9.74186C9.34383 9.61019 9.62435 9.32967 9.75602 8.97387L11.2629 4.90209ZM12.107 6.65507L11.069 9.45977C10.7955 10.1987 10.2129 10.7814 9.47393 11.0548L6.66923 12.0928L9.47393 13.1308C10.2129 13.4042 10.7955 13.9869 11.069 14.7258L12.107 17.5305L13.1449 14.7258C13.4184 13.9869 14.001 13.4042 14.74 13.1308L17.5447 12.0928L14.74 11.0548C14.001 10.7814 13.4184 10.1987 13.1449 9.45977L12.107 6.65507Z" fill="#333333"/>
<path d="M18.0846 17.2332C18.0846 16.8466 17.7712 16.5332 17.3846 16.5332C16.998 16.5332 16.6846 16.8466 16.6846 17.2332V17.916H16.0018C15.6152 17.916 15.3018 18.2294 15.3018 18.616C15.3018 19.0026 15.6152 19.316 16.0018 19.316H16.6846V19.9974C16.6846 20.384 16.998 20.6974 17.3846 20.6974C17.7712 20.6974 18.0846 20.384 18.0846 19.9974V19.316H18.766C19.1526 19.316 19.466 19.0026 19.466 18.616C19.466 18.2294 19.1526 17.916 18.766 17.916H18.0846V17.2332Z" fill="#333333"/>
</svg>
