<svg width="24" height="24" viewBox="0 0 24 24" fill="none" xmlns="http://www.w3.org/2000/svg">
<path fill-rule="evenodd" clip-rule="evenodd" d="M10.209 3.3933C10.499 2.60978 11.6072 2.60979 11.8971 3.3933L13.5034 7.73368C13.6351 8.08948 13.9156 8.37 14.2714 8.50168L18.6118 10.108C19.3953 10.3979 19.3953 11.5061 18.6118 11.7961L14.2714 13.4024C13.9156 13.534 13.6351 13.8145 13.5034 14.1703L11.8971 18.5107C11.6072 19.2942 10.499 19.2942 10.209 18.5107L8.60275 14.1703C8.47108 13.8145 8.19055 13.534 7.83476 13.4024L3.49437 11.7961C2.71086 11.5061 2.71086 10.3979 3.49437 10.108L7.83476 8.50168C8.19055 8.37 8.47108 8.08948 8.60275 7.73368L10.209 3.3933ZM11.0531 5.14628L9.91572 8.21959C9.64225 8.95855 9.05962 9.54118 8.32066 9.81465L5.24735 10.952L8.32066 12.0894C9.05962 12.3629 9.64225 12.9455 9.91572 13.6844L11.0531 16.7577L12.1905 13.6844C12.4639 12.9455 13.0466 12.3629 13.7855 12.0894L16.8588 10.952L13.7855 9.81465C13.0466 9.54118 12.4639 8.95855 12.1905 8.21959L11.0531 5.14628Z" fill="#333333"/>
<path fill-rule="evenodd" clip-rule="evenodd" d="M17.2137 15.8683C17.0603 15.9999 16.9849 16.1651 16.9619 16.2963C16.8951 16.6771 16.5323 16.9317 16.1515 16.865C15.7707 16.7983 15.5161 16.4355 15.5829 16.0547C15.6569 15.6321 15.8817 15.1664 16.3022 14.8057C16.7313 14.4376 17.3229 14.2138 18.065 14.2138C18.5695 14.2138 19.221 14.3373 19.7687 14.7106C20.3516 15.1078 20.7736 15.7633 20.7736 16.6877C20.7736 17.7196 19.986 18.3556 19.5105 18.7396C19.4926 18.754 19.4752 18.7681 19.4582 18.7818C19.1776 19.0093 18.9737 19.1752 18.8284 19.3492C18.6971 19.5063 18.6611 19.6158 18.6611 19.7182C18.6611 20.1048 18.3477 20.4182 17.9611 20.4182C17.5745 20.4182 17.2611 20.1048 17.2611 19.7182C17.2611 19.185 17.4892 18.7686 17.754 18.4516C17.9902 18.1688 18.2917 17.9249 18.5328 17.7298C18.5476 17.7178 18.5622 17.706 18.5766 17.6943C19.1654 17.217 19.3736 16.9817 19.3736 16.6877C19.3736 16.2475 19.1983 16.0161 18.9803 15.8675C18.7272 15.695 18.3744 15.6138 18.065 15.6138C17.6148 15.6138 17.3585 15.7441 17.2137 15.8683Z" fill="#333333"/>
<path d="M17.3011 21.4208C17.3011 21.0588 17.5945 20.7654 17.9565 20.7654H18.024C18.386 20.7654 18.6794 21.0588 18.6794 21.4208C18.6794 21.7828 18.386 22.0763 18.024 22.0763H17.9565C17.5945 22.0763 17.3011 21.7828 17.3011 21.4208Z" fill="#333333"/>
<path fill-rule="evenodd" clip-rule="evenodd" d="M17.9902 20.7771C17.9789 20.7777 17.9677 20.7786 17.9565 20.7797C17.6322 20.8135 17.3794 21.0876 17.3794 21.4208C17.3794 21.754 17.6322 22.0282 17.9565 22.0619C17.9677 22.063 17.9789 22.0639 17.9902 22.0645C18.0016 22.0639 18.0128 22.063 18.024 22.0619C18.3482 22.0282 18.6011 21.754 18.6011 21.4208C18.6011 21.0876 18.3482 20.8135 18.024 20.7797C18.0128 20.7786 18.0016 20.7777 17.9902 20.7771ZM17.9565 20.7654C17.5945 20.7654 17.3011 21.0588 17.3011 21.4208C17.3011 21.7828 17.5945 22.0763 17.9565 22.0763H18.024C18.386 22.0763 18.6794 21.7828 18.6794 21.4208C18.6794 21.0588 18.386 20.7654 18.024 20.7654H17.9565Z" fill="#333333"/>
</svg>
