<svg width="24" height="24" viewBox="0 0 24 24" fill="none" xmlns="http://www.w3.org/2000/svg">
<path fill-rule="evenodd" clip-rule="evenodd" d="M7.83741 4.10487C7.66841 3.78077 7.26715 3.653 6.95613 3.84504C5.95231 4.46487 5.07805 5.2735 4.38194 6.226C4.16626 6.52112 4.26239 6.93111 4.57235 7.12484C4.88231 7.31857 5.28845 7.22236 5.50774 6.92992C6.07417 6.17453 6.77304 5.52812 7.57024 5.02224C7.87887 4.82639 8.00642 4.42898 7.83741 4.10487ZM12.1844 4.80484C8.19123 4.80484 4.9541 8.04195 4.9541 12.0351C4.9541 14.3126 6.00705 16.3441 7.65269 17.6694L6.16303 19.159C5.88967 19.4324 5.88967 19.8756 6.16303 20.149C6.4364 20.4224 6.87962 20.4224 7.15298 20.149L8.78556 18.5164C8.80688 18.4951 8.82653 18.4728 8.84452 18.4495C9.84356 18.9708 10.9796 19.2655 12.1844 19.2655C13.3892 19.2655 14.5251 18.9708 15.5241 18.4497C15.5421 18.4728 15.5617 18.4951 15.583 18.5164L17.2155 20.149C17.4889 20.4224 17.9321 20.4224 18.2055 20.149C18.4789 19.8756 18.4789 19.4324 18.2055 19.159L16.716 17.6695C18.3617 16.3442 19.4148 14.3127 19.4148 12.0351C19.4148 8.04195 16.1776 4.80484 12.1844 4.80484ZM6.3541 12.0351C6.3541 8.81516 8.96442 6.20484 12.1844 6.20484C15.4044 6.20484 18.0147 8.81516 18.0147 12.0351C18.0147 15.2552 15.4044 17.8655 12.1844 17.8655C8.96443 17.8655 6.3541 15.2552 6.3541 12.0351ZM12.607 8.4482C12.607 8.0616 12.2936 7.7482 11.907 7.7482C11.5204 7.7482 11.207 8.0616 11.207 8.4482V12.1331C11.207 12.3187 11.2808 12.4968 11.4121 12.628C11.5433 12.7593 11.7214 12.8331 11.907 12.8331L15.0078 12.8331C15.3944 12.833 15.7078 12.5196 15.7078 12.133C15.7078 11.7464 15.3944 11.433 15.0078 11.4331L12.607 11.4331V8.4482ZM17.4131 3.84508C17.1021 3.65304 16.7008 3.78081 16.5318 4.10491C16.3628 4.42902 16.4903 4.82643 16.799 5.02228C17.6022 5.53197 18.3055 6.18428 18.8741 6.94689C19.0926 7.23993 19.4985 7.33724 19.809 7.14435C20.1195 6.95146 20.2167 6.54173 20.0018 6.24603C19.3034 5.28491 18.424 4.46928 17.4131 3.84508Z" fill="#333333"/>
</svg>
