<svg width="24" height="24" viewBox="0 0 24 24" fill="none" xmlns="http://www.w3.org/2000/svg">
<path d="M12.0002 8.07715C11.6136 8.07715 11.3002 8.39055 11.3002 8.77715L11.3002 13.2228C11.3002 13.6094 11.6136 13.9228 12.0002 13.9228C12.3868 13.9228 12.7002 13.6094 12.7002 13.2228V8.77715C12.7002 8.39055 12.3868 8.07715 12.0002 8.07715Z" fill="#333333"/>
<path d="M12.0001 14.6143C11.5307 14.6143 11.1501 14.9948 11.1501 15.4643V15.534C11.1501 16.0035 11.5307 16.384 12.0001 16.384C12.4695 16.384 12.8501 16.0035 12.8501 15.534V15.4643C12.8501 14.9948 12.4695 14.6143 12.0001 14.6143Z" fill="#333333"/>
<path fill-rule="evenodd" clip-rule="evenodd" d="M13.976 5.45104C13.0844 3.95252 10.9146 3.95252 10.0229 5.45104L4.26898 15.1211C3.27739 16.7875 4.47826 18.8994 6.41741 18.8994H17.5816C19.5207 18.8994 20.7216 16.7875 19.73 15.1211L13.976 5.45104ZM11.226 6.16693C11.575 5.58055 12.424 5.58055 12.7729 6.16693L18.5269 15.837C18.9632 16.5702 18.4348 17.4994 17.5816 17.4994H6.41741C5.56418 17.4994 5.0358 16.5702 5.4721 15.837L11.226 6.16693Z" fill="#333333"/>
</svg>
