<svg width="24" height="24" viewBox="0 0 24 24" fill="none" xmlns="http://www.w3.org/2000/svg">
<path d="M11.9954 7.2998C12.382 7.2998 12.6954 7.61321 12.6954 7.9998L12.6954 12.9998C12.6954 13.3864 12.382 13.6998 11.9954 13.6998C11.6088 13.6998 11.2954 13.3864 11.2954 12.9998L11.2954 7.9998C11.2954 7.61321 11.6088 7.2998 11.9954 7.2998Z" fill="#333333"/>
<path d="M12.8455 15.2523C12.8455 14.7829 12.4649 14.4023 11.9955 14.4023C11.5261 14.4023 11.1455 14.7829 11.1455 15.2523V15.325C11.1455 15.7945 11.5261 16.175 11.9955 16.175C12.4649 16.175 12.8455 15.7945 12.8455 15.325V15.2523Z" fill="#333333"/>
<path fill-rule="evenodd" clip-rule="evenodd" d="M4 12C4 7.58173 7.58173 4 12 4C16.4183 4 20 7.58173 20 12C20 16.4183 16.4183 20 12 20C7.58173 20 4 16.4183 4 12ZM12 5.4C8.35493 5.4 5.4 8.35492 5.4 12C5.4 15.6451 8.35492 18.6 12 18.6C15.6451 18.6 18.6 15.6451 18.6 12C18.6 8.35493 15.6451 5.4 12 5.4Z" fill="#333333"/>
</svg>
