<svg width="24" height="24" viewBox="0 0 24 24" fill="none" xmlns="http://www.w3.org/2000/svg">
<path fill-rule="evenodd" clip-rule="evenodd" d="M4.2998 7.2C4.2998 6.8134 4.61321 6.5 4.9998 6.5H18.9998C19.3864 6.5 19.6998 6.8134 19.6998 7.2C19.6998 7.5866 19.3864 7.9 18.9998 7.9H4.9998C4.61321 7.9 4.2998 7.5866 4.2998 7.2Z" fill="#333333"/>
<path fill-rule="evenodd" clip-rule="evenodd" d="M7.2998 11.9998C7.2998 11.6132 7.61321 11.2998 7.9998 11.2998H15.9998C16.3864 11.2998 16.6998 11.6132 16.6998 11.9998C16.6998 12.3864 16.3864 12.6998 15.9998 12.6998H7.9998C7.61321 12.6998 7.2998 12.3864 7.2998 11.9998Z" fill="#333333"/>
<path fill-rule="evenodd" clip-rule="evenodd" d="M6.2998 16.8006C6.2998 16.414 6.61321 16.1006 6.9998 16.1006H16.9998C17.3864 16.1006 17.6998 16.414 17.6998 16.8006C17.6998 17.1872 17.3864 17.5006 16.9998 17.5006H6.9998C6.61321 17.5006 6.2998 17.1872 6.2998 16.8006Z" fill="#333333"/>
</svg>
