<svg width="24" height="24" viewBox="0 0 24 24" fill="none" xmlns="http://www.w3.org/2000/svg">
<path fill-rule="evenodd" clip-rule="evenodd" d="M4.49512 7.08281C4.49512 6.69621 4.80852 6.38281 5.19512 6.38281L18.5951 6.38281C18.9817 6.38281 19.2951 6.69621 19.2951 7.08281C19.2951 7.46941 18.9817 7.78281 18.5951 7.78281L5.19512 7.78281C4.80852 7.78281 4.49512 7.46941 4.49512 7.08281Z" fill="#333333"/>
<path fill-rule="evenodd" clip-rule="evenodd" d="M4.49512 11.9178C4.49512 11.5312 4.80852 11.2178 5.19512 11.2178H13.1951C13.5817 11.2178 13.8951 11.5312 13.8951 11.9178C13.8951 12.3044 13.5817 12.6178 13.1951 12.6178H5.19512C4.80852 12.6178 4.49512 12.3044 4.49512 11.9178Z" fill="#333333"/>
<path fill-rule="evenodd" clip-rule="evenodd" d="M4.49512 16.7557C4.49512 16.3691 4.80852 16.0557 5.19512 16.0557H16.198C16.5846 16.0557 16.898 16.3691 16.898 16.7557C16.898 17.1423 16.5846 17.4557 16.198 17.4557H5.19512C4.80852 17.4557 4.49512 17.1423 4.49512 16.7557Z" fill="#333333"/>
</svg>
