<svg width="24" height="24" viewBox="0 0 24 24" fill="none" xmlns="http://www.w3.org/2000/svg">
<path fill-rule="evenodd" clip-rule="evenodd" d="M19.1178 7.2C19.1178 6.8134 18.8044 6.5 18.4178 6.5H4.9998C4.61321 6.5 4.2998 6.8134 4.2998 7.2C4.2998 7.5866 4.61321 7.9 4.9998 7.9H18.4178C18.8044 7.9 19.1178 7.5866 19.1178 7.2Z" fill="#333333"/>
<path fill-rule="evenodd" clip-rule="evenodd" d="M19.1178 11.9999C19.1178 11.6133 18.8044 11.2999 18.4178 11.2999H10.4178C10.0312 11.2999 9.71777 11.6133 9.71777 11.9999C9.71777 12.3865 10.0312 12.6999 10.4178 12.6999H18.4178C18.8044 12.6999 19.1178 12.3865 19.1178 11.9999Z" fill="#333333"/>
<path fill-rule="evenodd" clip-rule="evenodd" d="M19.1178 16.7996C19.1178 16.413 18.8044 16.0996 18.4178 16.0996H7.41484C7.02824 16.0996 6.71484 16.413 6.71484 16.7996C6.71484 17.1862 7.02824 17.4996 7.41484 17.4996H18.4178C18.8044 17.4996 19.1178 17.1862 19.1178 16.7996Z" fill="#333333"/>
</svg>
