<svg width="24" height="24" viewBox="0 0 24 24" fill="none" xmlns="http://www.w3.org/2000/svg">
<path fill-rule="evenodd" clip-rule="evenodd" d="M5 6.99607C5 5.89367 5.89367 5 6.99607 5H9.40393C10.5063 5 11.4 5.89367 11.4 6.99607V9.40393C11.4 10.5063 10.5063 11.4 9.40393 11.4H6.99607C5.89367 11.4 5 10.5063 5 9.40393V6.99607ZM6.99607 6.4H9.40393C9.73313 6.4 10 6.66687 10 6.99607V9.40393C10 9.73313 9.73313 10 9.40393 10H6.99607C6.66687 10 6.4 9.73313 6.4 9.40393V6.99607C6.4 6.66687 6.66687 6.4 6.99607 6.4Z" fill="#333333"/>
<path fill-rule="evenodd" clip-rule="evenodd" d="M12.5996 6.99607C12.5996 5.89367 13.4933 5 14.5957 5H17.0035C18.1059 5 18.9996 5.89367 18.9996 6.99607V9.40393C18.9996 10.5063 18.1059 11.4 17.0035 11.4H14.5957C13.4933 11.4 12.5996 10.5063 12.5996 9.40393V6.99607ZM14.5957 6.4H17.0035C17.3327 6.4 17.5996 6.66687 17.5996 6.99607V9.40393C17.5996 9.73313 17.3327 10 17.0035 10H14.5957C14.2665 10 13.9996 9.73313 13.9996 9.40393V6.99607C13.9996 6.66687 14.2665 6.4 14.5957 6.4Z" fill="#333333"/>
<path fill-rule="evenodd" clip-rule="evenodd" d="M14.5957 12.5996C13.4933 12.5996 12.5996 13.4933 12.5996 14.5957V17.0035C12.5996 18.1059 13.4933 18.9996 14.5957 18.9996H17.0035C18.1059 18.9996 18.9996 18.1059 18.9996 17.0035V14.5957C18.9996 13.4933 18.1059 12.5996 17.0035 12.5996H14.5957ZM17.0035 13.9996H14.5957C14.2665 13.9996 13.9996 14.2665 13.9996 14.5957V17.0035C13.9996 17.3327 14.2665 17.5996 14.5957 17.5996H17.0035C17.3327 17.5996 17.5996 17.3327 17.5996 17.0035V14.5957C17.5996 14.2665 17.3327 13.9996 17.0035 13.9996Z" fill="#333333"/>
<path fill-rule="evenodd" clip-rule="evenodd" d="M5 14.5957C5 13.4933 5.89367 12.5996 6.99607 12.5996H9.40393C10.5063 12.5996 11.4 13.4933 11.4 14.5957V17.0035C11.4 18.1059 10.5063 18.9996 9.40393 18.9996H6.99607C5.89367 18.9996 5 18.1059 5 17.0035V14.5957ZM6.99607 13.9996H9.40393C9.73313 13.9996 10 14.2665 10 14.5957V17.0035C10 17.3327 9.73313 17.5996 9.40393 17.5996H6.99607C6.66687 17.5996 6.4 17.3327 6.4 17.0035V14.5957C6.4 14.2665 6.66687 13.9996 6.99607 13.9996Z" fill="#333333"/>
</svg>
