<svg width="24" height="24" viewBox="0 0 24 24" fill="none" xmlns="http://www.w3.org/2000/svg">
<path d="M11.9997 6.7832C12.3034 6.7832 12.5497 7.02945 12.5497 7.3332L12.5497 15.3375L14.9434 12.9438C15.1582 12.729 15.5064 12.729 15.7212 12.9438C15.936 13.1586 15.936 13.5069 15.7212 13.7216L12.4096 17.0333C12.3089 17.1458 12.1625 17.2165 11.9997 17.2165C11.8421 17.2165 11.6999 17.1502 11.5997 17.044L8.2773 13.7216C8.06251 13.5069 8.06251 13.1586 8.2773 12.9438C8.49209 12.729 8.84033 12.729 9.05512 12.9438L11.4497 15.3384L11.4497 7.3332C11.4497 7.02945 11.6959 6.7832 11.9997 6.7832Z" fill="#333333"/>
</svg>
