<svg width="24" height="24" viewBox="0 0 24 24" fill="none" xmlns="http://www.w3.org/2000/svg">
<path d="M11.9984 4.29883C11.82 4.29936 11.6416 4.3677 11.5054 4.50385L6.50581 9.50349C6.23244 9.77685 6.23244 10.2201 6.50581 10.4934C6.77917 10.7668 7.22239 10.7668 7.49576 10.4934L11.3008 6.68841L11.3008 18.9988C11.3008 19.3854 11.6142 19.6988 12.0008 19.6988C12.3874 19.6988 12.7008 19.3854 12.7008 18.9988L12.7008 6.68878L16.5054 10.4934C16.7788 10.7668 17.222 10.7668 17.4954 10.4934C17.7688 10.2201 17.7688 9.77685 17.4954 9.50349L12.4967 4.50478C12.4938 4.50192 12.491 4.49908 12.488 4.49626C12.362 4.37405 12.1902 4.29883 12.0008 4.29883C12 4.29883 11.9992 4.29883 11.9984 4.29883Z" fill="#333333"/>
</svg>
