<svg width="24" height="24" viewBox="0 0 24 24" fill="none" xmlns="http://www.w3.org/2000/svg">
<path d="M12.9448 8.27828C12.73 8.49307 12.73 8.84131 12.9448 9.0561L15.3389 11.4502L7.33418 11.4502C7.03042 11.4502 6.78418 11.6964 6.78418 12.0002C6.78418 12.304 7.03042 12.5502 7.33418 12.5502L15.34 12.5502L12.9458 14.9444C12.731 15.1592 12.731 15.5074 12.9458 15.7222C13.1606 15.937 13.5088 15.937 13.7236 15.7222L17.0567 12.3891C17.2715 12.1743 17.2715 11.8261 17.0567 11.6113C17.0498 11.6044 17.0428 11.5978 17.0357 11.5914L13.7226 8.27828C13.5078 8.06349 13.1596 8.06349 12.9448 8.27828Z" fill="#333333"/>
</svg>
