<svg width="24" height="24" viewBox="0 0 24 24" fill="none" xmlns="http://www.w3.org/2000/svg">
<path d="M10.7089 7.16499C10.9627 7.41883 10.9627 7.83039 10.7089 8.08423L7.44353 11.3496L18.1246 11.3496C18.4836 11.3496 18.7746 11.6406 18.7746 11.9996C18.7746 12.3586 18.4836 12.6496 18.1246 12.6496L7.44385 12.6496L10.7089 15.9147C10.9627 16.1685 10.9627 16.5801 10.7089 16.8339C10.4551 17.0877 10.0435 17.0877 9.78967 16.8339L5.41559 12.4598" fill="#333333"/>
<path d="M5.22466 11.9915C5.22661 11.8278 5.29005 11.6646 5.41499 11.5397L9.78967 7.16499C10.0435 6.91115 10.4551 6.91115 10.7089 7.16499" fill="#333333"/>
<path d="M5.22461 11.9996C5.22461 11.9971 5.22463 11.994 5.22466 11.9915L5.22461 11.9996Z" fill="#333333"/>
<path d="M5.41077 12.455C5.35054 12.3936 5.30493 12.3233 5.27393 12.2484C5.3061 12.326 5.35285 12.396 5.41077 12.455Z" fill="#333333"/>
</svg>
