<svg width="24" height="24" viewBox="0 0 24 24" fill="none" xmlns="http://www.w3.org/2000/svg">
<path d="M13.0756 7.82613C12.8413 8.06044 12.8413 8.44034 13.0756 8.67465L15.8014 11.4004L6.75039 11.4004C6.41902 11.4004 6.15039 11.669 6.15039 12.0004C6.15039 12.3318 6.41902 12.6004 6.75039 12.6004L15.8011 12.6004L13.0756 15.3259C12.8413 15.5602 12.8413 15.9401 13.0756 16.1744C13.3099 16.4087 13.6898 16.4087 13.9241 16.1744L17.656 12.4425C17.7755 12.3329 17.8504 12.1754 17.8504 12.0004C17.8504 11.8272 17.777 11.6712 17.6597 11.5617L13.9241 7.82613C13.6898 7.59181 13.3099 7.59181 13.0756 7.82613Z" fill="#333333"/>
</svg>
