<svg width="24" height="24" viewBox="0 0 24 24" fill="none" xmlns="http://www.w3.org/2000/svg">
<path d="M16.6704 11.4496H8.66039L11.0504 9.05957C11.2604 8.84957 11.2604 8.49957 11.0504 8.27957C10.8404 8.06957 10.4904 8.06957 10.2704 8.27957L6.94039 11.6096C6.89039 11.6596 6.85039 11.7196 6.82039 11.7896C6.76039 11.9196 6.76039 12.0796 6.82039 12.2096C6.85039 12.2796 6.89039 12.3396 6.94039 12.3896L10.2704 15.7196C10.3804 15.8296 10.5204 15.8796 10.6604 15.8796C10.8004 15.8796 10.9404 15.8296 11.0504 15.7196C11.2604 15.5096 11.2604 15.1596 11.0504 14.9396L8.66039 12.5496H16.6704C16.9704 12.5496 17.2204 12.2996 17.2204 11.9996C17.2204 11.6996 16.9704 11.4496 16.6704 11.4496Z" fill="#333333"/>
</svg>
