<svg width="24" height="24" viewBox="0 0 24 24" fill="none" xmlns="http://www.w3.org/2000/svg">
<path d="M17.5001 13.4998C17.2301 13.2298 16.7801 13.2298 16.5101 13.4998L12.7001 17.3098V4.9998C12.7001 4.6098 12.3901 4.2998 12.0001 4.2998C11.6101 4.2998 11.3001 4.6098 11.3001 4.9998V17.3098L7.50012 13.5098C7.23012 13.2398 6.78012 13.2398 6.51012 13.5098C6.24012 13.7798 6.24012 14.2298 6.51012 14.4998L11.5101 19.4998C11.5801 19.5698 11.6501 19.6198 11.7401 19.6498C11.8201 19.6798 11.9001 19.6998 11.9801 19.6998C11.9801 19.6998 12.0001 19.6998 12.0101 19.6998C12.1001 19.6998 12.1901 19.6798 12.2801 19.6498C12.3401 19.6198 12.3901 19.5798 12.4501 19.5398C12.4701 19.5198 12.4901 19.5198 12.5101 19.4998L17.5101 14.4998C17.7801 14.2298 17.7801 13.7798 17.5101 13.5098L17.5001 13.4998Z" fill="#333333"/>
</svg>
