<svg width="24" height="24" viewBox="0 0 24 24" fill="none" xmlns="http://www.w3.org/2000/svg">
<path d="M12.0002 6.7832C12.0627 6.7832 12.1227 6.79362 12.1787 6.81282C12.2556 6.83912 12.3278 6.88295 12.3892 6.94429C12.3911 6.94619 12.393 6.94811 12.3948 6.95003L15.7222 10.2774C15.937 10.4922 15.937 10.8404 15.7222 11.0552C15.5074 11.27 15.1592 11.27 14.9444 11.0552L12.5502 8.66102L12.5502 16.6665C12.5502 16.9703 12.304 17.2165 12.0002 17.2165C11.6964 17.2165 11.4502 16.9703 11.4502 16.6665L11.4502 8.6611L9.0561 11.0552C8.84131 11.27 8.49307 11.27 8.27828 11.0552C8.06349 10.8404 8.06349 10.4922 8.27828 10.2774L11.6056 6.95004C11.6075 6.94811 11.6094 6.9462 11.6113 6.94429C11.6638 6.89177 11.7243 6.85209 11.7889 6.82526C11.8539 6.79816 11.9253 6.7832 12.0002 6.7832Z" fill="#333333"/>
</svg>
