<svg width="24" height="24" viewBox="0 0 24 24" fill="none" xmlns="http://www.w3.org/2000/svg">
<path d="M13.2911 7.16499C13.0373 7.41883 13.0373 7.83039 13.2911 8.08423L16.5565 11.3496L5.87461 11.3496C5.51562 11.3496 5.22461 11.6406 5.22461 11.9996C5.22461 12.3586 5.51562 12.6496 5.87461 12.6496L16.5562 12.6496L13.2911 15.9147C13.0373 16.1685 13.0373 16.5801 13.2911 16.8339C13.5449 17.0877 13.9565 17.0877 14.2103 16.8339L18.585 12.4592C18.712 12.3323 18.7754 12.1659 18.7754 11.9994C18.7754 11.833 18.712 11.6666 18.585 11.5397L14.2103 7.16499C13.9565 6.91115 13.5449 6.91115 13.2911 7.16499Z" fill="#333333"/>
</svg>
