<svg width="24" height="24" viewBox="0 0 24 24" fill="none" xmlns="http://www.w3.org/2000/svg">
<path d="M11.9984 5.22364C11.8327 5.22413 11.6671 5.28759 11.5406 5.41401L7.16597 9.78869C6.91213 10.0425 6.91213 10.4541 7.16597 10.7079C7.41981 10.9618 7.83136 10.9618 8.08521 10.7079L11.3506 7.44255L11.3506 18.1236C11.3506 18.4826 11.6416 18.7736 12.0006 18.7736C12.3596 18.7736 12.6506 18.4826 12.6506 18.1236L12.6506 7.44287L15.9156 10.7079C16.1695 10.9618 16.581 10.9618 16.8349 10.7079C17.0887 10.4541 17.0887 10.0425 16.8349 9.78869L12.461 5.41483C12.4584 5.41219 12.4557 5.40956 12.453 5.40696C12.336 5.29349 12.1765 5.22363 12.0006 5.22363C11.9999 5.22363 11.9991 5.22363 11.9984 5.22364Z" fill="#333333"/>
</svg>
