<svg width="24" height="24" viewBox="0 0 24 24" fill="none" xmlns="http://www.w3.org/2000/svg">
<path d="M17.2504 11.3996H8.20039L10.9204 8.67959C11.1504 8.44959 11.1504 8.06959 10.9204 7.82959C10.6904 7.58959 10.3104 7.59959 10.0704 7.82959L6.32039 11.5796C6.26039 11.6396 6.22039 11.6996 6.19039 11.7796C6.16039 11.8396 6.15039 11.9096 6.15039 11.9796C6.15039 11.9796 6.15039 11.9996 6.15039 12.0096C6.15039 12.0896 6.17039 12.1696 6.20039 12.2396C6.22039 12.2896 6.26039 12.3396 6.29039 12.3796C6.30039 12.3996 6.31039 12.4196 6.33039 12.4296L10.0804 16.1796C10.2004 16.2996 10.3504 16.3596 10.5004 16.3596C10.6504 16.3596 10.8104 16.2996 10.9204 16.1796C11.1504 15.9496 11.1504 15.5696 10.9204 15.3296L8.19039 12.5996H17.2404C17.5704 12.5996 17.8404 12.3296 17.8404 11.9996C17.8404 11.6696 17.5704 11.3996 17.2404 11.3996H17.2504Z" fill="#333333"/>
</svg>
