<svg width="24" height="24" viewBox="0 0 24 24" fill="none" xmlns="http://www.w3.org/2000/svg">
<path d="M11.9985 5.22461C12.3575 5.22461 12.6485 5.51562 12.6485 5.87461L12.6485 16.5573L15.9147 13.2911C16.1685 13.0373 16.5801 13.0373 16.8339 13.2911C17.0877 13.5449 17.0877 13.9565 16.8339 14.2103L12.4592 18.585C12.3321 18.7121 12.1655 18.7756 11.9989 18.7754C11.8327 18.7753 11.6665 18.7118 11.5397 18.585C11.5392 18.5846 11.5387 18.584 11.5382 18.5836L7.16499 14.2103C6.91115 13.9565 6.91115 13.5449 7.16499 13.2911C7.41883 13.0373 7.83039 13.0373 8.08423 13.2911L11.3485 16.5554L11.3485 5.87461C11.3485 5.51562 11.6395 5.22461 11.9985 5.22461Z" fill="#333333"/>
</svg>
