<svg width="24" height="24" viewBox="0 0 24 24" fill="none" xmlns="http://www.w3.org/2000/svg">
<path d="M11.5581 6.34293C11.5636 6.33692 11.5693 6.33099 11.5752 6.32515C11.6328 6.26745 11.6994 6.22396 11.7704 6.19468C11.841 6.16551 11.9183 6.14941 11.9994 6.14941C12.0001 6.14941 12.0009 6.14942 12.0016 6.14942C12.1547 6.14982 12.3076 6.2084 12.4244 6.32515C12.4302 6.33098 12.4359 6.33691 12.4414 6.34292L16.1734 10.0749C16.4077 10.3092 16.4077 10.6891 16.1734 10.9234C15.9391 11.1577 15.5592 11.1577 15.3249 10.9234L12.5994 8.19794L12.5994 17.2494C12.5994 17.5808 12.3308 17.8494 11.9994 17.8494C11.668 17.8494 11.3994 17.5808 11.3994 17.2494L11.3994 8.19864L8.67465 10.9234C8.44034 11.1577 8.06044 11.1577 7.82613 10.9234C7.59181 10.6891 7.59181 10.3092 7.82613 10.0749L11.5581 6.34293Z" fill="#333333"/>
</svg>
