<svg width="24" height="24" viewBox="0 0 24 24" fill="none" xmlns="http://www.w3.org/2000/svg">
<path d="M13.5056 6.50483C13.2322 6.7782 13.2322 7.22141 13.5056 7.49478L17.3106 11.2998L4.9998 11.2998C4.61321 11.2998 4.2998 11.6132 4.2998 11.9998C4.2998 12.3864 4.61321 12.6998 4.9998 12.6998L17.3102 12.6998L13.5056 16.5045C13.2322 16.7778 13.2322 17.221 13.5056 17.4944C13.779 17.7678 14.2222 17.7678 14.4955 17.4944L19.4952 12.4948C19.6319 12.358 19.7002 12.1788 19.7002 11.9996C19.7002 11.8204 19.6319 11.6412 19.4952 11.5045L14.4955 6.50483C14.2222 6.23146 13.779 6.23146 13.5056 6.50483Z" fill="#333333"/>
</svg>
