<svg width="24" height="24" viewBox="0 0 24 24" fill="none" xmlns="http://www.w3.org/2000/svg">
<path d="M10.4944 6.50483C10.7678 6.7782 10.7678 7.22141 10.4944 7.49478L6.69036 11.2988L18.9998 11.2988C19.3864 11.2988 19.6998 11.6122 19.6998 11.9988C19.6998 12.3854 19.3864 12.6988 18.9998 12.6988L6.68878 12.6988L10.4944 16.5045C10.7678 16.7778 10.7678 17.221 10.4944 17.4944C10.221 17.7678 9.77783 17.7678 9.50446 17.4944L4.50483 12.4948C4.36861 12.3586 4.30027 12.1802 4.29981 12.0016C4.29981 12.0008 4.2998 12 4.2998 11.9992C4.2998 11.7971 4.38551 11.6145 4.52256 11.4867L9.50446 6.50483C9.77783 6.23146 10.221 6.23146 10.4944 6.50483Z" fill="#333333"/>
</svg>
