<svg width="24" height="24" viewBox="0 0 24 24" fill="none" xmlns="http://www.w3.org/2000/svg">
<path d="M11.998 6.15039C12.3293 6.15039 12.598 6.41902 12.598 6.75039L12.598 15.8025L15.3249 13.0756C15.5592 12.8413 15.9391 12.8413 16.1734 13.0756C16.4077 13.3099 16.4077 13.6898 16.1734 13.9241L12.4237 17.6739C12.3783 17.7192 12.3275 17.7558 12.2733 17.7836C12.1908 17.8263 12.0972 17.8504 11.998 17.8504C11.8176 17.8504 11.6558 17.7708 11.5458 17.6448L7.82515 13.9241C7.59084 13.6898 7.59084 13.3099 7.82515 13.0756C8.05946 12.8413 8.43936 12.8413 8.67368 13.0756L11.398 15.7999L11.398 6.75039C11.398 6.41902 11.6666 6.15039 11.998 6.15039Z" fill="#333333"/>
</svg>
