<svg width="24" height="24" viewBox="0 0 24 24" fill="none" xmlns="http://www.w3.org/2000/svg">
<path fill-rule="evenodd" clip-rule="evenodd" d="M8.18963 5.18488C9.06276 4.35852 10.3249 3.89941 11.9013 3.89941C13.4813 3.89942 14.7804 4.37055 15.6922 5.20615C16.6066 6.04414 17.0755 7.19888 17.0755 8.44704C17.0755 9.1423 17.0737 9.96432 17.0718 10.8096C17.0678 12.572 17.0637 14.4356 17.0755 15.4629C17.0799 15.8495 16.7701 16.1665 16.3836 16.1709C15.997 16.1754 15.68 15.8656 15.6756 15.479C15.6636 14.442 15.6679 12.5585 15.6718 10.7899C15.6737 9.94836 15.6755 9.13288 15.6755 8.44704C15.6755 7.55918 15.3484 6.79011 14.7463 6.23829C14.1416 5.68409 13.2035 5.29942 11.9013 5.29941C10.5955 5.29941 9.70796 5.67548 9.15197 6.20169C8.59722 6.72672 8.30196 7.46729 8.30196 8.33925C8.30196 8.97384 8.30194 9.85831 8.30191 10.8137C8.30186 12.974 8.3018 15.4968 8.30196 16.312C8.30211 17.0619 9.18259 18.2214 10.6631 18.2214C11.4624 18.2214 12.0441 18.0141 12.4105 17.7206C12.7619 17.4391 12.9633 17.043 12.9633 16.524C12.9633 16.1132 12.9639 15.3827 12.9645 14.5359C12.9661 12.3744 12.9682 9.45471 12.9634 9.15575C12.9634 9.15575 12.9634 9.15574 12.9634 9.15574C12.9634 9.15554 12.9633 9.15228 12.9625 9.14593C12.9617 9.13903 12.9601 9.1295 12.9575 9.11757C12.9522 9.09339 12.9433 9.06284 12.9293 9.02813C12.901 8.95796 12.8566 8.88192 12.795 8.81293C12.683 8.68774 12.4932 8.56027 12.1504 8.55631C11.3753 8.54735 11.2241 8.97846 11.2241 9.11072C11.2241 9.39931 11.2449 10.5808 11.266 11.7578C11.2677 11.853 11.2694 11.9482 11.2711 12.0429C11.2903 13.1063 11.3082 14.1036 11.3082 14.3109C11.3082 14.6975 10.9948 15.0109 10.6082 15.0109C10.2216 15.0109 9.9082 14.6975 9.9082 14.3109C9.9082 14.1172 9.89034 13.1233 9.87088 12.0408C9.86935 11.9553 9.8678 11.8692 9.86625 11.783C9.84532 10.6171 9.82408 9.41581 9.82408 9.11072C9.82408 8.05564 10.7634 7.14018 12.1666 7.1564C12.913 7.16503 13.4722 7.46992 13.8386 7.87978C14.1829 8.26484 14.3569 8.74291 14.3632 9.13305C14.3683 9.44458 14.3661 12.416 14.3645 14.583C14.3638 15.4128 14.3633 16.1246 14.3633 16.524C14.3633 17.4562 13.9779 18.2588 13.2858 18.8132C12.6088 19.3556 11.6904 19.6214 10.6631 19.6214C8.4903 19.6214 6.90229 17.9137 6.90196 16.3123C6.9018 15.497 6.90186 12.9739 6.90191 10.8134C6.90194 9.85811 6.90196 8.97372 6.90196 8.33925C6.90196 7.14175 7.31527 6.0124 8.18963 5.18488Z" fill="#333333"/>
</svg>
