<svg width="24" height="24" viewBox="0 0 24 24" fill="none" xmlns="http://www.w3.org/2000/svg">
<path d="M7.16861 6.98736C8.89887 5.2571 11.3334 5.6244 12.3355 6.59947C12.9663 7.21327 13.7743 8.02685 14.5876 8.84699C14.6384 8.89826 14.6893 8.94956 14.7401 9.00084C15.4996 9.76688 16.2537 10.5274 16.8518 11.114C17.1278 11.3847 17.571 11.3804 17.8417 11.1044C18.1124 10.8283 18.108 10.3851 17.832 10.1145C17.2413 9.53511 16.4939 8.7813 15.7316 8.01238C15.6816 7.96205 15.6317 7.91165 15.5817 7.86123C14.7708 7.04343 13.9534 6.22033 13.3118 5.59607C11.7691 4.09501 8.45846 3.71762 6.17866 5.99741C3.90357 8.27249 4.28514 11.5087 5.75941 12.983C6.70742 13.931 9.6573 16.7902 11.206 18.2912C11.6211 18.6935 11.9355 18.9982 12.0838 19.1425C12.59 19.6351 13.5064 19.9855 14.4221 20.064C15.3595 20.1443 16.4755 19.9547 17.3102 19.1425C18.8609 17.6337 18.7833 15.2695 17.4945 14.0155C16.9976 13.5319 15.5375 12.1127 14.1577 10.7716C13.8099 10.4336 13.4672 10.1005 13.1463 9.78861C12.194 8.86301 11.4337 8.12408 11.3018 7.99572C11.0138 7.71549 10.5333 7.46338 9.99577 7.39407C9.42682 7.32069 8.7598 7.45058 8.19954 7.99572C7.64911 8.5313 7.47863 9.19436 7.49247 9.75012C7.49933 10.0256 7.55101 10.2847 7.62975 10.5064C7.70353 10.7143 7.82061 10.9441 7.99715 11.1159C8.27615 11.3874 11.9691 15.0657 12.3287 15.4252C12.6021 15.6986 13.0453 15.6986 13.3186 15.4252C13.592 15.1519 13.592 14.7086 13.3186 14.4353C12.968 14.0846 9.37455 10.5054 8.98921 10.1279C8.98476 10.1203 8.96854 10.0929 8.94908 10.0381C8.91919 9.9539 8.89517 9.84109 8.89204 9.71526C8.88589 9.46836 8.95825 9.21086 9.17587 8.99911C9.38366 8.79693 9.60302 8.75501 9.81671 8.78257C10.0619 8.81418 10.2603 8.93574 10.3254 8.99911C10.4576 9.12772 11.2179 9.8667 12.17 10.792C12.4911 11.1041 12.834 11.4374 13.1819 11.7756C14.5619 13.1168 16.0216 14.5357 16.5182 15.0189C17.2165 15.6983 17.3456 17.1547 16.3339 18.1391C15.8874 18.5736 15.2322 18.7283 14.5417 18.6691C13.8295 18.608 13.2615 18.3351 13.0601 18.1391C12.9079 17.9911 12.5881 17.6811 12.1673 17.2733C10.6146 15.7683 7.68812 12.9318 6.74936 11.9931C5.82841 11.0721 5.43364 8.72232 7.16861 6.98736Z" fill="#333333"/>
</svg>
