<svg width="24" height="24" viewBox="0 0 24 24" fill="none" xmlns="http://www.w3.org/2000/svg">
<path d="M14.6191 13.4395C14.8587 13.1999 15.2288 13.1698 15.501 13.3496L15.6113 13.4395L17.9844 15.8115C18.2579 16.0853 18.258 16.53 17.9844 16.8037L15.6113 19.1768C15.3376 19.4504 14.8929 19.4503 14.6191 19.1768C14.3454 18.903 14.3454 18.4583 14.6191 18.1846L16.4961 16.3076L14.6191 14.4307L14.5293 14.3203C14.35 14.0484 14.3801 13.6789 14.6191 13.4395Z" fill="#15C674"/>
<path d="M20.0186 13.2334C20.4057 13.2334 20.7197 13.5474 20.7197 13.9346V18.6807C20.7196 19.0678 20.4057 19.3818 20.0186 19.3818C19.6314 19.3818 19.3175 19.0678 19.3174 18.6807V13.9346C19.3174 13.5474 19.6314 13.2334 20.0186 13.2334Z" fill="#15C674"/>
<path d="M15.4316 3.61914C15.9287 3.61914 16.332 4.02248 16.332 4.51953V4.91406H17.3105C18.8566 4.91427 20.1101 6.16778 20.1104 7.71387V10.5928C20.1104 10.9794 19.7968 11.293 19.4102 11.293C19.0236 11.293 18.71 10.9794 18.71 10.5928V7.71387C18.7098 6.94098 18.0834 6.31466 17.3105 6.31445H16.332V6.94922C16.332 7.44627 15.9287 7.84961 15.4316 7.84961C14.9346 7.84961 14.5312 7.44627 14.5312 6.94922V6.31445H9.45215V6.94922C9.45215 7.44627 9.04881 7.84961 8.55176 7.84961C8.0547 7.84961 7.65137 7.44627 7.65137 6.94922V6.31445H6.69336C5.92047 6.31466 5.29416 6.94098 5.29395 7.71387V16.2988C5.29416 17.0717 5.92047 17.698 6.69336 17.6982H11.3965L11.5371 17.7129C11.8562 17.7781 12.0967 18.0601 12.0967 18.3984C12.0967 18.7368 11.8562 19.0188 11.5371 19.084L11.3965 19.0986H6.69336C5.14727 19.0984 3.89376 17.8449 3.89355 16.2988V7.71387C3.89377 6.16778 5.14727 4.91427 6.69336 4.91406H7.65137V4.51953C7.65137 4.02248 8.0547 3.61914 8.55176 3.61914C9.04881 3.61914 9.45215 4.02248 9.45215 4.51953V4.91406H14.5312V4.51953C14.5312 4.02248 14.9346 3.61914 15.4316 3.61914Z" fill="#15C674"/>
<path fill-rule="evenodd" clip-rule="evenodd" d="M8.86328 13.1494C9.2668 13.1902 9.58193 13.5311 9.58203 13.9453V14.792L9.57812 14.873C9.53999 15.2498 9.24007 15.5498 8.86328 15.5879L8.78223 15.5918H7.97363L7.8916 15.5879C7.5152 15.5495 7.21585 15.2495 7.17773 14.873L7.17383 14.792V13.9453C7.17393 13.5314 7.48847 13.1906 7.8916 13.1494L7.97363 13.1455H8.78223L8.86328 13.1494ZM8.35547 14.3682C8.36228 14.375 8.3708 14.3802 8.37793 14.3867C8.3849 14.3803 8.39275 14.3749 8.39941 14.3682C8.39277 14.3615 8.38489 14.356 8.37793 14.3496C8.37078 14.3561 8.36229 14.3613 8.35547 14.3682Z" fill="#15C674"/>
<path fill-rule="evenodd" clip-rule="evenodd" d="M8.86328 9.3252C9.2668 9.36597 9.58193 9.70686 9.58203 10.1211V10.9678L9.57812 11.0488C9.53999 11.4256 9.24007 11.7256 8.86328 11.7637L8.78223 11.7676H7.97363L7.8916 11.7637C7.5152 11.7253 7.21585 11.4253 7.17773 11.0488L7.17383 10.9678V10.1211C7.17393 9.70714 7.48847 9.36634 7.8916 9.3252L7.97363 9.32129H8.78223L8.86328 9.3252ZM8.35547 10.5439C8.36228 10.5508 8.3708 10.556 8.37793 10.5625C8.3849 10.5561 8.39275 10.5507 8.39941 10.5439C8.39277 10.5373 8.38489 10.5317 8.37793 10.5254C8.37078 10.5319 8.36229 10.5371 8.35547 10.5439Z" fill="#15C674"/>
<path fill-rule="evenodd" clip-rule="evenodd" d="M12.5439 9.3252C12.9475 9.36597 13.2626 9.70686 13.2627 10.1211V10.9678L13.2588 11.0488C13.2207 11.4256 12.9207 11.7256 12.5439 11.7637L12.4629 11.7676H11.6543L11.5723 11.7637C11.1959 11.7253 10.8965 11.4253 10.8584 11.0488L10.8545 10.9678V10.1211C10.8546 9.70714 11.1691 9.36634 11.5723 9.3252L11.6543 9.32129H12.4629L12.5439 9.3252ZM12.0361 10.5439C12.0429 10.5508 12.0515 10.556 12.0586 10.5625C12.0656 10.5561 12.0734 10.5507 12.0801 10.5439C12.0734 10.5373 12.0656 10.5317 12.0586 10.5254C12.0514 10.5319 12.043 10.5371 12.0361 10.5439Z" fill="#15C674"/>
<path fill-rule="evenodd" clip-rule="evenodd" d="M16.0605 9.3252C16.4641 9.36597 16.7792 9.70686 16.7793 10.1211V10.9678L16.7754 11.0488C16.7373 11.4256 16.4373 11.7256 16.0605 11.7637L15.9795 11.7676H15.1709L15.0889 11.7637C14.7125 11.7253 14.4131 11.4253 14.375 11.0488L14.3711 10.9678V10.1211C14.3712 9.70714 14.6857 9.36634 15.0889 9.3252L15.1709 9.32129H15.9795L16.0605 9.3252ZM15.5527 10.5439C15.5595 10.5508 15.5681 10.556 15.5752 10.5625C15.5822 10.5561 15.59 10.5507 15.5967 10.5439C15.59 10.5373 15.5822 10.5317 15.5752 10.5254C15.5681 10.5319 15.5596 10.5371 15.5527 10.5439Z" fill="#15C674"/>
</svg>
