<svg width="24" height="24" viewBox="0 0 24 24" fill="none" xmlns="http://www.w3.org/2000/svg">
<path d="M11.3647 4.00879C11.0749 4.46619 10.8575 4.97504 10.731 5.51953C8.29966 6.0663 6.51613 8.15958 6.51611 10.6191C6.51615 12.372 7.40947 14.2123 8.5708 15.8447C9.72055 17.4608 11.0665 18.7826 11.8335 19.4805C11.9181 19.5574 12.0358 19.5572 12.1226 19.4746C12.8874 18.7452 14.2418 17.3643 15.3999 15.7246C16.1288 14.6925 16.7482 13.5999 17.1138 12.5312H17.9028C18.1377 12.5312 18.3683 12.5123 18.5942 12.4795C18.1925 13.9237 17.3956 15.3256 16.5435 16.5322C15.3115 18.2765 13.8851 19.7285 13.0884 20.4883C12.4739 21.074 11.5241 21.0905 10.8921 20.5156C10.0877 19.7838 8.66099 18.3863 7.43018 16.6562C6.21094 14.9424 5.11576 12.8086 5.11572 10.6191C5.11574 7.13353 7.88239 4.31378 11.3647 4.00879Z" fill="#15C674"/>
<path d="M10.604 7.69629C10.6097 8.21733 10.6952 8.71868 10.8501 9.18848C10.4451 9.5194 10.187 10.023 10.187 10.5869C10.1871 11.5837 10.9949 12.3916 11.9917 12.3916C12.4395 12.3915 12.8482 12.2271 13.1636 11.957C13.6033 12.1945 14.0837 12.3634 14.5913 12.4541C14.0096 13.2627 13.0638 13.7918 11.9917 13.792C10.2217 13.7919 8.78569 12.3569 8.78564 10.5869C8.78568 9.31377 9.52846 8.21345 10.604 7.69629Z" fill="#15C674"/>
<path d="M15.311 6.35059C15.6965 6.35067 16.0093 6.66333 16.0093 7.04883C16.0089 7.434 15.6963 7.74699 15.311 7.74707C14.9257 7.74707 14.6132 7.43405 14.6128 7.04883C14.6128 6.66328 14.9255 6.35059 15.311 6.35059Z" fill="#15C674"/>
<path d="M18.0288 6.35059C18.4144 6.35059 18.7271 6.66328 18.7271 7.04883C18.7267 7.43405 18.4141 7.74707 18.0288 7.74707C17.6437 7.74689 17.3319 7.43394 17.3315 7.04883C17.3315 6.6634 17.6434 6.35077 18.0288 6.35059Z" fill="#15C674"/>
<path fill-rule="evenodd" clip-rule="evenodd" d="M16.6704 1.30762C17.0567 1.30788 17.3704 1.62057 17.3706 2.00684V2.96875H17.6138C19.6568 2.96921 21.313 4.62578 21.313 6.66895V7.4248C21.313 9.46797 19.6568 11.1245 17.6138 11.125H15.728C13.6846 11.125 12.0269 9.46826 12.0269 7.4248V6.66895C12.0269 4.62549 13.6846 2.96875 15.728 2.96875H15.9702V2.00684C15.9704 1.62041 16.2839 1.30762 16.6704 1.30762ZM15.728 4.36914C14.4578 4.36914 13.4282 5.39869 13.4282 6.66895V7.4248C13.4282 8.69506 14.4578 9.72461 15.728 9.72461H17.6138C18.8836 9.72415 19.9136 8.69477 19.9136 7.4248V6.66895C19.9136 5.39898 18.8836 4.3696 17.6138 4.36914H15.728Z" fill="#15C674"/>
</svg>
