<svg width="24" height="24" viewBox="0 0 24 24" fill="none" xmlns="http://www.w3.org/2000/svg">
<path fill-rule="evenodd" clip-rule="evenodd" d="M11.9919 11.9376C8.04674 11.9376 7.11972 6.1187 9.91298 4.06249C10.3768 3.72106 11.2683 3.39941 11.992 3.39941C17.1373 3.39941 16.7284 11.9376 11.9919 11.9376ZM10.7429 5.18996C10.8237 5.13047 11.0193 5.0234 11.2956 4.9318C11.5673 4.84171 11.8189 4.79941 11.992 4.79941C12.8418 4.79941 13.3696 5.12951 13.716 5.58316C14.0953 6.07984 14.3176 6.81611 14.298 7.635C14.2785 8.45266 14.02 9.21631 13.6096 9.74278C13.2244 10.2368 12.7033 10.5376 11.9919 10.5376C10.8816 10.5376 10.0769 9.76434 9.79298 8.47097C9.49779 7.1262 9.91896 5.79651 10.7429 5.18996Z" fill="black"/>
<path d="M6.24477 18.1992C6.37086 17.225 6.77123 16.2584 7.56043 15.5158C8.41339 14.7132 9.7982 14.0992 12 14.0992C12.3866 14.0992 12.7 13.7858 12.7 13.3992C12.7 13.0126 12.3866 12.6992 12 12.6992C9.53102 12.6992 7.77219 13.3942 6.60103 14.4962C5.43552 15.5929 4.92932 17.0202 4.82234 18.3434C4.76407 19.0642 5.35409 19.5992 5.99998 19.5992H12.3252C12.7118 19.5992 13.0252 19.2858 13.0252 18.8992C13.0252 18.5126 12.7118 18.1992 12.3252 18.1992H6.24477Z" fill="black"/>
<path d="M14.3931 16.2967C14.3931 15.9101 14.7065 15.5967 15.0931 15.5967H19.8731C20.2597 15.5967 20.5731 15.9101 20.5731 16.2967C20.5731 16.6833 20.2597 16.9967 19.8731 16.9967H15.0931C14.7065 16.9967 14.3931 16.6833 14.3931 16.2967Z" fill="black"/>
<path d="M14.3931 18.9148C14.3931 18.5282 14.7065 18.2148 15.0931 18.2148H18.2894C18.676 18.2148 18.9894 18.5282 18.9894 18.9148C18.9894 19.3014 18.676 19.6148 18.2894 19.6148H15.0931C14.7065 19.6148 14.3931 19.3014 14.3931 18.9148Z" fill="black"/>
<path d="M15.0931 12.9785C14.7065 12.9785 14.3931 13.2919 14.3931 13.6785C14.3931 14.0651 14.7065 14.3785 15.0931 14.3785H19.8731C20.2597 14.3785 20.5731 14.0651 20.5731 13.6785C20.5731 13.2919 20.2597 12.9785 19.8731 12.9785H15.0931Z" fill="black"/>
</svg>
