<svg width="24" height="24" viewBox="0 0 24 24" fill="none" xmlns="http://www.w3.org/2000/svg">
<path d="M12.3247 4.3877C10.1692 4.3877 8.11498 5.25474 6.57661 6.75396L5.92881 7.41059V5.26738C5.92881 4.88078 5.61541 4.56738 5.22881 4.56738C4.84221 4.56738 4.52881 4.88078 4.52881 5.26738V9.20362C4.52881 9.59022 4.84221 9.90362 5.22881 9.90362H9.00102C9.38762 9.90362 9.70102 9.59022 9.70102 9.20362C9.70102 8.81702 9.38762 8.50362 9.00102 8.50362H6.81701L7.55854 7.75188C8.84449 6.50104 10.5496 5.7877 12.3247 5.7877C13.5732 5.7877 14.7944 6.16295 15.834 6.86715C16.8738 7.57143 17.6856 8.57346 18.1653 9.74762C18.6451 10.9219 18.7708 12.2145 18.5261 13.4617C18.2814 14.7088 17.6776 15.8531 16.7925 16.7503C16.521 17.0256 16.5241 17.4688 16.7993 17.7403C17.0745 18.0117 17.5177 18.0087 17.7892 17.7335C18.8686 16.6393 19.6026 15.2463 19.8999 13.7312C20.1971 12.2162 20.0446 10.6458 19.4613 9.21808C18.8779 7.7903 17.8894 6.56842 16.6192 5.70804C15.3489 4.84757 13.8544 4.3877 12.3247 4.3877Z" fill="#333333"/>
<path d="M6.8129 11.8737C7.05004 11.9923 7.19985 12.2347 7.19985 12.4998V18.4998C7.19985 18.8864 6.88645 19.1998 6.49985 19.1998C6.11325 19.1998 5.79985 18.8864 5.79985 18.4998V13.8998L4.91985 14.5598C4.61057 14.7918 4.17181 14.7291 3.93985 14.4198C3.70789 14.1105 3.77057 13.6718 4.07985 13.4398L6.07985 11.9398C6.29196 11.7807 6.57575 11.7551 6.8129 11.8737Z" fill="#333333"/>
<path fill-rule="evenodd" clip-rule="evenodd" d="M10.9998 11.7998C9.50864 11.7998 8.2998 13.0086 8.2998 14.4998V16.4998C8.2998 17.991 9.50864 19.1998 10.9998 19.1998C12.491 19.1998 13.6998 17.991 13.6998 16.4998V14.4998C13.6998 13.0086 12.491 11.7998 10.9998 11.7998ZM9.6998 14.4998C9.6998 13.7818 10.2818 13.1998 10.9998 13.1998C11.7178 13.1998 12.2998 13.7818 12.2998 14.4998V16.4998C12.2998 17.2178 11.7178 17.7998 10.9998 17.7998C10.2818 17.7998 9.6998 17.2178 9.6998 16.4998V14.4998Z" fill="#333333"/>
</svg>
