<svg width="24" height="24" viewBox="0 0 24 24" fill="none" xmlns="http://www.w3.org/2000/svg">
<path fill-rule="evenodd" clip-rule="evenodd" d="M6.57659 6.75396C8.11497 5.25474 10.1691 4.3877 12.3247 4.3877C13.8544 4.3877 15.3489 4.84757 16.6192 5.70804C17.8893 6.56842 18.8779 7.7903 19.4613 9.21808C20.0446 10.6458 20.1971 12.2162 19.8999 13.7312C19.6026 15.2463 18.8686 16.6393 17.7892 17.7335C17.5177 18.0087 17.0745 18.0117 16.7993 17.7403C16.524 17.4688 16.521 17.0256 16.7925 16.7503C17.6776 15.8531 18.2813 14.7088 18.526 13.4617C18.7708 12.2145 18.6451 10.9219 18.1653 9.74762C17.6855 8.57346 16.8737 7.57143 15.834 6.86715C14.7944 6.16295 13.5732 5.7877 12.3247 5.7877C10.5496 5.7877 8.84447 6.50104 7.55853 7.75188L5.79989 9.53471C5.5284 9.80994 5.08519 9.81296 4.80996 9.54147C4.53474 9.26998 4.53171 8.82677 4.8032 8.55154L6.57659 6.75396Z" fill="#333333"/>
<path fill-rule="evenodd" clip-rule="evenodd" d="M5.22885 4.56738C5.61545 4.56738 5.92885 4.88078 5.92885 5.26738V8.50362H9.00107C9.38767 8.50362 9.70107 8.81702 9.70107 9.20362C9.70107 9.59022 9.38767 9.90362 9.00107 9.90362H5.22885C4.84225 9.90362 4.52885 9.59022 4.52885 9.20362V5.26738C4.52885 4.88078 4.84225 4.56738 5.22885 4.56738Z" fill="#333333"/>
<path fill-rule="evenodd" clip-rule="evenodd" d="M7.65599 11.487C7.89314 11.6056 8.04294 11.8479 8.04294 12.1131V19.2654C8.04294 19.652 7.72954 19.9654 7.34294 19.9654C6.95635 19.9654 6.64294 19.652 6.64294 19.2654V13.5131L5.37883 14.4612C5.06955 14.6931 4.63079 14.6305 4.39883 14.3212C4.16687 14.0119 4.22955 13.5731 4.53883 13.3412L6.92294 11.5531C7.13506 11.394 7.41885 11.3684 7.65599 11.487Z" fill="#333333"/>
<path fill-rule="evenodd" clip-rule="evenodd" d="M9.62309 12.1131C9.62309 11.7265 9.93649 11.4131 10.3231 11.4131H13.8993C14.2859 11.4131 14.5993 11.7265 14.5993 12.1131C14.5993 12.4997 14.2859 12.8131 13.8993 12.8131H11.0231V14.0952H11.4853C13.1592 14.0952 14.5993 15.3404 14.5993 17.0303C14.5993 18.7203 13.1592 19.9654 11.4853 19.9654C10.9304 19.9654 10.4655 19.851 10.01 19.6233C9.66425 19.4504 9.5241 19.03 9.69699 18.6842C9.86988 18.3384 10.2904 18.1982 10.6361 18.3711C10.8959 18.501 11.1463 18.5654 11.4853 18.5654C12.4936 18.5654 13.1993 17.8437 13.1993 17.0303C13.1993 16.217 12.4936 15.4952 11.4853 15.4952H10.3231C9.93649 15.4952 9.62309 15.1818 9.62309 14.7952V12.1131Z" fill="#333333"/>
</svg>
