<svg width="24" height="24" viewBox="0 0 24 24" fill="none" xmlns="http://www.w3.org/2000/svg">
<path fill-rule="evenodd" clip-rule="evenodd" d="M17.7385 6.426C19.1382 7.8667 20 9.83271 20 12C20 16.4183 16.4183 20 12 20C9.83334 20 7.86786 19.1387 6.42727 17.7398C6.39545 17.7172 6.36509 17.6917 6.33658 17.6631C6.30806 17.6346 6.28251 17.6042 6.25994 17.5724C4.8612 16.1319 4 14.1665 4 12C4 7.58173 7.58173 4 12 4C14.1671 4 16.133 4.86171 17.5737 6.26118C17.605 6.28349 17.6349 6.30869 17.6629 6.33677C17.691 6.36485 17.7162 6.39471 17.7385 6.426ZM18.6 12C18.6 15.6451 15.6451 18.6 12 18.6C10.4295 18.6 8.98719 18.0515 7.85408 17.1356L17.1356 7.85408C18.0515 8.98719 18.6 10.4295 18.6 12ZM6.86416 16.1456L16.1456 6.86416C15.0125 5.94841 13.5703 5.4 12 5.4C8.35493 5.4 5.4 8.35493 5.4 12C5.4 13.5703 5.94841 15.0125 6.86416 16.1456Z" fill="#333333"/>
</svg>
