<svg width="24" height="24" viewBox="0 0 24 24" fill="none" xmlns="http://www.w3.org/2000/svg">
<path fill-rule="evenodd" clip-rule="evenodd" d="M11.9993 17.3337C14.9449 17.3337 17.3327 14.9458 17.3327 12.0003C17.3327 9.05481 14.9449 6.66699 11.9993 6.66699C9.05383 6.66699 6.66602 9.05481 6.66602 12.0003C6.66602 14.9458 9.05383 17.3337 11.9993 17.3337ZM16.1327 12.0003C16.1327 14.2831 14.2821 16.1337 11.9993 16.1337C11.0744 16.1337 10.2205 15.8299 9.53181 15.3166L15.3156 9.53278C15.8289 10.2215 16.1327 11.0754 16.1327 12.0003ZM8.68325 14.4681L14.4671 8.68422C13.7784 8.17086 12.9244 7.86699 11.9993 7.86699C9.71657 7.86699 7.86602 9.71755 7.86602 12.0003C7.86602 12.9254 8.16988 13.7794 8.68325 14.4681Z" fill="#333333"/>
</svg>
