<svg width="24" height="24" viewBox="0 0 24 24" fill="none" xmlns="http://www.w3.org/2000/svg">
<path fill-rule="evenodd" clip-rule="evenodd" d="M16.7296 7.78882C17.7268 8.90802 18.3327 10.3834 18.3327 12.0003C18.3327 15.4981 15.4971 18.3337 11.9993 18.3337C10.383 18.3337 8.90803 17.7281 7.78897 16.7316C7.66414 16.7085 7.54476 16.6486 7.44821 16.5521C7.35167 16.4556 7.29185 16.3362 7.26874 16.2114C6.27179 15.0923 5.66602 13.617 5.66602 12.0003C5.66602 8.50253 8.50155 5.66699 11.9993 5.66699C13.6166 5.66699 15.0923 6.27317 16.2116 7.27072C16.3357 7.29408 16.4544 7.35379 16.5504 7.44985C16.6465 7.54595 16.7062 7.66464 16.7296 7.78882ZM17.0327 12.0003C17.0327 14.7802 14.7792 17.0337 11.9993 17.0337C10.8439 17.0337 9.77939 16.6443 8.92984 15.9897L15.9887 8.93082C16.6433 9.78037 17.0327 10.8449 17.0327 12.0003ZM8.01052 15.0705L15.0696 8.0115C14.2199 7.35654 13.1551 6.96699 11.9993 6.96699C9.21952 6.96699 6.96602 9.2205 6.96602 12.0003C6.96602 13.1561 7.35556 14.2209 8.01052 15.0705Z" fill="#333333"/>
</svg>
