<svg width="24" height="24" viewBox="0 0 24 24" fill="none" xmlns="http://www.w3.org/2000/svg">
<path fill-rule="evenodd" clip-rule="evenodd" d="M11.9993 16.3337C14.3926 16.3337 16.3327 14.3936 16.3327 12.0003C16.3327 9.60709 14.3926 7.66699 11.9993 7.66699C9.60612 7.66699 7.66602 9.60709 7.66602 12.0003C7.66602 14.3936 9.60612 16.3337 11.9993 16.3337ZM15.2327 12.0003C15.2327 13.786 13.7851 15.2337 11.9993 15.2337C11.3053 15.2337 10.6623 15.015 10.1355 14.6427L14.6418 10.1365C15.014 10.6633 15.2327 11.3063 15.2327 12.0003ZM9.35759 13.8651L13.8641 9.35857C13.3372 8.98594 12.6938 8.76699 11.9993 8.76699C10.2136 8.76699 8.76602 10.2146 8.76602 12.0003C8.76602 12.6948 8.98496 13.3381 9.35759 13.8651Z" fill="#333333"/>
</svg>
