<svg width="24" height="24" viewBox="0 0 24 24" fill="none" xmlns="http://www.w3.org/2000/svg">
<path d="M5.30723 6.32969H6.90723C7.29383 6.32969 7.60723 6.01629 7.60723 5.62969C7.60723 5.24309 7.29383 4.92969 6.90723 4.92969H5.10723C4.44449 4.92969 3.90723 5.46695 3.90723 6.12969V7.92969C3.90723 8.31629 4.22063 8.62969 4.60723 8.62969C4.99383 8.62969 5.30723 8.31629 5.30723 7.92969V6.32969Z" fill="#333333"/>
<path d="M5.30723 17.7055H6.9106C7.2972 17.7055 7.6106 18.0189 7.6106 18.4055C7.6106 18.7921 7.2972 19.1055 6.9106 19.1055H5.10723C4.44449 19.1055 3.90723 18.5682 3.90723 17.9055V16.1021C3.90723 15.7155 4.22063 15.4021 4.60723 15.4021C4.99383 15.4021 5.30723 15.7155 5.30723 16.1021V17.7055Z" fill="#333333"/>
<path d="M17.0913 6.32969H18.6977V7.93604C18.6977 8.32264 19.0111 8.63604 19.3977 8.63604C19.7843 8.63604 20.0977 8.32264 20.0977 7.93604V6.12969C20.0977 5.46695 19.5604 4.92969 18.8977 4.92969H17.0913C16.7047 4.92969 16.3913 5.24309 16.3913 5.62969C16.3913 6.01629 16.7047 6.32969 17.0913 6.32969Z" fill="#333333"/>
<path d="M18.6977 17.7055H17.0961C16.7095 17.7055 16.3961 18.0189 16.3961 18.4055C16.3961 18.7921 16.7095 19.1055 17.0961 19.1055H18.8977C19.5604 19.1055 20.0977 18.5682 20.0977 17.9055V16.1039C20.0977 15.7173 19.7843 15.4039 19.3977 15.4039C19.0111 15.4039 18.6977 15.7173 18.6977 16.1039V17.7055Z" fill="#333333"/>
<path d="M7.29941 7.91992C7.6584 7.91992 7.94941 8.21094 7.94941 8.56992V15.6356C7.94941 15.9946 7.6584 16.2856 7.29941 16.2856C6.94043 16.2856 6.64941 15.9946 6.64941 15.6356L6.64941 8.56992C6.64941 8.21094 6.94043 7.91992 7.29941 7.91992Z" fill="#333333"/>
<path d="M12.6496 8.57961C12.6496 8.22062 12.3586 7.92961 11.9996 7.92961C11.6406 7.92961 11.3496 8.22062 11.3496 8.57961L11.3496 15.6348C11.3496 15.9938 11.6406 16.2848 11.9996 16.2848C12.3586 16.2848 12.6496 15.9938 12.6496 15.6348V8.57961Z" fill="#333333"/>
<path d="M14.3473 7.93066C14.7063 7.93066 14.9973 8.22168 14.9973 8.58066V13.0611C14.9973 13.42 14.7063 13.7111 14.3473 13.7111C13.9883 13.7111 13.6973 13.42 13.6973 13.0611V8.58066C13.6973 8.22168 13.9883 7.93066 14.3473 7.93066Z" fill="#333333"/>
<path d="M14.3473 14.6156C14.7891 14.6156 15.1473 14.9738 15.1473 15.4156L15.1473 15.4883C15.1473 15.9301 14.7891 16.2883 14.3473 16.2883C13.9055 16.2883 13.5473 15.9302 13.5473 15.4883L13.5473 15.4156C13.5473 14.9738 13.9054 14.6156 14.3473 14.6156Z" fill="#333333"/>
<path d="M9.64805 7.92969C10.007 7.92969 10.298 8.2207 10.298 8.57969V13.0601C10.298 13.4191 10.007 13.7101 9.64805 13.7101C9.28906 13.7101 8.99805 13.4191 8.99805 13.0601V8.57969C8.99805 8.2207 9.28906 7.92969 9.64805 7.92969Z" fill="#333333"/>
<path d="M9.64803 14.6146C10.0899 14.6146 10.448 14.9728 10.448 15.4146L10.448 15.4873C10.4481 15.9292 10.0899 16.2873 9.64806 16.2873C9.20623 16.2873 8.84806 15.9292 8.84805 15.4874L8.84805 15.4147C8.84804 14.9728 9.2062 14.6147 9.64803 14.6146Z" fill="#333333"/>
<path d="M17.3781 8.57969C17.3781 8.2207 17.0871 7.92969 16.7281 7.92969C16.3691 7.92969 16.0781 8.2207 16.0781 8.57969L16.0781 12.7247C16.0781 13.0836 16.3691 13.3747 16.7281 13.3747C17.0871 13.3747 17.3781 13.0836 17.3781 12.7247V8.57969Z" fill="#333333"/>
<path d="M17.5281 15.4146C17.5281 14.9728 17.1699 14.6146 16.7281 14.6146C16.2863 14.6147 15.9281 14.9728 15.9281 15.4147L15.9281 15.4874C15.9281 15.9292 16.2863 16.2873 16.7281 16.2873C17.17 16.2873 17.5281 15.9292 17.5281 15.4873L17.5281 15.4146Z" fill="#333333"/>
</svg>
