<svg width="24" height="24" viewBox="0 0 24 24" fill="none" xmlns="http://www.w3.org/2000/svg">
<path fill-rule="evenodd" clip-rule="evenodd" d="M18.111 6.64781C18.374 6.36442 18.3574 5.92152 18.074 5.65856C17.7906 5.3956 17.3477 5.41216 17.0847 5.69555L15.7631 7.11992H6.45299C5.04389 7.11992 3.90186 8.26245 3.90186 9.67149V15.2262C3.90186 16.454 4.76906 17.4795 5.9245 17.7229L5.1734 18.5324C4.91044 18.8158 4.927 19.2587 5.21039 19.5216C5.49378 19.7846 5.93669 19.768 6.19965 19.4846L18.111 6.64781ZM7.1727 16.3777L14.464 8.51992H6.45299C5.81739 8.51992 5.30186 9.03534 5.30186 9.67149V15.2262C5.30186 15.8623 5.81739 16.3777 6.45299 16.3777H7.1727Z" fill="#333333"/>
<path d="M17.5598 16.3777H10.7048L9.40578 17.7777H17.5598C18.9689 17.7777 20.1109 16.6352 20.1109 15.2262V14.212H20.3615C20.7481 14.212 21.0615 13.8986 21.0615 13.512V11.3883C21.0615 11.0017 20.7481 10.6883 20.3615 10.6883H20.1109V9.67149C20.1109 8.76543 19.6387 7.96957 18.9269 7.51683L17.9373 8.58329C18.3876 8.7396 18.7109 9.16769 18.7109 9.67149V15.2262C18.7109 15.8623 18.1954 16.3777 17.5598 16.3777Z" fill="#333333"/>
</svg>
