<svg width="24" height="24" viewBox="0 0 24 24" fill="none" xmlns="http://www.w3.org/2000/svg">
<path fill-rule="evenodd" clip-rule="evenodd" d="M12.0364 3.46971C12.2854 3.35577 12.5781 3.39755 12.7853 3.57663L17.5163 7.66519C17.6723 7.80002 17.7609 7.99678 17.7585 8.20297C17.7561 8.40916 17.6629 8.6038 17.5038 8.73496L13.4143 12.1059L17.5188 15.6873C17.6752 15.8237 17.763 16.0226 17.7584 16.2301C17.7538 16.4377 17.6574 16.6325 17.4951 16.7619L12.7641 20.536C12.5539 20.7037 12.2662 20.7362 12.0239 20.6195C11.7816 20.5029 11.6276 20.2577 11.6276 19.9888V13.5788L8.02368 16.5495C7.72537 16.7954 7.2842 16.7529 7.03829 16.4546C6.79239 16.1563 6.83488 15.7151 7.13319 15.4692L11.2501 12.0756L7.11822 8.47033C6.82692 8.21615 6.79682 7.77396 7.05099 7.48266C7.30516 7.19136 7.74736 7.16126 8.03866 7.41544L11.6276 10.5469V4.10626C11.6276 3.83238 11.7873 3.58365 12.0364 3.46971ZM13.0276 13.6265L15.9663 16.1906L13.0276 18.535V13.6265ZM13.0276 10.6104V5.63639L15.9734 8.18217L13.0276 10.6104Z" fill="#333333"/>
</svg>
