<svg width="24" height="24" viewBox="0 0 24 24" fill="none" xmlns="http://www.w3.org/2000/svg">
<path fill-rule="evenodd" clip-rule="evenodd" d="M7.4751 8.05957C6.92281 8.05957 6.4751 8.50729 6.4751 9.05957V13.2295C6.4751 13.7818 6.92281 14.2295 7.4751 14.2295H10.6733C11.2256 14.2295 11.6733 13.7818 11.6733 13.2295V9.05957C11.6733 8.50729 11.2256 8.05957 10.6733 8.05957H7.4751ZM7.8751 9.45957V10.4443H10.2733V9.45957H7.8751ZM7.8751 12.8295V11.8443H10.2733V12.8295H7.8751Z" fill="#333333"/>
<path fill-rule="evenodd" clip-rule="evenodd" d="M12.4307 11.04C12.4307 9.65339 13.5548 8.5293 14.9414 8.5293C16.3281 8.5293 17.4521 9.65339 17.4521 11.04C17.4521 12.4267 16.3281 13.5508 14.9414 13.5508C13.5548 13.5508 12.4307 12.4267 12.4307 11.04ZM14.9414 12.1508C14.328 12.1508 13.8307 11.6535 13.8307 11.04C13.8307 10.4266 14.328 9.9293 14.9414 9.9293C15.5549 9.9293 16.0521 10.4266 16.0521 11.04C16.0521 11.6535 15.5549 12.1508 14.9414 12.1508Z" fill="#333333"/>
<path fill-rule="evenodd" clip-rule="evenodd" d="M4.25684 7.31934C4.25684 6.21477 5.15227 5.31934 6.25684 5.31934H17.7428C18.8473 5.31934 19.7428 6.21477 19.7428 7.31934V15.8486H19.868C20.2546 15.8486 20.568 16.162 20.568 16.5486C20.568 16.9352 20.2546 17.2486 19.868 17.2486L12.7433 17.2488V17.3306L14.9179 19.3755C15.1995 19.6404 15.2131 20.0834 14.9483 20.365C14.6834 20.6467 14.2404 20.6603 13.9588 20.3954L12.0883 18.6364L10.1277 20.4797C9.84607 20.7445 9.40306 20.7309 9.13825 20.4492C8.87344 20.1675 8.8871 19.7245 9.16876 19.4597L11.3433 17.4153V17.2488H4.25684L4.15312 17.2486C3.76653 17.2486 3.45312 16.9352 3.45312 16.5486C3.45312 16.162 3.76653 15.8486 4.15312 15.8486H4.25684V7.31934ZM18.3428 15.8486L5.65684 15.8486V7.31934C5.65684 6.98797 5.92547 6.71934 6.25684 6.71934H17.7428C18.0741 6.71934 18.3428 6.98797 18.3428 7.31934V15.8486Z" fill="#333333"/>
</svg>
