<svg width="24" height="24" viewBox="0 0 24 24" fill="none" xmlns="http://www.w3.org/2000/svg">
<path fill-rule="evenodd" clip-rule="evenodd" d="M6.42236 6.48516C6.42236 5.82241 6.95962 5.28516 7.62236 5.28516H12.8742C13.8669 5.28516 14.8115 5.69951 15.5025 6.42501C16.1923 7.14935 16.5742 8.12479 16.5742 9.13516C16.5742 10.1871 16.161 10.9689 15.5074 11.6569C15.4999 11.665 15.4924 11.6731 15.4848 11.6811C15.9378 11.864 16.355 12.1334 16.7098 12.4794C17.4487 13.1998 17.8224 14.3416 17.8224 15.2852C17.8224 16.2723 17.42 17.2152 16.7098 17.9077C16.0002 18.5995 15.0415 18.9852 14.0454 18.9852H7.62236C6.95962 18.9852 6.42236 18.4479 6.42236 17.7852V6.48516ZM13.2355 12.8019C13.251 12.8025 13.2666 12.8025 13.2823 12.8019L14.0454 12.8019C14.6815 12.8019 15.288 13.0485 15.7325 13.4818C16.1477 13.8867 16.4224 14.6374 16.4224 15.2852C16.4224 15.8894 16.1764 16.4725 15.7325 16.9053C15.288 17.3386 14.6815 17.5852 14.0454 17.5852H7.82236V12.8019L13.2355 12.8019ZM13.2073 11.4019C13.3715 11.3722 13.6037 11.2921 13.85 11.1631C14.1168 11.0234 14.3424 10.8566 14.4785 10.7075L14.4887 10.6966C14.9574 10.2044 15.1742 9.75145 15.1742 9.13516C15.1742 8.47466 14.924 7.84767 14.4887 7.39053C14.0544 6.93455 13.4729 6.68516 12.8742 6.68516H7.82236V11.4019L13.2073 11.4019Z" fill="#333333"/>
</svg>
