<svg width="24" height="24" viewBox="0 0 24 24" fill="none" xmlns="http://www.w3.org/2000/svg">
<path fill-rule="evenodd" clip-rule="evenodd" d="M12.7422 7.40369C12.4456 6.77299 11.5545 6.77299 11.2579 7.40369L10.4009 9.22633L8.49837 9.51649C7.79014 9.62451 7.59812 10.4665 8.03617 10.9147L9.43261 12.3434L9.10163 14.3688C9.00338 14.9701 9.63714 15.598 10.3065 15.2287L12 14.2941L13.6936 15.2287C14.363 15.598 14.9967 14.9701 14.8985 14.3688L14.5675 12.3434L15.9639 10.9147C16.402 10.4665 16.2099 9.62451 15.5017 9.51649L13.5992 9.22633L12.7422 7.40369ZM11.5317 10.1116L12 9.11554L12.4684 10.1116C12.5819 10.353 12.8081 10.5219 13.0718 10.5621L14.1849 10.7319L13.3543 11.5817C13.1766 11.7635 13.0959 12.019 13.1369 12.2699L13.3259 13.4268L12.3865 12.9084C12.146 12.7757 11.8541 12.7757 11.6135 12.9084L10.6741 13.4268L10.8632 12.2699C10.9042 12.019 10.8235 11.7635 10.6458 11.5817L9.81514 10.7319L10.9283 10.5621C11.1919 10.5219 11.4182 10.353 11.5317 10.1116Z" fill="#333333"/>
<path fill-rule="evenodd" clip-rule="evenodd" d="M5.5 7.26465C5.5 5.60779 6.84315 4.26465 8.5 4.26465H15.5C17.1569 4.26465 18.5 5.60779 18.5 7.26465V18.6654C18.5 19.5496 17.7832 20.2664 16.899 20.2664C16.6483 20.2664 16.4011 20.2075 16.1773 20.0944L12.456 18.215C12.1696 18.0703 11.8312 18.0719 11.5461 18.2192L8.03816 20.0321C7.74024 20.186 7.40977 20.2664 7.07441 20.2664C6.20489 20.2664 5.5 19.5615 5.5 18.6919V7.26465ZM8.5 5.66465H15.5C16.3837 5.66465 17.1 6.38099 17.1 7.26465V18.6654C17.1 18.7764 17.01 18.8664 16.899 18.8664C16.8675 18.8664 16.8365 18.859 16.8084 18.8448L13.0872 16.9653C12.3998 16.6181 11.5875 16.6219 10.9034 16.9755L7.39542 18.7883C7.29619 18.8396 7.18611 18.8664 7.07441 18.8664C6.97809 18.8664 6.9 18.7883 6.9 18.6919V7.26465C6.9 6.38099 7.61634 5.66465 8.5 5.66465Z" fill="#333333"/>
</svg>
