<svg width="24" height="24" viewBox="0 0 24 24" fill="none" xmlns="http://www.w3.org/2000/svg">
<path fill-rule="evenodd" clip-rule="evenodd" d="M8.5 4.26465C6.84315 4.26465 5.5 5.60779 5.5 7.26465V18.8581C5.5 19.6359 6.13048 20.2664 6.90822 20.2664C7.30742 20.2664 7.69623 20.1391 8.01821 19.9031L11.4081 17.4185C11.7604 17.1603 12.2394 17.1606 12.5914 17.4191L16.062 19.9691C16.3248 20.1622 16.6425 20.2664 16.9687 20.2664C17.8144 20.2664 18.5 19.5808 18.5 18.735V7.26465C18.5 5.60779 17.1569 4.26465 15.5 4.26465H8.5ZM15.5 5.66465H8.5C7.61634 5.66465 6.9 6.38099 6.9 7.26465V18.8581L6.90011 18.8607C6.90017 18.8608 6.90077 18.8623 6.90241 18.8639C6.90378 18.8653 6.90488 18.866 6.90528 18.8662L6.90822 18.8664C7.00977 18.8664 7.10867 18.834 7.19058 18.774L10.5805 16.2893C11.4259 15.6697 12.5756 15.6703 13.4203 16.2909L16.8909 18.8409C16.9134 18.8574 16.9407 18.8664 16.9687 18.8664C17.0412 18.8664 17.1 18.8076 17.1 18.735V7.26465C17.1 6.38099 16.3837 5.66465 15.5 5.66465Z" fill="#333333"/>
</svg>
