<svg width="24" height="24" viewBox="0 0 24 24" fill="none" xmlns="http://www.w3.org/2000/svg">
<path d="M6.43848 5.9998C6.43848 5.61321 6.75188 5.2998 7.13848 5.2998H16.8611C17.2477 5.2998 17.5611 5.61321 17.5611 5.9998C17.5611 6.3864 17.2477 6.6998 16.8611 6.6998H7.13848C6.75188 6.6998 6.43848 6.3864 6.43848 5.9998Z" fill="#333333"/>
<path fill-rule="evenodd" clip-rule="evenodd" d="M9.25977 13.7622C9.25977 14.7354 8.4708 15.5244 7.49756 15.5244C6.52432 15.5244 5.73535 14.7354 5.73535 13.7622C5.73535 12.789 6.52432 12 7.49756 12C8.4708 12 9.25977 12.789 9.25977 13.7622ZM7.85977 13.7622C7.85977 13.9622 7.6976 14.1244 7.49756 14.1244C7.29752 14.1244 7.13535 13.9622 7.13535 13.7622C7.13535 13.5622 7.29752 13.4 7.49756 13.4C7.6976 13.4 7.85977 13.5622 7.85977 13.7622Z" fill="#333333"/>
<path fill-rule="evenodd" clip-rule="evenodd" d="M12.022 15.5244C12.9952 15.5244 13.7842 14.7354 13.7842 13.7622C13.7842 12.789 12.9952 12 12.022 12C11.0487 12 10.2598 12.789 10.2598 13.7622C10.2598 14.7354 11.0487 15.5244 12.022 15.5244ZM12.022 14.1244C12.222 14.1244 12.3842 13.9622 12.3842 13.7622C12.3842 13.5622 12.222 13.4 12.022 13.4C11.8219 13.4 11.6598 13.5622 11.6598 13.7622C11.6598 13.9622 11.8219 14.1244 12.022 14.1244Z" fill="#333333"/>
<path fill-rule="evenodd" clip-rule="evenodd" d="M18.3086 13.7622C18.3086 14.7354 17.5196 15.5244 16.5464 15.5244C15.5731 15.5244 14.7842 14.7354 14.7842 13.7622C14.7842 12.789 15.5731 12 16.5464 12C17.5196 12 18.3086 12.789 18.3086 13.7622ZM16.9086 13.7622C16.9086 13.9622 16.7464 14.1244 16.5464 14.1244C16.3463 14.1244 16.1842 13.9622 16.1842 13.7622C16.1842 13.5622 16.3463 13.4 16.5464 13.4C16.7464 13.4 16.9086 13.5622 16.9086 13.7622Z" fill="#333333"/>
<path fill-rule="evenodd" clip-rule="evenodd" d="M4.44092 9C3.88863 9 3.44092 9.44829 3.44092 10.0006V15.9998C3.44092 17.6566 4.78406 19 6.44092 19H17.5591C19.2159 19 20.5591 17.6569 20.5591 16V10C20.5591 9.44772 20.1114 9 19.5591 9H4.44092ZM4.84092 10.4V15.9998C4.84092 16.8836 5.5574 17.6 6.44092 17.6H17.5591C18.4427 17.6 19.1591 16.8837 19.1591 16V10.4H4.84092Z" fill="#333333"/>
</svg>
