<svg width="24" height="24" viewBox="0 0 24 24" fill="none" xmlns="http://www.w3.org/2000/svg">
<path d="M10.0425 4.19166C9.77379 3.99285 9.41919 3.92715 9.17054 3.89522C8.88643 3.85873 8.56448 3.84849 8.2536 3.84863C7.93973 3.84878 7.61565 3.8597 7.32524 3.8701L7.25807 3.87251C6.98942 3.88217 6.75926 3.89045 6.57695 3.89045C6.19036 3.89045 5.87695 4.20385 5.87695 4.59045C5.87695 4.97705 6.19035 5.29045 6.57695 5.29045C6.786 5.29045 7.0419 5.28122 7.30129 5.27186L7.37534 5.2692C7.66686 5.25876 7.96815 5.24877 8.25425 5.24864C8.54334 5.2485 8.79598 5.25861 8.99222 5.28381C9.12658 5.30107 9.19363 5.32086 9.21736 5.32787C9.22361 5.32971 9.22686 5.33067 9.22753 5.33046C9.29904 5.38513 9.44335 5.50319 9.65177 5.6737C9.76159 5.76354 9.88936 5.86807 10.0335 5.98542C10.4602 6.33284 11.0028 6.76962 11.5687 7.2017C12.1325 7.63216 12.7301 8.0661 13.2656 8.40428C13.5331 8.5732 13.7955 8.7249 14.0376 8.84143C14.2672 8.95197 14.5303 9.05668 14.7858 9.08843C15.3771 9.16189 16.5919 9.24227 17.6335 9.30356C18.1597 9.33453 18.6504 9.36109 19.0095 9.3799C19.189 9.38931 19.3358 9.39679 19.4377 9.40192L19.597 9.40984C19.9831 9.42864 20.3114 9.13085 20.3302 8.74471C20.349 8.35857 20.0507 8.03027 19.6645 8.01147L19.508 8.00369C19.407 7.9986 19.2612 7.99117 19.0827 7.98182C18.7257 7.96311 18.2381 7.93672 17.7157 7.90598C16.6597 7.84384 15.4951 7.76578 14.9584 7.69911C14.932 7.69583 14.8336 7.67086 14.6448 7.57997C14.4685 7.49509 14.2555 7.37363 14.0131 7.22057C13.529 6.91481 12.9692 6.50955 12.4183 6.08894C11.8695 5.66995 11.34 5.24379 10.9174 4.89977C10.8021 4.80586 10.6921 4.71591 10.5909 4.63306C10.3352 4.42392 10.1348 4.25998 10.0425 4.19166Z" fill="#333333"/>
<path d="M19.6551 15.5221C20.0415 15.5089 20.3439 15.1849 20.3307 14.7985C20.3174 14.4121 19.9926 14.1097 19.6062 14.123L19.5636 14.1245L19.4419 14.129C19.3368 14.133 19.1861 14.1388 19.0027 14.1466C18.6362 14.162 18.1384 14.1849 17.6143 14.2144C17.0912 14.2439 16.5373 14.2802 16.0602 14.3229C15.6034 14.3638 15.1589 14.415 14.8906 14.4844C14.6803 14.5389 14.4444 14.6685 14.249 14.7851C14.0306 14.9154 13.7758 15.0838 13.5031 15.2728C12.9567 15.6515 12.3069 16.135 11.6762 16.6136C11.2455 16.9405 10.8182 17.2693 10.4359 17.5636C10.2585 17.7001 10.0908 17.8291 9.937 17.9471C9.6925 18.1345 9.48378 18.2932 9.32291 18.4124C9.24235 18.472 9.17691 18.5194 9.12674 18.5544C9.08672 18.5824 9.06599 18.5957 9.05945 18.5999L9.05754 18.6011C9.05034 18.6042 8.99133 18.6282 8.83972 18.6475C8.68783 18.6667 8.49416 18.6755 8.25641 18.6769C8.0457 18.6782 7.81806 18.6739 7.57083 18.6692L7.47869 18.6675C7.19997 18.6623 6.90126 18.6575 6.60212 18.662C6.21557 18.6678 5.90691 18.9859 5.91273 19.3725C5.91854 19.759 6.23662 20.0677 6.62317 20.0619C6.89636 20.0577 7.1741 20.062 7.45254 20.0672L7.54483 20.069C7.78897 20.0736 8.03556 20.0783 8.26508 20.0769C8.52254 20.0753 8.78139 20.0661 9.01594 20.0363C9.23919 20.008 9.50366 19.9541 9.73504 19.8264C9.84234 19.7671 10.0026 19.6511 10.156 19.5375C10.327 19.4109 10.5437 19.246 10.7888 19.0581C10.9465 18.9372 11.1163 18.8065 11.2949 18.6691C11.6754 18.3763 12.0956 18.0529 12.5226 17.7288C13.1498 17.2528 13.7799 16.7843 14.3006 16.4235C14.5615 16.2427 14.787 16.0944 14.9665 15.9873C15.1358 15.8863 15.2191 15.8498 15.2378 15.8416C15.2414 15.84 15.2426 15.8394 15.2415 15.8397C15.38 15.8039 15.7096 15.7599 16.185 15.7174C16.6401 15.6766 17.1766 15.6413 17.693 15.6122C18.2085 15.5832 18.6994 15.5606 19.0617 15.5453C19.2428 15.5377 19.3914 15.5319 19.4947 15.528L19.6139 15.5236L19.6551 15.5221Z" fill="#333333"/>
<path d="M9.73133 9.32921C9.7057 9.46158 9.64163 9.58798 9.53912 9.6905L7.8956 11.334C7.62223 11.6074 7.17902 11.6074 6.90565 11.334C6.63228 11.0607 6.63228 10.6175 6.90564 10.3441L7.30578 9.94395H4.61504C4.22844 9.94395 3.91504 9.63055 3.91504 9.24395C3.91504 8.85735 4.22844 8.54395 4.61504 8.54395H7.40263L6.89648 8.0378C6.62311 7.76443 6.62311 7.32121 6.89648 7.04785C7.16985 6.77448 7.61306 6.77448 7.88643 7.04785L9.53912 8.70053C9.63949 8.80091 9.70301 8.92419 9.72967 9.05355C9.7484 9.14438 9.74895 9.2382 9.73133 9.32921Z" fill="#333333"/>
<path d="M12.2797 12.8968C12.0063 13.1702 12.0063 13.6134 12.2797 13.8868C12.553 14.1601 12.9963 14.1601 13.2696 13.8868L14.9131 12.2432C14.9818 12.1746 15.0332 12.0953 15.0673 12.0106C15.1182 11.8845 15.1309 11.7466 15.1053 11.6146C15.0797 11.4822 15.0157 11.3558 14.9131 11.2533L13.2605 9.60058C12.9871 9.32721 12.5439 9.32721 12.2705 9.60058C11.9971 9.87395 11.9971 10.3172 12.2705 10.5905L12.7767 11.0967H10.4246C10.038 11.0967 9.72461 11.4101 9.72461 11.7967C9.72461 12.1833 10.038 12.4967 10.4246 12.4967H12.6798L12.2797 12.8968Z" fill="#333333"/>
<path d="M6.90565 16.7969C6.63228 16.5236 6.63228 16.0804 6.90564 15.807L7.30481 15.4078H4.61504C4.22844 15.4078 3.91504 15.0944 3.91504 14.7078C3.91504 14.3212 4.22844 14.0078 4.61504 14.0078H7.4036L6.89648 13.5007C6.62311 13.2273 6.62311 12.7841 6.89648 12.5107C7.16985 12.2374 7.61306 12.2374 7.88643 12.5107L9.53912 14.1634C9.64163 14.2659 9.7057 14.3923 9.73133 14.5247C9.75682 14.6564 9.74427 14.794 9.69369 14.9198C9.65952 15.0048 9.608 15.0845 9.53912 15.1534L7.8956 16.7969C7.62223 17.0703 7.17902 17.0703 6.90565 16.7969Z" fill="#333333"/>
</svg>
