<svg width="25" height="24" viewBox="0 0 25 24" fill="none" xmlns="http://www.w3.org/2000/svg">
<path d="M10.4998 11.2998C10.1132 11.2998 9.7998 11.6132 9.7998 11.9998C9.7998 12.3864 10.1132 12.6998 10.4998 12.6998H14.4998C14.8864 12.6998 15.1998 12.3864 15.1998 11.9998C15.1998 11.6132 14.8864 11.2998 14.4998 11.2998H10.4998Z" fill="#333333"/>
<path fill-rule="evenodd" clip-rule="evenodd" d="M5.3999 6.57988C5.3999 5.641 6.16102 4.87988 7.0999 4.87988H17.9C18.8388 4.87988 19.6 5.641 19.6 6.57988V8.57988C19.6 9.26818 19.1909 9.86093 18.6026 10.1283V17.383C18.6026 18.3219 17.8415 19.083 16.9026 19.083H8.09795C7.15907 19.083 6.39795 18.3219 6.39795 17.383V10.1286C5.80929 9.86143 5.3999 9.26846 5.3999 8.57988V6.57988ZM7.79795 10.2799H17.2026V17.383C17.2026 17.5487 17.0683 17.683 16.9026 17.683H8.09795C7.93226 17.683 7.79795 17.5487 7.79795 17.383V10.2799ZM7.0999 6.27988C6.93422 6.27988 6.7999 6.4142 6.7999 6.57988V8.57988C6.7999 8.74557 6.93422 8.87988 7.0999 8.87988H17.9C18.0656 8.87988 18.2 8.74557 18.2 8.57988V6.57988C18.2 6.4142 18.0656 6.27988 17.9 6.27988H7.0999Z" fill="#333333"/>
</svg>
