<svg width="24" height="24" viewBox="0 0 24 24" fill="none" xmlns="http://www.w3.org/2000/svg">
<path fill-rule="evenodd" clip-rule="evenodd" d="M10.412 4.35201C10.965 4.02782 11.4481 3.90137 12 3.90137C12.5797 3.90137 13.0667 4.09142 13.5236 4.30754C13.7684 4.42331 14.8248 5.01456 15.8216 5.57543C16.2041 5.79067 16.5829 6.00437 16.9168 6.19272C17.4765 6.50842 17.9101 6.75305 18.0231 6.81425C18.4927 7.0686 18.9615 7.48631 19.2445 7.96965C19.5204 8.44078 19.6584 8.88429 19.6584 9.62355V14.4001C19.6584 15.0587 19.5225 15.5502 19.2461 16.0272C18.9769 16.4916 18.6451 16.8452 18.1064 17.1431C18.0269 17.187 17.8362 17.2946 17.5738 17.4426C17.1318 17.692 16.4865 18.056 15.8273 18.4236C15.308 18.7132 14.7855 19.0019 14.3644 19.2285C14.1541 19.3416 13.966 19.441 13.8147 19.5179C13.6789 19.5869 13.5326 19.6588 13.4286 19.6959C13.3377 19.7284 13.2491 19.7645 13.1505 19.8054L13.1201 19.818C13.0333 19.8541 12.9343 19.8952 12.8351 19.932C12.6071 20.0167 12.3289 20.0982 12 20.0982C11.4086 20.0982 10.7978 19.8426 10.3949 19.6567C10.16 19.5483 9.13794 18.9838 8.16512 18.4372C7.1906 17.8897 6.1664 17.3043 5.92787 17.1452C5.51955 16.873 5.05287 16.5594 4.74928 16.0191C4.46773 15.5179 4.37571 15.0602 4.34266 14.4372C4.31843 13.9804 4.33145 11.5835 4.33831 10.3198C4.34024 9.96614 4.34168 9.70121 4.34168 9.5924C4.34171 8.94338 4.47058 8.48934 4.7456 7.98716C5.05242 7.42689 5.49305 7.10552 5.90773 6.84015C6.12923 6.69839 7.17146 6.12767 8.16676 5.58426L8.69194 5.29765C9.51621 4.84793 10.2354 4.45551 10.412 4.35201ZM12 5.30137C11.7096 5.30137 11.4694 5.35495 11.12 5.55977C11.0026 5.6286 10.6896 5.80128 10.282 6.02447L15.4187 9.13039L17.2878 8.00759C17.1057 7.90666 16.6951 7.67503 16.196 7.39348L16.1938 7.39228C15.8658 7.20722 15.4996 7.00067 15.135 6.79554C14.1003 6.21327 13.111 5.66109 12.925 5.57311C12.5204 5.38175 12.2626 5.30137 12 5.30137ZM18.2096 9.08702L16.109 10.3489L16.1091 13.2189C16.1091 13.4018 16.0092 13.5701 15.8487 13.6578L15.1626 14.0324C14.9627 14.1416 14.7188 13.9969 14.7188 13.7691L14.7188 11.184L12.6998 12.3968V18.4769C12.7787 18.4447 12.8656 18.4104 12.9578 18.3775C12.963 18.3752 12.9806 18.3676 13.0138 18.352C13.0562 18.3321 13.1118 18.3047 13.1805 18.2698C13.3176 18.2001 13.4948 18.1066 13.701 17.9957C14.1128 17.7741 14.628 17.4894 15.1454 17.2009C15.7868 16.8432 16.4407 16.4744 16.89 16.221C17.157 16.0704 17.352 15.9604 17.429 15.9178C17.7301 15.7514 17.8837 15.5859 18.0348 15.3252C18.1787 15.077 18.2584 14.8307 18.2584 14.4001V9.62355C18.2584 9.3909 18.2416 9.22362 18.2096 9.08702ZM11.2998 12.3966L5.79479 9.08965C5.75818 9.23302 5.74169 9.39 5.74168 9.59247C5.74167 9.72459 5.74004 10.0298 5.73791 10.4262C5.73102 11.7111 5.71898 13.9537 5.7407 14.363C5.76708 14.8603 5.83002 15.0845 5.96983 15.3333C6.0876 15.5429 6.27259 15.6925 6.70445 15.9804C6.88601 16.1014 7.84557 16.6518 8.85092 17.2167C9.85797 17.7826 10.8119 18.3073 10.9815 18.3855C11.0914 18.4363 11.1979 18.4824 11.2998 18.5228V12.3966ZM6.69661 7.99821L12 11.184L14.0614 9.94573L8.86012 6.80078L8.83765 6.81305C7.85867 7.34755 6.93556 7.85414 6.69661 7.99821Z" fill="#333333"/>
</svg>
