<svg width="24" height="24" viewBox="0 0 24 24" fill="none" xmlns="http://www.w3.org/2000/svg">
<path fill-rule="evenodd" clip-rule="evenodd" d="M15.4722 3.98273C16.0157 2.96506 17.2814 2.58019 18.2993 3.12335C19.3174 3.66677 19.7021 4.93341 19.1587 5.95148L17.4175 9.2132C17.7649 9.7933 18.0216 10.4948 18.1499 11.3284C18.4302 13.1504 17.6952 15.124 16.8433 16.721C15.9777 18.3436 14.9176 19.7122 14.3745 20.3714C13.9928 20.8347 13.3891 21.0479 12.7964 20.9144C11.9513 20.724 10.254 20.2676 8.43313 19.3519C6.61519 18.4376 4.63004 17.0439 3.26809 14.9573C2.6196 13.9633 3.26447 12.8032 4.21438 12.4964C5.16138 12.1908 6.38528 11.7215 7.14505 11.179C7.79323 10.7162 8.23413 10.1425 8.83255 9.45148C8.88037 9.39625 8.9296 9.34122 8.97903 9.28546C9.0176 9.22343 9.06884 9.16924 9.12747 9.12042C9.65078 8.54875 10.2803 7.96841 11.1792 7.51886C11.9313 7.14279 12.8828 6.94961 13.8452 7.0296L15.4722 3.98273ZM9.57766 10.7337C9.12861 11.2621 8.62294 11.8448 7.9595 12.3187C7.00808 12.998 5.59971 13.5203 4.64505 13.8284C4.53841 13.8628 4.46294 13.9389 4.4302 14.0159C4.40088 14.0851 4.40858 14.1416 4.44192 14.1927C4.88871 14.877 5.41746 15.4816 5.99368 16.015C6.04391 15.9564 6.10275 15.9033 6.17337 15.8626C6.64875 15.5885 7.10884 15.1632 7.40286 14.89C7.68604 14.627 8.12803 14.644 8.39114 14.9271C8.65402 15.2101 8.63879 15.6522 8.35598 15.9153C8.11478 16.1395 7.64866 16.5753 7.11282 16.9261C7.74792 17.3837 8.40927 17.7736 9.06204 18.1019C9.1549 18.1486 9.24923 18.1905 9.34134 18.2347C10.1305 17.494 10.7046 16.7273 11.2671 15.7357C11.458 15.3997 11.8851 15.2813 12.2212 15.472C12.5571 15.6628 12.6744 16.09 12.4839 16.4261C11.967 17.3373 11.4224 18.1024 10.7281 18.8275C11.7349 19.2076 12.5922 19.4328 13.104 19.5482C13.1742 19.564 13.2431 19.5428 13.2935 19.4818C13.8083 18.857 14.804 17.5688 15.6079 16.0618C15.9604 15.401 16.2616 14.7212 16.4751 14.054C15.1287 13.9371 13.6131 13.3799 12.3042 12.68C11.2609 12.122 10.2768 11.4353 9.57766 10.7337ZM14.7115 8.64874C13.7286 8.26375 12.5908 8.37866 11.8062 8.77081C11.292 9.02795 10.8856 9.34024 10.521 9.69171C11.0732 10.2612 11.9414 10.8985 12.9644 11.4456C14.2538 12.1351 15.662 12.619 16.7779 12.6732H16.7798C16.8222 12.2814 16.8215 11.9023 16.7661 11.5423C16.5072 9.85939 15.6467 9.01521 14.7115 8.64874ZM17.6402 4.3587C17.3042 4.17942 16.8869 4.30693 16.7075 4.64288L15.2564 7.35968C15.6801 7.5297 16.0806 7.76364 16.4429 8.06573L17.9234 5.29132C18.1025 4.95542 17.976 4.538 17.6402 4.3587Z" fill="#15C674"/>
</svg>
