<svg width="24" height="24" viewBox="0 0 24 24" fill="none" xmlns="http://www.w3.org/2000/svg">
<path d="M6.48926 8.00859C6.48926 7.62199 6.80266 7.30859 7.18926 7.30859L7.98027 7.30859C8.36687 7.30859 8.68027 7.62199 8.68027 8.00859C8.68027 8.39519 8.36687 8.70859 7.98027 8.70859H7.18926C6.80266 8.70859 6.48926 8.39519 6.48926 8.00859Z" fill="#333333"/>
<path d="M10.1692 7.30859C9.78264 7.30859 9.46924 7.62199 9.46924 8.00859C9.46924 8.39519 9.78264 8.70859 10.1692 8.70859H10.9603C11.3469 8.70859 11.6603 8.39519 11.6603 8.00859C11.6603 7.62199 11.3469 7.30859 10.9603 7.30859L10.1692 7.30859Z" fill="#333333"/>
<path fill-rule="evenodd" clip-rule="evenodd" d="M6.69355 4.91406C5.14716 4.91406 3.89355 6.16767 3.89355 7.71406V16.2982C3.89355 17.8446 5.14716 19.0982 6.69355 19.0982H17.31C18.8564 19.0982 20.11 17.8446 20.11 16.2982V7.71406C20.11 6.16767 18.8564 4.91406 17.31 4.91406H6.69355ZM5.29355 7.71406C5.29355 6.94086 5.92036 6.31406 6.69355 6.31406H17.31C18.0832 6.31406 18.71 6.94086 18.71 7.71406V9.59375H5.29355V7.71406ZM5.29355 10.9938V16.2982C5.29355 17.0714 5.92036 17.6982 6.69355 17.6982H17.31C18.0832 17.6982 18.71 17.0714 18.71 16.2982V10.9938H5.29355Z" fill="#333333"/>
</svg>
