<svg width="24" height="24" viewBox="0 0 24 24" fill="none" xmlns="http://www.w3.org/2000/svg">
<path fill-rule="evenodd" clip-rule="evenodd" d="M15.0518 4.47836L14.6528 4.90432C14.6763 4.9329 14.6993 4.96188 14.7216 4.99126C15.1958 5.61371 15.3728 6.35199 15.4016 6.95726C15.8315 7.09802 16.2358 7.32413 16.5718 7.64226L17.6876 6.70473C17.9836 6.45603 18.4251 6.49436 18.6738 6.79035C18.9225 7.08633 18.8842 7.52789 18.5882 7.77659L17.3415 8.8241C17.7758 9.78705 18.099 10.8918 18.2117 11.9967H19.9073C20.2939 11.9967 20.6073 12.3101 20.6073 12.6967C20.6073 13.0833 20.2939 13.3967 19.9073 13.3967L18.2387 13.3967C18.1629 14.6864 17.8288 15.873 17.2932 16.8843L18.7808 18.3521C19.056 18.6236 19.059 19.0668 18.7875 19.342C18.5159 19.6172 18.0727 19.6202 17.7975 19.3487L16.5051 18.0734C15.384 19.4398 13.8034 20.2731 11.9996 20.2731C10.196 20.2731 8.61556 19.4399 7.49446 18.0738L6.2023 19.3487C5.9271 19.6202 5.4839 19.6172 5.21237 19.342C4.94085 19.0668 4.94383 18.6236 5.21903 18.3521L6.7063 16.8847C6.17057 15.8734 5.83642 14.6868 5.76058 13.3971H4.09258C3.70598 13.3971 3.39258 13.0837 3.39258 12.6971C3.39258 12.3105 3.70598 11.9971 4.09258 11.9971H5.7909C5.91117 10.9005 6.25276 9.80777 6.69538 8.85606L5.41067 7.77659C5.11468 7.52789 5.07635 7.08633 5.32505 6.79035C5.57375 6.49436 6.0153 6.45603 6.31129 6.70473L7.46326 7.67267C7.78851 7.35783 8.17873 7.12956 8.59579 6.98258C8.61788 6.34881 8.81495 5.59613 9.31479 4.97062C9.34041 4.93857 9.3667 4.90699 9.39368 4.87592L9.04504 4.43317C8.80586 4.12944 8.8582 3.68932 9.16194 3.45015C9.46567 3.21097 9.90578 3.26331 10.145 3.56705L10.5352 4.06265C10.9613 3.88821 11.4594 3.78966 12.0318 3.78966C12.6044 3.78966 13.0991 3.88948 13.5199 4.06587L14.0301 3.52125C14.2944 3.23911 14.7374 3.22464 15.0195 3.48894C15.3017 3.75324 15.3161 4.19622 15.0518 4.47836ZM13.608 5.8396C13.8148 6.11119 13.9317 6.44934 13.9798 6.77914L10.0181 6.77914C10.0669 6.45365 10.1909 6.11693 10.4085 5.84459C10.6847 5.49896 11.1635 5.18966 12.0318 5.18966C12.8946 5.18966 13.3488 5.49944 13.608 5.8396ZM11.9996 18.8731C9.42655 18.8731 7.14406 16.4845 7.14406 12.8317C7.14406 11.5656 7.56818 10.179 8.16335 9.0448C8.44475 8.50853 9.06534 8.17914 9.80156 8.17914L14.2716 8.17914C15.0098 8.17914 15.6248 8.50924 15.8943 9.04198C16.4646 10.1688 16.8552 11.5565 16.8552 12.8317C16.8552 16.4845 14.5727 18.8731 11.9996 18.8731Z" fill="#333333"/>
</svg>
