<svg width="24" height="24" viewBox="0 0 24 24" fill="none" xmlns="http://www.w3.org/2000/svg">
<path fill-rule="evenodd" clip-rule="evenodd" d="M8.24463 7.08574C8.24463 6.69914 8.55803 6.38574 8.94463 6.38574H18.6101C18.9967 6.38574 19.3101 6.69914 19.3101 7.08574C19.3101 7.47234 18.9967 7.78574 18.6101 7.78574H8.94463C8.55803 7.78574 8.24463 7.47234 8.24463 7.08574Z" fill="#333333"/>
<path fill-rule="evenodd" clip-rule="evenodd" d="M8.24455 16.751C8.24455 16.3644 8.55795 16.051 8.94455 16.051H18.6101C18.9967 16.051 19.3101 16.3644 19.3101 16.751C19.3101 17.1376 18.9967 17.451 18.6101 17.451H8.94455C8.55795 17.451 8.24455 17.1376 8.24455 16.751Z" fill="#333333"/>
<path fill-rule="evenodd" clip-rule="evenodd" d="M8.24463 11.9187C8.24463 11.5322 8.55803 11.2188 8.94463 11.2188H18.6101C18.9967 11.2188 19.3101 11.5322 19.3101 11.9187C19.3101 12.3053 18.9967 12.6188 18.6101 12.6188H8.94463C8.55803 12.6188 8.24463 12.3053 8.24463 11.9187Z" fill="#333333"/>
<path fill-rule="evenodd" clip-rule="evenodd" d="M5.72281 7.35605C5.81285 7.35605 5.88584 7.28306 5.88584 7.19303C5.88584 7.10299 5.81285 7.03 5.72281 7.03C5.63278 7.03 5.55979 7.10299 5.55979 7.19303C5.55979 7.28306 5.63278 7.35605 5.72281 7.35605ZM4.48584 7.19303C4.48584 6.50987 5.03965 5.95605 5.72281 5.95605C6.40597 5.95605 6.95979 6.50987 6.95979 7.19303C6.95979 7.87619 6.40597 8.43 5.72281 8.43C5.03965 8.43 4.48584 7.87619 4.48584 7.19303Z" fill="#333333"/>
<path fill-rule="evenodd" clip-rule="evenodd" d="M5.72281 12.0807C5.81285 12.0807 5.88584 12.0077 5.88584 11.9176C5.88584 11.8276 5.81285 11.7546 5.72281 11.7546C5.63278 11.7546 5.55979 11.8276 5.55979 11.9176C5.55979 12.0077 5.63278 12.0807 5.72281 12.0807ZM4.48584 11.9176C4.48584 11.2345 5.03965 10.6807 5.72281 10.6807C6.40597 10.6807 6.95979 11.2345 6.95979 11.9176C6.95979 12.6008 6.40597 13.1546 5.72281 13.1546C5.03965 13.1546 4.48584 12.6008 4.48584 11.9176Z" fill="#333333"/>
<path fill-rule="evenodd" clip-rule="evenodd" d="M5.72281 16.9139C5.81285 16.9139 5.88584 16.8409 5.88584 16.7508C5.88584 16.6608 5.81285 16.5878 5.72281 16.5878C5.63278 16.5878 5.55979 16.6608 5.55979 16.7508C5.55979 16.8409 5.63278 16.9139 5.72281 16.9139ZM4.48584 16.7508C4.48584 16.0677 5.03965 15.5139 5.72281 15.5139C6.40597 15.5139 6.95979 16.0677 6.95979 16.7508C6.95979 17.434 6.40597 17.9878 5.72281 17.9878C5.03965 17.9878 4.48584 17.434 4.48584 16.7508Z" fill="#333333"/>
</svg>
