<svg width="24" height="24" viewBox="0 0 24 24" fill="none" xmlns="http://www.w3.org/2000/svg">
<path d="M5.7334 15.1446H7.67773C8.06423 15.1446 8.37777 15.4583 8.37793 15.8447C8.37793 16.2313 8.06433 16.5449 7.67773 16.5449H7.13086C7.27141 16.6972 7.41746 16.8462 7.57227 16.9873L7.78906 17.1778C8.80372 18.0317 9.90616 18.5302 11.1172 18.6729C12.3342 18.8162 13.7079 18.6046 15.2637 17.9678C15.6212 17.8219 16.0293 17.9933 16.1758 18.3506C16.3222 18.7082 16.1513 19.117 15.7939 19.2637C14.0724 19.9684 12.4575 20.2397 10.9531 20.0625C9.44341 19.8846 8.08989 19.2599 6.8877 18.2481L6.62891 18.0225C6.43511 17.8458 6.25325 17.6581 6.07812 17.4668V18.1485L6.06348 18.2891C5.99824 18.6081 5.71618 18.8476 5.37793 18.8477C5.03964 18.8477 4.75764 18.6081 4.69238 18.2891L4.67773 18.1485V15.8447C4.6779 15.4583 4.99143 15.1446 5.37793 15.1446H5.6709C5.6918 15.1433 5.71256 15.1439 5.7334 15.1446Z" fill="#15C674"/>
<path d="M14.9512 5.27053C15.1329 4.92949 15.5563 4.79906 15.8975 4.98049L16.1797 5.14065C17.5744 5.97066 18.6776 7.2883 19.3584 8.7549C20.0838 10.3179 20.3573 12.1111 19.9404 13.7412L19.8496 14.0723C19.7608 14.3699 19.6536 14.6597 19.5352 14.9424L20.0625 14.7403L20.1992 14.7022C20.5202 14.6487 20.8463 14.827 20.9678 15.1426C21.0888 15.458 20.9662 15.808 20.6924 15.9834L20.5654 16.0469L18.415 16.874C18.0544 17.0128 17.6497 16.8332 17.5107 16.4727L16.6846 14.3252C16.5459 13.9645 16.7254 13.5598 17.0859 13.4209C17.4466 13.2821 17.8522 13.4617 17.9912 13.8223L18.2285 14.4404C18.3346 14.1913 18.4293 13.935 18.5078 13.6719L18.585 13.3946C18.9062 12.1384 18.7077 10.6781 18.0889 9.34475C17.4707 8.01289 16.459 6.86712 15.2383 6.21682L15.1221 6.13772C14.871 5.9302 14.7921 5.56918 14.9512 5.27053Z" fill="#15C674"/>
<path d="M12.0205 10.7715C12.6984 10.7715 13.2479 11.3212 13.248 11.999C13.248 12.677 12.6985 13.2266 12.0205 13.2266C11.3426 13.2266 10.793 12.677 10.793 11.999C10.7931 11.3212 11.3427 10.7715 12.0205 10.7715Z" fill="#15C674"/>
<path fill-rule="evenodd" clip-rule="evenodd" d="M15.0986 8.75002C15.7612 8.7501 16.2987 9.28767 16.2988 9.95022V14.0518C16.2988 14.7145 15.7613 15.2519 15.0986 15.252H8.94238C8.27964 15.252 7.74219 14.7145 7.74219 14.0518V9.95022C7.74235 9.28761 8.27974 8.75002 8.94238 8.75002H15.0986ZM9.14258 11.2539C9.5207 11.2923 9.81625 11.6118 9.81641 12C9.81641 12.3883 9.52076 12.7077 9.14258 12.7461V13.8516H14.8984V12.749C14.489 12.7435 14.1592 12.4108 14.1592 12C14.1593 11.5894 14.489 11.2555 14.8984 11.25V10.1504H9.14258V11.2539Z" fill="#15C674"/>
<path d="M9.99902 2.78518C10.2165 2.52605 10.5819 2.46414 10.8682 2.61916L10.9854 2.69826L12.751 4.17971C13.0258 4.41029 13.0751 4.80502 12.8828 5.09768C12.8331 5.2113 12.7544 5.30747 12.6562 5.3799L11.3584 6.92873C11.1099 7.22488 10.6682 7.26317 10.3721 7.01467C10.076 6.76616 10.0367 6.32447 10.2852 6.02834L10.6162 5.63283C10.494 5.65533 10.3717 5.68004 10.25 5.709L9.97168 5.78127C9.08811 6.02882 8.29371 6.47733 7.62207 7.07131C6.4776 8.11493 5.76224 9.61267 5.4668 11.333L5.38867 11.8779C5.38138 11.9396 5.36362 11.9976 5.3418 12.0528C5.33966 12.1242 5.3379 12.1958 5.33789 12.2676C5.33789 12.6541 5.0242 12.9677 4.6377 12.9678C4.2511 12.9678 3.9375 12.6542 3.9375 12.2676C3.93768 9.88833 4.93356 7.62355 6.6123 6.09475C7.41229 5.34528 8.39984 4.76686 9.58887 4.43361L9.92188 4.3467C10.1513 4.29212 10.3825 4.25029 10.6133 4.21486L10.085 3.7715L9.9873 3.66994C9.78491 3.41502 9.78186 3.04433 9.99902 2.78518Z" fill="#15C674"/>
</svg>
