<svg width="25" height="24" viewBox="0 0 25 24" fill="none" xmlns="http://www.w3.org/2000/svg">
<path d="M12.7 3.87891C12.3134 3.87891 12 4.19231 12 4.57891C12 4.96551 12.3134 5.27891 12.7 5.27891C16.4118 5.27891 19.4209 8.28796 19.4209 11.9998C19.4209 15.7116 16.4118 18.7207 12.7 18.7207C8.98815 18.7207 5.9791 15.7116 5.9791 11.9998C5.9791 11.6132 5.6657 11.2998 5.2791 11.2998C4.8925 11.2998 4.5791 11.6132 4.5791 11.9998C4.5791 16.4848 8.21496 20.1207 12.7 20.1207C17.185 20.1207 20.8209 16.4848 20.8209 11.9998C20.8209 7.51476 17.185 3.87891 12.7 3.87891Z" fill="#333333"/>
<path d="M13.315 8.00664C13.315 7.62004 13.0016 7.30664 12.615 7.30664C12.2284 7.30664 11.915 7.62004 11.915 8.00664V12.1101C11.915 12.2957 11.9888 12.4738 12.1201 12.605C12.2513 12.7363 12.4294 12.8101 12.615 12.8101L16.068 12.81C16.4546 12.81 16.768 12.4966 16.768 12.11C16.768 11.7234 16.4546 11.41 16.068 11.41L13.315 11.4101V8.00664Z" fill="#333333"/>
</svg>
