<svg width="24" height="24" viewBox="0 0 24 24" fill="none" xmlns="http://www.w3.org/2000/svg">
<path fill-rule="evenodd" clip-rule="evenodd" d="M5.77637 4.94141C4.6718 4.94141 3.77637 5.83684 3.77637 6.94141V8.56321C3.77637 9.66778 4.6718 10.5632 5.77637 10.5632H6.19001C6.12876 10.7551 6.0957 10.9596 6.0957 11.1719V12.7937C6.0957 13.8983 6.99113 14.7937 8.0957 14.7937H8.8497C8.78562 14.9895 8.75098 15.1987 8.75098 15.416V17.0378C8.75098 18.1424 9.64641 19.0378 10.751 19.0378H18.151C19.2555 19.0378 20.151 18.1424 20.151 17.0378V15.416C20.151 14.3114 19.2555 13.416 18.151 13.416H17.397C17.4611 13.2201 17.4957 13.011 17.4957 12.7937V11.1719C17.4957 10.0673 16.6003 9.17188 15.4957 9.17188H15.0821C15.1433 8.97995 15.1764 8.77544 15.1764 8.56321V6.94141C15.1764 5.83684 14.2809 4.94141 13.1764 4.94141H5.77637ZM5.17637 6.94141C5.17637 6.61004 5.445 6.34141 5.77637 6.34141H13.1764C13.5077 6.34141 13.7764 6.61004 13.7764 6.94141V8.56321C13.7764 8.89458 13.5077 9.16321 13.1764 9.16321H5.77637C5.445 9.16321 5.17637 8.89458 5.17637 8.56321V6.94141ZM8.0957 10.5719C7.76433 10.5719 7.4957 10.8405 7.4957 11.1719V12.7937C7.4957 13.1251 7.76433 13.3937 8.0957 13.3937H15.4957C15.8271 13.3937 16.0957 13.1251 16.0957 12.7937V11.1719C16.0957 10.8405 15.8271 10.5719 15.4957 10.5719H8.0957ZM10.151 15.416C10.151 15.0846 10.4196 14.816 10.751 14.816H18.151C18.4823 14.816 18.751 15.0846 18.751 15.416V17.0378C18.751 17.3692 18.4823 17.6378 18.151 17.6378H10.751C10.4196 17.6378 10.151 17.3692 10.151 17.0378V15.416Z" fill="#333333"/>
<path d="M16.3145 7.34844C16.3145 6.96184 16.6279 6.64844 17.0145 6.64844H17.9497C18.9991 6.64844 19.8497 7.4991 19.8497 8.54844L19.8497 10.5343C19.8497 10.9209 19.5363 11.2343 19.1497 11.2343C18.7631 11.2343 18.4497 10.9209 18.4497 10.5343L18.4497 8.54844C18.4497 8.27229 18.2259 8.04844 17.9497 8.04844H17.0145C16.6279 8.04844 16.3145 7.73504 16.3145 7.34844Z" fill="#333333"/>
<path d="M5.8011 16.3646H6.83906C7.22566 16.3646 7.53906 16.678 7.53906 17.0646C7.53906 17.4512 7.22566 17.7646 6.83906 17.7646H5.8011C4.75176 17.7646 3.9011 16.914 3.9011 15.8646L3.9011 13.8788C3.9011 13.4922 4.2145 13.1788 4.6011 13.1788C4.9877 13.1788 5.3011 13.4922 5.3011 13.8788V15.8646C5.3011 16.1408 5.52496 16.3646 5.8011 16.3646Z" fill="#333333"/>
</svg>
