<svg width="24" height="24" viewBox="0 0 24 24" fill="none" xmlns="http://www.w3.org/2000/svg">
<path d="M10.2857 6.0291C10.0372 6.32525 10.0758 6.76678 10.372 7.01528C10.6681 7.26378 11.1097 7.22515 11.3582 6.929L12.6546 5.384C12.75 5.31454 12.8274 5.22143 12.8779 5.1129C13.0803 4.81916 13.0297 4.41413 12.7509 4.18019L10.9856 2.69894C10.6895 2.45044 10.2479 2.48907 9.99943 2.78522C9.75093 3.08137 9.78956 3.5229 10.0857 3.7714L10.6114 4.21249C10.2693 4.26512 9.928 4.33858 9.58949 4.43342C8.4101 4.76385 7.42851 5.33482 6.6319 6.07533C4.94079 7.60457 3.9375 9.87904 3.9375 12.2681C3.9375 12.6547 4.2509 12.9681 4.6375 12.9681C5.0241 12.9681 5.3375 12.6547 5.3375 12.2681C5.3375 12.2 5.33846 12.1321 5.34038 12.0644C5.36452 12.0061 5.38114 11.9436 5.38889 11.878C5.61941 9.9255 6.36139 8.21526 7.63033 7.06277C8.30004 6.47279 9.09164 6.02795 9.97122 5.78152C10.1862 5.72129 10.4025 5.67135 10.6193 5.63149L10.2857 6.0291Z" fill="#333333"/>
<path d="M7.1276 16.5459C7.33275 16.7681 7.55326 16.9792 7.78849 17.1772C8.80332 18.0314 9.90585 18.5295 11.1171 18.6721C12.3342 18.8155 13.7069 18.6051 15.2627 17.9682C15.6205 17.8218 16.0293 17.9931 16.1757 18.3509C16.3222 18.7087 16.1509 19.1174 15.7931 19.2639C14.0715 19.9686 12.4578 20.2397 10.9534 20.0625C9.44327 19.8847 8.08939 19.2604 6.88693 18.2482C6.59849 18.0054 6.32858 17.7462 6.07801 17.4728V18.1493C6.07801 18.5359 5.76461 18.8493 5.37801 18.8493C4.99141 18.8493 4.67801 18.5359 4.67801 18.1493L4.67801 15.8459C4.67801 15.4593 4.99141 15.1459 5.37801 15.1459H5.63913C5.68812 15.1407 5.7373 15.1408 5.78582 15.1459H7.67793C8.06453 15.1459 8.37793 15.4593 8.37793 15.8459C8.37793 16.2325 8.06453 16.5459 7.67793 16.5459H7.1276Z" fill="#333333"/>
<path d="M9.52373 9.93984C9.13713 9.93984 8.82373 10.2532 8.82373 10.6398C8.82373 11.0264 9.13713 11.3398 9.52373 11.3398L14.5452 11.3398C14.9318 11.3398 15.2452 11.0264 15.2452 10.6398C15.2452 10.2532 14.9318 9.93984 14.5452 9.93984L9.52373 9.93984Z" fill="#333333"/>
<path d="M8.82373 13.6398C8.82373 13.2532 9.13713 12.9398 9.52373 12.9398L14.5452 12.9398C14.9318 12.9398 15.2452 13.2532 15.2452 13.6398C15.2452 14.0264 14.9318 14.3398 14.5452 14.3398L9.52373 14.3398C9.13713 14.3398 8.82373 14.0264 8.82373 13.6398Z" fill="#333333"/>
<path d="M18.2292 14.4426C18.3725 14.106 18.4917 13.7557 18.5841 13.3943C18.9055 12.1381 18.707 10.6783 18.0882 9.34496C17.47 8.01305 16.4596 6.86714 15.2388 6.21682C14.8976 6.03505 14.7684 5.6111 14.9501 5.26989C15.1319 4.92869 15.5559 4.79944 15.8971 4.98121C17.4259 5.79569 18.6319 7.19092 19.3581 8.75557C20.0836 10.3188 20.3575 12.111 19.9405 13.7413C19.8347 14.1546 19.6997 14.5556 19.538 14.942L20.0622 14.7402C20.423 14.6014 20.8281 14.7813 20.9669 15.1421C21.1058 15.5029 20.9258 15.9079 20.565 16.0468L18.415 16.8743C18.0542 17.0131 17.6491 16.8332 17.5103 16.4724L16.684 14.3256C16.5452 13.9648 16.7251 13.5597 17.0859 13.4208C17.4467 13.282 17.8518 13.4619 17.9906 13.8227L18.2292 14.4426Z" fill="#333333"/>
</svg>
