<svg width="24" height="24" viewBox="0 0 24 24" fill="none" xmlns="http://www.w3.org/2000/svg">
<path fill-rule="evenodd" clip-rule="evenodd" d="M11.654 9.32129C11.2122 9.32129 10.854 9.67946 10.854 10.1213V10.9674C10.854 11.4092 11.2122 11.7674 11.654 11.7674H12.4621C12.9039 11.7674 13.2621 11.4092 13.2621 10.9674V10.1213C13.2621 9.67946 12.9039 9.32129 12.4621 9.32129H11.654Z" fill="#333333"/>
<path fill-rule="evenodd" clip-rule="evenodd" d="M14.3706 10.1213C14.3706 9.67946 14.7288 9.32129 15.1706 9.32129H15.9787C16.4205 9.32129 16.7787 9.67946 16.7787 10.1213V10.9674C16.7787 11.4092 16.4205 11.7674 15.9787 11.7674H15.1706C14.7288 11.7674 14.3706 11.4092 14.3706 10.9674V10.1213Z" fill="#333333"/>
<path fill-rule="evenodd" clip-rule="evenodd" d="M7.97383 9.32129C7.532 9.32129 7.17383 9.67946 7.17383 10.1213V10.9674C7.17383 11.4092 7.532 11.7674 7.97383 11.7674H8.78193C9.22376 11.7674 9.58193 11.4092 9.58193 10.9674V10.1213C9.58193 9.67946 9.22376 9.32129 8.78193 9.32129H7.97383Z" fill="#333333"/>
<path fill-rule="evenodd" clip-rule="evenodd" d="M7.17383 13.9455C7.17383 13.5037 7.532 13.1455 7.97383 13.1455H8.78193C9.22376 13.1455 9.58193 13.5037 9.58193 13.9455V14.7916C9.58193 15.2334 9.22376 15.5916 8.78193 15.5916H7.97383C7.532 15.5916 7.17383 15.2334 7.17383 14.7916V13.9455Z" fill="#333333"/>
<path fill-rule="evenodd" clip-rule="evenodd" d="M8.55186 3.61914C9.04891 3.61914 9.45186 4.02208 9.45186 4.51914V4.91406H14.5317V4.51914C14.5317 4.02208 14.9347 3.61914 15.4317 3.61914C15.9288 3.61914 16.3317 4.02208 16.3317 4.51914V4.91406H17.31C18.8564 4.91406 20.11 6.16767 20.11 7.71406V16.2982C20.11 17.8446 18.8564 19.0982 17.31 19.0982H6.69355C5.14716 19.0982 3.89355 17.8446 3.89355 16.2982V7.71406C3.89355 6.16767 5.14716 4.91406 6.69355 4.91406H7.65186V4.51914C7.65186 4.02208 8.0548 3.61914 8.55186 3.61914ZM14.5317 6.31406V6.94883C14.5317 7.44588 14.9347 7.84883 15.4317 7.84883C15.9288 7.84883 16.3317 7.44588 16.3317 6.94883V6.31406H17.31C18.0832 6.31406 18.71 6.94086 18.71 7.71406V16.2982C18.71 17.0714 18.0832 17.6982 17.31 17.6982H6.69355C5.92036 17.6982 5.29355 17.0714 5.29355 16.2982V7.71406C5.29355 6.94086 5.92036 6.31406 6.69355 6.31406H7.65186V6.94883C7.65186 7.44588 8.0548 7.84883 8.55186 7.84883C9.04891 7.84883 9.45186 7.44588 9.45186 6.94883V6.31406H14.5317Z" fill="#333333"/>
</svg>
