<svg width="24" height="24" viewBox="0 0 24 24" fill="none" xmlns="http://www.w3.org/2000/svg">
<path d="M9.45186 4.51914C9.45186 4.02208 9.04891 3.61914 8.55186 3.61914C8.0548 3.61914 7.65186 4.02208 7.65186 4.51914V4.91406H6.69355C5.14716 4.91406 3.89355 6.16767 3.89355 7.71406V16.2982C3.89355 17.8446 5.14716 19.0982 6.69356 19.0982H11.1237C11.5103 19.0982 11.8237 18.7848 11.8237 18.3982C11.8237 18.0116 11.5103 17.6982 11.1237 17.6982H6.69356C5.92036 17.6982 5.29355 17.0714 5.29355 16.2982V7.71406C5.29355 6.94086 5.92036 6.31406 6.69355 6.31406H7.65186V6.94883C7.65186 7.44588 8.0548 7.84883 8.55186 7.84883C9.04891 7.84883 9.45186 7.44588 9.45186 6.94883V6.31406H14.5317V6.94883C14.5317 7.44588 14.9347 7.84883 15.4317 7.84883C15.9288 7.84883 16.3317 7.44588 16.3317 6.94883V6.31406H17.31C18.0832 6.31406 18.71 6.94086 18.71 7.71406V10.2727C18.71 10.6593 19.0234 10.9727 19.41 10.9727C19.7966 10.9727 20.11 10.6593 20.11 10.2727V7.71406C20.11 6.16767 18.8564 4.91406 17.31 4.91406H16.3317V4.51914C16.3317 4.02208 15.9288 3.61914 15.4317 3.61914C14.9347 3.61914 14.5317 4.02208 14.5317 4.51914V4.91406H9.45186V4.51914Z" fill="#333333"/>
<path d="M16.9163 13.6953C14.8729 13.6953 13.2163 15.3519 13.2163 17.3953V18.5335C13.2163 18.9201 13.5297 19.2335 13.9163 19.2335C14.3029 19.2335 14.6163 18.9201 14.6163 18.5335V17.3953C14.6163 16.1251 15.6461 15.0953 16.9163 15.0953H18.2264L17.4213 15.9003C17.148 16.1737 17.148 16.6169 17.4213 16.8903C17.6947 17.1637 18.1379 17.1637 18.4113 16.8903L20.4113 14.8903C20.6847 14.6169 20.6847 14.1737 20.4113 13.9003L18.4113 11.9003C18.1379 11.627 17.6947 11.627 17.4213 11.9003C17.148 12.1737 17.148 12.6169 17.4213 12.8903L18.2264 13.6953H16.9163Z" fill="#333333"/>
<path fill-rule="evenodd" clip-rule="evenodd" d="M10.854 10.1213C10.854 9.67946 11.2122 9.32129 11.654 9.32129H12.4621C12.9039 9.32129 13.2621 9.67946 13.2621 10.1213V10.9674C13.2621 11.4092 12.9039 11.7674 12.4621 11.7674H11.654C11.2122 11.7674 10.854 11.4092 10.854 10.9674V10.1213Z" fill="#333333"/>
<path fill-rule="evenodd" clip-rule="evenodd" d="M7.97383 9.32129C7.532 9.32129 7.17383 9.67946 7.17383 10.1213V10.9674C7.17383 11.4092 7.532 11.7674 7.97383 11.7674H8.78193C9.22376 11.7674 9.58193 11.4092 9.58193 10.9674V10.1213C9.58193 9.67946 9.22376 9.32129 8.78193 9.32129H7.97383Z" fill="#333333"/>
<path fill-rule="evenodd" clip-rule="evenodd" d="M7.17383 13.9455C7.17383 13.5037 7.532 13.1455 7.97383 13.1455H8.78193C9.22376 13.1455 9.58193 13.5037 9.58193 13.9455V14.7916C9.58193 15.2334 9.22376 15.5916 8.78193 15.5916H7.97383C7.532 15.5916 7.17383 15.2334 7.17383 14.7916V13.9455Z" fill="#333333"/>
</svg>
