<svg width="24" height="24" viewBox="0 0 24 24" fill="none" xmlns="http://www.w3.org/2000/svg">
<path d="M13.1999 10.0281C13.1999 9.77366 13.0618 9.53923 12.8392 9.41588C12.6167 9.29252 12.3447 9.29966 12.1289 9.43453L10.1289 10.6845C9.80106 10.8894 9.7014 11.3213 9.9063 11.6491C10.1112 11.977 10.5431 12.0766 10.8709 11.8717L11.7999 11.2911V15.0281C11.7999 15.4147 12.1133 15.7281 12.4999 15.7281C12.8865 15.7281 13.1999 15.4147 13.1999 15.0281V10.0281Z" fill="#333333"/>
<path fill-rule="evenodd" clip-rule="evenodd" d="M9.45186 4.51914C9.45186 4.02208 9.04891 3.61914 8.55186 3.61914C8.0548 3.61914 7.65186 4.02208 7.65186 4.51914V4.91406H6.69355C5.14716 4.91406 3.89355 6.16767 3.89355 7.71406V16.2982C3.89355 17.8446 5.14716 19.0982 6.69355 19.0982H17.31C18.8564 19.0982 20.11 17.8446 20.11 16.2982V7.71406C20.11 6.16767 18.8564 4.91406 17.31 4.91406H16.3317V4.51914C16.3317 4.02208 15.9288 3.61914 15.4317 3.61914C14.9347 3.61914 14.5317 4.02208 14.5317 4.51914V4.91406H9.45186V4.51914ZM14.5317 6.94883V6.31406H9.45186V6.94883C9.45186 7.44588 9.04891 7.84883 8.55186 7.84883C8.0548 7.84883 7.65186 7.44588 7.65186 6.94883V6.31406H6.69355C5.92036 6.31406 5.29355 6.94086 5.29355 7.71406V16.2982C5.29355 17.0714 5.92036 17.6982 6.69355 17.6982H17.31C18.0832 17.6982 18.71 17.0714 18.71 16.2982V7.71406C18.71 6.94086 18.0832 6.31406 17.31 6.31406H16.3317V6.94883C16.3317 7.44588 15.9288 7.84883 15.4317 7.84883C14.9347 7.84883 14.5317 7.44588 14.5317 6.94883Z" fill="#333333"/>
</svg>
