<svg width="24" height="24" viewBox="0 0 24 24" fill="none" xmlns="http://www.w3.org/2000/svg">
<path d="M16.4118 11.0878C16.6851 11.3612 16.6851 11.8044 16.4118 12.0778L13.443 15.0465C13.1817 15.3078 12.7624 15.321 12.4852 15.0767L12.1063 14.7427C11.8163 14.487 11.7884 14.0447 12.044 13.7547C12.2649 13.5042 12.625 13.4493 12.9059 13.6037L15.4218 11.0878C15.6952 10.8145 16.1384 10.8145 16.4118 11.0878Z" fill="#333333"/>
<path d="M14.8281 10.4948C15.1015 10.2214 15.1015 9.7782 14.8281 9.50483C14.5547 9.23146 14.1115 9.23146 13.8382 9.50483L9.97897 13.364L8.49478 11.8798C8.22141 11.6065 7.7782 11.6065 7.50483 11.8798C7.23146 12.1532 7.23146 12.5964 7.50483 12.8698L9.484 14.8489C9.75736 15.1223 10.2006 15.1223 10.4739 14.8489L14.8281 10.4948Z" fill="#333333"/>
<path fill-rule="evenodd" clip-rule="evenodd" d="M8.55186 3.61914C9.04891 3.61914 9.45186 4.02208 9.45186 4.51914V4.91406H14.5317V4.51914C14.5317 4.02208 14.9347 3.61914 15.4317 3.61914C15.9288 3.61914 16.3317 4.02208 16.3317 4.51914V4.91406H17.31C18.8564 4.91406 20.11 6.16767 20.11 7.71406V16.2982C20.11 17.8446 18.8564 19.0982 17.31 19.0982H6.69355C5.14716 19.0982 3.89355 17.8446 3.89355 16.2982V7.71406C3.89355 6.16767 5.14716 4.91406 6.69355 4.91406H7.65186V4.51914C7.65186 4.02208 8.0548 3.61914 8.55186 3.61914ZM14.5317 6.31406V6.94883C14.5317 7.44588 14.9347 7.84883 15.4317 7.84883C15.9288 7.84883 16.3317 7.44588 16.3317 6.94883V6.31406H17.31C18.0832 6.31406 18.71 6.94086 18.71 7.71406V16.2982C18.71 17.0714 18.0832 17.6982 17.31 17.6982H6.69355C5.92036 17.6982 5.29355 17.0714 5.29355 16.2982V7.71406C5.29355 6.94086 5.92036 6.31406 6.69355 6.31406H7.65186V6.94883C7.65186 7.44588 8.0548 7.84883 8.55186 7.84883C9.04891 7.84883 9.45186 7.44588 9.45186 6.94883V6.31406H14.5317Z" fill="#333333"/>
</svg>
