<svg width="24" height="24" viewBox="0 0 24 24" fill="none" xmlns="http://www.w3.org/2000/svg">
<path d="M7.18095 16.3676C7.17375 16.3604 7.16912 16.3509 7.1623 16.3434C4.90798 14.0425 3.80868 11.995 3.4569 10.2143C3.09318 8.37249 3.54109 6.88587 4.21787 5.81003L4.35666 5.6008C4.59158 5.26031 4.84646 4.96633 5.09968 4.71968L5.40144 4.44554C5.96117 3.9746 6.70203 4.00844 7.24033 4.33989L7.34461 4.40963C7.3805 4.4357 7.41291 4.46241 7.44059 4.48766L7.51102 4.55671C8.17243 5.25996 8.67409 5.82688 9.0668 6.26993C9.36748 6.60916 9.59166 6.86105 9.7739 7.05023L9.94378 7.2201C9.96626 7.24141 9.99546 7.27034 10.0273 7.30642L10.1275 7.43693C10.4003 7.86012 10.4591 8.4128 10.2089 8.89534L10.1537 8.99063C9.92191 9.36583 9.53199 9.88131 8.91557 10.3862L8.58549 10.6389L8.54959 10.6666C8.53629 10.758 8.53912 10.9029 8.59033 11.1106C8.65041 11.354 8.76336 11.6362 8.91971 11.9358C9.23405 12.538 9.68273 13.1338 10.0729 13.524L10.1799 13.631C10.5702 14.0212 11.1659 14.4699 11.7682 14.7842C12.0678 14.9406 12.3499 15.0535 12.5934 15.1136C12.8005 15.1647 12.9452 15.1682 13.0367 15.155C13.0445 15.1454 13.0541 15.1336 13.065 15.1184L13.2501 14.8726C13.312 14.7943 13.3742 14.7191 13.4365 14.6475L13.6105 14.4555C13.9006 14.149 14.1848 13.9138 14.4336 13.736L14.7126 13.5495C15.2516 13.2166 15.895 13.2946 16.3547 13.6379C16.3754 13.6534 16.3952 13.67 16.4141 13.6876L19.2294 16.3427C19.2528 16.365 19.2741 16.3893 19.2943 16.4146C19.7023 16.9263 19.8132 17.6956 19.3958 18.3004L19.3047 18.4192C19.0072 18.7726 18.6142 19.1413 18.1287 19.4653L17.9243 19.5952C16.8752 20.2332 15.4407 20.6462 13.6733 20.3202C11.8489 19.9837 9.73818 18.8711 7.36256 16.5437C7.35421 16.5361 7.34369 16.5303 7.33563 16.5223L7.18095 16.3676ZM8.48813 8.8691C8.70585 8.63498 8.85876 8.41958 8.96115 8.25383L8.9646 8.24624C8.9646 8.24624 8.96538 8.24289 8.96529 8.24002C8.96507 8.23523 8.96076 8.22719 8.95493 8.21447C8.69399 7.96397 8.3889 7.61876 8.01719 7.19939C7.62939 6.76188 7.14477 6.21595 6.50837 5.53865C6.46176 5.50792 6.41673 5.49347 6.38131 5.49308C6.34694 5.49277 6.32366 5.50272 6.30466 5.51863L6.07679 5.72441C5.95991 5.83831 5.84472 5.96875 5.72945 6.11041L8.48813 8.8691ZM17.8014 17.9517C17.9678 17.8059 18.1125 17.6589 18.2323 17.5167L18.2509 17.4828C18.2554 17.4696 18.2577 17.4539 18.2571 17.4352C18.2559 17.4001 18.2413 17.3572 18.2122 17.3129C16.8957 16.0658 16.0915 15.3089 15.5026 14.7566C15.4843 14.7452 15.4721 14.7392 15.4653 14.7386C15.4613 14.7384 15.457 14.7386 15.457 14.7386C15.457 14.7386 15.4539 14.7404 15.4501 14.7428L15.2485 14.8767C15.1581 14.9413 15.0611 15.019 14.9577 15.1081L17.8014 17.9517ZM8.25197 15.454C10.5381 17.7187 12.4409 18.6669 13.9282 18.9412C14.987 19.1365 15.869 18.9964 16.5757 18.7092L14.0221 16.1556C13.8917 16.2888 13.7083 16.4278 13.462 16.496L13.3094 16.5313C12.9527 16.5971 12.5874 16.5557 12.2584 16.4746C11.8749 16.3801 11.4853 16.2173 11.1198 16.0265C10.3915 15.6464 9.68031 15.1132 9.18902 14.6219L9.08199 14.5149C8.59067 14.0236 8.05685 13.3118 7.67675 12.5835C7.48608 12.218 7.32382 11.8288 7.22929 11.4455C7.13658 11.0694 7.09605 10.6458 7.20788 10.2419L7.25691 10.1003C7.30582 9.98489 7.37103 9.88708 7.43921 9.80339L5.00439 7.36857C4.74469 8.06763 4.63139 8.9241 4.83244 9.94219C5.11929 11.3947 6.05828 13.2399 8.25197 15.454Z" fill="#15C674"/>
<path d="M13.2907 3.77464L13.6491 3.88206C15.4111 4.42858 16.7173 5.13348 17.7243 6.15647C18.7941 7.24351 19.4664 8.63024 20.0397 10.3879C20.1595 10.7559 19.9585 11.1517 19.5905 11.2717C19.2225 11.3916 18.8268 11.1904 18.7067 10.8225C18.1622 9.15298 17.5741 8.00319 16.7243 7.13987C15.9842 6.38804 14.9996 5.80706 13.5514 5.32346L12.902 5.12229L12.7702 5.06956C12.4813 4.91824 12.3286 4.57966 12.4225 4.25413C12.5164 3.92862 12.826 3.72348 13.151 3.74925L13.2907 3.77464Z" fill="#15C674"/>
<path d="M13.2854 7.02633L13.638 7.13083C15.2326 7.65763 16.1776 8.77112 16.719 10.122L16.8284 10.415L16.8616 10.5537C16.9055 10.8767 16.7183 11.1965 16.3987 11.3086C16.079 11.4206 15.7331 11.2876 15.5657 11.0078L15.5052 10.8789L15.4202 10.6504C15.002 9.59968 14.3244 8.82987 13.1829 8.457L12.9319 8.38375L12.7981 8.33395C12.5058 8.18999 12.3447 7.85585 12.43 7.52829C12.5156 7.2004 12.8201 6.98725 13.1458 7.00485L13.2854 7.02633Z" fill="#15C674"/>
</svg>
