<svg width="24" height="24" viewBox="0 0 24 24" fill="none" xmlns="http://www.w3.org/2000/svg">
<path fill-rule="evenodd" clip-rule="evenodd" d="M4.56397 4.74639L4.32339 4.50581C4.05003 4.23244 3.60681 4.23244 3.33344 4.50581C3.06008 4.77917 3.06008 5.22239 3.33344 5.49576L4.49054 6.65285C4.158 7.00999 3.95457 7.48895 3.95457 8.01543V15.986C3.95457 17.0906 4.85 17.986 5.95457 17.986H14.2557C14.6978 17.986 15.1064 17.8426 15.4374 17.5997L17.3334 19.4958C17.6068 19.7691 18.05 19.7691 18.3234 19.4958C18.5776 19.2416 18.5954 18.8405 18.3769 18.5657L4.61324 4.80208C4.59547 4.78431 4.57905 4.7657 4.56397 4.74639ZM5.48261 7.64492C5.40241 7.74694 5.35457 7.8756 5.35457 8.01543V15.986C5.35457 16.3174 5.6232 16.586 5.95457 16.586H14.2557C14.3073 16.586 14.3573 16.5795 14.405 16.5673L5.48261 7.64492Z" fill="#333333"/>
<path fill-rule="evenodd" clip-rule="evenodd" d="M16.3763 14.8681L18.3333 16.2511C19.5917 17.1405 21.3298 16.2406 21.3298 14.6995V9.29813C21.3298 7.75946 19.5965 6.85893 18.3375 7.74351L16.2557 9.20623V8.01543C16.2557 6.91086 15.3603 6.01543 14.2557 6.01543H7.52364L8.92365 7.41543H14.2557C14.5871 7.41543 14.8557 7.68406 14.8557 8.01543V13.3475L16.3763 14.8681ZM16.2627 10.9123L16.2627 13.0735L19.1413 15.1078C19.4725 15.3419 19.9298 15.1051 19.9298 14.6995V9.29813C19.9298 8.89322 19.4737 8.65624 19.1424 8.88902L16.2627 10.9123Z" fill="#333333"/>
</svg>
