<svg width="24" height="24" viewBox="0 0 24 24" fill="none" xmlns="http://www.w3.org/2000/svg">
<path fill-rule="evenodd" clip-rule="evenodd" d="M15.5708 12.4802C15.5708 14.4525 13.972 16.0513 11.9998 16.0513C10.0275 16.0513 8.42871 14.4525 8.42871 12.4802C8.42871 10.508 10.0275 8.90918 11.9998 8.90918C13.972 8.90918 15.5708 10.508 15.5708 12.4802ZM14.1708 12.4802C14.1708 13.6793 13.1988 14.6513 11.9998 14.6513C10.8007 14.6513 9.82871 13.6793 9.82871 12.4802C9.82871 11.2812 10.8007 10.3092 11.9998 10.3092C13.1988 10.3092 14.1708 11.2812 14.1708 12.4802Z" fill="#333333"/>
<path fill-rule="evenodd" clip-rule="evenodd" d="M18.0001 6.91393H16.1245L15.0505 5.36128C14.677 4.82122 14.0621 4.49894 13.4054 4.49902L10.5023 4.49939C9.83411 4.49947 9.21007 4.83326 8.8391 5.38904L7.82126 6.91393H6C4.89543 6.91393 4 7.80936 4 8.91393V16.5124C4 17.617 4.89543 18.5124 6 18.5124H18.0001C19.1047 18.5124 20.0001 17.617 20.0001 16.5124V8.91393C20.0001 7.80936 19.1047 6.91393 18.0001 6.91393ZM7.82126 8.31393C8.28907 8.31393 8.72597 8.08027 8.98568 7.69117L10.0035 6.16628C10.1148 5.99955 10.302 5.89941 10.5025 5.89939L13.4056 5.89902C13.6026 5.899 13.787 5.99568 13.8991 6.1577L14.9731 7.71035C15.2345 8.08834 15.6649 8.31393 16.1245 8.31393H18.0001C18.3315 8.31393 18.6001 8.58256 18.6001 8.91393V16.5124C18.6001 16.8438 18.3315 17.1124 18.0001 17.1124H6C5.66863 17.1124 5.4 16.8438 5.4 16.5124V8.91393C5.4 8.58256 5.66863 8.31393 6 8.31393H7.82126Z" fill="#333333"/>
</svg>
