<svg width="24" height="24" viewBox="0 0 24 24" fill="none" xmlns="http://www.w3.org/2000/svg">
<path d="M7.0625 11.5975C7.0625 11.2109 7.3759 10.8975 7.7625 10.8975H16.0188C16.4054 10.8975 16.7188 11.2109 16.7188 11.5975C16.7188 11.9841 16.4054 12.2975 16.0188 12.2975H7.7625C7.3759 12.2975 7.0625 11.9841 7.0625 11.5975Z" fill="#333333"/>
<path d="M11.0525 9.53867H16.0187C16.4053 9.53867 16.7187 9.22527 16.7187 8.83867C16.7187 8.45207 16.4053 8.13867 16.0187 8.13867H11.0525C10.6659 8.13867 10.3525 8.45207 10.3525 8.83867C10.3525 9.22527 10.6659 9.53867 11.0525 9.53867Z" fill="#333333"/>
<path d="M6.91016 8.83867C6.91016 8.45207 7.22356 8.13867 7.61016 8.13867L8.69023 8.13867C9.07683 8.13867 9.39023 8.45207 9.39023 8.83867C9.39023 9.22527 9.07683 9.53867 8.69023 9.53867H7.61016C7.22356 9.53867 6.91016 9.22527 6.91016 8.83867Z" fill="#333333"/>
<path d="M7.7625 13.6816C7.3759 13.6816 7.0625 13.995 7.0625 14.3816C7.0625 14.7682 7.3759 15.0816 7.7625 15.0816H11.9387C12.3253 15.0816 12.6387 14.7682 12.6387 14.3816C12.6387 13.995 12.3253 13.6816 11.9387 13.6816H7.7625Z" fill="#333333"/>
<path fill-rule="evenodd" clip-rule="evenodd" d="M3.89355 7.71406C3.89355 6.16767 5.14716 4.91406 6.69355 4.91406H17.31C18.8564 4.91406 20.11 6.16767 20.11 7.71406V16.2982C20.11 17.8446 18.8564 19.0982 17.31 19.0982H6.69355C5.14716 19.0982 3.89355 17.8446 3.89355 16.2982V7.71406ZM6.69355 6.31406C5.92036 6.31406 5.29355 6.94086 5.29355 7.71406V16.2982C5.29355 17.0714 5.92036 17.6982 6.69355 17.6982H17.31C18.0832 17.6982 18.71 17.0714 18.71 16.2982V7.71406C18.71 6.94086 18.0832 6.31406 17.31 6.31406H6.69355Z" fill="#333333"/>
</svg>
