<svg width="24" height="24" viewBox="0 0 24 24" fill="none" xmlns="http://www.w3.org/2000/svg">
<path d="M9.16484 8.00098C8.77824 8.00098 8.46484 8.31438 8.46484 8.70098C8.46484 9.08758 8.77824 9.40098 9.16484 9.40098L14.5791 9.40098C14.9657 9.40098 15.2791 9.08758 15.2791 8.70098C15.2791 8.31438 14.9657 8.00098 14.5791 8.00098L9.16484 8.00098Z" fill="#333333"/>
<path d="M9.16484 10.1494C8.77824 10.1494 8.46484 10.4628 8.46484 10.8494C8.46484 11.236 8.77824 11.5494 9.16484 11.5494L14.5791 11.5494C14.9657 11.5494 15.2791 11.236 15.2791 10.8494C15.2791 10.4628 14.9657 10.1494 14.5791 10.1494L9.16484 10.1494Z" fill="#333333"/>
<path d="M13.4495 16.4199C13.4495 17.2483 12.8004 17.9199 11.9997 17.9199C11.1989 17.9199 10.5498 17.2483 10.5498 16.4199C10.5498 15.5915 11.1989 14.9199 11.9997 14.9199C12.8004 14.9199 13.4495 15.5915 13.4495 16.4199Z" fill="#333333"/>
<path fill-rule="evenodd" clip-rule="evenodd" d="M8.01562 4.95293C8.01562 4.42826 8.44095 4.00293 8.96562 4.00293H10.9144C11.439 4.00293 11.8644 4.42826 11.8644 4.95293V5.25586H15.3883C16.6318 5.25586 17.7144 6.10514 18.0106 7.31285L19.396 12.9629H20.0002C20.5525 12.9629 21.0002 13.4106 21.0002 13.9629V17.2629C21.0002 18.7541 19.7914 19.9629 18.3002 19.9629H5.69951C4.20834 19.9629 2.99951 18.7541 2.99951 17.2629V13.9629C2.99951 13.4106 3.44723 12.9629 3.99951 12.9629H4.5997L5.96878 7.31933C6.21602 6.30014 7.02326 5.53477 8.01562 5.31799V4.95293ZM15.3883 6.65586H8.59267C7.99276 6.65586 7.47075 7.06637 7.32932 7.64938L6.04732 12.934H17.9474L16.6509 7.64626C16.5083 7.06477 15.987 6.65586 15.3883 6.65586ZM4.39951 14.3629V17.2629C4.39951 17.9809 4.98154 18.5629 5.69951 18.5629H18.3002C19.0182 18.5629 19.6002 17.9809 19.6002 17.2629V14.3629H4.39951Z" fill="#333333"/>
</svg>
