<svg width="24" height="24" viewBox="0 0 24 24" fill="none" xmlns="http://www.w3.org/2000/svg">
<path fill-rule="evenodd" clip-rule="evenodd" d="M5.75518 3.89258C4.81629 3.89258 4.05518 4.65369 4.05518 5.59258V9.52933C4.05518 10.4682 4.81629 11.2293 5.75518 11.2293H9.69205C10.6309 11.2293 11.3921 10.4682 11.3921 9.52933V5.59258C11.3921 4.65369 10.6309 3.89258 9.69205 3.89258H5.75518ZM5.45518 5.59258C5.45518 5.42689 5.58949 5.29258 5.75518 5.29258H9.69205C9.85774 5.29258 9.99205 5.42689 9.99205 5.59258V9.52933C9.99205 9.69501 9.85774 9.82933 9.69205 9.82933H5.75518C5.58949 9.82933 5.45518 9.69501 5.45518 9.52933V5.59258Z" fill="#333333"/>
<path fill-rule="evenodd" clip-rule="evenodd" d="M14.4607 12.5996C13.5219 12.5996 12.7607 13.3607 12.7607 14.2996V18.2384C12.7607 19.1773 13.5219 19.9384 14.4607 19.9384H18.3996C19.3384 19.9384 20.0996 19.1773 20.0996 18.2384V14.2996C20.0996 13.3607 19.3384 12.5996 18.3996 12.5996H14.4607ZM14.1607 14.2996C14.1607 14.1339 14.2951 13.9996 14.4607 13.9996H18.3996C18.5652 13.9996 18.6996 14.1339 18.6996 14.2996V18.2384C18.6996 18.4041 18.5652 18.5384 18.3996 18.5384H14.4607C14.2951 18.5384 14.1607 18.4041 14.1607 18.2384V14.2996Z" fill="#333333"/>
<path d="M16.7744 7.25176C16.7744 6.53379 16.1924 5.95176 15.4744 5.95176H13.3345C12.9479 5.95176 12.6345 5.63836 12.6345 5.25176C12.6345 4.86516 12.9479 4.55176 13.3345 4.55176L15.4744 4.55176C16.9656 4.55176 18.1744 5.76059 18.1744 7.25176V8.9335L18.9216 8.23612C19.2042 7.97233 19.6472 7.9876 19.911 8.27022C20.1747 8.55285 20.1595 8.9958 19.8768 9.25959L17.9684 11.0408C17.6994 11.2919 17.2821 11.2919 17.0131 11.0408L15.1047 9.25959C14.8221 8.9958 14.8068 8.55285 15.0706 8.27022C15.3344 7.9876 15.7773 7.97233 16.0599 8.23612L16.7744 8.90297V7.25176Z" fill="#333333"/>
<path d="M7.42197 16.5652C7.42197 17.2832 8.004 17.8652 8.72197 17.8652H10.8619C11.2485 17.8652 11.5619 18.1786 11.5619 18.5652C11.5619 18.9518 11.2485 19.2652 10.8619 19.2652H8.72197C7.2308 19.2652 6.02197 18.0564 6.02197 16.5652L6.02197 14.8975L5.29188 15.5789C5.00926 15.8427 4.56631 15.8274 4.30252 15.5448C4.03874 15.2622 4.05401 14.8192 4.33663 14.5555L6.24508 12.7742C6.51403 12.5232 6.93139 12.5232 7.20034 12.7742L9.10879 14.5555C9.39142 14.8192 9.40669 15.2622 9.1429 15.5448C8.87912 15.8274 8.43616 15.8427 8.15354 15.5789L7.42197 14.8961L7.42197 16.5652Z" fill="#333333"/>
</svg>
