<svg width="24" height="24" viewBox="0 0 24 24" fill="none" xmlns="http://www.w3.org/2000/svg">
<path fill-rule="evenodd" clip-rule="evenodd" d="M4.07979 14.4809C4.36638 14.2214 4.80905 14.2434 5.06852 14.53L7.89961 17.6569L10.7307 14.53C10.9902 14.2434 11.4329 14.2214 11.7194 14.4809C12.006 14.7404 12.028 15.183 11.7685 15.4696L8.41852 19.1696C8.28582 19.3162 8.09733 19.3998 7.89961 19.3998C7.7019 19.3998 7.51341 19.3162 7.38071 19.1696L4.03071 15.4696C3.77123 15.183 3.79321 14.7404 4.07979 14.4809Z" fill="#333333"/>
<path fill-rule="evenodd" clip-rule="evenodd" d="M7.89962 4.2998C8.28622 4.2998 8.59962 4.61321 8.59962 4.9998V18.4998C8.59962 18.8864 8.28622 19.1998 7.89962 19.1998C7.51302 19.1998 7.19962 18.8864 7.19962 18.4998V4.9998C7.19962 4.61321 7.51302 4.2998 7.89962 4.2998Z" fill="#333333"/>
<path fill-rule="evenodd" clip-rule="evenodd" d="M16.0996 4.59979C16.2973 4.59979 16.4858 4.6834 16.6185 4.82997L19.9685 8.52997C20.228 8.81656 20.206 9.25923 19.9195 9.5187C19.6329 9.77818 19.1902 9.7562 18.9307 9.46962L16.0996 6.34274L13.2685 9.46962C13.0091 9.7562 12.5664 9.77818 12.2798 9.5187C11.9932 9.25923 11.9712 8.81656 12.2307 8.52997L15.5807 4.82997C15.7134 4.6834 15.9019 4.59979 16.0996 4.59979Z" fill="#333333"/>
<path fill-rule="evenodd" clip-rule="evenodd" d="M16.0996 4.7998C16.4862 4.7998 16.7996 5.11321 16.7996 5.4998V18.9998C16.7996 19.3864 16.4862 19.6998 16.0996 19.6998C15.713 19.6998 15.3996 19.3864 15.3996 18.9998V5.4998C15.3996 5.11321 15.713 4.7998 16.0996 4.7998Z" fill="#333333"/>
</svg>
