<svg width="24" height="24" viewBox="0 0 24 24" fill="none" xmlns="http://www.w3.org/2000/svg">
<path fill-rule="evenodd" clip-rule="evenodd" d="M5.55873 5.07324C4.04107 5.07324 3.0409 6.65426 3.69102 8.02563L3.71117 8.06813C4.05324 8.7897 4.78035 9.24967 5.57889 9.24967H18.4214C19.22 9.24967 19.9471 8.78969 20.2891 8.06812L20.3093 8.02562C20.9594 6.65425 19.9592 5.07324 18.4416 5.07324H5.55873ZM4.95606 7.42591C4.74628 6.9834 5.06902 6.47324 5.55873 6.47324H18.4416C18.9313 6.47324 19.254 6.9834 19.0442 7.42591L19.0241 7.46841C18.9137 7.70125 18.6791 7.84967 18.4214 7.84967H5.57889C5.32121 7.84967 5.08659 7.70125 4.97621 7.46842L4.95606 7.42591Z" fill="#333333"/>
<path d="M17.9738 12.0877C18.2565 11.8239 18.6994 11.8392 18.9632 12.1218L20.4686 13.7347C20.7196 14.0037 20.7196 14.421 20.4686 14.69L18.9632 16.3029C18.6994 16.5855 18.2565 16.6008 17.9738 16.337C17.6912 16.0732 17.6759 15.6302 17.9397 15.3476L18.3457 14.9127H17.2259C16.5079 14.9127 15.9259 15.4947 15.9259 16.2127V17.9762C15.9259 18.3628 15.6125 18.6762 15.2259 18.6762C14.8393 18.6762 14.5259 18.3628 14.5259 17.9762V16.2127C14.5259 14.7215 15.7347 13.5127 17.2259 13.5127H18.3463L17.9397 13.077C17.6759 12.7944 17.6912 12.3515 17.9738 12.0877Z" fill="#333333"/>
<path d="M7.18523 11.898C6.69424 11.898 6.37155 12.4106 6.58382 12.8533L6.60556 12.8987C6.7165 13.1301 6.95035 13.2773 7.20697 13.2773H12.5929C12.9795 13.2773 13.2929 13.5907 13.2929 13.9773C13.2929 14.3639 12.9795 14.6773 12.5929 14.6773H7.20697C6.4117 14.6773 5.68696 14.2211 5.34315 13.5039L5.32141 13.4586C4.66359 12.0865 5.66363 10.498 7.18523 10.498H14.445C14.8316 10.498 15.145 10.8114 15.145 11.198C15.145 11.5846 14.8316 11.898 14.445 11.898H7.18523Z" fill="#333333"/>
<path d="M9.92683 17.2107L11.5709 17.2105C11.9575 17.2105 12.2709 16.8971 12.2708 16.5105C12.2708 16.1239 11.9574 15.8105 11.5708 15.8105L9.92674 15.8107C8.41183 15.8108 7.41169 17.3866 8.0565 18.7574L8.06994 18.786C8.41082 19.5107 9.13966 19.9732 9.94052 19.9732L11.5709 19.973C11.9575 19.9729 12.2709 19.6595 12.2708 19.2729C12.2708 18.8863 11.9574 18.5729 11.5708 18.573L9.94038 18.5732C9.68196 18.5732 9.44678 18.4239 9.33678 18.1901L9.32335 18.1615C9.11528 17.7192 9.438 17.2107 9.92683 17.2107Z" fill="#333333"/>
</svg>
