<svg width="24" height="24" viewBox="0 0 24 24" fill="none" xmlns="http://www.w3.org/2000/svg">
<path d="M13.5638 8.30028C13.8392 8.029 13.8426 7.5858 13.5713 7.31036C13.3 7.03493 12.8568 7.03156 12.5814 7.30284L9.84744 9.99552L8.53945 8.82462C8.25141 8.56676 7.80887 8.59124 7.55101 8.87928C7.29316 9.16732 7.31763 9.60986 7.60568 9.86772L9.40343 11.4771C9.67875 11.7235 10.0982 11.7135 10.3615 11.4542L13.5638 8.30028Z" fill="#333333"/>
<path fill-rule="evenodd" clip-rule="evenodd" d="M4 7C4 5.34315 5.34315 4 7 4H13.894C15.5509 4 16.894 5.34315 16.894 7V9.02441H17.1865C18.7329 9.02441 19.9865 10.278 19.9865 11.8244V14.4413C19.9865 15.9877 18.7329 17.2413 17.1865 17.2413H15.6501L13.7644 19.1278C12.8952 19.9975 11.4084 19.3818 11.4084 18.1522V16.721C11.0787 16.4853 10.8022 16.18 10.6006 15.8264H12.5645L12.8084 16.0007V18.1039L15.07 15.8413H17.1865C17.9597 15.8413 18.5865 15.2145 18.5865 14.4413V11.8244C18.5865 11.0512 17.9597 10.4244 17.1865 10.4244H16.894V11.7664C16.894 13.4232 15.5509 14.7664 13.894 14.7664H10.1567C10.1186 14.8159 10.0765 14.8639 10.0302 14.9103L7.91076 17.0297C7.03429 17.9061 5.53564 17.2854 5.53564 16.0459V14.3853C4.61932 13.8719 4 12.8914 4 11.7664V7ZM6.93564 13.565V16.0249L9.04021 13.9203C9.04429 13.9162 9.04728 13.9125 9.04728 13.9125L9.4676 13.3664H13.894C14.7777 13.3664 15.494 12.65 15.494 11.7664V7C15.494 6.11634 14.7777 5.4 13.894 5.4H7C6.11634 5.4 5.4 6.11634 5.4 7V11.7664C5.4 12.3646 5.72767 12.8881 6.22 13.164L6.93564 13.565Z" fill="#333333"/>
</svg>
