<svg width="24" height="24" viewBox="0 0 24 24" fill="none" xmlns="http://www.w3.org/2000/svg">
<path fill-rule="evenodd" clip-rule="evenodd" d="M7.48691 17.0532V19.7069L10.3763 16.8175H17.0001C17.8837 16.8175 18.6001 16.1011 18.6001 15.2175V8C18.6001 7.11634 17.8838 6.4 17.0001 6.4H7C6.11634 6.4 5.4 7.11634 5.4 8V15.2175C5.4 15.9292 5.8657 16.5358 6.51258 16.7423L7.48691 17.0532ZM4 8C4 6.34315 5.34315 5 7 5H17.0001C18.6569 5 20.0001 6.34315 20.0001 8V15.2175C20.0001 16.8743 18.6569 18.2175 17.0001 18.2175H10.9562L8.46203 20.7117C7.58556 21.5881 6.08691 20.9674 6.08691 19.7279V18.076C4.87654 17.6897 4 16.5559 4 15.2175V8Z" fill="#333333"/>
<path fill-rule="evenodd" clip-rule="evenodd" d="M12.3195 14.0098C12.3195 13.6232 12.6329 13.3098 13.0195 13.3098H16.5195C16.9061 13.3098 17.2195 13.6232 17.2195 14.0098C17.2195 14.3964 16.9061 14.7098 16.5195 14.7098H13.0195C12.6329 14.7098 12.3195 14.3964 12.3195 14.0098Z" fill="#333333"/>
<path fill-rule="evenodd" clip-rule="evenodd" d="M10.812 12.5629C11.0869 12.8347 11.0893 13.2779 10.8175 13.5528L9.13395 15.2549C8.88274 15.5088 8.48059 15.5329 8.20087 15.3107L7.12954 14.4597C6.82683 14.2192 6.77637 13.7789 7.01683 13.4762C7.2573 13.1735 7.69763 13.123 8.00034 13.3635L8.58009 13.824L9.82212 12.5683C10.094 12.2934 10.5372 12.291 10.812 12.5629Z" fill="#333333"/>
<path fill-rule="evenodd" clip-rule="evenodd" d="M12.3195 9.50977C12.3195 9.12317 12.6329 8.80977 13.0195 8.80977L16.5195 8.80977C16.9061 8.80977 17.2195 9.12317 17.2195 9.50977C17.2195 9.89636 16.9061 10.2098 16.5195 10.2098L13.0195 10.2098C12.6329 10.2098 12.3195 9.89637 12.3195 9.50977Z" fill="#333333"/>
<path fill-rule="evenodd" clip-rule="evenodd" d="M10.812 8.06287C11.0869 8.33473 11.0893 8.77794 10.8175 9.0528L9.13395 10.7549C8.88274 11.0088 8.48059 11.0329 8.20087 10.8107L7.12954 9.95969C6.82683 9.71922 6.77637 9.27889 7.01683 8.97618C7.2573 8.67346 7.69763 8.623 8.00034 8.86347L8.58009 9.324L9.82212 8.06829C10.094 7.79343 10.5372 7.791 10.812 8.06287Z" fill="#333333"/>
</svg>
