<svg width="24" height="24" viewBox="0 0 24 24" fill="none" xmlns="http://www.w3.org/2000/svg">
<path fill-rule="evenodd" clip-rule="evenodd" d="M6.67051 13.5546V15.5498L7.85742 14.3629V15.0952C7.85742 15.4542 7.95204 15.7912 8.11772 16.0825L7.64563 16.5546C6.76915 17.431 5.27051 16.8103 5.27051 15.5708V14.3608C4.37569 13.8416 3.77393 12.8732 3.77393 11.7642V7.86328C3.77393 6.20643 5.11707 4.86328 6.77393 4.86328H13.4751C15.132 4.86328 16.4751 6.20643 16.4751 7.86328V8.66406H17.4261C18.9725 8.66406 20.2261 9.91767 20.2261 11.4641V15.1486C20.2261 16.1538 19.6963 17.0354 18.9008 17.5292V18.2849C18.9008 19.5244 17.4021 20.1452 16.5256 19.2687L15.2055 17.9486H11.7869C10.2405 17.9486 8.98692 16.695 8.98692 15.1486V11.4641C8.98692 9.91767 10.2405 8.66406 11.7869 8.66406H15.0751V7.86328C15.0751 6.97963 14.3588 6.26328 13.4751 6.26328H6.77393C5.89027 6.26328 5.17393 6.97963 5.17393 7.86328V11.7642C5.17393 12.3539 5.49223 12.8709 5.97312 13.1499L6.67051 13.5546ZM17.5008 18.2639V16.7505L18.1624 16.3398C18.5638 16.0906 18.8261 15.6496 18.8261 15.1486V11.4641C18.8261 10.6909 18.1993 10.0641 17.4261 10.0641H11.7869C11.0137 10.0641 10.3869 10.6909 10.3869 11.4641V15.1486C10.3869 15.9218 11.0137 16.5486 11.7869 16.5486H15.7854L17.5008 18.2639Z" fill="#333333"/>
</svg>
