<svg width="24" height="24" viewBox="0 0 24 24" fill="none" xmlns="http://www.w3.org/2000/svg">
<path fill-rule="evenodd" clip-rule="evenodd" d="M16.8939 9.0242H17.1867C18.7331 9.0242 19.9867 10.2778 19.9867 11.8242V14.4411C19.9867 15.9875 18.7331 17.2411 17.1867 17.2411H15.6502L13.7646 19.1276C12.8953 19.9973 11.4085 19.3816 11.4085 18.152V16.7208C11.1698 16.5502 10.959 16.343 10.7843 16.1075C10.695 15.9871 10.787 15.8262 10.9368 15.8262H12.3256C12.4234 15.8262 12.519 15.8559 12.5996 15.9114L-nan -nanL12.5996 15.9114C12.7304 16.0016 12.8085 16.1503 12.8085 16.3091V18.1037L15.0701 15.8411H17.1867C17.9599 15.8411 18.5867 15.2143 18.5867 14.4411V11.8242C18.5867 11.051 17.9599 10.4242 17.1867 10.4242H16.8939V9.0242Z" fill="#333333"/>
<path fill-rule="evenodd" clip-rule="evenodd" d="M6.93564 13.565V16.0249L9.04021 13.9203C9.04429 13.9162 9.04645 13.9136 9.04728 13.9125L9.4676 13.3664H13.894C14.7777 13.3664 15.494 12.65 15.494 11.7664V7C15.494 6.11634 14.7777 5.4 13.894 5.4H7C6.11634 5.4 5.4 6.11634 5.4 7V11.7664C5.4 12.3646 5.72767 12.8881 6.22 13.164L6.93564 13.565ZM4 7C4 5.34315 5.34315 4 7 4H13.894C15.5509 4 16.894 5.34315 16.894 7V11.7664C16.894 13.4232 15.5509 14.7664 13.894 14.7664H10.1567C10.1186 14.8159 10.0765 14.8639 10.0302 14.9103L7.91076 17.0297C7.03429 17.9061 5.53564 17.2854 5.53564 16.0459V14.3853C4.61932 13.8719 4 12.8914 4 11.7664V7Z" fill="#333333"/>
<path fill-rule="evenodd" clip-rule="evenodd" d="M13.5713 7.31056C13.8426 7.586 13.8392 8.0292 13.5638 8.30048L10.3615 11.4544C10.0983 11.7137 9.67878 11.7237 9.40345 11.4772L7.6057 9.86791C7.31766 9.61006 7.29319 9.16752 7.55104 8.87948C7.8089 8.59143 8.25144 8.56696 8.53948 8.82481L9.84747 9.99572L12.5814 7.30304C12.8568 7.03175 13.3 7.03512 13.5713 7.31056Z" fill="#333333"/>
</svg>
