<svg width="24" height="24" viewBox="0 0 24 24" fill="none" xmlns="http://www.w3.org/2000/svg">
<path d="M11.7407 3.98813C11.5605 4.43715 11.4385 4.91626 11.3862 5.41587C8.63117 5.70873 6.52492 7.94903 6.5249 10.6219C6.525 12.3747 7.4183 14.2151 8.57959 15.8475C9.72931 17.4635 11.0753 18.7854 11.8423 19.4833C11.9268 19.56 12.0447 19.5599 12.1313 19.4774C12.8962 18.748 14.2507 17.367 15.4087 15.7274C16.4272 14.2851 17.2315 12.7249 17.4272 11.2762C17.933 11.2079 18.4161 11.0695 18.8667 10.87C18.7833 12.8635 17.7195 14.8821 16.5522 16.535C15.3204 18.2792 13.8939 19.7313 13.0972 20.4911C12.4828 21.0766 11.5329 21.093 10.9009 20.5184C10.0965 19.7866 8.66974 18.389 7.43896 16.659C6.21976 14.9453 5.12461 12.8113 5.12451 10.6219C5.12453 7.0146 8.08761 4.11955 11.7407 3.98813Z" fill="#15C674"/>
<path d="M11.5532 7.41587C11.6899 7.90685 11.8944 8.36962 12.1567 8.79282C12.1049 8.78835 12.0525 8.78501 11.9995 8.78501C11.0029 8.78527 10.1949 9.59304 10.1948 10.5897C10.195 11.5863 11.003 12.3941 11.9995 12.3944C12.9963 12.3944 13.804 11.5864 13.8042 10.5897C13.8042 10.5484 13.8001 10.5073 13.7974 10.4667C14.2159 10.7383 14.6743 10.9536 15.1626 11.1004C14.9178 12.6275 13.5956 13.7948 11.9995 13.7948C10.2298 13.7945 8.79459 12.3595 8.79443 10.5897C8.79447 8.97132 9.99464 7.63331 11.5532 7.41587Z" fill="#15C674"/>
<path d="M14.1108 3.38657C14.3842 3.11333 14.8268 3.11333 15.1001 3.38657L16.7046 4.99009L18.3091 3.38657C18.5825 3.11375 19.0261 3.11347 19.2993 3.38657C19.5725 3.65977 19.5722 4.1034 19.2993 4.37681L17.6948 5.98032L19.2993 7.58481C19.5723 7.85818 19.5725 8.30179 19.2993 8.57505C19.0261 8.8483 18.5825 8.84806 18.3091 8.57505L16.7046 6.97056L15.1001 8.57603C14.8267 8.84901 14.3831 8.84926 14.1099 8.57603C13.8367 8.30278 13.8369 7.85916 14.1099 7.58579L15.7144 5.98032L14.1108 4.37681C13.8375 4.10344 13.8375 3.65994 14.1108 3.38657Z" fill="#15C674"/>
</svg>
