<svg width="24" height="24" viewBox="0 0 24 24" fill="none" xmlns="http://www.w3.org/2000/svg">
<path fill-rule="evenodd" clip-rule="evenodd" d="M10.417 12C10.417 11.6134 10.7304 11.3 11.117 11.3L18.0028 11.3C18.3894 11.3 18.7028 11.6134 18.7028 12C18.7028 12.3866 18.3894 12.7 18.0028 12.7L11.117 12.7C10.7304 12.7 10.417 12.3866 10.417 12Z" fill="#333333"/>
<path fill-rule="evenodd" clip-rule="evenodd" d="M10.417 7.29961C10.417 6.91301 10.7304 6.59961 11.117 6.59961L18.0028 6.59961C18.3894 6.59961 18.7028 6.91301 18.7028 7.29961C18.7028 7.68621 18.3894 7.99961 18.0028 7.99961L11.117 7.99961C10.7304 7.99961 10.417 7.68621 10.417 7.29961Z" fill="#333333"/>
<path fill-rule="evenodd" clip-rule="evenodd" d="M10.417 16.7C10.417 16.3134 10.7304 16 11.117 16L18.0028 16C18.3894 16 18.7028 16.3134 18.7028 16.7C18.7028 17.0866 18.3894 17.4 18.0028 17.4H11.117C10.7304 17.4 10.417 17.0866 10.417 16.7Z" fill="#333333"/>
<path fill-rule="evenodd" clip-rule="evenodd" d="M8.86413 5.95135C9.13899 6.22321 9.14142 6.66642 8.86955 6.94128L7.18603 8.64334C6.93482 8.89732 6.53266 8.9214 6.25295 8.6992L5.18162 7.84817C4.8789 7.6077 4.82844 7.16737 5.06891 6.86465C5.30937 6.56194 5.74971 6.51148 6.05242 6.75195L6.63217 7.21248L7.87419 5.95677C8.14606 5.68191 8.58927 5.67948 8.86413 5.95135Z" fill="#333333"/>
<path fill-rule="evenodd" clip-rule="evenodd" d="M8.86413 15.3517C9.13899 15.6236 9.14142 16.0668 8.86955 16.3417L7.18603 18.0437C6.93482 18.2977 6.53266 18.3218 6.25295 18.0996L5.18162 17.2486C4.8789 17.0081 4.82844 16.5678 5.06891 16.265C5.30937 15.9623 5.74971 15.9119 6.05242 16.1523L6.63217 16.6129L7.87419 15.3572C8.14606 15.0823 8.58927 15.0799 8.86413 15.3517Z" fill="#333333"/>
<path fill-rule="evenodd" clip-rule="evenodd" d="M8.86413 10.6515C9.13899 10.9234 9.14142 11.3666 8.86955 11.6415L7.18603 13.3435C6.93482 13.5975 6.53266 13.6216 6.25295 13.3994L5.18162 12.5484C4.8789 12.3079 4.82844 11.8676 5.06891 11.5648C5.30937 11.2621 5.74971 11.2117 6.05242 11.4521L6.63217 11.9127L7.87419 10.657C8.14606 10.3821 8.58927 10.3797 8.86413 10.6515Z" fill="#333333"/>
</svg>
