<svg width="24" height="24" viewBox="0 0 24 24" fill="none" xmlns="http://www.w3.org/2000/svg">
<path d="M14.126 4.06265C17.6416 4.95627 20.0808 8.14498 20.0811 11.8996C20.0811 16.362 16.4633 19.9802 12.001 19.9806C7.53823 19.9806 3.91895 16.3623 3.91895 11.8996C3.91916 9.27574 5.17023 6.9445 7.10645 5.4689L5.08984 5.44155C4.70332 5.43609 4.39399 5.11813 4.39941 4.73159C4.40513 4.34533 4.72305 4.03679 5.10938 4.04214L9.01074 4.09683C9.39307 4.10242 9.69986 4.41371 9.7002 4.79605V8.50015C9.7002 8.88659 9.38736 9.20009 9.00098 9.20034C8.61441 9.2003 8.30078 8.88672 8.30078 8.50015V6.33706C6.50324 7.53493 5.32054 9.57941 5.32031 11.8996C5.32031 15.5891 8.31143 18.5802 12.001 18.5802C15.6901 18.5798 18.6807 15.5888 18.6807 11.8996C18.6804 8.76138 16.6533 6.15013 13.7812 5.42007C13.4066 5.32484 13.1802 4.94319 13.2754 4.56851C13.371 4.19441 13.7517 3.96766 14.126 4.06265Z" fill="#15C674"/>
<path d="M14.9756 9.36245C15.2368 9.07747 15.6799 9.05825 15.9648 9.31948C16.249 9.58067 16.2684 10.023 16.0078 10.3078L12.0146 14.6642C11.7597 14.9422 11.3295 14.968 11.043 14.7228L8.50195 12.5451C8.2085 12.2935 8.17439 11.8513 8.42578 11.5578C8.67729 11.2644 9.1186 11.2303 9.41211 11.4816L11.4395 13.2189L14.9756 9.36245Z" fill="#15C674"/>
</svg>
