<svg width="24" height="24" viewBox="0 0 24 24" fill="none" xmlns="http://www.w3.org/2000/svg">
<path d="M11.7407 3.98633C11.5604 4.43542 11.4386 4.91436 11.3862 5.41406C8.63116 5.70691 6.52492 7.94721 6.5249 10.6201C6.5249 12.373 7.41823 14.2132 8.57959 15.8457C9.72934 17.4618 11.0753 18.7836 11.8423 19.4814C11.9269 19.5583 12.0446 19.5583 12.1313 19.4756C12.8963 18.7462 14.2507 17.3653 15.4087 15.7256C16.4273 14.2832 17.2315 12.7231 17.4272 11.2744C17.9331 11.2061 18.416 11.0677 18.8667 10.8682C18.7834 12.8618 17.7196 14.8802 16.5522 16.5332C15.3204 18.2774 13.894 19.7295 13.0972 20.4893C12.4827 21.075 11.5329 21.0914 10.9009 20.5166C10.0965 19.7847 8.66977 18.3873 7.43896 16.6572C6.21971 14.9434 5.12451 12.8096 5.12451 10.6201C5.12453 7.01279 8.08761 4.11774 11.7407 3.98633ZM11.5522 7.41113C11.689 7.90376 11.8944 8.36755 12.1577 8.79199C12.0983 8.78608 12.038 8.78321 11.9771 8.7832C10.9803 8.78325 10.1724 9.5911 10.1724 10.5879C10.1724 11.5847 10.9802 12.3925 11.9771 12.3926C12.9738 12.3925 13.7817 11.5847 13.7817 10.5879C13.7817 10.5415 13.7774 10.4957 13.7739 10.4502C14.1925 10.725 14.6518 10.9424 15.1411 11.0918C14.8992 12.6223 13.5755 13.7929 11.9771 13.793C10.207 13.7929 8.77197 12.3579 8.77197 10.5879C8.77201 8.96194 9.98306 7.61903 11.5522 7.41113ZM16.7056 2.33301C18.73 2.33353 20.3716 3.97546 20.3716 6C20.3713 8.02432 18.7298 9.6655 16.7056 9.66602C14.6809 9.66602 13.0388 8.02464 13.0386 6C13.0386 3.97514 14.6807 2.33301 16.7056 2.33301ZM15.7407 8.04785C16.0337 8.18595 16.3603 8.26562 16.7056 8.26562C17.9566 8.26511 18.9709 7.25112 18.9712 6C18.9712 5.65478 18.8905 5.32901 18.7524 5.03613L15.7407 8.04785ZM16.7056 3.7334C15.4539 3.7334 14.439 4.74834 14.439 6C14.439 6.39519 14.5403 6.76644 14.7183 7.08984L17.7954 4.0127C17.4721 3.83477 17.1006 3.73356 16.7056 3.7334Z" fill="#15C674"/>
</svg>
