<svg width="24" height="24" viewBox="0 0 24 24" fill="none" xmlns="http://www.w3.org/2000/svg">
<path d="M15.8216 10.3009C16.0829 10.016 16.0636 9.57316 15.7786 9.31193C15.4936 9.05069 15.0508 9.06994 14.7896 9.35493L11.2539 13.212L9.22686 11.4746C8.93333 11.223 8.49142 11.257 8.23982 11.5505C7.98823 11.844 8.02222 12.2859 8.31575 12.5375L10.8569 14.7156C11.1435 14.9613 11.5733 14.9354 11.8284 14.6572L15.8216 10.3009Z" fill="#333333"/>
<path fill-rule="evenodd" clip-rule="evenodd" d="M20 12C20 16.4183 16.4183 20 12 20C7.58172 20 4 16.4183 4 12C4 7.58172 7.58172 4 12 4C16.4183 4 20 7.58172 20 12ZM18.6 12C18.6 15.6451 15.6451 18.6 12 18.6C8.35492 18.6 5.4 15.6451 5.4 12C5.4 8.35492 8.35492 5.4 12 5.4C15.6451 5.4 18.6 8.35492 18.6 12Z" fill="#333333"/>
</svg>
