<svg width="24" height="24" viewBox="0 0 24 24" fill="none" xmlns="http://www.w3.org/2000/svg">
<path d="M7.67241 13.4679C8.48388 13.4679 9.1417 12.8101 9.1417 11.9986C9.1417 11.1871 8.48388 10.5293 7.67241 10.5293C6.86095 10.5293 6.20312 11.1871 6.20312 11.9986C6.20312 12.8101 6.86095 13.4679 7.67241 13.4679Z" fill="#333333"/>
<path d="M11.9997 13.4679C12.8112 13.4679 13.469 12.8101 13.469 11.9986C13.469 11.1871 12.8112 10.5293 11.9997 10.5293C11.1883 10.5293 10.5304 11.1871 10.5304 11.9986C10.5304 12.8101 11.1883 13.4679 11.9997 13.4679Z" fill="#333333"/>
<path d="M17.7963 11.9986C17.7963 12.8101 17.1385 13.4679 16.327 13.4679C15.5156 13.4679 14.8578 12.8101 14.8578 11.9986C14.8578 11.1871 15.5156 10.5293 16.327 10.5293C17.1385 10.5293 17.7963 11.1871 17.7963 11.9986Z" fill="#333333"/>
<path fill-rule="evenodd" clip-rule="evenodd" d="M20.8359 12C20.8359 16.88 16.88 20.8359 12 20.8359C7.12005 20.8359 3.16406 16.88 3.16406 12C3.16406 7.12005 7.12005 3.16406 12 3.16406C16.88 3.16406 20.8359 7.12005 20.8359 12ZM19.4359 12C19.4359 16.1068 16.1068 19.4359 12 19.4359C7.89325 19.4359 4.56406 16.1068 4.56406 12C4.56406 7.89325 7.89325 4.56406 12 4.56406C16.1068 4.56406 19.4359 7.89325 19.4359 12Z" fill="#333333"/>
</svg>
