<svg width="24" height="24" viewBox="0 0 24 24" fill="none" xmlns="http://www.w3.org/2000/svg">
<path d="M12 7.98917C12.3866 7.98917 12.7 8.30257 12.7 8.68917L12.7 11.301L15.3108 11.301C15.6974 11.301 16.0108 11.6144 16.0108 12.001C16.0108 12.3876 15.6974 12.701 15.3108 12.701L12.7 12.701L12.7 15.3116C12.7 15.6982 12.3866 16.0116 12 16.0116C11.6134 16.0116 11.3 15.6982 11.3 15.3116L11.3 12.701L8.68837 12.701C8.30177 12.701 7.98837 12.3876 7.98837 12.001C7.98837 11.6144 8.30177 11.301 8.68837 11.301L11.3 11.301L11.3 8.68917C11.3 8.30257 11.6134 7.98917 12 7.98917Z" fill="#333333"/>
<path fill-rule="evenodd" clip-rule="evenodd" d="M3.87402 11.9998C3.87402 7.51206 7.51206 3.87402 11.9998 3.87402C16.4875 3.87402 20.1256 7.51206 20.1256 11.9998C20.1256 16.4875 16.4875 20.1256 11.9998 20.1256C7.51206 20.1256 3.87402 16.4875 3.87402 11.9998ZM11.9998 5.27402C8.28526 5.27402 5.27402 8.28526 5.27402 11.9998C5.27402 15.7144 8.28526 18.7256 11.9998 18.7256C15.7144 18.7256 18.7256 15.7144 18.7256 11.9998C18.7256 8.28526 15.7144 5.27402 11.9998 5.27402Z" fill="#333333"/>
</svg>
