<svg width="24" height="24" viewBox="0 0 24 24" fill="none" xmlns="http://www.w3.org/2000/svg">
<path d="M9.00483 9.00483C9.2782 8.73146 9.72141 8.73146 9.99478 9.00483L11.9997 11.0098L14.0046 9.00483C14.278 8.73146 14.7212 8.73146 14.9946 9.00483C15.2679 9.2782 15.2679 9.72141 14.9946 9.99478L12.9896 11.9997L14.9945 14.0046C15.2679 14.278 15.2679 14.7212 14.9945 14.9945C14.7212 15.2679 14.2779 15.2679 14.0046 14.9945L11.9997 12.9897L9.99478 14.9946C9.72141 15.2679 9.2782 15.2679 9.00483 14.9946C8.73146 14.7212 8.73146 14.278 9.00483 14.0046L11.0098 11.9997L9.00483 9.99478C8.73146 9.72141 8.73146 9.2782 9.00483 9.00483Z" fill="#333333"/>
<path fill-rule="evenodd" clip-rule="evenodd" d="M12 20C16.4183 20 20 16.4183 20 12C20 7.58172 16.4183 4 12 4C7.58172 4 4 7.58172 4 12C4 16.4183 7.58172 20 12 20ZM12 18.6C15.6451 18.6 18.6 15.6451 18.6 12C18.6 8.35492 15.6451 5.4 12 5.4C8.35492 5.4 5.4 8.35492 5.4 12C5.4 15.6451 8.35492 18.6 12 18.6Z" fill="#333333"/>
</svg>
