<svg width="24" height="24" viewBox="0 0 24 24" fill="none" xmlns="http://www.w3.org/2000/svg">
<g opacity="0.9">
<path d="M8.9998 11.3008C8.61321 11.3008 8.2998 11.6142 8.2998 12.0008C8.2998 12.3874 8.61321 12.7008 8.9998 12.7008H14.9998C15.3864 12.7008 15.6998 12.3874 15.6998 12.0008C15.6998 11.6142 15.3864 11.3008 14.9998 11.3008L8.9998 11.3008Z" fill="#333333"/>
<path fill-rule="evenodd" clip-rule="evenodd" d="M11.9998 3.87402C7.51206 3.87402 3.87402 7.51206 3.87402 11.9998C3.87402 16.4875 7.51206 20.1256 11.9998 20.1256C16.4875 20.1256 20.1256 16.4875 20.1256 11.9998C20.1256 7.51206 16.4875 3.87402 11.9998 3.87402ZM5.27402 11.9998C5.27402 8.28526 8.28526 5.27402 11.9998 5.27402C15.7144 5.27402 18.7256 8.28526 18.7256 11.9998C18.7256 15.7144 15.7144 18.7256 11.9998 18.7256C8.28526 18.7256 5.27402 15.7144 5.27402 11.9998Z" fill="#333333"/>
</g>
</svg>
