<svg width="24" height="24" viewBox="0 0 24 24" fill="none" xmlns="http://www.w3.org/2000/svg">
<path fill-rule="evenodd" clip-rule="evenodd" d="M18.6 12C18.6 15.6451 15.6451 18.6 12 18.6C8.35493 18.6 5.4 15.6451 5.4 12C5.4 8.35493 8.35493 5.4 12 5.4C15.6451 5.4 18.6 8.35493 18.6 12ZM12 20C16.4183 20 20 16.4183 20 12C20 7.58173 16.4183 4 12 4C7.58173 4 4 7.58173 4 12C4 16.4183 7.58173 20 12 20ZM12.6148 8.00664C12.6148 7.62004 12.3014 7.30664 11.9148 7.30664C11.5282 7.30664 11.2148 7.62004 11.2148 8.00664V12.1101C11.2148 12.2957 11.2886 12.4738 11.4199 12.605C11.5511 12.7363 11.7292 12.8101 11.9148 12.8101L15.3678 12.81C15.7544 12.81 16.0678 12.4966 16.0678 12.11C16.0678 11.7234 15.7544 11.41 15.3678 11.41L12.6148 11.4101V8.00664Z" fill="#333333"/>
</svg>
