<svg width="25" height="24" viewBox="0 0 25 24" fill="none" xmlns="http://www.w3.org/2000/svg">
<path d="M12.7 3.89844C12.3134 3.89844 12 4.21184 12 4.59844V7.15888C12 7.54548 12.3134 7.85888 12.7 7.85888C13.0866 7.85888 13.4 7.54548 13.4 7.15888V5.33456C16.7721 5.68456 19.4014 8.53514 19.4014 11.9998C19.4014 15.7009 16.4011 18.7012 12.7 18.7012C8.99894 18.7012 5.99863 15.7009 5.99863 11.9998C5.99863 10.4561 6.51977 9.03601 7.39613 7.90322C7.63268 7.59744 7.57657 7.1578 7.27079 6.92124C6.96502 6.68468 6.52537 6.74079 6.28881 7.04657C5.22941 8.41596 4.59863 10.1352 4.59863 11.9998C4.59863 16.4741 8.22574 20.1012 12.7 20.1012C17.1743 20.1012 20.8014 16.4741 20.8014 11.9998C20.8014 7.52555 17.1743 3.89844 12.7 3.89844Z" fill="#333333"/>
<path d="M9.97333 8.4785C9.69998 8.20511 9.25676 8.20508 8.98338 8.47843C8.70999 8.75178 8.70996 9.19499 8.98331 9.46838L12.1197 12.6052C12.393 12.8786 12.8362 12.8786 13.1096 12.6052C13.383 12.3319 13.383 11.8887 13.1097 11.6153L9.97333 8.4785Z" fill="#333333"/>
</svg>
