<svg width="24" height="24" viewBox="0 0 24 24" fill="none" xmlns="http://www.w3.org/2000/svg">
<path d="M15.0266 11.4608C15.2812 11.1698 15.2517 10.7276 14.9608 10.473C14.6698 10.2184 14.2276 10.2479 13.973 10.5389L10.9657 13.9758L9.49478 12.5048C9.22141 12.2315 8.7782 12.2315 8.50483 12.5048C8.23146 12.7782 8.23146 13.2214 8.50483 13.4948L10.5048 15.4948C10.6418 15.6318 10.8295 15.7059 11.0231 15.6994C11.2167 15.693 11.399 15.6066 11.5266 15.4608L15.0266 11.4608Z" fill="#333333"/>
<path fill-rule="evenodd" clip-rule="evenodd" d="M9.92823 4.81055C7.73345 4.81055 5.58523 6.6083 5.4538 8.9111C3.58178 9.80842 2.36857 11.6738 2.39093 13.7449C2.3931 16.6884 4.76989 19.0797 7.7087 19.0797C8.78731 19.0797 9.86586 19.0795 10.9444 19.0794C13.1012 19.0791 15.258 19.0788 17.4147 19.0797L17.4336 19.0794C19.7638 19.0175 21.6511 17.1513 21.6087 14.8459C21.6272 13.1221 20.5668 11.5967 18.9852 10.9359C18.6952 8.44204 16.2906 6.53813 13.7926 7.02622C13.0191 5.71318 11.5505 4.82811 9.93583 4.81059L9.92823 4.81055ZM6.8543 9.32088C6.73557 7.70068 8.26978 6.21281 9.92445 6.21055C11.2014 6.22598 12.3356 7.02863 12.7718 8.11301C12.9119 8.46106 13.3014 8.63685 13.655 8.51156C15.5361 7.84513 17.6144 9.38418 17.6144 11.4405C17.6144 11.752 17.8203 12.0261 18.1196 12.1128C19.3891 12.4808 20.2256 13.6031 20.2087 14.839C20.2086 14.8471 20.2086 14.8553 20.2088 14.8635C20.2406 16.3531 19.0147 17.6323 17.4053 17.6797C15.2515 17.6788 13.0975 17.6791 10.9437 17.6794C9.86536 17.6795 8.78685 17.6797 7.7087 17.6797C5.54781 17.6797 3.79093 15.9191 3.79093 13.7409L3.79088 13.7328C3.77212 12.1115 4.79905 10.6282 6.40181 10.0275C6.69275 9.9185 6.87701 9.63074 6.8543 9.32088Z" fill="#333333"/>
</svg>
