<svg width="24" height="24" viewBox="0 0 24 24" fill="none" xmlns="http://www.w3.org/2000/svg">
<path d="M5.41227 8.50988C5.61421 6.19821 7.54545 4.37891 9.90694 4.37891H9.91453C11.5438 4.39659 13.0314 5.26301 13.8143 6.63162C14.0951 6.57607 14.3813 6.54798 14.6687 6.54801L12.4028 7.02825C11.8385 6.27238 10.9206 5.79113 9.90315 5.77891C8.43106 5.78068 7.1952 6.81205 6.87532 8.19979C6.82267 8.42817 6.79484 8.66619 6.79484 8.91086L6.79486 8.92487L6.79493 8.93237C6.79499 8.93549 6.79502 8.9335 6.79465 8.9285C6.81736 9.23837 6.6331 9.52612 6.34216 9.63515C4.72042 10.2429 3.68107 11.744 3.70006 13.3848L3.70016 13.3929C3.70016 15.5972 5.47802 17.3789 7.66484 17.3789C7.69068 17.3789 7.71273 17.3781 7.74585 17.377L7.79809 17.3752C7.83077 17.3742 7.86328 17.3754 7.8954 17.3789H17.46C19.0895 17.331 20.3313 16.0358 20.2992 14.5268L20.299 14.5162L20.2991 14.5023C20.3162 13.2504 19.4689 12.114 18.1835 11.7415C17.8843 11.6547 17.6784 11.3807 17.6784 11.0691C17.6784 11.0406 17.6794 11.014 17.6799 11L17.68 10.9975L17.6806 10.981L17.6806 10.9788C17.6807 10.9771 17.6807 10.9768 17.6807 10.9773C17.6807 9.30216 16.3287 7.94801 14.6687 7.94801C14.3275 7.94796 13.9894 8.00602 13.6702 8.1191C13.3141 8.24525 12.9222 8.06612 12.7845 7.71431C12.6879 7.46737 12.5589 7.2373 12.4028 7.02825L14.6687 6.54801C16.9709 6.54806 18.8572 8.31798 19.0622 10.5697C20.6525 11.2382 21.7177 12.7741 21.6991 14.5092C21.7419 16.834 19.8387 18.7162 17.4884 18.7787L17.4698 18.7789H7.82007C7.80266 18.7789 7.78541 18.7783 7.76832 18.777C7.73604 18.778 7.69952 18.7789 7.66484 18.7789C4.7001 18.7789 2.30229 16.3665 2.30011 13.3969C2.27745 11.2995 3.51098 9.41105 5.41227 8.50988Z" fill="#333333"/>
<path d="M12.4669 11.0936C12.4669 10.707 12.1535 10.3936 11.7669 10.3936C11.3803 10.3936 11.0669 10.707 11.0669 11.0936V12.8904C11.0669 13.277 11.3803 13.5904 11.7669 13.5904H13.2646C13.6512 13.5904 13.9646 13.277 13.9646 12.8904C13.9646 12.5038 13.6512 12.1904 13.2646 12.1904H12.4669V11.0936Z" fill="#333333"/>
<path fill-rule="evenodd" clip-rule="evenodd" d="M7.82764 12.5127C7.82764 10.2087 9.69547 8.34082 11.9996 8.34082C14.3036 8.34082 16.1715 10.2087 16.1715 12.5127C16.1715 14.8168 14.3036 16.6847 11.9996 16.6847C9.69547 16.6847 7.82764 14.8168 7.82764 12.5127ZM11.9996 9.74082C10.4687 9.74082 9.22764 10.9819 9.22764 12.5127C9.22764 14.0436 10.4687 15.2847 11.9996 15.2847C13.5305 15.2847 14.7715 14.0436 14.7715 12.5127C14.7715 10.9819 13.5305 9.74082 11.9996 9.74082Z" fill="#333333"/>
</svg>
