<svg width="24" height="24" viewBox="0 0 24 24" fill="none" xmlns="http://www.w3.org/2000/svg">
<path d="M11.9974 16.2422C11.8117 16.2421 11.6337 16.1683 11.5025 16.0369L9.03622 13.5682C8.76299 13.2947 8.76322 12.8514 9.03672 12.5782C9.31022 12.305 9.75344 12.3052 10.0267 12.5787L11.3002 13.8535L11.3002 10.2951C11.3002 9.90852 11.6136 9.59512 12.0002 9.59512C12.3868 9.59512 12.7002 9.90852 12.7002 10.2951L12.7002 13.851L13.9742 12.5782C14.2477 12.305 14.6909 12.3052 14.9642 12.5787C15.2374 12.8522 15.2372 13.2954 14.9637 13.5687L12.4924 16.0374C12.3611 16.1686 12.183 16.2423 11.9974 16.2422Z" fill="#333333"/>
<path fill-rule="evenodd" clip-rule="evenodd" d="M5.4538 8.9111C5.58523 6.6083 7.73345 4.81055 9.92823 4.81055H9.93583C11.5505 4.82807 13.0191 5.71318 13.7926 7.02622C16.2906 6.53813 18.6952 8.44204 18.9852 10.9359C20.5668 11.5967 21.6272 13.1221 21.6087 14.8459C21.6511 17.1513 19.7638 19.0175 17.4336 19.0794L17.4147 19.0797C15.258 19.0788 13.1014 19.0791 10.9446 19.0794C9.86611 19.0795 8.78731 19.0797 7.7087 19.0797C4.76989 19.0797 2.3931 16.6884 2.39093 13.7449C2.36857 11.6738 3.58178 9.80842 5.4538 8.9111ZM9.92445 6.21055C8.26978 6.21281 6.73557 7.70068 6.8543 9.32088C6.87701 9.63074 6.69275 9.9185 6.40181 10.0275C4.79905 10.6282 3.77212 12.1115 3.79088 13.7328L3.79097 13.7409C3.79097 15.9191 5.54781 17.6797 7.7087 17.6797C8.78678 17.6797 9.865 17.6795 10.9433 17.6794C13.0971 17.6791 15.2515 17.6788 17.4053 17.6797C19.0147 17.6323 20.2406 16.3531 20.2088 14.8635C20.2086 14.8553 20.2086 14.8471 20.2087 14.839C20.2256 13.6031 19.3891 12.4808 18.1196 12.1128C17.8203 12.0261 17.6144 11.752 17.6144 11.4405C17.6144 9.38418 15.5361 7.84513 13.655 8.51156C13.3014 8.63685 12.9119 8.46106 12.7718 8.11301C12.3356 7.02863 11.2014 6.22598 9.92445 6.21055Z" fill="#333333"/>
</svg>
