<svg width="24" height="24" viewBox="0 0 24 24" fill="none" xmlns="http://www.w3.org/2000/svg">
<path d="M5.41227 8.93078C5.61421 6.61911 7.54545 4.7998 9.90694 4.7998H9.91453C11.5438 4.81749 13.0314 5.68391 13.8143 7.05252C14.0951 6.99697 14.3813 6.96888 14.6687 6.96891L12.4028 7.44915C11.8385 6.69328 10.9206 6.21202 9.90315 6.19981C8.43106 6.20157 7.1952 7.23295 6.87532 8.62069C6.82267 8.84906 6.79484 9.08709 6.79484 9.33176L6.79486 9.34577L6.79493 9.35327C6.79499 9.35639 6.79502 9.3544 6.79465 9.3494C6.81736 9.65927 6.6331 9.94702 6.34216 10.056C4.72042 10.6638 3.68107 12.1649 3.70006 13.8057L3.70016 13.8138C3.70016 16.0181 5.47802 17.7998 7.66484 17.7998C7.69068 17.7998 7.71273 17.799 7.74585 17.7979L7.79809 17.7961C7.83077 17.7951 7.86328 17.7963 7.8954 17.7998H17.46C19.0895 17.7519 20.3313 16.4567 20.2992 14.9477L20.299 14.9371L20.2991 14.9232C20.3162 13.6713 19.4689 12.5349 18.1835 12.1624C17.8843 12.0756 17.6784 11.8016 17.6784 11.49C17.6784 11.4615 17.6794 11.4349 17.6799 11.4209L17.68 11.4184L17.6806 11.4019L17.6806 11.3997L17.6807 11.3982C17.6807 9.72305 16.3287 8.36891 14.6687 8.36891C14.3275 8.36886 13.9894 8.42692 13.6702 8.54C13.3141 8.66615 12.9222 8.48701 12.7845 8.13521C12.6879 7.88827 12.5589 7.6582 12.4028 7.44915L14.6687 6.96891C16.9709 6.96896 18.8572 8.73887 19.0622 10.9906C20.6525 11.6591 21.7177 13.195 21.6991 14.9301C21.7419 17.2549 19.8387 19.1371 17.4884 19.1996L17.4698 19.1998H7.82007C7.80266 19.1998 7.78541 19.1992 7.76832 19.1979C7.73604 19.1989 7.69952 19.1998 7.66484 19.1998C4.7001 19.1998 2.30229 16.7874 2.30011 13.8178C2.27745 11.7204 3.51098 9.83195 5.41227 8.93078Z" fill="#333333"/>
<path d="M14.9182 10.8974L15.5321 10.5427C15.8021 10.3867 16.1259 10.6351 16.0452 10.9364L15.5553 12.765C15.4981 12.9784 15.2788 13.105 15.0654 13.0479L13.238 12.5582C12.9369 12.4775 12.8836 12.0731 13.1535 11.9171L13.6869 11.6089C13.0152 10.8838 11.9363 10.6249 11.1947 10.8382C10.5257 11.0306 10.157 11.3657 9.92157 11.9311C9.77293 12.288 9.36313 12.4568 9.00624 12.3082C8.64936 12.1595 8.48055 11.7497 8.62918 11.3928C9.03806 10.4111 9.75532 9.79536 10.8078 9.4927C12.1408 9.10935 13.9074 9.60295 14.9182 10.8974Z" fill="#333333"/>
<path d="M8.39071 13.5261C8.44789 13.3127 8.66722 13.186 8.88061 13.2432L10.708 13.7329C11.0091 13.8135 11.0624 14.218 10.7925 14.374L10.2366 14.6952C10.8237 15.2948 11.7783 15.545 12.6766 15.2908C13.3049 15.1129 13.6576 14.8115 13.8965 14.3335C14.0694 13.9877 14.4898 13.8475 14.8356 14.0203C15.1814 14.1932 15.3216 14.6137 15.1488 14.9595C14.7186 15.8201 14.031 16.3624 13.0579 16.6379C11.6013 17.0501 9.95353 16.6082 9.00143 15.4089L8.41394 15.7483C8.1439 15.9044 7.82005 15.656 7.90076 15.3547L8.39071 13.5261Z" fill="#333333"/>
</svg>
