<svg width="24" height="24" viewBox="0 0 24 24" fill="none" xmlns="http://www.w3.org/2000/svg">
<path fill-rule="evenodd" clip-rule="evenodd" d="M5.4538 8.54489C5.58523 6.24209 7.73345 4.44434 9.92823 4.44434H9.93583L9.93583 4.44438C11.5505 4.4619 13.0191 5.34697 13.7926 6.66001C16.2906 6.17192 18.6952 8.07583 18.9852 10.5697C20.5668 11.2305 21.6272 12.7559 21.6087 14.4797C21.6511 16.7851 19.7638 18.6513 17.4336 18.7132L17.4147 18.7135C15.2579 18.7126 13.1012 18.7129 10.9444 18.7132C9.86586 18.7133 8.78731 18.7135 7.7087 18.7135C4.76989 18.7135 2.3931 16.3222 2.39093 13.3787C2.36857 11.3076 3.58178 9.44221 5.4538 8.54489ZM9.92445 5.84434C8.26978 5.8466 6.73557 7.33447 6.8543 8.95467C6.87701 9.26453 6.69275 9.55229 6.40181 9.66131C4.79905 10.2619 3.77212 11.7453 3.79088 13.3665L3.79097 13.3746H3.79093C3.79093 15.5529 5.54781 17.3135 7.7087 17.3135C8.78692 17.3135 9.86528 17.3133 10.9437 17.3132C13.0975 17.3129 15.2515 17.3126 17.4053 17.3135C19.0147 17.2661 20.2406 15.9869 20.2088 14.4972C20.2086 14.4891 20.2086 14.4809 20.2087 14.4728C20.2256 13.2368 19.3891 12.1146 18.1196 11.7466C17.8203 11.6599 17.6144 11.3858 17.6144 11.0743C17.6144 9.01796 15.5361 7.47892 13.655 8.14535C13.3014 8.27064 12.9119 8.09485 12.7718 7.7468C12.3356 6.66242 11.2014 5.85977 9.92445 5.84434Z" fill="#333333"/>
</svg>
