<svg width="24" height="24" viewBox="0 0 24 24" fill="none" xmlns="http://www.w3.org/2000/svg">
<path fill-rule="evenodd" clip-rule="evenodd" d="M11.0024 7.02035C11.62 6.66379 12.3809 6.66379 12.9985 7.02035L15.8134 8.64556C16.431 9.00212 16.8115 9.66108 16.8115 10.3742V13.6246C16.8115 14.3377 16.431 14.9967 15.8134 15.3533L12.9985 16.9785C12.3809 17.335 11.62 17.335 11.0024 16.9785L8.18749 15.3533C7.5699 14.9967 7.18945 14.3377 7.18945 13.6246V10.3742C7.18945 9.66108 7.5699 9.00212 8.18749 8.64556L11.0024 7.02035ZM12.2985 8.23279L15.1134 9.85799C15.2979 9.96447 15.4115 10.1613 15.4115 10.3742V13.6246C15.4115 13.8376 15.2979 14.0343 15.1134 14.1408L12.2985 15.766C12.1141 15.8725 11.8868 15.8725 11.7024 15.766L8.88749 14.1408C8.70306 14.0343 8.58945 13.8376 8.58945 13.6246V10.3742C8.58945 10.1612 8.70306 9.96447 8.88749 9.85799L11.7024 8.23279C11.8869 8.12631 12.1141 8.12631 12.2985 8.23279Z" fill="#333333"/>
<path fill-rule="evenodd" clip-rule="evenodd" d="M9.99979 3.89625C11.2374 3.18172 12.7622 3.18172 13.9998 3.89625L18.0181 6.21624C19.2557 6.93077 20.0181 8.25128 20.0181 9.68035V14.3203C20.0181 15.7494 19.2557 17.0699 18.0181 17.7844L13.9998 20.1044C12.7622 20.819 11.2374 20.819 9.99979 20.1044L5.98145 17.7844C4.74384 17.0699 3.98145 15.7494 3.98145 14.3203V9.68035C3.98145 8.25128 4.74384 6.93077 5.98145 6.21624L9.99979 3.89625ZM13.2998 5.10869L17.3181 7.42868C18.1226 7.89312 18.6181 8.75145 18.6181 9.68035V14.3203C18.6181 15.2492 18.1226 16.1076 17.3181 16.572L13.2998 18.892C12.4953 19.3564 11.5042 19.3564 10.6998 18.892L6.68145 16.572C5.877 16.1076 5.38145 15.2492 5.38145 14.3203V9.68035C5.38145 8.75145 5.877 7.89312 6.68145 7.42868L10.6998 5.10869C11.5042 4.64424 12.4953 4.64424 13.2998 5.10869Z" fill="#333333"/>
</svg>
