<svg width="24" height="24" viewBox="0 0 24 24" fill="none" xmlns="http://www.w3.org/2000/svg">
<path d="M13.1126 10.1006V8.39473C13.1126 8.09097 12.8664 7.84473 12.5626 7.84473C12.2588 7.84473 12.0126 8.09097 12.0126 8.39473L12.0126 10.8401C12.0126 11.4753 12.5275 11.9901 13.1626 11.9901L15.5602 11.9901C15.8639 11.9901 16.1102 11.7439 16.1102 11.4401C16.1102 11.1364 15.8639 10.8901 15.5602 10.8901L13.8787 10.8901L15.7958 8.97307C16.0106 8.75828 16.0106 8.41004 15.7958 8.19525C15.581 7.98046 15.2327 7.98046 15.0179 8.19525L13.1126 10.1006Z" fill="#333333"/>
<path d="M10.8813 13.8963L8.976 15.8016C8.76121 16.0164 8.41297 16.0164 8.19818 15.8016C7.98339 15.5868 7.98339 15.2386 8.19818 15.0238L10.1172 13.1048H8.43379C8.13003 13.1048 7.88379 12.8585 7.88379 12.5548C7.88379 12.251 8.13003 12.0048 8.43379 12.0048H10.8313C11.4665 12.0048 11.9813 12.5197 11.9813 13.1548V15.6002C11.9813 15.904 11.7351 16.1502 11.4313 16.1502C11.1276 16.1502 10.8813 15.904 10.8813 15.6002V13.8963Z" fill="#333333"/>
</svg>
