<svg width="24" height="24" viewBox="0 0 24 24" fill="none" xmlns="http://www.w3.org/2000/svg">
<path d="M13.3499 9.78624L13.3499 7.1918C13.3499 6.86043 13.0812 6.5918 12.7499 6.5918C12.4185 6.5918 12.1499 6.86043 12.1499 7.1918L12.1499 10.4523C12.1499 11.2255 12.7767 11.8523 13.5499 11.8523L16.7466 11.8523C17.078 11.8523 17.3466 11.5837 17.3466 11.2523C17.3466 10.921 17.078 10.6523 16.7466 10.6523L14.1808 10.6523L16.9668 7.86636C17.2011 7.63204 17.2011 7.25215 16.9668 7.01783C16.7325 6.78352 16.3526 6.78352 16.1183 7.01783L13.3499 9.78624Z" fill="#333333"/>
<path d="M10.6413 14.2056L7.87287 16.974C7.63855 17.2083 7.25866 17.2083 7.02434 16.974C6.79003 16.7397 6.79003 16.3598 7.02434 16.1254L9.81033 13.3395H7.24453C6.91316 13.3395 6.64453 13.0708 6.64453 12.7395C6.64453 12.4081 6.91316 12.1395 7.24453 12.1395H10.4413C11.2145 12.1395 11.8413 12.7663 11.8413 13.5395V16.8C11.8413 17.1314 11.5726 17.4 11.2413 17.4C10.9099 17.4 10.6413 17.1314 10.6413 16.8L10.6413 14.2056Z" fill="#333333"/>
</svg>
