<svg width="24" height="24" viewBox="0 0 24 24" fill="none" xmlns="http://www.w3.org/2000/svg">
<path fill-rule="evenodd" clip-rule="evenodd" d="M10.9905 7.73306C11.5773 7.57582 11.9256 6.97265 11.7684 6.38584C11.6111 5.79903 11.0079 5.45079 10.4211 5.60802C9.83432 5.76526 9.48608 6.36843 9.64332 6.95524C9.80055 7.54206 10.4037 7.8903 10.9905 7.73306ZM11.3529 9.08536C12.6865 8.728 13.478 7.35716 13.1206 6.02349C12.7633 4.68983 11.3925 3.89837 10.0588 4.25573C8.72512 4.61308 7.93367 5.98392 8.29102 7.31759C8.64838 8.65126 10.0192 9.44271 11.3529 9.08536Z" fill="#333333"/>
<path fill-rule="evenodd" clip-rule="evenodd" d="M8.00714 17.8502C8.59395 17.693 8.94219 17.0898 8.78496 16.503C8.62772 15.9162 8.02455 15.568 7.43774 15.7252C6.85092 15.8824 6.50268 16.4856 6.65992 17.0724C6.81715 17.6592 7.42033 18.0075 8.00714 17.8502ZM8.36948 19.2025C9.70315 18.8452 10.4946 17.4743 10.1373 16.1407C9.7799 14.807 8.40905 14.0156 7.07539 14.3729C5.74172 14.7303 4.95027 16.1011 5.30762 17.4348C5.66498 18.7684 7.03582 19.5599 8.36948 19.2025Z" fill="#333333"/>
<path fill-rule="evenodd" clip-rule="evenodd" d="M18.6326 15.0036C19.2194 14.8463 19.5677 14.2432 19.4104 13.6563C19.2532 13.0695 18.65 12.7213 18.0632 12.8785C17.4764 13.0358 17.1282 13.6389 17.2854 14.2258C17.4426 14.8126 18.0458 15.1608 18.6326 15.0036ZM18.995 16.3559C20.3286 15.9985 21.1201 14.6277 20.7627 13.294C20.4054 11.9603 19.0345 11.1689 17.7009 11.5262C16.3672 11.8836 15.5758 13.2544 15.9331 14.5881C16.2905 15.9218 17.6613 16.7132 18.995 16.3559Z" fill="#333333"/>
<path fill-rule="evenodd" clip-rule="evenodd" d="M7.21986 6.99181C5.48369 8.70253 4.69179 11.2726 5.3677 13.7951C5.3966 13.903 5.42787 14.0096 5.46144 14.1149C5.81943 13.8116 6.24398 13.5762 6.72036 13.4341L6.71999 13.4328C6.24478 11.6592 6.67651 9.85638 7.73087 8.51659C7.55438 8.2319 7.4161 7.91688 7.32493 7.57665C7.2727 7.38171 7.238 7.18621 7.21986 6.99181ZM14.2048 6.78189C14.2153 6.4471 14.1776 6.10515 14.0864 5.76492C14.0342 5.56998 13.9665 5.38332 13.885 5.2059C16.2439 5.81934 18.2147 7.6491 18.8907 10.1716C18.9196 10.2795 18.9458 10.3875 18.9694 10.4954C18.5077 10.4118 18.0223 10.4202 17.5387 10.5353L17.5384 10.534C17.0632 8.76047 15.7878 7.41501 14.2048 6.78189ZM15.7345 16.2702C15.1259 16.7827 14.3979 17.173 13.5786 17.3926C12.7592 17.6121 11.9336 17.6381 11.1503 17.4985C11.0516 17.9725 10.8556 18.4193 10.5785 18.8109C11.6533 19.056 12.802 19.05 13.9409 18.7449C15.0799 18.4397 16.0776 17.8705 16.8859 17.1208C16.4501 16.9203 16.0569 16.6313 15.7345 16.2702Z" fill="#333333"/>
</svg>
