<svg width="24" height="24" viewBox="0 0 24 24" fill="none" xmlns="http://www.w3.org/2000/svg">
<path d="M13.8264 9.16239V4.78789C13.8264 4.40129 13.513 4.08789 13.1264 4.08789C12.7398 4.08789 12.4264 4.40129 12.4264 4.78789L12.4264 9.67871C12.4264 10.7281 13.277 11.5787 14.3264 11.5787L19.1215 11.5787C19.5081 11.5787 19.8215 11.2653 19.8215 10.8787C19.8215 10.4921 19.5081 10.1787 19.1215 10.1787L14.7899 10.1787L19.3099 5.6588C19.5832 5.38543 19.5832 4.94222 19.3099 4.66885C19.0365 4.39548 18.5933 4.39548 18.3199 4.66885L13.8264 9.16239Z" fill="#333333"/>
<path d="M10.1621 14.8241L5.66857 19.3177C5.3952 19.591 4.95198 19.591 4.67862 19.3177C4.40525 19.0443 4.40525 18.6011 4.67862 18.3277L9.19853 13.8078H4.86699C4.48039 13.8078 4.16699 13.4944 4.16699 13.1078C4.16699 12.7212 4.48039 12.4078 4.86699 12.4078H9.66211C10.7115 12.4078 11.5621 13.2585 11.5621 14.3078L11.5621 19.1986C11.5621 19.5852 11.2487 19.8986 10.8621 19.8986C10.4755 19.8986 10.1621 19.5852 10.1621 19.1986V14.8241Z" fill="#333333"/>
</svg>
