<svg width="24" height="24" viewBox="0 0 24 24" fill="none" xmlns="http://www.w3.org/2000/svg">
<path d="M14.4849 10.4155L18.1378 6.76258C18.3917 6.50874 18.3917 6.09718 18.1378 5.84334C17.884 5.5895 17.4724 5.5895 17.2186 5.84334L13.5881 9.47383L13.5881 5.98984C13.5881 5.63086 13.2971 5.33984 12.9381 5.33984C12.5791 5.33984 12.2881 5.63086 12.2881 5.98984L12.2881 10.0655C12.2881 10.9768 13.0269 11.7155 13.9381 11.7155L17.934 11.7155C18.293 11.7155 18.5841 11.4245 18.5841 11.0655C18.5841 10.7065 18.293 10.4155 17.9341 10.4155L14.4849 10.4155Z" fill="#333333"/>
<path d="M9.50345 13.5731L6.05527 13.5731C5.69629 13.5731 5.40527 13.2821 5.40527 12.9231C5.40527 12.5642 5.69629 12.2731 6.05527 12.2731L10.0512 12.2731C10.9625 12.2731 11.7012 13.0119 11.7012 13.9231L11.7012 17.9988C11.7012 18.3578 11.4102 18.6488 11.0512 18.6488C10.6922 18.6488 10.4012 18.3578 10.4012 17.9988V14.5139L6.76974 18.1453C6.5159 18.3992 6.10434 18.3992 5.8505 18.1453C5.59666 17.8915 5.59666 17.4799 5.8505 17.2261L9.50345 13.5731Z" fill="#333333"/>
</svg>
