<svg width="24" height="24" viewBox="0 0 24 24" fill="none" xmlns="http://www.w3.org/2000/svg">
<path d="M17.4043 14.4486C17.7908 14.4486 18.1043 14.7624 18.1045 15.1488V16.9486H19.9043L20.0449 16.9633C20.364 17.0284 20.6043 17.3106 20.6045 17.6488C20.6045 17.9872 20.3641 18.2692 20.0449 18.3344L19.9043 18.349H18.1045V20.1488C18.1045 20.5354 17.7909 20.849 17.4043 20.849C17.0177 20.849 16.7041 20.5354 16.7041 20.1488V18.349H14.9043C14.5177 18.349 14.2041 18.0354 14.2041 17.6488C14.2043 17.2624 14.5178 16.9486 14.9043 16.9486H16.7041V15.1488C16.7043 14.7624 17.0178 14.4486 17.4043 14.4486ZM10.3682 3.70353C11.4704 3.16161 12.7766 3.20039 13.8496 3.81974L18.1592 6.30704L18.3682 6.4379C19.3888 7.12155 20.0088 8.27292 20.0088 9.51212V12.6723C20.0086 13.0588 19.6951 13.3725 19.3086 13.3725C18.9222 13.3724 18.6085 13.0587 18.6084 12.6723V9.51212C18.6084 8.74181 18.2233 8.02596 17.5889 7.60099L17.459 7.51993L13.1504 5.03263C12.4832 4.64742 11.6707 4.62325 10.9854 4.96036L10.8496 5.03263L6.54102 7.51993C5.82966 7.93085 5.3916 8.69058 5.3916 9.51212V14.4926C5.39174 15.3119 5.82773 16.0693 6.53613 16.4809L10.6602 18.8774L10.873 18.9887C11.3794 19.2247 11.9495 19.2964 12.502 19.1899C12.8815 19.1166 13.249 19.365 13.3223 19.7445C13.3952 20.124 13.147 20.4906 12.7676 20.5639C11.8644 20.7382 10.9305 20.6011 10.1182 20.1772L9.95703 20.0883L5.83301 17.6918C4.69333 17.0296 3.99135 15.8107 3.99121 14.4926V9.51212C3.99121 8.19028 4.69708 6.968 5.8418 6.30704L10.1504 3.81974L10.3682 3.70353ZM10.9004 7.06779C11.581 6.67504 12.42 6.67487 13.1006 7.06779L15.7256 8.58341C16.406 8.97642 16.8261 9.70287 16.8262 10.4887V12.3422C16.8262 12.7286 16.5123 13.0421 16.126 13.0424C15.7394 13.0424 15.4258 12.7288 15.4258 12.3422V10.4887C15.4257 10.2031 15.2736 9.93827 15.0264 9.79532L12.4004 8.2797C12.1531 8.13698 11.848 8.13716 11.6006 8.2797L8.97461 9.79532C8.72721 9.93823 8.57524 10.203 8.5752 10.4887V13.5199C8.5752 13.8057 8.72717 14.0704 8.97461 14.2133L12.3506 16.1615C12.685 16.3548 12.7993 16.783 12.6064 17.1176C12.4132 17.4523 11.9851 17.5674 11.6504 17.3744L8.27539 15.4252C7.59471 15.0322 7.1748 14.3059 7.1748 13.5199V10.4887C7.17485 9.70275 7.59475 8.97638 8.27539 8.58341L10.9004 7.06779Z" fill="#15C674"/>
</svg>
