<svg width="24" height="24" viewBox="0 0 24 24" fill="none" xmlns="http://www.w3.org/2000/svg">
<path fill-rule="evenodd" clip-rule="evenodd" d="M3.89941 7.79942C3.89941 6.19779 5.19779 4.89941 6.79941 4.89941H17.1994C18.801 4.89941 20.0994 6.19779 20.0994 7.79941V16.1994C20.0994 17.801 18.801 19.0994 17.1994 19.0994H6.79942C5.19779 19.0994 3.89941 17.801 3.89941 16.1994V7.79942ZM6.79941 6.29941C5.97099 6.29941 5.29941 6.97099 5.29941 7.79942V16.1994C5.29941 17.0278 5.97099 17.6994 6.79942 17.6994H9.0498V6.29941H6.79941ZM13.5498 17.6994H10.4498V6.29941H13.5498V17.6994ZM14.9498 17.6994H17.1994C18.0278 17.6994 18.6994 17.0278 18.6994 16.1994V7.79941C18.6994 6.97099 18.0278 6.29941 17.1994 6.29941H14.9498V17.6994Z" fill="#333333"/>
</svg>
