<svg width="24" height="24" viewBox="0 0 24 24" fill="none" xmlns="http://www.w3.org/2000/svg">
<path fill-rule="evenodd" clip-rule="evenodd" d="M3.94531 8.14629C3.94531 6.65512 5.15414 5.44629 6.64531 5.44629H17.3537C18.8449 5.44629 20.0537 6.65512 20.0537 8.14629V15.8537C20.0537 17.3449 18.8449 18.5537 17.3537 18.5537H6.64531C5.15414 18.5537 3.94531 17.3449 3.94531 15.8537V8.14629ZM14.7135 6.84629H17.3537C18.0717 6.84629 18.6537 7.42832 18.6537 8.14629V15.8537C18.6537 16.5717 18.0717 17.1537 17.3537 17.1537H14.7136L14.7135 6.84629ZM13.3135 6.84629H6.64531C5.92734 6.84629 5.34531 7.42832 5.34531 8.14629V15.8537C5.34531 16.5717 5.92734 17.1537 6.64531 17.1537H13.3136L13.3135 6.84629Z" fill="#333333"/>
</svg>
