<svg width="24" height="24" viewBox="0 0 24 24" fill="none" xmlns="http://www.w3.org/2000/svg">
<path fill-rule="evenodd" clip-rule="evenodd" d="M12.3048 5.72458C12.8154 5.59772 13.2998 5.98223 13.2998 6.4916V8.14648V18.2998H5.6998V7.734C5.6998 7.37792 5.94138 7.06272 6.2935 6.96988L12.2914 5.72791L12.3048 5.72458ZM14.6998 18.2998H18.2998V10.8202C18.2998 10.6771 18.1989 10.554 18.0586 10.526L14.6998 9.85421V18.2998ZM14.6998 8.42648V6.4916C14.6998 5.06618 13.3596 4.02961 11.9818 4.36232L5.98057 5.60497L5.9672 5.6083C4.98994 5.85112 4.2998 6.72565 4.2998 7.734V18.2998H3.9998C3.61321 18.2998 3.2998 18.6132 3.2998 18.9998C3.2998 19.3864 3.61321 19.6998 3.9998 19.6998H19.9998C20.3864 19.6998 20.6998 19.3864 20.6998 18.9998C20.6998 18.6132 20.3864 18.2998 19.9998 18.2998H19.6998V10.8202C19.6998 10.0098 19.1278 9.31209 18.3332 9.15316L14.6998 8.42648ZM16.5002 11.2998C16.8868 11.2998 17.2002 11.6132 17.2002 11.9998V12.9998C17.2002 13.3864 16.8868 13.6998 16.5002 13.6998C16.1136 13.6998 15.8002 13.3864 15.8002 12.9998V11.9998C15.8002 11.6132 16.1136 11.2998 16.5002 11.2998ZM7.2998 9.4998C7.2998 9.11321 7.61321 8.7998 7.9998 8.7998H10.9998C11.3864 8.7998 11.6998 9.11321 11.6998 9.4998C11.6998 9.8864 11.3864 10.1998 10.9998 10.1998H7.9998C7.61321 10.1998 7.2998 9.8864 7.2998 9.4998ZM17.2002 15.2996C17.2002 14.913 16.8868 14.5996 16.5002 14.5996C16.1136 14.5996 15.8002 14.913 15.8002 15.2996V16.2996C15.8002 16.6862 16.1136 16.9996 16.5002 16.9996C16.8868 16.9996 17.2002 16.6862 17.2002 16.2996V15.2996ZM7.2998 12.4998C7.2998 12.1132 7.61321 11.7998 7.9998 11.7998H10.9998C11.3864 11.7998 11.6998 12.1132 11.6998 12.4998C11.6998 12.8864 11.3864 13.1998 10.9998 13.1998L7.9998 13.1998C7.61321 13.1998 7.2998 12.8864 7.2998 12.4998ZM7.9998 14.7998C7.61321 14.7998 7.2998 15.1132 7.2998 15.4998C7.2998 15.8864 7.61321 16.1998 7.9998 16.1998L10.9998 16.1998C11.3864 16.1998 11.6998 15.8864 11.6998 15.4998C11.6998 15.1132 11.3864 14.7998 10.9998 14.7998H7.9998Z" fill="#333333"/>
</svg>
