<svg width="24" height="24" viewBox="0 0 24 24" fill="none" xmlns="http://www.w3.org/2000/svg">
<path fill-rule="evenodd" clip-rule="evenodd" d="M17.1324 6.387C17.0996 6.39594 17.0651 6.39496 17.032 6.38733C16.9377 6.36559 16.8395 6.3541 16.7387 6.3541H7.15898C6.44101 6.3541 5.85898 6.93613 5.85898 7.6541V16.2994C5.85898 17.0174 6.44101 17.5994 7.15898 17.5994H16.7387C17.4566 17.5994 18.0387 17.0174 18.0387 16.2994V13.3642C18.0387 13.3147 18.0571 13.2669 18.0903 13.2301L19.0903 12.1238C19.2131 11.988 19.4387 12.0748 19.4387 12.2579V16.2994C19.4387 17.7906 18.2298 18.9994 16.7387 18.9994H7.15898C5.66782 18.9994 4.45898 17.7906 4.45898 16.2994V7.6541C4.45898 6.16293 5.66782 4.9541 7.15898 4.9541H16.7387C17.2682 4.9541 17.7621 5.10652 18.1789 5.36988C18.2767 5.43169 18.291 5.56558 18.2157 5.65338L18.1241 5.76007C17.861 6.06653 17.5144 6.28289 17.1324 6.387Z" fill="#333333"/>
<path fill-rule="evenodd" clip-rule="evenodd" d="M7.84736 14.2529C7.84736 13.8663 8.16076 13.5529 8.54736 13.5529H13.9678C14.3544 13.5529 14.6678 13.8663 14.6678 14.2529C14.6678 14.6395 14.3544 14.9529 13.9678 14.9529H8.54736C8.16076 14.9529 7.84736 14.6395 7.84736 14.2529Z" fill="#333333"/>
<path fill-rule="evenodd" clip-rule="evenodd" d="M7.84742 10.7547C7.84742 10.3681 8.16083 10.0547 8.54742 10.0547H12.6127C12.9993 10.0547 13.3127 10.3681 13.3127 10.7547C13.3127 11.1413 12.9993 11.4547 12.6127 11.4547H8.54742C8.16083 11.4547 7.84742 11.1413 7.84742 10.7547Z" fill="#333333"/>
<path fill-rule="evenodd" clip-rule="evenodd" d="M21.7467 5.7277C22.0352 5.9851 22.0604 6.4276 21.803 6.71606L17.9159 11.0723C17.6597 11.3594 17.2198 11.3859 16.931 11.1316L14.4573 8.95347C14.1672 8.69798 14.1391 8.25566 14.3946 7.96551C14.65 7.67536 15.0924 7.64726 15.3825 7.90274L17.3342 9.6213L20.7584 5.78394C21.0158 5.49549 21.4583 5.47031 21.7467 5.7277Z" fill="#333333"/>
</svg>
