<svg width="24" height="24" viewBox="0 0 24 24" fill="none" xmlns="http://www.w3.org/2000/svg">
<path d="M14.9943 4.90024C16.0387 4.16634 17.4639 4.98915 17.3505 6.26059L16.2888 18.1757C16.1746 19.4552 14.6237 19.9922 13.7406 19.1108L13.6571 19.0209L10.8618 15.7708C10.64 15.513 10.3367 15.3379 10.0025 15.2747L5.79019 14.4789L5.67063 14.4516C4.46573 14.1275 4.15532 12.5159 5.20638 11.7772L14.9943 4.90024ZM15.9068 6.04049C15.8828 6.02665 15.8617 6.02326 15.85 6.02352C15.8448 6.02364 15.8394 6.02462 15.8337 6.02648C15.8281 6.02833 15.8166 6.03288 15.7993 6.04498L6.01175 12.9233C5.99211 12.9371 5.98316 12.9469 5.97989 12.9511C5.97655 12.9555 5.9742 12.9595 5.97257 12.9638C5.96877 12.9743 5.96514 12.9972 5.97144 13.0263C5.97777 13.0552 5.99059 13.0734 5.99833 13.0813C6.00167 13.0847 6.00508 13.0877 6.01004 13.0903C6.01472 13.0928 6.0266 13.0988 6.04996 13.1032L10.2623 13.899C10.9082 14.0211 11.4938 14.3592 11.9225 14.8575L14.7187 18.1081C14.7342 18.1261 14.7453 18.1335 14.7498 18.1362C14.7546 18.1392 14.7588 18.1407 14.7635 18.1419C14.7742 18.1446 14.7963 18.1466 14.8245 18.1377C14.8529 18.1285 14.8701 18.1135 14.8772 18.1049C14.8802 18.1013 14.8833 18.0979 14.8854 18.0927C14.8875 18.0878 14.8914 18.0751 14.8936 18.0512L15.9566 6.1358C15.9585 6.11409 15.9558 6.10178 15.9546 6.0963C15.9534 6.0905 15.9523 6.08569 15.9498 6.08114C15.9442 6.07088 15.9307 6.05432 15.9068 6.04049Z" fill="#15C674"/>
</svg>
