<svg width="24" height="24" viewBox="0 0 24 24" fill="none" xmlns="http://www.w3.org/2000/svg">
<path d="M12 20.0801C12.3866 20.0801 12.7002 20.3937 12.7002 20.7803V21.5352C12.7001 21.9216 12.3865 22.2353 12 22.2354C11.6135 22.2354 11.2999 21.9216 11.2998 21.5352V20.7803C11.2998 20.3937 11.6134 20.0801 12 20.0801Z" fill="#15C674"/>
<path d="M5.29688 17.7129C5.57028 17.44 6.01389 17.4397 6.28711 17.7129C6.56031 17.9861 6.56004 18.4297 6.28711 18.7031L5.75293 19.2373C5.47957 19.5107 5.03606 19.5106 4.7627 19.2373C4.48933 18.9639 4.48933 18.5204 4.7627 18.2471L5.29688 17.7129Z" fill="#15C674"/>
<path d="M17.7129 17.7129C17.9861 17.4397 18.4297 17.44 18.7031 17.7129L19.2373 18.2471C19.5107 18.5204 19.5106 18.9639 19.2373 19.2373C18.9639 19.5107 18.5204 19.5107 18.2471 19.2373L17.7129 18.7031C17.44 18.4297 17.4397 17.9861 17.7129 17.7129Z" fill="#15C674"/>
<path fill-rule="evenodd" clip-rule="evenodd" d="M10.8145 7.65625C11.3375 7.50117 11.8348 7.65956 12.1777 7.97266C12.5092 8.27551 12.7001 8.72021 12.7002 9.18457V14.8154C12.7002 15.2797 12.509 15.7235 12.1777 16.0264C11.8777 16.3005 11.4599 16.4559 11.0098 16.3867L10.8145 16.3428C8.98299 15.7988 7.67488 14.0444 7.6748 12C7.67494 9.95557 8.98295 8.20012 10.8145 7.65625ZM11.2129 8.99902C9.99916 9.35958 9.07533 10.5504 9.0752 12C9.07527 13.4497 9.99907 14.6404 11.2129 15.001L11.2188 15.0039C11.221 15.0028 11.2263 14.9996 11.2334 14.9932C11.2626 14.9662 11.3007 14.9027 11.3008 14.8154V9.18457C11.3007 9.09703 11.2626 9.03357 11.2334 9.00684C11.2261 9.00014 11.2209 8.99715 11.2188 8.99609L11.2129 8.99902Z" fill="#15C674"/>
<path fill-rule="evenodd" clip-rule="evenodd" d="M12 4.74121C16.0088 4.74121 19.2588 7.99119 19.2588 12C19.2588 16.0088 16.0088 19.2588 12 19.2588C7.99119 19.2588 4.74121 16.0088 4.74121 12C4.74123 7.9912 7.9912 4.74123 12 4.74121ZM12 6.1416C8.7644 6.14162 6.14162 8.7644 6.1416 12C6.1416 15.2356 8.76439 17.8584 12 17.8584C15.2356 17.8584 17.8584 15.2356 17.8584 12C17.8584 8.76439 15.2356 6.1416 12 6.1416Z" fill="#15C674"/>
<path d="M3.21973 11.2998C3.60633 11.2998 3.91992 11.6134 3.91992 12C3.91992 12.3866 3.60633 12.7002 3.21973 12.7002H2.46484C2.07833 12.7001 1.76465 12.3865 1.76465 12C1.76465 11.6135 2.07833 11.2999 2.46484 11.2998H3.21973Z" fill="#15C674"/>
<path d="M21.5352 11.2998C21.9216 11.2999 22.2354 11.6135 22.2354 12C22.2354 12.3865 21.9216 12.7001 21.5352 12.7002H20.7803C20.3937 12.7002 20.0801 12.3866 20.0801 12C20.0801 11.6134 20.3937 11.2998 20.7803 11.2998H21.5352Z" fill="#15C674"/>
<path d="M4.7627 4.7627C5.03607 4.48936 5.47957 4.48934 5.75293 4.7627L6.28613 5.29688C6.5595 5.57024 6.5595 6.01374 6.28613 6.28711C6.01273 6.56002 5.56911 6.56032 5.2959 6.28711L4.7627 5.75293C4.48933 5.47956 4.48933 5.03606 4.7627 4.7627Z" fill="#15C674"/>
<path d="M18.2471 4.7627C18.5204 4.48933 18.9639 4.48933 19.2373 4.7627C19.5106 5.03607 19.5107 5.47957 19.2373 5.75293L18.7031 6.28711C18.4297 6.56003 17.9861 6.5603 17.7129 6.28711C17.4397 6.01389 17.44 5.57028 17.7129 5.29688L18.2471 4.7627Z" fill="#15C674"/>
<path d="M12 1.76465C12.3865 1.76465 12.7001 2.07836 12.7002 2.46484V3.21973C12.7002 3.60633 12.3866 3.91992 12 3.91992C11.6134 3.91992 11.2998 3.60633 11.2998 3.21973V2.46484C11.2999 2.07836 11.6135 1.76465 12 1.76465Z" fill="#15C674"/>
</svg>
