<svg width="24" height="24" viewBox="0 0 24 24" fill="none" xmlns="http://www.w3.org/2000/svg">
<path d="M18.9568 8.45261C19.7804 9.03746 20.3191 9.99749 20.3191 11.0844V16.2759C20.319 18.0581 18.8739 19.5033 17.0915 19.5034H9.57103C8.44008 19.5034 7.44525 18.9211 6.86888 18.0405C7.0835 18.0998 7.30924 18.1343 7.54271 18.1343H16.4304C16.5631 18.1342 16.6929 18.1208 16.8201 18.101H17.0915C18.0995 18.101 18.9166 17.2838 18.9167 16.2759V16.0385C18.9408 15.8984 18.9568 15.7549 18.9568 15.6079V8.45261Z" fill="#15C674"/>
<path d="M16.6914 7.38281C16.6913 6.61902 16.0724 6 15.3086 6H6.43359C5.66988 6.00012 5.0509 6.61909 5.05078 7.38281V14.4941C5.05078 15.258 5.6698 15.8778 6.43359 15.8779H15.3086C16.0725 15.8779 16.6914 15.258 16.6914 14.4941V7.38281ZM18.0938 14.4941C18.0938 16.0324 16.8469 17.2803 15.3086 17.2803H6.43359C4.89544 17.2802 3.64844 16.0323 3.64844 14.4941V7.38281C3.64856 5.84473 4.89551 4.59778 6.43359 4.59766H15.3086C16.8468 4.59766 18.0936 5.84466 18.0938 7.38281V14.4941Z" fill="#15C674"/>
<path d="M14.1781 10.0697L14.3197 10.0843C14.6392 10.1497 14.8793 10.4321 14.8793 10.7709C14.8793 11.1097 14.6392 11.3921 14.3197 11.4574L14.1781 11.472H7.19665C6.80947 11.472 6.49548 11.158 6.49548 10.7709C6.49548 10.3837 6.80947 10.0697 7.19665 10.0697H14.1781Z" fill="#15C674"/>
<path d="M14.1789 8.7132L14.3195 8.69855C14.6391 8.63327 14.8801 8.35089 14.8801 8.01203C14.8801 7.67316 14.6391 7.39078 14.3195 7.3255L14.1789 7.31086L10.4865 7.31085C10.0994 7.31085 9.78536 7.62485 9.78536 8.01203C9.78536 8.39921 10.0994 8.7132 10.4865 8.7132H14.1789Z" fill="#15C674"/>
<path d="M8.12438 7.31086L8.26599 7.3255C8.58526 7.39101 8.82556 7.67337 8.82556 8.01203C8.82556 8.35068 8.58526 8.63304 8.26599 8.69855L8.12438 8.7132H7.04431C6.65712 8.7132 6.34313 8.39921 6.34313 8.01203C6.34313 7.62485 6.65712 7.31086 7.04431 7.31086H8.12438Z" fill="#15C674"/>
<path d="M11.3724 12.8538L11.514 12.8685C11.8335 12.9338 12.0736 13.2162 12.0736 13.555C12.0736 13.8938 11.8335 14.1762 11.514 14.2415L11.3724 14.2562H7.19665C6.80947 14.2562 6.49548 13.9422 6.49548 13.555C6.49548 13.1678 6.80947 12.8538 7.19665 12.8538H11.3724Z" fill="#15C674"/>
</svg>
