<svg width="24" height="24" viewBox="0 0 24 24" fill="none" xmlns="http://www.w3.org/2000/svg">
<path fill-rule="evenodd" clip-rule="evenodd" d="M8.58566 12.9759C9.40122 12.5271 10.372 12.3945 11.225 12.3945C12.0779 12.3945 13.0487 12.5271 13.8643 12.9759C14.7161 13.4446 15.3627 14.2425 15.5206 15.4485C15.6195 16.2034 14.9917 16.7391 14.3579 16.7391H8.09206C7.45824 16.7391 6.83042 16.2034 6.92927 15.4485C7.08719 14.2425 7.73382 13.4446 8.58566 12.9759ZM8.37301 15.3391H14.0769C13.9331 14.7795 13.6088 14.4333 13.1893 14.2024C12.6651 13.914 11.9622 13.7945 11.225 13.7945C10.4877 13.7945 9.78479 13.914 9.26062 14.2024C8.84112 14.4333 8.51684 14.7795 8.37301 15.3391Z" fill="#333333"/>
<path fill-rule="evenodd" clip-rule="evenodd" d="M11.216 12.0394C9.03797 12.0394 8.5262 8.80263 10.0683 7.65888C10.3243 7.46895 10.8165 7.29004 11.216 7.29004C14.0566 7.29004 13.8308 12.0394 11.216 12.0394ZM10.615 9.98003C10.4883 9.39827 10.6958 8.94473 10.894 8.78961C10.8982 8.78726 10.9058 8.78305 10.9174 8.77736C10.9461 8.76324 10.9856 8.74659 11.0319 8.73112C11.0781 8.71569 11.1222 8.7044 11.1597 8.69744C11.195 8.69088 11.2138 8.69013 11.2159 8.69005C11.216 8.69005 11.2161 8.69004 11.2159 8.69005C11.4853 8.69005 11.592 8.7797 11.6663 8.87772C11.7737 9.01949 11.8704 9.28377 11.8622 9.63145C11.8539 9.97781 11.7439 10.2692 11.6113 10.4406C11.504 10.5793 11.3927 10.6394 11.216 10.6394C11.0486 10.6394 10.9552 10.5882 10.8774 10.5125C10.7796 10.4174 10.6718 10.2407 10.615 9.98003Z" fill="#333333"/>
<path fill-rule="evenodd" clip-rule="evenodd" d="M4.7002 6.7C4.7002 5.20883 5.90903 4 7.4002 4H15.0002C16.4914 4 17.7002 5.20883 17.7002 6.7V17.3C17.7002 17.7706 17.5798 18.2131 17.3681 18.5984C18.0544 18.5629 18.6 17.9952 18.6 17.3001V8.70008L18.5999 8.68401V6.33301C19.4345 6.79231 20 7.68015 20 8.70008V17.3001C20 18.7913 18.7911 20.0001 17.3 20.0001H9.69995L9.674 20H7.40019C5.90903 20 4.7002 18.7912 4.7002 17.3V6.7ZM7.4002 5.4H15.0002C15.7182 5.4 16.3002 5.98203 16.3002 6.7V17.3C16.3002 18.018 15.7182 18.6 15.0002 18.6H7.40019C6.68222 18.6 6.1002 18.018 6.1002 17.3V6.7C6.1002 5.98203 6.68222 5.4 7.4002 5.4Z" fill="#333333"/>
</svg>
