<svg width="24" height="24" viewBox="0 0 24 24" fill="none" xmlns="http://www.w3.org/2000/svg">
<path d="M8.2002 14.8438C8.72801 14.8439 9.15625 15.272 9.15625 15.7998C9.15614 16.3276 8.72795 16.7558 8.2002 16.7559C7.67235 16.7559 7.24425 16.3276 7.24414 15.7998C7.24414 15.2719 7.67229 14.8438 8.2002 14.8438Z" fill="#15C674"/>
<path fill-rule="evenodd" clip-rule="evenodd" d="M9.6084 12.6104C10.6147 12.7128 11.4004 13.5623 11.4004 14.5957V17.0039L11.3896 17.208C11.2941 18.1471 10.5475 18.8937 9.6084 18.9893L9.4043 19H6.99609L6.79199 18.9893C5.8527 18.8939 5.10633 18.1472 5.01074 17.208L5 17.0039V14.5957C5 13.5622 5.78548 12.7126 6.79199 12.6104L6.99609 12.5996H9.4043L9.6084 12.6104ZM6.99609 14C6.66689 14 6.40039 14.2665 6.40039 14.5957V17.0039C6.40059 17.3329 6.66701 17.5996 6.99609 17.5996H9.4043C9.7332 17.5994 9.9998 17.3328 10 17.0039V14.5957C10 14.2666 9.73333 14.0002 9.4043 14H6.99609Z" fill="#15C674"/>
<path d="M15.7998 14.8438C16.3276 14.8439 16.7559 15.272 16.7559 15.7998C16.7558 16.3276 16.3276 16.7558 15.7998 16.7559C15.272 16.7559 14.8439 16.3276 14.8438 15.7998C14.8438 15.2719 15.2719 14.8438 15.7998 14.8438Z" fill="#15C674"/>
<path fill-rule="evenodd" clip-rule="evenodd" d="M17.208 12.6104C18.2143 12.7128 19 13.5623 19 14.5957V17.0039L18.9893 17.208C18.8937 18.1471 18.1471 18.8937 17.208 18.9893L17.0039 19H14.5957L14.3916 18.9893C13.4523 18.8939 12.7059 18.1472 12.6104 17.208L12.5996 17.0039V14.5957C12.5996 13.5622 13.3851 12.7126 14.3916 12.6104L14.5957 12.5996H17.0039L17.208 12.6104ZM14.5957 14C14.2665 14 14 14.2665 14 14.5957V17.0039C14.0002 17.3329 14.2666 17.5996 14.5957 17.5996H17.0039C17.3328 17.5994 17.5994 17.3328 17.5996 17.0039V14.5957C17.5996 14.2666 17.3329 14.0002 17.0039 14H14.5957Z" fill="#15C674"/>
<path d="M8.2002 7.24414C8.72801 7.24425 9.15625 7.67235 9.15625 8.2002C9.15614 8.72795 8.72795 9.15614 8.2002 9.15625C7.67235 9.15625 7.24425 8.72801 7.24414 8.2002C7.24414 7.67229 7.67229 7.24414 8.2002 7.24414Z" fill="#15C674"/>
<path fill-rule="evenodd" clip-rule="evenodd" d="M9.6084 5.01074C10.6147 5.11316 11.4004 5.96274 11.4004 6.99609V9.4043L11.3896 9.6084C11.2941 10.5475 10.5475 11.2941 9.6084 11.3896L9.4043 11.4004H6.99609L6.79199 11.3896C5.8527 11.2943 5.10633 10.5476 5.01074 9.6084L5 9.4043V6.99609C5 5.96261 5.78548 5.11298 6.79199 5.01074L6.99609 5H9.4043L9.6084 5.01074ZM6.99609 6.40039C6.66689 6.40039 6.40039 6.66689 6.40039 6.99609V9.4043C6.40059 9.73333 6.66701 10 6.99609 10H9.4043C9.7332 9.9998 9.9998 9.73321 10 9.4043V6.99609C10 6.66702 9.73333 6.40059 9.4043 6.40039H6.99609Z" fill="#15C674"/>
<path fill-rule="evenodd" clip-rule="evenodd" d="M17.208 5.01074C18.2143 5.11316 19 5.96274 19 6.99609V9.4043L18.9893 9.6084C18.8937 10.5475 18.1471 11.2941 17.208 11.3896L17.0039 11.4004H14.5957L14.3916 11.3896C13.4523 11.2943 12.7059 10.5476 12.6104 9.6084L12.5996 9.4043V6.99609C12.5996 5.96261 13.3851 5.11298 14.3916 5.01074L14.5957 5H17.0039L17.208 5.01074ZM14.5957 6.40039C14.2665 6.40039 14 6.66689 14 6.99609V9.4043C14.0002 9.73333 14.2666 10 14.5957 10H17.0039C17.3328 9.9998 17.5994 9.73321 17.5996 9.4043V6.99609C17.5996 6.66702 17.3329 6.40059 17.0039 6.40039H14.5957Z" fill="#15C674"/>
</svg>
