<svg width="24" height="24" viewBox="0 0 24 24" fill="none" xmlns="http://www.w3.org/2000/svg">
<path d="M8.17448 6.09961C7.68823 6.09961 7.31902 5.64681 7.56633 5.22814C8.03613 4.43286 8.90211 3.89941 9.89268 3.89941H17.211C18.7022 3.89941 19.911 5.10825 19.911 6.59941V13.9178C19.911 14.9061 19.38 15.7704 18.5877 16.2409C18.1688 16.4897 17.7148 16.1201 17.7148 15.633C17.7148 15.3201 17.9199 15.0515 18.139 14.8282C18.3691 14.5936 18.511 14.2723 18.511 13.9178V6.59941C18.511 5.88144 17.929 5.29941 17.211 5.29941H9.89268C9.53715 5.29941 9.21495 5.44214 8.98025 5.67342C8.75693 5.89349 8.48802 6.09961 8.17448 6.09961Z" fill="#333333"/>
<path fill-rule="evenodd" clip-rule="evenodd" d="M6.64141 7.26074C5.15024 7.26074 3.94141 8.46957 3.94141 9.96074V17.2791C3.94141 18.7703 5.15024 19.9791 6.64141 19.9791H13.9598C15.4509 19.9791 16.6598 18.7703 16.6598 17.2791V9.96074C16.6598 8.46957 15.4509 7.26074 13.9598 7.26074H6.64141ZM5.34141 9.96074C5.34141 9.24277 5.92344 8.66074 6.64141 8.66074H13.9598C14.6777 8.66074 15.2598 9.24277 15.2598 9.96074V17.2791C15.2598 17.9971 14.6777 18.5791 13.9598 18.5791H6.64141C5.92344 18.5791 5.34141 17.9971 5.34141 17.2791V9.96074Z" fill="#333333"/>
</svg>
