<svg width="24" height="24" viewBox="0 0 24 24" fill="none" xmlns="http://www.w3.org/2000/svg">
<path fill-rule="evenodd" clip-rule="evenodd" d="M17.1 9.02772C17.1008 8.69142 16.9615 8.35383 16.7322 8.12173L14.4071 5.7656C14.1785 5.53378 13.8536 5.39922 13.5386 5.4L13.5351 5.40001L8.13158 5.40001C7.4842 5.40001 6.9 5.97456 6.9 6.66667V17.3334C6.9 18.0254 7.48421 18.6 8.13158 18.6H15.8684C16.5158 18.6 17.1 18.0254 17.1 17.3334V9.02772ZM13.5351 4.00001H8.13158C6.68353 4.00001 5.5 5.22912 5.5 6.66667V17.3334C5.5 18.7709 6.68355 20 8.13158 20H15.8684C17.3165 20 18.5 18.7709 18.5 17.3334V9.03112C18.5017 8.32797 18.219 7.63469 17.7281 7.13778L15.4035 4.78223C14.9131 4.28472 14.229 3.99828 13.5351 4.00001Z" fill="#333333"/>
<path fill-rule="evenodd" clip-rule="evenodd" d="M13.3945 4.3C13.7811 4.3 14.0945 4.6134 14.0945 5V7.7095C14.0945 7.89051 14.1667 8.06463 14.296 8.19342C14.4253 8.32229 14.6015 8.39522 14.7857 8.39522H17.4902C17.8768 8.39522 18.1902 8.70862 18.1902 9.09521C18.1902 9.48181 17.8768 9.79521 17.4902 9.79521H14.7857C14.232 9.79521 13.7003 9.57614 13.3079 9.18528C12.9155 8.79433 12.6945 8.26352 12.6945 7.7095V5C12.6945 4.6134 13.0079 4.3 13.3945 4.3Z" fill="#333333"/>
<path fill-rule="evenodd" clip-rule="evenodd" d="M8.78584 13.251C8.78584 12.8644 9.09924 12.551 9.48584 12.551H14.3687C14.7553 12.551 15.0687 12.8644 15.0687 13.251C15.0687 13.6376 14.7553 13.951 14.3687 13.951H9.48584C9.09924 13.951 8.78584 13.6376 8.78584 13.251Z" fill="#333333"/>
<path fill-rule="evenodd" clip-rule="evenodd" d="M11.9272 10.1096C12.3138 10.1096 12.6272 10.423 12.6272 10.8096V15.6924C12.6272 16.079 12.3138 16.3924 11.9272 16.3924C11.5406 16.3924 11.2272 16.079 11.2272 15.6924V10.8096C11.2272 10.423 11.5406 10.1096 11.9272 10.1096Z" fill="#333333"/>
</svg>
