<svg width="24" height="24" viewBox="0 0 24 24" fill="none" xmlns="http://www.w3.org/2000/svg">
<path fill-rule="evenodd" clip-rule="evenodd" d="M18.1526 4.30756C17.6841 3.83895 16.9244 3.83888 16.4557 4.30739L10.0762 10.6848C9.73735 11.0236 9.49474 11.4464 9.37328 11.9099L8.87699 13.8038C8.70226 14.4705 9.31125 15.0782 9.97764 14.902L11.8822 14.3985C12.3433 14.2766 12.7638 14.0347 13.1011 13.6975L19.4737 7.32588C19.9423 6.85727 19.9424 6.09745 19.4738 5.62879L18.1526 4.30756ZM11.5783 11.1628L15.5777 7.16468L16.6162 8.20315L12.6171 12.2016L11.5783 11.1628ZM17.6062 7.21328L16.5678 6.17489L17.304 5.43888L18.3424 6.47727L17.6062 7.21328ZM10.7219 12.2863L10.4486 13.3294L11.4897 13.0541L10.7219 12.2863Z" fill="#333333"/>
<path d="M11.3 4.6748C11.6866 4.6748 12 4.98821 12 5.3748C12 5.7614 11.6866 6.0748 11.3 6.0748H7.18486C6.46689 6.0748 5.88486 6.65684 5.88486 7.37481V16.6248C5.88486 17.3428 6.46689 17.9248 7.18486 17.9248H16.8151C17.5331 17.9248 18.1151 17.3428 18.1151 16.6248V11.6998C18.1151 11.3132 18.4285 10.9998 18.8151 10.9998C19.2017 10.9998 19.5151 11.3132 19.5151 11.6998V16.6248C19.5151 18.116 18.3063 19.3248 16.8151 19.3248H7.18486C5.69369 19.3248 4.48486 18.116 4.48486 16.6248V7.37481C4.48486 5.88364 5.69369 4.6748 7.18486 4.6748H11.3Z" fill="#333333"/>
</svg>
