<svg width="24" height="24" viewBox="0 0 24 24" fill="none" xmlns="http://www.w3.org/2000/svg">
<path d="M17.292 12.4648C18.2307 12.4651 18.9922 13.2263 18.9922 14.165V17.7891C18.9922 18.7278 18.2307 19.489 17.292 19.4893H11.6602C11.2736 19.4893 10.96 19.1757 10.96 18.7891C10.9601 18.4026 11.2737 18.0898 11.6602 18.0898H17.292C17.4575 18.0896 17.5918 17.9546 17.5918 17.7891V14.165C17.5918 13.9995 17.4575 13.8655 17.292 13.8652H11.6602C11.2736 13.8652 10.96 13.5516 10.96 13.165C10.96 12.7784 11.2736 12.4648 11.6602 12.4648H17.292Z" fill="#15C674"/>
<path d="M7.22266 13.8936C7.45562 13.6483 7.82436 13.6089 8.10059 13.7812L8.21289 13.8682L9.89746 15.4678C10.0365 15.5999 10.1152 15.7837 10.1152 15.9756C10.1152 16.1674 10.0365 16.3513 9.89746 16.4834L8.21289 18.083L8.10059 18.1699C7.82441 18.3422 7.4556 18.3027 7.22266 18.0576C6.98965 17.8122 6.9697 17.4418 7.15625 17.1748L7.24805 17.0674L7.67871 16.6582H4.73926C4.35288 16.6579 4.03906 16.3444 4.03906 15.958C4.03906 15.5714 4.35364 15.2578 4.74023 15.2578H7.64258L7.24805 14.8838L7.15625 14.7764C6.96961 14.5094 6.98967 14.139 7.22266 13.8936Z" fill="#15C674"/>
<path d="M17.292 4.50781C18.2307 4.50808 18.9922 5.26929 18.9922 6.20801V9.83203C18.9922 10.7708 18.2307 11.532 17.292 11.5322H11.6602C11.2736 11.5322 10.96 11.2186 10.96 10.832C10.9601 10.4456 11.2737 10.1328 11.6602 10.1328H17.292C17.4575 10.1325 17.5918 9.99755 17.5918 9.83203V6.20801C17.5918 6.04249 17.4575 5.90847 17.292 5.9082H11.6602C11.2736 5.9082 10.96 5.59461 10.96 5.20801C10.96 4.82141 11.2736 4.50781 11.6602 4.50781H17.292Z" fill="#15C674"/>
<path d="M7.22266 5.94043C7.45562 5.69519 7.82436 5.65576 8.10059 5.82812L8.21289 5.91504L9.89746 7.51465C10.0365 7.6468 10.1152 7.83062 10.1152 8.02246C10.1152 8.21429 10.0365 8.39815 9.89746 8.53027L8.21289 10.1299L8.10059 10.2168C7.82441 10.3891 7.4556 10.3496 7.22266 10.1045C6.98965 9.85911 6.9697 9.48867 7.15625 9.22168L7.24805 9.11426L7.68359 8.70117H4.60449C4.21791 8.70116 3.9043 8.38757 3.9043 8.00098C3.9043 7.61439 4.21791 7.3008 4.60449 7.30078H7.6377L7.24805 6.93066L7.15625 6.82324C6.96961 6.55626 6.98967 6.18585 7.22266 5.94043Z" fill="#15C674"/>
</svg>
