<svg width="24" height="24" viewBox="0 0 24 24" fill="none" xmlns="http://www.w3.org/2000/svg">
<path d="M17.6583 6C18.597 6.00022 19.3585 6.76145 19.3585 7.7002V16.3018C19.3584 17.2405 18.5969 18.0017 17.6583 18.002H11.2784C10.8918 18.0019 10.5782 17.6883 10.5782 17.3018C10.5782 16.9152 10.8918 16.6016 11.2784 16.6016H17.6583C17.8237 16.6013 17.958 16.4673 17.9581 16.3018V7.7002C17.9581 7.53464 17.8238 7.40061 17.6583 7.40039H11.2784C10.8918 7.40036 10.5782 7.08678 10.5782 6.7002C10.5782 6.31361 10.8918 6.00003 11.2784 6H17.6583Z" fill="#15C674"/>
<path d="M6.21002 13.0547L8.6192 13.6152C8.80606 13.6588 8.9674 13.7779 9.06451 13.9434C9.16138 14.1088 9.18591 14.307 9.13287 14.4912L8.4483 16.8682L8.39557 17C8.24455 17.2881 7.90683 17.4399 7.58209 17.3467C7.21061 17.2396 6.99554 16.851 7.1026 16.4795L7.30963 15.7578L4.52838 17.3867C4.19481 17.5816 3.76557 17.4692 3.57037 17.1357C3.37527 16.8021 3.48782 16.373 3.82135 16.1777L6.56158 14.5732L5.89264 14.418L5.75885 14.3721C5.46295 14.2362 5.29355 13.9066 5.37018 13.5771C5.44711 13.2481 5.7442 13.0275 6.06939 13.0361L6.21002 13.0547Z" fill="#15C674"/>
<path d="M7.48834 6.63281C7.81177 6.53494 8.15163 6.6828 8.3067 6.96875L8.36139 7.09961L9.08014 9.4668C9.13575 9.65031 9.11328 9.84886 9.01861 10.0156C8.92385 10.1825 8.76441 10.3034 8.57818 10.3496L6.17779 10.9443L6.03717 10.9648C5.71232 10.9781 5.41191 10.7622 5.33014 10.4346C5.23712 10.0593 5.46566 9.67897 5.84088 9.58594L6.54107 9.41113L4.02154 8.02637C3.68306 7.83999 3.55995 7.41384 3.74615 7.0752C3.93254 6.7368 4.35775 6.61368 4.69635 6.7998L7.22955 8.19238L7.02154 7.50684L6.9942 7.36719C6.96411 7.04308 7.16473 6.73106 7.48834 6.63281Z" fill="#15C674"/>
</svg>
