<svg width="24" height="24" viewBox="0 0 24 24" fill="none" xmlns="http://www.w3.org/2000/svg">
<path d="M15.5022 6.12793C15.5808 6.12793 15.6563 6.14086 15.7267 6.1647C15.9219 6.21253 16.0952 6.34362 16.19 6.53846L17.9104 10.0747C18.1014 9.68439 18.2837 9.3183 18.4651 8.95402L18.5037 8.87648C18.8602 8.16058 19.2159 7.44439 19.6355 6.54793C19.7362 6.33282 19.9323 6.19289 20.1498 6.15495C20.2112 6.13735 20.276 6.12793 20.3431 6.12793C20.7297 6.12793 21.0431 6.44133 21.0431 6.82793V17.137C21.0431 17.5236 20.7297 17.837 20.3431 17.837C19.9565 17.837 19.6431 17.5236 19.6431 17.137V9.72918C19.3244 10.3693 19.0048 11.0142 18.6376 11.7933C18.3529 12.3972 17.49 12.4107 17.1941 11.8025L16.2022 9.76384V17.137C16.2022 17.5236 15.8888 17.837 15.5022 17.837C15.1156 17.837 14.8022 17.5236 14.8022 17.137V6.82793C14.8022 6.44133 15.1156 6.12793 15.5022 6.12793Z" fill="#333333"/>
<path d="M2.95312 9.33379C2.95312 7.56647 4.38581 6.13379 6.15313 6.13379H6.88359C7.27019 6.13379 7.58359 6.44719 7.58359 6.83379C7.58359 7.22039 7.27019 7.53379 6.88359 7.53379H6.15313C5.15901 7.53379 4.35312 8.33967 4.35312 9.33379V14.6175C4.35312 15.6116 5.15901 16.4175 6.15313 16.4175H6.88359C7.27019 16.4175 7.58359 16.7309 7.58359 17.1175C7.58359 17.5041 7.27019 17.8175 6.88359 17.8175H6.15313C4.38581 17.8175 2.95312 16.3848 2.95312 14.6175V9.33379Z" fill="#333333"/>
<path fill-rule="evenodd" clip-rule="evenodd" d="M10.1819 13.6025C10.4463 13.6025 10.7034 13.5715 10.9498 13.5127L12.1262 17.4231C12.2377 17.7936 12.6299 18.0104 13.0022 17.9074C13.3745 17.8044 13.5859 17.4205 13.4744 17.05L12.2278 12.9064L12.2242 12.8948C12.9902 12.2905 13.4819 11.3539 13.4819 10.3025V9.44678C13.4819 7.62424 12.0045 6.14678 10.1819 6.14678L9.15802 6.14678C8.77142 6.14678 8.45802 6.46018 8.45802 6.84678V6.98915C8.45704 7.0043 8.45654 7.01957 8.45654 7.03496V17.1401C8.45654 17.5267 8.76994 17.8401 9.15654 17.8401C9.54314 17.8401 9.85654 17.5267 9.85654 17.1401V13.6025H10.1819ZM9.85654 11.3428C9.85752 11.3579 9.85802 11.3732 9.85802 11.3886V12.2025H10.1819C11.2313 12.2025 12.0819 11.3519 12.0819 10.3025V9.44678C12.0819 8.39744 11.2313 7.54678 10.1819 7.54678H9.85802V8.51934C9.85802 8.53473 9.85752 8.55 9.85654 8.56514V11.3428Z" fill="#333333"/>
</svg>
