<svg width="24" height="24" viewBox="0 0 24 24" fill="none" xmlns="http://www.w3.org/2000/svg">
<path d="M5.85254 5.69141C7.34371 5.69141 8.55273 6.90043 8.55273 8.3916V11.2734H10.7979L10.3887 10.8848C10.1084 10.6186 10.0971 10.1749 10.3633 9.89453C10.6295 9.61462 11.0723 9.60328 11.3525 9.86914L13.0547 11.4854C13.1935 11.6173 13.2723 11.8006 13.2725 11.9922C13.2725 12.1839 13.1936 12.3679 13.0547 12.5L11.3525 14.1162L11.2402 14.2031C10.9641 14.3751 10.5961 14.3357 10.3633 14.0908C10.0971 13.8105 10.1083 13.3668 10.3887 13.1006L10.8389 12.6738H8.55273V15.3447C8.55256 16.8358 7.3436 18.0439 5.85254 18.0439H5.38281C4.99632 18.0439 4.68279 17.7312 4.68262 17.3447C4.68262 16.9581 4.99621 16.6445 5.38281 16.6445H5.85254C6.5704 16.6445 7.15217 16.0626 7.15234 15.3447V12.6738H5.46191C5.07531 12.6738 4.76172 12.3602 4.76172 11.9736C4.76172 11.587 5.07531 11.2734 5.46191 11.2734H7.15234V8.3916C7.15234 7.67363 6.57051 7.0918 5.85254 7.0918H5.38281C4.99621 7.0918 4.68262 6.7782 4.68262 6.3916C4.68262 6.005 4.99621 5.69141 5.38281 5.69141H5.85254Z" fill="#15C674"/>
<path d="M17.4785 6.00391C18.417 6.00443 19.1777 6.76554 19.1777 7.7041V16.3057C19.1777 17.2442 18.4169 18.0053 17.4785 18.0059H11.6123C11.2258 18.0058 10.9121 17.6922 10.9121 17.3057C10.9121 16.9191 11.2257 16.6055 11.6123 16.6055H17.4785C17.6437 16.6049 17.7783 16.471 17.7783 16.3057V7.7041C17.7783 7.53874 17.6438 7.40482 17.4785 7.4043H11.6123C11.2257 7.40427 10.9121 7.09069 10.9121 6.7041C10.9121 6.31752 11.2257 6.00393 11.6123 6.00391H17.4785Z" fill="#15C674"/>
</svg>
