<svg width="24" height="24" viewBox="0 0 24 24" fill="none" xmlns="http://www.w3.org/2000/svg">
<path fill-rule="evenodd" clip-rule="evenodd" d="M3.97477 7.97183C3.37356 6.60574 4.37409 5.07227 5.86663 5.07227H18.8134C20.3059 5.07227 21.3065 6.60574 20.7053 7.97183L20.6844 8.01926C20.3543 8.76939 19.6121 9.25362 18.7925 9.25362H5.8875C5.06793 9.25362 4.32578 8.76939 3.99565 8.01926L3.97477 7.97183ZM5.86663 6.47227C5.38502 6.47227 5.06217 6.96708 5.25617 7.40789L5.27704 7.45532C5.38357 7.69737 5.62304 7.85362 5.8875 7.85362H18.7925C19.057 7.85362 19.2965 7.69737 19.403 7.45532L19.4239 7.40789C19.6179 6.96708 19.295 6.47227 18.8134 6.47227H5.86663Z" fill="#333333"/>
<path fill-rule="evenodd" clip-rule="evenodd" d="M6.01182 13.3704C5.43347 12.0073 6.4339 10.4961 7.91459 10.4961H16.7662C18.2468 10.4961 19.2473 12.0073 18.6689 13.3704L18.6488 13.4178C18.3248 14.1815 17.5756 14.6774 16.746 14.6774H7.93471C7.10515 14.6774 6.35596 14.1815 6.03194 13.4178L6.01182 13.3704ZM7.91459 11.8961C7.4368 11.8961 7.11399 12.3837 7.30061 12.8236L7.32073 12.871C7.42529 13.1174 7.66703 13.2774 7.93471 13.2774H16.746C17.0137 13.2774 17.2555 13.1174 17.36 12.871L17.3801 12.8236C17.5668 12.3837 17.2439 11.8961 16.7662 11.8961H7.91459Z" fill="#333333"/>
<path fill-rule="evenodd" clip-rule="evenodd" d="M10.5337 15.7969C9.01467 15.7969 8.01455 17.3805 8.6674 18.7522L8.68997 18.7996C9.03266 19.5196 9.75893 19.9782 10.5563 19.9782H14.1251C14.9225 19.9782 15.6488 19.5196 15.9915 18.7996L16.014 18.7522C16.6669 17.3805 15.6668 15.7969 14.1477 15.7969H10.5337ZM9.93151 18.1505C9.72085 17.7079 10.0436 17.1969 10.5337 17.1969H14.1477C14.6379 17.1969 14.9606 17.7079 14.7499 18.1505L14.7274 18.1979C14.6168 18.4302 14.3824 18.5782 14.1251 18.5782H10.5563C10.299 18.5782 10.0647 18.4302 9.95408 18.1979L9.93151 18.1505Z" fill="#333333"/>
</svg>
