<svg width="24" height="24" viewBox="0 0 24 24" fill="none" xmlns="http://www.w3.org/2000/svg">
<path fill-rule="evenodd" clip-rule="evenodd" d="M5.29047 18.486C5.56384 18.7594 6.00706 18.7594 6.28042 18.486L18.2804 6.48599C18.5538 6.21262 18.5538 5.76941 18.2804 5.49604C18.0071 5.22267 17.5638 5.22267 17.2905 5.49604L15.9966 6.78992C14.7775 6.13268 13.4249 5.75928 11.9318 5.79711C8.52 5.71055 5.74667 7.73876 3.8012 10.4176C3.78159 10.4446 3.75782 10.4764 3.73133 10.5118C3.6379 10.6367 3.51067 10.8069 3.41322 10.9715C3.27853 11.199 3.13916 11.5088 3.13916 11.8842C3.13916 12.2618 3.28036 12.5729 3.41742 12.8013C3.51889 12.9703 3.65012 13.142 3.74636 13.2678C3.77168 13.3009 3.79458 13.3309 3.81388 13.3568C4.61369 14.4301 5.54479 15.4089 6.59975 16.1868L5.29047 17.496C5.01711 17.7694 5.01711 18.2126 5.29047 18.486ZM13.4044 9.38208L14.9546 7.83191C14.0278 7.39726 13.0319 7.16715 11.9512 7.19709C11.9383 7.19744 11.9253 7.19744 11.9124 7.19709C9.12456 7.11987 6.73073 8.76623 4.93399 11.2403C4.88933 11.3018 4.84989 11.3546 4.81434 11.4022C4.73417 11.5095 4.67378 11.5904 4.61794 11.6847C4.54694 11.8046 4.53916 11.8612 4.53916 11.8842C4.53916 11.9063 4.54659 11.9621 4.61784 12.0809C4.67515 12.1763 4.73869 12.2597 4.82365 12.371C4.85753 12.4155 4.89483 12.4643 4.93648 12.5203C5.71799 13.569 6.61298 14.488 7.60265 15.1839L9.42886 13.3577C9.17373 12.9256 9.02734 12.4217 9.02734 11.8836C9.02734 10.2803 10.3271 8.98057 11.9304 8.98057C12.4685 8.98057 12.9724 9.12696 13.4044 9.38208ZM12.3474 10.4391L10.4859 12.3006C10.4478 12.1682 10.4273 12.0283 10.4273 11.8836C10.4273 11.0535 11.1003 10.3806 11.9304 10.3806C12.0751 10.3806 12.215 10.401 12.3474 10.4391Z" fill="#333333"/>
<path d="M18.9248 12.4865C16.9668 14.9459 14.7234 16.6474 11.9512 16.5707C11.9383 16.5704 11.9254 16.5704 11.9124 16.5707C11.4558 16.5833 10.9204 16.544 10.4946 16.4683C10.114 16.4006 9.75058 16.6542 9.68287 17.0349C9.61517 17.4155 9.86884 17.7789 10.2495 17.8466C10.7659 17.9385 11.3879 17.9843 11.9318 17.9707C15.3628 18.0574 17.9752 15.927 20.0201 13.3585C20.038 13.336 20.0584 13.3108 20.0807 13.2834C20.1828 13.1576 20.3233 12.9844 20.4336 12.8075C20.5757 12.5798 20.7215 12.2678 20.7215 11.8868C20.7215 11.5077 20.5786 11.196 20.4389 10.9673C20.3318 10.792 20.195 10.6186 20.0949 10.4918C20.0718 10.4625 20.0507 10.4357 20.0323 10.412C19.5748 9.82001 19.0895 9.25962 18.5739 8.7468C18.2998 8.47417 17.8566 8.47537 17.584 8.74947C17.3113 9.02358 17.3125 9.46679 17.5867 9.73942C18.0526 10.2029 18.4981 10.7163 18.9246 11.2681C18.9609 11.315 18.994 11.3571 19.0244 11.3959C19.1167 11.5133 19.1849 11.6001 19.2441 11.697C19.3149 11.813 19.3215 11.8669 19.3215 11.8868C19.3215 11.9027 19.3164 11.9533 19.2458 12.0665C19.1857 12.1628 19.1156 12.2496 19.0198 12.3683C18.9907 12.4043 18.9591 12.4434 18.9248 12.4865Z" fill="#333333"/>
<path d="M14.8335 11.8836C14.8335 11.7233 14.8205 11.566 14.7955 11.4128L11.4595 14.7487C11.6128 14.7737 11.7701 14.7867 11.9304 14.7867C13.5337 14.7867 14.8335 13.487 14.8335 11.8836Z" fill="#333333"/>
</svg>
