<svg width="24" height="24" viewBox="0 0 24 24" fill="none" xmlns="http://www.w3.org/2000/svg">
<path d="M9.42378 8.57515C9.18947 8.34084 8.80957 8.34084 8.57525 8.57515C8.34094 8.80946 8.34094 9.18936 8.57525 9.42368L11.151 11.9994L8.57515 14.5753C8.34084 14.8096 8.34084 15.1895 8.57515 15.4238C8.80946 15.6581 9.18936 15.6581 9.42368 15.4238L11.9995 12.8479L14.575 15.4234C14.8093 15.6577 15.1892 15.6577 15.4235 15.4234C15.6578 15.1891 15.6578 14.8092 15.4235 14.5749L12.848 11.9994L15.4234 9.42403C15.6577 9.18971 15.6577 8.80981 15.4234 8.5755C15.1891 8.34118 14.8092 8.34119 14.5749 8.5755L11.9995 11.1509L9.42378 8.57515Z" fill="#333333"/>
</svg>
