<svg width="24" height="24" viewBox="0 0 24 24" fill="none" xmlns="http://www.w3.org/2000/svg">
<path d="M8.45923 7.53999C8.20539 7.28615 7.79383 7.28615 7.53999 7.53999C7.28615 7.79383 7.28615 8.20539 7.53999 8.45923L11.0804 11.9996L7.53999 15.54C7.28615 15.7938 7.28615 16.2054 7.53999 16.4592C7.79383 16.7131 8.20539 16.7131 8.45923 16.4592L11.9996 12.9188L15.5396 16.4588C15.7934 16.7127 16.205 16.7127 16.4588 16.4588C16.7127 16.205 16.7127 15.7934 16.4588 15.5396L12.9188 11.9996L16.4589 8.45956C16.7127 8.20572 16.7127 7.79416 16.4589 7.54032C16.2051 7.28648 15.7935 7.28648 15.5397 7.54032L11.9996 11.0804L8.45923 7.53999Z" fill="#333333"/>
</svg>
