<svg width="24" height="24" viewBox="0 0 24 24" fill="none" xmlns="http://www.w3.org/2000/svg">
<path d="M9.11176 14.1111C8.89697 14.3259 8.89697 14.6741 9.11176 14.8889C9.32655 15.1037 9.67479 15.1037 9.88958 14.8889L12.0002 12.7783L14.111 14.8891C14.3258 15.1039 14.6741 15.1039 14.8889 14.8891C15.1036 14.6743 15.1036 14.3261 14.8889 14.1113L12.778 12.0005L14.8894 9.8891C15.1042 9.67432 15.1042 9.32608 14.8894 9.11129C14.6746 8.8965 14.3263 8.8965 14.1116 9.11129L12.0002 11.2226L9.8891 9.11156C9.67432 8.89677 9.32607 8.89677 9.11129 9.11156C8.8965 9.32634 8.8965 9.67459 9.11129 9.88937L11.2224 12.0005L9.11176 14.1111Z" fill="#333333"/>
</svg>
