<svg width="24" height="24" viewBox="0 0 24 24" fill="none" xmlns="http://www.w3.org/2000/svg">
<path d="M7.49478 6.50483C7.22141 6.23146 6.7782 6.23146 6.50483 6.50483C6.23146 6.7782 6.23146 7.22141 6.50483 7.49478L11.0099 11.9998L6.50483 16.5048C6.23146 16.7782 6.23146 17.2214 6.50483 17.4948C6.7782 17.7681 7.22141 17.7681 7.49478 17.4948L11.9998 12.9898L16.5043 17.4943C16.7777 17.7677 17.2209 17.7677 17.4943 17.4943C17.7676 17.2209 17.7676 16.7777 17.4943 16.5043L12.9898 11.9998L17.4944 7.49519C17.7677 7.22182 17.7677 6.77861 17.4944 6.50524C17.221 6.23187 16.7778 6.23187 16.5044 6.50524L11.9998 11.0099L7.49478 6.50483Z" fill="#333333"/>
</svg>
