<svg width="24" height="24" viewBox="0 0 24 24" fill="none" xmlns="http://www.w3.org/2000/svg">
<path fill-rule="evenodd" clip-rule="evenodd" d="M10.819 5.41835C11.3073 4.44976 12.6726 4.44887 13.1621 5.41701L15.8461 10.7264L18.784 9.20759C19.8779 8.64206 20.9418 9.71999 20.6491 10.7577L20.639 10.7935L20.6329 10.8157C20.632 10.819 20.6315 10.8213 20.6311 10.8226L19.5595 17.8451C19.5437 17.9485 19.5111 18.1087 19.4216 18.2731C19.1522 18.7675 18.6347 19.0914 18.0548 19.0914H6.01518C5.43071 19.0914 4.90981 18.7624 4.64224 18.2616C4.55851 18.105 4.52662 17.9533 4.51071 17.8553L3.36946 10.8238C3.36915 10.8225 3.36862 10.8204 3.36779 10.8172L3.36195 10.7962L3.35223 10.7623C3.05492 9.72194 4.12207 8.64053 5.2173 9.2083L8.1437 10.7254L10.819 5.41835ZM11.991 6.20363L9.35546 11.4317C9.02982 12.0777 8.24166 12.3531 7.58435 12.0123L4.73988 10.5377C4.74384 10.5565 4.74756 10.576 4.75073 10.5956L5.89169 17.6252C5.92511 17.6706 5.97266 17.6914 6.01518 17.6914H18.0548C18.0966 17.6914 18.1431 17.6714 18.1764 17.6277L19.2478 10.6073C19.2514 10.5835 19.2559 10.5598 19.2606 10.5372L16.4042 12.014C15.7476 12.3534 14.9609 12.0786 14.6351 11.434L11.991 6.20363Z" fill="#333333"/>
</svg>
