<svg width="24" height="24" viewBox="0 0 24 24" fill="none" xmlns="http://www.w3.org/2000/svg">
<path d="M18.957 8.45605C19.7796 9.04083 20.3184 9.99897 20.3184 11.085V16.2764C20.3182 18.0581 18.8735 19.5029 17.0918 19.5029H9.57129C8.44109 19.5029 7.44739 18.9209 6.87109 18.041C7.08517 18.1 7.31016 18.1348 7.54297 18.1348H16.4307C16.561 18.1347 16.6885 18.1216 16.8135 18.1025H17.0918C18.1003 18.1025 18.9179 17.2849 18.918 16.2764V16.0332C18.9414 15.8949 18.957 15.7533 18.957 15.6084V8.45605Z" fill="#15C674"/>
<path d="M9.19336 12.8691C9.51235 12.9343 9.75278 13.2165 9.75293 13.5547C9.75293 13.893 9.51245 14.175 9.19336 14.2402L9.05273 14.2549H7.16504C6.77851 14.2548 6.46484 13.9412 6.46484 13.5547C6.46501 13.1683 6.77861 12.8546 7.16504 12.8545H9.05273L9.19336 12.8691Z" fill="#15C674"/>
<path d="M9.19336 10.085C9.51234 10.1501 9.75276 10.4323 9.75293 10.7705C9.75293 11.1089 9.51245 11.3909 9.19336 11.4561L9.05273 11.4707H7.16504C6.77851 11.4706 6.46484 11.1571 6.46484 10.7705C6.46504 10.3841 6.77863 10.0704 7.16504 10.0703H9.05273L9.19336 10.085Z" fill="#15C674"/>
<path d="M9.19336 7.32617C9.51224 7.39143 9.75181 7.67358 9.75195 8.01172C9.75195 8.34999 9.51233 8.63199 9.19336 8.69727L9.05273 8.71191H7.04395C6.65751 8.71172 6.34375 8.3982 6.34375 8.01172C6.34392 7.62538 6.65761 7.31172 7.04395 7.31152H9.05273L9.19336 7.32617Z" fill="#15C674"/>
<path d="M14.3818 9.75586C15.0347 9.75601 15.5643 10.2856 15.5645 10.9385C15.5645 11.5914 15.0348 12.1209 14.3818 12.1211C13.7288 12.1211 13.1992 11.5915 13.1992 10.9385C13.1993 10.2855 13.7289 9.75586 14.3818 9.75586Z" fill="#15C674"/>
<path fill-rule="evenodd" clip-rule="evenodd" d="M15.3086 4.59863C16.8462 4.59863 18.0927 5.84524 18.0928 7.38281V14.4941C18.0928 16.0318 16.8463 17.2793 15.3086 17.2793H6.43359C4.89602 17.2792 3.64941 16.0317 3.64941 14.4941V7.38281C3.64954 5.84531 4.8961 4.59875 6.43359 4.59863H15.3086ZM6.43359 5.99902C5.66929 5.99915 5.04993 6.61851 5.0498 7.38281V14.4941C5.0498 15.2585 5.66922 15.8788 6.43359 15.8789H15.3086C16.0731 15.8789 16.6934 15.2586 16.6934 14.4941V13.9375C16.5778 13.9555 16.4611 13.9612 16.3477 13.9521L16.1709 13.9268L16.0293 13.8984C16.0042 13.8934 15.9783 13.9017 15.9619 13.9199L15.9492 13.9414L15.8887 14.0908C15.724 14.4966 15.3573 14.8655 14.8486 14.9512L14.7451 14.9639C14.4968 14.9859 14.2452 14.9848 13.9951 14.96L13.7461 14.9277C13.2629 14.8486 12.9161 14.5225 12.7393 14.1484L12.6738 13.9854L12.623 13.834C12.6149 13.8098 12.595 13.7924 12.5713 13.7871L12.5459 13.7861L12.3994 13.8066C11.9667 13.8666 11.4653 13.7345 11.1367 13.3389L11.0732 13.2559C10.9264 13.048 10.8012 12.8278 10.6973 12.5996L10.6006 12.3691C10.3997 11.8444 10.5696 11.3105 10.8789 10.9619L10.9756 10.8525L10.9883 10.8311C10.9943 10.8157 10.9953 10.7989 10.9902 10.7832L10.9785 10.7617L10.8887 10.6465C10.602 10.2784 10.4668 9.73326 10.7031 9.22168L10.8125 9.00195C10.9295 8.78456 11.0684 8.57427 11.2285 8.375L11.2969 8.29688C11.6501 7.92117 12.1607 7.81752 12.5938 7.90625L12.7344 7.93457L12.7588 7.93555C12.783 7.93194 12.8047 7.91534 12.8145 7.8916L12.8506 7.80176L12.9277 7.6416C13.1305 7.27669 13.4981 6.97953 13.9766 6.92578L14.2246 6.90527C14.4739 6.89091 14.7249 6.89717 14.9707 6.92578L15.0781 6.94238C15.6007 7.0469 15.9574 7.44932 16.0986 7.87402L16.1396 7.99902L16.1514 8.02051C16.1665 8.03966 16.1915 8.05006 16.2168 8.04688L16.3613 8.02637L16.5371 8.0127C16.5887 8.0118 16.6412 8.01395 16.6934 8.01855V7.38281C16.6932 6.61844 16.073 5.99902 15.3086 5.99902H6.43359ZM14.7676 8.3125C14.5719 8.29284 14.3644 8.29336 14.1543 8.31543L14.1484 8.32812L14.1113 8.41797C13.8614 9.03393 13.2329 9.40107 12.583 9.32715L12.4521 9.30664L12.3125 9.27734C12.3088 9.27657 12.3048 9.27562 12.3018 9.27539C12.1758 9.43557 12.0714 9.6044 11.9883 9.77832C11.9897 9.78063 11.9912 9.78355 11.9932 9.78613L12.083 9.90137L12.1592 10.0088C12.4902 10.5221 12.4688 11.1888 12.1055 11.6797L12.0225 11.7822L11.9258 11.8916C11.9237 11.8939 11.9214 11.8963 11.9199 11.8984C11.9924 12.081 12.0856 12.256 12.1982 12.4199H12.207L12.3535 12.3994L12.4844 12.3867C13.1379 12.3545 13.7423 12.7616 13.9521 13.3926L14.002 13.543L14.0049 13.5498C14.1981 13.5788 14.3935 13.5859 14.5869 13.5713C14.588 13.5692 14.5897 13.567 14.5908 13.5645L14.6514 13.415L14.707 13.2949C15.0058 12.7131 15.6594 12.393 16.3105 12.5264L16.4521 12.5557H16.4551C16.4573 12.5509 16.4611 12.5452 16.4639 12.5391C16.4824 12.4964 16.5026 12.4401 16.5264 12.3652C16.538 12.3285 16.5499 12.2905 16.5625 12.249C16.5747 12.209 16.5877 12.1639 16.6016 12.1201C16.6145 12.0794 16.63 12.0328 16.6475 11.9844V9.68945C16.6409 9.66014 16.6321 9.62175 16.6201 9.58008C16.6063 9.53205 16.5897 9.48593 16.5732 9.44629C16.5679 9.43348 16.5631 9.42235 16.5586 9.41309H16.5547L16.4102 9.43359C15.7516 9.52498 15.1191 9.16361 14.8584 8.56348L14.8115 8.44043L14.7695 8.31543L14.7676 8.3125Z" fill="#15C674"/>
</svg>
