<svg width="24" height="24" viewBox="0 0 24 24" fill="none" xmlns="http://www.w3.org/2000/svg">
<path fill-rule="evenodd" clip-rule="evenodd" d="M6.83401 5.1449C8.19063 4.56393 10.016 4.22168 11.9955 4.22168C13.9751 4.22168 15.8005 4.56393 17.1571 5.1449C17.8341 5.43484 18.4268 5.79807 18.8604 6.23706C19.1632 6.54363 19.4043 6.90517 19.5237 7.31333C19.579 7.4135 19.6104 7.52866 19.6104 7.65117V15.9236C19.6104 15.9694 19.6061 16.0141 19.5977 16.0574C19.5476 16.6285 19.2568 17.1241 18.8604 17.5255C18.4268 17.9645 17.8341 18.3278 17.1571 18.6177C15.8005 19.1987 13.9751 19.5409 11.9955 19.5409C10.016 19.5409 8.19063 19.1987 6.83401 18.6177C6.15696 18.3278 5.56429 17.9645 5.13071 17.5255C4.74733 17.1374 4.46276 16.6611 4.39914 16.1136C4.38214 16.0532 4.37305 15.9895 4.37305 15.9236V7.65117C4.37305 7.51752 4.4105 7.39262 4.47549 7.2864C4.59743 6.88925 4.8346 6.53687 5.13071 6.23706C5.56429 5.79807 6.15696 5.43484 6.83401 5.1449ZM6.12678 7.22085C5.86401 7.4869 5.78574 7.7091 5.78574 7.88076C5.78574 8.05242 5.86401 8.27462 6.12678 8.54067C6.39251 8.80972 6.81177 9.08413 7.38514 9.32967C8.52938 9.81968 10.1589 10.1398 11.9955 10.1398C13.8322 10.1398 15.4617 9.81968 16.6059 9.32967C17.1793 9.08413 17.5986 8.80972 17.8643 8.54067C18.1271 8.27462 18.2053 8.05242 18.2053 7.88076C18.2053 7.7091 18.1271 7.4869 17.8643 7.22085C17.5986 6.9518 17.1793 6.6774 16.6059 6.43185C15.4617 5.94184 13.8322 5.62168 11.9955 5.62168C10.1589 5.62168 8.52938 5.94184 7.38514 6.43185C6.81177 6.6774 6.39251 6.9518 6.12678 7.22085ZM5.77305 15.8818H5.78574C5.78574 16.0535 5.86401 16.2757 6.12678 16.5417C6.39251 16.8108 6.81177 17.0852 7.38514 17.3307C8.52938 17.8208 10.1589 18.1409 11.9955 18.1409C13.8322 18.1409 15.4617 17.8208 16.6059 17.3307C17.1793 17.0852 17.5986 16.8108 17.8643 16.5417C18.1271 16.2757 18.2053 16.0535 18.2053 15.8818H18.2104V14.0566C17.8953 14.2676 17.5396 14.4548 17.1571 14.6187C15.8005 15.1996 13.9751 15.5419 11.9955 15.5419C10.016 15.5419 8.19063 15.1996 6.83401 14.6187C6.44838 14.4535 6.09012 14.2646 5.77305 14.0515L5.77305 15.8818ZM5.78574 11.8828H5.77305L5.77305 10.0494C6.09012 10.2626 6.44838 10.4515 6.83401 10.6166C8.19063 11.1976 10.016 11.5398 11.9955 11.5398C13.9751 11.5398 15.8005 11.1976 17.1571 10.6166C17.5396 10.4528 17.8953 10.2656 18.2104 10.0545V11.8828H18.2053C18.2053 12.0545 18.1271 12.2767 17.8643 12.5427C17.5986 12.8118 17.1793 13.0862 16.6059 13.3317C15.4617 13.8217 13.8322 14.1419 11.9955 14.1419C10.1589 14.1419 8.52938 13.8217 7.38514 13.3317C6.81177 13.0862 6.39251 12.8118 6.12678 12.5427C5.86401 12.2767 5.78574 12.0545 5.78574 11.8828Z" fill="#333333"/>
</svg>
