<svg width="24" height="24" viewBox="0 0 24 24" fill="none" xmlns="http://www.w3.org/2000/svg">
<path fill-rule="evenodd" clip-rule="evenodd" d="M12.4881 5.99936C12.4881 5.61276 12.8015 5.29936 13.1881 5.29936H15.4569C16.0418 5.29936 16.6039 5.52975 17.0193 5.94168C17.4348 6.3538 17.6694 6.914 17.6694 7.49936V17.9994C17.6694 18.386 17.356 18.6994 16.9694 18.6994C16.5828 18.6994 16.2694 18.386 16.2694 17.9994V7.49936C16.2694 7.28907 16.1852 7.08621 16.0335 6.93572C15.8815 6.78504 15.6742 6.69936 15.4569 6.69936H13.1881C12.8015 6.69936 12.4881 6.38596 12.4881 5.99936Z" fill="#333333"/>
<path fill-rule="evenodd" clip-rule="evenodd" d="M3.7998 17.9995C3.7998 17.6129 4.11321 17.2995 4.4998 17.2995H6.7498C7.1364 17.2995 7.4498 17.6129 7.4498 17.9995C7.4498 18.3861 7.1364 18.6995 6.7498 18.6995H4.4998C4.11321 18.6995 3.7998 18.3861 3.7998 17.9995Z" fill="#333333"/>
<path fill-rule="evenodd" clip-rule="evenodd" d="M12.5361 17.9994C12.5361 17.6128 12.8495 17.2994 13.2361 17.2994L19.4998 17.2994C19.8864 17.2994 20.1998 17.6128 20.1998 17.9994C20.1998 18.386 19.8864 18.6994 19.4998 18.6994H13.2361C12.8495 18.6994 12.5361 18.386 12.5361 17.9994Z" fill="#333333"/>
<path fill-rule="evenodd" clip-rule="evenodd" d="M10.826 11.1689C11.2954 11.1689 11.676 11.5494 11.676 12.0189V12.0272C11.676 12.4967 11.2954 12.8772 10.826 12.8772C10.3565 12.8772 9.97598 12.4967 9.97598 12.0272V12.0189C9.97598 11.5494 10.3565 11.1689 10.826 11.1689Z" fill="#333333"/>
<path fill-rule="evenodd" clip-rule="evenodd" d="M11.8152 5.63172C11.7278 5.61469 11.588 5.62554 11.3596 5.678L11.3508 5.68003L8.10151 6.38209C7.96402 6.4139 7.90301 6.4397 7.85542 6.4685C7.80448 6.49934 7.72729 6.55935 7.59807 6.7114C7.51409 6.81021 7.44205 7.01672 7.44199 7.24184V17.4484L12.3808 18.5683C12.4053 18.5739 12.4316 18.5743 12.4567 18.5694C12.473 18.5663 12.487 18.5612 12.4984 18.5554C12.4998 18.5537 12.5013 18.5517 12.5029 18.5496C12.5066 18.5447 12.5106 18.5392 12.5146 18.5334C12.5148 18.5251 12.5149 18.5157 12.5149 18.5051L12.5149 18.4631L12.5146 18.4137V6.44155C12.5145 6.24821 12.4906 6.1522 12.4638 6.1017C12.3797 5.94359 12.2922 5.83815 12.2208 5.78694C12.1326 5.72368 11.9941 5.66656 11.8152 5.63172ZM11.0508 4.31249C11.3027 4.25479 11.6884 4.18072 12.0828 4.25753C12.3881 4.31698 12.7346 4.43264 13.0366 4.64918C13.3554 4.87777 13.5667 5.19395 13.6999 5.44451C13.8903 5.80268 13.9145 6.17907 13.9146 6.44056V18.4137C13.9146 18.4187 13.9147 18.4259 13.9148 18.4344C13.9151 18.481 13.9159 18.5753 13.9098 18.6621C13.9034 18.7544 13.8849 18.9464 13.786 19.1327C13.7183 19.2602 13.5634 19.5162 13.3311 19.6829C13.1495 19.8132 12.942 19.9011 12.7249 19.9435C12.5081 19.9858 12.284 19.9823 12.0685 19.933L6.5872 18.6901C6.26833 18.6178 6.04199 18.3344 6.04199 18.0075V7.24184C6.04207 6.79934 6.16806 6.23217 6.53127 5.80479C6.71749 5.58567 6.90622 5.40656 7.13046 5.27083C7.35757 5.13336 7.58025 5.06536 7.79227 5.01666L7.80111 5.01463L11.0508 4.31249Z" fill="#333333"/>
</svg>
