<svg width="24" height="24" viewBox="0 0 24 24" fill="none" xmlns="http://www.w3.org/2000/svg">
<path fill-rule="evenodd" clip-rule="evenodd" d="M14.4055 3.58789C14.7921 3.58788 15.1055 3.90127 15.1055 4.28786L15.1055 4.6107C17.2199 4.91665 18.892 6.5888 19.198 8.70315L19.5208 8.70314C19.9074 8.70313 20.2208 9.01652 20.2209 9.40311C20.2209 9.78971 19.9075 10.1031 19.5209 10.1031L19.1978 10.1032C18.8915 12.2169 17.2197 13.8885 15.1059 14.1945L15.1059 14.5175C15.1059 14.9041 14.7925 15.2175 14.4059 15.2175C14.0193 15.2175 13.7059 14.9041 13.7059 14.5175L13.7059 14.1945C11.5923 13.8884 9.92071 12.217 9.61428 10.1035L9.2913 10.1035C8.9047 10.1035 8.59128 9.79014 8.59127 9.40354C8.59126 9.01694 8.90465 8.70353 9.29124 8.70352L9.61403 8.7035C9.91978 6.5893 11.5915 4.91717 13.7055 4.61084L13.7055 4.28792C13.7055 3.90132 14.0189 3.5879 14.4055 3.58789ZM11.0353 10.1035C11.3123 11.4423 12.3669 12.4968 13.7058 12.7735L13.7057 10.1034L11.0353 10.1035ZM13.7057 8.70335L11.035 8.70345C11.3114 7.36387 12.3662 6.30874 13.7056 6.03186L13.7057 8.70335ZM15.1057 10.1033L15.1058 12.7735C16.4451 12.4969 17.4999 11.4423 17.7768 10.1032L15.1057 10.1033ZM17.777 8.7032L15.1057 8.7033L15.1056 6.03169C16.4453 6.30828 17.5005 7.36345 17.777 8.7032Z" fill="#1BCE7B"/>
<path fill-rule="evenodd" clip-rule="evenodd" d="M8.51275 6.23906C8.51275 5.85246 8.19935 5.53906 7.81275 5.53906H6.38213C4.89096 5.53906 3.68213 6.74789 3.68213 8.23906V15.6248C3.68213 17.116 4.89096 18.3248 6.38213 18.3248H7.50276C7.70755 19.5582 8.77727 20.4791 10.0466 20.4791H14.0851C15.3214 20.4791 16.3339 19.5305 16.4395 18.3248H17.5627C19.0538 18.3248 20.2627 17.116 20.2627 15.6248V13.9771C20.2627 13.5905 19.9493 13.2771 19.5627 13.2771C19.1761 13.2771 18.8627 13.5905 18.8627 13.9771V15.6248C18.8627 16.3428 18.2806 16.9248 17.5627 16.9248H6.38213C5.66416 16.9248 5.08213 16.3428 5.08213 15.6248V8.23906C5.08213 7.52109 5.66416 6.93906 6.38213 6.93906H7.81275C8.19935 6.93906 8.51275 6.62566 8.51275 6.23906ZM10.0466 19.0791C9.54862 19.0791 9.11786 18.7691 8.94653 18.3248H15.0258C14.9304 18.7559 14.5459 19.0791 14.0851 19.0791H10.0466Z" fill="#1BCE7B"/>
</svg>
