<svg width="24" height="24" viewBox="0 0 24 24" fill="none" xmlns="http://www.w3.org/2000/svg">
<path d="M11.9994 3.89941C7.52591 3.89941 3.89941 7.52591 3.89941 11.9994C3.89941 16.1023 6.9492 19.4916 10.9057 20.0261C11.2888 20.0779 11.6414 19.8093 11.6931 19.4261C11.7449 19.043 11.4762 18.6905 11.0931 18.6387C7.82171 18.1968 5.29941 15.3921 5.29941 11.9994C5.29941 8.29911 8.29911 5.29941 11.9994 5.29941C15.2336 5.29941 17.934 7.59168 18.5617 10.6406C18.6396 11.0192 19.0098 11.263 19.3885 11.1851C19.7671 11.1071 20.0109 10.7369 19.9329 10.3583C19.1739 6.67169 15.9112 3.89941 11.9994 3.89941Z" fill="#333333"/>
<path d="M18.4938 12.5048C18.2204 12.2315 17.7772 12.2315 17.5039 12.5048C17.2305 12.7782 17.2305 13.2214 17.5039 13.4948L18.3089 14.2998H16.9988C14.9554 14.2998 13.2988 15.9564 13.2988 17.9998V19.1295C13.2988 19.5161 13.6122 19.8295 13.9988 19.8295C14.3854 19.8295 14.6988 19.5161 14.6988 19.1295V17.9998C14.6988 16.7295 15.7286 15.6998 16.9988 15.6998H18.3089L17.5039 16.5048C17.2305 16.7782 17.2305 17.2214 17.5039 17.4948C17.7772 17.7681 18.2204 17.7681 18.4938 17.4948L20.4938 15.4948C20.7672 15.2214 20.7672 14.7782 20.4938 14.5048L18.4938 12.5048Z" fill="#333333"/>
<path d="M12.4996 7.9998C12.4996 7.61321 12.1862 7.2998 11.7996 7.2998C11.413 7.2998 11.0996 7.61321 11.0996 7.9998V11.9998C11.0996 12.3864 11.413 12.6998 11.7996 12.6998H14.7996C15.1862 12.6998 15.4996 12.3864 15.4996 11.9998C15.4996 11.6132 15.1862 11.2998 14.7996 11.2998H12.4996V7.9998Z" fill="#333333"/>
</svg>
