<svg width="24" height="24" viewBox="0 0 24 24" fill="none" xmlns="http://www.w3.org/2000/svg">
<path d="M12.0001 12.6992C12.3867 12.6992 12.7003 13.0128 12.7003 13.3994C12.7003 13.786 12.3867 14.0996 12.0001 14.0996C9.79856 14.0996 8.41357 14.7131 7.56061 15.5156C6.77152 16.2582 6.3713 17.2251 6.24518 18.1992H12.1495L12.2901 18.2139C12.6091 18.2791 12.8487 18.5611 12.8487 18.8994C12.8487 19.2377 12.6091 19.5197 12.2901 19.585L12.1495 19.5996H6.00006C5.35427 19.5995 4.76415 19.0644 4.82233 18.3438L4.84674 18.0947C4.99471 16.8436 5.50798 15.5243 6.60065 14.4961C7.77178 13.3941 9.53117 12.6992 12.0001 12.6992Z" fill="#15C674"/>
<path d="M18.7501 13.6592C19.0234 13.3858 19.4669 13.3858 19.7403 13.6592C20.0137 13.9325 20.0137 14.376 19.7403 14.6494L17.9903 16.3994L19.7403 18.1494L19.8301 18.2598C20.0093 18.5314 19.9794 18.9006 19.7403 19.1396C19.5013 19.3786 19.133 19.4084 18.8614 19.2295L18.7501 19.1396L17.0001 17.3896L15.2501 19.1396C14.9767 19.413 14.5332 19.413 14.2598 19.1396C13.9865 18.8663 13.9865 18.4228 14.2598 18.1494L16.0098 16.3994L14.2598 14.6494C13.9865 14.3761 13.9865 13.9325 14.2598 13.6592C14.5332 13.3858 14.9767 13.3858 15.2501 13.6592L17.0001 15.4092L18.7501 13.6592Z" fill="#15C674"/>
<path fill-rule="evenodd" clip-rule="evenodd" d="M12.2296 3.40527C17.1234 3.66424 16.6543 11.9372 11.9923 11.9375L11.8096 11.9336C8.07888 11.76 7.19117 6.26456 9.78522 4.16113L9.91315 4.0625C10.377 3.72109 11.2687 3.39944 11.9923 3.39941L12.2296 3.40527ZM11.9923 4.7998C11.8193 4.79982 11.5675 4.84164 11.296 4.93164C11.0197 5.02324 10.824 5.13095 10.7432 5.19043C9.91941 5.79699 9.49801 7.12611 9.79303 8.4707C10.0769 9.76406 10.882 10.538 11.9923 10.5381C12.7034 10.538 13.2244 10.237 13.6094 9.74316C14.0198 9.21669 14.2783 8.45242 14.2979 7.63477C14.3175 6.81598 14.0951 6.07964 13.7159 5.58301C13.3695 5.12952 12.8418 4.79986 11.9923 4.7998Z" fill="#15C674"/>
</svg>
