<svg width="24" height="24" viewBox="0 0 24 24" fill="none" xmlns="http://www.w3.org/2000/svg">
<path fill-rule="evenodd" clip-rule="evenodd" d="M6.24477 18.1994C6.37086 17.2252 6.77123 16.2586 7.56043 15.516C8.41339 14.7134 9.7982 14.0994 12 14.0994C12.0941 14.0994 12.1318 14.1005 12.2211 14.103C12.2301 14.1033 12.2397 14.1035 12.2499 14.1038C12.6364 14.1146 12.9584 13.8101 12.9693 13.4237C12.9801 13.0372 12.6756 12.7152 12.2891 12.7044C12.2792 12.7041 12.2697 12.7038 12.2606 12.7036C12.1683 12.7009 12.1141 12.6994 12 12.6994C9.53102 12.6994 7.77219 13.3944 6.60103 14.4964C5.43552 15.5931 4.92932 17.0204 4.82234 18.3436C4.76407 19.0644 5.35409 19.5994 5.99998 19.5994H13C13.3866 19.5994 13.7 19.286 13.7 18.8994C13.7 18.5128 13.3866 18.1994 13 18.1994H6.24477Z" fill="#333333"/>
<path fill-rule="evenodd" clip-rule="evenodd" d="M11.2956 4.9318C11.0193 5.0234 10.8237 5.13047 10.7429 5.18996C9.91895 5.79651 9.49779 7.1262 9.79298 8.47097C10.0769 9.76434 10.8816 10.5376 11.9919 10.5376C12.7033 10.5376 13.2244 10.2368 13.6096 9.74278C14.02 9.21631 14.2784 8.45266 14.298 7.635C14.3176 6.81611 14.0953 6.07984 13.716 5.58316C13.3696 5.12951 12.8418 4.79941 11.992 4.79941C11.8189 4.79941 11.5673 4.84171 11.2956 4.9318ZM9.91298 4.06249C7.11972 6.1187 8.04674 11.9376 11.9919 11.9376C16.7284 11.9376 17.1373 3.39941 11.992 3.39941C11.2683 3.39941 10.3768 3.72106 9.91298 4.06249Z" fill="#333333"/>
<path fill-rule="evenodd" clip-rule="evenodd" d="M17.2266 14.9129C16.5086 14.9129 15.9266 15.4949 15.9266 16.2129V17.9764C15.9266 18.363 15.6132 18.6764 15.2266 18.6764C14.84 18.6764 14.5266 18.363 14.5266 17.9764V16.2129C14.5266 14.7217 15.7354 13.5129 17.2266 13.5129H19.5277C19.9143 13.5129 20.2277 13.8263 20.2277 14.2129C20.2277 14.5995 19.9143 14.9129 19.5277 14.9129H17.2266Z" fill="#333333"/>
<path fill-rule="evenodd" clip-rule="evenodd" d="M17.9735 12.0879C18.2562 11.8241 18.6991 11.8394 18.9629 12.122L20.4683 13.7349C20.7193 14.0038 20.7193 14.4212 20.4683 14.6902L18.9629 16.3031C18.6991 16.5857 18.2562 16.601 17.9735 16.3372C17.6909 16.0734 17.6756 15.6304 17.9394 15.3478L18.9991 14.2125L17.9394 13.0772C17.6756 12.7946 17.6909 12.3517 17.9735 12.0879Z" fill="#333333"/>
</svg>
