<svg width="24" height="24" viewBox="0 0 24 24" fill="none" xmlns="http://www.w3.org/2000/svg">
<path d="M8.55186 3.59766C9.04891 3.59766 9.45186 4.0006 9.45186 4.49766V4.89258H14.5322V4.49766C14.5322 4.0006 14.9352 3.59766 15.4322 3.59766C15.9293 3.59766 16.3322 4.0006 16.3322 4.49766V4.89258H17.3104C18.8568 4.89258 20.1104 6.14618 20.1104 7.69258V10.9838C20.1104 11.3704 19.797 11.6838 19.4104 11.6838C19.0238 11.6838 18.7104 11.3704 18.7104 10.9838V7.69258C18.7104 6.91938 18.0836 6.29258 17.3104 6.29258H16.3322V6.92734C16.3322 7.4244 15.9293 7.82734 15.4322 7.82734C14.9352 7.82734 14.5322 7.4244 14.5322 6.92734V6.29258H9.45186V6.92734C9.45186 7.4244 9.04891 7.82734 8.55186 7.82734C8.0548 7.82734 7.65186 7.4244 7.65186 6.92734V6.29258H6.69404C5.92084 6.29258 5.29404 6.91938 5.29404 7.69258V16.2768C5.29404 17.05 5.92084 17.6768 6.69404 17.6768H11.6292C12.0158 17.6768 12.3292 17.9902 12.3292 18.3768C12.3292 18.7634 12.0158 19.0768 11.6292 19.0768H6.69404C5.14764 19.0768 3.89404 17.8232 3.89404 16.2768V7.69258C3.89404 6.14618 5.14765 4.89258 6.69404 4.89258H7.65186V4.49766C7.65186 4.0006 8.0548 3.59766 8.55186 3.59766Z" fill="#1BCE7B"/>
<path fill-rule="evenodd" clip-rule="evenodd" d="M15.1711 9.2998C14.7293 9.2998 14.3711 9.65798 14.3711 10.0998V10.9459C14.3711 11.3877 14.7293 11.7459 15.1711 11.7459H15.9792C16.421 11.7459 16.7792 11.3877 16.7792 10.9459V10.0998C16.7792 9.65798 16.421 9.2998 15.9792 9.2998H15.1711ZM15.5966 10.5229C15.5896 10.5299 15.5825 10.5367 15.5751 10.5434C15.5678 10.5367 15.5607 10.5299 15.5537 10.5229C15.5607 10.5159 15.5678 10.509 15.5751 10.5024C15.5825 10.509 15.5896 10.5159 15.5966 10.5229Z" fill="#1BCE7B"/>
<path fill-rule="evenodd" clip-rule="evenodd" d="M10.8545 10.0998C10.8545 9.65798 11.2127 9.2998 11.6545 9.2998H12.4626C12.9044 9.2998 13.2626 9.65798 13.2626 10.0998V10.9459C13.2626 11.3877 12.9044 11.7459 12.4626 11.7459H11.6545C11.2127 11.7459 10.8545 11.3877 10.8545 10.9459V10.0998ZM12.0585 10.5434C12.0659 10.5367 12.073 10.5299 12.08 10.5229C12.073 10.5159 12.0659 10.509 12.0585 10.5024C12.0512 10.509 12.0441 10.5159 12.0371 10.5229C12.0441 10.5299 12.0512 10.5367 12.0585 10.5434Z" fill="#1BCE7B"/>
<path fill-rule="evenodd" clip-rule="evenodd" d="M7.97432 9.2998C7.53249 9.2998 7.17432 9.65798 7.17432 10.0998V10.9459C7.17432 11.3877 7.53249 11.7459 7.97432 11.7459H8.78242C9.22425 11.7459 9.58242 11.3877 9.58242 10.9459V10.0998C9.58242 9.65798 9.22425 9.2998 8.78242 9.2998H7.97432ZM8.39979 10.5229C8.39282 10.5299 8.38568 10.5367 8.37837 10.5434C8.37106 10.5367 8.36392 10.5299 8.35695 10.5229C8.36392 10.5159 8.37106 10.509 8.37837 10.5024C8.38568 10.509 8.39282 10.5159 8.39979 10.5229Z" fill="#1BCE7B"/>
<path fill-rule="evenodd" clip-rule="evenodd" d="M7.17432 13.924C7.17432 13.4822 7.53249 13.124 7.97432 13.124H8.78242C9.22425 13.124 9.58242 13.4822 9.58242 13.924V14.7701C9.58242 15.212 9.22425 15.5701 8.78242 15.5701H7.97432C7.53249 15.5701 7.17432 15.212 7.17432 14.7701V13.924ZM8.37837 14.3676C8.38568 14.3609 8.39282 14.3541 8.39979 14.3471C8.39282 14.3401 8.38568 14.3332 8.37837 14.3266C8.37106 14.3332 8.36392 14.3401 8.35695 14.3471C8.36392 14.3541 8.37106 14.3609 8.37837 14.3676Z" fill="#1BCE7B"/>
<path d="M19.6034 14.1952C19.8767 14.4685 19.8767 14.9118 19.6034 15.1851L18.1904 16.5981L19.6035 18.0112C19.8768 18.2845 19.8768 18.7278 19.6035 19.0011C19.3301 19.2745 18.8869 19.2745 18.6135 19.0011L17.2004 17.5881L15.7874 19.0011C15.514 19.2745 15.0708 19.2745 14.7974 19.0011C14.5241 18.7278 14.5241 18.2845 14.7974 18.0112L16.2105 16.5981L14.7975 15.1851C14.5241 14.9118 14.5241 14.4685 14.7975 14.1952C15.0709 13.9218 15.5141 13.9218 15.7875 14.1952L17.2004 15.6082L18.6134 14.1952C18.8868 13.9218 19.33 13.9218 19.6034 14.1952Z" fill="#1BCE7B"/>
</svg>
