<svg width="24" height="24" viewBox="0 0 24 24" fill="none" xmlns="http://www.w3.org/2000/svg">
<path fill-rule="evenodd" clip-rule="evenodd" d="M4.08789 7.05742C4.08789 6.11854 4.84901 5.35742 5.78789 5.35742H13.1727C14.1116 5.35742 14.8727 6.11854 14.8727 7.05742V7.19043H15.495C16.3585 7.19043 17.17 7.60353 17.6781 8.30181L19.8804 11.3284C19.8971 11.3513 19.9122 11.3749 19.9257 11.3991C20.204 11.7018 20.374 12.1057 20.374 12.5493V15.5775C20.374 16.513 19.6183 17.272 18.684 17.2774C18.4404 18.4238 17.4224 19.2838 16.2034 19.2838C14.9845 19.2838 13.9664 18.4238 13.7229 17.2775H11.0692C10.8257 18.4238 9.80761 19.2838 8.58868 19.2838C7.36974 19.2838 6.35167 18.4238 6.10812 17.2775H5.78789C4.84901 17.2775 4.08789 16.5163 4.08789 15.5775V7.05742ZM17.8004 10.8493L16.5461 9.12554C16.3015 8.78933 15.9108 8.59043 15.495 8.59043H14.8727L14.8727 10.8493H17.8004ZM18.674 15.8775H18.586C18.2309 14.9056 17.2982 14.2119 16.2034 14.2119C15.1087 14.2119 14.1759 14.9056 13.8208 15.8775H10.9713C10.6162 14.9056 9.68345 14.2119 8.58868 14.2119C7.49391 14.2119 6.56116 14.9056 6.20605 15.8775H5.78789C5.6222 15.8775 5.48789 15.7431 5.48789 15.5775V7.05742C5.48789 6.89174 5.62221 6.75742 5.78789 6.75742H13.1727C13.3384 6.75742 13.4727 6.89174 13.4727 7.05742L13.4727 11.5493C13.4727 11.9359 13.7861 12.2493 14.1727 12.2493H18.674C18.8397 12.2493 18.974 12.3836 18.974 12.5493V15.5775C18.974 15.7431 18.8397 15.8775 18.674 15.8775ZM7.45273 16.7479C7.45273 16.1205 7.96131 15.6119 8.58868 15.6119C9.21604 15.6119 9.72462 16.1205 9.72462 16.7479C9.72462 17.3752 9.21604 17.8838 8.58868 17.8838C7.96131 17.8838 7.45273 17.3752 7.45273 16.7479ZM15.0675 16.7479C15.0675 16.1205 15.5761 15.6119 16.2034 15.6119C16.8308 15.6119 17.3394 16.1205 17.3394 16.7479C17.3394 17.3752 16.8308 17.8838 16.2034 17.8838C15.5761 17.8838 15.0675 17.3752 15.0675 16.7479Z" fill="#333333"/>
</svg>
