<svg width="24" height="24" viewBox="0 0 24 24" fill="none" xmlns="http://www.w3.org/2000/svg">
<path fill-rule="evenodd" clip-rule="evenodd" d="M14.5282 6.30273C14.9146 6.30294 15.2275 6.61651 15.2275 7.00293V7.77344H15.4931C16.3564 7.77347 17.1677 8.18681 17.6757 8.88477L19.8778 11.9111L19.915 11.9756C20.1974 12.2792 20.372 12.6846 20.372 13.1318V16.1592C20.372 17.095 19.6152 17.8536 18.6806 17.8584C18.4374 19.0048 17.4209 19.8651 16.2021 19.8652C14.9834 19.8652 13.9663 19.0054 13.7226 17.8594H11.0673C10.8237 19.0053 9.80728 19.8651 8.58878 19.8652C7.37014 19.8652 6.35303 19.0054 6.10929 17.8594H5.788C4.90787 17.8594 4.18356 17.1902 4.09659 16.333L4.0878 16.1592V14.7725C4.0878 14.3859 4.40146 14.0723 4.788 14.0723C5.12606 14.0723 5.40815 14.3121 5.47355 14.6309L5.48819 14.7725V16.1592L5.49405 16.2197C5.522 16.3564 5.64302 16.459 5.788 16.459H6.20987C6.56562 15.4882 7.4949 14.7939 8.58878 14.7939C9.68252 14.7941 10.6112 15.4883 10.9667 16.459H13.8232C14.1789 15.4882 15.1082 14.7939 16.2021 14.7939C17.2958 14.7941 18.2245 15.4883 18.58 16.459H18.6718C18.8374 16.4589 18.9716 16.3248 18.9716 16.1592V13.1318C18.9716 12.9662 18.8374 12.8321 18.6718 12.832H14.5282C14.1417 12.832 13.828 12.5184 13.828 12.1318V7.00293C13.828 6.61639 14.1417 6.30273 14.5282 6.30273ZM8.58878 16.1943C7.96151 16.1943 7.45304 16.7028 7.45304 17.3301C7.45318 17.9572 7.9616 18.4658 8.58878 18.4658C9.2158 18.4656 9.72438 17.9571 9.72452 17.3301C9.72452 16.7029 9.21589 16.1945 8.58878 16.1943ZM16.2021 16.1943C15.5748 16.1943 15.0663 16.7028 15.0663 17.3301C15.0665 17.9572 15.5749 18.4658 16.2021 18.4658C16.8291 18.4656 17.3377 17.9571 17.3378 17.3301C17.3378 16.7029 16.8292 16.1945 16.2021 16.1943ZM15.2275 11.4316H17.7978L16.5439 9.70898C16.2993 9.37285 15.9088 9.17386 15.4931 9.17383H15.2275V11.4316Z" fill="#15C674"/>
<path fill-rule="evenodd" clip-rule="evenodd" d="M7.77726 3.56738C8.18628 3.56745 8.5231 3.7033 8.80558 3.83691C8.96429 3.91215 9.60566 4.27159 10.1903 4.60059C10.8029 4.94526 11.3923 5.27922 11.497 5.33594C11.8149 5.50825 12.1347 5.79063 12.3329 6.12891C12.524 6.45525 12.6181 6.76956 12.6181 7.25684V10.0996C12.6181 10.5377 12.5262 10.8798 12.3349 11.21C12.1508 11.5276 11.9174 11.7766 11.5487 11.9805C11.4204 12.0514 10.8241 12.3904 10.1933 12.7422C9.88391 12.9147 9.5708 13.0868 9.31827 13.2227C9.19246 13.2904 9.07812 13.3513 8.98527 13.3984C8.9079 13.4377 8.80436 13.4893 8.72257 13.5186C8.67583 13.5353 8.62853 13.5539 8.57023 13.5781C8.51674 13.6003 8.44503 13.6305 8.37296 13.6572C8.22238 13.7131 8.02062 13.7744 7.77726 13.7744C7.35676 13.7744 6.94219 13.5957 6.70304 13.4854C6.55002 13.4147 5.92831 13.0704 5.35636 12.749C4.78274 12.4267 4.15947 12.0712 4.00577 11.9688C3.7676 11.81 3.43297 11.5903 3.21476 11.2021C3.01852 10.8529 2.95746 10.5329 2.93644 10.1367C2.91745 9.77891 2.93544 7.52256 2.93546 7.23828C2.93548 6.80342 3.02481 6.4862 3.21085 6.14648C3.42861 5.74892 3.74084 5.52589 3.99796 5.36133C4.14097 5.26984 4.77612 4.92245 5.36027 4.60352C5.97454 4.26814 6.56568 3.94689 6.68839 3.875C7.05868 3.65794 7.39592 3.56738 7.77726 3.56738ZM4.33487 7.41895C4.33197 8.04885 4.32033 9.78839 4.33487 10.0625C4.34923 10.333 4.38094 10.4196 4.43546 10.5166C4.46796 10.5742 4.52122 10.6307 4.78214 10.8047C4.87901 10.8692 5.43756 11.1897 6.04191 11.5293C6.33496 11.694 6.62731 11.8565 6.86027 11.9844C6.9408 12.0286 7.01406 12.0675 7.07706 12.1016V9.06641L4.33487 7.41895ZM8.47745 9.06641V12.083C8.53058 12.055 8.59075 12.0249 8.65519 11.9902C8.89837 11.8594 9.2041 11.69 9.51163 11.5186C10.1142 11.1825 10.749 10.8223 10.871 10.7549C11.002 10.6824 11.0579 10.6217 11.1239 10.5078C11.1826 10.4065 11.2187 10.3094 11.2187 10.0996V7.41895L8.47745 9.06641ZM7.77726 4.96777C7.65737 4.96777 7.56304 4.98436 7.3964 5.08203C7.24984 5.16794 6.62446 5.50908 6.03116 5.83301C5.72919 5.99788 5.42933 6.16133 5.19132 6.29297C5.18881 6.29436 5.186 6.2955 5.18351 6.29688L7.77628 7.85352L10.3593 6.30176C10.115 6.16401 9.80724 5.99105 9.50382 5.82031C9.20194 5.65045 8.89982 5.48167 8.65812 5.34766C8.53728 5.28066 8.43288 5.22276 8.35148 5.17871C8.31099 5.15681 8.27716 5.13877 8.25089 5.125C8.23782 5.11815 8.22674 5.11249 8.21866 5.1084C8.21494 5.10651 8.21206 5.10462 8.20987 5.10352L8.20694 5.10254C7.97699 4.99377 7.86933 4.96783 7.77726 4.96777Z" fill="#15C674"/>
</svg>
