<svg width="24" height="24" viewBox="0 0 24 24" fill="none" xmlns="http://www.w3.org/2000/svg">
<path d="M8.22734 8.49609C7.84074 8.49609 7.52734 8.80949 7.52734 9.19609C7.52734 9.58269 7.84074 9.89609 8.22734 9.89609L15.0818 9.89609C15.4684 9.89609 15.7818 9.58269 15.7818 9.19609C15.7818 8.80949 15.4684 8.49609 15.0818 8.49609L8.22734 8.49609Z" fill="#333333"/>
<path d="M7.52734 11.8807C7.52734 11.4941 7.84074 11.1807 8.22734 11.1807L15.0818 11.1807C15.4684 11.1807 15.7818 11.4941 15.7818 11.8807C15.7818 12.2673 15.4684 12.5807 15.0818 12.5807L8.22734 12.5807C7.84074 12.5807 7.52734 12.2673 7.52734 11.8807Z" fill="#333333"/>
<path fill-rule="evenodd" clip-rule="evenodd" d="M7.11895 5.03418C5.62778 5.03418 4.41895 6.24301 4.41895 7.73418V14.3264C4.41895 15.8175 5.62778 17.0264 7.11894 17.0264H11.3428V17.4685L9.16876 19.5125C8.8871 19.7773 8.87344 20.2203 9.13825 20.5019C9.40306 20.7836 9.84607 20.7973 10.1277 20.5324L12.0883 18.6892L13.9588 20.4482C14.2404 20.713 14.6834 20.6994 14.9483 20.4178C15.2131 20.1361 15.1995 19.6931 14.9179 19.4283L12.7428 17.3829V17.0264H16.8801C18.3712 17.0264 19.5801 15.8175 19.5801 14.3264V7.73418C19.5801 6.24301 18.3712 5.03418 16.8801 5.03418H7.11895ZM16.8801 6.43418H7.11895C6.40098 6.43418 5.81895 7.01621 5.81895 7.73418V14.3264C5.81895 15.0443 6.40098 15.6264 7.11894 15.6264H16.8801C17.598 15.6264 18.1801 15.0443 18.1801 14.3264V7.73418C18.1801 7.01621 17.598 6.43418 16.8801 6.43418Z" fill="#333333"/>
</svg>
