<svg width="24" height="24" viewBox="0 0 24 24" fill="none" xmlns="http://www.w3.org/2000/svg">
<path fill-rule="evenodd" clip-rule="evenodd" d="M10.8582 4.25663C11.2027 4.04973 11.597 3.94043 11.9988 3.94043C12.4007 3.94043 12.795 4.04973 13.1395 4.25663L15.4129 5.62068C15.74 5.81718 16.0111 6.09504 16.1994 6.42692C16.3877 6.7588 16.487 7.13368 16.4879 7.51524L16.4879 7.51678L16.4879 10.509L19.4159 12.2573C19.9508 12.5767 20.2784 13.1539 20.2784 13.7769V16.4813L20.2784 16.4828C20.2775 16.8644 20.1782 17.2392 19.9899 17.5711C19.8016 17.903 19.5309 18.1807 19.2038 18.3772L16.93 19.7414C16.5855 19.9483 16.1912 20.0576 15.7893 20.0576C15.3875 20.0576 14.9932 19.9483 14.6486 19.7414L12.3752 18.3774C12.2406 18.2965 12.1155 18.2019 12.0018 18.0954C11.8881 18.2018 11.7631 18.2963 11.6286 18.3772L9.35482 19.7414C9.01031 19.9483 8.616 20.0576 8.21413 20.0576C7.81212 20.0576 7.41769 19.9482 7.07309 19.7412L4.80002 18.3774C4.47295 18.1809 4.20182 17.903 4.01356 17.5711C3.8253 17.2392 3.72594 16.8644 3.7251 16.4828L3.7251 16.4813L3.7251 13.7754C3.7251 13.1537 4.05128 12.5776 4.58437 12.2578L7.50981 10.5025V7.51678L7.50981 7.51524C7.51064 7.13368 7.61 6.7588 7.79827 6.42692C7.98653 6.09504 8.25731 5.8174 8.58438 5.62089L10.8582 4.25663ZM12.7024 16.5365C12.7029 16.5186 12.7031 16.5007 12.7032 16.4828L12.7032 13.5633L15.7728 11.7126L18.6981 13.4593C18.8099 13.5261 18.8784 13.6467 18.8784 13.7769V16.4804C18.8779 16.6206 18.8414 16.7584 18.7722 16.8804C18.7029 17.0025 18.6031 17.1048 18.4828 17.1771L16.2094 18.5411C16.0825 18.6174 15.9373 18.6576 15.7893 18.6576C15.6413 18.6576 15.4958 18.6171 15.3689 18.5409L13.0957 17.177C12.9754 17.1047 12.8758 17.0025 12.8065 16.8804C12.7465 16.7747 12.7111 16.6572 12.7024 16.5365ZM11.3003 13.5643L8.21413 11.7126L5.30466 13.4583C5.19326 13.5251 5.1251 13.6455 5.1251 13.7754L5.1251 16.4805C5.12553 16.6207 5.1621 16.7584 5.23129 16.8804C5.30056 17.0025 5.40019 17.1047 5.52052 17.177L7.79374 18.5409C7.92059 18.6171 8.06614 18.6576 8.21413 18.6576C8.36212 18.6576 8.50732 18.6174 8.63417 18.5411L10.9076 17.1771C11.0278 17.1048 11.1277 17.0024 11.197 16.8804C11.2569 16.7747 11.2924 16.6572 11.3011 16.5365C11.3006 16.5186 11.3003 16.5007 11.3003 16.4828L11.3003 16.4813L11.3003 13.5643ZM11.9988 5.34043C11.8509 5.34043 11.7057 5.38069 11.5788 5.45691L9.30538 6.82096C9.18504 6.89329 9.08527 6.99555 9.01599 7.11768C8.94679 7.23966 8.91022 7.37743 8.90981 7.51766V10.4321L11.9988 12.2855L15.0879 10.4321V7.51775C15.0875 7.37748 15.0509 7.23969 14.9817 7.11768C14.9124 6.99555 14.8128 6.89338 14.6925 6.82105L12.4192 5.45712C12.2924 5.38091 12.1468 5.34043 11.9988 5.34043Z" fill="#333333"/>
</svg>
