<svg width="24" height="24" viewBox="0 0 24 24" fill="none" xmlns="http://www.w3.org/2000/svg">
<path d="M4.37585 9.12567C3.71196 8.46178 3.71196 7.3854 4.37585 6.72151L6.7303 4.36706C7.39419 3.70317 8.47057 3.70317 9.13446 4.36706L11.1256 6.35817C11.1377 6.36874 11.1495 6.37979 11.1611 6.39133C11.4345 6.66469 11.4345 7.10791 11.1611 7.38128L9.79508 8.74738C9.52172 9.02076 9.07851 9.02077 8.80513 8.74741C8.53176 8.47405 8.53175 8.03083 8.80511 7.75746L9.67501 6.88751L9.34191 6.55441L7.95317 7.94286C7.67977 8.21619 7.23656 8.21615 6.96322 7.94275C6.68988 7.66935 6.68993 7.22614 6.96333 6.9528L8.35196 5.56446L8.14451 5.35701C8.02735 5.23985 7.8374 5.23985 7.72025 5.35701L5.3658 7.71146C5.24864 7.82862 5.24864 8.01857 5.3658 8.13572L7.38691 10.1568C7.66028 10.4302 7.66028 10.8734 7.38691 11.1468C7.11355 11.4202 6.67033 11.4202 6.39697 11.1468L4.37585 9.12567Z" fill="#333333"/>
<path fill-rule="evenodd" clip-rule="evenodd" d="M14.9581 4.80168C15.7785 3.9831 17.1069 3.98386 17.9264 4.80338L19.008 5.88509C19.8267 6.7039 19.8282 8.03092 19.0113 8.85153L9.63802 18.267C9.41428 18.4917 9.13213 18.6494 8.82347 18.7222L4.97377 19.6302C4.37531 19.7713 3.84797 19.2126 4.02338 18.6233L5.13262 14.8964C5.21342 14.6249 5.36074 14.378 5.56123 14.1779L14.9581 4.80168ZM16.9364 5.79329C16.6632 5.52011 16.2204 5.51986 15.947 5.79272L14.8217 6.91552L16.8971 8.99089L18.0191 7.86381C18.2914 7.59027 18.2909 7.14793 18.018 6.87499L16.9364 5.79329ZM15.9093 9.98306L13.8306 7.90438L6.99057 14.7294L9.09213 16.831L15.9093 9.98306ZM5.66073 18.0297L6.2686 15.9874L7.80521 17.524L5.66073 18.0297Z" fill="#333333"/>
<path d="M17.2689 19.6102C16.605 20.2741 15.5286 20.2741 14.8648 19.6102L12.8436 17.5891C12.5703 17.3157 12.5703 16.8725 12.8436 16.5991C13.117 16.3257 13.5602 16.3257 13.8336 16.5991L15.8547 18.6202C15.9719 18.7374 16.1618 18.7374 16.279 18.6202L18.6347 16.2645C18.7519 16.1473 18.7519 15.9574 18.6347 15.8402L18.3567 15.5622L16.9664 16.9522C16.693 17.2255 16.2498 17.2254 15.9764 16.952C15.7031 16.6786 15.7031 16.2354 15.9765 15.9621L17.3667 14.5722L16.8741 14.0796L15.994 14.9598C15.7206 15.2332 15.2774 15.2332 15.004 14.9598C14.7307 14.6865 14.7307 14.2432 15.004 13.9699L16.3664 12.6074C16.6397 12.334 17.083 12.334 17.3563 12.6074C17.3872 12.6382 17.4145 12.6712 17.4384 12.7059C17.4973 12.7375 17.5526 12.7782 17.6023 12.8279L19.6247 14.8503C20.2886 15.5141 20.2886 16.5905 19.6247 17.2544L17.2689 19.6102Z" fill="#333333"/>
</svg>
