<svg width="24" height="24" viewBox="0 0 24 24" fill="none" xmlns="http://www.w3.org/2000/svg">
<path fill-rule="evenodd" clip-rule="evenodd" d="M14.4465 3.86678C14.8167 3.97817 15.0266 4.36858 14.9152 4.73879L10.4245 19.6636C10.3131 20.0338 9.92272 20.2436 9.55251 20.1322C9.18231 20.0208 8.9725 19.6304 9.08388 19.2602L13.5745 4.33541C13.6859 3.96521 14.0763 3.75539 14.4465 3.86678Z" fill="#333333"/>
<path fill-rule="evenodd" clip-rule="evenodd" d="M8.00323 7.023C8.31251 7.25496 8.37519 7.69372 8.14323 8.003L5.1458 11.9996L8.14323 15.9961C8.37519 16.3054 8.31251 16.7442 8.00323 16.9761C7.69395 17.2081 7.25519 17.1454 7.02323 16.8361L3.7108 12.4196C3.52413 12.1707 3.52413 11.8285 3.7108 11.5796L7.02323 7.163C7.25519 6.85372 7.69395 6.79104 8.00323 7.023Z" fill="#333333"/>
<path fill-rule="evenodd" clip-rule="evenodd" d="M15.9963 7.023C16.3056 6.79104 16.7443 6.85372 16.9763 7.163L20.2887 11.5796C20.4754 11.8285 20.4754 12.1707 20.2887 12.4196L16.9763 16.8361C16.7443 17.1454 16.3056 17.2081 15.9963 16.9761C15.687 16.7442 15.6243 16.3054 15.8563 15.9961L18.8537 11.9996L15.8563 8.003C15.6243 7.69372 15.687 7.25496 15.9963 7.023Z" fill="#333333"/>
</svg>
