<svg width="24" height="24" viewBox="0 0 24 24" fill="none" xmlns="http://www.w3.org/2000/svg">
<path d="M9.82944 2.73779C9.54504 2.47592 9.1022 2.49418 8.84033 2.77858C8.57846 3.06297 8.59672 3.50581 8.88111 3.76768L10.0262 4.82205C7.32334 5.08058 5.17198 7.2263 4.90387 9.92674C4.86567 10.3114 5.14657 10.6543 5.53128 10.6925C5.91599 10.7307 6.25882 10.4498 6.29702 10.0651C6.50558 7.96446 8.22738 6.30826 10.3567 6.20138L9.40337 7.75893C9.20155 8.08867 9.30524 8.51958 9.63498 8.7214C9.96472 8.92323 10.3956 8.81953 10.5975 8.48979L12.2719 5.75406C12.4465 5.46891 12.395 5.10014 12.149 4.87368L9.82944 2.73779Z" fill="#333333"/>
<path d="M5.29179 14.0366L5.95667 12.885L7.16911 13.585L6.50422 14.7366C6.33495 15.0298 6.43363 15.4165 6.7434 15.5954L12.1023 18.6893C12.412 18.8681 12.7962 18.7602 12.9655 18.467L18.2253 9.35672C18.3946 9.0635 18.2959 8.67682 17.9862 8.49799L14.0275 6.21244L14.7275 5L18.6862 7.28556C19.6549 7.84484 19.9998 9.0833 19.4378 10.0567L14.1779 19.167C13.616 20.1404 12.371 20.461 11.4023 19.9017L6.0434 16.8078C5.07469 16.2485 4.72978 15.01 5.29179 14.0366Z" fill="#333333"/>
<path d="M13.1375 7.54412C13.3285 7.20801 13.7559 7.09041 14.092 7.28144L16.1738 8.46466C16.5099 8.65569 16.6275 9.08302 16.4365 9.41912C16.2454 9.75523 15.8181 9.87283 15.482 9.6818L13.4002 8.49858C13.0641 8.30755 12.9465 7.88022 13.1375 7.54412Z" fill="#333333"/>
<path d="M10.9411 16.0896C10.6649 16.5679 10.0533 16.7318 9.57501 16.4557C9.09672 16.1795 8.93286 15.5679 9.20903 15.0896C9.4851 14.6114 10.0967 14.4475 10.575 14.7236C11.0533 14.9998 11.2172 15.6114 10.9411 16.0896Z" fill="#333333"/>
</svg>
