<svg width="24" height="24" viewBox="0 0 24 24" fill="none" xmlns="http://www.w3.org/2000/svg">
<path d="M4.76711 18.1949L4.76711 8.34622L4.37355 8.72708L4.26222 8.81497C3.98766 8.98952 3.61937 8.95337 3.38429 8.71048C3.11557 8.43255 3.12297 7.98897 3.4009 7.72024L4.98097 6.1929C5.18296 5.9976 5.48207 5.94162 5.74074 6.0513C5.99941 6.16101 6.1675 6.41485 6.1675 6.69583L6.1675 18.1949C6.16749 18.5814 5.85382 18.895 5.4673 18.895C5.0807 18.895 4.7671 18.5815 4.76711 18.1949Z" fill="#15C674"/>
<path d="M12.5835 9.68899C12.5835 8.81846 12.3503 8.26003 12.063 7.91262C11.775 7.56448 11.3854 7.37029 10.9644 7.30911C10.5361 7.2469 10.0948 7.32626 9.74562 7.5054C9.39536 7.68511 9.18601 7.93671 9.11476 8.19387L9.06398 8.32571C8.91602 8.61592 8.57957 8.77153 8.25343 8.68118C7.881 8.57788 7.66294 8.19235 7.76613 7.81985L7.80715 7.68704C8.03253 7.03353 8.53549 6.55204 9.10597 6.2593C9.71548 5.94658 10.4511 5.82055 11.1655 5.92434C11.8873 6.02925 12.6069 6.37297 13.1421 7.02005C13.6781 7.66807 13.9829 8.56353 13.9829 9.68899C13.9828 11.5884 12.7641 12.9175 11.6362 14.1216C10.6686 15.1546 9.69415 16.1621 9.06398 17.4849H13.1099L13.2515 17.4995C13.5702 17.5649 13.81 17.847 13.8101 18.1851C13.8101 18.5232 13.5703 18.8052 13.2515 18.8706L13.1099 18.8853H8.03761C7.81475 18.8853 7.60504 18.7788 7.47316 18.5991C7.34161 18.4197 7.30312 18.1884 7.36965 17.9761C8.04604 15.8226 9.48003 14.376 10.6148 13.1646C11.7991 11.9001 12.5834 10.9568 12.5835 9.68899Z" fill="#15C674"/>
<path d="M18.5152 8.99759C18.5152 9.96173 18.092 10.4405 17.6968 10.7056C17.4856 10.8472 17.27 10.9339 17.105 10.9849C17.0235 11.01 16.9571 11.026 16.9146 11.0347C16.8936 11.039 16.8785 11.0412 16.8706 11.0425C16.8674 11.043 16.8648 11.0435 16.8648 11.0435H16.8696C16.5121 11.0893 16.2481 11.399 16.2593 11.7593C16.2705 12.1195 16.5531 12.4124 16.9126 12.4361H16.9107C16.9107 12.4361 16.9172 12.4363 16.9243 12.437C16.939 12.4385 16.9648 12.4411 16.9986 12.4458C17.0663 12.4553 17.1684 12.4726 17.2925 12.5025C17.5436 12.5629 17.8714 12.6716 18.1929 12.8618C18.8016 13.2221 19.44 13.8965 19.44 15.2964C19.44 16.4918 18.6634 17.268 17.7173 17.5308C16.745 17.8007 15.7744 17.4914 15.3384 16.6841L14.7222 17.0171L14.106 17.3491C14.9338 18.8819 16.6719 19.274 18.0923 18.8794C19.539 18.4775 20.8394 17.2237 20.8394 15.2964C20.8394 13.3435 19.8877 12.2378 18.9058 11.6568C18.8758 11.639 18.8448 11.6237 18.815 11.607C19.4125 11.0826 19.9155 10.2528 19.9155 8.99759C19.9155 7.43086 18.94 6.42501 17.7798 6.09427C16.6641 5.77623 15.3136 6.0689 14.5191 7.09915L15.0737 7.52591L15.6275 7.95364C16.0152 7.45091 16.7362 7.25284 17.396 7.44095C18.0112 7.61634 18.5151 8.11305 18.5152 8.99759ZM14.646 8.08059C14.9521 8.31657 15.3914 8.25969 15.6275 7.95364L14.5191 7.09915C14.2832 7.40527 14.34 7.84457 14.646 8.08059ZM15.3384 16.6841C15.1547 16.344 14.7293 16.2172 14.3892 16.4009C14.0493 16.5846 13.9227 17.0091 14.106 17.3491L15.3384 16.6841Z" fill="#15C674"/>
</svg>
