<svg width="24" height="24" viewBox="0 0 24 24" fill="none" xmlns="http://www.w3.org/2000/svg">
<path d="M19.4168 5.28027C19.8034 5.28027 20.1168 5.59367 20.1168 5.98027V12.5722C20.1172 12.5824 20.1175 12.5927 20.1175 12.6029C20.1175 12.6132 20.1172 12.6235 20.1168 12.6337L20.1168 18.5643C20.1168 18.9509 19.8034 19.2643 19.4168 19.2643C19.0302 19.2643 18.7168 18.9509 18.7168 18.5643V13.3029H14.0159C13.6293 13.3029 13.3159 12.9895 13.3159 12.6029V6.00762C13.3159 5.62102 13.6293 5.30762 14.0159 5.30762C14.4025 5.30762 14.7159 5.62102 14.7159 6.00762V11.9029H18.7168V5.98027C18.7168 5.59367 19.0302 5.28027 19.4168 5.28027Z" fill="#1BCE7B"/>
<path d="M11.5293 9.29945C11.5293 8.20767 11.1664 7.31095 10.563 6.6467C9.96697 5.99051 9.16944 5.59673 8.34645 5.43678C6.7371 5.12399 4.81956 5.68398 3.92564 7.26089C3.73498 7.59721 3.85307 8.02441 4.18939 8.21506C4.52571 8.40571 4.9529 8.28763 5.14355 7.95131C5.66549 7.03059 6.8953 6.58093 8.07934 6.81106C8.65305 6.92257 9.16371 7.18839 9.5267 7.58801C9.88238 7.97958 10.1293 8.5349 10.1293 9.29945C10.1293 9.91334 9.90424 10.4948 9.48323 11.1146C9.05505 11.7449 8.45783 12.3678 7.76217 13.0697C7.68847 13.1441 7.61375 13.2192 7.53819 13.2952C6.22631 14.6143 4.66476 16.1845 3.87768 18.3228C3.79864 18.5375 3.82955 18.7773 3.96046 18.965C4.09138 19.1527 4.30577 19.2646 4.5346 19.2646L10.8293 19.2645C11.2159 19.2645 11.5293 18.9511 11.5293 18.5645C11.5293 18.1779 11.2159 17.8645 10.8293 17.8645L5.61469 17.8646C6.3539 16.4759 7.47103 15.3504 8.5832 14.23L8.75656 14.0552C9.4421 13.3635 10.1299 12.6542 10.6413 11.9012C11.16 11.1376 11.5293 10.2844 11.5293 9.29945Z" fill="#1BCE7B"/>
</svg>
