<svg width="24" height="24" viewBox="0 0 24 24" fill="none" xmlns="http://www.w3.org/2000/svg">
<path d="M13.0429 10.2673C12.9333 10.1237 12.7836 10.0023 12.5514 9.94472L12.5476 9.88347L11.6704 8.79157C11.8586 8.74041 12.0534 8.70898 12.2317 8.70898C15.4328 8.70898 15.1784 14.0211 12.2317 14.0211C12.049 14.0211 11.8767 14.001 11.715 13.9634L12.6344 12.7383C12.7683 12.6759 12.8804 12.5794 12.9787 12.4533C13.1838 12.1901 13.3268 11.7864 13.3376 11.3363C13.3484 10.8852 13.2243 10.5049 13.0429 10.2673Z" fill="#333333"/>
<path fill-rule="evenodd" clip-rule="evenodd" d="M8.24719 9.12153C6.50933 10.4008 7.08609 14.0211 9.54062 14.0211C12.4875 14.0211 12.7419 8.70898 9.54064 8.70898C9.09043 8.70898 8.53576 8.9091 8.24719 9.12153ZM9.07374 10.2515C8.779 10.4716 8.53657 11.0556 8.6892 11.7509C8.83114 12.3975 9.1756 12.6211 9.54062 12.6211C9.80461 12.6211 9.98048 12.522 10.1299 12.3303C10.3045 12.1063 10.4366 11.7459 10.4466 11.3315C10.4565 10.9159 10.3412 10.5829 10.1929 10.3887C10.0774 10.2375 9.9045 10.109 9.54064 10.109C9.50429 10.109 9.40529 10.1209 9.27383 10.1645C9.2142 10.1842 9.16205 10.2059 9.12192 10.2255C9.09312 10.2396 9.07734 10.2493 9.07374 10.2515Z" fill="#333333"/>
<path fill-rule="evenodd" clip-rule="evenodd" d="M14.308 7.4014L12.9621 5.73136C12.5824 5.26024 12.0099 4.98633 11.4048 4.98633H6.00001C4.89544 4.98633 4.00001 5.88176 4.00001 6.98633L4.00001 9.34459L4.00024 9.37L4 9.4014V16.9999C4 18.1045 4.89543 18.9999 6 18.9999H18.0001C19.1047 18.9999 20.0001 18.1045 20.0001 16.9999V9.4014C20.0001 8.29683 19.1047 7.4014 18.0001 7.4014H14.308ZM5.40002 9.34492C5.4003 9.36046 5.40031 9.37601 5.40008 9.39155L5.4 9.4014V16.0481C5.71436 15.5865 6.12907 15.2297 6.60372 14.9659C7.50541 14.4648 8.5883 14.3154 9.54552 14.3154C10.5027 14.3154 11.5856 14.4648 12.4873 14.9659C13.3991 15.4726 14.0898 16.3227 14.2727 17.5999H15.645C15.5026 16.9169 15.1448 16.4741 14.6717 16.1764L14.6703 16.1703L13.0527 14.4551C13.766 14.5257 14.4957 14.7013 15.1303 15.054C16.0129 15.5444 16.6818 16.3637 16.8632 17.5999H18.0001C18.3315 17.5999 18.6001 17.3313 18.6001 16.9999V9.4014C18.6001 9.07003 18.3315 8.8014 18.0001 8.8014H14.308C13.8844 8.8014 13.4836 8.60966 13.2179 8.27988L11.872 6.60984C11.7581 6.4685 11.5863 6.38633 11.4048 6.38633H6.00001C5.66864 6.38633 5.40001 6.65496 5.40001 6.98633L5.40002 9.34492ZM6.2401 17.5981H12.8509C12.6993 16.8991 12.3125 16.4704 11.8073 16.1896C11.1996 15.852 10.3877 15.7154 9.54552 15.7154C8.70331 15.7154 7.89139 15.852 7.28376 16.1896C6.77853 16.4704 6.39175 16.8991 6.2401 17.5981Z" fill="#333333"/>
</svg>
