<svg width="24" height="24" viewBox="0 0 24 24" fill="none" xmlns="http://www.w3.org/2000/svg">
<path fill-rule="evenodd" clip-rule="evenodd" d="M3.93097 7.48095C3.9932 6.59021 4.73393 5.89941 5.62684 5.89941H6.30095C7.23983 5.89941 8.00095 6.66053 8.00095 7.59941V14.1419C8.00095 15.0808 7.23983 15.8419 6.30095 15.8419H5.16981C4.18428 15.8419 3.40527 15.0066 3.47394 14.0234L3.93097 7.48095ZM5.62684 7.29941C5.46927 7.29941 5.33855 7.42132 5.32757 7.57851L4.87054 14.121C4.85842 14.2945 4.99589 14.4419 5.16981 14.4419H6.30095C6.46663 14.4419 6.60095 14.3076 6.60095 14.1419V7.59941C6.60095 7.43373 6.46663 7.29941 6.30095 7.29941H5.62684Z" fill="#333333"/>
<path fill-rule="evenodd" clip-rule="evenodd" d="M12.2493 5.92303C13.7854 5.81286 15.3562 5.7002 16.9043 5.7002C17.6452 5.7002 18.1869 6.19636 18.4819 6.66152C18.6733 6.96349 18.8246 7.35104 18.8531 7.74662C18.993 7.86257 19.1054 7.99796 19.193 8.13197C19.3797 8.41754 19.491 8.74959 19.5455 9.05995C19.5999 9.37004 19.6059 9.70543 19.5417 10.0102C19.5349 10.0424 19.5268 10.0764 19.5172 10.1117C19.8256 10.4573 19.9946 10.8968 20.0664 11.277C20.1257 11.5907 20.1323 11.92 20.0776 12.2257C20.0669 12.2853 20.0534 12.3466 20.0366 12.4085C20.1973 12.5727 20.3206 12.7578 20.4098 12.96C20.5737 13.3317 20.5986 13.7109 20.6012 14.0036C20.604 14.3085 20.571 14.7605 20.3744 15.162C20.2715 15.3721 20.1137 15.5887 19.8745 15.7518C19.6302 15.9184 19.3425 16.0005 19.0311 16.0005V14.6005C19.0628 14.6005 19.0795 14.5967 19.0863 14.5945C19.0905 14.5903 19.1019 14.5771 19.1171 14.5462C19.1716 14.435 19.2033 14.2417 19.2013 14.0162C19.1991 13.7785 19.1756 13.631 19.1288 13.5248C19.0924 13.4422 19.0245 13.3431 18.8308 13.2437C18.6321 13.1417 18.494 12.9509 18.4591 12.7303C18.4242 12.5097 18.4967 12.2856 18.6542 12.1272C18.6519 12.1295 18.6507 12.1307 18.6507 12.1307C18.6507 12.1307 18.6795 12.0903 18.6995 11.979C18.7212 11.8575 18.7217 11.7007 18.6907 11.5368C18.6224 11.175 18.4548 10.9921 18.3376 10.9451C18.0854 10.8439 17.9146 10.6058 17.8994 10.3345C17.8865 10.1036 17.9883 9.88417 18.1664 9.74458C18.1681 9.73789 18.1699 9.73025 18.1717 9.72159C18.1922 9.62442 18.1965 9.47274 18.1666 9.30206C18.1366 9.13162 18.0808 8.98916 18.0211 8.89789C17.9887 8.84828 17.9659 8.82871 17.9569 8.82239C17.7708 8.77759 17.611 8.65846 17.5149 8.49253C17.4171 8.32355 17.3943 8.1214 17.452 7.93489C17.4551 7.92481 17.4667 7.86525 17.4425 7.7525C17.4194 7.64504 17.3708 7.52362 17.2995 7.41118C17.1415 7.16197 16.9781 7.1002 16.9043 7.1002C15.4085 7.1002 13.9191 7.20711 12.4056 7.31574C11.749 7.36288 11.0879 7.41033 10.4197 7.44953C10.4103 7.45008 10.4008 7.45044 10.3914 7.45062L10.3896 7.45074C10.3831 7.45122 10.3689 7.45255 10.3501 7.45579C10.3091 7.46283 10.2647 7.47562 10.2285 7.49431C10.1954 7.51135 10.1805 7.52705 10.1718 7.54047C10.1653 7.55053 10.1369 7.59714 10.1369 7.72167V14.6697C10.1369 14.7373 10.1611 14.8025 10.2011 14.8515L10.2355 14.8809C10.2788 14.9181 10.3412 14.9719 10.4182 15.0388C10.5721 15.1725 10.785 15.359 11.0206 15.5701C11.4856 15.9867 12.0615 16.5191 12.443 16.9323C13.1987 17.7512 13.9433 18.8492 14.2969 19.3909C14.3608 19.4889 14.4406 19.5253 14.5043 19.532C14.5647 19.5383 14.6484 19.5221 14.7355 19.4322C14.748 19.4194 14.8155 19.3134 14.7949 18.9597C14.7817 18.7335 14.7463 18.5379 14.7091 18.3319C14.6888 18.2194 14.6679 18.1038 14.6497 17.9784C14.6411 17.919 14.6013 17.7714 14.5201 17.5387C14.4444 17.3218 14.3484 17.0741 14.2521 16.8365C14.1563 16.5999 14.0625 16.3788 13.9925 16.2165C13.9576 16.1355 13.9287 16.0694 13.9087 16.0239L13.8857 15.9717L13.8784 15.9552C13.8581 15.9099 13.8424 15.8617 13.8322 15.8132C13.7999 15.6597 13.7938 15.475 13.8592 15.2843C13.9265 15.0882 14.0501 14.942 14.1855 14.8413C14.4231 14.6646 14.7065 14.6208 14.8768 14.6032C15.0713 14.5831 15.2828 14.5847 15.4667 14.5888C15.5343 14.5903 15.5979 14.5921 15.6592 14.5938C15.7805 14.5973 15.8927 14.6005 16.0081 14.6005H19.0311V16.0005H16.0081C15.8727 16.0005 15.7261 15.9963 15.5941 15.9926C15.5379 15.991 15.4844 15.9895 15.4356 15.9884C15.4292 15.9883 15.4229 15.9881 15.4166 15.988C15.459 16.0892 15.5041 16.1982 15.5497 16.3109C15.6501 16.5589 15.7556 16.8301 15.8419 17.0774C15.9227 17.3089 16.0053 17.5707 16.0353 17.7779C16.0419 17.8235 16.0538 17.8906 16.0684 17.9721C16.1105 18.2088 16.1744 18.5675 16.1925 18.8782C16.2166 19.292 16.1932 19.9402 15.7404 20.407C14.954 21.2177 13.7141 21.0595 13.1245 20.1562C12.776 19.6223 12.085 18.6087 11.4142 17.8819C11.0823 17.5223 10.5507 17.0288 10.0864 16.6128C9.85737 16.4076 9.65014 16.2261 9.50019 16.0958C9.42526 16.0307 9.36477 15.9786 9.32315 15.9428L9.27549 15.902L9.26039 15.8891L9.25957 15.8884C9.24259 15.8739 9.22631 15.8587 9.21078 15.8427C8.90707 15.5294 8.73685 15.1065 8.73685 14.6697V7.72167C8.73685 7.36073 8.82613 7.04324 8.99622 6.78022C9.16414 6.52056 9.38467 6.35421 9.58706 6.24989C9.78627 6.14721 9.97736 6.09931 10.113 6.07601C10.1824 6.06408 10.2419 6.05783 10.2868 6.05452C10.3094 6.05285 10.3287 6.05191 10.3441 6.05138L10.3495 6.05124C10.9739 6.01451 11.6086 5.96899 12.2493 5.92303ZM18.1529 9.78402C18.1529 9.78402 18.154 9.78038 18.1572 9.77477C18.1547 9.78149 18.1529 9.78402 18.1529 9.78402Z" fill="#333333"/>
</svg>
