<svg width="24" height="24" viewBox="0 0 24 24" fill="none" xmlns="http://www.w3.org/2000/svg">
<path d="M8.40027 6.82888C8.71736 6.60771 8.79511 6.17136 8.57393 5.85428C8.35276 5.5372 7.91642 5.45945 7.59934 5.68062C5.60621 7.07087 4.2998 9.38285 4.2998 12.0001C4.2998 14.6173 5.60621 16.9293 7.59934 18.3195C7.91642 18.5407 8.35276 18.4629 8.57393 18.1458C8.79511 17.8288 8.71736 17.3924 8.40027 17.1712C6.76643 16.0316 5.6998 14.1403 5.6998 12.0001C5.6998 9.85978 6.76643 7.96852 8.40027 6.82888Z" fill="#333333"/>
<path d="M16.4003 5.68062C16.0832 5.45945 15.6468 5.5372 15.4257 5.85428C15.2045 6.17136 15.2823 6.60771 15.5993 6.82888C17.2332 7.96852 18.2998 9.85978 18.2998 12.0001C18.2998 14.1403 17.2332 16.0316 15.5993 17.1712C15.2823 17.3924 15.2045 17.8288 15.4257 18.1458C15.6468 18.4629 16.0832 18.5407 16.4003 18.3195C18.3934 16.9293 19.6998 14.6173 19.6998 12.0001C19.6998 9.38285 18.3934 7.07087 16.4003 5.68062Z" fill="#333333"/>
<path d="M10.6057 8.18457C10.7993 8.51921 10.685 8.94742 10.3503 9.141C9.36211 9.71264 8.6998 10.7794 8.6998 11.9999C8.6998 13.2205 9.36211 14.2873 10.3503 14.8589C10.685 15.0525 10.7993 15.4807 10.6057 15.8153C10.4121 16.15 9.98394 16.2643 9.6493 16.0707C8.24629 15.2591 7.2998 13.7405 7.2998 11.9999C7.2998 10.2594 8.24629 8.74075 9.6493 7.92915C9.98394 7.73557 10.4121 7.84993 10.6057 8.18457Z" fill="#333333"/>
<path d="M13.3939 8.18457C13.5875 7.84993 14.0157 7.73557 14.3503 7.92915C15.7533 8.74075 16.6998 10.2594 16.6998 11.9999C16.6998 13.7405 15.7533 15.2591 14.3503 16.0707C14.0157 16.2643 13.5875 16.15 13.3939 15.8153C13.2003 15.4807 13.3147 15.0525 13.6493 14.8589C14.6375 14.2873 15.2998 13.2205 15.2998 11.9999C15.2998 10.7794 14.6375 9.71264 13.6493 9.141C13.3147 8.94742 13.2003 8.51921 13.3939 8.18457Z" fill="#333333"/>
<path fill-rule="evenodd" clip-rule="evenodd" d="M10.2998 11.9998C10.2998 11.0609 11.0609 10.2998 11.9998 10.2998C12.9387 10.2998 13.6998 11.0609 13.6998 11.9998C13.6998 12.9387 12.9387 13.6998 11.9998 13.6998C11.0609 13.6998 10.2998 12.9387 10.2998 11.9998ZM11.9998 11.6998C11.8341 11.6998 11.6998 11.8341 11.6998 11.9998C11.6998 12.1655 11.8341 12.2998 11.9998 12.2998C12.1655 12.2998 12.2998 12.1655 12.2998 11.9998C12.2998 11.8341 12.1655 11.6998 11.9998 11.6998Z" fill="#333333"/>
</svg>
