<svg width="24" height="24" viewBox="0 0 24 24" fill="none" xmlns="http://www.w3.org/2000/svg">
<path fill-rule="evenodd" clip-rule="evenodd" d="M12.9794 8.29903C13.3908 7.99811 13.8387 7.74943 14.2998 7.56159V5.55679C14.4148 5.61587 14.5211 5.69278 14.6121 5.78513L15.9851 7.17636C16.7495 7.13095 17.5225 7.25092 18.2395 7.53135C18.1492 7.3977 18.0467 7.27225 17.9332 7.15731L15.6086 4.80176C15.1182 4.30425 14.4341 4.01781 13.7402 4.01954H8.33666C6.8886 4.01954 5.70508 5.24865 5.70508 6.6862V17.3529C5.70508 18.7904 6.88863 20.0195 8.33666 20.0195H12.6696C12.6594 19.5989 12.6372 19.0804 12.6147 18.6195H8.33666C7.68928 18.6195 7.10508 18.045 7.10508 17.3529V6.6862C7.10508 5.99409 7.68927 5.41954 8.33666 5.41954L12.8998 5.41954V7.72903C12.8998 7.92358 12.9271 8.11526 12.9794 8.29903ZM10.9444 14.2941C11.0485 14.7759 11.1992 15.2479 11.3952 15.6941H9.70508C9.31848 15.6941 9.00508 15.3807 9.00508 14.9941C9.00508 14.6075 9.31848 14.2941 9.70508 14.2941H10.9444ZM10.9264 11.2941C10.8231 11.6993 10.7719 12.1311 10.772 12.6941H9.70508C9.31848 12.6941 9.00508 12.3807 9.00508 11.9941C9.00508 11.6075 9.31848 11.2941 9.70508 11.2941H10.9264Z" fill="#333333"/>
<path fill-rule="evenodd" clip-rule="evenodd" d="M14.3029 19.4385C14.3029 19.0519 14.6163 18.7385 15.0029 18.7385H17.8601C18.2467 18.7385 18.5601 19.0519 18.5601 19.4385C18.5601 19.8251 18.2467 20.1385 17.8601 20.1385H15.0029C14.6163 20.1385 14.3029 19.8251 14.3029 19.4385Z" fill="#333333"/>
<path fill-rule="evenodd" clip-rule="evenodd" d="M17.665 10.6234C17.0245 10.2889 16.2413 10.231 15.5565 10.4684C14.872 10.7057 14.3021 11.232 14.0179 11.8821C13.8716 12.2168 13.8053 12.462 13.8055 12.918C13.8057 13.7013 14.2555 14.5848 14.8815 15.2014C15.2671 15.5812 15.3932 16.086 15.4059 16.6583H17.4248C17.4211 16.3436 17.4591 16.0704 17.5467 15.8283C17.6508 15.541 17.8063 15.3487 17.9452 15.2081C18.8049 14.3381 19.2492 13.2847 18.9711 12.244M17.665 10.6234C18.3051 10.9577 18.7885 11.5606 18.9711 12.244L17.665 10.6234ZM18.3131 9.38245C17.3301 8.869 16.1465 8.78218 15.098 9.14562C14.0491 9.5092 13.1777 10.3089 12.7351 11.3214C12.518 11.8181 12.4052 12.2536 12.4055 12.9184C12.4059 14.1768 13.0871 15.399 13.8991 16.1988C13.9168 16.2162 14.007 16.3045 14.007 16.7585C14.007 17.0297 14.0755 17.3591 14.3066 17.6323C14.554 17.9247 14.9076 18.0583 15.2814 18.0583H17.5535C18.3232 18.0583 18.867 17.4361 18.827 16.7223C18.8159 16.474 18.8447 16.3556 18.8631 16.3049C18.8773 16.2656 18.8938 16.2399 18.941 16.1921C19.997 15.1235 20.7777 13.5817 20.3237 11.8826C20.0385 10.8156 19.2966 9.89609 18.3131 9.38245Z" fill="#333333"/>
</svg>
