<svg width="24" height="24" viewBox="0 0 24 24" fill="none" xmlns="http://www.w3.org/2000/svg">
<path fill-rule="evenodd" clip-rule="evenodd" d="M6.5499 5.09961C5.7767 5.09961 5.1499 5.72641 5.1499 6.49961C5.1499 7.27281 5.7767 7.89961 6.5499 7.89961C7.3231 7.89961 7.9499 7.27281 7.9499 6.49961C7.9499 5.72641 7.3231 5.09961 6.5499 5.09961Z" fill="#1BCE7B"/>
<path fill-rule="evenodd" clip-rule="evenodd" d="M5.1499 11.9996C5.1499 11.2264 5.7767 10.5996 6.5499 10.5996C7.3231 10.5996 7.9499 11.2264 7.9499 11.9996C7.9499 12.7728 7.3231 13.3996 6.5499 13.3996C5.7767 13.3996 5.1499 12.7728 5.1499 11.9996Z" fill="#1BCE7B"/>
<path fill-rule="evenodd" clip-rule="evenodd" d="M16.1533 11.9996C16.1533 11.2264 16.7801 10.5996 17.5533 10.5996C18.3265 10.5996 18.9533 11.2264 18.9533 11.9996C18.9533 12.7728 18.3265 13.3996 17.5533 13.3996C16.7801 13.3996 16.1533 12.7728 16.1533 11.9996Z" fill="#1BCE7B"/>
<path fill-rule="evenodd" clip-rule="evenodd" d="M16.1533 6.49961C16.1533 5.72641 16.7801 5.09961 17.5533 5.09961C18.3265 5.09961 18.9533 5.72641 18.9533 6.49961C18.9533 7.27281 18.3265 7.89961 17.5533 7.89961C16.7801 7.89961 16.1533 7.27281 16.1533 6.49961Z" fill="#1BCE7B"/>
<path fill-rule="evenodd" clip-rule="evenodd" d="M6.5499 16.0996C5.7767 16.0996 5.1499 16.7264 5.1499 17.4996C5.1499 18.2728 5.7767 18.8996 6.5499 18.8996C7.3231 18.8996 7.9499 18.2728 7.9499 17.4996C7.9499 16.7264 7.3231 16.0996 6.5499 16.0996Z" fill="#1BCE7B"/>
<path fill-rule="evenodd" clip-rule="evenodd" d="M16.1533 17.4996C16.1533 16.7264 16.7801 16.0996 17.5533 16.0996C18.3265 16.0996 18.9533 16.7264 18.9533 17.4996C18.9533 18.2728 18.3265 18.8996 17.5533 18.8996C16.7801 18.8996 16.1533 18.2728 16.1533 17.4996Z" fill="#1BCE7B"/>
<path fill-rule="evenodd" clip-rule="evenodd" d="M12.0514 10.5996C11.2782 10.5996 10.6514 11.2264 10.6514 11.9996C10.6514 12.7728 11.2782 13.3996 12.0514 13.3996C12.8246 13.3996 13.4514 12.7728 13.4514 11.9996C13.4514 11.2264 12.8246 10.5996 12.0514 10.5996Z" fill="#1BCE7B"/>
<path fill-rule="evenodd" clip-rule="evenodd" d="M10.6514 6.49961C10.6514 5.72641 11.2782 5.09961 12.0514 5.09961C12.8246 5.09961 13.4514 5.72641 13.4514 6.49961C13.4514 7.27281 12.8246 7.89961 12.0514 7.89961C11.2782 7.89961 10.6514 7.27281 10.6514 6.49961Z" fill="#1BCE7B"/>
<path fill-rule="evenodd" clip-rule="evenodd" d="M12.0514 16.0996C11.2782 16.0996 10.6514 16.7264 10.6514 17.4996C10.6514 18.2728 11.2782 18.8996 12.0514 18.8996C12.8246 18.8996 13.4514 18.2728 13.4514 17.4996C13.4514 16.7264 12.8246 16.0996 12.0514 16.0996Z" fill="#1BCE7B"/>
</svg>
