<svg width="24" height="24" viewBox="0 0 24 24" fill="none" xmlns="http://www.w3.org/2000/svg">
<path fill-rule="evenodd" clip-rule="evenodd" d="M10.7996 21.2523C10.786 20.7496 10.7514 20.2477 10.696 19.7479L10.6942 19.7294L10.6921 19.705C10.6185 18.9541 10.3807 18.0284 9.79057 17.3025C9.22457 16.6063 8.27294 16.0163 6.59135 16.0163C6.32057 16.0163 6.07408 15.8602 5.95842 15.6153C5.27621 14.1713 4.97754 12.7778 4.97754 11.4284C4.97754 7.94519 7.85166 4.76953 11.9998 4.76953C16.1488 4.76953 19.0221 7.94525 19.0221 11.4284C19.0221 12.7778 18.7234 14.1711 18.0422 15.615C17.9266 15.86 17.68 16.0163 17.4091 16.0163C15.7437 16.0163 14.7949 16.5951 14.2275 17.2809C13.6355 17.9966 13.3912 18.9124 13.3123 19.6653C13.3123 19.6653 13.3123 19.6653 13.3123 19.6653L13.3013 19.7699C13.3012 19.7707 13.3011 19.7714 13.3011 19.7721C13.2438 20.3547 13.2114 20.8074 13.2031 21.1377C13.1945 21.4762 12.9449 21.76 12.6103 21.8118L11.6065 21.967C11.4046 21.9982 11.1991 21.9396 11.044 21.8066C10.8889 21.6737 10.7996 21.4795 10.7996 21.2752V21.2523ZM11.9998 6.16953C8.61681 6.16953 6.37754 8.7264 6.37754 11.4284C6.37754 12.4454 6.57791 13.5078 7.05075 14.6292C8.85795 14.7323 10.085 15.4453 10.8769 16.4193C11.5328 17.2261 11.8518 18.1643 12.0002 18.9646C12.1503 18.1548 12.4755 17.2025 13.1488 16.3886C13.9421 15.4296 15.1625 14.7312 16.9494 14.6292C17.4217 13.5077 17.6221 12.4454 17.6221 11.4284C17.6221 8.72634 15.3836 6.16953 11.9998 6.16953Z" fill="#333333"/>
</svg>
