<svg width="24" height="24" viewBox="0 0 24 24" fill="none" xmlns="http://www.w3.org/2000/svg">
<path d="M17.2449 7.74478C17.5183 7.47141 17.5183 7.0282 17.2449 6.75483C16.9716 6.48146 16.5284 6.48146 16.255 6.75483L8.04163 14.9682L4.57828 11.5048C4.30491 11.2315 3.86169 11.2315 3.58833 11.5048C3.31496 11.7782 3.31496 12.2214 3.58833 12.4948L7.54666 16.4531C7.82003 16.7265 8.26324 16.7265 8.53661 16.4531L17.2449 7.74478Z" fill="#333333"/>
<path d="M20.4118 10.9118C20.6851 10.6384 20.6851 10.1952 20.4118 9.92182C20.1384 9.64846 19.6952 9.64846 19.4218 9.92182L13.9793 15.3643L13.2868 14.6718C13.0134 14.3985 12.5702 14.3985 12.2968 14.6718C12.0235 14.9452 12.0235 15.3884 12.2968 15.6618L13.4843 16.8493C13.7577 17.1226 14.2009 17.1226 14.4743 16.8493L20.4118 10.9118Z" fill="#333333"/>
</svg>
