<svg width="24" height="24" viewBox="0 0 24 24" fill="none" xmlns="http://www.w3.org/2000/svg">
<path d="M12.2999 4.61406C12.2999 4.22746 11.9865 3.91406 11.5999 3.91406C11.2133 3.91406 10.8999 4.22746 10.8999 4.61406L10.8999 13.6956L8.09488 10.8906C7.82151 10.6172 7.37829 10.6172 7.10493 10.8906C6.83156 11.1639 6.83156 11.6072 7.10493 11.8805L11.0972 15.8728C11.2245 16.0041 11.4027 16.0857 11.5999 16.0857C11.7972 16.0857 11.9754 16.0041 12.1026 15.8728L16.0949 11.8805C16.3682 11.6072 16.3682 11.1639 16.0949 10.8906C15.8215 10.6172 15.3783 10.6172 15.1049 10.8906L12.2999 13.6956L12.2999 4.61406Z" fill="#333333"/>
<path d="M5.2999 15.3855C5.2999 14.9989 4.9865 14.6855 4.5999 14.6855C4.2133 14.6855 3.8999 14.9989 3.8999 15.3855V17.3855C3.8999 18.0737 4.13826 18.7494 4.58566 19.2607C5.03568 19.775 5.66766 20.0855 6.3499 20.0855H16.8499C17.5321 20.0855 18.1641 19.775 18.6141 19.2607C19.0615 18.7494 19.2999 18.0737 19.2999 17.3855V15.3855C19.2999 14.9989 18.9865 14.6855 18.5999 14.6855C18.2133 14.6855 17.8999 14.9989 17.8999 15.3855V17.3855C17.8999 17.7583 17.7695 18.1 17.5605 18.3388C17.3542 18.5746 17.0959 18.6855 16.8499 18.6855H6.3499C6.10388 18.6855 5.84563 18.5746 5.63927 18.3388C5.4303 18.1 5.2999 17.7583 5.2999 17.3855V15.3855Z" fill="#333333"/>
</svg>
