<svg width="24" height="24" viewBox="0 0 24 24" fill="none" xmlns="http://www.w3.org/2000/svg">
<path fill-rule="evenodd" clip-rule="evenodd" d="M8.7498 4.2998C7.94899 4.2998 7.2998 4.94899 7.2998 5.7498C7.2998 6.55062 7.94899 7.1998 8.7498 7.1998C9.55062 7.1998 10.1998 6.55062 10.1998 5.7498C10.1998 4.94899 9.55062 4.2998 8.7498 4.2998ZM8.6998 5.7498C8.6998 5.72219 8.72219 5.6998 8.7498 5.6998C8.77742 5.6998 8.7998 5.72219 8.7998 5.7498C8.7998 5.77742 8.77742 5.7998 8.7498 5.7998C8.72219 5.7998 8.6998 5.77742 8.6998 5.7498Z" fill="#333333"/>
<path fill-rule="evenodd" clip-rule="evenodd" d="M8.7498 10.5498C7.94899 10.5498 7.2998 11.199 7.2998 11.9998C7.2998 12.8006 7.94899 13.4498 8.7498 13.4498C9.55062 13.4498 10.1998 12.8006 10.1998 11.9998C10.1998 11.199 9.55062 10.5498 8.7498 10.5498ZM8.6998 11.9998C8.6998 11.9722 8.72219 11.9498 8.7498 11.9498C8.77742 11.9498 8.7998 11.9722 8.7998 11.9998C8.7998 12.0274 8.77742 12.0498 8.7498 12.0498C8.72219 12.0498 8.6998 12.0274 8.6998 11.9998Z" fill="#333333"/>
<path fill-rule="evenodd" clip-rule="evenodd" d="M7.2998 18.2498C7.2998 17.449 7.94899 16.7998 8.7498 16.7998C9.55062 16.7998 10.1998 17.449 10.1998 18.2498C10.1998 19.0506 9.55062 19.6998 8.7498 19.6998C7.94899 19.6998 7.2998 19.0506 7.2998 18.2498ZM8.7498 18.1998C8.72219 18.1998 8.6998 18.2222 8.6998 18.2498C8.6998 18.2774 8.72219 18.2998 8.7498 18.2998C8.77742 18.2998 8.7998 18.2774 8.7998 18.2498C8.7998 18.2222 8.77742 18.1998 8.7498 18.1998Z" fill="#333333"/>
<path fill-rule="evenodd" clip-rule="evenodd" d="M15.2498 10.5498C14.449 10.5498 13.7998 11.199 13.7998 11.9998C13.7998 12.8006 14.449 13.4498 15.2498 13.4498C16.0506 13.4498 16.6998 12.8006 16.6998 11.9998C16.6998 11.199 16.0506 10.5498 15.2498 10.5498ZM15.1998 11.9998C15.1998 11.9722 15.2222 11.9498 15.2498 11.9498C15.2774 11.9498 15.2998 11.9722 15.2998 11.9998C15.2998 12.0274 15.2774 12.0498 15.2498 12.0498C15.2222 12.0498 15.1998 12.0274 15.1998 11.9998Z" fill="#333333"/>
<path fill-rule="evenodd" clip-rule="evenodd" d="M13.7998 5.7498C13.7998 4.94899 14.449 4.2998 15.2498 4.2998C16.0506 4.2998 16.6998 4.94899 16.6998 5.7498C16.6998 6.55062 16.0506 7.1998 15.2498 7.1998C14.449 7.1998 13.7998 6.55062 13.7998 5.7498ZM15.2498 5.6998C15.2222 5.6998 15.1998 5.72219 15.1998 5.7498C15.1998 5.77742 15.2222 5.7998 15.2498 5.7998C15.2774 5.7998 15.2998 5.77742 15.2998 5.7498C15.2998 5.72219 15.2774 5.6998 15.2498 5.6998Z" fill="#333333"/>
<path fill-rule="evenodd" clip-rule="evenodd" d="M15.2498 16.7998C14.449 16.7998 13.7998 17.449 13.7998 18.2498C13.7998 19.0506 14.449 19.6998 15.2498 19.6998C16.0506 19.6998 16.6998 19.0506 16.6998 18.2498C16.6998 17.449 16.0506 16.7998 15.2498 16.7998ZM15.1998 18.2498C15.1998 18.2222 15.2222 18.1998 15.2498 18.1998C15.2774 18.1998 15.2998 18.2222 15.2998 18.2498C15.2998 18.2774 15.2774 18.2998 15.2498 18.2998C15.2222 18.2998 15.1998 18.2774 15.1998 18.2498Z" fill="#333333"/>
</svg>
