<svg width="24" height="24" viewBox="0 0 24 24" fill="none" xmlns="http://www.w3.org/2000/svg">
<path fill-rule="evenodd" clip-rule="evenodd" d="M10.1426 7.4502C9.60218 7.4502 9.16406 7.88832 9.16406 8.42877C9.16406 8.96922 9.60218 9.40734 10.1426 9.40734C10.6831 9.40734 11.1212 8.96922 11.1212 8.42877C11.1212 7.88832 10.6831 7.4502 10.1426 7.4502ZM10.2641 8.42877C10.2641 8.49583 10.2097 8.5502 10.1426 8.5502C10.0756 8.5502 10.0212 8.49583 10.0212 8.42877C10.0212 8.3617 10.0756 8.30734 10.1426 8.30734C10.2097 8.30734 10.2641 8.3617 10.2641 8.42877Z" fill="#333333"/>
<path fill-rule="evenodd" clip-rule="evenodd" d="M10.1426 11.0215C9.60218 11.0215 9.16406 11.4596 9.16406 12.0001C9.16406 12.5405 9.60218 12.9786 10.1426 12.9786C10.6831 12.9786 11.1212 12.5405 11.1212 12.0001C11.1212 11.4596 10.6831 11.0215 10.1426 11.0215ZM10.2641 12.0001C10.2641 12.0671 10.2097 12.1215 10.1426 12.1215C10.0756 12.1215 10.0212 12.0671 10.0212 12.0001C10.0212 11.933 10.0756 11.8786 10.1426 11.8786C10.2097 11.8786 10.2641 11.933 10.2641 12.0001Z" fill="#333333"/>
<path fill-rule="evenodd" clip-rule="evenodd" d="M9.16406 15.5713C9.16406 15.0309 9.60218 14.5928 10.1426 14.5928C10.6831 14.5928 11.1212 15.0309 11.1212 15.5713C11.1212 16.1118 10.6831 16.5499 10.1426 16.5499C9.60218 16.5499 9.16406 16.1118 9.16406 15.5713ZM10.1426 15.6928C10.2097 15.6928 10.2641 15.6384 10.2641 15.5713C10.2641 15.5043 10.2097 15.4499 10.1426 15.4499C10.0756 15.4499 10.0212 15.5043 10.0212 15.5713C10.0212 15.6384 10.0756 15.6928 10.1426 15.6928Z" fill="#333333"/>
<path fill-rule="evenodd" clip-rule="evenodd" d="M13.8565 11.0215C13.3161 11.0215 12.8779 11.4596 12.8779 12.0001C12.8779 12.5405 13.3161 12.9786 13.8565 12.9786C14.397 12.9786 14.8351 12.5405 14.8351 12.0001C14.8351 11.4596 14.397 11.0215 13.8565 11.0215ZM13.9779 12.0001C13.9779 12.0671 13.9236 12.1215 13.8565 12.1215C13.7894 12.1215 13.7351 12.0671 13.7351 12.0001C13.7351 11.933 13.7894 11.8786 13.8565 11.8786C13.9236 11.8786 13.9779 11.933 13.9779 12.0001Z" fill="#333333"/>
<path fill-rule="evenodd" clip-rule="evenodd" d="M12.8779 8.42877C12.8779 7.88832 13.3161 7.4502 13.8565 7.4502C14.397 7.4502 14.8351 7.88832 14.8351 8.42877C14.8351 8.96922 14.397 9.40734 13.8565 9.40734C13.3161 9.40734 12.8779 8.96922 12.8779 8.42877ZM13.8565 8.5502C13.9236 8.5502 13.9779 8.49583 13.9779 8.42877C13.9779 8.3617 13.9236 8.30734 13.8565 8.30734C13.7894 8.30734 13.7351 8.3617 13.7351 8.42877C13.7351 8.49583 13.7894 8.5502 13.8565 8.5502Z" fill="#333333"/>
<path fill-rule="evenodd" clip-rule="evenodd" d="M13.8565 14.5928C13.3161 14.5928 12.8779 15.0309 12.8779 15.5713C12.8779 16.1118 13.3161 16.5499 13.8565 16.5499C14.397 16.5499 14.8351 16.1118 14.8351 15.5713C14.8351 15.0309 14.397 14.5928 13.8565 14.5928ZM13.9779 15.5713C13.9779 15.6384 13.9236 15.6928 13.8565 15.6928C13.7894 15.6928 13.7351 15.6384 13.7351 15.5713C13.7351 15.5043 13.7894 15.4499 13.8565 15.4499C13.9236 15.4499 13.9779 15.5043 13.9779 15.5713Z" fill="#333333"/>
</svg>
