<svg width="24" height="24" viewBox="0 0 24 24" fill="none" xmlns="http://www.w3.org/2000/svg">
<path fill-rule="evenodd" clip-rule="evenodd" d="M9.67868 6.40039C9.05145 6.40039 8.54297 6.90887 8.54297 7.5361C8.54297 8.16334 9.05145 8.67182 9.67868 8.67182C10.3059 8.67182 10.8144 8.16334 10.8144 7.5361C10.8144 6.90887 10.3059 6.40039 9.67868 6.40039ZM9.74297 7.5361C9.74297 7.57161 9.71419 7.60039 9.67868 7.60039C9.64318 7.60039 9.6144 7.57161 9.6144 7.5361C9.6144 7.5006 9.64318 7.47182 9.67868 7.47182C9.71419 7.47182 9.74297 7.5006 9.74297 7.5361Z" fill="#333333"/>
<path fill-rule="evenodd" clip-rule="evenodd" d="M9.67868 10.8643C9.05145 10.8643 8.54297 11.3727 8.54297 12C8.54297 12.6272 9.05145 13.1357 9.67868 13.1357C10.3059 13.1357 10.8144 12.6272 10.8144 12C10.8144 11.3727 10.3059 10.8643 9.67868 10.8643ZM9.74297 12C9.74297 12.0355 9.71419 12.0643 9.67868 12.0643C9.64318 12.0643 9.6144 12.0355 9.6144 12C9.6144 11.9645 9.64318 11.9357 9.67868 11.9357C9.71419 11.9357 9.74297 11.9645 9.74297 12Z" fill="#333333"/>
<path fill-rule="evenodd" clip-rule="evenodd" d="M8.54297 16.4638C8.54297 15.8366 9.05145 15.3281 9.67868 15.3281C10.3059 15.3281 10.8144 15.8366 10.8144 16.4638C10.8144 17.0911 10.3059 17.5996 9.67868 17.5996C9.05145 17.5996 8.54297 17.0911 8.54297 16.4638ZM9.67868 16.5281C9.71419 16.5281 9.74297 16.4993 9.74297 16.4638C9.74297 16.4283 9.71419 16.3996 9.67868 16.3996C9.64318 16.3996 9.6144 16.4283 9.6144 16.4638C9.6144 16.4993 9.64318 16.5281 9.67868 16.5281Z" fill="#333333"/>
<path fill-rule="evenodd" clip-rule="evenodd" d="M14.3213 10.8643C13.694 10.8643 13.1855 11.3727 13.1855 12C13.1855 12.6272 13.694 13.1357 14.3213 13.1357C14.9485 13.1357 15.457 12.6272 15.457 12C15.457 11.3727 14.9485 10.8643 14.3213 10.8643ZM14.3855 12C14.3855 12.0355 14.3568 12.0643 14.3213 12.0643C14.2858 12.0643 14.257 12.0355 14.257 12C14.257 11.9645 14.2858 11.9357 14.3213 11.9357C14.3568 11.9357 14.3855 11.9645 14.3855 12Z" fill="#333333"/>
<path fill-rule="evenodd" clip-rule="evenodd" d="M13.1855 7.5361C13.1855 6.90887 13.694 6.40039 14.3213 6.40039C14.9485 6.40039 15.457 6.90887 15.457 7.5361C15.457 8.16334 14.9485 8.67182 14.3213 8.67182C13.694 8.67182 13.1855 8.16334 13.1855 7.5361ZM14.3213 7.60039C14.3568 7.60039 14.3855 7.57161 14.3855 7.5361C14.3855 7.5006 14.3568 7.47182 14.3213 7.47182C14.2858 7.47182 14.257 7.5006 14.257 7.5361C14.257 7.57161 14.2858 7.60039 14.3213 7.60039Z" fill="#333333"/>
<path fill-rule="evenodd" clip-rule="evenodd" d="M14.3213 15.3291C13.694 15.3291 13.1855 15.8376 13.1855 16.4648C13.1855 17.0921 13.694 17.6005 14.3213 17.6005C14.9485 17.6005 15.457 17.0921 15.457 16.4648C15.457 15.8376 14.9485 15.3291 14.3213 15.3291ZM14.3855 16.4648C14.3855 16.5003 14.3568 16.5291 14.3213 16.5291C14.2858 16.5291 14.257 16.5003 14.257 16.4648C14.257 16.4293 14.2858 16.4005 14.3213 16.4005C14.3568 16.4005 14.3855 16.4293 14.3855 16.4648Z" fill="#333333"/>
</svg>
