<svg width="24" height="24" viewBox="0 0 24 24" fill="none" xmlns="http://www.w3.org/2000/svg">
<path d="M7.64153 5.24084C7.39421 5.6595 7.76342 6.1123 8.24967 6.1123C8.56321 6.1123 8.83212 5.90619 9.05545 5.68612C9.29014 5.45484 9.61234 5.31211 9.96788 5.31211H17.2862C18.0042 5.31211 18.5862 5.89414 18.5862 6.61211V13.9305C18.5862 14.285 18.4443 14.6063 18.2142 14.8409C17.9951 15.0642 17.7899 15.3328 17.7899 15.6457C17.7899 16.1328 18.244 16.5024 18.6629 16.2536C19.4552 15.7831 19.9862 14.9188 19.9862 13.9305V6.61211C19.9862 5.12094 18.7774 3.91211 17.2862 3.91211H9.96788C8.9773 3.91211 8.11132 4.44555 7.64153 5.24084Z" fill="#333333"/>
<path d="M7.89824 12.9971C7.51164 12.9971 7.19824 13.3105 7.19824 13.6971C7.19824 14.0837 7.51164 14.3971 7.89824 14.3971H9.39844V15.8973C9.39844 16.2839 9.71184 16.5973 10.0984 16.5973C10.485 16.5973 10.7984 16.2839 10.7984 15.8973V14.3971H12.3982C12.7848 14.3971 13.0982 14.0837 13.0982 13.6971C13.0982 13.3105 12.7848 12.9971 12.3982 12.9971H10.7984V11.3973C10.7984 11.0107 10.485 10.6973 10.0984 10.6973C9.71184 10.6973 9.39844 11.0107 9.39844 11.3973V12.9971H7.89824Z" fill="#333333"/>
<path fill-rule="evenodd" clip-rule="evenodd" d="M4.01562 9.97344C4.01562 8.48227 5.22446 7.27344 6.71562 7.27344H14.034C15.5252 7.27344 16.735 8.48227 16.735 9.97344V17.2918C16.735 18.783 15.5261 19.9918 14.035 19.9918H6.7166C5.22543 19.9918 4.01562 18.783 4.01562 17.2918V9.97344ZM5.4166 9.97344C5.4166 9.25547 5.99863 8.67344 6.7166 8.67344H14.034C14.752 8.67344 15.334 9.25547 15.334 9.97344V17.2918C15.334 18.0098 14.752 18.5918 14.034 18.5918H6.7166C5.99863 18.5918 5.4166 18.0098 5.4166 17.2918V9.97344Z" fill="#333333"/>
</svg>
