<svg width="24" height="24" viewBox="0 0 24 24" fill="none" xmlns="http://www.w3.org/2000/svg">
<path fill-rule="evenodd" clip-rule="evenodd" d="M12.703 10.7H10.2126C10.1482 11.129 10.1102 11.5631 10.0996 12C10.1102 12.4369 10.1482 12.871 10.2126 13.3H10.5585C10.1489 14.173 9.91992 15.1477 9.91992 16.1758C9.91992 16.5022 9.943 16.8232 9.9876 17.1373C9.59383 16.3593 9.28603 15.5423 9.06989 14.7H5.97575C6.77949 16.4906 8.35807 17.8578 10.2847 18.3749C10.4768 18.9353 10.7404 19.4626 11.0645 19.9459C7.087 19.4826 4 16.1018 4 12C4 7.58176 7.58166 4.00007 11.9999 4C15.7777 4 18.9441 6.61866 19.7826 10.1398C18.8572 9.66586 17.8085 9.39844 16.6973 9.39844C15.2037 9.39844 13.8231 9.88154 12.703 10.7ZM8.69922 12C8.7086 12.4366 8.74201 12.8705 8.79874 13.3H5.528C5.44404 12.8797 5.4 12.445 5.4 12C5.4 11.555 5.44404 11.1203 5.528 10.7H8.79874C8.74201 11.1295 8.7086 11.5634 8.69922 12ZM10.5216 9.3C10.8425 8.20662 11.3404 7.16526 11.9999 6.21597C12.6594 7.16526 13.1573 8.20662 13.4781 9.3H10.5216ZM14.9299 9.3H18.0243C17.1519 7.35657 15.3667 5.91183 13.2145 5.5115C14.0049 6.6723 14.5844 7.95391 14.9299 9.3ZM10.7852 5.51156C9.99484 6.67234 9.41531 7.95393 9.06988 9.3H5.97575C6.84808 7.35665 8.63312 5.91195 10.7852 5.51156Z" fill="#333333"/>
<path d="M13.505 13.005C13.7784 12.7317 14.2216 12.7317 14.495 13.005L16.5 15.0101L18.505 13.005C18.7784 12.7317 19.2216 12.7317 19.495 13.005C19.7683 13.2784 19.7683 13.7216 19.495 13.995L17.4899 16L19.495 18.005C19.7683 18.2784 19.7683 18.7216 19.495 18.995C19.2216 19.2683 18.7784 19.2683 18.505 18.995L16.5 16.9899L14.495 18.995C14.2216 19.2683 13.7784 19.2683 13.505 18.995C13.2317 18.7216 13.2317 18.2784 13.505 18.005L15.5101 16L13.505 13.995C13.2317 13.7216 13.2317 13.2784 13.505 13.005Z" fill="#333333"/>
</svg>
