<svg width="24" height="24" viewBox="0 0 24 24" fill="none" xmlns="http://www.w3.org/2000/svg">
<path fill-rule="evenodd" clip-rule="evenodd" d="M5.71492 14.6004H9.04387C9.02775 14.3992 9.01953 14.1957 9.01953 13.9902C9.01953 12.2501 9.6091 10.6526 10.5926 9.40039H10.285C10.6343 8.1396 11.2135 6.94395 11.9999 5.87179C12.367 6.37234 12.689 6.8998 12.9635 7.44824C13.3201 7.26767 13.6936 7.11747 14.081 7.0009C13.7881 6.40331 13.4448 5.82801 13.0537 5.28115C14.2652 5.46962 15.3709 5.9779 16.2817 6.71697C16.9964 6.74157 17.6841 6.87679 18.3294 7.10663C16.8661 5.21672 14.5751 4 12 4C7.58178 4.00007 4 7.58176 4 12C4 16.4182 7.58166 19.9999 11.9999 20C12.0269 20 12.054 19.9999 12.081 19.9996C11.5518 19.6243 11.0747 19.176 10.6633 18.6687C8.41791 18.2211 6.57124 16.6678 5.71492 14.6004ZM8.81244 13.4004C8.74736 12.9381 8.70933 12.4706 8.69922 12C8.70933 11.5297 8.74732 11.0624 8.81233 10.6004H5.34419C5.24968 11.0521 5.2 11.5202 5.2 12C5.2 12.48 5.24974 12.9485 5.34435 13.4004H8.81244ZM9.04459 9.40039C9.4089 7.92777 10.0528 6.53029 10.946 5.28119C8.57322 5.65042 6.60644 7.24647 5.7146 9.40039H9.04459Z" fill="#333333"/>
<path fill-rule="evenodd" clip-rule="evenodd" d="M17.3452 9.50918C16.8551 8.86253 16.1034 8.53707 15.3688 8.47481C14.6364 8.41274 13.8532 8.6054 13.2606 9.08232C13.007 9.2864 12.9624 9.65545 13.16 9.91408L13.7271 10.6562C12.2268 10.8217 10.999 11.995 10.9918 13.5096C10.991 13.6692 11.0539 13.8225 11.1665 13.9357C11.2791 14.0488 11.4322 14.1124 11.5918 14.1124H14.7106C13.9504 15.4767 13.6761 17.0942 13.8924 19.245C13.9232 19.5515 14.1813 19.7849 14.4894 19.7849H17.4343C17.6147 19.7849 17.7856 19.7037 17.8995 19.5639C18.0135 19.424 18.0584 19.2403 18.0219 19.0636C17.5765 16.9064 17.7211 15.5259 17.8769 14.5138L20.1965 15.4553C20.4986 15.5779 20.8434 15.4368 20.9728 15.1375C21.3568 14.2498 21.1953 13.4965 20.8488 12.9097C20.7381 12.7224 20.6052 12.5485 20.4697 12.3921L21.0968 12.1563C21.2608 12.0946 21.3897 11.9642 21.4495 11.7995C21.5093 11.6348 21.4941 11.4521 21.4079 11.2995C21.0446 10.6564 20.3568 10.287 19.7591 10.0983C19.1646 9.91057 18.4878 9.84758 18.0149 9.97874L17.9928 9.98486C17.8892 10.0136 17.7903 10.041 17.6978 10.0703C17.6046 9.8831 17.4883 9.69802 17.3452 9.50918ZM15.5389 11.0506L14.5411 9.74496C14.7672 9.67634 15.0164 9.64925 15.2675 9.67053C15.7369 9.71031 16.1449 9.91222 16.3888 10.234C16.6317 10.5545 16.7368 10.8163 16.7855 11.1178C16.823 11.3498 16.9924 11.5385 17.2189 11.6007C17.4455 11.6629 17.6875 11.5872 17.8382 11.4069C17.874 11.364 17.9034 11.3271 17.9267 11.2976L17.9353 11.2868C17.9497 11.2685 17.9594 11.2562 17.9675 11.2462C17.9772 11.2425 17.9906 11.2375 18.0087 11.2313C18.0758 11.2085 18.1744 11.1798 18.3357 11.1351C18.5013 11.0891 18.9243 11.0931 19.3977 11.2426C19.5244 11.2826 19.6423 11.3291 19.7497 11.3808L19.182 11.5944C18.9911 11.6662 18.8497 11.8301 18.8067 12.0295C18.7637 12.2289 18.825 12.4365 18.9694 12.5806C19.0369 12.648 19.1044 12.713 19.1708 12.7769C19.4165 13.0133 19.6477 13.2358 19.8155 13.5199C19.9149 13.6883 19.985 13.8692 19.9937 14.0779L17.6271 13.1173C17.4559 13.0478 17.2622 13.0611 17.102 13.1534C16.9419 13.2456 16.8332 13.4065 16.8074 13.5895C16.7892 13.718 16.7667 13.8566 16.7424 14.0065C16.5867 14.9658 16.3562 16.3866 16.7134 18.5849H15.0424C14.9117 16.4444 15.3714 15.0577 16.3051 13.8864C16.4488 13.7062 16.4765 13.4597 16.3765 13.252C16.2765 13.0444 16.0664 12.9124 15.836 12.9124H12.3219C12.5905 12.3016 13.2521 11.8362 14.0919 11.8362C14.3607 11.8362 14.616 11.8872 14.8488 11.9758C15.0994 12.0711 15.3828 11.9886 15.5431 11.7737C15.7034 11.5588 15.7016 11.2637 15.5389 11.0506Z" fill="#333333"/>
</svg>
