<svg width="24" height="24" viewBox="0 0 24 24" fill="none" xmlns="http://www.w3.org/2000/svg">
<path fill-rule="evenodd" clip-rule="evenodd" d="M12.7032 10.6998H10.2126C10.1482 11.1289 10.1102 11.563 10.0996 12C10.1102 12.4369 10.1482 12.8709 10.2125 13.2998H10.5586C10.1489 14.1728 9.91992 15.1476 9.91992 16.1758C9.91992 16.5022 9.943 16.8232 9.9876 17.1373C9.5938 16.3592 9.28598 15.5421 9.06984 14.6998H5.97566C6.77938 16.4905 8.358 17.8578 10.2847 18.3749C10.4768 18.9353 10.7404 19.4626 11.0645 19.9459C7.087 19.4826 4 16.1018 4 12C4 7.58176 7.58166 4.00007 11.9999 4C15.7777 4 18.9441 6.61866 19.7826 10.1398C18.8572 9.66586 17.8085 9.39844 16.6973 9.39844C15.2039 9.39844 13.8233 9.88146 12.7032 10.6998ZM8.69922 12C8.7086 12.4365 8.742 12.8703 8.79872 13.2998H5.52796C5.44403 12.8796 5.4 12.4449 5.4 12C5.4 11.5549 5.44405 11.1202 5.52804 10.6998H8.79877C8.74202 11.1294 8.7086 11.5634 8.69922 12ZM10.5217 9.2998C10.8425 8.20649 11.3404 7.1652 11.9999 6.21597C12.6593 7.1652 13.1572 8.20649 13.4781 9.2998H10.5217ZM14.9298 9.2998H18.0242C17.1518 7.35647 15.3666 5.91181 13.2145 5.5115C14.0049 6.67224 14.5844 7.95379 14.9298 9.2998ZM10.7852 5.51156C9.99488 6.67228 9.41537 7.95381 9.06993 9.2998H5.97584C6.8482 7.35656 8.6332 5.91194 10.7852 5.51156Z" fill="#333333"/>
<path d="M17.3971 14.1746C17.3971 13.788 17.0837 13.4746 16.6971 13.4746C16.3105 13.4746 15.9971 13.788 15.9971 14.1746V16.1746C15.9971 16.3603 16.0708 16.5383 16.2021 16.6696C16.3334 16.8009 16.5114 16.8746 16.6971 16.8746L18.6971 16.8746C19.0837 16.8746 19.3971 16.5612 19.3971 16.1746C19.3971 15.788 19.0837 15.4746 18.6971 15.4746L17.3971 15.4746V14.1746Z" fill="#333333"/>
<path fill-rule="evenodd" clip-rule="evenodd" d="M11.9971 16.1746C11.9971 13.5789 14.1013 11.4746 16.6971 11.4746C19.2928 11.4746 21.3971 13.5789 21.3971 16.1746C21.3971 18.7703 19.2928 20.8746 16.6971 20.8746C14.1013 20.8746 11.9971 18.7703 11.9971 16.1746ZM16.6971 12.8746C14.8745 12.8746 13.3971 14.3521 13.3971 16.1746C13.3971 17.9971 14.8745 19.4746 16.6971 19.4746C18.5196 19.4746 19.9971 17.9971 19.9971 16.1746C19.9971 14.3521 18.5196 12.8746 16.6971 12.8746Z" fill="#333333"/>
</svg>
