<svg width="24" height="24" viewBox="0 0 24 24" fill="none" xmlns="http://www.w3.org/2000/svg">
<path fill-rule="evenodd" clip-rule="evenodd" d="M10.2126 10.6998H12.7032C13.8233 9.88146 15.2039 9.39844 16.6973 9.39844C17.8085 9.39844 18.8572 9.66586 19.7826 10.1398C18.9441 6.61866 15.7779 4 12 4C7.58178 4.00007 4 7.58176 4 12C4 16.1018 7.087 19.4826 11.0645 19.9459C10.7404 19.4626 10.4768 18.9353 10.2847 18.3749C8.358 17.8578 6.77938 16.4905 5.97566 14.6998H9.06984C9.28598 15.5421 9.5938 16.3592 9.9876 17.1373C9.943 16.8232 9.91992 16.5022 9.91992 16.1758C9.91992 15.1476 10.1489 14.1728 10.5586 13.2998H10.2125C10.1482 12.8709 10.1102 12.4369 10.0996 12C10.1102 11.563 10.1482 11.1289 10.2126 10.6998ZM8.79872 13.2998C8.742 12.8703 8.7086 12.4365 8.69922 12C8.7086 11.5634 8.74202 11.1294 8.79877 10.6998H5.52804C5.44405 11.1202 5.4 11.5549 5.4 12C5.4 12.4449 5.44403 12.8796 5.52796 13.2998H8.79872ZM11.9999 6.21597C11.3404 7.1652 10.8425 8.20649 10.5217 9.2998H13.4781C13.1572 8.20649 12.6593 7.1652 11.9999 6.21597ZM18.0242 9.2998H14.9298C14.5844 7.95379 14.0049 6.67224 13.2145 5.5115C15.3666 5.91181 17.1518 7.35647 18.0242 9.2998ZM9.06993 9.2998C9.41537 7.95381 9.99488 6.67228 10.7852 5.51156C8.6332 5.91194 6.8482 7.35656 5.97584 9.2998H9.06993Z" fill="#333333"/>
<path d="M20.5255 13.9616C20.7805 13.6711 20.7518 13.2288 20.4612 12.9738C20.1707 12.7187 19.7284 12.7475 19.4734 13.038L15.7542 17.2746L13.742 15.0917C13.48 14.8074 13.0372 14.7894 12.7529 15.0514C12.4687 15.3135 12.4506 15.7563 12.7126 16.0406L15.2522 18.7957C15.3867 18.9416 15.5769 19.0236 15.7754 19.0212C15.9739 19.0188 16.162 18.9322 16.2929 18.783L20.5255 13.9616Z" fill="#333333"/>
</svg>
