<svg width="24" height="24" viewBox="0 0 24 24" fill="none" xmlns="http://www.w3.org/2000/svg">
<path fill-rule="evenodd" clip-rule="evenodd" d="M11.9999 20C7.58166 19.9999 4 16.4182 4 12C4 7.58176 7.58166 4.00007 11.9999 4C11.9998 4 11.9999 4 11.9999 4C16.4182 4 20 7.58172 20 12C20 16.4183 16.4182 20 11.9999 20C11.9999 20 11.9998 20 11.9999 20ZM18.6 12C18.6 12.4449 18.556 12.8796 18.472 13.2998H15.201C15.2578 12.8703 15.2912 12.4365 15.3005 12C15.2912 11.5634 15.2577 11.1294 15.201 10.6998H18.472C18.5559 11.1202 18.6 11.5549 18.6 12ZM13.7872 10.6998C13.8516 11.1289 13.8895 11.563 13.9002 12C13.8895 12.4369 13.8516 12.8709 13.7872 13.2998H10.2125C10.1482 12.8709 10.1102 12.4369 10.0996 12C10.1102 11.563 10.1482 11.1289 10.2126 10.6998H13.7872ZM14.9298 9.2998H18.0242C17.1518 7.35647 15.3666 5.91181 13.2145 5.5115C14.0049 6.67224 14.5844 7.95379 14.9298 9.2998ZM10.7852 5.51156C9.99488 6.67228 9.41537 7.95381 9.06993 9.2998H5.97584C6.8482 7.35656 8.6332 5.91194 10.7852 5.51156ZM10.5217 9.2998C10.8425 8.20649 11.3404 7.1652 11.9999 6.21597C12.6593 7.1652 13.1572 8.20649 13.4781 9.2998H10.5217ZM8.79877 10.6998H5.52804C5.44405 11.1202 5.4 11.5549 5.4 12C5.4 12.4449 5.44403 12.8796 5.52796 13.2998H8.79872C8.742 12.8703 8.7086 12.4365 8.69922 12C8.7086 11.5634 8.74202 11.1294 8.79877 10.6998ZM9.06984 14.6998H5.97566C6.84796 16.6433 8.63306 18.088 10.7852 18.4884C9.99481 17.3276 9.41526 16.0459 9.06984 14.6998ZM13.2145 18.4885C14.0049 17.3276 14.5845 16.046 14.9299 14.6998H18.0243C17.152 16.6433 15.3668 18.0882 13.2145 18.4885ZM13.4782 14.6998H10.5216C10.8424 15.7933 11.3403 16.8347 11.9999 17.784C12.6594 16.8347 13.1573 15.7933 13.4782 14.6998Z" fill="#333333"/>
</svg>
