<svg width="24" height="24" viewBox="0 0 24 24" fill="none" xmlns="http://www.w3.org/2000/svg">
<path fill-rule="evenodd" clip-rule="evenodd" d="M13.9139 7.78018C14.4022 7.29293 15.193 7.29338 15.6807 7.78119L16.4626 8.56317C16.95 9.05055 16.9509 9.84045 16.4646 10.3289L11.0461 15.7718C10.8421 15.9767 10.5849 16.1205 10.3034 16.1869L8.26286 16.6681C7.77661 16.7828 7.34815 16.3289 7.49066 15.8501L8.08149 13.8649C8.15516 13.6174 8.28949 13.3923 8.47228 13.2099L13.9139 7.78018ZM14.9029 8.55898C14.8444 8.50044 14.7495 8.50039 14.6909 8.55886L14.0644 9.184L15.0605 10.1802L15.685 9.55284C15.7434 9.49422 15.7433 9.39944 15.6848 9.34095L14.9029 8.55898ZM14.2845 10.9597L13.2857 9.96096L9.53057 13.7078L10.5419 14.7192L14.2845 10.9597ZM8.7666 15.4191L8.97753 14.7104L9.51074 15.2436L8.7666 15.4191Z" fill="#333333"/>
</svg>
