<svg width="24" height="24" viewBox="0 0 24 24" fill="none" xmlns="http://www.w3.org/2000/svg">
<path fill-rule="evenodd" clip-rule="evenodd" d="M14.8533 5.99558C15.537 5.31342 16.644 5.31406 17.3269 5.99699L18.3611 7.03127C19.0434 7.71361 19.0446 8.81946 18.3638 9.5033L10.4057 17.4973C10.1885 17.7154 9.91469 17.8684 9.61511 17.9391L6.42695 18.691C5.86589 18.8233 5.37151 18.2996 5.53595 17.7471L6.45563 14.6571C6.53404 14.3936 6.67704 14.1539 6.87163 13.9597L14.8533 5.99558ZM16.4076 6.91619C16.232 6.74058 15.9474 6.74042 15.7716 6.91583L14.8008 7.88447L16.4746 9.55834L17.4425 8.58613C17.6176 8.41029 17.6172 8.12592 17.4418 7.95046L16.4076 6.91619ZM8.17485 14.4958L13.8805 8.8027L15.5575 10.4796L9.87087 16.1919L8.17485 14.4958ZM7.51051 15.67L7.05284 17.2077L8.66746 16.8269L7.51051 15.67Z" fill="#333333"/>
</svg>
