<svg width="24" height="24" viewBox="0 0 24 24" fill="none" xmlns="http://www.w3.org/2000/svg">
<path fill-rule="evenodd" clip-rule="evenodd" d="M15.4661 4.84196C16.2865 4.02337 17.6149 4.02413 18.4344 4.84366L19.5897 5.99907C20.4084 6.81787 20.4099 8.1449 19.593 8.96551L9.96523 18.6366C9.74149 18.8614 9.45935 19.019 9.15069 19.0918L5.19747 20.0242C4.59901 20.1653 4.07167 19.6067 4.24707 19.0173L5.38598 15.1907C5.46677 14.9193 5.6141 14.6723 5.81459 14.4723L15.4661 4.84196ZM17.4444 5.83356C17.1712 5.56039 16.7284 5.56013 16.455 5.833L15.2666 7.01879L17.4158 9.16807L18.6008 7.97779C18.8731 7.70425 18.8726 7.26191 18.5997 6.98897L17.4444 5.83356ZM16.4281 10.1602L14.2755 8.00765L7.24602 15.0217L9.42212 17.1978L16.4281 10.1602ZM5.88443 18.4238L6.52292 16.2785L8.13694 17.8925L5.88443 18.4238Z" fill="#333333"/>
</svg>
