<svg width="24" height="24" viewBox="0 0 24 24" fill="none" xmlns="http://www.w3.org/2000/svg">
<path fill-rule="evenodd" clip-rule="evenodd" d="M14.3129 6.9586C14.938 6.33491 15.9501 6.33549 16.5745 6.95989L17.3413 7.72682C17.9651 8.35068 17.9662 9.36174 17.3438 9.98697L10.7259 16.6347C10.5153 16.8462 10.2498 16.9946 9.95928 17.0631L7.3449 17.6797C6.82125 17.8032 6.35983 17.3144 6.51331 16.7987L7.26856 14.2612C7.3446 14.0057 7.48326 13.7732 7.67195 13.585L14.3129 6.9586ZM15.7259 7.80838C15.5698 7.65228 15.3168 7.65214 15.1605 7.80806L14.4326 8.53431L15.7677 9.86933L16.4934 9.14035C16.649 8.98404 16.6487 8.73128 16.4928 8.57531L15.7259 7.80838ZM14.921 10.7198L13.5832 9.38191L8.85279 14.1019L10.2065 15.4556L14.921 10.7198ZM7.90972 16.3136L8.24406 15.1902L9.08923 16.0354L7.90972 16.3136Z" fill="#333333"/>
</svg>
