<svg width="24" height="24" viewBox="0 0 24 24" fill="none" xmlns="http://www.w3.org/2000/svg">
<path fill-rule="evenodd" clip-rule="evenodd" d="M6.45299 6.6709C5.04389 6.6709 3.90186 7.81342 3.90186 9.22246V14.7771C3.90186 16.1862 5.04389 17.3287 6.45299 17.3287H17.5598C18.9689 17.3287 20.1109 16.1862 20.1109 14.7771V13.762H20.3619C20.7485 13.762 21.0619 13.4486 21.0619 13.062V10.9383C21.0619 10.5517 20.7485 10.2383 20.3619 10.2383H20.1109V9.22246C20.1109 7.81342 18.9689 6.6709 17.5598 6.6709H6.45299ZM5.30186 9.22246C5.30186 8.58632 5.81739 8.0709 6.45299 8.0709H17.5598C18.1954 8.0709 18.7109 8.58632 18.7109 9.22246V14.7771C18.7109 15.4133 18.1954 15.9287 17.5598 15.9287H6.45299C5.81739 15.9287 5.30186 15.4133 5.30186 14.7771V9.22246Z" fill="#333333"/>
</svg>
