<svg width="24" height="24" viewBox="0 0 24 24" fill="none" xmlns="http://www.w3.org/2000/svg">
<path fill-rule="evenodd" clip-rule="evenodd" d="M4 8C4 6.34315 5.34315 5 7 5H17.0001C18.6569 5 20.0001 6.34315 20.0001 8V15C20.0001 16.6569 18.6569 18 17.0001 18H11.0619L8.47522 20.5867C7.59874 21.4631 6.1001 20.8424 6.1001 19.6029V17.8627C4.88292 17.4804 4 16.3433 4 15V8ZM6.51956 16.527C7.10308 16.7103 7.5001 17.2511 7.5001 17.8627V19.5819L10.0719 17.0101C10.3345 16.7475 10.6906 16.6 11.0619 16.6H17.0001C17.8838 16.6 18.6001 15.8837 18.6001 15V8C18.6001 7.11634 17.8838 6.4 17.0001 6.4H7C6.11634 6.4 5.4 7.11634 5.4 8V15C5.4 15.7143 5.86913 16.3227 6.51956 16.527Z" fill="#333333"/>
</svg>
