<svg width="24" height="24" viewBox="0 0 24 24" fill="none" xmlns="http://www.w3.org/2000/svg">
<path fill-rule="evenodd" clip-rule="evenodd" d="M6.97489 5.31046C7.1035 5.10914 7.3259 4.9873 7.56479 4.9873H16.4347C16.6736 4.9873 16.896 5.10913 17.0246 5.31045L19.9813 9.93857C20.1468 10.1976 20.124 10.5343 19.925 10.7686L12.5333 19.4721C12.4003 19.6288 12.2052 19.719 11.9998 19.719C11.7943 19.719 11.5992 19.6287 11.4662 19.4721L4.07465 10.7685C3.87569 10.5343 3.85283 10.1976 4.0183 9.93858L6.97489 5.31046ZM5.88491 9.61719H8.37963L10.0738 6.3873H7.94825L5.88491 9.61719ZM8.36747 11.0172H6.12255L10.1209 15.7252L8.36747 11.0172ZM9.86024 11.0172H14.1392L11.9999 16.7624L9.86024 11.0172ZM14.0411 9.61719H9.95834L11.6525 6.3873H12.3474L14.0411 9.61719ZM15.6319 11.0172L13.879 15.7249L17.8771 11.0172H15.6319ZM18.1147 9.61719H15.6198L13.926 6.3873H16.0513L18.1147 9.61719Z" fill="#333333"/>
</svg>
