<svg width="24" height="24" viewBox="0 0 24 24" fill="none" xmlns="http://www.w3.org/2000/svg">
<path d="M14.1163 9.10488L12.4329 9.10488C12.1292 9.10488 11.8829 8.85864 11.8829 8.55488C11.8829 8.25113 12.1292 8.00488 12.4329 8.00488H14.8305C15.4656 8.00488 15.9805 8.51976 15.9805 9.15488V11.6003C15.9805 11.904 15.7342 12.1503 15.4305 12.1503C15.1267 12.1503 14.8805 11.904 14.8805 11.6003L14.8805 9.89637L12.9751 11.8017C12.7603 12.0165 12.4121 12.0165 12.1973 11.8017C11.9825 11.5869 11.9825 11.2387 12.1973 11.0239L14.1163 9.10488Z" fill="#333333"/>
<path d="M9.87782 14.8893L11.7959 12.9712C12.0107 12.7564 12.0107 12.4082 11.7959 12.1934C11.5811 11.9786 11.2328 11.9786 11.018 12.1934L9.1127 14.0987L9.1127 12.3938C9.1127 12.0901 8.86645 11.8438 8.5627 11.8438C8.25894 11.8438 8.0127 12.0901 8.0127 12.3938V14.8393C8.0127 15.4744 8.52757 15.9893 9.1627 15.9893L11.5603 15.9893C11.864 15.9893 12.1103 15.743 12.1103 15.4393C12.1103 15.1355 11.864 14.8893 11.5603 14.8893L9.87782 14.8893Z" fill="#333333"/>
</svg>
