<svg width="24" height="24" viewBox="0 0 24 24" fill="none" xmlns="http://www.w3.org/2000/svg">
<path d="M17.0682 7.84717L13.4367 11.4786C13.1829 11.7325 12.7713 11.7325 12.5175 11.4786C12.2636 11.2248 12.2636 10.8132 12.5175 10.5594L16.1704 6.90645L12.7222 6.90645C12.3632 6.90645 12.0722 6.61543 12.0722 6.25645C12.0722 5.89746 12.3632 5.60645 12.7222 5.60645H16.7182C17.6294 5.60645 18.3682 6.34517 18.3682 7.25645V11.3321C18.3682 11.6911 18.0771 11.9821 17.7182 11.9821C17.3592 11.9821 17.0682 11.6911 17.0682 11.3321V7.84717Z" fill="#333333"/>
<path d="M7.81983 17.0818L11.4718 13.4299C11.7256 13.176 11.7256 12.7645 11.4718 12.5106C11.218 12.2568 10.8064 12.2568 10.5526 12.5106L6.92109 16.1421L6.92109 12.6562C6.92109 12.2972 6.63008 12.0062 6.27109 12.0062C5.91211 12.0062 5.62109 12.2972 5.62109 12.6562V16.7318C5.62109 17.6431 6.35983 18.3818 7.27109 18.3818L11.267 18.3818C11.626 18.3818 11.917 18.0908 11.917 17.7318C11.917 17.3729 11.626 17.0818 11.267 17.0818L7.81983 17.0818Z" fill="#333333"/>
</svg>
