<svg width="24" height="24" viewBox="0 0 24 24" fill="none" xmlns="http://www.w3.org/2000/svg">
<path d="M15.1439 8.00566L12.5781 8.00566C12.2467 8.00566 11.9781 7.73703 11.9781 7.40566C11.9781 7.07429 12.2467 6.80566 12.5781 6.80566H15.7748C16.548 6.80566 17.1748 7.43247 17.1748 8.20566V11.4662C17.1748 11.7976 16.9062 12.0662 16.5748 12.0662C16.2434 12.0662 15.9748 11.7976 15.9748 11.4662V8.87177L13.2064 11.6402C12.9721 11.8745 12.5922 11.8745 12.3579 11.6402C12.1236 11.4059 12.1236 11.026 12.3579 10.7916L15.1439 8.00566Z" fill="#333333"/>
<path d="M8.84833 15.9855L11.6343 13.1996C11.8686 12.9652 11.8686 12.5853 11.6343 12.351C11.4 12.1167 11.0201 12.1167 10.7858 12.351L8.01836 15.1185L8.01836 12.525C8.01836 12.1936 7.74973 11.925 7.41836 11.925C7.08699 11.925 6.81836 12.1936 6.81836 12.525V15.7855C6.81836 16.5587 7.44516 17.1855 8.21836 17.1855L11.4151 17.1855C11.7465 17.1855 12.0151 16.9169 12.0151 16.5855C12.0151 16.2542 11.7465 15.9855 11.4151 15.9855H8.84833Z" fill="#333333"/>
</svg>
