<svg width="24" height="24" viewBox="0 0 24 24" fill="none" xmlns="http://www.w3.org/2000/svg">
<path d="M17.1979 5.8082L12.8664 5.8082C12.4798 5.8082 12.1664 5.4948 12.1664 5.1082C12.1664 4.7216 12.4798 4.4082 12.8664 4.4082H17.6615C18.7109 4.4082 19.5615 5.25886 19.5615 6.3082V11.199C19.5615 11.5856 19.2481 11.899 18.8615 11.899C18.4749 11.899 18.1615 11.5856 18.1615 11.199L18.1615 6.82452L13.668 11.3181C13.3946 11.5914 12.9514 11.5914 12.678 11.3181C12.4047 11.0447 12.4047 10.6015 12.678 10.3281L17.1979 5.8082Z" fill="#333333"/>
<path d="M5.82578 17.1628L5.82578 12.7883C5.82578 12.4017 5.51238 12.0883 5.12578 12.0883C4.73918 12.0883 4.42578 12.4017 4.42578 12.7883V17.6791C4.42578 18.7284 5.27644 19.5791 6.32578 19.5791L11.1209 19.5791C11.5075 19.5791 11.8209 19.2657 11.8209 18.8791C11.8209 18.4925 11.5075 18.1791 11.1209 18.1791L6.78936 18.1791L11.3093 13.6592C11.5826 13.3858 11.5826 12.9426 11.3093 12.6692C11.0359 12.3959 10.5927 12.3959 10.3193 12.6692L5.82578 17.1628Z" fill="#333333"/>
</svg>
