<svg width="24" height="24" viewBox="0 0 24 24" fill="none" xmlns="http://www.w3.org/2000/svg">
<path d="M9.45186 4.49766C9.45186 4.0006 9.04891 3.59766 8.55186 3.59766C8.0548 3.59766 7.65186 4.0006 7.65186 4.49766V4.89258H6.69404C5.14765 4.89258 3.89404 6.14618 3.89404 7.69258V16.2768C3.89404 17.8232 5.14765 19.0768 6.69404 19.0768H10.2368C10.6234 19.0768 10.9368 18.7634 10.9368 18.3768C10.9368 17.9902 10.6234 17.6768 10.2368 17.6768H6.69404C5.92085 17.6768 5.29404 17.05 5.29404 16.2768V7.69258C5.29404 6.91938 5.92084 6.29258 6.69404 6.29258H7.65186V6.92734C7.65186 7.4244 8.0548 7.82734 8.55186 7.82734C9.04891 7.82734 9.45186 7.4244 9.45186 6.92734V6.29258H14.5317V6.92734C14.5317 7.4244 14.9347 7.82734 15.4317 7.82734C15.9288 7.82734 16.3317 7.4244 16.3317 6.92734V6.29258H17.3104C18.0836 6.29258 18.7104 6.91938 18.7104 7.69258V9.17921C18.7104 9.56581 19.0238 9.87921 19.4104 9.87921C19.797 9.87921 20.1104 9.56581 20.1104 9.17921V7.69258C20.1104 6.14618 18.8568 4.89258 17.3104 4.89258H16.3317V4.49766C16.3317 4.0006 15.9288 3.59766 15.4317 3.59766C14.9347 3.59766 14.5317 4.0006 14.5317 4.49766V4.89258H9.45186V4.49766Z" fill="#333333"/>
<path fill-rule="evenodd" clip-rule="evenodd" d="M7.17432 10.0998C7.17432 9.65798 7.53249 9.2998 7.97432 9.2998H8.78242C9.22425 9.2998 9.58242 9.65798 9.58242 10.0998V10.9459C9.58242 11.3877 9.22425 11.7459 8.78242 11.7459H7.97432C7.53249 11.7459 7.17432 11.3877 7.17432 10.9459V10.0998Z" fill="#333333"/>
<path fill-rule="evenodd" clip-rule="evenodd" d="M11.3628 14.8172C11.3628 12.2214 13.4671 10.1172 16.0628 10.1172C18.6585 10.1172 20.7628 12.2214 20.7628 14.8172C20.7628 17.4129 18.6585 19.5172 16.0628 19.5172C13.4671 19.5172 11.3628 17.4129 11.3628 14.8172ZM16.0628 11.5172C14.2403 11.5172 12.7628 12.9946 12.7628 14.8172C12.7628 15.5009 12.9707 16.1361 13.3268 16.6629L17.9084 12.0812C17.3816 11.7251 16.7465 11.5172 16.0628 11.5172ZM18.8769 13.0926L14.3383 17.6313C14.8401 17.9395 15.4307 18.1172 16.0628 18.1172C17.8853 18.1172 19.3628 16.6397 19.3628 14.8172C19.3628 14.1851 19.1851 13.5945 18.8769 13.0926Z" fill="#333333"/>
</svg>
