<svg width="24" height="25" viewBox="0 0 24 25" fill="none" xmlns="http://www.w3.org/2000/svg">
<path d="M4.67334 14.8838C5.05973 14.884 5.37342 15.1976 5.37354 15.584V17.0449C5.37365 18.3151 6.40316 19.3447 7.67334 19.3447H9.13428C9.52064 19.345 9.83447 19.6585 9.83447 20.0449C9.83436 20.4312 9.52056 20.7448 9.13428 20.7451H7.67334C5.62996 20.7451 3.97326 19.0883 3.97314 17.0449V15.584C3.97326 15.1975 4.28681 14.8838 4.67334 14.8838Z" fill="#15C674"/>
<path d="M19.3286 14.8838C19.715 14.884 20.0287 15.1976 20.0288 15.584V17.0449C20.0287 19.0882 18.3719 20.7449 16.3286 20.7451H14.8677C14.4812 20.745 14.1676 20.4314 14.1675 20.0449C14.1675 19.6584 14.4812 19.3448 14.8677 19.3447H16.3286C17.5987 19.3446 18.6283 18.315 18.6284 17.0449V15.584C18.6285 15.1975 18.9421 14.8838 19.3286 14.8838Z" fill="#15C674"/>
<path d="M14.6675 15.4043C14.9531 15.2478 15.3189 15.3082 15.5376 15.5664C15.7558 15.8244 15.7551 16.1944 15.5542 16.4502L15.4556 16.5527L15.4517 16.5566C15.45 16.558 15.4479 16.5598 15.4458 16.5615C15.4412 16.5653 15.435 16.5698 15.4282 16.5752C15.4146 16.5861 15.396 16.6002 15.3735 16.6172C15.3283 16.6514 15.2652 16.6978 15.1851 16.751C15.0245 16.8574 14.7937 16.9949 14.4995 17.1309C13.9104 17.403 13.0585 17.6729 11.9995 17.6729C10.9407 17.6728 10.0895 17.403 9.50049 17.1309C9.20615 16.9948 8.9755 16.8574 8.81494 16.751C8.73465 16.6977 8.67175 16.6515 8.62646 16.6172C8.60393 16.6001 8.58544 16.5862 8.57178 16.5752C8.56498 16.5697 8.55876 16.5653 8.5542 16.5615C8.55202 16.5597 8.55 16.558 8.54834 16.5566L8.54443 16.5527C8.24961 16.303 8.21294 15.8614 8.4624 15.5664C8.71223 15.2715 9.15375 15.2347 9.44873 15.4844L9.44775 15.4834C9.4515 15.4864 9.4596 15.4922 9.47119 15.501C9.49476 15.5188 9.5341 15.548 9.58838 15.584C9.6976 15.6564 9.86674 15.7579 10.0884 15.8604C10.5316 16.0651 11.182 16.2724 11.9995 16.2725C12.8172 16.2725 13.4683 16.0651 13.9116 15.8604C14.1332 15.758 14.3024 15.6564 14.4116 15.584C14.4658 15.5481 14.5052 15.5188 14.5288 15.501L14.5513 15.4844L14.6675 15.4043Z" fill="#15C674"/>
<path d="M12.355 10.2812C12.7416 10.2812 13.0552 10.5948 13.0552 10.9814V13.1885C13.0549 14.0373 12.367 14.7256 11.5181 14.7256C11.1315 14.7256 10.8179 14.412 10.8179 14.0254C10.8179 13.6388 11.1315 13.3252 11.5181 13.3252C11.5938 13.3252 11.6555 13.2641 11.6558 13.1885V10.9814C11.6558 10.595 11.9686 10.2815 12.355 10.2812Z" fill="#15C674"/>
<path d="M9.02881 8.6377C9.52587 8.6377 9.9292 9.04103 9.9292 9.53809V10.0664C9.9292 10.5635 9.52587 10.9668 9.02881 10.9668C8.53175 10.9668 8.12842 10.5635 8.12842 10.0664V9.53809C8.12842 9.04103 8.53175 8.6377 9.02881 8.6377Z" fill="#15C674"/>
<path d="M14.9692 8.6377C15.4663 8.6377 15.8696 9.04103 15.8696 9.53809V10.0664C15.8696 10.5635 15.4663 10.9668 14.9692 10.9668C14.4722 10.9668 14.0688 10.5635 14.0688 10.0664V9.53809C14.0688 9.04103 14.4722 8.6377 14.9692 8.6377Z" fill="#15C674"/>
<path d="M9.13916 4.69238C9.52562 4.69255 9.83936 5.00608 9.83936 5.39258C9.83925 5.77899 9.52556 6.09261 9.13916 6.09277H7.67334C6.40308 6.09277 5.37354 7.12232 5.37354 8.39258V9.8584C5.37343 10.2448 5.05974 10.5584 4.67334 10.5586C4.2868 10.5586 3.97325 10.2449 3.97314 9.8584V8.39258C3.97314 6.34912 5.62989 4.69238 7.67334 4.69238H9.13916Z" fill="#15C674"/>
<path d="M16.3286 4.69238C18.3719 4.69255 20.0288 6.34923 20.0288 8.39258V9.85156C20.0285 10.2378 19.7149 10.5506 19.3286 10.5508C18.9422 10.5508 18.6287 10.2379 18.6284 9.85156V8.39258C18.6284 7.12243 17.5987 6.09294 16.3286 6.09277H14.8696C14.4833 6.09258 14.1705 5.77897 14.1704 5.39258C14.1704 5.0061 14.4832 4.69257 14.8696 4.69238H16.3286Z" fill="#15C674"/>
</svg>
