<svg width="24" height="24" viewBox="0 0 24 24" fill="none" xmlns="http://www.w3.org/2000/svg">
<path fill-rule="evenodd" clip-rule="evenodd" d="M11.9995 5.53914L10.1651 9.44023C10.0517 9.68155 9.82542 9.85046 9.5618 9.89067L5.39423 10.5263L8.43503 13.6373C8.61275 13.8191 8.69346 14.0746 8.65245 14.3255L7.94166 18.6753L11.613 16.6495C11.8535 16.5167 12.1454 16.5167 12.386 16.6495L16.0573 18.6753L15.3465 14.3255C15.3055 14.0746 15.3862 13.8191 15.5639 13.6373L18.6047 10.5263L14.4372 9.89067C14.1735 9.85046 13.9473 9.68155 13.8338 9.44023L11.9995 5.53914ZM11.1254 4.10796C11.4759 3.36245 12.523 3.36245 12.8736 4.10796L14.9646 8.55492L19.6264 9.26591C20.4553 9.39234 20.6955 10.3901 20.1701 10.9276L16.7771 14.399L17.5794 19.3089C17.6983 20.0363 16.9383 20.7605 16.161 20.3315L11.9995 18.0352L7.83792 20.3315C7.06063 20.7605 6.30068 20.0363 6.41956 19.3089L7.22187 14.399L3.8288 10.9276C3.3034 10.3901 3.54362 9.39234 4.37257 9.26591L9.03437 8.55492L11.1254 4.10796Z" fill="#333333"/>
</svg>
