<svg width="24" height="24" viewBox="0 0 24 24" fill="none" xmlns="http://www.w3.org/2000/svg">
<path d="M18.957 8.50098C19.7582 9.08036 20.2812 10.0207 20.2812 11.085V16.2764C20.2811 18.0377 18.8532 19.4658 17.0918 19.4658H9.57129C8.46947 19.4658 7.50079 18.9051 6.92773 18.0557C7.1248 18.105 7.3306 18.1348 7.54297 18.1348H9.47168C9.50466 18.1365 9.53787 18.1396 9.57129 18.1396H17.0918C18.1207 18.1396 18.955 17.3052 18.9551 16.2764V15.6445C18.9552 15.6325 18.957 15.6205 18.957 15.6084V8.50098Z" fill="#15C674"/>
<path d="M9.38281 12.9053C9.68472 12.9672 9.91196 13.2345 9.91211 13.5547C9.91211 13.8751 9.68485 14.1431 9.38281 14.2051L9.24902 14.2178H7.17676C6.81058 14.2177 6.51367 13.9209 6.51367 13.5547C6.51384 13.1886 6.81068 12.8917 7.17676 12.8916H9.24902L9.38281 12.9053Z" fill="#15C674"/>
<path d="M13.6709 7.31934C14.0355 7.28739 14.3573 7.55736 14.3896 7.92188C14.4216 8.2865 14.1517 8.60939 13.7871 8.6416L13.4258 8.67285L14.9307 9.93359C15.9469 10.7859 16.0804 12.3007 15.2285 13.3174L15.1982 13.3535L15.0342 13.5293C14.1785 14.3622 12.8138 14.4281 11.8789 13.6445C11.5989 13.4093 11.5621 12.9914 11.7969 12.7109C12.0321 12.4305 12.4498 12.3941 12.7305 12.6289C13.1387 12.9711 13.7354 12.9423 14.1094 12.5791L14.1816 12.502L14.2119 12.4658C14.5936 12.0104 14.5334 11.3311 14.0781 10.9492L12.5752 9.68945L12.6064 10.0391C12.6381 10.4035 12.3683 10.7255 12.0039 10.7578C11.6393 10.7897 11.3174 10.5188 11.2852 10.1543L11.1133 8.21094C11.1087 8.15968 11.1117 8.10783 11.1191 8.05664C11.1237 8.02523 11.1288 7.99381 11.1377 7.96387C11.1419 7.9496 11.149 7.9359 11.1543 7.92188C11.1625 7.89985 11.1702 7.87735 11.1807 7.85645C11.1879 7.84189 11.1966 7.8276 11.2051 7.81348C11.2189 7.7904 11.2345 7.76827 11.251 7.74707C11.256 7.7406 11.2604 7.73293 11.2656 7.72656C11.2704 7.72082 11.2763 7.71548 11.2812 7.70996C11.2978 7.69152 11.3164 7.6747 11.335 7.6582C11.347 7.64748 11.3585 7.63571 11.3711 7.62598C11.3973 7.60588 11.4258 7.58834 11.4551 7.57227C11.4587 7.57028 11.4622 7.5674 11.4658 7.56543C11.4678 7.5644 11.4697 7.56259 11.4717 7.56152C11.5071 7.54344 11.5451 7.52819 11.584 7.5166L11.585 7.51562C11.612 7.50766 11.6403 7.50446 11.668 7.5C11.684 7.49739 11.7003 7.49269 11.7168 7.49121C11.719 7.49102 11.7214 7.49134 11.7236 7.49121L13.6709 7.31934Z" fill="#15C674"/>
<path d="M9.38281 10.1211C9.68471 10.183 9.91194 10.4503 9.91211 10.7705C9.91211 11.0909 9.68485 11.3589 9.38281 11.4209L9.24902 11.4336H7.17676C6.81058 11.4335 6.51367 11.1367 6.51367 10.7705C6.51387 10.4045 6.8107 10.1075 7.17676 10.1074H9.24902L9.38281 10.1211Z" fill="#15C674"/>
<path d="M9.38281 7.3623C9.68474 7.42425 9.91196 7.6915 9.91211 8.01172C9.91211 8.3321 9.68488 8.60017 9.38281 8.66211L9.24902 8.6748H7.04395C6.67786 8.67461 6.38086 8.37785 6.38086 8.01172C6.38103 7.64573 6.67796 7.34883 7.04395 7.34863H9.24902L9.38281 7.3623Z" fill="#15C674"/>
<path fill-rule="evenodd" clip-rule="evenodd" d="M15.3086 4.63574C16.8258 4.63574 18.0555 5.86559 18.0557 7.38281V14.4941C18.0557 16.0115 16.8259 17.2422 15.3086 17.2422H6.43359C4.91637 17.2421 3.68652 16.0114 3.68652 14.4941V7.38281C3.68664 5.86566 4.91644 4.63586 6.43359 4.63574H15.3086ZM6.43359 5.96191C5.64895 5.96204 5.01282 6.59817 5.0127 7.38281V14.4941C5.0127 15.2789 5.64887 15.9159 6.43359 15.916H15.3086C16.0934 15.916 16.7295 15.279 16.7295 14.4941V7.38281C16.7294 6.59809 16.0933 5.96191 15.3086 5.96191H6.43359Z" fill="#15C674"/>
</svg>
