<svg width="24" height="24" viewBox="0 0 24 24" fill="none" xmlns="http://www.w3.org/2000/svg">
<path fill-rule="evenodd" clip-rule="evenodd" d="M7.82686 17.0077V19.7069L10.7163 16.8175H17.0001C17.8837 16.8175 18.6001 16.1011 18.6001 15.2175V8C18.6001 7.11634 17.8838 6.4 17.0001 6.4H7C6.11634 6.4 5.4 7.11634 5.4 8V15.2175C5.4 15.995 5.95605 16.6457 6.69277 16.7883L7.82686 17.0077ZM4 8C4 6.34315 5.34315 5 7 5H17.0001C18.6569 5 20.0001 6.34315 20.0001 8V15.2175C20.0001 16.8743 18.6569 18.2175 17.0001 18.2175H11.2962L8.80198 20.7117C7.9255 21.5881 6.42686 20.9674 6.42686 19.7279V18.1628C5.04416 17.8953 4 16.6783 4 15.2175V8Z" fill="#333333"/>
<path fill-rule="evenodd" clip-rule="evenodd" d="M12 9.48488L11.5316 10.481C11.4182 10.7223 11.1919 10.8912 10.9283 10.9314L9.8151 11.1012L10.6457 11.951C10.8234 12.1328 10.9042 12.3883 10.8631 12.6392L10.6741 13.7961L11.6135 13.2777C11.8541 13.145 12.1459 13.145 12.3865 13.2777L13.3259 13.7961L13.1369 12.6392C13.0958 12.3883 13.1766 12.1328 13.3543 11.951L14.1849 11.1012L13.0717 10.9314C12.8081 10.8912 12.5818 10.7223 12.4684 10.481L12 9.48488ZM11.2579 7.77303C11.5544 7.14233 12.4455 7.14232 12.7421 7.77303L13.5991 9.59567L15.5017 9.88583C16.2099 9.99385 16.4019 10.8359 15.9639 11.284L14.5674 12.7127L14.8984 14.7382C14.9967 15.3394 14.3629 15.9673 13.6936 15.598L12 14.6635L10.3064 15.598C9.6371 15.9673 9.00334 15.3394 9.10159 14.7382L9.43257 12.7127L8.03613 11.284C7.59807 10.8359 7.79009 9.99385 8.49833 9.88583L10.4009 9.59567L11.2579 7.77303Z" fill="#333333"/>
</svg>
