<svg width="24" height="24" viewBox="0 0 24 24" fill="none" xmlns="http://www.w3.org/2000/svg">
<path fill-rule="evenodd" clip-rule="evenodd" d="M18.29 8.01C18.16 7.68 17.96 7.39 17.72 7.14L15.4 4.78C15.15 4.53 14.87 4.34 14.54 4.2C14.22 4.07 13.91 4.02 13.53 4H8.13C7.43 4 6.77 4.28 6.27 4.78C5.77 5.28 5.5 5.95 5.5 6.67V17.34C5.5 18.05 5.77 18.72 6.27 19.23C6.76 19.73 7.44 20.01 8.13 20.01H15.87C16.57 20.01 17.23 19.73 17.73 19.23C18.23 18.73 18.5 18.06 18.5 17.34V9.04C18.5 8.69 18.43 8.34 18.3 8.02L18.29 8.01ZM16.72 8.12C16.7906 8.19056 16.8378 8.27668 16.8822 8.35777L16.9 8.39H14.77C14.59 8.39 14.41 8.32 14.28 8.19C14.15 8.06 14.08 7.89 14.08 7.71V5.55C14.19 5.61 14.3 5.67 14.39 5.76L16.72 8.12ZM16.72 18.24C16.49 18.48 16.18 18.6 15.85 18.6H8.11C7.79 18.6 7.47 18.47 7.25 18.24C7.01 18 6.88 17.68 6.88 17.34V6.67C6.88 6.33 7.01 6 7.25 5.77C7.48 5.54 7.79 5.41 8.11 5.41H12.67V7.72C12.67 8.28 12.89 8.8 13.28 9.2C13.67 9.59 14.21 9.81 14.76 9.81H17.07V17.35C17.07 17.69 16.94 18.01 16.7 18.25L16.72 18.24Z" fill="#333333"/>
<path fill-rule="evenodd" clip-rule="evenodd" d="M15.592 11.0696C15.881 11.3264 15.907 11.7689 15.6501 12.0578L11.932 16.2408C11.5115 16.7138 10.7795 16.7353 10.332 16.2878L8.63198 14.5877C8.35861 14.3144 8.35861 13.8712 8.63198 13.5978C8.90535 13.3244 9.34856 13.3244 9.62193 13.5978L11.097 15.0729L14.6038 11.1277C14.8606 10.8388 15.3031 10.8127 15.592 11.0696Z" fill="#333333"/>
</svg>
