<svg width="24" height="24" viewBox="0 0 24 24" fill="none" xmlns="http://www.w3.org/2000/svg">
<path fill-rule="evenodd" clip-rule="evenodd" d="M17.1 9.02772C17.1008 8.69142 16.9615 8.35383 16.7322 8.12173L14.4071 5.7656C14.1785 5.53378 13.8536 5.39922 13.5386 5.4L13.5351 5.40001L8.13158 5.40001C7.4842 5.40001 6.9 5.97456 6.9 6.66667V17.3334C6.9 18.0254 7.48421 18.6 8.13158 18.6H15.8684C16.5158 18.6 17.1 18.0254 17.1 17.3334V9.02772ZM13.5351 4.00001H8.13158C6.68353 4.00001 5.5 5.22912 5.5 6.66667V17.3334C5.5 18.7709 6.68355 20 8.13158 20H15.8684C17.3165 20 18.5 18.7709 18.5 17.3334V9.03112C18.5017 8.32797 18.219 7.63469 17.7281 7.13778L15.4035 4.78223C14.9131 4.28472 14.229 3.99828 13.5351 4.00001Z" fill="#333333"/>
<path fill-rule="evenodd" clip-rule="evenodd" d="M15.6178 10.2274C15.9054 10.4858 15.9291 10.9283 15.6708 11.216L12.2691 15.0034C12.1493 15.1379 12.0023 15.25 11.8339 15.3282C11.6655 15.4063 11.4814 15.4482 11.2929 15.4482C11.1044 15.4482 10.9203 15.4064 10.7519 15.3282C10.5835 15.25 10.4365 15.1379 10.3167 15.0034L8.78879 13.3023C8.53046 13.0146 8.5542 12.5721 8.84182 12.3137C9.12944 12.0554 9.57202 12.0791 9.83035 12.3668L11.2929 13.9951L14.6292 10.2805C14.8876 9.99285 15.3301 9.9691 15.6178 10.2274Z" fill="#333333"/>
</svg>
