<svg width="24" height="24" viewBox="0 0 24 24" fill="none" xmlns="http://www.w3.org/2000/svg">
<path d="M14.4998 11.2695H9.4998C9.1098 11.2695 8.7998 11.5795 8.7998 11.9695C8.7998 12.3595 9.1098 12.6695 9.4998 12.6695H14.4998C14.8898 12.6695 15.1998 12.3595 15.1998 11.9695C15.1998 11.5795 14.8898 11.2695 14.4998 11.2695Z" fill="#333333"/>
<path d="M9.4998 14.2695H13.2198C13.6098 14.2695 13.9198 14.5795 13.9198 14.9695C13.9198 15.3595 13.6098 15.6695 13.2198 15.6695H9.4998C9.1098 15.6695 8.7998 15.3595 8.7998 14.9695C8.7998 14.5795 9.1098 14.2695 9.4998 14.2695Z" fill="#333333"/>
<path fill-rule="evenodd" clip-rule="evenodd" d="M18.2998 8.01C18.1698 7.68 17.9698 7.39 17.7298 7.14L15.4098 4.78C15.1598 4.53 14.8798 4.34 14.5498 4.2C14.2298 4.07 13.9198 4.02 13.5398 4H8.13977C7.43977 4 6.77977 4.28 6.27977 4.78C5.77977 5.28 5.50977 5.95 5.50977 6.67V17.34C5.50977 18.05 5.77977 18.72 6.27977 19.23C6.76977 19.73 7.44977 20.01 8.13977 20.01H15.8798C16.5798 20.01 17.2398 19.73 17.7398 19.23C18.2398 18.73 18.5098 18.06 18.5098 17.34V9.04C18.5098 8.69 18.4398 8.34 18.3098 8.02L18.2998 8.01ZM16.7298 8.12C16.8003 8.19056 16.8475 8.27668 16.892 8.35777L16.9098 8.39H14.7798C14.5998 8.39 14.4198 8.32 14.2898 8.19C14.1598 8.06 14.0898 7.89 14.0898 7.71V5.55C14.1998 5.61 14.3098 5.67 14.3998 5.76L16.7298 8.12ZM16.7298 18.24C16.4998 18.48 16.1898 18.6 15.8598 18.6H8.11977C7.79977 18.6 7.47977 18.47 7.25977 18.24C7.01977 18 6.88977 17.68 6.88977 17.34V6.67C6.88977 6.33 7.01977 6 7.25977 5.77C7.48977 5.54 7.79977 5.41 8.11977 5.41H12.6798V7.72C12.6798 8.28 12.8998 8.8 13.2898 9.2C13.6798 9.59 14.2198 9.81 14.7698 9.81H17.0798V17.35C17.0798 17.69 16.9498 18.01 16.7098 18.25L16.7298 18.24Z" fill="#333333"/>
</svg>
