<svg width="24" height="24" viewBox="0 0 24 24" fill="none" xmlns="http://www.w3.org/2000/svg">
<path fill-rule="evenodd" clip-rule="evenodd" d="M18.5 9.03111V10.2074C17.7626 9.88373 16.9477 9.7041 16.0908 9.7041C15.7335 9.7041 15.3835 9.73533 15.0434 9.79521H14.7855C14.2318 9.79521 13.7001 9.57614 13.3077 9.18528C12.9153 8.79433 12.6943 8.26352 12.6943 7.7095V5.4H8.13158C7.75088 5.4 7.51241 5.51063 7.27794 5.75348C7.00406 6.03715 6.9 6.25677 6.9 6.66667V17.3334C6.9 17.7085 7.05424 18.0245 7.25585 18.2241C7.46709 18.4333 7.878 18.6 8.13158 18.6H10.8347C11.1209 19.1183 11.4815 19.5898 11.9021 20H8.13158C7.49033 20 6.73054 19.6742 6.27078 19.2189C5.81102 18.7637 5.5 18.0924 5.5 17.3334V6.66667C5.5 5.85536 5.77305 5.29656 6.27078 4.78105C6.7685 4.26555 7.37024 4 8.13158 4H13.5351C13.9542 4 14.2139 4.06817 14.5464 4.20205C14.8789 4.33593 15.06 4.45857 15.4035 4.78222C15.6246 4.99047 16.4092 5.79251 17.0142 6.41099C17.3491 6.75332 17.6297 7.04015 17.7281 7.13777C18.0044 7.41181 18.1561 7.69689 18.3006 8.00633C18.4451 8.31578 18.5 8.59827 18.5 9.03111ZM16.7423 8.13185C16.8106 8.19955 16.8641 8.27069 16.9313 8.39522H14.7855C14.6013 8.39522 14.4252 8.32229 14.2958 8.19342C14.1665 8.06463 14.0943 7.89051 14.0943 7.7095V5.53074C14.1451 5.55366 14.1679 5.56805 14.1861 5.58034C14.2238 5.60588 14.2914 5.65792 14.4435 5.8012C14.6508 5.99652 15.3422 6.70372 15.9238 7.29872C16.2885 7.67174 16.6103 8.00091 16.7423 8.13185Z" fill="#333333"/>
<path d="M8.9998 11.2744C8.61321 11.2744 8.2998 11.5878 8.2998 11.9744C8.2998 12.361 8.61321 12.6744 8.9998 12.6744H10.3191C10.7057 12.6744 11.0191 12.361 11.0191 11.9744C11.0191 11.5878 10.7057 11.2744 10.3191 11.2744H8.9998Z" fill="#333333"/>
<path d="M16.7906 13.9539C16.7906 13.5673 16.4772 13.2539 16.0906 13.2539C15.704 13.2539 15.3906 13.5673 15.3906 13.9539V15.9539C15.3906 16.1396 15.4644 16.3176 15.5957 16.4489C15.7269 16.5802 15.905 16.6539 16.0906 16.6539L18.0906 16.6539C18.4772 16.6539 18.7906 16.3405 18.7906 15.9539C18.7906 15.5673 18.4772 15.2539 18.0906 15.2539L16.7906 15.2539V13.9539Z" fill="#333333"/>
<path fill-rule="evenodd" clip-rule="evenodd" d="M16.0906 11.0039C13.4949 11.0039 11.3906 13.1082 11.3906 15.7039C11.3906 18.2996 13.4949 20.4039 16.0906 20.4039C18.6864 20.4039 20.7906 18.2996 20.7906 15.7039C20.7906 13.1082 18.6864 11.0039 16.0906 11.0039ZM12.7906 15.7039C12.7906 13.8814 14.2681 12.4039 16.0906 12.4039C17.9132 12.4039 19.3906 13.8814 19.3906 15.7039C19.3906 17.5264 17.9132 19.0039 16.0906 19.0039C14.2681 19.0039 12.7906 17.5264 12.7906 15.7039Z" fill="#333333"/>
<path d="M8.2998 14.9744C8.2998 14.5878 8.61321 14.2744 8.9998 14.2744H9.42998C9.81658 14.2744 10.13 14.5878 10.13 14.9744C10.13 15.361 9.81658 15.6744 9.42998 15.6744H8.9998C8.61321 15.6744 8.2998 15.361 8.2998 14.9744Z" fill="#333333"/>
</svg>
