<svg width="24" height="24" viewBox="0 0 24 24" fill="none" xmlns="http://www.w3.org/2000/svg">
<path fill-rule="evenodd" clip-rule="evenodd" d="M4.79804 8.09044C3.99077 7.11214 4.68664 5.63574 5.955 5.63574H18.066C19.3366 5.63574 20.0317 7.11664 19.22 8.09409L14.5867 13.673C14.4674 13.8166 14.4021 13.9974 14.4021 14.1841L14.4021 19.3369C14.4021 20.1342 13.639 20.7098 12.8724 20.4907L10.6748 19.8627C10.0309 19.6786 9.58696 19.0901 9.58696 18.4204L9.58696 14.1814C9.58696 13.9956 9.52227 13.8156 9.404 13.6722L4.79804 8.09044ZM5.85391 7.14842C5.85515 7.16035 5.85933 7.17692 5.87787 7.19939L10.4838 12.7812C10.8091 13.1753 10.987 13.6704 10.987 14.1814L10.987 18.4204C10.987 18.465 11.0166 18.5043 11.0595 18.5166L13.0021 19.0717L13.0021 14.1841C13.0021 13.6707 13.1817 13.1735 13.5097 12.7785L18.1429 7.19963C18.1616 7.17715 18.1658 7.16057 18.1671 7.14867C18.1687 7.13361 18.1662 7.11387 18.1565 7.09325C18.1469 7.07263 18.1332 7.05813 18.1206 7.04973C18.1107 7.04309 18.0952 7.03574 18.066 7.03574H5.955C5.92587 7.03574 5.91043 7.04306 5.90044 7.0497C5.88784 7.05809 5.87424 7.07255 5.86455 7.09311C5.85486 7.11366 5.85236 7.13336 5.85391 7.14842Z" fill="#333333"/>
</svg>
