<svg width="24" height="24" viewBox="0 0 24 24" fill="none" xmlns="http://www.w3.org/2000/svg">
<path d="M4.93359 7.59922C4.93359 7.24023 5.22461 6.94922 5.58359 6.94922H18.4169C18.7759 6.94922 19.0669 7.24023 19.0669 7.59922C19.0669 7.9582 18.7759 8.24922 18.4169 8.24922H5.58359C5.22461 8.24922 4.93359 7.9582 4.93359 7.59922Z" fill="black"/>
<path d="M7.22461 11.9996C7.22461 11.6406 7.51562 11.3496 7.87461 11.3496H16.1246C16.4836 11.3496 16.7746 11.6406 16.7746 11.9996C16.7746 12.3586 16.4836 12.6496 16.1246 12.6496H7.87461C7.51562 12.6496 7.22461 12.3586 7.22461 11.9996Z" fill="black"/>
<path d="M9.70859 15.9326C9.34961 15.9326 9.05859 16.2236 9.05859 16.5826C9.05859 16.9416 9.34961 17.2326 9.70859 17.2326H14.2919C14.6509 17.2326 14.9419 16.9416 14.9419 16.5826C14.9419 16.2236 14.6509 15.9326 14.2919 15.9326H9.70859Z" fill="black"/>
</svg>
