<svg width="24" height="24" viewBox="0 0 24 24" fill="none" xmlns="http://www.w3.org/2000/svg">
<path d="M6.15039 8.40078C6.15039 8.06941 6.41902 7.80078 6.75039 7.80078H17.2504C17.5818 7.80078 17.8504 8.06941 17.8504 8.40078C17.8504 8.73215 17.5818 9.00078 17.2504 9.00078H6.75039C6.41902 9.00078 6.15039 8.73215 6.15039 8.40078Z" fill="black"/>
<path d="M8.02539 12.0004C8.02539 11.669 8.29402 11.4004 8.62539 11.4004H15.3754C15.7068 11.4004 15.9754 11.669 15.9754 12.0004C15.9754 12.3318 15.7068 12.6004 15.3754 12.6004H8.62539C8.29402 12.6004 8.02539 12.3318 8.02539 12.0004Z" fill="black"/>
<path d="M10.1254 15.1504C9.79402 15.1504 9.52539 15.419 9.52539 15.7504C9.52539 16.0818 9.79402 16.3504 10.1254 16.3504H13.8754C14.2068 16.3504 14.4754 16.0818 14.4754 15.7504C14.4754 15.419 14.2068 15.1504 13.8754 15.1504H10.1254Z" fill="black"/>
</svg>
