<svg width="24" height="24" viewBox="0 0 24 24" fill="none" xmlns="http://www.w3.org/2000/svg">
<path fill-rule="evenodd" clip-rule="evenodd" d="M12.9135 8.00449L5.9998 8.00449C5.61321 8.00449 5.2998 7.69109 5.2998 7.30449C5.2998 6.91789 5.61321 6.60449 5.9998 6.60449H12.9135C13.2059 5.73265 14.0295 5.10449 14.9998 5.10449C15.9701 5.10449 16.7937 5.73265 17.0861 6.60449H17.9998C18.3864 6.60449 18.6998 6.91789 18.6998 7.30449C18.6998 7.69109 18.3864 8.00449 17.9998 8.00449H17.0861C16.7937 8.87633 15.9701 9.50449 14.9998 9.50449C14.0295 9.50449 13.2059 8.87633 12.9135 8.00449ZM14.1998 7.30449C14.1998 6.86266 14.558 6.50449 14.9998 6.50449C15.4416 6.50449 15.7998 6.86266 15.7998 7.30449C15.7998 7.74632 15.4416 8.10449 14.9998 8.10449C14.558 8.10449 14.1998 7.74632 14.1998 7.30449Z" fill="#333333"/>
<path fill-rule="evenodd" clip-rule="evenodd" d="M5.9998 11.2998C5.61321 11.2998 5.2998 11.6132 5.2998 11.9998C5.2998 12.3864 5.61321 12.6998 5.9998 12.6998H6.91351C7.20591 13.5716 8.0295 14.1998 8.9998 14.1998C9.97011 14.1998 10.7937 13.5716 11.0861 12.6998H17.9998C18.3864 12.6998 18.6998 12.3864 18.6998 11.9998C18.6998 11.6132 18.3864 11.2998 17.9998 11.2998H11.0861C10.7937 10.428 9.97011 9.7998 8.9998 9.7998C8.0295 9.7998 7.20591 10.428 6.91351 11.2998H5.9998ZM8.1998 11.9998C8.1998 11.558 8.55798 11.1998 8.9998 11.1998C9.44163 11.1998 9.7998 11.558 9.7998 11.9998C9.7998 12.4416 9.44163 12.7998 8.9998 12.7998C8.55798 12.7998 8.1998 12.4416 8.1998 11.9998Z" fill="#333333"/>
<path fill-rule="evenodd" clip-rule="evenodd" d="M5.9998 15.9951C5.61321 15.9951 5.2998 16.3085 5.2998 16.6951C5.2998 17.0817 5.61321 17.3951 5.9998 17.3951H12.9135C13.2059 18.267 14.0295 18.8951 14.9998 18.8951C15.9701 18.8951 16.7937 18.267 17.0861 17.3951H17.9998C18.3864 17.3951 18.6998 17.0817 18.6998 16.6951C18.6998 16.3085 18.3864 15.9951 17.9998 15.9951H17.0861C16.7937 15.1233 15.9701 14.4951 14.9998 14.4951C14.0295 14.4951 13.2059 15.1233 12.9135 15.9951H5.9998ZM14.9998 15.8951C14.558 15.8951 14.1998 16.2533 14.1998 16.6951C14.1998 17.1369 14.558 17.4951 14.9998 17.4951C15.4416 17.4951 15.7998 17.1369 15.7998 16.6951C15.7998 16.2533 15.4416 15.8951 14.9998 15.8951Z" fill="#333333"/>
</svg>
