<svg width="24" height="24" viewBox="0 0 24 24" fill="none" xmlns="http://www.w3.org/2000/svg">
<path fill-rule="evenodd" clip-rule="evenodd" d="M17.3801 8.78398C17.0659 10.0602 15.9138 11.0066 14.5406 11.0066C13.1675 11.0066 12.0154 10.0602 11.7011 8.78398L4.75703 8.78398C4.37043 8.78398 4.05703 8.47058 4.05703 8.08398C4.05703 7.69738 4.37043 7.38398 4.75703 7.38398H11.7003C12.0135 6.10623 13.1663 5.1582 14.5406 5.1582C15.9149 5.1582 17.0678 6.10623 17.3809 7.38398H19.2443C19.6309 7.38398 19.9443 7.69738 19.9443 8.08398C19.9443 8.47058 19.6309 8.78398 19.2443 8.78398H17.3801ZM16.0648 8.08242C16.0648 8.92422 15.3824 9.60664 14.5406 9.60664C13.6988 9.60664 13.0164 8.92422 13.0164 8.08242C13.0164 7.24062 13.6988 6.5582 14.5406 6.5582C15.3824 6.5582 16.0648 7.24062 16.0648 8.08242Z" fill="#333333"/>
<path fill-rule="evenodd" clip-rule="evenodd" d="M4.75566 15.2137C4.36906 15.2137 4.05566 15.5271 4.05566 15.9137C4.05566 16.3003 4.36906 16.6137 4.75566 16.6137H6.51533C6.82812 17.8919 7.98122 18.8404 9.35586 18.8404C10.7305 18.8404 11.8836 17.8919 12.1964 16.6137H19.243C19.6296 16.6137 19.943 16.3003 19.943 15.9137C19.943 15.5271 19.6296 15.2137 19.243 15.2137H12.1951C11.8805 13.938 10.7287 12.992 9.35586 12.992C7.98304 12.992 6.83117 13.938 6.51658 15.2137H4.75566ZM9.35586 14.392C8.51406 14.392 7.83164 15.0744 7.83164 15.9162C7.83164 16.758 8.51406 17.4404 9.35586 17.4404C10.1977 17.4404 10.8801 16.758 10.8801 15.9162C10.8801 15.0744 10.1977 14.392 9.35586 14.392Z" fill="#333333"/>
</svg>
