<svg width="24" height="24" viewBox="0 0 24 24" fill="none" xmlns="http://www.w3.org/2000/svg">
<path d="M3.71582 6.79961C3.71582 6.41301 4.02922 6.09961 4.41582 6.09961H19.5825C19.9691 6.09961 20.2825 6.41301 20.2825 6.79961C20.2825 7.18621 19.9691 7.49961 19.5825 7.49961H4.41582C4.02922 7.49961 3.71582 7.18621 3.71582 6.79961Z" fill="black"/>
<path d="M8.59082 17.4168C8.59082 17.0302 8.90422 16.7168 9.29082 16.7168H14.7075C15.0941 16.7168 15.4075 17.0302 15.4075 17.4168C15.4075 17.8034 15.0941 18.1168 14.7075 18.1168H9.29082C8.90422 18.1168 8.59082 17.8034 8.59082 17.4168Z" fill="black"/>
<path d="M7.1248 11.2998C6.73821 11.2998 6.4248 11.6132 6.4248 11.9998C6.4248 12.3864 6.73821 12.6998 7.1248 12.6998H16.8748C17.2614 12.6998 17.5748 12.3864 17.5748 11.9998C17.5748 11.6132 17.2614 11.2998 16.8748 11.2998H7.1248Z" fill="black"/>
</svg>
