<svg width="24" height="24" viewBox="0 0 24 24" fill="none" xmlns="http://www.w3.org/2000/svg">
<path d="M7.36621 9.20039C7.36621 8.89663 7.61245 8.65039 7.91621 8.65039H16.0829C16.3866 8.65039 16.6329 8.89663 16.6329 9.20039C16.6329 9.50415 16.3866 9.75039 16.0829 9.75039H7.91621C7.61245 9.75039 7.36621 9.50415 7.36621 9.20039Z" fill="black"/>
<path d="M8.8252 12.0002C8.8252 11.6964 9.07144 11.4502 9.3752 11.4502H14.6252C14.929 11.4502 15.1752 11.6964 15.1752 12.0002C15.1752 12.304 14.929 12.5502 14.6252 12.5502H9.3752C9.07144 12.5502 8.8252 12.304 8.8252 12.0002Z" fill="black"/>
<path d="M10.5412 14.3672C10.2375 14.3672 9.99121 14.6134 9.99121 14.9172C9.99121 15.2209 10.2375 15.4672 10.5412 15.4672H13.4579C13.7616 15.4672 14.0079 15.2209 14.0079 14.9172C14.0079 14.6134 13.7616 14.3672 13.4579 14.3672H10.5412Z" fill="black"/>
</svg>
