<svg width="24" height="24" viewBox="0 0 24 24" fill="none" xmlns="http://www.w3.org/2000/svg">
<path d="M5.38284 10.1174C5.84893 7.38192 8.23205 5.29941 11.1002 5.29941C14.3034 5.29941 16.9002 7.89616 16.9002 11.0994C16.9002 13.1897 15.7948 15.0225 14.1334 16.0441C13.8041 16.2466 13.7013 16.6777 13.9038 17.0071C14.1063 17.3364 14.5374 17.4392 14.8667 17.2367C15.2497 17.0012 15.6091 16.7307 15.9403 16.4298L19.0052 19.4947C19.2786 19.7681 19.7218 19.7681 19.9952 19.4947C20.2685 19.2213 20.2685 18.7781 19.9952 18.5047L16.8816 15.3912C17.7725 14.193 18.3002 12.708 18.3002 11.0994C18.3002 7.12296 15.0766 3.89941 11.1002 3.89941C7.53816 3.89941 4.58153 6.48533 4.00273 9.88223C3.9378 10.2633 4.1941 10.6249 4.57521 10.6899C4.95632 10.7548 5.31791 10.4985 5.38284 10.1174Z" fill="#333333"/>
<path fill-rule="evenodd" clip-rule="evenodd" d="M11.5704 12.2998H11.9998C12.3864 12.2998 12.6998 12.6132 12.6998 12.9998C12.6998 13.3864 12.3864 13.6998 11.9998 13.6998H11.5704C11.2891 14.4309 10.58 14.9498 9.7498 14.9498C8.91957 14.9498 8.21051 14.4309 7.92921 13.6998H4.9998C4.61321 13.6998 4.2998 13.3864 4.2998 12.9998C4.2998 12.6132 4.61321 12.2998 4.9998 12.2998H7.92921C8.21051 11.5687 8.91957 11.0498 9.7498 11.0498C10.58 11.0498 11.2891 11.5687 11.5704 12.2998ZM9.7498 12.4498C10.0536 12.4498 10.2998 12.696 10.2998 12.9998C10.2998 13.3036 10.0536 13.5498 9.7498 13.5498C9.44605 13.5498 9.1998 13.3036 9.1998 12.9998C9.1998 12.696 9.44605 12.4498 9.7498 12.4498Z" fill="#333333"/>
<path fill-rule="evenodd" clip-rule="evenodd" d="M4.2998 16.9998C4.2998 16.6132 4.61321 16.2998 4.9998 16.2998H5.42921C5.71051 15.5687 6.41957 15.0498 7.2498 15.0498C8.08004 15.0498 8.7891 15.5687 9.0704 16.2998H11.9998C12.3864 16.2998 12.6998 16.6132 12.6998 16.9998C12.6998 17.3864 12.3864 17.6998 11.9998 17.6998H9.0704C8.7891 18.4309 8.08004 18.9498 7.2498 18.9498C6.41957 18.9498 5.71051 18.4309 5.42921 17.6998H4.9998C4.61321 17.6998 4.2998 17.3864 4.2998 16.9998ZM7.7998 16.9998C7.7998 16.696 7.55356 16.4498 7.2498 16.4498C6.94605 16.4498 6.6998 16.696 6.6998 16.9998C6.6998 17.3036 6.94605 17.5498 7.2498 17.5498C7.55356 17.5498 7.7998 17.3036 7.7998 16.9998Z" fill="#333333"/>
</svg>
