<svg width="24" height="25" viewBox="0 0 24 25" fill="none" xmlns="http://www.w3.org/2000/svg">
<path d="M11.8682 9.12793C13.7648 9.12816 15.2029 10.4925 15.5234 12.292C15.8247 13.9843 15.2868 16.0939 14.749 17.5322C14.3116 18.702 13.792 19.6521 13.4141 21.084C13.3155 21.4575 12.9321 21.6811 12.5586 21.583C12.1849 21.4844 11.9612 21.1012 12.0596 20.7275C12.4567 19.2227 13.0808 17.9986 13.4385 17.042C13.9557 15.6586 14.3775 13.8449 14.1445 12.5371C13.9307 11.3366 13.0186 10.5285 11.8682 10.5283C10.7313 10.5285 9.80983 11.45 9.80957 12.5869C9.80957 13.3782 10.0812 14.1637 10.3086 14.6748C10.4753 15.0494 10.6645 15.4776 10.79 15.9365C11.0893 17.0305 11.0281 18.1923 10.6162 19.249L10.167 20.4014C10.0265 20.7612 9.62074 20.9389 9.26074 20.7988C8.90059 20.6584 8.72196 20.2527 8.8623 19.8926L9.31152 18.7402C9.61428 17.9635 9.65943 17.1098 9.43945 16.3057C9.34588 15.9636 9.20019 15.6273 9.0293 15.2432C8.76818 14.6562 8.40918 13.6623 8.40918 12.5869C8.40944 10.6768 9.95806 9.12809 11.8682 9.12793Z" fill="#15C674"/>
<path d="M17.4834 13.376C17.8689 13.3995 18.1627 13.7306 18.1396 14.1162C17.9879 16.6393 17.3328 18.8986 15.9785 21.2461C15.7854 21.5807 15.3572 21.6957 15.0225 21.5029C14.6876 21.3097 14.5724 20.8808 14.7656 20.5459C16.0111 18.3869 16.6035 16.3389 16.7422 14.0322C16.7655 13.6464 17.0976 13.3528 17.4834 13.376Z" fill="#15C674"/>
<path d="M6.66309 14.6279C7.01529 14.4691 7.42976 14.6255 7.58887 14.9775C7.66485 15.1458 7.74071 15.3165 7.80273 15.4541C8.0677 16.0422 8.24794 16.7389 8.26562 17.4336C8.28317 18.1259 8.13908 18.8672 7.69727 19.4844C7.47217 19.7985 7.03494 19.8714 6.7207 19.6465C6.40645 19.4214 6.33452 18.9832 6.55957 18.6689C6.77286 18.3708 6.87769 17.9582 6.86523 17.4688C6.85282 16.9813 6.72392 16.4678 6.52637 16.0293C6.45711 15.8756 6.39305 15.729 6.31348 15.5527C6.15473 15.2006 6.3111 14.7871 6.66309 14.6279Z" fill="#15C674"/>
<path d="M4.46387 8.36914C4.65745 8.0345 5.08626 7.92068 5.4209 8.11426C5.75531 8.30792 5.8693 8.73577 5.67578 9.07031C5.05516 10.1433 4.7002 11.389 4.7002 12.7197C4.7002 14.0504 5.05516 15.2962 5.67578 16.3691C5.8693 16.7037 5.75531 17.1315 5.4209 17.3252C5.08626 17.5188 4.65745 17.405 4.46387 17.0703C3.72327 15.79 3.2998 14.3032 3.2998 12.7197C3.2998 11.1363 3.72327 9.64948 4.46387 8.36914Z" fill="#15C674"/>
<path d="M12 4.01953C16.8049 4.01953 20.7002 7.91485 20.7002 12.7197C20.7002 13.5307 20.6263 14.4198 20.5547 15.0967C20.5186 15.4372 20.4832 15.7291 20.4561 15.9355C20.4425 16.0387 20.4309 16.121 20.4229 16.1777C20.4189 16.2061 20.4153 16.228 20.4131 16.2432C20.412 16.2507 20.4117 16.2567 20.4111 16.2607C20.4108 16.2628 20.4102 16.2656 20.4102 16.2656V16.2676C20.3531 16.6499 19.9966 16.9134 19.6143 16.8564C19.2319 16.7994 18.9683 16.4429 19.0254 16.0605V16.0566C19.0259 16.0535 19.0274 16.0486 19.0283 16.042C19.0302 16.0287 19.0324 16.0086 19.0361 15.9824C19.0436 15.9296 19.0545 15.8514 19.0674 15.7529C19.0933 15.5557 19.1275 15.276 19.1621 14.9492C19.2317 14.2915 19.2998 13.4586 19.2998 12.7197C19.2998 8.68805 16.0317 5.41992 12 5.41992C10.6029 5.41992 9.29975 5.8119 8.19141 6.49121C7.8618 6.69325 7.43055 6.58937 7.22852 6.25977C7.02653 5.93017 7.12941 5.49891 7.45898 5.29688C8.78126 4.48637 10.3373 4.01953 12 4.01953Z" fill="#15C674"/>
<path d="M11.7559 11.8994C12.1244 11.784 12.5179 11.989 12.6338 12.3574C12.9606 13.3988 12.958 14.242 12.958 14.958C12.958 15.3445 12.6442 15.658 12.2578 15.6582C11.8712 15.6582 11.5576 15.3446 11.5576 14.958C11.5576 14.2509 11.555 13.5969 11.2979 12.7773C11.1822 12.4086 11.3872 12.0153 11.7559 11.8994Z" fill="#15C674"/>
<path d="M11.8682 6.61035C14.6812 6.61074 17.1478 8.57851 17.8789 11.0029C17.9901 11.3728 17.7799 11.7633 17.4102 11.875C17.0403 11.9863 16.6499 11.7769 16.5381 11.4072C15.9822 9.56378 14.0531 8.01113 11.8682 8.01074C9.10323 8.01074 6.88386 10.3115 7.14648 12.6465C7.18931 13.0302 6.91301 13.3765 6.5293 13.4199C6.14524 13.4631 5.79827 13.1867 5.75488 12.8027C5.38075 9.47632 8.43947 6.61035 11.8682 6.61035Z" fill="#15C674"/>
</svg>
