<svg width="24" height="24" viewBox="0 0 24 24" fill="none" xmlns="http://www.w3.org/2000/svg">
<path fill-rule="evenodd" clip-rule="evenodd" d="M10.6342 18.5028C10.8482 18.6522 10.9469 18.9305 10.8578 19.1897C10.7502 19.5031 10.4088 19.6698 10.0954 19.5621C7.36545 18.6242 5.40039 16.2916 5.40039 13.3697C5.40039 11.3084 6.53327 9.20485 7.91752 7.49123C9.31008 5.76732 11.0417 4.33316 12.4038 3.61905C13.0224 3.29473 13.5899 3.83915 13.5724 4.36953C13.5222 5.89003 14.5274 7.00931 15.818 8.44636L15.8875 8.52377C17.1499 9.92982 18.6004 11.5991 18.6004 14.0728C18.6004 16.0602 17.3515 17.4466 16.2149 18.2973C15.6395 18.728 15.0677 19.0415 14.6415 19.2472C14.4276 19.3505 14.2483 19.4275 14.1207 19.4794C14.0569 19.5053 14.0059 19.525 13.9699 19.5386C13.9518 19.5454 13.9375 19.5506 13.9272 19.5544L13.9147 19.5589L13.9108 19.5603L13.9094 19.5607C13.9094 19.5607 13.9091 19.5609 13.8898 19.5064L13.9084 19.5611C13.5956 19.6705 13.2534 19.5055 13.144 19.1927C13.052 18.9296 13.1541 18.6455 13.3752 18.4969C13.3949 18.4763 13.4163 18.4569 13.4395 18.4389L13.4453 18.4342C13.4514 18.4292 13.4621 18.4204 13.4766 18.4079C13.5056 18.383 13.5499 18.3436 13.6043 18.2909C13.7138 18.1848 13.861 18.0279 14.0078 17.8288C14.3056 17.4248 14.5728 16.8872 14.5728 16.2683C14.5728 15.4927 14.1432 14.886 13.5208 14.0431L13.5053 14.0222C13.0121 13.3544 12.4253 12.5601 12.1744 11.5163C10.77 12.533 9.42852 13.8382 9.42852 15.7396C9.42852 16.5876 9.85026 17.5013 10.6342 18.5028Z" fill="white"/>
</svg>
