<svg width="24" height="24" viewBox="0 0 24 24" fill="none" xmlns="http://www.w3.org/2000/svg">
<path fill-rule="evenodd" clip-rule="evenodd" d="M10.8804 18.6195C10.8654 18.5958 10.8489 18.573 10.831 18.5512C10.0845 17.6036 9.6998 16.7604 9.6998 15.9953C9.6998 14.327 10.7621 13.1497 11.9791 12.2202C12.2577 13.147 12.8103 13.8622 13.265 14.4504L13.2921 14.4856C13.9148 15.2917 14.2998 15.826 14.2998 16.4953C14.2998 17.0421 14.0635 17.5233 13.7913 17.8925C13.6578 18.0737 13.5237 18.2166 13.4242 18.3129C13.3749 18.3608 13.335 18.3962 13.3093 18.4182C13.3016 18.4248 13.2952 18.4302 13.2903 18.4343C13.2886 18.4358 13.2857 18.4381 13.2857 18.4381C13.1686 18.5273 13.0839 18.6505 13.0411 18.7881C12.9857 18.9674 13.003 19.1665 13.099 19.3375C13.1947 19.5088 13.3563 19.6281 13.5394 19.6743C13.62 19.6946 13.7047 19.7007 13.7899 19.6908C13.8487 19.6841 13.9071 19.6699 13.9634 19.648C13.9738 19.6442 13.9876 19.6391 14.0045 19.6327C14.0413 19.6189 14.0931 19.5989 14.1578 19.5726C14.287 19.52 14.4683 19.4421 14.6844 19.3378C15.1146 19.1302 15.6923 18.8135 16.2743 18.3779C17.4215 17.5192 18.6998 16.1069 18.6998 14.0734C18.6998 11.5572 17.2221 9.86176 15.9613 8.45752L15.9092 8.3994C14.6027 6.94446 13.6229 5.85328 13.6717 4.37339C13.6913 3.78061 13.0555 3.16474 12.3568 3.53104C10.9803 4.25266 9.23856 5.69656 7.83914 7.42895C6.44943 9.14933 5.2998 11.2751 5.2998 13.3703C5.2998 16.3365 7.29193 18.6997 10.0481 19.6524C10.0791 19.6637 10.1108 19.6729 10.1429 19.6798C10.4078 19.7369 10.678 19.6345 10.8404 19.4278C10.9033 19.3479 10.9467 19.2567 10.9699 19.161C10.9937 19.0642 10.9958 18.9662 10.9791 18.8728C10.9636 18.7847 10.9308 18.6985 10.8804 18.6195ZM8.92821 8.30869C9.99389 6.98944 11.2572 5.87476 12.3253 5.17507C12.5856 6.80656 13.7183 8.0615 14.7226 9.1742C14.7889 9.24766 14.8547 9.3205 14.9196 9.39279C16.203 10.8224 17.2998 12.1519 17.2998 14.0734C17.2998 15.3631 16.5519 16.3596 15.6458 17.0933C15.6803 16.9033 15.6998 16.7037 15.6998 16.4953C15.6998 15.3088 15.009 14.4164 14.4572 13.7036L14.4 13.6297C13.7957 12.8475 13.3075 12.188 13.2152 11.2971C13.1518 10.6855 12.4245 10.1942 11.7939 10.6277C10.339 11.6278 8.2998 13.2746 8.2998 15.9953C8.2998 16.3995 8.36572 16.7952 8.48352 17.1815C7.36731 16.2188 6.6998 14.8783 6.6998 13.3703C6.6998 11.7492 7.61501 9.93435 8.92821 8.30869Z" fill="#333333"/>
</svg>
