<svg width="24" height="24" viewBox="0 0 24 24" fill="none" xmlns="http://www.w3.org/2000/svg">
<path fill-rule="evenodd" clip-rule="evenodd" d="M8.99982 4.2998C7.80787 4.2998 6.98 4.47017 6.42904 4.65907C6.15378 4.75345 5.94937 4.85187 5.80486 4.93445C5.7327 4.97568 5.67581 5.01278 5.63276 5.04316C5.61125 5.05835 5.59323 5.07183 5.57854 5.08328C5.57119 5.08901 5.56467 5.09422 5.55897 5.09889L5.55101 5.10547L5.54749 5.10843L5.54584 5.10984L5.54504 5.11052C5.54504 5.11052 5.54489 5.11064 5.54806 5.11448L5.54426 5.11118C5.3819 5.25035 5.29894 5.44775 5.29981 5.64606L5.2998 5.64922V19.4999C5.2998 19.8865 5.61321 20.1999 5.99981 20.1999C6.3864 20.1999 6.69981 19.8865 6.69981 19.4999L6.69981 13.7672C6.75215 13.7452 6.81305 13.7217 6.88309 13.6977C7.26963 13.5652 7.94177 13.4141 8.99982 13.4141C9.99262 13.4141 10.8262 13.6946 11.7728 14.0191L11.8064 14.0306C12.7263 14.3461 13.7578 14.6998 14.9998 14.6998C16.1918 14.6998 17.0196 14.5294 17.5706 14.3405C17.8459 14.2462 18.0503 14.1477 18.1948 14.0652C18.7515 13.7471 18.6998 13.749 18.6998 13.3569V5.64266C18.6998 5.36929 18.5407 5.12093 18.2923 5.0067C18.0502 4.89537 17.7666 4.93131 17.5602 5.09792C17.5534 5.10269 17.5335 5.1163 17.5002 5.13534C17.4337 5.1733 17.31 5.23559 17.1165 5.30193C16.73 5.43446 16.0579 5.58552 14.9998 5.58552C14.007 5.58552 13.1735 5.30506 12.2268 4.9805L12.1933 4.96899C11.2734 4.65353 10.2419 4.2998 8.99982 4.2998ZM6.69981 12.289C7.24011 12.1366 7.98906 12.0141 8.99982 12.0141C10.2419 12.0141 11.2734 12.3678 12.1933 12.6833L12.2268 12.6948C13.1735 13.0193 14.007 13.2998 14.9998 13.2998C16.0579 13.2998 16.73 13.1487 17.1165 13.0162C17.1866 12.9922 17.2475 12.9687 17.2998 12.9467V6.71058C16.7595 6.86301 16.0106 6.98552 14.9998 6.98552C13.7578 6.98552 12.7263 6.6318 11.8064 6.31634L11.7728 6.30482C10.8262 5.98027 9.99262 5.6998 8.99982 5.6998C7.94177 5.6998 7.26963 5.85087 6.88309 5.9834C6.81305 6.00741 6.75215 6.03089 6.6998 6.05289L6.69981 12.289Z" fill="#333333"/>
</svg>
