<svg width="24" height="24" viewBox="0 0 24 24" fill="none" xmlns="http://www.w3.org/2000/svg">
<path d="M8.99982 4.2998C7.80787 4.2998 6.98 4.47017 6.42904 4.65907C6.15378 4.75345 5.94937 4.85187 5.80486 4.93445C5.7327 4.97568 5.67581 5.01278 5.63276 5.04316C5.61125 5.05835 5.59323 5.07183 5.57854 5.08328C5.57119 5.08901 5.56467 5.09422 5.55897 5.09889L5.55101 5.10547L5.54749 5.10843L5.54584 5.10984L5.54504 5.11052C5.54497 5.11058 5.54489 5.11064 5.54806 5.11448L5.54426 5.11118C5.3819 5.25035 5.29894 5.44775 5.29981 5.64606L5.2998 5.64922V19.4999C5.2998 19.8865 5.61321 20.1999 5.99981 20.1999C6.3864 20.1999 6.69981 19.8865 6.69981 19.4999L6.69981 13.7672C6.75215 13.7452 6.81305 13.7217 6.88309 13.6977C7.26963 13.5652 7.94177 13.4141 8.99982 13.4141C9.99262 13.4141 10.8262 13.6946 11.7728 14.0191L11.7766 14.0204C12.1423 14.1457 12.5404 13.9509 12.6657 13.5851C12.791 13.2194 12.5961 12.8213 12.2304 12.696L12.1933 12.6833C11.2734 12.3678 10.2419 12.0141 8.99982 12.0141C7.98906 12.0141 7.24011 12.1366 6.69981 12.289L6.6998 6.05289C6.75215 6.03089 6.81305 6.00741 6.88309 5.9834C7.26963 5.85087 7.94177 5.6998 8.99982 5.6998C9.99262 5.6998 10.8262 5.98027 11.7728 6.30482L11.8064 6.31634C12.7263 6.6318 13.7578 6.98552 14.9998 6.98552C16.0106 6.98552 16.7595 6.86301 17.2998 6.71058V11.0473C17.2998 11.4339 17.6132 11.7473 17.9998 11.7473C18.3864 11.7473 18.6998 11.4339 18.6998 11.0473V5.64266C18.6998 5.36929 18.5407 5.12093 18.2923 5.0067C18.0502 4.89537 17.7659 4.93179 17.5595 5.09841C17.5528 5.10318 17.5335 5.1163 17.5002 5.13534C17.4337 5.1733 17.31 5.23559 17.1165 5.30193C16.73 5.43446 16.0579 5.58552 14.9998 5.58552C14.007 5.58552 13.1735 5.30506 12.2268 4.9805L12.1933 4.96899C11.2734 4.65353 10.2419 4.2998 8.99982 4.2998Z" fill="#333333"/>
<path d="M14.4936 13.0869C14.767 12.8135 15.2102 12.8135 15.4835 13.0869L16.9886 14.5919L18.4936 13.0869C18.767 12.8135 19.2102 12.8135 19.4835 13.0869C19.7569 13.3602 19.7569 13.8034 19.4835 14.0768L17.9785 15.5818L19.4835 17.0869C19.7569 17.3602 19.7569 17.8034 19.4835 18.0768C19.2102 18.3502 18.767 18.3502 18.4936 18.0768L16.9886 16.5718L15.4835 18.0768C15.2102 18.3502 14.767 18.3502 14.4936 18.0768C14.2202 17.8034 14.2202 17.3602 14.4936 17.0869L15.9986 15.5818L14.4936 14.0768C14.2202 13.8034 14.2202 13.3602 14.4936 13.0869Z" fill="#333333"/>
</svg>
