<svg width="24" height="24" viewBox="0 0 24 24" fill="none" xmlns="http://www.w3.org/2000/svg">
<path fill-rule="evenodd" clip-rule="evenodd" d="M13.886 8.80123C13.4349 8.80123 13.0114 8.58385 12.7484 8.21729L11.8225 6.92663C11.7098 6.76953 11.5283 6.67637 11.335 6.67637H6C5.66863 6.67637 5.4 6.945 5.4 7.27637L5.40001 9.39976L5.4 9.40123V16.9997C5.4 17.3311 5.66863 17.5997 6 17.5997H18.0001C18.3315 17.5997 18.6001 17.3311 18.6001 16.9997V9.40123C18.6001 9.06986 18.3315 8.80123 18.0001 8.80123H13.886ZM12.9601 6.11057L13.886 7.40123H18.0001C19.1047 7.40123 20.0001 8.29666 20.0001 9.40123V16.9997C20.0001 18.1043 19.1047 18.9997 18.0001 18.9997H6C4.89543 18.9997 4 18.1043 4 16.9997V9.40123L4.00001 9.39654L4 7.27637C4 6.1718 4.89543 5.27637 6 5.27637H11.335C11.9795 5.27637 12.5844 5.58692 12.9601 6.11057Z" fill="#333333"/>
<path fill-rule="evenodd" clip-rule="evenodd" d="M11.3048 12.065V14.6183H15.5133V12.065H11.3048ZM10.9048 10.665C10.3525 10.665 9.90479 11.1128 9.90479 11.665V15.0183C9.90479 15.5706 10.3525 16.0183 10.9048 16.0183H15.9133C16.4656 16.0183 16.9133 15.5706 16.9133 15.0183V11.665C16.9133 11.1128 16.4656 10.665 15.9133 10.665H10.9048Z" fill="#333333"/>
</svg>
