<svg width="24" height="24" viewBox="0 0 24 24" fill="none" xmlns="http://www.w3.org/2000/svg">
<path fill-rule="evenodd" clip-rule="evenodd" d="M5.40002 9.34492C5.4003 9.36046 5.40031 9.37601 5.40008 9.39155L5.4 9.4014V16.9999C5.4 17.3313 5.66863 17.5999 6 17.5999H18.0001C18.3315 17.5999 18.6001 17.3313 18.6001 16.9999V9.4014C18.6001 9.07003 18.3315 8.8014 18.0001 8.8014H14.308C13.8844 8.8014 13.4836 8.60966 13.2179 8.27988L11.872 6.60984C11.7581 6.4685 11.5863 6.38633 11.4048 6.38633H6.00001C5.66864 6.38633 5.40001 6.65496 5.40001 6.98633L5.40002 9.34492ZM14.308 7.4014L12.9621 5.73136C12.5824 5.26024 12.0099 4.98633 11.4048 4.98633H6.00001C4.89544 4.98633 4.00001 5.88176 4.00001 6.98633L4.00001 9.34459L4.00024 9.37L4 9.4014V16.9999C4 18.1045 4.89543 18.9999 6 18.9999H18.0001C19.1047 18.9999 20.0001 18.1045 20.0001 16.9999V9.4014C20.0001 8.29683 19.1047 7.4014 18.0001 7.4014H14.308Z" fill="#333333"/>
</svg>
