<svg width="24" height="24" viewBox="0 0 24 24" fill="none" xmlns="http://www.w3.org/2000/svg">
<path fill-rule="evenodd" clip-rule="evenodd" d="M13.886 8.80123C13.4349 8.80123 13.0114 8.58385 12.7484 8.21729L11.8225 6.92663C11.7098 6.76953 11.5283 6.67637 11.335 6.67637H6C5.66863 6.67637 5.4 6.945 5.4 7.27637L5.40001 9.39976L5.4 9.40123V16.9997C5.4 17.3311 5.66863 17.5997 6 17.5997H18.0001C18.3315 17.5997 18.6001 17.3311 18.6001 16.9997V9.40123C18.6001 9.06986 18.3315 8.80123 18.0001 8.80123H13.886ZM12.9601 6.11057L13.886 7.40123H18.0001C19.1047 7.40123 20.0001 8.29666 20.0001 9.40123V16.9997C20.0001 18.1043 19.1047 18.9997 18.0001 18.9997H6C4.89543 18.9997 4 18.1043 4 16.9997V9.40123L4.00001 9.39654L4 7.27637C4 6.1718 4.89543 5.27637 6 5.27637H11.335C11.9795 5.27637 12.5844 5.58692 12.9601 6.11057Z" fill="#333333"/>
<path fill-rule="evenodd" clip-rule="evenodd" d="M16.6456 10.4623C17.0322 10.4623 17.3456 10.7757 17.3456 11.1623V15.6583C17.3456 16.0449 17.0322 16.3583 16.6456 16.3583C16.259 16.3583 15.9456 16.0449 15.9456 15.6583V11.1623C15.9456 10.7757 16.259 10.4623 16.6456 10.4623Z" fill="#333333"/>
<path fill-rule="evenodd" clip-rule="evenodd" d="M14.3344 10.4623C14.721 10.4623 15.0344 10.7757 15.0344 11.1623V12.7103H16.6456C17.0322 12.7103 17.3456 13.0237 17.3456 13.4103C17.3456 13.7969 17.0322 14.1103 16.6456 14.1103H14.3344C13.9478 14.1103 13.6344 13.7969 13.6344 13.4103V11.1623C13.6344 10.7757 13.9478 10.4623 14.3344 10.4623Z" fill="#333333"/>
<path fill-rule="evenodd" clip-rule="evenodd" d="M11.579 10.457C12.2833 10.6748 12.9321 11.2994 12.9321 12.1739C12.9321 12.8061 12.6983 13.2722 12.3457 13.6229C12.0815 13.8858 11.7415 14.0846 11.4881 14.2327C11.4479 14.2562 11.4099 14.2784 11.3747 14.2994C11.0782 14.4764 10.8771 14.6187 10.7368 14.803C10.7026 14.8478 10.6694 14.8987 10.6392 14.9583H12.2321C12.6187 14.9583 12.9321 15.2717 12.9321 15.6583C12.9321 16.0449 12.6187 16.3583 12.2321 16.3583H9.7998C9.41321 16.3583 9.0998 16.0449 9.0998 15.6583C9.0998 14.9431 9.29137 14.3902 9.62294 13.9548C9.93868 13.5402 10.3456 13.2832 10.6572 13.0973C10.7085 13.0666 10.7566 13.0382 10.8017 13.0115C11.0657 12.8552 11.2303 12.7578 11.3584 12.6304C11.4619 12.5274 11.5321 12.4128 11.5321 12.1739C11.5321 12.0627 11.4396 11.8793 11.1653 11.7944C10.9248 11.72 10.6009 11.7554 10.3156 12.0664C10.0542 12.3513 9.61141 12.3703 9.32655 12.109C9.04169 11.8476 9.02265 11.4048 9.28402 11.1199C9.94853 10.3957 10.8409 10.2286 11.579 10.457Z" fill="#333333"/>
</svg>
