<svg width="24" height="24" viewBox="0 0 24 24" fill="none" xmlns="http://www.w3.org/2000/svg">
<path fill-rule="evenodd" clip-rule="evenodd" d="M6.54785 9.71172C6.54785 8.77283 7.30897 8.01172 8.24785 8.01172H15.7527C16.6916 8.01172 17.4527 8.77283 17.4527 9.71172V10.1463C17.4527 11.0852 16.6916 11.8463 15.7527 11.8463H8.24785C7.30897 11.8463 6.54785 11.0852 6.54785 10.1463V9.71172ZM8.24785 9.41172C8.08217 9.41172 7.94785 9.54603 7.94785 9.71172V10.1463C7.94785 10.312 8.08217 10.4463 8.24785 10.4463H15.7527C15.9184 10.4463 16.0527 10.312 16.0527 10.1463V9.71172C16.0527 9.54603 15.9184 9.41172 15.7527 9.41172H8.24785Z" fill="#333333"/>
<path d="M7.56475 14.4102C7.08511 14.4102 6.69629 14.799 6.69629 15.2786C6.69629 15.7582 7.08511 16.1471 7.56475 16.1471H12.4446C12.9243 16.1471 13.3131 15.7582 13.3131 15.2786C13.3131 14.799 12.9243 14.4102 12.4446 14.4102H7.56475Z" fill="#333333"/>
<path fill-rule="evenodd" clip-rule="evenodd" d="M3.89209 7.70723C3.89209 6.16083 5.14569 4.90723 6.69209 4.90723H17.3085C18.8549 4.90723 20.1085 6.16083 20.1085 7.70723V16.2914C20.1085 17.8378 18.8549 19.0914 17.3085 19.0914H6.69209C5.14569 19.0914 3.89209 17.8378 3.89209 16.2914V7.70723ZM6.69209 6.30723C5.91889 6.30723 5.29209 6.93403 5.29209 7.70723V16.2914C5.29209 17.0646 5.91889 17.6914 6.69209 17.6914H17.3085C18.0817 17.6914 18.7085 17.0646 18.7085 16.2914V7.70723C18.7085 6.93403 18.0817 6.30723 17.3085 6.30723H6.69209Z" fill="#333333"/>
</svg>
