<svg width="24" height="24" viewBox="0 0 24 24" fill="none" xmlns="http://www.w3.org/2000/svg">
<path fill-rule="evenodd" clip-rule="evenodd" d="M13.4101 5.93009V8.3579C13.4101 8.7445 13.0967 9.0579 12.7101 9.0579C12.6758 9.0579 12.6611 9.05763 12.6518 9.05745C12.6428 9.05728 12.6388 9.05721 12.6266 9.05758C9.7785 9.1442 7.91779 10.6218 6.67972 12.4135C5.8238 13.6521 5.27847 15.0264 4.93947 16.1529C5.56598 15.607 6.34203 15.0038 7.23073 14.4608C8.72107 13.5502 10.5745 12.7805 12.5982 12.7802H12.7101C13.0967 12.7802 13.4101 13.0936 13.4101 13.4802V16.4578L18.8698 11.194L13.4101 5.93009ZM12.5772 4.05567C12.9175 3.89344 13.3536 3.93093 13.6694 4.23538L20.0521 10.3891C20.5044 10.8252 20.5044 11.5627 20.0521 11.9988L13.6694 18.1525C13.3536 18.457 12.9175 18.4945 12.5772 18.3323C12.2428 18.1728 12.0101 17.8296 12.0101 17.4229V14.2063C10.5514 14.3341 9.16578 14.9191 7.96068 15.6554C6.59847 16.4878 5.51289 17.4855 4.87815 18.1325C4.15581 18.8688 3.02571 18.1664 3.22045 17.2344C3.48592 15.9638 4.12218 13.6519 5.52796 11.6176C6.8666 9.6804 8.92665 7.96907 12.0101 7.69249V4.96501C12.0101 4.55836 12.2428 4.21508 12.5772 4.05567Z" fill="#333333"/>
</svg>
