<svg width="24" height="24" viewBox="0 0 24 24" fill="none" xmlns="http://www.w3.org/2000/svg">
<path d="M8.16555 6.86715C9.20515 6.16295 10.4264 5.7877 11.6748 5.7877C13.45 5.7877 15.1551 6.50104 16.441 7.75189L17.1826 8.50362H14.9988C14.6122 8.50362 14.2988 8.81702 14.2988 9.20362C14.2988 9.59022 14.6122 9.90362 14.9988 9.90362H18.771C19.1576 9.90362 19.471 9.59022 19.471 9.20362V5.26738C19.471 4.88078 19.1576 4.56738 18.771 4.56738C18.3844 4.56738 18.071 4.88078 18.071 5.26738V7.41075L17.4328 6.76369L17.423 6.75396C15.8846 5.25474 13.8304 4.3877 11.6748 4.3877C10.1452 4.3877 8.6507 4.84757 7.3804 5.70804C6.11021 6.56842 5.12166 7.7903 4.53827 9.21808C3.95493 10.6458 3.80244 12.2162 4.09971 13.7312C4.39699 15.2463 5.13099 16.6393 6.21036 17.7335C6.48185 18.0087 6.92506 18.0117 7.20029 17.7403C7.47551 17.4688 7.47854 17.0256 7.20705 16.7503C6.322 15.8531 5.71822 14.7088 5.47351 13.4617C5.2288 12.2145 5.35448 10.9219 5.83427 9.74762C6.31402 8.57346 7.12582 7.57143 8.16555 6.86715Z" fill="#333333"/>
<path fill-rule="evenodd" clip-rule="evenodd" d="M17.9998 11.7998C16.5086 11.7998 15.2998 13.0086 15.2998 14.4998V16.4998C15.2998 17.991 16.5086 19.1998 17.9998 19.1998C19.491 19.1998 20.6998 17.991 20.6998 16.4998V14.4998C20.6998 13.0086 19.491 11.7998 17.9998 11.7998ZM16.6998 14.4998C16.6998 13.7818 17.2818 13.1998 17.9998 13.1998C18.7178 13.1998 19.2998 13.7818 19.2998 14.4998V16.4998C19.2998 17.2178 18.7178 17.7998 17.9998 17.7998C17.2818 17.7998 16.6998 17.2178 16.6998 16.4998V14.4998Z" fill="#333333"/>
<path d="M14.1998 12.4998C14.1998 12.2347 14.05 11.9923 13.8129 11.8737C13.5757 11.7551 13.292 11.7807 13.0798 11.9398L11.0798 13.4398C10.7706 13.6718 10.7079 14.1105 10.9398 14.4198C11.1718 14.7291 11.6106 14.7918 11.9198 14.5598L12.7998 13.8998V18.4998C12.7998 18.8864 13.1132 19.1998 13.4998 19.1998C13.8864 19.1998 14.1998 18.8864 14.1998 18.4998V12.4998Z" fill="#333333"/>
</svg>
