<svg width="24" height="24" viewBox="0 0 24 24" fill="none" xmlns="http://www.w3.org/2000/svg">
<path d="M11.9825 4.3877C14.138 4.3877 16.1922 5.25474 17.7306 6.75396L18.3784 7.41059V5.26738C18.3784 4.88078 18.6918 4.56738 19.0784 4.56738C19.465 4.56738 19.7784 4.88078 19.7784 5.26738V9.20362C19.7784 9.59022 19.465 9.90362 19.0784 9.90362H15.3062C14.9196 9.90362 14.6062 9.59022 14.6062 9.20362C14.6062 8.81702 14.9196 8.50362 15.3062 8.50362H17.4902L16.7487 7.75188C15.4627 6.50104 13.7576 5.7877 11.9825 5.7877C10.734 5.7877 9.51277 6.16295 8.47316 6.86715C7.43344 7.57143 6.62164 8.57346 6.14188 9.74762C5.6621 10.9219 5.53642 12.2145 5.78113 13.4617C6.02584 14.7088 6.62962 15.8531 7.51466 16.7503C7.78616 17.0256 7.78313 17.4688 7.5079 17.7403C7.23268 18.0117 6.78947 18.0087 6.51798 17.7335C5.43861 16.6393 4.7046 15.2463 4.40733 13.7312C4.11006 12.2162 4.26255 10.6458 4.84589 9.21808C5.42927 7.7903 6.41783 6.56842 7.68802 5.70804C8.95832 4.84757 10.4528 4.3877 11.9825 4.3877Z" fill="#333333"/>
<path d="M11.8856 11.4909C12.1227 11.6095 12.2725 11.8519 12.2725 12.117V19.2693C12.2725 19.6559 11.9591 19.9693 11.5725 19.9693C11.1859 19.9693 10.8725 19.6559 10.8725 19.2693V13.517L9.60839 14.4651C9.29911 14.697 8.86035 14.6344 8.62839 14.3251C8.39643 14.0158 8.45911 13.577 8.76839 13.3451L11.1525 11.557C11.3646 11.3979 11.6484 11.3723 11.8856 11.4909Z" fill="#333333"/>
<path d="M14.5528 11.417C14.1662 11.417 13.8528 11.7304 13.8528 12.117V14.7991C13.8528 15.1857 14.1662 15.4991 14.5528 15.4991H15.715C16.7233 15.4991 17.4289 16.2209 17.4289 17.0342C17.4289 17.8476 16.7233 18.5693 15.715 18.5693C15.376 18.5693 15.1256 18.5049 14.8658 18.375C14.52 18.2021 14.0996 18.3423 13.9267 18.6881C13.7538 19.0339 13.8939 19.4543 14.2397 19.6272C14.6952 19.8549 15.16 19.9693 15.715 19.9693C17.3889 19.9693 18.8289 18.7242 18.8289 17.0342C18.8289 15.3443 17.3889 14.0991 15.715 14.0991H15.2528V12.817H18.1289C18.5155 12.817 18.8289 12.5036 18.8289 12.117C18.8289 11.7304 18.5155 11.417 18.1289 11.417H14.5528Z" fill="#333333"/>
</svg>
