<svg width="24" height="24" viewBox="0 0 24 24" fill="none" xmlns="http://www.w3.org/2000/svg">
<path fill-rule="evenodd" clip-rule="evenodd" d="M12.2092 5.38714C12.1047 5.28059 11.8954 5.28059 11.791 5.38714L5.34822 11.9591C5.31095 11.9971 5.30441 12.0239 5.30255 12.0366C5.30015 12.053 5.30185 12.0768 5.31581 12.1055C5.34202 12.1596 5.41301 12.2305 5.55732 12.2305H6.4512C6.8378 12.2305 7.1512 12.5439 7.1512 12.9305V18.7041H16.8661V12.9305C16.8661 12.5439 17.1795 12.2305 17.5661 12.2305H18.4428C18.5871 12.2305 18.6581 12.1596 18.6843 12.1055C18.6983 12.0768 18.7 12.053 18.6976 12.0366C18.6957 12.0239 18.6892 11.9971 18.6519 11.9591L12.2092 5.38714ZM13.2089 4.40706L19.6516 10.979C20.1478 11.4851 20.2078 12.1727 19.9439 12.7166C19.684 13.2524 19.1243 13.6305 18.4428 13.6305H18.2661V19.0341C18.2661 19.6251 17.7871 20.1041 17.1962 20.1041H6.82113C6.23022 20.1041 5.7512 19.625 5.7512 19.0341V13.6305H5.55732C4.87584 13.6305 4.31614 13.2524 4.0562 12.7166C3.79236 12.1727 3.85232 11.4851 4.34849 10.979L10.7912 4.40706C11.4446 3.74061 12.5556 3.74061 13.2089 4.40706Z" fill="#333333"/>
<path fill-rule="evenodd" clip-rule="evenodd" d="M9.05215 15.9987L9.6907 18.9946L8.32146 19.2864L7.63139 16.0488C7.47225 15.3021 8.04159 14.5987 8.80503 14.5987H15.1886C15.9573 14.5987 16.5278 15.3113 16.3595 16.0614L15.6452 19.2453L14.2791 18.9388L14.9388 15.9987H9.05215Z" fill="#333333"/>
<path fill-rule="evenodd" clip-rule="evenodd" d="M11.1796 17.5769C11.1796 17.1903 11.493 16.8769 11.8796 16.8769H12.1174C12.504 16.8769 12.8174 17.1903 12.8174 17.5769C12.8174 17.9635 12.504 18.2769 12.1174 18.2769H11.8796C11.493 18.2769 11.1796 17.9635 11.1796 17.5769Z" fill="#333333"/>
<path fill-rule="evenodd" clip-rule="evenodd" d="M11.5282 10.5424C11.2335 10.7624 10.9911 11.3464 11.1437 12.0417C11.2856 12.6883 11.6301 12.912 11.9951 12.912C12.2591 12.912 12.435 12.8128 12.5844 12.6212C12.759 12.3972 12.8911 12.0368 12.9011 11.6224C12.911 11.2067 12.7957 10.8737 12.6474 10.6795C12.5319 10.5283 12.359 10.3998 11.9951 10.3998C11.9588 10.3998 11.8598 10.4117 11.7283 10.4553C11.6687 10.4751 11.6166 10.4968 11.5764 10.5164C11.5456 10.5314 11.5304 10.5411 11.5282 10.5424ZM10.7017 9.41237C8.96384 10.6917 9.54059 14.312 11.9951 14.312C14.942 14.312 15.1964 8.99983 11.9951 8.99983C11.5449 8.99983 10.9903 9.19994 10.7017 9.41237Z" fill="#333333"/>
</svg>
