<svg width="24" height="24" viewBox="0 0 24 24" fill="none" xmlns="http://www.w3.org/2000/svg">
<path d="M7.48711 9.42773C7.87371 9.42773 8.18711 9.74113 8.18711 10.1277V13.8718C8.18711 14.2584 7.87371 14.5718 7.48711 14.5718C7.10051 14.5718 6.78711 14.2584 6.78711 13.8718L6.78711 10.1277C6.78711 9.74114 7.10051 9.42773 7.48711 9.42773Z" fill="#333333"/>
<path d="M11.2105 10.1277C11.2105 9.74113 10.8971 9.42773 10.5105 9.42773C10.1239 9.42773 9.81055 9.74114 9.81055 10.1277V13.8718C9.81055 14.2584 10.1239 14.5718 10.5105 14.5718C10.8971 14.5718 11.2105 14.2584 11.2105 13.8718V10.1277Z" fill="#333333"/>
<path d="M13.5281 9.42773C13.9147 9.42773 14.2281 9.74113 14.2281 10.1277L14.2281 13.8718C14.2281 14.2584 13.9147 14.5718 13.5281 14.5718C13.1415 14.5718 12.8281 14.2584 12.8281 13.8718V10.1277C12.8281 9.74114 13.1415 9.42773 13.5281 9.42773Z" fill="#333333"/>
<path d="M17.2262 10.1277C17.2262 9.74113 16.9128 9.42773 16.5262 9.42773C16.1396 9.42773 15.8262 9.74114 15.8262 10.1277V13.8718C15.8262 14.2584 16.1396 14.5718 16.5262 14.5718C16.9128 14.5718 17.2262 14.2584 17.2262 13.8718L17.2262 10.1277Z" fill="#333333"/>
<path fill-rule="evenodd" clip-rule="evenodd" d="M6.45299 6.6709C5.04389 6.6709 3.90186 7.81342 3.90186 9.22246V14.7771C3.90186 16.1862 5.04389 17.3287 6.45299 17.3287H17.5598C18.9689 17.3287 20.1109 16.1862 20.1109 14.7771V13.762H20.3619C20.7485 13.762 21.0619 13.4486 21.0619 13.062V10.9383C21.0619 10.5517 20.7485 10.2383 20.3619 10.2383H20.1109V9.22246C20.1109 7.81342 18.9689 6.6709 17.5598 6.6709H6.45299ZM5.30186 9.22246C5.30186 8.58632 5.81739 8.0709 6.45299 8.0709H17.5598C18.1954 8.0709 18.7109 8.58632 18.7109 9.22246V14.7771C18.7109 15.4133 18.1954 15.9287 17.5598 15.9287H6.45299C5.81739 15.9287 5.30186 15.4133 5.30186 14.7771V9.22246Z" fill="#333333"/>
</svg>
