<svg width="24" height="24" viewBox="0 0 24 24" fill="none" xmlns="http://www.w3.org/2000/svg">
<path fill-rule="evenodd" clip-rule="evenodd" d="M12.0001 5.83579C12.4511 5.0601 13.2625 4.14648 14.5828 4.14648C15.1531 4.14648 15.6974 4.37727 16.0967 4.78387C16.4956 5.19004 16.7175 5.73829 16.7175 6.30736C16.7175 6.5701 16.6702 6.82839 16.5801 7.07031H17.8992C18.8381 7.07031 19.5992 7.83143 19.5992 8.77031V10.7128C19.5992 11.3963 19.1959 11.9855 18.6143 12.2556V18.106C18.6143 19.2658 17.6741 20.206 16.5143 20.206H7.48672C6.32692 20.206 5.38672 19.2658 5.38672 18.106V12.256C4.80462 11.9862 4.40088 11.3966 4.40088 10.7128V8.77031C4.40088 7.83143 5.16199 7.07031 6.10088 7.07031H7.4202C7.33002 6.82839 7.28271 6.5701 7.28271 6.30736C7.28271 5.73829 7.50462 5.19004 7.90354 4.78387C8.30288 4.37727 8.84721 4.14648 9.41751 4.14648C10.7378 4.14648 11.5492 5.0601 12.0001 5.83579ZM9.41751 5.54648C9.22674 5.54648 9.04118 5.62353 8.90237 5.76486C8.76314 5.90662 8.68271 6.10154 8.68271 6.30736C8.68271 6.51319 8.76314 6.7081 8.90237 6.84987C9.04118 6.9912 9.22674 7.06824 9.41751 7.06824H11.0482C10.991 6.92935 10.924 6.78401 10.8462 6.64005C10.4896 5.97999 10.0261 5.54648 9.41751 5.54648ZM12.9521 7.06824H14.5828C14.7735 7.06824 14.9591 6.9912 15.0979 6.84987C15.2371 6.7081 15.3175 6.51319 15.3175 6.30736C15.3175 6.10154 15.2371 5.90662 15.0979 5.76486C14.9591 5.62353 14.7735 5.54648 14.5828 5.54648C13.9741 5.54648 13.5106 5.97999 13.1541 6.64005C13.0763 6.78401 13.0092 6.92935 12.9521 7.06824ZM6.78672 12.4128V18.106C6.78672 18.4926 7.10012 18.806 7.48672 18.806H11.2998L11.2998 12.4128H6.78672ZM12.6998 18.806H16.5143C16.9009 18.806 17.2143 18.4926 17.2143 18.106V12.4128H12.6998L12.6998 18.806ZM12.6998 11.0128H17.8992C18.0649 11.0128 18.1992 10.8785 18.1992 10.7128V8.77031C18.1992 8.60463 18.0649 8.47031 17.8992 8.47031H12.6998V11.0128ZM11.2998 8.47031H6.10088C5.93519 8.47031 5.80088 8.60463 5.80088 8.77031V10.7128C5.80088 10.8785 5.93519 11.0128 6.10088 11.0128H11.2998V8.47031Z" fill="#333333"/>
</svg>
