<svg width="25" height="24" viewBox="0 0 25 24" fill="none" xmlns="http://www.w3.org/2000/svg">
<path fill-rule="evenodd" clip-rule="evenodd" d="M9.3644 5.21779C9.57687 5.21622 9.77856 5.31123 9.91264 5.47607L11.3426 7.23403C11.5865 7.53394 11.5411 7.97483 11.2412 8.21878C10.9413 8.46272 10.5004 8.41736 10.2565 8.11744L9.3779 7.03732L5.22561 12.2998H11.6184C11.957 12.2998 12.2471 12.5422 12.3073 12.8755L11.6184 12.9998C12.3073 12.8755 12.3072 12.8752 12.3073 12.8755L12.3075 12.877L12.3079 12.879L12.3088 12.8842L12.3114 12.8999C12.3135 12.9127 12.3163 12.93 12.3195 12.9517C12.3259 12.9949 12.3341 13.0554 12.3425 13.1307C12.3479 13.1795 12.3535 13.2349 12.3586 13.2959H12.6409C12.646 13.2349 12.6516 13.1795 12.657 13.1307C12.6654 13.0554 12.6736 12.9949 12.68 12.9517C12.6832 12.93 12.686 12.9127 12.6881 12.8999L12.6907 12.8842L12.6916 12.879L12.692 12.877C12.692 12.8767 12.6922 12.8755 13.3811 12.9998L12.6922 12.8755C12.7524 12.5422 13.0425 12.2998 13.3811 12.2998H19.7734L15.6211 7.03732L14.7426 8.11744C14.4986 8.41736 14.0577 8.46272 13.7578 8.21878C13.4579 7.97483 13.4125 7.53394 13.6565 7.23403L15.0864 5.47607C15.2205 5.31123 15.4222 5.21622 15.6346 5.21779C15.8471 5.21937 16.0473 5.31737 16.179 5.48417L21.7274 12.5161C21.7323 12.5223 21.737 12.5284 21.7415 12.5346C21.8623 12.6705 21.9258 12.8483 21.9178 13.0306L21.8734 13.0286C21.8734 13.0287 21.8735 13.0285 21.8734 13.0286C21.9178 13.0307 21.9178 13.0305 21.9178 13.0306L21.9177 13.0318L21.9176 13.0336L21.9174 13.0384L21.9166 13.0535C21.9159 13.0659 21.9149 13.083 21.9134 13.1045C21.9104 13.1475 21.9056 13.2081 21.8982 13.2837C21.8833 13.4346 21.8578 13.6468 21.8145 13.8996C21.7286 14.4014 21.5699 15.0811 21.2759 15.7647C20.9831 16.4456 20.5405 17.1666 19.8669 17.7081C19.1819 18.2587 18.2933 18.5941 17.1805 18.5472C15.8907 18.5445 14.9097 18.2072 14.1888 17.6399C13.4698 17.0741 13.0735 16.3298 12.8602 15.6267C12.7636 15.308 12.7027 14.9923 12.666 14.6959H12.3335C12.2968 14.9923 12.236 15.308 12.1393 15.6267C11.926 16.3298 11.5297 17.0741 10.8107 17.6399C10.0898 18.2072 9.10876 18.5445 7.81905 18.5472C6.70622 18.5941 5.81762 18.2587 5.13258 17.7081C4.45899 17.1666 4.01641 16.4456 3.7236 15.7647C3.42964 15.0811 3.27091 14.4014 3.185 13.8996C3.14173 13.6468 3.11617 13.4346 3.10133 13.2837C3.0939 13.2081 3.08912 13.1475 3.08614 13.1045C3.08465 13.083 3.08361 13.0659 3.08291 13.0535L3.0821 13.0384L3.08187 13.0336L3.08179 13.0318C3.08178 13.0317 3.08175 13.0309 3.12561 13.0289L3.08173 13.0306C3.07378 12.8498 3.13617 12.6733 3.2551 12.5379C3.26043 12.5306 3.26593 12.5233 3.27159 12.5161L8.82006 5.48417C8.95167 5.31737 9.15193 5.21937 9.3644 5.21779ZM4.57125 13.6998C4.64674 14.1286 4.77985 14.677 5.00972 15.2116C5.2473 15.7641 5.57271 16.2656 6.0097 16.6169C6.43196 16.9563 6.99127 17.1833 7.7717 17.1479C7.78226 17.1474 7.79283 17.1472 7.8034 17.1472C8.85069 17.1472 9.51384 16.879 9.94495 16.5397C10.3809 16.1966 10.6453 15.729 10.7996 15.2203C10.955 14.7079 10.9897 14.1808 10.9819 13.7706C10.9814 13.7465 10.9808 13.7229 10.9801 13.6998H4.57125ZM19.9898 15.2116C20.2197 14.677 20.3528 14.1286 20.4283 13.6998H14.0194C14.0187 13.7229 14.0181 13.7465 14.0176 13.7706C14.0098 14.1808 14.0445 14.7079 14.1999 15.2203C14.3542 15.729 14.6186 16.1966 15.0546 16.5397C15.4857 16.879 16.1488 17.1472 17.1961 17.1472C17.2067 17.1472 17.2173 17.1474 17.2278 17.1479C18.0082 17.1833 18.5676 16.9563 18.9898 16.6169C19.4268 16.2656 19.7522 15.7641 19.9898 15.2116Z" fill="#333333"/>
</svg>
