<svg width="24" height="24" viewBox="0 0 24 24" fill="none" xmlns="http://www.w3.org/2000/svg">
<path fill-rule="evenodd" clip-rule="evenodd" d="M3.93506 11.9998C3.93506 7.54568 7.54617 3.93457 12.0003 3.93457C16.455 3.93457 20.0655 7.54572 20.0655 11.9998C20.0655 16.4545 16.455 20.065 12.0003 20.065C7.54617 20.065 3.93506 16.4539 3.93506 11.9998ZM12.0003 5.33457C8.31937 5.33457 5.33506 8.31888 5.33506 11.9998C5.33506 15.6807 8.31937 18.665 12.0003 18.665C15.6818 18.665 18.6655 15.6813 18.6655 11.9998C18.6655 8.31884 15.6818 5.33457 12.0003 5.33457Z" fill="#333333"/>
<path fill-rule="evenodd" clip-rule="evenodd" d="M4.64133 9.89279C4.90049 9.83154 5.17196 9.92266 5.3417 10.1279C5.66626 10.5202 5.95014 10.9745 6.18227 11.3688C6.27756 11.5306 6.36065 11.6758 6.43488 11.8055C6.555 12.0155 6.65195 12.1849 6.73995 12.3188C6.86606 12.5107 7.02063 12.6984 7.20486 12.9188C7.21339 12.929 7.22199 12.9393 7.23065 12.9496C7.40016 13.1523 7.59524 13.3855 7.76525 13.6358C8.36124 14.5132 8.89531 15.501 8.52102 16.7775L8.52056 16.779C8.40708 17.1627 8.14961 17.7844 7.63916 18.1395C7.37597 18.3226 7.02203 18.3035 6.78009 18.0931C5.78951 17.2317 5.0696 16.2586 4.68554 15.2748C4.22034 14.0831 4.00836 13.3607 4.00836 12.0068C4.00836 11.9525 4.00772 11.8939 4.00703 11.8315C4.00294 11.4574 3.99737 10.9486 4.12026 10.4165C4.18019 10.157 4.38216 9.95403 4.64133 9.89279ZM5.45479 12.9038C5.52789 13.5115 5.69302 14.0057 5.98969 14.7657C6.20742 15.3234 6.58898 15.9186 7.13899 16.5008C7.15273 16.4629 7.16575 16.4235 7.17783 16.3827C7.36234 15.7524 7.16362 15.2417 6.60717 14.4225C6.4773 14.2313 6.32236 14.0459 6.13912 13.8267L6.13068 13.8166C5.95269 13.6037 5.74692 13.357 5.56996 13.0877C5.534 13.033 5.49536 12.9709 5.45479 12.9038Z" fill="#333333"/>
<path fill-rule="evenodd" clip-rule="evenodd" d="M14.2966 5.80875C14.0105 5.98105 13.6869 6.08999 13.3965 6.17292C13.242 6.21706 13.0828 6.25751 12.9311 6.29583C12.9204 6.29854 12.9097 6.30124 12.899 6.30394C12.7558 6.34011 12.6183 6.37483 12.4814 6.4125C12.1208 6.51169 11.8222 6.61793 11.5833 6.75528C11.6503 6.75491 11.712 6.75356 11.7714 6.75226C11.8207 6.75118 11.8683 6.75014 11.916 6.74972C12.4777 6.74473 13.1121 6.92386 13.6112 7.15405C13.8655 7.27132 14.1147 7.41541 14.3197 7.58169C14.5008 7.72856 14.7528 7.97622 14.8343 8.32516C14.907 8.63642 14.8096 8.93593 14.7228 9.12397C14.6229 9.3401 14.4687 9.55785 14.2683 9.73931C13.8508 10.1174 13.1749 10.3712 12.425 10.0126C12.3723 9.98741 12.1758 9.92447 11.9018 9.8656C11.6332 9.80789 11.4042 9.77866 11.3013 9.78004C11.2961 9.78011 11.2905 9.78017 11.2844 9.78023C11.1349 9.78187 10.731 9.78628 10.3652 9.97997C10.188 10.0738 10.0279 10.2087 9.909 10.4129C9.78947 10.6182 9.68673 10.9366 9.69358 11.4356C9.69687 11.6747 9.70955 11.8899 9.73979 12.0739C9.77079 12.2625 9.81395 12.3771 9.85199 12.4396C9.87883 12.4837 9.89255 12.4875 9.90139 12.49L9.9032 12.4906C9.92899 12.4985 10.0353 12.5197 10.2776 12.4496C11.177 12.1896 11.879 12.3913 12.3701 12.7795C12.821 13.1359 13.029 13.5983 13.0983 13.7604C13.1591 13.9023 13.1742 14.0421 13.18 14.125C13.1867 14.2192 13.1856 14.3168 13.1824 14.405C13.1787 14.5099 13.1701 14.6416 13.1615 14.7727C13.1566 14.8473 13.1518 14.9218 13.1478 14.991C13.1235 15.4166 13.1183 15.8654 13.2089 16.2731C13.2179 16.3138 13.2352 16.3699 13.2612 16.4302C13.2873 16.4906 13.3171 16.5432 13.3462 16.5827C13.3548 16.5944 13.3624 16.6037 13.3688 16.611C13.7579 16.5908 14.0888 16.3735 14.4486 15.9132C14.546 15.7886 14.6386 15.6173 14.7511 15.3836C14.7715 15.3412 14.793 15.2957 14.8156 15.2479C14.9044 15.0601 15.0092 14.8384 15.1227 14.6451C15.2988 14.345 15.3803 14.134 15.4756 13.8873C15.4795 13.8774 15.4833 13.8674 15.4872 13.8574C15.5944 13.5801 15.7176 13.2711 15.9798 12.8531C16.0736 12.7035 16.1794 12.507 16.2649 12.3168C15.5985 12.2271 15.1242 11.9192 14.8275 11.4943C14.6481 11.2374 14.5585 10.9712 14.5161 10.7564C14.4782 10.5645 14.4654 10.3467 14.5038 10.1729C14.5409 10.0049 14.6267 9.88918 14.6813 9.82707C14.7392 9.76126 14.7994 9.7136 14.844 9.68188C14.9325 9.61881 15.029 9.56988 15.1097 9.53311C15.2757 9.45734 15.4841 9.38426 15.7013 9.31647C16.142 9.1789 16.7048 9.03687 17.2414 8.9163C17.4649 8.8661 17.6683 8.83771 17.8528 8.8253C17.2178 7.6807 16.0394 6.41735 14.4702 5.85426C14.3787 5.82144 14.3238 5.81151 14.2966 5.80875ZM18.2697 9.79039C18.2697 9.79039 18.2684 9.78634 18.2669 9.77956C18.2691 9.78722 18.2697 9.79039 18.2697 9.79039ZM13.5864 4.60205C14.0412 4.31761 14.5353 4.39025 14.943 4.53652C17.4424 5.43335 19.0909 7.70006 19.599 9.34782C19.599 9.34782 19.6002 9.35159 19.601 9.35403C19.6129 9.39203 19.6522 9.51688 19.6541 9.64802C19.6551 9.71971 19.6498 9.93942 19.4779 10.1383C19.284 10.3626 19.0334 10.3887 18.919 10.3869C18.8113 10.3853 18.7254 10.3599 18.6972 10.3514C18.6597 10.3403 18.625 10.3274 18.6063 10.3205C18.5956 10.3165 18.586 10.3129 18.5769 10.3095C18.5463 10.298 18.523 10.2892 18.4915 10.2789C18.3679 10.2385 18.0817 10.1624 17.5483 10.2823C17.0296 10.3988 16.508 10.5313 16.1185 10.6529C16.0685 10.6685 16.022 10.6835 15.979 10.6979C16.0204 10.7556 16.0844 10.8168 16.1967 10.8642C16.3168 10.915 16.5223 10.9623 16.8584 10.9365C17.0427 10.9224 17.2866 10.9551 17.4986 11.1299C17.7045 11.2996 17.7795 11.521 17.8055 11.6761C17.8521 11.9549 17.7794 12.2402 17.7222 12.4233C17.594 12.834 17.354 13.2969 17.1658 13.5969C16.9737 13.9033 16.8882 14.1162 16.793 14.3623C16.7882 14.3745 16.7835 14.3869 16.7787 14.3993C16.68 14.6549 16.5644 14.9546 16.33 15.3538C16.2512 15.488 16.1823 15.6335 16.098 15.8115C16.0713 15.8678 16.0431 15.9273 16.0126 15.9908C15.8973 16.2302 15.7499 16.5217 15.5516 16.7754C15.0487 17.4188 14.3396 18.0139 13.3047 18.0126C12.7683 18.0119 12.4097 17.6729 12.2175 17.4111C12.019 17.1406 11.8975 16.8253 11.8423 16.5768C11.7074 15.9701 11.7245 15.3591 11.7501 14.9112C11.7559 14.8096 11.7617 14.7227 11.7668 14.6451C11.7741 14.5349 11.7802 14.4435 11.7833 14.3555C11.7849 14.3095 11.7852 14.2761 11.7847 14.2524C11.7321 14.1422 11.6423 13.9888 11.502 13.8779C11.3746 13.7771 11.1429 13.6568 10.6665 13.7945C10.2636 13.911 9.86422 13.9426 9.49401 13.8294C9.10678 13.7111 8.83413 13.4598 8.65632 13.1678C8.33834 12.6458 8.3005 11.9491 8.29372 11.4549C8.28404 10.7504 8.4294 10.1719 8.69906 9.7086C8.96937 9.24421 9.33948 8.93889 9.71012 8.74267C10.3884 8.38357 11.0927 8.38093 11.2603 8.3803C11.2693 8.38027 11.2768 8.38024 11.2826 8.38016C11.5498 8.37659 11.9058 8.43449 12.1959 8.49684C12.4807 8.55804 12.8167 8.64809 13.029 8.74963C13.1152 8.79087 13.1636 8.78621 13.1894 8.78091C13.2242 8.77374 13.2731 8.75179 13.3286 8.70153C13.3521 8.68029 13.3732 8.65707 13.3916 8.63359C13.3028 8.56907 13.1786 8.49625 13.0249 8.42538C12.6504 8.25263 12.2238 8.14704 11.9285 8.14966C11.9081 8.14984 11.8798 8.15057 11.8452 8.15146C11.6082 8.15757 11.0697 8.17144 10.6602 8.0719C10.4611 8.02349 10.0009 7.88504 9.80877 7.42862C9.59556 6.92221 9.87649 6.464 10.0945 6.19958C10.6588 5.51527 11.4723 5.2381 12.11 5.06266C12.2619 5.02087 12.4132 4.98266 12.5537 4.94718C12.5653 4.94426 12.5768 4.94136 12.5882 4.93847C12.7416 4.89974 12.881 4.86417 13.0121 4.82674C13.282 4.74965 13.4644 4.67838 13.5864 4.60205ZM13.5074 8.73475L13.5063 8.7333L13.5074 8.73475Z" fill="#333333"/>
</svg>
