<svg width="24" height="24" viewBox="0 0 24 24" fill="none" xmlns="http://www.w3.org/2000/svg">
<path d="M13.5004 6.90039C13.169 6.90039 12.9004 7.16902 12.9004 7.50039C12.9004 7.83176 13.169 8.10039 13.5004 8.10039H15.0766L11.7808 11.3962C11.5465 11.6305 11.5465 12.0104 11.7808 12.2447C12.0151 12.479 12.395 12.479 12.6293 12.2447L15.8988 8.9752L15.9004 10.501C15.9007 10.8324 16.1696 11.1007 16.501 11.1004C16.8324 11.1001 17.1007 10.8311 17.1004 10.4998L17.0983 8.49875C17.0974 7.61574 16.3814 6.90039 15.4983 6.90039H13.5004Z" fill="black"/>
<path d="M12 7.5C12 7.22386 11.7761 7 11.5 7H9C7.89543 7 7 7.89543 7 9V15C7 16.1046 7.89543 17 9 17H15C16.1046 17 17 16.1046 17 15V12.5C17 12.2239 16.7761 12 16.5 12C16.2239 12 16 12.2239 16 12.5V15C16 15.5523 15.5523 16 15 16H9C8.44772 16 8 15.5523 8 15V9C8 8.44772 8.44772 8 9 8H11.5C11.7761 8 12 7.77614 12 7.5Z" fill="black"/>
</svg>
