<svg width="24" height="24" viewBox="0 0 24 24" fill="none" xmlns="http://www.w3.org/2000/svg">
<path d="M14.1797 5.89941C13.8207 5.89941 13.5297 6.19043 13.5297 6.54941C13.5297 6.9084 13.8207 7.19941 14.1797 7.19941H15.9112L11.7865 11.3242C11.5326 11.578 11.5326 11.9896 11.7865 12.2434C12.0403 12.4972 12.4519 12.4972 12.7057 12.2434L16.802 8.14708L16.8021 9.74302C16.8021 10.102 17.0932 10.393 17.4521 10.393C17.8111 10.393 18.1021 10.1019 18.1021 9.74296L18.102 7.54934C18.102 6.6381 17.3633 5.89941 16.452 5.89941H14.1797Z" fill="black"/>
<path d="M12 6.64961C12 6.29062 11.709 5.99961 11.35 5.99961H8.5C7.11929 5.99961 6 7.1189 6 8.49961V15.4996C6 16.8803 7.11929 17.9996 8.5 17.9996H15.5C16.8807 17.9996 18 16.8803 18 15.4996V12.6496C18 12.2906 17.709 11.9996 17.35 11.9996C16.991 11.9996 16.7 12.2906 16.7 12.6496V15.4996C16.7 16.1624 16.1627 16.6996 15.5 16.6996H8.5C7.83726 16.6996 7.3 16.1624 7.3 15.4996V8.49961C7.3 7.83687 7.83726 7.29961 8.5 7.29961H11.35C11.709 7.29961 12 7.00859 12 6.64961Z" fill="black"/>
</svg>
