<svg width="24" height="24" viewBox="0 0 24 24" fill="none" xmlns="http://www.w3.org/2000/svg">
<path d="M13.4504 7.90039C13.1466 7.90039 12.9004 8.14663 12.9004 8.45039C12.9004 8.75415 13.1466 9.00039 13.4504 9.00039H14.2418L11.7752 11.4671C11.5604 11.6819 11.5604 12.0301 11.7752 12.2449C11.9899 12.4597 12.3382 12.4597 12.553 12.2449L14.9994 9.79847L14.9994 10.5504C14.9994 10.8542 15.2457 11.1004 15.5494 11.1004C15.8532 11.1004 16.0994 10.8541 16.0994 10.5504L16.0994 9.35032C16.0993 8.54954 15.4502 7.90039 14.6494 7.90039H13.4504Z" fill="black"/>
<path d="M12 8.45C12 8.20147 11.7985 8 11.55 8H9.5C8.67157 8 8 8.67157 8 9.5V14.5C8 15.3284 8.67157 16 9.5 16H14.5C15.3284 16 16 15.3284 16 14.5V12.45C16 12.2015 15.7985 12 15.55 12C15.3015 12 15.1 12.2015 15.1 12.45V14.5C15.1 14.8314 14.8314 15.1 14.5 15.1H9.5C9.16863 15.1 8.9 14.8314 8.9 14.5V9.5C8.9 9.16863 9.16863 8.9 9.5 8.9H11.55C11.7985 8.9 12 8.69853 12 8.45Z" fill="black"/>
</svg>
