<svg width="24" height="24" viewBox="0 0 24 24" fill="none" xmlns="http://www.w3.org/2000/svg">
<path fill-rule="evenodd" clip-rule="evenodd" d="M7.48691 17.0532L6.51258 16.7423C5.8657 16.5358 5.4 15.9292 5.4 15.2175V8C5.4 7.11634 6.11634 6.4 7 6.4H17.0001C17.8838 6.4 18.6001 7.11634 18.6001 8V12H20.0001V8C20.0001 6.34315 18.6569 5 17.0001 5H7C5.34315 5 4 6.34315 4 8V15.2175C4 16.5559 4.87654 17.6897 6.08691 18.076V19.7279C6.08691 20.9674 7.58556 21.5881 8.46203 20.7117L10.9562 18.2175H12V16.8175H10.3763L7.48691 19.7069V17.0532Z" fill="#333333"/>
<path fill-rule="evenodd" clip-rule="evenodd" d="M19.2988 11.3C19.6854 11.3 19.9988 11.6134 19.9988 12V12.7507C19.9988 13.1373 19.6854 13.4507 19.2988 13.4507C18.9122 13.4507 18.5988 13.1373 18.5988 12.7507V12C18.5988 11.6134 18.9122 11.3 19.2988 11.3Z" fill="#333333"/>
<path fill-rule="evenodd" clip-rule="evenodd" d="M10.3 17.5186C10.3 17.132 10.6134 16.8186 11 16.8186H12C12.3866 16.8186 12.7 17.132 12.7 17.5186C12.7 17.9052 12.3866 18.2186 12 18.2186H11C10.6134 18.2186 10.3 17.9052 10.3 17.5186Z" fill="#333333"/>
<path fill-rule="evenodd" clip-rule="evenodd" d="M7.47383 9.86914C7.47383 9.48254 7.78723 9.16914 8.17383 9.16914H15.4782C15.8648 9.16914 16.1782 9.48254 16.1782 9.86914C16.1782 10.2557 15.8648 10.5691 15.4782 10.5691H8.17383C7.78723 10.5691 7.47383 10.2557 7.47383 9.86914Z" fill="#333333"/>
<path fill-rule="evenodd" clip-rule="evenodd" d="M7.47383 12.6523C7.47383 12.2657 7.78723 11.9523 8.17383 11.9523H13.7391C14.1257 11.9523 14.4391 12.2657 14.4391 12.6523C14.4391 13.0389 14.1257 13.3523 13.7391 13.3523H8.17383C7.78723 13.3523 7.47383 13.0389 7.47383 12.6523Z" fill="#333333"/>
<path fill-rule="evenodd" clip-rule="evenodd" d="M21.1277 17.3574C21.1277 16.9708 20.8143 16.6574 20.4277 16.6574L14.9219 16.6574C14.5353 16.6574 14.2219 16.9708 14.2219 17.3574C14.2219 17.744 14.5353 18.0574 14.9219 18.0574H20.4277C20.8143 18.0574 21.1277 17.744 21.1277 17.3574Z" fill="#333333"/>
<path fill-rule="evenodd" clip-rule="evenodd" d="M20.9229 16.862C20.6496 16.5886 20.2064 16.5886 19.933 16.862L17.6756 19.1193C17.4022 19.3926 17.4022 19.8358 17.6756 20.1092C17.9489 20.3826 18.3922 20.3826 18.6655 20.1092L20.9229 17.852C21.1963 17.5786 21.1963 17.1354 20.9229 16.862Z" fill="#333333"/>
<path fill-rule="evenodd" clip-rule="evenodd" d="M20.9229 17.852C21.1963 17.5786 21.1963 17.1354 20.9229 16.862L18.6653 14.6051C18.392 14.3317 17.9487 14.3317 17.6754 14.6051C17.402 14.8784 17.402 15.3216 17.6754 15.595L19.9328 17.8524C20.2061 18.1258 20.6495 18.1253 20.9229 17.852Z" fill="#333333"/>
</svg>
