<svg width="24" height="24" viewBox="0 0 24 24" fill="none" xmlns="http://www.w3.org/2000/svg">
<path d="M14.5801 4.89941C14.1935 4.89941 13.8801 5.21281 13.8801 5.59941C13.8801 5.98601 14.1935 6.29941 14.5801 6.29941H16.7456L11.7921 11.2529C11.5188 11.5262 11.5188 11.9695 11.7921 12.2428C12.0655 12.5162 12.5087 12.5162 12.7821 12.2428L17.6978 7.32709L17.6979 9.32529C17.6979 9.71189 18.0113 10.0253 18.3979 10.0253C18.7845 10.0252 19.0979 9.71182 19.0979 9.32522L19.0978 6.59934C19.0977 5.66048 18.3366 4.89941 17.3978 4.89941H14.5801Z" fill="black"/>
<path d="M12 5.6998C12 5.31321 11.6866 4.9998 11.3 4.9998H8C6.34315 4.9998 5 6.34295 5 7.9998V15.9998C5 17.6567 6.34315 18.9998 8 18.9998H16C17.6569 18.9998 19 17.6567 19 15.9998V12.6998C19 12.3132 18.6866 11.9998 18.3 11.9998C17.9134 11.9998 17.6 12.3132 17.6 12.6998V15.9998C17.6 16.8835 16.8837 17.5998 16 17.5998H8C7.11634 17.5998 6.4 16.8835 6.4 15.9998V7.9998C6.4 7.11615 7.11634 6.3998 8 6.3998H11.3C11.6866 6.3998 12 6.0864 12 5.6998Z" fill="black"/>
</svg>
