<svg width="24" height="24" viewBox="0 0 24 24" fill="none" xmlns="http://www.w3.org/2000/svg">
<path fill-rule="evenodd" clip-rule="evenodd" d="M11.9995 11.7544C12.7306 11.7544 13.3233 11.1617 13.3233 10.4306C13.3233 9.69951 12.7306 9.10684 11.9995 9.10684C11.2684 9.10684 10.6757 9.69953 10.6757 10.4306C10.6757 11.1617 11.2684 11.7544 11.9995 11.7544ZM14.7233 10.4306C14.7233 11.9349 13.5038 13.1544 11.9995 13.1544C10.4952 13.1544 9.27568 11.9349 9.27568 10.4306C9.27568 8.92632 10.4952 7.70684 11.9995 7.70684C13.5038 7.70684 14.7233 8.92632 14.7233 10.4306Z" fill="#333333"/>
<path fill-rule="evenodd" clip-rule="evenodd" d="M6.88357 6.55616C8.11699 5.16141 9.95421 4.2832 11.9865 4.2832C12.6933 4.2832 13.3839 4.3928 14.0176 4.5846C15.7049 5.09254 17.1145 6.22127 17.932 7.72182L17.9328 7.72326C18.4127 8.60897 18.6918 9.61163 18.6918 10.6859C18.6918 12.6045 18.0356 13.9463 17.1472 15.1666C16.787 15.6614 16.3807 16.1465 15.9731 16.6331C15.8914 16.7308 15.8096 16.8285 15.728 16.9263C15.2332 17.5203 14.7324 18.1398 14.2538 18.8525L14.2512 18.8564C13.731 19.62 13.5277 20.2286 13.3683 20.7058C13.359 20.7337 13.3498 20.7612 13.3407 20.7883L13.336 20.8025C13.2629 21.0201 13.1623 21.3198 12.9879 21.5513C12.8855 21.6872 12.748 21.8161 12.5631 21.906C12.3803 21.9948 12.1912 22.026 12.0124 22.026C11.8348 22.026 11.6466 21.9953 11.4644 21.9077C11.2797 21.819 11.1418 21.6912 11.0388 21.5557C10.8634 21.3247 10.7623 21.0258 10.6892 20.8094L10.6846 20.7957C10.6752 20.7681 10.6658 20.7399 10.6562 20.7114C10.4969 20.2372 10.2934 19.6317 9.77383 18.8689C9.44384 18.3858 9.10482 17.9202 8.78224 17.5187C8.55531 17.2369 8.32163 16.9588 8.08812 16.6809C7.28856 15.7294 6.49095 14.7803 5.97266 13.6919C5.55079 12.8191 5.30713 11.8513 5.30713 10.6735C5.30713 9.10881 5.90916 7.66338 6.88245 6.55743L6.88357 6.55616ZM7.93285 7.48298C7.16844 8.35189 6.70713 9.47364 6.70713 10.6735C6.70713 11.6427 6.90409 12.4024 7.23392 13.0843L7.23587 13.0883C7.67002 14.0007 8.31069 14.7646 9.08109 15.6832C9.3321 15.9825 9.59688 16.2982 9.87277 16.6408C10.2244 17.0784 10.586 17.5758 10.9303 18.0798C11.5598 19.004 11.8146 19.7626 11.9811 20.2588C11.9913 20.2893 12.0012 20.3188 12.0108 20.3473C12.011 20.3478 12.0112 20.3484 12.0114 20.349C12.0122 20.3468 12.0129 20.3446 12.0136 20.3424C12.023 20.3144 12.0327 20.2854 12.0427 20.2555C12.2091 19.7565 12.463 18.9953 13.0928 18.0701C13.6126 17.2963 14.1506 16.6326 14.6524 16.0302C14.7395 15.9257 14.825 15.8235 14.909 15.7232C15.316 15.2371 15.6858 14.7954 16.0154 14.3426C16.7872 13.2824 17.2918 12.2235 17.2918 10.6859C17.2918 9.85951 17.0782 9.08492 16.7022 8.39082C16.0671 7.22572 14.9609 6.33052 13.6136 5.92506L13.6125 5.92472C13.1049 5.77102 12.5506 5.6832 11.9865 5.6832C10.3614 5.6832 8.9044 6.38471 7.93285 7.48298Z" fill="#333333"/>
</svg>
