<svg width="24" height="24" viewBox="0 0 24 24" fill="none" xmlns="http://www.w3.org/2000/svg">
<path fill-rule="evenodd" clip-rule="evenodd" d="M11.7277 5.59511C11.9017 5.52168 12.0979 5.52168 12.272 5.59511L20.772 9.18196C21.0313 9.29138 21.1998 9.54545 21.1998 9.82689C21.1998 10.1083 21.0313 10.3624 20.772 10.4718L19.7999 10.882V14.7004C19.7999 15.087 19.4865 15.4004 19.0999 15.4004C18.7133 15.4004 18.3999 15.087 18.3999 14.7004V11.4728L17.2429 11.961C17.2436 11.9739 17.244 11.9868 17.244 11.9998V16.4929C17.244 16.7187 17.1351 16.9306 16.9515 17.0621C14.0086 19.1692 9.97939 19.3262 7.028 17.0469C6.85637 16.9144 6.75586 16.7098 6.75586 16.4929V11.9998C6.75586 11.9868 6.75621 11.9739 6.75691 11.9611L3.22766 10.4718C2.96836 10.3624 2.7998 10.1083 2.7998 9.82689C2.7998 9.54545 2.96836 9.29138 3.22766 9.18196L11.7277 5.59511ZM12.272 14.0587L15.844 12.5513V16.1229C13.4804 17.6523 10.447 17.7261 8.15586 16.1381V12.5514L11.7277 14.0587C11.9017 14.1321 12.0979 14.1321 12.272 14.0587ZM5.30029 9.82689L11.9998 12.654L18.6993 9.82689L11.9998 6.99981L5.30029 9.82689Z" fill="#333333"/>
</svg>
