<svg width="24" height="24" viewBox="0 0 24 24" fill="none" xmlns="http://www.w3.org/2000/svg">
<path fill-rule="evenodd" clip-rule="evenodd" d="M9.65001 5.9998C9.65001 5.06092 10.4111 4.2998 11.35 4.2998H12.65C13.5889 4.2998 14.35 5.06092 14.35 5.9998V17.9998C14.35 18.9387 13.5889 19.6998 12.65 19.6998H11.35C10.4111 19.6998 9.65001 18.9387 9.65001 17.9998V5.9998ZM11.35 5.6998C11.1843 5.6998 11.05 5.83412 11.05 5.9998V17.9998C11.05 18.1655 11.1843 18.2998 11.35 18.2998H12.65C12.8157 18.2998 12.95 18.1655 12.95 17.9998V5.9998C12.95 5.83412 12.8157 5.6998 12.65 5.6998H11.35Z" fill="#333333"/>
<path fill-rule="evenodd" clip-rule="evenodd" d="M4 12.9998C4 12.0609 4.76112 11.2998 5.7 11.2998H7C7.93889 11.2998 8.7 12.0609 8.7 12.9998V17.9998C8.7 18.9387 7.93888 19.6998 7 19.6998H5.7C4.76111 19.6998 4 18.9387 4 17.9998V12.9998ZM5.7 12.6998C5.53431 12.6998 5.4 12.8341 5.4 12.9998V17.9998C5.4 18.1655 5.53431 18.2998 5.7 18.2998H7C7.16569 18.2998 7.3 18.1655 7.3 17.9998V12.9998C7.3 12.8341 7.16569 12.6998 7 12.6998H5.7Z" fill="#333333"/>
<path fill-rule="evenodd" clip-rule="evenodd" d="M17 9.2998C16.0611 9.2998 15.3 10.0609 15.3 10.9998V17.9998C15.3 18.9387 16.0611 19.6998 17 19.6998H18.3C19.2389 19.6998 20 18.9387 20 17.9998V10.9998C20 10.0609 19.2389 9.2998 18.3 9.2998H17ZM16.7 10.9998C16.7 10.8341 16.8343 10.6998 17 10.6998H18.3C18.4657 10.6998 18.6 10.8341 18.6 10.9998V17.9998C18.6 18.1655 18.4657 18.2998 18.3 18.2998H17C16.8343 18.2998 16.7 18.1655 16.7 17.9998V10.9998Z" fill="#333333"/>
</svg>
