<svg width="24" height="25" viewBox="0 0 24 25" fill="none" xmlns="http://www.w3.org/2000/svg">
<path fill-rule="evenodd" clip-rule="evenodd" d="M15.1359 16.8463C15.136 15.7641 16.0137 14.8861 17.0959 14.8859C18.1782 14.8859 19.0561 15.7636 19.0563 16.8459C19.0563 17.9283 18.1787 18.8062 17.0964 18.8063C16.0141 18.8062 15.1361 17.9286 15.1359 16.8463ZM17.0965 16.2864C16.7876 16.2866 16.5368 16.5368 16.5365 16.8457C16.5365 17.1549 16.787 17.4065 17.0961 17.4066C17.4054 17.4066 17.6566 17.1554 17.6567 16.8461C17.6566 16.5371 17.4056 16.2866 17.0965 16.2864Z" fill="#15C674"/>
<path fill-rule="evenodd" clip-rule="evenodd" d="M15.3672 13.0482C15.5659 12.5585 16.0149 12.1384 16.6201 12.0705C17.0151 12.0263 17.4173 12.0243 17.8074 12.0698C18.4477 12.1446 18.8901 12.6176 19.0597 13.1276L19.11 13.2811C19.1479 13.3943 19.2618 13.4642 19.3801 13.4479L19.558 13.4234C20.0769 13.3515 20.6749 13.5261 21.0337 14.0327C21.2675 14.3629 21.4562 14.7189 21.5985 15.0898C21.8205 15.6692 21.6355 16.264 21.2872 16.6564L21.1687 16.7895C21.0895 16.8789 21.085 17.0119 21.1584 17.1062L21.2695 17.2485C21.5919 17.6624 21.74 18.2687 21.4798 18.8332C21.3175 19.1854 21.1091 19.5237 20.8554 19.8401C20.4652 20.3267 19.8533 20.4683 19.333 20.3616L19.1587 20.3254C19.0417 20.3016 18.9236 20.3655 18.8787 20.4763L18.805 20.6596C18.6074 21.1469 18.1543 21.5793 17.5331 21.6345C17.1393 21.6695 16.7397 21.6559 16.3447 21.5914C15.7348 21.4916 15.3171 21.0333 15.1528 20.5394L15.0913 20.3535C15.0534 20.2404 14.9403 20.1701 14.8221 20.1864L14.6412 20.211C14.1217 20.2831 13.5238 20.1084 13.1651 19.6008C12.9321 19.2711 12.7432 18.9167 12.6014 18.5464C12.3796 17.967 12.5653 17.3718 12.9136 16.9795L13.0335 16.8448C13.1125 16.7554 13.1171 16.6222 13.0439 16.528L12.934 16.3863C12.6114 15.9722 12.463 15.3662 12.7237 14.8015C12.8865 14.4491 13.0952 14.1095 13.3495 13.793C13.74 13.3076 14.3512 13.1674 14.8709 13.2741L15.0426 13.3092C15.1596 13.3331 15.2768 13.2693 15.3218 13.1587L15.3672 13.0482ZM16.7275 13.4843C16.7057 13.5021 16.6821 13.5328 16.6652 13.5742L16.6197 13.6847C16.3211 14.421 15.54 14.8392 14.7617 14.6796L14.5891 14.6449C14.5441 14.6357 14.5053 14.6396 14.4794 14.6477C14.4559 14.6551 14.4456 14.6648 14.4404 14.6711C14.2581 14.898 14.1099 15.1391 13.9948 15.3882C13.9922 15.3939 13.9889 15.4061 13.9926 15.4292C13.9969 15.4548 14.0097 15.4901 14.0376 15.5258L14.1475 15.6676C14.6357 16.2944 14.6077 17.1805 14.0803 17.7747L13.9604 17.9095C13.9302 17.9435 13.9153 17.9788 13.9095 18.0042C13.9043 18.0273 13.9072 18.0394 13.9095 18.0454C14.0102 18.3083 14.1437 18.5604 14.3085 18.7937C14.3122 18.7987 14.3204 18.8077 14.3419 18.8159C14.3662 18.8251 14.4039 18.8309 14.449 18.8247L14.629 18.8004C15.4161 18.691 16.1691 19.1586 16.4199 19.9126L16.4811 20.0976C16.4954 20.1407 16.5186 20.171 16.5374 20.1885C16.5545 20.2044 16.5658 20.2085 16.5713 20.2094C16.8493 20.2548 17.1309 20.2639 17.409 20.2392C17.415 20.2387 17.4271 20.2369 17.4453 20.2222C17.4656 20.2058 17.4908 20.1757 17.508 20.1332L17.5816 19.9499C17.8803 19.2136 18.6622 18.7949 19.4406 18.9546L19.6139 18.9911C19.6587 19.0003 19.6973 18.9954 19.7232 18.9874C19.7467 18.98 19.757 18.9704 19.7622 18.964C19.9442 18.7371 20.093 18.496 20.2078 18.2469C20.2104 18.2412 20.2137 18.2287 20.21 18.2059C20.2058 18.1803 20.1926 18.1443 20.1647 18.1084L20.0539 17.9671C19.5655 17.3402 19.5943 16.4537 20.122 15.8595L20.2405 15.7264C20.2703 15.6926 20.2858 15.6579 20.2917 15.6326C20.2969 15.6095 20.2927 15.5969 20.2904 15.5909C20.1894 15.3275 20.0555 15.0756 19.8901 14.842C19.8865 14.8371 19.879 14.8277 19.8576 14.8195C19.8334 14.8102 19.7953 14.8035 19.7502 14.8098L19.5732 14.8338C18.7861 14.9434 18.0331 14.4757 17.7823 13.7216L17.7311 13.5684C17.7163 13.5242 17.693 13.4933 17.6744 13.4766C17.6587 13.4627 17.6493 13.4605 17.6454 13.46C17.3686 13.4278 17.0737 13.4288 16.7764 13.4621C16.7646 13.4634 16.7478 13.4677 16.7275 13.4843Z" fill="#15C674"/>
<path d="M9.71561 8.81576C9.71561 7.87706 10.4763 7.11564 11.415 7.11536L12.5838 7.1159C13.5224 7.11615 14.2832 7.87697 14.2833 8.81564L14.2838 11.1726C14.2834 11.5588 13.9695 11.8729 13.5832 11.873C13.1972 11.8727 12.8837 11.5593 12.8833 11.1733L12.8836 8.8159C12.8836 8.65026 12.7488 8.51601 12.5831 8.51593L11.4156 8.51592C11.25 8.51592 11.1154 8.64994 11.1153 8.8155L11.1157 18.6612L11.1178 18.6635L11.1189 20.0628C10.3444 20.0628 9.71606 19.435 9.71572 18.6606L9.71561 8.81576Z" fill="#15C674"/>
<path fill-rule="evenodd" clip-rule="evenodd" d="M3.90699 12.9704C3.90699 12.0315 4.66837 11.2696 5.60725 11.2696L6.77479 11.2696C7.71367 11.2696 8.47466 12.0314 8.47466 12.9702L8.47531 18.3622C8.47531 19.301 7.71385 20.0628 6.77505 20.0629L5.60661 20.0633C4.66786 20.0631 3.90674 19.3014 3.90674 18.3626L3.90699 12.9704ZM5.60699 12.6705C5.4413 12.6705 5.30665 12.8044 5.30665 12.9701L5.30767 18.3629C5.30782 18.5285 5.44129 18.6623 5.60688 18.6624L6.77441 18.6624C6.94005 18.6624 7.07468 18.5284 7.07475 18.3628L7.07463 12.9696C7.07438 12.8041 6.94005 12.6705 6.77452 12.6705L5.60699 12.6705Z" fill="#15C674"/>
<path d="M15.8836 5.57773C15.8836 4.63889 16.645 3.87703 17.5838 3.87695L18.7514 3.87696C19.6903 3.87696 20.4512 4.63872 20.4512 5.5776L20.4511 10.5433C20.4511 10.9299 20.138 11.2433 19.7514 11.2433C19.3652 11.2431 19.0517 10.9299 19.0515 10.5436L19.0516 5.57787C19.0516 5.41218 18.9168 5.2779 18.7511 5.2779L17.5836 5.27789C17.418 5.27796 17.2832 5.41184 17.2832 5.57746L17.2839 9.84826C17.2838 10.2347 16.9699 10.5486 16.5833 10.5486C16.1969 10.5485 15.883 10.2345 15.883 9.84799L15.8836 5.57773Z" fill="#15C674"/>
</svg>
