<svg width="24" height="24" viewBox="0 0 24 24" fill="none" xmlns="http://www.w3.org/2000/svg">
<path fill-rule="evenodd" clip-rule="evenodd" d="M9.94272 12.1559C6.3592 12.1559 5.51716 6.8704 8.05436 5.00269C8.47567 4.69255 9.28547 4.40039 9.94276 4.40039C14.6165 4.40039 14.245 12.1559 9.94272 12.1559ZM8.88432 6.13015C8.94387 6.08631 9.10832 5.99444 9.35059 5.91412C9.58832 5.83532 9.80287 5.80039 9.94276 5.80039C10.6747 5.80039 11.1164 6.08157 11.4068 6.46184C11.73 6.88515 11.9264 7.52358 11.9091 8.24463C11.8919 8.96445 11.6641 9.63027 11.3109 10.0834C10.9829 10.504 10.5456 10.7559 9.94272 10.7559C9.01321 10.7559 8.32017 10.116 8.07071 8.97952C7.80997 7.79167 8.18836 6.64246 8.88432 6.13015Z" fill="#333333"/>
<path fill-rule="evenodd" clip-rule="evenodd" d="M9.94953 12.9074C8.54774 12.9074 6.98947 13.1323 5.72395 13.866C4.41635 14.624 3.47084 15.9 3.32099 17.8447C3.26589 18.5598 3.85015 19.0999 4.50011 19.0999H15.3989C16.0489 19.0999 16.6332 18.5598 16.5781 17.8447C16.4282 15.9 15.4827 14.624 14.1751 13.866C12.9096 13.1323 11.3513 12.9074 9.94953 12.9074ZM15.1566 17.6999H4.74249C4.91025 16.3793 5.56001 15.5792 6.42608 15.0772C7.38807 14.5195 8.66345 14.3074 9.94953 14.3074C11.2356 14.3074 12.511 14.5195 13.473 15.0772C14.339 15.5792 14.9888 16.3793 15.1566 17.6999Z" fill="#333333"/>
<path d="M17.4835 19.0995H19.3285C19.9785 19.0995 20.5627 18.5593 20.5076 17.8443C20.3578 15.8995 19.4123 14.6235 18.1047 13.8655C17.1239 13.2969 15.9672 13.0339 14.8439 12.9443L16.5315 14.6173L16.5615 14.6982C16.8607 14.8009 17.143 14.9262 17.4026 15.0767C18.2686 15.5787 18.9184 16.3788 19.0862 17.6995H17.4835V19.0995Z" fill="#333333"/>
<path d="M15.335 6.46184C15.0871 6.13713 14.7288 5.88467 14.1737 5.81783L13.0013 4.53492C13.2914 4.45203 13.5947 4.40039 13.871 4.40039C18.5447 4.40039 18.1732 12.1559 13.8709 12.1559C13.5364 12.1559 13.2258 12.1098 12.9396 12.0248L13.8715 10.7559C14.4741 10.7557 14.9112 10.5039 15.2391 10.0834C15.5923 9.63027 15.8201 8.96445 15.8374 8.24463C15.8546 7.52358 15.6582 6.88515 15.335 6.46184Z" fill="#333333"/>
</svg>
