<svg width="24" height="24" viewBox="0 0 24 24" fill="none" xmlns="http://www.w3.org/2000/svg">
<path d="M4.2998 7.2C4.2998 6.8134 4.61321 6.5 4.9998 6.5H18.9998C19.3864 6.5 19.6998 6.8134 19.6998 7.2C19.6998 7.5866 19.3864 7.9 18.9998 7.9H4.9998C4.61321 7.9 4.2998 7.5866 4.2998 7.2Z" fill="#333333"/>
<path d="M4.2998 11.9998C4.2998 11.6132 4.61321 11.2998 4.9998 11.2998H18.9998C19.3864 11.2998 19.6998 11.6132 19.6998 11.9998C19.6998 12.3864 19.3864 12.6998 18.9998 12.6998H4.9998C4.61321 12.6998 4.2998 12.3864 4.2998 11.9998Z" fill="#333333"/>
<path d="M4.9998 16.1006C4.61321 16.1006 4.2998 16.414 4.2998 16.8006C4.2998 17.1872 4.61321 17.5006 4.9998 17.5006H18.9998C19.3864 17.5006 19.6998 17.1872 19.6998 16.8006C19.6998 16.414 19.3864 16.1006 18.9998 16.1006H4.9998Z" fill="#333333"/>
</svg>
