<svg width="24" height="24" viewBox="0 0 24 24" fill="none" xmlns="http://www.w3.org/2000/svg">
<path fill-rule="evenodd" clip-rule="evenodd" d="M21.84 9.90973L21.87 9.99973L21.85 9.98973C21.97 10.3197 21.99 10.6197 21.72 11.0397C21.43 11.4897 19.72 12.6597 19.33 12.7997C19.1 12.8897 18.96 12.9297 18.79 12.9297C18.71 12.9297 18.62 12.9197 18.51 12.8997C18.12 12.8497 17.7 12.6097 16.93 12.1197L16.76 12.0097C16.52 11.8597 16.22 11.6497 15.9 11.4197C15.8615 11.3925 15.8213 11.3639 15.7796 11.3343C15.042 10.8101 13.8395 9.95561 13.3 10.0597C12.91 10.1397 12.74 10.2097 12.49 10.3297C12.33 10.4097 12.15 10.4897 11.9 10.5797L11.75 10.6397L11.7417 10.6428C10.9624 10.9325 9.89708 11.3286 9.07996 11.0197C8.70996 10.8797 7.49996 10.3497 7.45996 9.46973C7.45996 9.27973 7.49996 8.78973 8.11996 8.48973C8.61996 8.23973 9.21996 7.87973 9.79996 7.52973C10.71 6.97973 11.66 6.40973 12.44 6.16973C13.3749 5.88433 14.2227 6.19941 14.9165 6.4573L14.95 6.46973C15.32 6.60973 15.67 6.73973 15.98 6.76973C16.13 6.77973 16.37 6.57973 16.6 6.37973C16.6166 6.36533 16.6333 6.35088 16.65 6.33641C16.8536 6.15983 17.0612 5.97988 17.32 5.85973C17.85 5.59973 18.34 5.42973 18.96 5.81973C19.29 6.02973 19.35 6.09973 19.74 6.57973L19.91 6.78973C20.48 7.47973 21.72 9.49973 21.84 9.90973ZM18.8242 11.5133C18.835 11.5093 18.8472 11.5048 18.86 11.4997L18.85 11.5297C19.08 11.4197 20.16 10.6697 20.49 10.3597C20.37 10.0697 19.34 8.34973 18.81 7.69973L18.64 7.48973C18.44 7.24306 18.3066 7.09973 18.24 7.05973L18.18 7.01973C18.1729 7.03387 18.1308 7.05301 18.0467 7.09129C18.0118 7.10715 17.9698 7.12629 17.92 7.14973C17.81 7.19972 17.66 7.32971 17.51 7.45971L17.4968 7.47117C17.118 7.80025 16.6013 8.24903 15.86 8.18973C15.3792 8.15127 14.9355 7.98339 14.502 7.81941C14.4847 7.81284 14.4673 7.80628 14.45 7.79973C13.85 7.56973 13.33 7.37973 12.84 7.52973C12.23 7.71973 11.36 8.23973 10.52 8.74973C10.4638 8.78342 10.4075 8.81727 10.3511 8.85118C9.95546 9.08899 9.55505 9.32968 9.16996 9.53973C9.28996 9.60973 9.41996 9.67973 9.56996 9.72972C9.89195 9.85284 10.7521 9.53649 11.1905 9.37523C11.215 9.36621 11.2382 9.35767 11.26 9.34973L11.42 9.28973C11.5635 9.23506 11.6743 9.18506 11.7747 9.13973C11.8213 9.11873 11.8656 9.09873 11.91 9.07973C11.9289 9.0713 11.948 9.06277 11.9672 9.05416C12.222 8.9402 12.5086 8.812 13.02 8.70973C13.13 8.67973 13.25 8.66973 13.37 8.66973C14.45 8.66973 15.7 9.55973 16.72 10.2997C17.01 10.5097 17.28 10.6997 17.5 10.8397L17.68 10.9497C17.701 10.9627 17.7261 10.9784 17.7545 10.996C18.0097 11.1546 18.528 11.4767 18.69 11.5397H18.78C18.7725 11.5323 18.7928 11.5248 18.8242 11.5133Z" fill="#333333"/>
<path d="M18.1898 13.9201C18.2698 13.5401 18.6399 13.3001 19.0198 13.3801L19.0399 13.3701C19.4198 13.4501 19.6598 13.8201 19.5798 14.2001C19.4098 15.0201 18.9798 15.4301 18.3898 15.7101C18.1998 16.6201 17.6198 17.2501 16.7298 17.5401C16.5198 18.0501 16.1498 18.4801 15.6698 18.7601C15.2298 19.0101 14.7298 19.1301 14.2198 19.0901C13.7098 19.7301 12.7998 20.1401 11.9598 20.1401C11.6898 20.1401 11.4198 20.0901 11.1698 20.0001C10.9998 19.9201 8.11985 18.5501 6.53985 16.8901C5.37985 15.6701 3.64985 13.1101 2.71985 11.6901C2.32985 11.0801 2.35985 10.2901 2.80985 9.72014L5.40985 6.41014C5.83985 5.87014 6.54985 5.64014 7.21985 5.82014C7.52985 5.91014 7.90985 6.00014 8.19985 6.06014C8.27439 6.07329 8.33932 6.08452 8.39801 6.09468C8.47316 6.10768 8.53808 6.11891 8.59985 6.13014C8.98985 6.18014 9.24985 6.54014 9.19985 6.92014C9.14985 7.31014 8.78985 7.57014 8.40985 7.52014C8.26985 7.50014 8.12985 7.48014 7.92985 7.44014C7.60985 7.38014 7.18985 7.27014 6.84985 7.18014C6.71985 7.15014 6.58985 7.19014 6.50985 7.29014L3.90985 10.6001C3.82985 10.6901 3.81985 10.8301 3.88985 10.9301C4.61985 12.0401 6.42985 14.7501 7.55985 15.9301C8.95985 17.4001 11.6998 18.7101 11.7298 18.7201C12.0498 18.8401 12.6198 18.6701 12.9698 18.3901L11.3498 17.3101C11.0299 17.1001 10.9498 16.6601 11.1598 16.3401C11.3698 16.0201 11.8098 15.9401 12.1298 16.1501L14.1398 17.4901C14.2198 17.5501 14.2898 17.6201 14.3398 17.7001C14.6098 17.7201 14.8298 17.6401 14.9698 17.5601C15.1298 17.4601 15.2598 17.3201 15.3598 17.1501L12.5998 15.3101C12.2799 15.1001 12.1998 14.6601 12.4098 14.3401C12.6198 14.0201 13.0598 13.9301 13.3798 14.1501L16.2799 16.0901C16.307 16.1105 16.3295 16.1354 16.3505 16.1587C16.3605 16.1698 16.3702 16.1805 16.3798 16.1901C16.7298 16.0601 16.9298 15.8101 17.0098 15.4201L13.5698 13.1301C13.2398 12.9201 13.1598 12.4801 13.3698 12.1601C13.5798 11.8301 14.0198 11.7501 14.3398 11.9601L17.9398 14.3601C18.0898 14.2501 18.1498 14.1301 18.1898 13.9201Z" fill="#333333"/>
</svg>
