<svg width="24" height="24" viewBox="0 0 24 24" fill="none" xmlns="http://www.w3.org/2000/svg">
<path fill-rule="evenodd" clip-rule="evenodd" d="M7.45165 6.95217C6.23828 8.02824 5.40654 9.64506 5.40654 11.8492V14.1644H4.00654V11.8492C4.00654 9.25867 4.9994 7.2557 6.52273 5.90473C8.0331 4.56527 10.0272 3.89876 11.9996 3.88593C13.9721 3.8731 15.9698 4.51385 17.4834 5.85032C19.0101 7.19845 19.9988 9.21554 19.9974 11.8492V14.1644H18.5974V11.8492C18.5987 9.59345 17.7651 7.96673 16.5567 6.89976C15.3351 5.82106 13.6846 5.275 12.0087 5.2859C10.3327 5.29681 8.67798 5.8646 7.45165 6.95217Z" fill="#333333"/>
<path fill-rule="evenodd" clip-rule="evenodd" d="M7 13.3998H6C5.66863 13.3998 5.4 13.6684 5.4 13.9998V17.9998C5.4 18.3312 5.66863 18.5998 6 18.5998H7C7.33137 18.5998 7.6 18.3312 7.6 17.9998V13.9998C7.6 13.6684 7.33137 13.3998 7 13.3998ZM6 11.9998C4.89543 11.9998 4 12.8952 4 13.9998V17.9998C4 19.1044 4.89543 19.9998 6 19.9998H7C8.10457 19.9998 9 19.1044 9 17.9998V13.9998C9 12.8952 8.10457 11.9998 7 11.9998H6Z" fill="#333333"/>
<path fill-rule="evenodd" clip-rule="evenodd" d="M18 13.3998H17C16.6686 13.3998 16.4 13.6684 16.4 13.9998V17.9998C16.4 18.3312 16.6686 18.5998 17 18.5998H18C18.3314 18.5998 18.6 18.3312 18.6 17.9998V13.9998C18.6 13.6684 18.3314 13.3998 18 13.3998ZM17 11.9998C15.8954 11.9998 15 12.8952 15 13.9998V17.9998C15 19.1044 15.8954 19.9998 17 19.9998H18C19.1046 19.9998 20 19.1044 20 17.9998V13.9998C20 12.8952 19.1046 11.9998 18 11.9998H17Z" fill="#333333"/>
</svg>
