<svg width="24" height="24" viewBox="0 0 24 24" fill="none" xmlns="http://www.w3.org/2000/svg">
<path fill-rule="evenodd" clip-rule="evenodd" d="M16.2535 6.70597C14.6723 6.61486 13.1161 7.49108 12.6687 8.7074C12.5667 8.98483 12.3017 9.17405 11.9999 9.17405C11.7066 9.17405 11.4464 8.99489 11.3388 8.72728C10.8405 7.48812 9.26561 6.61676 7.70637 6.70694C6.95378 6.75046 6.2582 7.01928 5.73307 7.53654C5.21164 8.05016 4.80126 8.86501 4.71829 10.1072C4.60655 11.7802 5.38894 13.4084 6.7457 14.9579C8.09937 16.504 9.96077 17.8961 11.8381 19.0726C11.9296 19.1299 12.048 19.1288 12.1416 19.0649C13.8973 17.8674 15.7645 16.4747 17.1578 14.9275C18.5576 13.373 19.3922 11.7596 19.2818 10.1072C19.1991 8.86815 18.7839 8.05387 18.255 7.53925C17.7215 7.02011 17.0146 6.74983 16.2535 6.70597ZM19.2313 6.53585C20.0494 7.33188 20.5771 8.49243 20.6787 10.0139C20.826 12.2189 19.7028 14.1934 18.1982 15.8643C16.6871 17.5423 14.7034 19.0123 12.9305 20.2215C12.3818 20.5957 11.6621 20.6145 11.0947 20.2589C9.16614 19.0503 7.17511 17.5736 5.69239 15.8802C4.21276 14.1903 3.17482 12.2084 3.3214 10.0139C3.42283 8.49547 3.9419 7.33576 4.75062 6.53915C5.55565 5.74618 6.59093 5.3691 7.62554 5.30927C9.22345 5.21686 10.9532 5.88438 11.986 7.1221C12.9964 5.87777 14.7352 5.21616 16.3341 5.30829C17.3737 5.3682 18.4179 5.74435 19.2313 6.53585Z" fill="#333333"/>
</svg>
