<svg width="24" height="24" viewBox="0 0 24 24" fill="none" xmlns="http://www.w3.org/2000/svg">
<path fill-rule="evenodd" clip-rule="evenodd" d="M11.2549 8.82086V13.6677C12.0147 13.9667 12.5522 14.7066 12.5522 15.5726C12.5522 16.7028 11.636 17.619 10.5058 17.619C9.3756 17.619 8.45938 16.7028 8.45938 15.5726C8.45938 14.7063 8.99737 13.9661 9.75769 13.6673V8.82086C9.75769 8.40742 10.0928 8.07227 10.5063 8.07227C10.9197 8.07227 11.2549 8.40742 11.2549 8.82086ZM10.4184 14.7305C10.4484 14.7275 10.4777 14.7223 10.5061 14.715C10.5345 14.7223 10.5638 14.7275 10.5938 14.7306C11.0196 14.7742 11.3522 15.1349 11.3522 15.5726C11.3522 16.04 10.9733 16.419 10.5058 16.419C10.0383 16.419 9.65938 16.04 9.65938 15.5726C9.65938 15.1347 9.9923 14.7739 10.4184 14.7305Z" fill="#333333"/>
<path fill-rule="evenodd" clip-rule="evenodd" d="M7.46004 6.91702C7.46004 5.2348 8.82375 3.87109 10.506 3.87109C12.1882 3.87109 13.5519 5.2348 13.5519 6.91702V12.492C14.3894 13.2934 14.9121 14.4238 14.9121 15.6758C14.9121 18.1093 12.9394 20.082 10.5059 20.082C8.07236 20.082 6.09961 18.1093 6.09961 15.6758C6.09961 14.4237 6.62247 13.2933 7.46004 12.4918V6.91702ZM10.506 5.07109C9.48649 5.07109 8.66004 5.89754 8.66004 6.91702V12.7592C8.66004 12.9366 8.58162 13.1048 8.44582 13.2188C7.74409 13.8079 7.29961 14.6896 7.29961 15.6758C7.29961 17.4466 8.7351 18.882 10.5059 18.882C12.2766 18.882 13.7121 17.4466 13.7121 15.6758C13.7121 14.6897 13.2677 13.808 12.5661 13.2189C12.4303 13.1049 12.3519 12.9367 12.3519 12.7594V6.91702C12.3519 5.89754 11.5254 5.07109 10.506 5.07109Z" fill="#333333"/>
<path d="M16.1565 6.20801C15.7699 6.20801 15.4565 6.52141 15.4565 6.90801C15.4565 7.29461 15.7699 7.60801 16.1565 7.60801H20.6126C20.9992 7.60801 21.3126 7.29461 21.3126 6.90801C21.3126 6.52141 20.9992 6.20801 20.6126 6.20801H16.1565Z" fill="#333333"/>
<path d="M15.4565 9.40801C15.4565 9.02141 15.7699 8.70801 16.1565 8.70801H18.7814C19.168 8.70801 19.4814 9.02141 19.4814 9.40801C19.4814 9.79461 19.168 10.108 18.7814 10.108H16.1565C15.7699 10.108 15.4565 9.79461 15.4565 9.40801Z" fill="#333333"/>
<path d="M15.4565 11.908C15.4565 11.5214 15.7699 11.208 16.1565 11.208H20.6126C20.9992 11.208 21.3126 11.5214 21.3126 11.908C21.3126 12.2946 20.9992 12.608 20.6126 12.608H16.1565C15.7699 12.608 15.4565 12.2946 15.4565 11.908Z" fill="#333333"/>
</svg>
