<svg width="24" height="24" viewBox="0 0 24 24" fill="none" xmlns="http://www.w3.org/2000/svg">
<path fill-rule="evenodd" clip-rule="evenodd" d="M13.2089 4.40706L19.6516 10.979C20.1478 11.4851 20.2078 12.1727 19.9439 12.7166C19.684 13.2524 19.1243 13.6305 18.4428 13.6305H18.2489V19.0341C18.2489 19.6251 17.7698 20.1041 17.1789 20.1041H14.2196C13.6287 20.1041 13.1496 19.625 13.1496 19.0341V15.4801H10.8504V19.0341C10.8504 19.6251 10.3714 20.1041 9.7805 20.1041H6.82113C6.23023 20.1041 5.7512 19.6251 5.7512 19.0341V13.6305H5.55732C4.87584 13.6305 4.31614 13.2524 4.0562 12.7166C3.79236 12.1727 3.85232 11.4851 4.34849 10.979L10.7912 4.40706C11.4446 3.74061 12.5556 3.74061 13.2089 4.40706ZM12.2092 5.38714C12.1047 5.28059 11.8954 5.28059 11.791 5.38714L5.34822 11.9591C5.31095 11.9971 5.30441 12.0239 5.30255 12.0366C5.30015 12.053 5.30185 12.0768 5.31581 12.1055C5.34202 12.1596 5.41301 12.2305 5.55732 12.2305H6.4512C6.8378 12.2305 7.1512 12.5439 7.1512 12.9305V18.7041H9.45042V14.7801C9.45042 14.3935 9.76382 14.0801 10.1504 14.0801H13.8496C14.2362 14.0801 14.5496 14.3935 14.5496 14.7801V18.7041H16.8489V12.9305C16.8489 12.5439 17.1623 12.2305 17.5489 12.2305H18.4428C18.5871 12.2305 18.6581 12.1596 18.6843 12.1055C18.6983 12.0768 18.7 12.053 18.6976 12.0366C18.6957 12.0239 18.6892 11.9971 18.6519 11.9591L12.2092 5.38714Z" fill="#333333"/>
</svg>
