<svg width="24" height="24" viewBox="0 0 24 24" fill="none" xmlns="http://www.w3.org/2000/svg">
<path fill-rule="evenodd" clip-rule="evenodd" d="M12.614 9.42564C12.4911 9.20168 12.2559 9.0625 12.0004 9.0625C11.7449 9.0625 11.5097 9.20168 11.3868 9.42564L10.4511 11.1301L8.54094 11.4933C8.28995 11.541 8.0849 11.7217 8.00596 11.9646C7.92701 12.2076 7.9867 12.4743 8.1617 12.6604L9.49356 14.077L9.24872 16.0059C9.21655 16.2594 9.32501 16.5102 9.53169 16.6604C9.73838 16.8105 10.0105 16.8362 10.2416 16.7273L12.0004 15.8983L13.7592 16.7273C13.9903 16.8362 14.2624 16.8105 14.4691 16.6604C14.6758 16.5102 14.7842 16.2594 14.7521 16.0059L14.5072 14.077L15.8391 12.6604C16.0141 12.4743 16.0738 12.2076 15.9948 11.9646C15.9159 11.7217 15.7108 11.541 15.4599 11.4933L13.5497 11.1301L12.614 9.42564ZM11.5196 12.093L12.0004 11.2171L12.4812 12.093C12.5818 12.2761 12.7589 12.4048 12.9641 12.4438L13.9457 12.6304L13.2613 13.3584C13.1182 13.5106 13.0505 13.7188 13.0768 13.926L13.2027 14.9173L12.2988 14.4913C12.1098 14.4022 11.891 14.4022 11.702 14.4913L10.7981 14.9173L10.924 13.926C10.9503 13.7188 10.8826 13.5106 10.7395 13.3584L10.0551 12.6304L11.0367 12.4438C11.2419 12.4048 11.419 12.2761 11.5196 12.093Z" fill="#333333"/>
<path fill-rule="evenodd" clip-rule="evenodd" d="M13.2094 4.40706C12.556 3.74061 11.4451 3.74061 10.7917 4.40706L4.34898 10.979C3.85281 11.4851 3.79284 12.1727 4.05669 12.7166C4.31662 13.2524 4.87633 13.6305 5.55781 13.6305H5.75169V19.0341C5.75169 19.625 6.23071 20.1041 6.82161 20.1041H17.1967C17.7876 20.1041 18.2666 19.6251 18.2666 19.0341V13.6305H18.4433C19.1248 13.6305 19.6845 13.2524 19.9444 12.7166C20.2083 12.1727 20.1483 11.4851 19.6521 10.979L13.2094 4.40706ZM11.7914 5.38714C11.8959 5.28059 12.1052 5.28059 12.2097 5.38714L18.6524 11.9591C18.6897 11.9971 18.6962 12.0239 18.6981 12.0366C18.7005 12.053 18.6988 12.0768 18.6848 12.1055C18.6586 12.1596 18.5876 12.2305 18.4433 12.2305H17.5666C17.18 12.2305 16.8666 12.5439 16.8666 12.9305V18.7041H7.15169V12.9305C7.15169 12.5439 6.83829 12.2305 6.45169 12.2305H5.55781C5.4135 12.2305 5.34251 12.1596 5.3163 12.1055C5.30234 12.0768 5.30064 12.053 5.30304 12.0366C5.3049 12.0239 5.31144 11.9971 5.3487 11.9591L11.7914 5.38714Z" fill="#333333"/>
</svg>
