<svg width="24" height="24" viewBox="0 0 24 24" fill="none" xmlns="http://www.w3.org/2000/svg">
<path fill-rule="evenodd" clip-rule="evenodd" d="M7.17998 5.7125C6.79338 5.7125 6.47998 5.3991 6.47998 5.0125C6.47998 4.6259 6.79338 4.3125 7.17998 4.3125H16.9983C17.3849 4.3125 17.6983 4.6259 17.6983 5.0125C17.6983 5.3991 17.3849 5.7125 16.9983 5.7125H16.8449V8.29765C16.8449 8.48256 16.7894 8.64047 16.7399 8.74973C16.6877 8.86497 16.6206 8.97272 16.5526 9.06869C16.4167 9.26022 16.2376 9.45977 16.045 9.65372C15.6569 10.0445 15.1492 10.4767 14.646 10.8737C14.1404 11.2727 13.6232 11.6488 13.208 11.9278L13.184 11.9439L13.208 11.9601C13.6232 12.2391 14.1404 12.6151 14.646 13.0142C15.1492 13.4112 15.6569 13.8434 16.045 14.2342C16.2376 14.4281 16.4167 14.6277 16.5526 14.8192C16.6206 14.9152 16.6877 15.0229 16.7399 15.1382C16.7894 15.2474 16.8449 15.4053 16.8449 15.5902V18.1754H16.9983C17.3849 18.1754 17.6983 18.4888 17.6983 18.8754C17.6983 19.262 17.3849 19.5754 16.9983 19.5754H7.17998C6.79338 19.5754 6.47998 19.262 6.47998 18.8754C6.47998 18.4888 6.79338 18.1754 7.17998 18.1754H7.24414V15.5902C7.24414 15.2638 7.39899 14.9794 7.52269 14.7914C7.6607 14.5817 7.84313 14.3703 8.0388 14.1691C8.43213 13.7645 8.94492 13.3339 9.45029 12.9459C9.94848 12.5633 10.457 12.2086 10.8692 11.9439C10.457 11.6793 9.94848 11.3246 9.45029 10.942C8.94492 10.5539 8.43213 10.1234 8.0388 9.71884C7.84313 9.51759 7.6607 9.30623 7.52269 9.09649C7.39899 8.9085 7.24414 8.62408 7.24414 8.29765V5.7125H7.17998ZM8.64414 5.7125V8.24491C8.65188 8.26075 8.66642 8.28773 8.69222 8.32694C8.76251 8.43376 8.87835 8.574 9.04257 8.7429C9.36902 9.07866 9.82248 9.46267 10.303 9.83165C10.7804 10.1983 11.2668 10.5365 11.6484 10.7805C11.8012 10.8782 11.9324 10.9576 12.0363 11.0165C12.1407 10.9539 12.2729 10.8695 12.4272 10.7658C12.8102 10.5084 13.2986 10.1536 13.7788 9.7747C14.2614 9.39386 14.72 9.00105 15.0517 8.66713C15.2189 8.49875 15.3381 8.36105 15.4106 8.25885C15.4254 8.23793 15.4366 8.22083 15.4449 8.20743V5.7125H8.64414ZM15.4449 15.6805V18.1754H8.64414V15.643C8.65188 15.6271 8.66642 15.6002 8.69222 15.561C8.76251 15.4541 8.87835 15.3139 9.04257 15.145C9.36902 14.8092 9.82248 14.4252 10.303 14.0562C10.7804 13.6896 11.2668 13.3514 11.6484 13.1074C11.8012 13.0097 11.9324 12.9303 12.0363 12.8713C12.1407 12.934 12.2729 13.0184 12.4272 13.1221C12.8102 13.3795 13.2986 13.7343 13.7788 14.1132C14.2614 14.494 14.72 14.8868 15.0517 15.2208C15.2189 15.3891 15.3381 15.5268 15.4106 15.629C15.4254 15.65 15.4366 15.6671 15.4449 15.6805Z" fill="#333333"/>
</svg>
