<svg width="24" height="24" viewBox="0 0 24 24" fill="none" xmlns="http://www.w3.org/2000/svg">
<path fill-rule="evenodd" clip-rule="evenodd" d="M9.9574 4.25848C11.5645 3.70142 13.3819 3.83487 14.8881 4.6216C16.3713 5.39616 17.6237 6.7658 18.079 8.51119C18.7585 11.1161 17.4592 13.4326 15.8086 15.103C15.7014 15.2115 15.6295 15.3075 15.5772 15.4519C15.5208 15.6077 15.4711 15.8661 15.4914 16.315C15.5445 17.238 14.8484 18.0379 13.8478 18.0379H10.1112C9.60591 18.0379 9.15974 17.8599 8.85269 17.497C8.56193 17.1534 8.46665 16.7274 8.46665 16.3516C8.46665 15.545 8.30719 15.26 8.15464 15.1097C6.87935 13.8535 5.83367 11.9527 5.83301 10.0364C5.83265 9.01041 6.00317 8.35551 6.33733 7.59102C7.01408 6.04271 8.34999 4.81569 9.9574 4.25848ZM10.4159 5.58127C11.6593 5.15027 13.0763 5.25471 14.24 5.86252C15.427 6.48241 16.3832 7.55678 16.7243 8.86458C17.222 10.7722 16.3125 12.6013 14.8127 14.119C14.6139 14.3203 14.403 14.5828 14.2608 14.9754C14.123 15.3561 14.0668 15.8119 14.0931 16.3839L14.0937 16.3942C14.0988 16.4775 14.0714 16.5348 14.0396 16.5692C14.0106 16.6004 13.9551 16.6379 13.8478 16.6379H10.1112C10.022 16.6379 9.97391 16.623 9.95295 16.6141C9.93408 16.6061 9.92663 16.5989 9.92143 16.5927C9.90782 16.5766 9.86665 16.5095 9.86665 16.3516C9.86665 15.392 9.68162 14.6487 9.13709 14.1123C8.04776 13.0393 7.23351 11.4772 7.23301 10.036C7.23273 9.21885 7.35676 8.7543 7.62014 8.15173C8.13849 6.96582 9.17286 6.01217 10.4159 5.58127Z" fill="#333333"/>
<path d="M9.81426 18.9482C9.42766 18.9482 9.11426 19.2616 9.11426 19.6482C9.11426 20.0348 9.42766 20.3482 9.81426 20.3482H14.1896C14.5762 20.3482 14.8896 20.0348 14.8896 19.6482C14.8896 19.2616 14.5762 18.9482 14.1896 18.9482H9.81426Z" fill="#333333"/>
</svg>
