<svg width="24" height="24" viewBox="0 0 24 24" fill="none" xmlns="http://www.w3.org/2000/svg">
<path fill-rule="evenodd" clip-rule="evenodd" d="M7.55713 9.66043C7.55713 8.49854 8.49903 7.55664 9.66092 7.55664C10.8228 7.55664 11.7647 8.49854 11.7647 9.66043C11.7647 10.8223 10.8228 11.7642 9.66092 11.7642C8.49903 11.7642 7.55713 10.8223 7.55713 9.66043ZM9.66092 8.95664C9.27223 8.95664 8.95713 9.27174 8.95713 9.66043C8.95713 10.0491 9.27223 10.3642 9.66092 10.3642C10.0496 10.3642 10.3647 10.0491 10.3647 9.66043C10.3647 9.27174 10.0496 8.95664 9.66092 8.95664Z" fill="#333333"/>
<path fill-rule="evenodd" clip-rule="evenodd" d="M4.74951 7.94902C4.74951 6.18171 6.1822 4.74902 7.94951 4.74902H16.0516C17.8189 4.74902 19.2516 6.18171 19.2516 7.94902V16.0511C19.2516 17.8184 17.8189 19.2511 16.0516 19.2511H7.94951C6.1822 19.2511 4.74951 17.8184 4.74951 16.0511V7.94902ZM7.94951 6.14902C6.9554 6.14902 6.14951 6.95491 6.14951 7.94902V16.0511C6.14951 16.738 6.5343 17.3351 7.1001 17.6385C7.10972 17.6268 7.11977 17.6154 7.13026 17.6042L12.7052 11.6702C13.5327 10.7894 14.9157 10.741 15.8028 11.5618L17.8516 13.4576V7.94902C17.8516 6.95491 17.0457 6.14902 16.0516 6.14902H7.94951ZM17.8516 15.3649L14.8519 12.5894C14.5294 12.2909 14.0265 12.3085 13.7256 12.6288L8.81926 17.8511H16.0516C17.0457 17.8511 17.8516 17.0452 17.8516 16.0511V15.3649Z" fill="#333333"/>
</svg>
