<svg width="24" height="24" viewBox="0 0 24 24" fill="none" xmlns="http://www.w3.org/2000/svg">
<path d="M12.0037 10.2998C12.3903 10.2998 12.7037 10.6132 12.7037 10.9998V15.9998C12.7037 16.3864 12.3903 16.6998 12.0037 16.6998C11.6171 16.6998 11.3037 16.3864 11.3037 15.9998V10.9998C11.3037 10.6132 11.6171 10.2998 12.0037 10.2998Z" fill="#333333"/>
<path d="M12.8051 8.50018C12.8051 8.05835 12.4469 7.70019 12.0051 7.7002C11.5632 7.7002 11.2051 8.05838 11.2051 8.50021L11.2051 8.5729C11.2051 9.01473 11.5633 9.3729 12.0051 9.37289C12.4469 9.37288 12.8051 9.0147 12.8051 8.57287L12.8051 8.50018Z" fill="#333333"/>
<path fill-rule="evenodd" clip-rule="evenodd" d="M3.87402 11.9998C3.87402 7.51206 7.51206 3.87402 11.9998 3.87402C16.4875 3.87402 20.1256 7.51206 20.1256 11.9998C20.1256 16.4875 16.4875 20.1256 11.9998 20.1256C7.51206 20.1256 3.87402 16.4875 3.87402 11.9998ZM11.9998 5.27402C8.28526 5.27402 5.27402 8.28526 5.27402 11.9998C5.27402 15.7144 8.28526 18.7256 11.9998 18.7256C15.7144 18.7256 18.7256 15.7144 18.7256 11.9998C18.7256 8.28526 15.7144 5.27402 11.9998 5.27402Z" fill="#333333"/>
</svg>
