<svg width="24" height="24" viewBox="0 0 24 24" fill="none" xmlns="http://www.w3.org/2000/svg">
<path fill-rule="evenodd" clip-rule="evenodd" d="M10.3779 16.2527C10.3779 15.8661 10.6913 15.5527 11.0779 15.5527H19.676C20.0626 15.5527 20.376 15.8661 20.376 16.2527C20.376 16.6393 20.0626 16.9527 19.676 16.9527H11.0779C10.6913 16.9527 10.3779 16.6393 10.3779 16.2527Z" fill="#333333"/>
<path fill-rule="evenodd" clip-rule="evenodd" d="M10.3779 11.9598C10.3779 11.5732 10.6913 11.2598 11.0779 11.2598H19.676C20.0626 11.2598 20.376 11.5732 20.376 11.9598C20.376 12.3464 20.0626 12.6598 19.676 12.6598H11.0779C10.6913 12.6598 10.3779 12.3464 10.3779 11.9598Z" fill="#333333"/>
<path fill-rule="evenodd" clip-rule="evenodd" d="M10.3779 7.69609C10.3779 7.30949 10.6913 6.99609 11.0779 6.99609H19.676C20.0626 6.99609 20.376 7.30949 20.376 7.69609C20.376 8.08269 20.0626 8.39609 19.676 8.39609H11.0779C10.6913 8.39609 10.3779 8.08269 10.3779 7.69609Z" fill="#333333"/>
<path fill-rule="evenodd" clip-rule="evenodd" d="M6.5208 18.7662C6.1342 18.7662 5.8208 18.4528 5.8208 18.0662L5.8208 6.03884C5.8208 5.65224 6.1342 5.33884 6.5208 5.33884C6.9074 5.33884 7.2208 5.65224 7.2208 6.03884L7.2208 18.0662C7.2208 18.4528 6.9074 18.7662 6.5208 18.7662Z" fill="#333333"/>
<path fill-rule="evenodd" clip-rule="evenodd" d="M6.52086 4.56543C6.70651 4.56543 6.88456 4.63918 7.01583 4.77045L8.6951 6.44972C8.96846 6.72308 8.96846 7.1663 8.6951 7.43967C8.42173 7.71303 7.97851 7.71303 7.70515 7.43967L6.52086 6.25538L5.33658 7.43967C5.06321 7.71303 4.62 7.71303 4.34663 7.43967C4.07326 7.1663 4.07326 6.72309 4.34663 6.44972L6.02588 4.77046C6.15716 4.63918 6.33521 4.56543 6.52086 4.56543Z" fill="#333333"/>
<path fill-rule="evenodd" clip-rule="evenodd" d="M6.52086 19.4342C6.70651 19.4342 6.88456 19.3604 7.01583 19.2292L8.6951 17.5499C8.96846 17.2765 8.96846 16.8333 8.6951 16.5599C8.42173 16.2866 7.97851 16.2866 7.70515 16.5599L6.52086 17.7442L5.33658 16.5599C5.06321 16.2866 4.62 16.2866 4.34663 16.5599C4.07326 16.8333 4.07326 17.2765 4.34663 17.5499L6.02588 19.2292C6.15716 19.3604 6.33521 19.4342 6.52086 19.4342Z" fill="#333333"/>
</svg>
