<svg width="25" height="24" viewBox="0 0 25 24" fill="none" xmlns="http://www.w3.org/2000/svg">
<path fill-rule="evenodd" clip-rule="evenodd" d="M12.4722 4.21387C9.53007 4.21387 7.14502 6.59891 7.14502 9.54102C7.14502 12.4831 9.53007 14.8682 12.4722 14.8682C15.4142 14.8681 17.7993 12.4831 17.7993 9.54102C17.7993 6.59896 15.4142 4.21394 12.4722 4.21387ZM16.3993 9.54102C16.3993 9.8206 16.3701 10.0934 16.3146 10.3564H14.9165C14.9552 10.0868 14.9781 9.81471 14.9849 9.54102C14.9779 9.25832 14.9537 8.97732 14.9126 8.69902H16.3088C16.3681 8.97027 16.3993 9.252 16.3993 9.54102ZM13.4935 8.69902C13.5452 8.97784 13.5756 9.25909 13.5843 9.54102C13.5759 9.81398 13.5472 10.0863 13.4983 10.3564H11.4463C11.3974 10.0863 11.3687 9.81398 11.3603 9.54102C11.369 9.25909 11.3994 8.97784 11.4511 8.69902H13.4935ZM14.5566 7.29902H15.6969C15.2445 6.64955 14.6009 6.14318 13.8476 5.86149C14.1376 6.32052 14.375 6.80194 14.5566 7.29902ZM13.8476 13.2205C14.6111 12.935 15.262 12.4187 15.7152 11.7564H14.5662C14.3834 12.2629 14.1428 12.7533 13.8476 13.2205ZM11.8904 11.7564C12.0495 12.1011 12.2437 12.4368 12.4723 12.7595C12.7009 12.4368 12.8951 12.1011 13.0542 11.7564H11.8904ZM10.3784 11.7564C10.5612 12.263 10.8019 12.7534 11.097 13.2207C10.3334 12.9352 9.68245 12.4188 9.22911 11.7564H10.3784ZM10.0281 10.3564H8.62978C8.57424 10.0934 8.54502 9.8206 8.54502 9.54102C8.54502 9.252 8.57624 8.97027 8.6355 8.69902H10.032C9.99092 8.97732 9.96668 9.25832 9.95974 9.54102C9.96646 9.81471 9.9894 10.0868 10.0281 10.3564ZM10.388 7.29902H9.24747C9.69994 6.64945 10.3437 6.14303 11.097 5.86136C10.807 6.32043 10.5696 6.8019 10.388 7.29902ZM11.9028 7.29902C12.0595 6.96364 12.2496 6.63695 12.4723 6.32254C12.695 6.63695 12.8851 6.96364 13.0418 7.29902H11.9028Z" fill="#FAA72C"/>
<path fill-rule="evenodd" clip-rule="evenodd" d="M6.80472 6.93906C6.12923 6.93906 5.58164 7.48665 5.58164 8.16214V15.6248C5.58164 16.3428 6.16367 16.9248 6.88164 16.9248H18.0622C18.7801 16.9248 19.3622 16.3428 19.3622 15.6248V8.15979C19.3622 7.4856 18.8156 6.93906 18.1414 6.93906C17.7548 6.93906 17.4414 6.62566 17.4414 6.23906C17.4414 5.85246 17.7548 5.53906 18.1414 5.53906C19.5888 5.53906 20.7622 6.7124 20.7622 8.15979V15.6248C20.7622 17.116 19.5533 18.3248 18.0622 18.3248H16.9368C16.8298 19.3268 15.9814 20.1102 14.9477 20.1102H10.179C9.11374 20.1102 8.20898 19.3538 8.00678 18.3248H6.88164C5.39047 18.3248 4.18164 17.116 4.18164 15.6248V8.16214C4.18164 6.71345 5.35603 5.53906 6.80472 5.53906C7.19131 5.53906 7.50472 5.85246 7.50472 6.23906C7.50472 6.62566 7.19131 6.93906 6.80472 6.93906ZM9.48684 18.3248C9.63122 18.5576 9.88893 18.7102 10.179 18.7102H14.9477C15.2038 18.7102 15.4221 18.5499 15.5085 18.3248H9.48684Z" fill="#FAA72C"/>
</svg>
