<svg width="24" height="24" viewBox="0 0 24 24" fill="none" xmlns="http://www.w3.org/2000/svg">
<path d="M12.7108 5.53087C12.263 5.34119 11.7601 5.34073 11.3121 5.52961C10.0812 6.04857 7.93307 6.95445 6.37045 7.61437C5.96394 7.78605 5.6998 8.18443 5.6998 8.62663V17.2005C5.6998 17.4215 5.87889 17.6005 6.09977 17.6005H6.76317C7.14977 17.6005 7.46317 17.9139 7.46317 18.3005C7.46317 18.6871 7.14977 19.0005 6.76317 19.0005H6.09977C5.10563 19.0005 4.2998 18.1946 4.2998 17.2005V8.62663C4.2998 7.62262 4.90002 6.71564 5.82578 6.32467C7.38883 5.66456 9.53732 4.75854 10.7682 4.23958C11.5648 3.90371 12.4609 3.90461 13.2569 4.24175C14.4823 4.76081 16.6172 5.66504 18.1746 6.32433C19.0996 6.71589 19.6998 7.62256 19.6998 8.62663V17.2005C19.6998 18.1946 18.894 19.0005 17.8999 19.0005H17.2717C16.8851 19.0005 16.5717 18.6871 16.5717 18.3005C16.5717 17.9139 16.8851 17.6005 17.2717 17.6005H17.8999C18.1207 17.6005 18.2998 17.4215 18.2998 17.2005V8.62663C18.2998 8.1845 18.0357 7.78579 17.6288 7.61357C16.0713 6.95421 13.9362 6.04993 12.7108 5.53087Z" fill="#333333"/>
<path fill-rule="evenodd" clip-rule="evenodd" d="M9.5 12.9004C8.94772 12.9004 8.5 13.3481 8.5 13.9004V17.9004C8.5 18.4527 8.94772 18.9004 9.5 18.9004H14.5C15.0523 18.9004 15.5 18.4527 15.5 17.9004V13.9004C15.5 13.3481 15.0523 12.9004 14.5 12.9004V11.0977C14.5 10.5454 14.0523 10.0977 13.5 10.0977H10.5C9.94772 10.0977 9.5 10.5454 9.5 11.0977V12.9004ZM9.9 14.3004V17.5004H14.1V14.3004H9.9ZM10.9 12.6977V11.4977H13.1V12.6977H10.9Z" fill="#333333"/>
</svg>
