<svg width="24" height="24" viewBox="0 0 24 24" fill="none" xmlns="http://www.w3.org/2000/svg">
<path d="M8.7998 16.2996C8.7998 15.913 9.11321 15.5996 9.4998 15.5996H14.4998C14.8864 15.5996 15.1998 15.913 15.1998 16.2996C15.1998 16.6862 14.8864 16.9996 14.4998 16.9996H9.4998C9.11321 16.9996 8.7998 16.6862 8.7998 16.2996Z" fill="#333333"/>
<path d="M12.7198 7.42906C12.6622 7.10039 12.3754 6.85059 12.0303 6.85059C11.6902 6.85059 11.4067 7.09311 11.3435 7.41464C11.0125 7.49429 10.7083 7.63597 10.455 7.84347C10.0215 8.19859 9.77201 8.72383 9.81738 9.32093C9.85969 9.87784 10.1432 10.3172 10.5648 10.6152C10.9622 10.8961 11.4649 11.0424 11.9857 11.1091C12.3852 11.1602 12.63 11.2602 12.7598 11.3588C12.8575 11.433 12.9023 11.5098 12.9023 11.6549C12.9023 11.8345 12.8443 11.9273 12.7622 11.9925C12.6594 12.074 12.4377 12.1715 12.0215 12.1715C11.5945 12.1715 11.3763 12.0715 11.2673 11.9929C11.1586 11.9145 11.0985 11.8143 11.064 11.7069C10.946 11.3387 10.5518 11.136 10.1837 11.254C9.81558 11.3721 9.61284 11.7662 9.73088 12.1343C9.83723 12.466 10.05 12.8412 10.4486 13.1286C10.6976 13.3081 10.9955 13.4362 11.343 13.5071C11.4072 13.8275 11.69 14.0688 12.0293 14.0688C12.3701 14.0688 12.654 13.8253 12.7165 13.5028C13.0585 13.43 13.3709 13.2967 13.6324 13.0892C14.0837 12.7311 14.3023 12.2156 14.3023 11.6549C14.3023 11.0599 14.0429 10.5754 13.6066 10.2439C13.2024 9.93685 12.6833 9.7869 12.1634 9.72037C11.7647 9.66937 11.5128 9.57083 11.3729 9.47197C11.2573 9.39023 11.221 9.31502 11.2134 9.21487C11.2045 9.09874 11.2421 9.00848 11.3422 8.92642C11.4567 8.83266 11.6781 8.73691 12.0215 8.73691C12.4604 8.73691 12.7433 8.91852 12.8954 9.26975C13.049 9.62451 13.4612 9.78752 13.8159 9.63386C14.1707 9.4802 14.3337 9.06806 14.1801 8.71331C13.8835 8.02863 13.3512 7.60389 12.7198 7.42906Z" fill="#333333"/>
<path fill-rule="evenodd" clip-rule="evenodd" d="M17.7292 19.2189C18.2228 18.7189 18.5 18.0406 18.5 17.3334V6.49864C18.5 5.11793 17.3831 4 16.0024 4H8.13158C7.43364 4 6.76429 4.28095 6.27078 4.78105C5.77726 5.28114 5.5 5.95942 5.5 6.66666V17.3334C5.5 18.0406 5.77726 18.7189 6.27078 19.2189C6.76429 19.719 7.43364 20 8.13158 20H15.8684C16.5663 20 17.2357 19.719 17.7292 19.2189ZM16.7328 18.2355C16.9658 17.9994 17.1 17.6753 17.1 17.3334V6.49864C17.1 5.89035 16.6092 5.4 16.0024 5.4H8.13158C7.81097 5.4 7.49969 5.52889 7.26727 5.76442C7.03422 6.00057 6.9 6.32478 6.9 6.66666V17.3334C6.9 17.6752 7.03421 17.9994 7.26722 18.2355C7.4997 18.4711 7.81102 18.6 8.13158 18.6H15.8684C16.189 18.6 16.5004 18.471 16.7328 18.2355Z" fill="#333333"/>
</svg>
