<svg width="24" height="24" viewBox="0 0 24 24" fill="none" xmlns="http://www.w3.org/2000/svg">
<path fill-rule="evenodd" clip-rule="evenodd" d="M4.30221 6.09668C4.52709 5.8443 4.89371 5.79389 5.17526 5.95703L5.29147 6.04004L18.3491 17.6592L18.4458 17.7637C18.6406 18.0244 18.6315 18.3957 18.4067 18.6484C18.1818 18.9007 17.8152 18.9522 17.5337 18.7891L17.4184 18.7061L15.9223 17.375C15.0195 18.5351 14.0916 19.518 13.4243 20.1748L13.0971 20.4912C12.5211 21.0404 11.6503 21.0889 11.0229 20.6191L10.9008 20.5186C10.0964 19.7867 8.66974 18.3893 7.43893 16.6592C6.21967 14.9453 5.12448 12.8115 5.12448 10.6221C5.12448 9.76121 5.29443 8.94141 5.60104 8.18945L4.35983 7.08496L4.26412 6.98047C4.06951 6.71976 4.07762 6.34929 4.30221 6.09668ZM6.7319 9.19629C6.59758 9.6506 6.52487 10.1288 6.52487 10.6221C6.52487 12.375 7.4182 14.2152 8.57955 15.8477C9.7293 17.4638 11.0752 18.7855 11.8422 19.4834L11.9116 19.5264C11.9842 19.5549 12.0664 19.5395 12.1313 19.4775L12.4438 19.1748C13.0967 18.532 14.0054 17.5697 14.8755 16.4424L12.9868 14.7627C12.8599 14.8918 12.6849 14.9734 12.4897 14.9736C12.1517 14.9736 11.8697 14.7337 11.8042 14.415L11.7895 14.2734V13.6963L10.3881 12.4492V14.1836C10.3881 14.5701 10.0745 14.8837 9.68795 14.8838C9.30135 14.8838 8.98776 14.5702 8.98776 14.1836V11.2031L6.7319 9.19629Z" fill="#15C674"/>
<path d="M11.9995 3.98242C15.7706 3.98251 18.8754 6.92982 18.8755 10.6221C18.8755 12.2374 18.2023 13.879 17.3305 15.3398L16.2612 14.3945C16.9878 13.125 17.4751 11.8211 17.4751 10.6221C17.475 7.75388 15.0492 5.3829 11.9995 5.38281C10.3997 5.38294 8.97214 6.03589 7.97604 7.07031L6.92428 6.1416C8.18553 4.81152 9.99901 3.98255 11.9995 3.98242Z" fill="#15C674"/>
<path fill-rule="evenodd" clip-rule="evenodd" d="M12.4897 7.87402C13.3489 7.87407 14.2275 7.96391 14.9067 8.33984C15.2615 8.53637 15.5689 8.81473 15.7817 9.19434C15.9927 9.57088 16.0883 10.006 16.0883 10.4834C16.0883 11.6716 15.216 12.2813 14.5717 12.5586C14.4804 12.5979 14.3888 12.6306 14.3003 12.6611L11.7895 10.4414V8.57422C11.7896 8.18771 12.1032 7.8741 12.4897 7.87402ZM13.1899 11.4902C13.1951 11.4896 13.2015 11.489 13.2075 11.4883C13.2544 11.4822 13.3248 11.4717 13.4096 11.4551C13.5835 11.421 13.806 11.3641 14.019 11.2725C14.4669 11.0796 14.688 10.8331 14.688 10.4834C14.6879 10.1924 14.6303 10.0043 14.56 9.87891C14.4915 9.75668 14.3877 9.65292 14.228 9.56445C13.988 9.43172 13.6441 9.34537 13.1899 9.30371C13.1898 10.002 13.1899 10.7705 13.1899 11.4902Z" fill="#15C674"/>
<path d="M9.68795 7.87402C10.0745 7.87411 10.3881 8.18767 10.3881 8.57422V9.20312L9.15963 8.11719C9.28804 7.96894 9.47651 7.87402 9.68795 7.87402Z" fill="#15C674"/>
</svg>
