<svg width="24" height="24" viewBox="0 0 24 24" fill="none" xmlns="http://www.w3.org/2000/svg">
<path d="M17.4751 10.6221C17.4751 7.75383 15.0493 5.38281 11.9995 5.38281C8.9499 5.38305 6.52492 7.75398 6.5249 10.6221C6.5249 12.375 7.41823 14.2152 8.57959 15.8477C9.72935 17.4638 11.0752 18.7855 11.8423 19.4834L11.9116 19.5264C11.9842 19.555 12.0664 19.5395 12.1313 19.4775L12.4438 19.1748C13.2313 18.3995 14.3952 17.1626 15.4087 15.7275C16.5828 14.0651 17.4751 12.2467 17.4751 10.6221ZM18.8755 10.6221C18.8755 12.6957 17.7681 14.8135 16.5522 16.5352C15.4743 18.0614 14.2479 19.3642 13.4243 20.1748L13.0972 20.4912C12.5211 21.0404 11.6503 21.089 11.0229 20.6191L10.9009 20.5186C10.0965 19.7867 8.66979 18.3893 7.43896 16.6592C6.21971 14.9453 5.12451 12.8115 5.12451 10.6221C5.12453 6.92992 8.22856 3.98266 11.9995 3.98242C15.7707 3.98242 18.8755 6.92976 18.8755 10.6221Z" fill="#15C674"/>
<path d="M8.98794 14.184V8.57458C8.98794 8.18798 9.30154 7.87438 9.68814 7.87438C10.0747 7.87438 10.3883 8.18798 10.3883 8.57458V14.184C10.3883 14.5706 10.0747 14.8841 9.68814 14.8841C9.30154 14.8841 8.98794 14.5706 8.98794 14.184Z" fill="#15C674"/>
<path d="M14.6877 10.4838C14.6876 10.1925 14.63 10.0047 14.5597 9.87927C14.4911 9.75691 14.3876 9.65334 14.2277 9.56481C13.9876 9.43202 13.6441 9.34571 13.1896 9.30407C13.1895 10.0023 13.1896 10.7709 13.1896 11.4906C13.1949 11.4899 13.201 11.4894 13.2072 11.4886C13.2541 11.4826 13.3241 11.4721 13.4093 11.4554C13.5833 11.4214 13.8054 11.3646 14.0187 11.2728C14.467 11.0799 14.6877 10.8336 14.6877 10.4838ZM16.088 10.4838C16.088 11.6723 15.2158 12.2818 14.5714 12.559C14.2384 12.7022 13.9136 12.7834 13.6779 12.8295C13.5585 12.8528 13.4575 12.868 13.3849 12.8773C13.3489 12.8819 13.3196 12.8859 13.298 12.8881C13.2871 12.8892 13.2775 12.8894 13.2707 12.89C13.2674 12.8903 13.2642 12.8908 13.2619 12.891H13.257L13.1896 12.889V14.2738L13.175 14.4144C13.1098 14.7336 12.8278 14.974 12.4894 14.974C12.1514 14.9739 11.8693 14.7341 11.8039 14.4154L11.7892 14.2738V8.57458C11.7893 8.18806 12.1029 7.87446 12.4894 7.87438C13.3488 7.87438 14.227 7.96417 14.9064 8.3402C15.2614 8.53675 15.5685 8.81492 15.7814 9.19469C15.9925 9.5713 16.088 10.0063 16.088 10.4838Z" fill="#15C674"/>
</svg>
