<svg width="24" height="24" viewBox="0 0 24 24" fill="none" xmlns="http://www.w3.org/2000/svg">
<path fill-rule="evenodd" clip-rule="evenodd" d="M9.40264 11.9883C9.01604 11.9883 8.70264 12.3017 8.70264 12.6883V13.283C8.70264 14.0737 8.96663 14.8527 9.56188 15.4339C10.1587 16.0165 11.0151 16.3291 12.0647 16.3291H19.4026C19.7892 16.3291 20.1026 16.0157 20.1026 15.6291C20.1026 15.2425 19.7892 14.9291 19.4026 14.9291H12.0647C11.2935 14.9291 10.8189 14.7045 10.5399 14.4321C10.2593 14.1582 10.1026 13.7642 10.1026 13.283V12.6883C10.1026 12.3017 9.78924 11.9883 9.40264 11.9883Z" fill="#333333"/>
<path fill-rule="evenodd" clip-rule="evenodd" d="M16.3686 12.6244C16.0966 12.8991 16.0988 13.3424 16.3735 13.6144L18.9101 16.1263C19.1848 16.3983 19.628 16.3962 19.9 16.1215C20.1721 15.8468 20.1699 15.4036 19.8952 15.1315L17.3586 12.6196C17.0839 12.3476 16.6407 12.3497 16.3686 12.6244Z" fill="#333333"/>
<path fill-rule="evenodd" clip-rule="evenodd" d="M19.9 15.1362C19.628 14.8615 19.1848 14.8593 18.9101 15.1313L16.3735 17.6433C16.0988 17.9153 16.0966 18.3585 16.3686 18.6332C16.6407 18.9079 17.0839 18.9101 17.3586 18.638L19.8952 16.1261C20.1699 15.8541 20.1721 15.4109 19.9 15.1362Z" fill="#333333"/>
<path fill-rule="evenodd" clip-rule="evenodd" d="M8.7998 9.3416C8.7998 8.955 9.11321 8.6416 9.4998 8.6416H14.4998C14.8864 8.6416 15.1998 8.955 15.1998 9.3416C15.1998 9.7282 14.8864 10.0416 14.4998 10.0416H9.4998C9.11321 10.0416 8.7998 9.7282 8.7998 9.3416Z" fill="#333333"/>
<path fill-rule="evenodd" clip-rule="evenodd" d="M5.36768 6.53008C5.36768 5.03891 6.57651 3.83008 8.06768 3.83008H15.9432C17.4343 3.83008 18.6432 5.03891 18.6432 6.53008V10.6727C18.6432 11.0593 18.3298 11.3727 17.9432 11.3727C17.5566 11.3727 17.2432 11.0593 17.2432 10.6727V6.53008C17.2432 5.81211 16.6611 5.23008 15.9432 5.23008H8.06768C7.34971 5.23008 6.76768 5.81211 6.76768 6.53008V17.4744C6.76768 18.1924 7.3497 18.7744 8.06767 18.7744H13.7969C14.1835 18.7744 14.4969 19.0878 14.4969 19.4744C14.4969 19.861 14.1835 20.1744 13.7969 20.1744H8.06767C6.5765 20.1744 5.36768 18.9656 5.36768 17.4744V6.53008Z" fill="#333333"/>
</svg>
