<svg width="24" height="24" viewBox="0 0 24 24" fill="none" xmlns="http://www.w3.org/2000/svg">
<path fill-rule="evenodd" clip-rule="evenodd" d="M9.2998 5.7C9.2998 5.3134 9.61321 5 9.9998 5H16.9998C17.3864 5 17.6998 5.3134 17.6998 5.7C17.6998 6.0866 17.3864 6.4 16.9998 6.4H9.9998C9.61321 6.4 9.2998 6.0866 9.2998 5.7Z" fill="#333333"/>
<path fill-rule="evenodd" clip-rule="evenodd" d="M6.2998 18.2996C6.2998 17.913 6.61321 17.5996 6.9998 17.5996H13.9998C14.3864 17.5996 14.6998 17.913 14.6998 18.2996C14.6998 18.6862 14.3864 18.9996 13.9998 18.9996H6.9998C6.61321 18.9996 6.2998 18.6862 6.2998 18.2996Z" fill="#333333"/>
<path fill-rule="evenodd" clip-rule="evenodd" d="M13.6696 5.3209C14.0446 5.41467 14.2727 5.79472 14.1789 6.16978L11.1789 18.1698C11.0851 18.5448 10.7051 18.7729 10.33 18.6791C9.95497 18.5853 9.72694 18.2053 9.82071 17.8302L12.8207 5.83023C12.9145 5.45517 13.2945 5.22714 13.6696 5.3209Z" fill="#333333"/>
</svg>
