<svg width="24" height="24" viewBox="0 0 24 24" fill="none" xmlns="http://www.w3.org/2000/svg">
<path fill-rule="evenodd" clip-rule="evenodd" d="M4.94629 8.04727C4.94629 6.33518 6.33421 4.94727 8.04629 4.94727H15.9523C17.6644 4.94727 19.0523 6.33518 19.0523 8.04727V15.9533C19.0523 17.6654 17.6644 19.0533 15.9523 19.0533H8.04629C6.33421 19.0533 4.94629 17.6654 4.94629 15.9533V8.04727ZM8.04629 6.34727C7.1074 6.34727 6.34629 7.10838 6.34629 8.04727V15.9533C6.34629 16.8922 7.1074 17.6533 8.04629 17.6533H15.9523C16.8912 17.6533 17.6523 16.8922 17.6523 15.9533V8.04727C17.6523 7.10838 16.8912 6.34727 15.9523 6.34727H8.04629Z" fill="#333333"/>
<path fill-rule="evenodd" clip-rule="evenodd" d="M8.70586 7.53613C9.09246 7.53613 9.40586 7.84953 9.40586 8.23613V13.185C9.40586 13.5716 9.09246 13.885 8.70586 13.885C8.31926 13.885 8.00586 13.5716 8.00586 13.185V8.23613C8.00586 7.84953 8.31926 7.53613 8.70586 7.53613Z" fill="#333333"/>
<path fill-rule="evenodd" clip-rule="evenodd" d="M11.9998 7.53613C12.3864 7.53613 12.6998 7.84953 12.6998 8.23613V11.5354C12.6998 11.922 12.3864 12.2354 11.9998 12.2354C11.6132 12.2354 11.2998 11.922 11.2998 11.5354V8.23613C11.2998 7.84953 11.6132 7.53613 11.9998 7.53613Z" fill="#333333"/>
<path fill-rule="evenodd" clip-rule="evenodd" d="M15.2928 7.53613C15.6794 7.53613 15.9928 7.84953 15.9928 8.23613V14.4222C15.9928 14.8088 15.6794 15.1222 15.2928 15.1222C14.9062 15.1222 14.5928 14.8088 14.5928 14.4222V8.23613C14.5928 7.84953 14.9062 7.53613 15.2928 7.53613Z" fill="#333333"/>
</svg>
