<svg width="24" height="24" viewBox="0 0 24 24" fill="none" xmlns="http://www.w3.org/2000/svg">
<path fill-rule="evenodd" clip-rule="evenodd" d="M11.6775 4.5057C12.765 3.82339 14.052 3.53036 15.3277 3.67456C16.6035 3.81875 17.7926 4.39163 18.7004 5.29948C19.6083 6.20733 20.1812 7.3964 20.3254 8.67217C20.4696 9.94794 20.1765 11.2349 19.4942 12.3225C18.8119 13.41 17.7807 14.2339 16.5693 14.6592C15.4993 15.0348 14.3447 15.08 13.2542 14.7943L12.4803 15.5682C12.349 15.6995 12.171 15.7732 11.9853 15.7732H11.156V17.3672C11.156 17.7538 10.8426 18.0672 10.456 18.0672H8.862V19.6612C8.862 20.0478 8.5486 20.3612 8.162 20.3612H5.10334C4.71487 20.3612 4.33674 20.2287 4.05398 19.9459C3.77122 19.6632 3.63867 19.2851 3.63867 18.8966V16.6026C3.63867 16.4169 3.71242 16.2389 3.8437 16.1076L9.20559 10.7457C8.91996 9.65524 8.96507 8.50061 9.34074 7.43061C9.76605 6.21921 10.5899 5.18801 11.6775 4.5057ZM15.1705 5.0657C14.2097 4.9571 13.2405 5.17778 12.4215 5.69163C11.6024 6.20548 10.982 6.98208 10.6617 7.89439C10.3414 8.80669 10.3402 9.80069 10.6582 10.7138C10.7466 10.9674 10.6821 11.2491 10.4922 11.439L5.03867 16.8925V18.8966C5.03867 18.9273 5.04289 18.9457 5.04559 18.9543C5.05423 18.957 5.07262 18.9612 5.10334 18.9612H7.462V17.3672C7.462 16.9806 7.7754 16.6672 8.162 16.6672H9.756V15.0732C9.756 14.6866 10.0694 14.3732 10.456 14.3732H11.6954L12.5609 13.5077C12.7508 13.3179 13.0325 13.2533 13.2861 13.3417C14.1992 13.6597 15.1932 13.6585 16.1055 13.3382C17.0178 13.0179 17.7944 12.3975 18.3083 11.5784C18.8221 10.7594 19.0428 9.79019 18.9342 8.8294C18.8256 7.86862 18.3942 6.97313 17.7105 6.28943C17.0268 5.60573 16.1313 5.17429 15.1705 5.0657Z" fill="#333333"/>
<path fill-rule="evenodd" clip-rule="evenodd" d="M17.1251 8.44095C17.1251 9.3058 16.424 10.0069 15.5591 10.0069C14.6943 10.0069 13.9932 9.3058 13.9932 8.44095C13.9932 7.5761 14.6943 6.875 15.5591 6.875C16.424 6.875 17.1251 7.5761 17.1251 8.44095Z" fill="#333333"/>
</svg>
