<svg width="24" height="24" viewBox="0 0 24 24" fill="none" xmlns="http://www.w3.org/2000/svg">
<path d="M14.2695 14.6631C14.7113 14.6631 15.0693 15.0211 15.0693 15.4629C15.0693 15.9047 14.7113 16.2627 14.2695 16.2627H9.73047C9.28864 16.2627 8.93066 15.9047 8.93066 15.4629C8.93066 15.0211 9.28864 14.6631 9.73047 14.6631H14.2695Z" fill="#15C674"/>
<path d="M8.46289 11.6611C8.90472 11.6611 9.26367 12.0191 9.26367 12.4609C9.26367 12.9028 8.90472 13.2607 8.46289 13.2607H7.71191C7.27009 13.2607 6.91211 12.9028 6.91211 12.4609C6.91211 12.0191 7.27009 11.6611 7.71191 11.6611H8.46289Z" fill="#15C674"/>
<path d="M12.375 11.6611C12.8168 11.6611 13.1758 12.0191 13.1758 12.4609C13.1758 12.9028 12.8168 13.2607 12.375 13.2607H11.624C11.1823 13.2607 10.8242 12.9027 10.8242 12.4609C10.8242 12.0192 11.1823 11.6612 11.624 11.6611H12.375Z" fill="#15C674"/>
<path d="M16.2871 11.6611C16.7289 11.6611 17.0879 12.0191 17.0879 12.4609C17.0879 12.9028 16.7289 13.2607 16.2871 13.2607H15.5361C15.0944 13.2606 14.7363 12.9027 14.7363 12.4609C14.7363 12.0192 15.0944 11.6613 15.5361 11.6611H16.2871Z" fill="#15C674"/>
<path d="M8.46289 8.39746C8.90472 8.39746 9.26367 8.75544 9.26367 9.19727C9.26367 9.63909 8.90472 9.99707 8.46289 9.99707H7.71191C7.27009 9.99707 6.91211 9.63909 6.91211 9.19727C6.91211 8.75544 7.27009 8.39747 7.71191 8.39746H8.46289Z" fill="#15C674"/>
<path d="M12.375 8.39746C12.8168 8.39746 13.1758 8.75544 13.1758 9.19727C13.1758 9.63909 12.8168 9.99707 12.375 9.99707H11.624C11.1823 9.997 10.8242 9.63905 10.8242 9.19727C10.8242 8.75548 11.1823 8.39753 11.624 8.39746H12.375Z" fill="#15C674"/>
<path d="M16.2871 8.39746C16.7289 8.39746 17.0879 8.75544 17.0879 9.19727C17.0879 9.63909 16.7289 9.99707 16.2871 9.99707H15.5361C15.0944 9.99693 14.7363 9.63901 14.7363 9.19727C14.7363 8.75552 15.0944 8.3976 15.5361 8.39746H16.2871Z" fill="#15C674"/>
<path fill-rule="evenodd" clip-rule="evenodd" d="M17.2002 4.89941C18.8016 4.89968 20.1006 6.19834 20.1006 7.7998V16.1992C20.1006 17.8007 18.8016 19.0993 17.2002 19.0996H6.80078C5.19916 19.0996 3.89941 17.8008 3.89941 16.1992V7.7998C3.89941 6.19818 5.19915 4.89941 6.80078 4.89941H17.2002ZM6.80078 6.2998C5.97235 6.2998 5.30078 6.97138 5.30078 7.7998V16.1992C5.30078 17.0276 5.97235 17.6992 6.80078 17.6992H17.2002C18.0284 17.699 18.7002 17.0275 18.7002 16.1992V7.7998C18.7002 6.97154 18.0284 6.30007 17.2002 6.2998H6.80078Z" fill="#15C674"/>
</svg>
