<svg width="24" height="24" viewBox="0 0 24 24" fill="none" xmlns="http://www.w3.org/2000/svg">
<path d="M8.2998 8.40215C8.2998 8.01555 8.61321 7.70215 8.9998 7.70215H14.9998C15.3864 7.70215 15.6998 8.01555 15.6998 8.40215C15.6998 8.78875 15.3864 9.10215 14.9998 9.10215H8.9998C8.61321 9.10215 8.2998 8.78875 8.2998 8.40215Z" fill="#333333"/>
<path d="M8.9998 10.7021C8.61321 10.7021 8.2998 11.0155 8.2998 11.4021C8.2998 11.7887 8.61321 12.1021 8.9998 12.1021H14.9998C15.3864 12.1021 15.6998 11.7887 15.6998 11.4021C15.6998 11.0155 15.3864 10.7021 14.9998 10.7021H8.9998Z" fill="#333333"/>
<path fill-rule="evenodd" clip-rule="evenodd" d="M16.11 16.6007L18.5227 16.3664C18.6369 16.2382 18.7 16.0725 18.7 15.9007L18.6998 6.09731C18.6998 4.88252 17.7153 3.89827 16.5008 3.8979C14.2192 3.8972 11.9376 3.89748 9.65619 3.89776L7.49974 3.89799C6.28492 3.89809 5.29979 4.88261 5.2998 6.09781L5.3 17.6507C5.3 18.3167 5.5839 18.9447 6.07156 19.3999C6.55758 19.8535 7.20706 20.1007 7.875 20.1007H17.595C17.9772 20.1007 18.2602 19.871 18.3972 19.617C18.5325 19.3664 18.5655 19.024 18.3915 18.716C18.2245 18.4202 18.0464 17.9974 18.0464 17.586C18.0464 17.2613 18.1585 16.9566 18.2885 16.7168C18.352 16.5998 18.4152 16.5067 18.4609 16.4449C18.4836 16.4142 18.5014 16.3919 18.5121 16.3789L18.5227 16.3664L18.5217 16.3674L16.1182 16.6007H16.11ZM7.49985 5.29799C7.05781 5.29803 6.6998 5.65614 6.6998 6.0978L6.69997 15.4704C7.06237 15.2938 7.46521 15.2007 7.875 15.2007H17.3L17.2998 6.09733C17.2998 5.65587 16.9421 5.29804 16.5004 5.2979C14.2195 5.2972 11.9386 5.29748 9.65762 5.29776L7.49985 5.29799ZM16.8152 16.6007C16.7175 16.8869 16.6464 17.2202 16.6464 17.586C16.6464 17.9939 16.7351 18.3758 16.8501 18.7007H7.875C7.54839 18.7007 7.24404 18.5792 7.0268 18.3764C6.8112 18.1752 6.7 17.913 6.7 17.6507C6.7 17.605 6.70339 17.5593 6.71011 17.5139L16.1182 16.6007H16.8152ZM6.71011 17.5139C6.74197 17.2989 6.84882 17.0911 7.0268 16.925C7.24404 16.7223 7.54839 16.6007 7.875 16.6007H16.11L6.71011 17.5139Z" fill="#333333"/>
</svg>
