<svg width="24" height="24" viewBox="0 0 24 24" fill="none" xmlns="http://www.w3.org/2000/svg">
<path fill-rule="evenodd" clip-rule="evenodd" d="M11.9998 4.2998C11.6222 4.2998 11.2542 4.40631 10.9333 4.60442L10.9322 4.60509L4.98953 8.25079C4.77315 8.38254 4.59901 8.56955 4.48007 8.78811C4.36094 9.00703 4.2998 9.25244 4.2998 9.4998C4.2998 9.74717 4.36094 9.99258 4.48007 10.2115C4.59902 10.4301 4.77318 10.6171 4.98959 10.7489L4.99128 10.7499L10.9322 14.3945L10.9332 14.3951C11.2541 14.5933 11.6221 14.6998 11.9998 14.6998C12.3775 14.6998 12.7454 14.5933 13.0663 14.3952L13.0674 14.3945L19.0083 10.7499L19.01 10.7489C19.2264 10.6171 19.4006 10.4301 19.5195 10.2115C19.6387 9.99259 19.6998 9.74717 19.6998 9.4998C19.6998 9.25244 19.6387 9.00702 19.5195 8.78811C19.4006 8.56953 19.2264 8.3825 19.01 8.25075L19.0083 8.24973L13.0674 4.60509L13.0662 4.60437C12.7454 4.40629 12.3774 4.2998 11.9998 4.2998ZM11.6684 5.79591C11.7726 5.7315 11.8867 5.6998 11.9998 5.6998C12.1129 5.6998 12.227 5.7315 12.3312 5.79592L18.2791 9.44484L18.2817 9.44638C18.2817 9.44638 18.2857 9.44975 18.2898 9.45731C18.2953 9.46735 18.2998 9.48218 18.2998 9.4998C18.2998 9.51743 18.2953 9.53226 18.2898 9.5423C18.2857 9.54986 18.2817 9.55324 18.2817 9.55324L18.2791 9.55477L12.3333 13.2024L12.3312 13.2037C12.227 13.2681 12.1129 13.2998 11.9998 13.2998C11.8867 13.2998 11.7726 13.2681 11.6684 13.2037L5.72047 9.55477L5.71795 9.55324C5.71795 9.55324 5.71389 9.54986 5.70978 9.5423C5.70432 9.53226 5.6998 9.51743 5.6998 9.4998C5.6998 9.48218 5.70432 9.46735 5.70978 9.45731C5.71423 9.44912 5.71802 9.44632 5.71802 9.44632L5.72047 9.44484L11.6663 5.79717L11.6684 5.79591Z" fill="#333333"/>
<path d="M6.36585 14.0487C6.69538 13.8466 6.79863 13.4155 6.59647 13.086C6.39431 12.7565 5.96329 12.6532 5.63376 12.8554L4.98958 13.2506C4.77317 13.3823 4.59902 13.5694 4.48007 13.7879C4.36094 14.0068 4.2998 14.2523 4.2998 14.4996C4.2998 14.747 4.36094 14.9924 4.48007 15.2113C4.59901 15.4299 4.77315 15.6169 4.98954 15.7486L10.9322 19.3943L10.9332 19.395C11.2542 19.5931 11.6221 19.6996 11.9998 19.6996C12.3774 19.6996 12.7453 19.5931 13.0662 19.3951L13.0674 19.3943L19.0083 15.7497L19.01 15.7487C19.2264 15.6169 19.4006 15.4299 19.5195 15.2113C19.6387 14.9924 19.6998 14.747 19.6998 14.4996C19.6998 14.2523 19.6387 14.0068 19.5195 13.7879C19.4006 13.5693 19.2264 13.3823 19.01 13.2506L19.0083 13.2495L18.3658 12.8554C18.0363 12.6532 17.6053 12.7565 17.4031 13.086C17.201 13.4155 17.3042 13.8466 17.6338 14.0487L18.2791 14.4447L18.2817 14.4462C18.2817 14.4462 18.2857 14.4496 18.2898 14.4571C18.2953 14.4672 18.2998 14.482 18.2998 14.4996C18.2998 14.5172 18.2953 14.5321 18.2898 14.5421C18.2854 14.5503 18.2816 14.5531 18.2816 14.5531L18.2791 14.5546L12.3333 18.2023L12.3312 18.2035C12.227 18.2679 12.1129 18.2996 11.9998 18.2996C11.8867 18.2996 11.7726 18.2679 11.6684 18.2035L5.72047 14.5546L5.71794 14.553C5.71794 14.553 5.71389 14.5497 5.70978 14.5421C5.70432 14.5321 5.6998 14.5172 5.6998 14.4996C5.6998 14.482 5.70432 14.4672 5.70978 14.4571C5.71425 14.4489 5.71757 14.4464 5.71757 14.4464L6.36585 14.0487Z" fill="#333333"/>
</svg>
