<svg width="24" height="24" viewBox="0 0 24 24" fill="none" xmlns="http://www.w3.org/2000/svg">
<path fill-rule="evenodd" clip-rule="evenodd" d="M14.3011 7.03244C13.5151 6.84687 12.6894 6.93215 11.9579 7.27446C11.2263 7.61677 10.6318 8.19605 10.2706 8.91844C9.90941 9.64084 9.8027 10.464 9.96778 11.2546C10.1329 12.0453 10.56 12.757 11.1801 13.2745C11.8002 13.792 12.5769 14.085 13.3843 14.106C13.8953 14.1192 14.3997 14.023 14.865 13.8278C15.196 13.6889 15.3517 13.3079 15.2128 12.9769C15.0738 12.6459 14.6929 12.4902 14.3619 12.6291C14.0653 12.7536 13.7438 12.8149 13.418 12.8064C12.9034 12.793 12.4083 12.6063 12.0131 12.2764C11.6179 11.9465 11.3456 11.4929 11.2403 10.9889C11.1351 10.485 11.2031 9.96028 11.4334 9.49982C11.6636 9.03936 12.0426 8.67012 12.5088 8.45193C12.9751 8.23374 13.5014 8.17938 14.0025 8.29766C14.4386 8.40062 14.8635 8.62413 15.1751 8.97447C15.4785 9.31563 15.7046 9.80967 15.7046 10.5219C15.7046 10.658 15.5758 10.8208 15.3734 10.8208C15.2291 10.8208 15.1446 10.7743 15.0946 10.7356C15.1056 10.6591 15.1113 10.5809 15.1113 10.5014C15.1113 9.599 14.3808 8.86523 13.477 8.86523C12.5732 8.86523 11.8428 9.599 11.8428 10.5014C11.8428 11.4039 12.5732 12.1376 13.477 12.1376C13.8249 12.1376 14.1471 12.0289 14.4118 11.8437C14.6473 11.9966 14.9672 12.1208 15.3734 12.1208C16.3053 12.1208 17.0046 11.3643 17.0046 10.5219C17.0046 9.50826 16.6727 8.70215 16.1464 8.11049C15.6283 7.52801 14.9518 7.18603 14.3011 7.03244ZM13.1428 10.5014C13.1428 10.3145 13.2936 10.1652 13.477 10.1652C13.6604 10.1652 13.8113 10.3145 13.8113 10.5014C13.8113 10.6883 13.6604 10.8376 13.477 10.8376C13.2936 10.8376 13.1428 10.6883 13.1428 10.5014Z" fill="#333333"/>
<path fill-rule="evenodd" clip-rule="evenodd" d="M6.53431 8.21992C6.72269 8.15747 6.94953 8.1084 7.17896 8.1084C7.87736 8.1084 8.43367 8.40937 8.79424 8.88158C9.13838 9.33226 9.27456 9.89617 9.26204 10.4188C9.24951 10.942 9.08675 11.4922 8.74702 11.928C8.39466 12.38 7.85733 12.6956 7.17895 12.6956C6.01148 12.6956 5.35012 11.8118 5.16394 10.9637C4.9834 10.1412 5.18026 9.08674 5.98793 8.49219C6.15005 8.37284 6.3482 8.28161 6.53431 8.21992ZM6.82112 9.61745L6.81789 9.61965C6.58287 9.79265 6.4314 10.208 6.53138 10.6635C6.62573 11.0933 6.87373 11.2956 7.17895 11.2956C7.38461 11.2956 7.52938 11.2128 7.64289 11.0672C7.76903 10.9054 7.85589 10.6588 7.86245 10.3852C7.86901 10.111 7.79373 9.87814 7.68154 9.73122C7.58579 9.60583 7.44091 9.5084 7.17896 9.5084C7.13828 9.5084 7.06366 9.51936 6.97483 9.54881C6.93347 9.56252 6.89635 9.57785 6.86633 9.59251C6.85153 9.59973 6.83976 9.60616 6.831 9.61133C6.82669 9.61388 6.82341 9.61595 6.82112 9.61745Z" fill="#333333"/>
<path fill-rule="evenodd" clip-rule="evenodd" d="M2.79639 7.63164C2.79639 6.14047 4.00522 4.93164 5.49639 4.93164H16.2601C17.7512 4.93164 18.9601 6.14047 18.9601 7.63164V14.5389C18.9601 16.03 17.7512 17.2389 16.2601 17.2389H5.49639C4.00522 17.2389 2.79639 16.03 2.79639 14.5389V7.63164ZM5.49639 6.33164C4.77842 6.33164 4.19639 6.91367 4.19639 7.63164V13.7938C5.05661 13.0928 6.23922 12.918 7.18217 12.918C7.97895 12.918 8.88883 13.0401 9.6578 13.4558C10.4619 13.8905 11.081 14.6334 11.242 15.759C11.2458 15.7859 11.2487 15.8125 11.2508 15.8389H16.2601C16.978 15.8389 17.5601 15.2568 17.5601 14.5389V7.63164C17.5601 6.91367 16.978 6.33164 16.2601 6.33164H5.49639ZM4.73666 15.2768C5.13563 14.6081 6.05533 14.318 7.18217 14.318C7.86448 14.318 8.51092 14.4273 8.99204 14.6874C9.36477 14.8889 9.65281 15.1853 9.79183 15.6575H5.28129C5.05843 15.6575 4.86235 15.555 4.76645 15.4449C4.72261 15.3946 4.71413 15.3602 4.71265 15.3492C4.71194 15.3445 4.70875 15.3236 4.73666 15.2768Z" fill="#333333"/>
<path d="M8.56992 19.2009C7.62405 19.2009 6.79178 18.7145 6.30957 17.9783H17.9159C19.0204 17.9783 19.9159 17.0828 19.9159 15.9783V8.03613C20.6326 8.52157 21.1036 9.34235 21.1036 10.2731V16.2009C21.1036 17.8578 19.7604 19.2009 18.1036 19.2009H8.56992Z" fill="#333333"/>
</svg>
