<svg width="24" height="24" viewBox="0 0 24 24" fill="none" xmlns="http://www.w3.org/2000/svg">
<path d="M10.0368 6.47282C10.298 6.18783 10.2788 5.74504 9.99381 5.4838C9.70882 5.22257 9.26603 5.24182 9.00479 5.5268L3.50479 11.5268C3.25947 11.7944 3.25947 12.2052 3.50479 12.4728L9.00479 18.4728C9.26603 18.7578 9.70882 18.7771 9.99381 18.5158C10.2788 18.2546 10.298 17.8118 10.0368 17.5268L4.9704 11.9998L10.0368 6.47282Z" fill="#333333"/>
<path d="M15.0427 5.5268C14.7814 5.24182 14.3386 5.22257 14.0537 5.4838C13.7687 5.74504 13.7494 6.18783 14.0107 6.47282L19.0771 11.9998L14.0107 17.5268C13.7494 17.8118 13.7687 18.2546 14.0537 18.5158C14.3386 18.7771 14.7814 18.7578 15.0427 18.4728L20.5427 12.4728C20.788 12.2052 20.788 11.7944 20.5427 11.5268L15.0427 5.5268Z" fill="#333333"/>
</svg>
