<svg width="24" height="24" viewBox="0 0 24 24" fill="none" xmlns="http://www.w3.org/2000/svg">
<path fill-rule="evenodd" clip-rule="evenodd" d="M13.8673 15.0191L15.1858 18.4677C15.3238 18.8289 15.7285 19.0097 16.0896 18.8716C16.4507 18.7335 16.6315 18.3289 16.4934 17.9678L11.8431 5.80466C11.45 4.77645 9.99554 4.77592 9.60168 5.80384L4.94106 17.9673C4.80274 18.3283 4.98325 18.7331 5.34426 18.8714C5.70527 19.0097 6.11005 18.8292 6.24838 18.4682L7.56995 15.0191H13.8673ZM13.332 13.6191L10.722 6.79271L8.10638 13.6191H13.332Z" fill="#1BCE7B"/>
<path d="M18.9503 7.57987L19.849 8.57242C20.1084 8.85901 20.5511 8.88098 20.8377 8.62151C21.1243 8.36203 21.1462 7.91936 20.8868 7.63278L18.7689 5.29365C18.6362 5.14709 18.4477 5.06348 18.25 5.06348C18.0523 5.06348 17.8638 5.14709 17.7311 5.29365L15.6132 7.63278C15.3538 7.91936 15.3757 8.36203 15.6623 8.62151C15.9489 8.88098 16.3916 8.85901 16.6511 8.57242L17.5503 7.57925V13.9773C17.5503 14.3639 17.8637 14.6773 18.2503 14.6773C18.6369 14.6773 18.9503 14.3639 18.9503 13.9773V7.57987Z" fill="#1BCE7B"/>
</svg>
