<svg width="24" height="24" viewBox="0 0 24 24" fill="none" xmlns="http://www.w3.org/2000/svg">
<path d="M17.5492 12.076L17.5492 5.7127C17.5492 5.3261 17.8626 5.0127 18.2492 5.0127C18.6358 5.0127 18.9492 5.3261 18.9492 5.7127V12.0766L19.8484 11.0834C20.1079 10.7969 20.5506 10.7749 20.8372 11.0344C21.1238 11.2938 21.1457 11.7365 20.8863 12.0231L18.7684 14.3622C18.6357 14.5088 18.4472 14.5924 18.2495 14.5924C18.0518 14.5924 17.8633 14.5088 17.7306 14.3622L15.6127 12.0231C15.3533 11.7365 15.3752 11.2938 15.6618 11.0344C15.9484 10.7749 16.3911 10.7969 16.6506 11.0834L17.5492 12.076Z" fill="#1BCE7B"/>
<path fill-rule="evenodd" clip-rule="evenodd" d="M15.1858 18.4674L13.8673 15.0187H7.56995L6.24838 18.4678C6.11005 18.8288 5.70527 19.0094 5.34426 18.871C4.98325 18.7327 4.80274 18.3279 4.94106 17.9669L9.60168 5.80345C9.99554 4.77553 11.45 4.77606 11.8431 5.80427L16.4934 17.9674C16.6315 18.3285 16.4507 18.7332 16.0896 18.8712C15.7285 19.0093 15.3238 18.8285 15.1858 18.4674ZM10.722 6.79232L13.332 13.6187H8.10638L10.722 6.79232Z" fill="#1BCE7B"/>
</svg>
