<svg width="24" height="24" viewBox="0 0 24 24" fill="none" xmlns="http://www.w3.org/2000/svg">
<path fill-rule="evenodd" clip-rule="evenodd" d="M3.93097 17.2661C3.9932 18.1569 4.73393 18.8477 5.62684 18.8477H6.30095C7.23983 18.8477 8.00095 18.0865 8.00095 17.1477V10.6052C8.00095 9.6663 7.23983 8.90518 6.30095 8.90518H5.16981C4.18428 8.90518 3.40527 9.74052 3.47394 10.7236L3.93097 17.2661ZM5.62684 17.4477C5.46927 17.4477 5.33855 17.3258 5.32757 17.1686L4.87054 10.6261C4.85842 10.4526 4.99589 10.3052 5.16981 10.3052H6.30095C6.46663 10.3052 6.60095 10.4395 6.60095 10.6052V17.1477C6.60095 17.3133 6.46663 17.4477 6.30095 17.4477H5.62684Z" fill="#333333"/>
<path fill-rule="evenodd" clip-rule="evenodd" d="M12.2493 18.824C13.7854 18.9342 15.3562 19.0469 16.9043 19.0469C17.6452 19.0469 18.1869 18.5507 18.4819 18.0855C18.6733 17.7836 18.8246 17.396 18.8531 17.0004C18.993 16.8845 19.1054 16.7491 19.193 16.6151C19.3797 16.3295 19.491 15.9975 19.5455 15.6871C19.5999 15.377 19.6059 15.0416 19.5417 14.7369C19.5349 14.7047 19.5268 14.6707 19.5172 14.6353C19.8256 14.2898 19.9946 13.8503 20.0664 13.4701C20.1257 13.1564 20.1323 12.8271 20.0776 12.5213C20.0669 12.4617 20.0534 12.4005 20.0366 12.3386C20.1973 12.1744 20.3206 11.9893 20.4098 11.7871C20.5737 11.4154 20.5986 11.0362 20.6012 10.7435C20.604 10.4385 20.571 9.98654 20.3744 9.58507C20.2715 9.37499 20.1137 9.15833 19.8745 8.99529C19.6302 8.82871 19.3425 8.74658 19.0311 8.74658V10.1466C19.0628 10.1466 19.0795 10.1503 19.0863 10.1526C19.0905 10.1568 19.1019 10.1699 19.1171 10.2009C19.1716 10.3121 19.2033 10.5054 19.2013 10.7309C19.1991 10.9685 19.1756 11.1161 19.1288 11.2223C19.0924 11.3048 19.0245 11.404 18.8308 11.5034C18.6321 11.6054 18.494 11.7961 18.4591 12.0168C18.4242 12.2374 18.4967 12.4615 18.6542 12.6198C18.6519 12.6175 18.6507 12.6164 18.6507 12.6164C18.6507 12.6164 18.6795 12.6567 18.6995 12.7681C18.7212 12.8896 18.7217 13.0464 18.6907 13.2103C18.6224 13.572 18.4548 13.7549 18.3376 13.802C18.0854 13.9032 17.9146 14.1412 17.8994 14.4126C17.8865 14.6434 17.9883 14.8629 18.1664 15.0025C18.1681 15.0092 18.1699 15.0168 18.1717 15.0255C18.1922 15.1227 18.1965 15.2743 18.1666 15.445C18.1366 15.6154 18.0808 15.7579 18.0211 15.8492C17.9887 15.8988 17.9659 15.9184 17.9569 15.9247C17.7708 15.9695 17.611 16.0886 17.5149 16.2545C17.4171 16.4235 17.3943 16.6257 17.452 16.8122C17.4551 16.8223 17.4667 16.8818 17.4425 16.9946C17.4194 17.102 17.3708 17.2235 17.2995 17.3359C17.1415 17.5851 16.9781 17.6469 16.9043 17.6469C15.4085 17.6469 13.9191 17.54 12.4056 17.4313C11.749 17.3842 11.0879 17.3367 10.4197 17.2975C10.4103 17.297 10.4008 17.2966 10.3914 17.2965L10.3896 17.2963C10.3831 17.2958 10.3689 17.2945 10.3501 17.2913C10.3091 17.2842 10.2647 17.2715 10.2285 17.2528C10.1954 17.2357 10.1805 17.22 10.1718 17.2066C10.1653 17.1965 10.1369 17.1499 10.1369 17.0254V10.0774C10.1369 10.0098 10.1611 9.9446 10.2011 9.89559L10.2355 9.86614C10.2788 9.82893 10.3412 9.77514 10.4182 9.70824C10.5721 9.57454 10.785 9.38808 11.0206 9.17695C11.4856 8.76035 12.0615 8.22796 12.443 7.81473C13.1987 6.99588 13.9433 5.89788 14.2969 5.35613C14.3608 5.25819 14.4406 5.22178 14.5043 5.21512C14.5647 5.2088 14.6484 5.22498 14.7355 5.31483C14.748 5.32768 14.8155 5.43365 14.7949 5.78735C14.7817 6.01362 14.7463 6.20917 14.7091 6.41514C14.6888 6.52763 14.6679 6.64322 14.6497 6.76863C14.6411 6.82805 14.6013 6.97563 14.5201 7.20838C14.4444 7.42525 14.3484 7.67296 14.2521 7.91061C14.1563 8.1472 14.0625 8.36832 13.9925 8.53061C13.9576 8.61162 13.9287 8.67763 13.9087 8.72317L13.8857 8.77538L13.8784 8.79183C13.8581 8.83715 13.8424 8.88535 13.8322 8.93392C13.7999 9.08733 13.7938 9.2721 13.8592 9.46282C13.9265 9.65888 14.0501 9.80512 14.1855 9.90576C14.4231 10.0825 14.7065 10.1263 14.8768 10.1439C15.0713 10.164 15.2828 10.1624 15.4667 10.1583C15.5343 10.1568 15.5979 10.155 15.6592 10.1532C15.7805 10.1498 15.8927 10.1466 16.0081 10.1466H19.0311V8.74658H16.0081C15.8727 8.74658 15.7261 8.75073 15.5941 8.75447C15.5379 8.75606 15.4844 8.75757 15.4356 8.75866C15.4292 8.7588 15.4229 8.75894 15.4166 8.75906C15.459 8.65785 15.5041 8.54883 15.5497 8.43616C15.6501 8.18819 15.7556 7.91695 15.8419 7.66964C15.9227 7.4382 16.0053 7.17634 16.0353 6.96918C16.0419 6.92354 16.0538 6.85647 16.0684 6.77494C16.1105 6.53823 16.1744 6.17953 16.1925 5.86886C16.2166 5.45504 16.1932 4.80686 15.7404 4.34003C14.954 3.52937 13.7141 3.68754 13.1245 4.59091C12.776 5.12481 12.085 6.13838 11.4142 6.86518C11.0823 7.22478 10.5507 7.71823 10.0864 8.13427C9.85737 8.33945 9.65014 8.52101 9.50019 8.65125C9.42526 8.71632 9.36477 8.76847 9.32315 8.80422L9.27549 8.84508L9.26039 8.85798L9.25957 8.85868C9.24259 8.87314 9.22631 8.8884 9.21078 8.90442C8.90707 9.21771 8.73685 9.64055 8.73685 10.0774V17.0254C8.73685 17.3863 8.82613 17.7038 8.99622 17.9669C9.16414 18.2265 9.38467 18.3929 9.58706 18.4972C9.78627 18.5999 9.97736 18.6478 10.113 18.6711C10.1824 18.683 10.2419 18.6892 10.2868 18.6926C10.3094 18.6942 10.3287 18.6952 10.3441 18.6957L10.3495 18.6958C10.9739 18.7326 11.6086 18.7781 12.2493 18.824ZM18.1529 14.963C18.1529 14.963 18.154 14.9667 18.1572 14.9723C18.1547 14.9656 18.1529 14.963 18.1529 14.963Z" fill="#333333"/>
</svg>
