<svg width="24" height="24" viewBox="0 0 24 24" fill="none" xmlns="http://www.w3.org/2000/svg">
<path d="M17.3471 5.56513C15.7296 3.94761 13.4199 4.29266 11.9307 5.78183L10.405 7.3521C10.1356 7.62938 10.142 8.07255 10.4192 8.34195C10.6965 8.61135 11.1397 8.60496 11.4091 8.32768L12.9241 6.76836C13.9988 5.6964 15.4113 5.60923 16.3571 6.55507C16.7732 6.9711 16.9492 7.42245 16.9644 7.86798C16.9801 8.32448 16.8276 8.82615 16.4966 9.31782C16.2807 9.6385 16.3656 10.0735 16.6863 10.2894C17.007 10.5053 17.442 10.4204 17.6579 10.0997C18.1206 9.41245 18.3912 8.62537 18.3636 7.82005C18.3356 7.00377 18.0022 6.22025 17.3471 5.56513Z" fill="#333333"/>
<path d="M11.5189 9.62342C10.8046 9.22801 10.0356 9.11394 9.24915 9.31535C8.48361 9.51142 7.75701 9.99209 7.06824 10.6808L5.03821 12.7162C3.54776 14.207 3.21029 16.5209 4.82636 18.137C6.0548 19.3654 7.64734 19.3982 8.97812 18.6767C9.31799 18.4925 9.44415 18.0676 9.25991 17.7277C9.07566 17.3879 8.65078 17.2617 8.31091 17.446C7.43354 17.9216 6.53719 17.8679 5.81631 17.147C4.86812 16.1988 4.95544 14.7789 6.02911 13.7052L8.05917 11.6698C8.6409 11.0882 9.15547 10.7845 9.5965 10.6716C10.0168 10.5639 10.4204 10.6155 10.8409 10.8483C11.1792 11.0355 11.6051 10.9131 11.7924 10.5749C11.9796 10.2366 11.8572 9.81064 11.5189 9.62342Z" fill="#333333"/>
<path fill-rule="evenodd" clip-rule="evenodd" d="M15.0467 13.417C13.9697 13.417 13.0967 14.29 13.0967 15.367C13.0967 16.4439 13.9697 17.317 15.0467 17.317C16.1236 17.317 16.9967 16.4439 16.9967 15.367C16.9967 14.29 16.1236 13.417 15.0467 13.417ZM14.4967 15.367C14.4967 15.0632 14.7429 14.817 15.0467 14.817C15.3504 14.817 15.5967 15.0632 15.5967 15.367C15.5967 15.6707 15.3504 15.917 15.0467 15.917C14.7429 15.917 14.4967 15.6707 14.4967 15.367Z" fill="#333333"/>
<path fill-rule="evenodd" clip-rule="evenodd" d="M14.5069 10.7485C14.9088 10.7053 15.3168 10.7028 15.7131 10.746C16.3442 10.8149 16.8041 11.2604 16.9858 11.7758L17.0387 11.9258C17.0698 12.0141 17.1858 12.1077 17.3458 12.0864L17.5283 12.0621C18.0388 11.9942 18.6414 12.1526 19.0121 12.6473C19.2537 12.9698 19.4495 13.3179 19.5975 13.6822C19.8364 14.2703 19.6337 14.8684 19.2747 15.2525L19.1533 15.3824C19.0807 15.4601 19.0792 15.5614 19.1436 15.6395L19.2575 15.7778C19.5929 16.1846 19.7555 16.7953 19.4781 17.367C19.3103 17.7129 19.096 18.0441 18.835 18.3532C18.4353 18.8264 17.8221 18.9555 17.3094 18.8564L17.1311 18.8219C16.9735 18.7915 16.8481 18.8779 16.8097 18.9679L16.7335 19.1466C16.5244 19.6371 16.0578 20.0441 15.4464 20.0963C15.0461 20.1305 14.6402 20.1176 14.2385 20.0559C13.6363 19.9633 13.2017 19.5306 13.0259 19.0319L12.9624 18.8518C12.9313 18.7634 12.8153 18.6699 12.6553 18.6912L12.4711 18.7157C11.9603 18.7837 11.3573 18.625 10.9867 18.1297C10.7456 17.8074 10.5502 17.4597 10.4026 17.0957C10.164 16.5077 10.3667 15.9099 10.7256 15.5259L10.8478 15.3952C10.9204 15.3175 10.9219 15.2162 10.8575 15.1381L10.744 15.0003C10.4085 14.5933 10.2459 13.9823 10.5237 13.4104C10.6918 13.0644 10.9065 12.733 11.168 12.4238C11.5677 11.9512 12.1805 11.8224 12.6929 11.9214L12.87 11.9557C13.0276 11.9861 13.153 11.8997 13.1913 11.8097L13.2375 11.7015C13.4475 11.2091 13.9104 10.8125 14.5069 10.7485ZM15.5613 12.1378C15.2723 12.1063 14.9656 12.1073 14.6564 12.1405C14.613 12.1451 14.5565 12.1774 14.5252 12.2507L14.4791 12.3589C14.1655 13.0943 13.3673 13.4777 12.6044 13.3302L12.4272 13.296C12.3723 13.2854 12.3231 13.2895 12.2879 13.3C12.2543 13.31 12.2412 13.3229 12.2369 13.3279C12.0503 13.5485 11.8998 13.7817 11.7831 14.0219C11.7831 14.0219 11.783 14.0262 11.7839 14.0317C11.7865 14.0469 11.7965 14.0761 11.8242 14.1098L11.9377 14.2475C12.4517 14.8709 12.4209 15.7623 11.8706 16.3511L11.7484 16.4819C11.7178 16.5147 11.7054 16.5442 11.7017 16.5599C11.7003 16.5655 11.7001 16.5701 11.7001 16.5701C11.8027 16.8228 11.9388 17.0653 12.1077 17.291C12.1095 17.2933 12.1192 17.3054 12.1502 17.3166C12.183 17.3283 12.2308 17.3353 12.2864 17.3279L12.4706 17.3034C13.241 17.2009 14.0162 17.6302 14.2828 18.3863L14.3463 18.5664C14.3729 18.6419 14.4227 18.6678 14.4512 18.6721C14.7419 18.7168 15.0364 18.7262 15.3273 18.7014C15.3585 18.6987 15.4132 18.6739 15.4457 18.5974L15.522 18.4187C15.8356 17.6833 16.6338 17.2999 17.3967 17.4474L17.5751 17.4818C17.6301 17.4925 17.6792 17.4883 17.7144 17.4778C17.748 17.4678 17.7612 17.4549 17.7654 17.4499C17.9517 17.2293 18.1019 16.9962 18.2184 16.7562C18.2184 16.7562 18.2186 16.7519 18.2176 16.7464C18.215 16.7312 18.2051 16.702 18.1773 16.6683L18.0633 16.5301C17.5493 15.9066 17.5802 15.0152 18.1305 14.4264L18.2519 14.2965C18.2825 14.2637 18.2949 14.2342 18.2986 14.2185C18.2993 14.2156 18.2999 14.2117 18.2999 14.2117L18.3001 14.2083C18.1973 13.9554 18.0609 13.7127 17.8917 13.4868C17.8899 13.4844 17.8802 13.4724 17.8491 13.4612C17.8164 13.4494 17.7686 13.4425 17.7131 13.4499L17.5305 13.4742C16.7601 13.5767 15.9849 13.1474 15.7183 12.3913L15.6654 12.2413C15.6528 12.2055 15.6325 12.1782 15.6125 12.1612C15.5943 12.1458 15.5778 12.1396 15.5613 12.1378Z" fill="#333333"/>
</svg>
