<svg width="24" height="24" viewBox="0 0 24 24" fill="none" xmlns="http://www.w3.org/2000/svg">
<path d="M10.2638 5.2998C8.66214 5.2998 7.36377 6.59818 7.36377 8.1998C7.36377 9.80143 8.66214 11.0998 10.2638 11.0998H12.417C12.8036 11.0998 13.117 10.7864 13.117 10.3998C13.117 10.0132 12.8036 9.6998 12.417 9.6998H10.2638C9.43534 9.6998 8.76377 9.02823 8.76377 8.1998C8.76377 7.37138 9.43534 6.6998 10.2638 6.6998H12.417C12.8036 6.6998 13.117 6.3864 13.117 5.9998C13.117 5.61321 12.8036 5.2998 12.417 5.2998H10.2638Z" fill="#333333"/>
<path d="M4.94414 6.87598C4.2129 6.87598 3.62012 7.46876 3.62012 8.2C3.62012 8.93124 4.2129 9.52402 4.94414 9.52402C5.67538 9.52402 6.26816 8.93124 6.26816 8.2C6.26816 7.46876 5.67538 6.87598 4.94414 6.87598Z" fill="#333333"/>
<path d="M10.9551 8.2C10.9551 7.8134 11.2685 7.5 11.6551 7.5H16.0083C16.3949 7.5 16.7083 7.8134 16.7083 8.2C16.7083 8.5866 16.3949 8.9 16.0083 8.9H11.6551C11.2685 8.9 10.9551 8.5866 10.9551 8.2Z" fill="#333333"/>
<path d="M14.5474 5.9998C14.5474 5.61321 14.8608 5.2998 15.2474 5.2998H17.2063C18.8583 5.2998 20.3006 6.5436 20.3006 8.19981C20.3006 9.85601 18.8583 11.0998 17.2063 11.0998H15.2474C14.8608 11.0998 14.5474 10.7864 14.5474 10.3998C14.5474 10.0132 14.8608 9.6998 15.2474 9.6998H17.2063C18.199 9.6998 18.9006 8.97365 18.9006 8.19981C18.9006 7.42596 18.199 6.6998 17.2063 6.6998H15.2474C14.8608 6.6998 14.5474 6.3864 14.5474 5.9998Z" fill="#333333"/>
<path d="M3.62109 15.8001C3.62109 15.067 4.21541 14.4727 4.94854 14.4727C5.68166 14.4727 6.27598 15.067 6.27598 15.8001C6.27598 16.5332 5.68166 17.1275 4.94854 17.1275C4.21541 17.1275 3.62109 16.5332 3.62109 15.8001Z" fill="#333333"/>
<path d="M11.6551 15.0996C11.2685 15.0996 10.9551 15.413 10.9551 15.7996C10.9551 16.1862 11.2685 16.4996 11.6551 16.4996H16.0083C16.3949 16.4996 16.7083 16.1862 16.7083 15.7996C16.7083 15.413 16.3949 15.0996 16.0083 15.0996H11.6551Z" fill="#333333"/>
<path d="M7.36377 15.7994C7.36377 14.1978 8.66214 12.8994 10.2638 12.8994H12.417C12.8036 12.8994 13.117 13.2128 13.117 13.5994C13.117 13.986 12.8036 14.2994 12.417 14.2994H10.2638C9.43534 14.2994 8.76377 14.971 8.76377 15.7994C8.76377 16.6278 9.43534 17.2994 10.2638 17.2994H12.417C12.8036 17.2994 13.117 17.6128 13.117 17.9994C13.117 18.386 12.8036 18.6994 12.417 18.6994H10.2638C8.66214 18.6994 7.36377 17.401 7.36377 15.7994Z" fill="#333333"/>
<path d="M15.2474 12.8994C14.8608 12.8994 14.5474 13.2128 14.5474 13.5994C14.5474 13.986 14.8608 14.2994 15.2474 14.2994H17.2063C18.199 14.2994 18.9006 15.0256 18.9006 15.7994C18.9006 16.5733 18.199 17.2994 17.2063 17.2994H15.2474C14.8608 17.2994 14.5474 17.6128 14.5474 17.9994C14.5474 18.386 14.8608 18.6994 15.2474 18.6994H17.2063C18.8583 18.6994 20.3006 17.4556 20.3006 15.7994C20.3006 14.1432 18.8583 12.8994 17.2063 12.8994H15.2474Z" fill="#333333"/>
</svg>
