<svg width="24" height="24" viewBox="0 0 24 24" fill="none" xmlns="http://www.w3.org/2000/svg">
<path d="M18.3476 5.85614C16.7301 4.23863 14.4204 4.58367 12.9312 6.07284L11.4054 7.64312C11.136 7.92039 11.1424 8.36356 11.4197 8.63296C11.697 8.90236 12.1401 8.89598 12.4095 8.6187L13.9245 7.05939C14.9993 5.98741 16.4118 5.90024 17.3577 6.84609C17.8509 7.33926 18.0134 7.88878 17.9546 8.43384C17.8935 8.99974 17.5849 9.61709 17.0302 10.1718L14.953 12.2935C14.2678 12.9778 13.701 13.2049 13.2417 13.2048C12.7818 13.2047 12.2601 12.9767 11.6656 12.3823C11.5507 12.2673 11.4492 12.1447 11.3609 12.0163C11.1419 11.6977 10.7061 11.6169 10.3875 11.8359C10.0689 12.055 9.9882 12.4908 10.2072 12.8093C10.3437 13.0079 10.5 13.1965 10.6757 13.3722C11.4202 14.1167 12.2769 14.6046 13.2414 14.6048C14.2059 14.6051 15.1087 14.1176 15.9455 13.2809L18.0229 11.1591C18.7489 10.4321 19.244 9.53378 19.3465 8.58409C19.4514 7.61239 19.1366 6.64515 18.3476 5.85614Z" fill="#333333"/>
<path d="M13.4053 10.5725C12.6318 9.84368 11.7434 9.43793 10.765 9.51901C9.80904 9.59825 8.90827 10.1324 8.06871 10.9719L6.03871 13.0073C4.54825 14.498 4.21077 16.8119 5.82685 18.428C6.61595 19.2171 7.58285 19.5313 8.55424 19.4256C9.50457 19.3223 10.4031 18.8253 11.1302 18.0982L12.6183 16.605C12.8912 16.3312 12.8904 15.888 12.6165 15.6151C12.3427 15.3422 11.8995 15.3429 11.6266 15.6168L10.1399 17.1087C9.58488 17.6635 8.96799 17.9724 8.40284 18.0338C7.8586 18.0931 7.30987 17.9311 6.81679 17.438C5.86861 16.4898 5.95593 15.0699 7.02959 13.9963L9.05963 11.9609C9.77283 11.2478 10.3807 10.9557 10.8806 10.9142C11.3563 10.8748 11.8696 11.0517 12.438 11.5846L12.8632 12.0098C13.1366 12.2832 13.5798 12.2832 13.8532 12.0098C14.1265 11.7364 14.1265 11.2932 13.8532 11.0199L13.4129 10.5796L13.4053 10.5725Z" fill="#333333"/>
</svg>
