<svg width="24" height="24" viewBox="0 0 24 24" fill="none" xmlns="http://www.w3.org/2000/svg">
<path d="M4.91094 4.85938C4.52434 4.85938 4.21094 5.17278 4.21094 5.55937C4.21094 5.94597 4.52434 6.25937 4.91094 6.25937H15.1092C15.4958 6.25937 15.8092 5.94597 15.8092 5.55937C15.8092 5.17278 15.4958 4.85938 15.1092 4.85938H4.91094Z" fill="#1BCE7B"/>
<path fill-rule="evenodd" clip-rule="evenodd" d="M13.3024 10.9872C13.4873 10.4457 14.2531 10.4457 14.438 10.9872L14.9209 12.4012C14.9809 12.577 15.119 12.7151 15.2948 12.7751L16.7088 13.258C17.2503 13.4429 17.2503 14.2087 16.7088 14.3936L15.2948 14.8764C15.119 14.9365 14.9809 15.0745 14.9209 15.2503L14.438 16.6644C14.2531 17.2058 13.4873 17.2058 13.3024 16.6644L12.8195 15.2503C12.7595 15.0745 12.6214 14.9365 12.4456 14.8764L11.0316 14.3936C10.4901 14.2087 10.4901 13.4429 11.0316 13.258L12.4456 12.7751C12.6214 12.7151 12.7595 12.577 12.8195 12.4012L13.3024 10.9872ZM13.7659 12.7243L13.8702 12.4188L13.9745 12.7243C14.1346 13.1931 14.5028 13.5613 14.9716 13.7214L15.2771 13.8258L14.9716 13.9301C14.5028 14.0902 14.1346 14.4584 13.9745 14.9272L13.8702 15.2327L13.7659 14.9272C13.6058 14.4584 13.2376 14.0902 12.7688 13.9301L12.4633 13.8258L12.7688 13.7214C13.2376 13.5613 13.6058 13.1931 13.7659 12.7243Z" fill="#1BCE7B"/>
<path d="M16.2173 15.8987C16.1773 16.0159 16.0852 16.1079 15.968 16.148L15.4524 16.324C15.0914 16.4473 15.0914 16.9578 15.4524 17.0811L15.968 17.2572C16.0852 17.2972 16.1773 17.3893 16.2173 17.5065L16.3934 18.0221C16.5166 18.3831 17.0272 18.3831 17.1504 18.0221L17.3265 17.5065C17.3666 17.3893 17.4586 17.2972 17.5758 17.2572L18.0914 17.0811C18.4524 16.9578 18.4524 16.4473 18.0914 16.324L17.5758 16.148C17.4586 16.1079 17.3666 16.0159 17.3265 15.8987L17.1504 15.383C17.0272 15.0221 16.5166 15.0221 16.3934 15.383L16.2173 15.8987Z" fill="#1BCE7B"/>
<path fill-rule="evenodd" clip-rule="evenodd" d="M21.084 14.6328C21.084 18.1833 18.2058 21.0615 14.6553 21.0615C11.1048 21.0615 8.22656 18.1833 8.22656 14.6328C8.22656 11.0823 11.1048 8.2041 14.6553 8.2041C18.2058 8.2041 21.084 11.0823 21.084 14.6328ZM19.684 14.6328C19.684 17.4101 17.4326 19.6615 14.6553 19.6615C11.878 19.6615 9.62656 17.4101 9.62656 14.6328C9.62656 11.8555 11.878 9.6041 14.6553 9.6041C17.4326 9.6041 19.684 11.8555 19.684 14.6328Z" fill="#1BCE7B"/>
<path d="M4.21094 8.85332C4.21094 8.46672 4.52434 8.15332 4.91094 8.15332H8.6541C9.0407 8.15332 9.3541 8.46672 9.3541 8.85332C9.3541 9.23992 9.0407 9.55332 8.6541 9.55332H4.91094C4.52434 9.55332 4.21094 9.23992 4.21094 8.85332Z" fill="#1BCE7B"/>
<path d="M4.91094 11.4473C4.52434 11.4473 4.21094 11.7607 4.21094 12.1473C4.21094 12.5339 4.52434 12.8473 4.91094 12.8473H6.77568C7.16228 12.8473 7.47568 12.5339 7.47568 12.1473C7.47568 11.7607 7.16228 11.4473 6.77568 11.4473H4.91094Z" fill="#1BCE7B"/>
</svg>
