<svg width="24" height="24" viewBox="0 0 24 24" fill="none" xmlns="http://www.w3.org/2000/svg">
<path fill-rule="evenodd" clip-rule="evenodd" d="M11.9999 7.38477C10.2298 7.38477 8.79492 8.81968 8.79492 10.5897C8.79492 12.3598 10.2298 13.7947 11.9999 13.7947C13.7699 13.7947 15.2048 12.3598 15.2048 10.5897C15.2048 8.81968 13.7699 7.38477 11.9999 7.38477ZM10.1949 10.5897C10.1949 9.59288 11.003 8.78477 11.9999 8.78477C12.9967 8.78477 13.8048 9.59288 13.8048 10.5897C13.8048 11.5866 12.9967 12.3947 11.9999 12.3947C11.003 12.3947 10.1949 11.5866 10.1949 10.5897Z" fill="#333333"/>
<path fill-rule="evenodd" clip-rule="evenodd" d="M11.9998 3.98242C8.22861 3.98242 5.12451 6.92959 5.12451 10.6219C5.12451 12.8114 6.21907 14.9455 7.43833 16.6593C8.66916 18.3894 10.096 19.7866 10.9004 20.5184C11.5325 21.0935 12.4826 21.0768 13.0971 20.4908C13.8938 19.731 15.32 18.2797 16.5519 16.5354C17.7678 14.8137 18.875 12.6956 18.875 10.6219C18.875 6.92959 15.771 3.98242 11.9998 3.98242ZM6.52451 10.6219C6.52451 7.75365 8.94994 5.38242 11.9998 5.38242C15.0496 5.38242 17.475 7.75365 17.475 10.6219C17.475 12.2467 16.5825 14.0652 15.4083 15.7278C14.2501 17.3677 12.8958 18.7483 12.1309 19.4776C12.0442 19.5603 11.9272 19.5599 11.8426 19.4829C11.0756 18.785 9.72892 17.464 8.57911 15.8478C7.41773 14.2153 6.52451 12.3748 6.52451 10.6219Z" fill="#333333"/>
</svg>
