<svg width="24" height="24" viewBox="0 0 24 24" fill="none" xmlns="http://www.w3.org/2000/svg">
<path d="M12.4586 9.14141C12.4586 8.75481 12.1452 8.44141 11.7586 8.44141C11.372 8.44141 11.0586 8.75481 11.0586 9.14141V10.9602C11.0586 11.3468 11.372 11.6602 11.7586 11.6602L13.4799 11.6603C13.8665 11.6604 14.1799 11.347 14.18 10.9604C14.18 10.5738 13.8666 10.2604 13.48 10.2603L12.4586 10.2603V9.14141Z" fill="#333333"/>
<path fill-rule="evenodd" clip-rule="evenodd" d="M7.9502 10.5897C7.9502 8.35315 9.7633 6.54004 11.9999 6.54004C14.2365 6.54004 16.0496 8.35315 16.0496 10.5897C16.0496 12.8263 14.2365 14.6394 11.9999 14.6394C9.7633 14.6394 7.9502 12.8263 7.9502 10.5897ZM11.9999 7.94004C10.5365 7.94004 9.3502 9.12635 9.3502 10.5897C9.3502 12.0531 10.5365 13.2394 11.9999 13.2394C13.4633 13.2394 14.6496 12.0531 14.6496 10.5897C14.6496 9.12635 13.4633 7.94004 11.9999 7.94004Z" fill="#333333"/>
<path fill-rule="evenodd" clip-rule="evenodd" d="M5.12451 10.6219C5.12451 6.92959 8.22861 3.98242 11.9998 3.98242C15.771 3.98242 18.875 6.92959 18.875 10.6219C18.875 12.6956 17.7678 14.8137 16.5519 16.5354C15.32 18.2797 13.8938 19.731 13.0971 20.4908C12.4826 21.0768 11.5325 21.0935 10.9004 20.5184C10.096 19.7866 8.66916 18.3894 7.43833 16.6593C6.21907 14.9455 5.12451 12.8114 5.12451 10.6219ZM11.9998 5.38242C8.94994 5.38242 6.52451 7.75365 6.52451 10.6219C6.52451 12.3748 7.41773 14.2153 8.57911 15.8478C9.72892 17.464 11.0756 18.785 11.8426 19.4829C11.9272 19.5599 12.0442 19.5603 12.1309 19.4776C12.8958 18.7483 14.2501 17.3677 15.4083 15.7278C16.5825 14.0652 17.475 12.2467 17.475 10.6219C17.475 7.75365 15.0496 5.38242 11.9998 5.38242Z" fill="#333333"/>
</svg>
