<svg width="24" height="24" viewBox="0 0 24 24" fill="none" xmlns="http://www.w3.org/2000/svg">
<path d="M12 3.98242C13.0084 3.98249 13.9685 4.1948 14.835 4.57422C14.5003 4.92048 14.2095 5.30972 13.9746 5.73438C13.3634 5.50825 12.6982 5.38287 12 5.38281C8.95039 5.38305 6.52541 7.75398 6.52539 10.6221C6.52539 12.375 7.41872 14.2152 8.58008 15.8477C9.7298 17.4637 11.0758 18.7856 11.8428 19.4834C11.9274 19.5601 12.0452 19.5602 12.1318 19.4775C12.8968 18.7481 14.2512 17.3671 15.4092 15.7275C15.9245 14.9978 16.3851 14.2378 16.7402 13.4775C17.1746 13.6515 17.6362 13.7703 18.1172 13.8281C17.6939 14.7891 17.1367 15.7082 16.5527 16.5352C15.3209 18.2793 13.8945 19.7314 13.0977 20.4912C12.4833 21.0769 11.5334 21.0932 10.9014 20.5186C10.097 19.7867 8.67024 18.3892 7.43945 16.6592C6.2202 14.9453 5.12402 12.8115 5.12402 10.6221C5.12404 6.92992 8.22905 3.98266 12 3.98242Z" fill="#15C674"/>
<path d="M12 7.38477C12.4784 7.38477 12.9321 7.48982 13.3398 7.67773C13.31 7.90941 13.2939 8.14595 13.2939 8.38574C13.294 8.74933 13.3299 9.10444 13.3975 9.44824C13.0665 9.0436 12.5636 8.78516 12 8.78516C11.0032 8.7852 10.1954 9.59306 10.1953 10.5898C10.1953 11.5867 11.0032 12.3945 12 12.3945C12.9647 12.3945 13.749 11.6378 13.7988 10.6855C14.0503 11.229 14.3884 11.7237 14.7949 12.1533C14.2463 13.132 13.2017 13.7949 12 13.7949C10.23 13.7949 8.79492 12.3599 8.79492 10.5898C8.79497 8.81986 10.23 7.38481 12 7.38477Z" fill="#15C674"/>
<path d="M18.7783 4.80078C19.1164 4.80078 19.3984 5.04064 19.4639 5.35938L19.4785 5.50098V7.63477H21.6123C21.9989 7.63478 22.3125 7.94839 22.3125 8.33496C22.3124 8.72149 21.9988 9.03514 21.6123 9.03516H19.4785V11.1689L19.4639 11.3105C19.3983 11.6292 19.1163 11.8691 18.7783 11.8691C18.4403 11.8691 18.1583 11.6292 18.0928 11.3105L18.0781 11.1689V9.03516H15.9443C15.5578 9.03514 15.2442 8.72149 15.2441 8.33496C15.2442 7.94839 15.5578 7.63478 15.9443 7.63477H18.0781V5.50098L18.0928 5.35938C18.1582 5.04064 18.4402 4.80078 18.7783 4.80078Z" fill="#15C674"/>
<path d="M12 3.98242C13.0084 3.98249 13.9685 4.1948 14.835 4.57422C14.5003 4.92048 14.2095 5.30972 13.9746 5.73438C13.3634 5.50825 12.6982 5.38287 12 5.38281C8.95039 5.38305 6.52541 7.75398 6.52539 10.6221C6.52539 12.375 7.41872 14.2152 8.58008 15.8477C9.7298 17.4637 11.0758 18.7856 11.8428 19.4834C11.9274 19.5601 12.0452 19.5602 12.1318 19.4775C12.8968 18.7481 14.2512 17.3671 15.4092 15.7275C15.9245 14.9978 16.3851 14.2378 16.7402 13.4775C17.1746 13.6515 17.6362 13.7703 18.1172 13.8281C17.6939 14.7891 17.1367 15.7082 16.5527 16.5352C15.3209 18.2793 13.8945 19.7314 13.0977 20.4912C12.4833 21.0769 11.5334 21.0932 10.9014 20.5186C10.097 19.7867 8.67024 18.3892 7.43945 16.6592C6.2202 14.9453 5.12402 12.8115 5.12402 10.6221C5.12404 6.92992 8.22905 3.98266 12 3.98242Z" stroke="#15C674"/>
<path d="M12 7.38477C12.4784 7.38477 12.9321 7.48982 13.3398 7.67773C13.31 7.90941 13.2939 8.14595 13.2939 8.38574C13.294 8.74933 13.3299 9.10444 13.3975 9.44824C13.0665 9.0436 12.5636 8.78516 12 8.78516C11.0032 8.7852 10.1954 9.59306 10.1953 10.5898C10.1953 11.5867 11.0032 12.3945 12 12.3945C12.9647 12.3945 13.749 11.6378 13.7988 10.6855C14.0503 11.229 14.3884 11.7237 14.7949 12.1533C14.2463 13.132 13.2017 13.7949 12 13.7949C10.23 13.7949 8.79492 12.3599 8.79492 10.5898C8.79497 8.81986 10.23 7.38481 12 7.38477Z" stroke="#15C674"/>
<path d="M18.7783 4.80078C19.1164 4.80078 19.3984 5.04064 19.4639 5.35938L19.4785 5.50098V7.63477H21.6123C21.9989 7.63478 22.3125 7.94839 22.3125 8.33496C22.3124 8.72149 21.9988 9.03514 21.6123 9.03516H19.4785V11.1689L19.4639 11.3105C19.3983 11.6292 19.1163 11.8691 18.7783 11.8691C18.4403 11.8691 18.1583 11.6292 18.0928 11.3105L18.0781 11.1689V9.03516H15.9443C15.5578 9.03514 15.2442 8.72149 15.2441 8.33496C15.2442 7.94839 15.5578 7.63478 15.9443 7.63477H18.0781V5.50098L18.0928 5.35938C18.1582 5.04064 18.4402 4.80078 18.7783 4.80078Z" stroke="#15C674"/>
</svg>
