<svg width="24" height="24" viewBox="0 0 24 24" fill="none" xmlns="http://www.w3.org/2000/svg">
<path d="M12.6004 14.0004C12.6004 13.9574 12.5959 13.9156 12.5873 13.8752C12.8366 13.6933 12.9985 13.3989 12.9985 13.0667C12.9985 12.5142 12.5507 12.0664 11.9983 12.0664C11.4459 12.0664 10.998 12.5142 10.998 13.0667C10.998 13.4005 11.1616 13.6961 11.4129 13.8778C11.4047 13.9174 11.4004 13.9584 11.4004 14.0004V15.0004C11.4004 15.3318 11.669 15.6004 12.0004 15.6004C12.3318 15.6004 12.6004 15.3318 12.6004 15.0004V14.0004Z" fill="#333333"/>
<path fill-rule="evenodd" clip-rule="evenodd" d="M8.90723 9.16108C8.90723 7.45248 10.2923 6.06738 12.0009 6.06738C13.7095 6.06738 15.0946 7.45248 15.0946 9.16108V9.71591C15.95 9.85533 16.6028 10.5976 16.6028 11.4924V15.5334C16.6028 16.5275 15.797 17.3334 14.8028 17.3334H9.19746C8.20335 17.3334 7.39746 16.5275 7.39746 15.5334V11.4924C7.39746 10.5971 8.05111 9.85444 8.90723 9.71566V9.16108ZM13.8946 9.16108V9.69238H10.1072V9.16108C10.1072 8.11522 10.9551 7.26738 12.0009 7.26738C13.0468 7.26738 13.8946 8.11522 13.8946 9.16108ZM14.8028 10.8924H9.19746C8.86609 10.8924 8.59746 11.161 8.59746 11.4924V15.5334C8.59746 15.8648 8.86609 16.1334 9.19746 16.1334H14.8028C15.1342 16.1334 15.4028 15.8648 15.4028 15.5334V11.4924C15.4028 11.161 15.1342 10.8924 14.8028 10.8924Z" fill="#333333"/>
</svg>
