<svg width="24" height="24" viewBox="0 0 24 24" fill="none" xmlns="http://www.w3.org/2000/svg">
<path d="M12.1689 11.2227C12.3965 11.2458 12.6109 11.3137 12.8027 11.418C12.8985 11.47 12.9888 11.5308 13.0723 11.5996C13.2393 11.7374 13.3792 11.907 13.4834 12.0986C13.6138 12.3384 13.6884 12.6132 13.6885 12.9053C13.6885 13.0353 13.6703 13.1616 13.6426 13.2832C13.6218 13.3741 13.5953 13.4622 13.5605 13.5469C13.5516 13.5688 13.5411 13.5899 13.5312 13.6113C13.5177 13.6406 13.5044 13.6699 13.4893 13.6982C13.4806 13.7145 13.4711 13.7302 13.4619 13.7461C13.445 13.7756 13.4278 13.8047 13.4092 13.833C13.398 13.85 13.3858 13.8662 13.374 13.8828C13.3559 13.9083 13.3378 13.9336 13.3184 13.958C13.3042 13.9758 13.2902 13.9936 13.2754 14.0107C13.255 14.0343 13.2335 14.0567 13.2119 14.0791C13.1982 14.0934 13.1842 14.1073 13.1699 14.1211C13.1455 14.1447 13.1205 14.1674 13.0947 14.1895C13.0789 14.203 13.0632 14.2165 13.0469 14.2295C13.0239 14.2477 13.0005 14.2652 12.9766 14.2822C12.9571 14.2961 12.9371 14.3092 12.917 14.3223C12.8946 14.3369 12.8718 14.3507 12.8486 14.3643C12.8245 14.3784 12.8003 14.3923 12.7754 14.4053C12.7491 14.419 12.7224 14.432 12.6953 14.4443C12.696 14.4573 12.7002 14.4702 12.7002 14.4834V16.1748C12.7002 16.5614 12.3866 16.875 12 16.875C11.6134 16.875 11.2998 16.5614 11.2998 16.1748V14.4834C11.2998 14.4716 11.3022 14.4599 11.3027 14.4482C11.2918 14.4433 11.2813 14.4377 11.2705 14.4326C11.2511 14.4234 11.2318 14.4142 11.2129 14.4043C11.1836 14.389 11.1552 14.3724 11.127 14.3555C11.1107 14.3457 11.0941 14.3365 11.0781 14.3262C11.053 14.3099 11.0291 14.292 11.0049 14.2744C10.9834 14.2588 10.9621 14.2431 10.9414 14.2266C10.9262 14.2144 10.9112 14.2021 10.8965 14.1895C10.8681 14.1651 10.8402 14.1404 10.8135 14.1143C10.8031 14.1041 10.7933 14.0934 10.7832 14.083C10.7583 14.0574 10.7342 14.0311 10.7109 14.0039C10.6969 13.9876 10.6833 13.971 10.6699 13.9541C10.6538 13.9337 10.6383 13.9128 10.623 13.8916C10.6068 13.869 10.5903 13.8466 10.5752 13.8232C10.5569 13.795 10.5401 13.7657 10.5234 13.7363C10.5154 13.7221 10.5076 13.7078 10.5 13.6934C10.4853 13.6656 10.4721 13.6371 10.459 13.6084C10.4487 13.586 10.438 13.5639 10.4287 13.541C10.4192 13.5176 10.4108 13.4937 10.4023 13.4697C10.3934 13.4444 10.3837 13.4194 10.376 13.3936C10.3486 13.3025 10.3291 13.2082 10.3174 13.1113C10.3158 13.0983 10.3128 13.0854 10.3115 13.0723C10.3061 13.0174 10.3047 12.9616 10.3047 12.9053C10.3047 12.6132 10.3784 12.3384 10.5088 12.0986C10.6389 11.8593 10.8251 11.6548 11.0498 11.5029C11.1398 11.4421 11.2358 11.3895 11.3369 11.3467C11.4886 11.2825 11.6518 11.24 11.8223 11.2227C11.8793 11.2168 11.9376 11.2139 11.9961 11.2139L12.1689 11.2227Z" fill="#15C674"/>
<path fill-rule="evenodd" clip-rule="evenodd" d="M12 3.44629C14.4582 3.44629 16.4511 5.43925 16.4512 7.89746V8.09082C17.7718 8.45594 18.7421 9.6657 18.7422 11.1025V13.7363L18.7334 14.083C18.5529 17.6449 15.6076 20.4771 12.001 20.4775L11.6533 20.4688C8.20622 20.2938 5.44229 17.5302 5.26758 14.083L5.25781 13.7363V11.1025C5.25786 9.66573 6.22819 8.45597 7.54883 8.09082V7.89746C7.54888 5.43928 9.54183 3.44635 12 3.44629ZM8.38379 9.37793C7.43112 9.37798 6.65924 10.1499 6.65918 11.1025V13.7363C6.65928 16.6864 9.05084 19.0781 12.001 19.0781C14.9507 19.0777 17.3427 16.6861 17.3428 13.7363V11.1025C17.3427 10.15 16.5697 9.37819 15.6172 9.37793H8.38379ZM12 4.84668C10.315 4.84674 8.94927 6.21248 8.94922 7.89746V7.97754H15.0508V7.89746C15.0507 6.21245 13.685 4.84668 12 4.84668Z" fill="#15C674"/>
</svg>
