<svg width="24" height="24" viewBox="0 0 24 24" fill="none" xmlns="http://www.w3.org/2000/svg">
<path d="M13.2477 13.3333C13.2477 13.7848 13.0083 14.1805 12.6496 14.4002V15.4996C12.6496 15.8586 12.3586 16.1496 11.9996 16.1496C11.6406 16.1496 11.3496 15.8586 11.3496 15.4996V14.4029C10.9884 14.1837 10.7471 13.7867 10.7471 13.3333C10.7471 12.6428 11.3069 12.083 11.9974 12.083C12.6879 12.083 13.2477 12.6428 13.2477 13.3333Z" fill="#333333"/>
<path fill-rule="evenodd" clip-rule="evenodd" d="M8.2334 8.44973C8.2334 6.36921 9.91999 4.68262 12.0005 4.68262C14.081 4.68262 15.7676 6.36921 15.7676 8.44973V9.13647C16.8894 9.28952 17.7538 10.2514 17.7538 11.4152V16.3665C17.7538 17.6368 16.7241 18.6665 15.4538 18.6665H8.54707C7.27681 18.6665 6.24707 17.6368 6.24707 16.3665V11.4152C6.24707 10.2514 7.11153 9.28943 8.2334 9.13645V8.44973ZM14.4676 8.44973V9.11523H9.5334V8.44973C9.5334 7.08718 10.638 5.98262 12.0005 5.98262C13.3631 5.98262 14.4676 7.08718 14.4676 8.44973ZM15.4538 10.4152H8.54707C7.99478 10.4152 7.54707 10.8629 7.54707 11.4152V16.3665C7.54707 16.9188 7.99478 17.3665 8.54707 17.3665H15.4538C16.0061 17.3665 16.4538 16.9188 16.4538 16.3665V11.4152C16.4538 10.8629 16.0061 10.4152 15.4538 10.4152Z" fill="#333333"/>
</svg>
