<svg width="24" height="24" viewBox="0 0 24 24" fill="none" xmlns="http://www.w3.org/2000/svg">
<path d="M12.5502 13.5002C12.5502 13.4881 12.5498 13.476 12.549 13.4641C12.7095 13.3156 12.81 13.1032 12.81 12.8674C12.81 12.4185 12.4461 12.0547 11.9973 12.0547C11.5484 12.0547 11.1846 12.4185 11.1846 12.8674C11.1846 13.1059 11.2874 13.3205 11.4511 13.4692C11.4505 13.4794 11.4502 13.4898 11.4502 13.5002V14.5002C11.4502 14.804 11.6964 15.0502 12.0002 15.0502C12.304 15.0502 12.5502 14.804 12.5502 14.5002V13.5002Z" fill="#333333"/>
<path fill-rule="evenodd" clip-rule="evenodd" d="M9.42285 9.69331C9.42285 8.27056 10.5762 7.11719 11.999 7.11719C13.4217 7.11719 14.5751 8.27056 14.5751 9.69331V10.1448C15.2359 10.257 15.7391 10.8322 15.7391 11.525V14.9333C15.7391 15.7065 15.1123 16.3333 14.3391 16.3333H9.65977C8.88657 16.3333 8.25977 15.7065 8.25977 14.9333V11.525C8.25977 10.8326 8.76248 10.2575 9.42285 10.145V9.69331ZM13.4751 9.69331V10.125H10.5229V9.69331C10.5229 8.87807 11.1837 8.21719 11.999 8.21719C12.8142 8.21719 13.4751 8.87807 13.4751 9.69331ZM14.3391 11.225H9.65977C9.49408 11.225 9.35977 11.3593 9.35977 11.525V14.9333C9.35977 15.099 9.49408 15.2333 9.65977 15.2333H14.3391C14.5048 15.2333 14.6391 15.099 14.6391 14.9333V11.525C14.6391 11.3593 14.5048 11.225 14.3391 11.225Z" fill="#333333"/>
</svg>
