<svg width="24" height="24" viewBox="0 0 24 24" fill="none" xmlns="http://www.w3.org/2000/svg">
<path d="M10.4961 13.6C10.4961 14.1785 10.8235 14.6805 11.3032 14.9309C11.3009 14.9536 11.2998 14.9766 11.2998 14.9998V16.4998C11.2998 16.8864 11.6132 17.1998 11.9998 17.1998C12.3864 17.1998 12.6998 16.8864 12.6998 16.4998V14.9998C12.6998 14.9754 12.6986 14.9513 12.6961 14.9276C13.1723 14.6761 13.4968 14.1759 13.4968 13.6C13.4968 12.7713 12.8251 12.0996 11.9965 12.0996C11.1678 12.0996 10.4961 12.7713 10.4961 13.6Z" fill="#333333"/>
<path fill-rule="evenodd" clip-rule="evenodd" d="M12.0001 3.2998C9.54767 3.2998 7.55957 5.2879 7.55957 7.74034V8.54827C6.17898 8.66788 5.0957 9.82648 5.0957 11.2381V17.2996C5.0957 18.7908 6.30453 19.9996 7.7957 19.9996H16.2038C17.6949 19.9996 18.9038 18.7908 18.9038 17.2996V11.2381C18.9038 9.82673 17.8209 8.6683 16.4406 8.54833V7.74034C16.4406 5.2879 14.4526 3.2998 12.0001 3.2998ZM15.0406 8.53809V7.74034C15.0406 6.0611 13.6794 4.6998 12.0001 4.6998C10.3209 4.6998 8.95957 6.0611 8.95957 7.74034V8.53809H15.0406ZM16.2038 9.93809H7.7957C7.07773 9.93809 6.4957 10.5201 6.4957 11.2381V17.2996C6.4957 18.0176 7.07773 18.5996 7.7957 18.5996H16.2038C16.9218 18.5996 17.5038 18.0176 17.5038 17.2996V11.2381C17.5038 10.5201 16.9217 9.93809 16.2038 9.93809Z" fill="#333333"/>
</svg>
