<svg width="24" height="24" viewBox="0 0 24 24" fill="none" xmlns="http://www.w3.org/2000/svg">
<path d="M13.0706 3.92578C13.4572 3.92578 13.7706 4.23917 13.7706 4.62577C13.7706 5.01237 13.4572 5.32578 13.0706 5.32578L7.61063 5.32585C6.89266 5.32586 6.31064 5.90789 6.31064 6.62585V17.3739C6.31064 18.0919 6.89268 18.6739 7.61066 18.6739L13.0706 18.6738C13.4572 18.6738 13.7706 18.9872 13.7706 19.3738C13.7706 19.7604 13.4572 20.0738 13.0706 20.0738L7.61068 20.0739C6.1195 20.0739 4.91064 18.8651 4.91064 17.3739V6.62585C4.91064 5.1347 6.11945 3.92587 7.61061 3.92585L13.0706 3.92578Z" fill="#333333"/>
<path d="M15.0604 8.49478C14.787 8.22141 14.787 7.7782 15.0604 7.50483C15.3338 7.23146 15.777 7.23146 16.0503 7.50483L20.05 11.5045C20.1867 11.6412 20.2551 11.8204 20.255 11.9996C20.2551 12.1788 20.1867 12.358 20.05 12.4948L16.0503 16.4944C15.777 16.7678 15.3338 16.7678 15.0604 16.4944C14.787 16.221 14.787 15.7778 15.0604 15.5045L17.8651 12.6998L10.5546 12.6998C10.168 12.6998 9.85462 12.3864 9.85462 11.9998C9.85462 11.6132 10.168 11.2998 10.5546 11.2998L17.8654 11.2998L15.0604 8.49478Z" fill="#333333"/>
</svg>
