<svg width="24" height="24" viewBox="0 0 24 24" fill="none" xmlns="http://www.w3.org/2000/svg">
<path fill-rule="evenodd" clip-rule="evenodd" d="M11.2215 3.93555C10.8349 3.93554 10.5215 4.24894 10.5215 4.63554C10.5215 5.02214 10.8349 5.33554 11.2215 5.33555L16.3924 5.33562C17.1103 5.33563 17.6924 5.91765 17.6924 6.63562V17.3641C17.6924 18.0821 17.1103 18.6641 16.3923 18.6641L11.2215 18.6641C10.8349 18.664 10.5215 18.9774 10.5215 19.364C10.5215 19.7506 10.8349 20.064 11.2215 20.0641L16.3923 20.0641C17.8835 20.0641 19.0924 18.8553 19.0924 17.3641V6.63562C19.0924 5.14446 17.8835 3.93564 16.3924 3.93562L11.2215 3.93555ZM7.76682 8.49478C7.49345 8.22141 7.49345 7.7782 7.76682 7.50483C8.04018 7.23146 8.4834 7.23146 8.75677 7.50483L12.7564 11.5045C12.8931 11.6412 12.9615 11.8204 12.9614 11.9996C12.9615 12.1788 12.8931 12.358 12.7564 12.4948L8.75677 16.4944C8.4834 16.7678 8.04018 16.7678 7.76682 16.4944C7.49345 16.221 7.49345 15.7778 7.76682 15.5045L10.5715 12.6998L3.26104 12.6998C2.87444 12.6998 2.56104 12.3864 2.56104 11.9998C2.56104 11.6132 2.87444 11.2998 3.26104 11.2998L10.5718 11.2998L7.76682 8.49478Z" fill="#333333"/>
</svg>
