<svg width="24" height="24" viewBox="0 0 24 24" fill="none" xmlns="http://www.w3.org/2000/svg">
<path d="M10.8989 6.33864C11.2857 6.33877 11.599 6.65204 11.5991 7.03884C11.5991 7.42573 11.2858 7.73988 10.8989 7.74001C10.5119 7.74001 10.1978 7.42581 10.1978 7.03884C10.1979 6.65196 10.512 6.33864 10.8989 6.33864Z" fill="#15C674"/>
<path d="M13.7192 6.33864C14.1061 6.33864 14.4203 6.65196 14.4204 7.03884C14.4204 7.42581 14.1062 7.74001 13.7192 7.74001C13.3323 7.74001 13.019 7.42581 13.019 7.03884C13.0192 6.65196 13.3323 6.33864 13.7192 6.33864Z" fill="#15C674"/>
<path fill-rule="evenodd" clip-rule="evenodd" d="M8.69775 3.67263C8.98544 3.49444 9.35181 3.54931 9.57568 3.78591L9.6626 3.89919L10.0024 4.44704C10.634 4.16811 11.3321 4.01247 12.0669 4.01247H12.5649C13.2925 4.0125 13.9841 4.16539 14.6108 4.43923L14.9458 3.90017L15.0327 3.78688C15.2566 3.55025 15.6229 3.49532 15.9106 3.6736C16.1983 3.8523 16.3126 4.20567 16.1997 4.51149L16.1372 4.63845L15.8062 5.17067C16.9471 6.10614 17.6758 7.52463 17.6802 9.11403C17.7969 9.08851 17.9182 9.07596 18.0425 9.07595C18.9748 9.07621 19.7307 9.83209 19.731 10.7644V14.0545C19.7306 14.9868 18.9748 15.7427 18.0425 15.7429C17.9173 15.7429 17.7956 15.7278 17.6782 15.7019C17.6581 16.7872 16.8884 17.6874 15.8638 17.907V19.5183C15.8634 20.4505 15.1075 21.2064 14.1753 21.2068C13.2428 21.2068 12.4862 20.4508 12.4858 19.5183V17.9597H12.0708V19.5183C12.0705 20.4506 11.3146 21.2065 10.3823 21.2068C9.44981 21.2068 8.69321 20.4508 8.69287 19.5183V17.8884C7.70196 17.6409 6.96557 16.7535 6.95166 15.6892C6.81958 15.7225 6.68193 15.7429 6.53955 15.7429C5.60702 15.7429 4.85042 14.9869 4.8501 14.0545V10.7654C4.8501 9.83268 5.60683 9.07595 6.53955 9.07595C6.68148 9.07601 6.81898 9.09467 6.95068 9.12771L6.95752 8.86501C7.0327 7.38412 7.73793 6.06953 8.81006 5.18337L8.47119 4.63747L8.40869 4.51052C8.29575 4.20455 8.40981 3.85124 8.69775 3.67263ZM10.0952 19.5183C10.0956 19.6764 10.2242 19.8045 10.3823 19.8045C10.5403 19.8042 10.6681 19.6762 10.6685 19.5183V17.9597H10.0952V19.5183ZM13.8882 19.5183C13.8885 19.6764 14.0171 19.8045 14.1753 19.8045C14.3331 19.8041 14.4611 19.6762 14.4614 19.5183V17.9597H13.8882V19.5183ZM8.35303 15.659C8.35324 16.1551 8.7553 16.5572 9.25146 16.5574H15.3794C15.8757 16.5574 16.2786 16.1552 16.2788 15.659V9.82985H8.35303V15.659ZM6.53955 10.4783C6.38119 10.4783 6.25244 10.607 6.25244 10.7654V14.0545C6.25276 14.2126 6.38139 14.3406 6.53955 14.3406C6.69738 14.3402 6.82536 14.2123 6.82568 14.0545V10.7644C6.82542 10.6065 6.69741 10.4787 6.53955 10.4783ZM18.0425 10.4783C17.8842 10.4784 17.7554 10.6071 17.7554 10.7654V14.0545C17.7557 14.2125 17.8844 14.3405 18.0425 14.3406C18.2004 14.3403 18.3283 14.2124 18.3286 14.0545V10.7644C18.3284 10.6064 18.2005 10.4786 18.0425 10.4783ZM12.0669 5.41481C10.2555 5.41481 8.74836 6.7117 8.42041 8.42751H16.2114C15.8835 6.71176 14.3762 5.41493 12.5649 5.41481H12.0669Z" fill="#15C674"/>
</svg>
