<svg width="24" height="24" viewBox="0 0 24 24" fill="none" xmlns="http://www.w3.org/2000/svg">
<path fill-rule="evenodd" clip-rule="evenodd" d="M15.3516 2.12545C15.6152 2.17367 15.833 2.37053 15.9033 2.63619C15.9426 2.78494 15.9718 2.93088 15.9932 3.07174L16.0186 3.27682C16.116 4.22326 15.885 5.10448 15.3389 5.8901L15.2959 5.94771C15.3214 5.94925 15.3468 5.94948 15.3721 5.95162L15.3711 5.9526C16.9009 6.0765 18.1292 6.69438 18.9482 7.85885C19.0598 8.01757 19.1002 8.21582 19.0605 8.40572C19.0306 8.5482 18.9573 8.67712 18.8525 8.77486L18.7383 8.86178C17.7155 9.48167 17.2604 10.2934 17.2695 11.3491L17.2861 11.6587C17.3471 12.2607 17.5707 12.7694 17.958 13.2036L18.166 13.4145L18.1719 13.4204L18.3818 13.604C18.5974 13.7754 18.83 13.9122 19.0801 14.017C19.4205 14.1601 19.592 14.5429 19.4717 14.892C19.3773 15.1657 19.2762 15.43 19.1689 15.685L19.167 15.6919C18.9047 16.2979 18.5911 16.8588 18.2275 17.3774L18.2285 17.3784C17.7717 18.0298 17.3607 18.5345 17.0078 18.8452L17.0088 18.8462C16.4605 19.3503 15.824 19.6479 15.1113 19.6645C15.1061 19.6646 15.1009 19.6645 15.0957 19.6645C14.6032 19.6645 14.0647 19.5261 13.501 19.2944C13.0445 19.1082 12.6587 19.0307 12.335 19.0307C11.9858 19.0308 11.585 19.1101 11.126 19.2954L11.127 19.2963C10.5753 19.5197 10.0645 19.6641 9.62109 19.6801L9.62207 19.6811C8.88414 19.7125 8.21988 19.3792 7.64355 18.8432C7.27064 18.5135 6.84572 17.9963 6.37695 17.3335C5.83216 16.5663 5.3908 15.6854 5.04883 14.6977L5.04785 14.6958C4.67964 13.623 4.49027 12.5684 4.49023 11.5356C4.49024 10.3519 4.74601 9.28918 5.28906 8.37935L5.45605 8.11275C5.86184 7.50704 6.38055 7.01411 7.00879 6.64107C7.72862 6.2137 8.51137 5.99578 9.3457 5.98189L9.35742 5.98092L9.55469 5.98873C10.0253 6.02177 10.562 6.16761 11.1426 6.38424L11.1914 6.40182C11.0946 5.45791 11.3618 4.50301 11.9346 3.72017L12.0596 3.55611C12.4286 3.09569 12.9163 2.74366 13.4941 2.48775L13.498 2.48678L13.7129 2.39791C14.2149 2.20603 14.7247 2.10671 15.2363 2.11471L15.3516 2.12545ZM15.2539 7.34908C14.8917 7.31833 14.3869 7.39197 13.7129 7.63424L13.7139 7.63521C13.3258 7.77764 13.0084 7.88781 12.7666 7.96334C12.6462 8.00095 12.5366 8.03243 12.4424 8.05514C12.3653 8.07371 12.2416 8.10103 12.1182 8.10103C11.9173 8.10102 11.6836 8.04176 11.4805 7.98189C11.2541 7.91518 10.9765 7.81841 10.6523 7.69674C10.0469 7.47083 9.62906 7.38453 9.36328 7.38326C8.77194 7.39403 8.2303 7.54688 7.72461 7.84713C7.21559 8.14941 6.80897 8.5592 6.49902 9.08834L6.49609 9.0942C6.10384 9.7495 5.89258 10.5546 5.89258 11.5356C5.89261 12.3941 6.04904 13.2942 6.37305 14.2387C6.63947 15.0083 6.96765 15.6853 7.35254 16.2749L7.52148 16.5219L7.52246 16.5239L7.84668 16.9672C8.04966 17.2339 8.22604 17.4438 8.37598 17.602L8.58203 17.8012L8.59863 17.8169C9.00067 18.1906 9.31699 18.2902 9.5625 18.2797H9.56836L9.74512 18.2612C9.94749 18.2276 10.2283 18.1473 10.6006 17.9965L10.8223 17.9116C11.3355 17.7276 11.841 17.6284 12.335 17.6284C12.8827 17.6284 13.4506 17.7606 14.0312 17.9975H14.0332L14.3633 18.1206C14.6699 18.2218 14.9114 18.2609 15.0938 18.2612C15.4019 18.2504 15.7194 18.1267 16.0596 17.8139L16.0742 17.8003C16.2947 17.6087 16.6292 17.2166 17.0801 16.5737L17.3027 16.2378C17.5168 15.8956 17.7086 15.5299 17.8779 15.1391C17.8974 15.0928 17.9145 15.0448 17.9336 14.9975C17.6768 14.8387 17.4359 14.6538 17.2119 14.4419C16.3312 13.6253 15.8803 12.5824 15.8672 11.3647V11.3628C15.8554 10.0471 16.3651 8.96374 17.3369 8.14498C16.8249 7.69233 16.1455 7.42087 15.2568 7.34908H15.2539ZM14.6338 3.57955C14.4495 3.62141 14.2577 3.6852 14.0586 3.77193C13.6506 3.95313 13.3569 4.1787 13.1514 4.43599L13.1475 4.44088L12.9883 4.65865C12.6927 5.10944 12.5539 5.62703 12.5781 6.13326C13.112 6.08034 13.5875 5.80963 14.001 5.32955L14.1074 5.19771C14.4887 4.69724 14.6598 4.16633 14.6338 3.57955Z" fill="#15C674"/>
</svg>
