<svg width="24" height="24" viewBox="0 0 24 24" fill="none" xmlns="http://www.w3.org/2000/svg">
<path d="M12.0763 4.59941C12.0763 4.21281 12.3897 3.89941 12.7763 3.89941H14.0096C16.8111 3.89941 19.1406 6.07159 19.1406 8.82144V10.9324C19.1406 13.6823 16.8111 15.8545 14.0096 15.8545H6.69012L9.49478 18.6591C9.76815 18.9325 9.76815 19.3757 9.49478 19.6491C9.22141 19.9224 8.7782 19.9224 8.50483 19.6491L4.51851 15.6628C4.38382 15.5352 4.2998 15.3546 4.2998 15.1545C4.29977 14.9753 4.36811 14.7958 4.50483 14.6591L8.50483 10.6591C8.7782 10.3858 9.22141 10.3858 9.49478 10.6591C9.76815 10.9325 9.76815 11.3757 9.49478 11.6491L6.68939 14.4545H14.0096C16.1024 14.4545 17.7406 12.8461 17.7406 10.9324V8.82144C17.7406 6.90776 16.1024 5.29941 14.0096 5.29941H12.7763C12.3897 5.29941 12.0763 4.98601 12.0763 4.59941Z" fill="#333333"/>
</svg>
