<svg width="24" height="24" viewBox="0 0 24 24" fill="none" xmlns="http://www.w3.org/2000/svg">
<path fill-rule="evenodd" clip-rule="evenodd" d="M7.61821 3.04127C7.93296 2.19067 9.13604 2.19067 9.4508 3.04127L10.0791 4.73937C10.1298 4.87623 10.2377 4.98414 10.3746 5.03478L12.0727 5.66313C12.9233 5.97788 12.9233 7.18097 12.0727 7.49572L10.3746 8.12407C10.2377 8.17471 10.1298 8.28262 10.0791 8.41948L9.4508 10.1176C9.13604 10.9682 7.93296 10.9682 7.61821 10.1176L6.98986 8.41948C6.93921 8.28262 6.83131 8.17471 6.69445 8.12407L4.99635 7.49572C4.14574 7.18096 4.14575 5.97788 4.99635 5.66313L6.69445 5.03478C6.83131 4.98414 6.93921 4.87623 6.98986 4.73937L7.61821 3.04127ZM8.5345 4.59919L8.30285 5.22522C8.11041 5.74529 7.70037 6.15533 7.1803 6.34777L6.55427 6.57942L7.1803 6.81108C7.70037 7.00352 8.11041 7.41356 8.30285 7.93363L8.5345 8.55966L8.76616 7.93363C8.9586 7.41356 9.36864 7.00352 9.8887 6.81108L10.5147 6.57942L9.8887 6.34777C9.36864 6.15533 8.9586 5.74529 8.76616 5.22522L8.5345 4.59919Z" fill="#333333"/>
<path fill-rule="evenodd" clip-rule="evenodd" d="M18.3088 5.62321C17.723 5.03742 16.7732 5.03742 16.1874 5.6232L5.4749 16.3356C4.88911 16.9214 4.88911 17.8712 5.47489 18.457L6.53018 19.5123C7.11597 20.098 8.06571 20.0981 8.6515 19.5123L19.364 8.79982C19.9498 8.21404 19.9498 7.26429 19.364 6.6785L18.3088 5.62321ZM17.1774 6.61316C17.2164 6.5741 17.2798 6.5741 17.3188 6.61316L18.3741 7.66845C18.4131 7.7075 18.4131 7.77082 18.3741 7.80987L16.8451 9.3388L15.6484 8.14209L17.1774 6.61316ZM14.6585 9.13204L6.46484 17.3256C6.42579 17.3647 6.42579 17.428 6.46484 17.467L7.52014 18.5223C7.55919 18.5614 7.6225 18.5614 7.66156 18.5223L15.8552 10.3287L14.6585 9.13204Z" fill="#333333"/>
<path fill-rule="evenodd" clip-rule="evenodd" d="M18.9972 14.1438C18.6824 13.2932 17.4793 13.2932 17.1646 14.1438L16.9565 14.7061C16.9059 14.8429 16.798 14.9508 16.6611 15.0015L16.0989 15.2095C15.2483 15.5243 15.2483 16.7274 16.0989 17.0421L16.6611 17.2502C16.798 17.3008 16.9059 17.4087 16.9565 17.5456L17.1646 18.1078C17.4793 18.9584 18.6824 18.9584 18.9972 18.1078L19.2052 17.5456C19.2559 17.4087 19.3638 17.3008 19.5006 17.2502L20.0629 17.0421C20.9135 16.7274 20.9135 15.5243 20.0629 15.2095L19.5006 15.0015C19.3638 14.9508 19.2559 14.8429 19.2052 14.7061L18.9972 14.1438ZM17.5228 16.1258C17.7458 15.9809 17.936 15.7907 18.0809 15.5677C18.2258 15.7907 18.416 15.9809 18.639 16.1258C18.416 16.2707 18.2258 16.4609 18.0809 16.6839C17.936 16.4609 17.7458 16.2707 17.5228 16.1258Z" fill="#333333"/>
</svg>
