<svg width="24" height="24" viewBox="0 0 24 24" fill="none" xmlns="http://www.w3.org/2000/svg">
<path fill-rule="evenodd" clip-rule="evenodd" d="M4.61911 6.83543C4.86715 6.53889 5.30861 6.49956 5.60516 6.7476L11.7234 11.8649C11.8709 11.9883 12.0854 11.9893 12.234 11.8671L14.1843 10.2642C14.483 10.0187 14.9241 10.0618 15.1696 10.3605C15.415 10.6592 15.3719 11.1003 15.0732 11.3458L13.1229 12.9487C12.4542 13.4983 11.4891 13.4941 10.8252 12.9388L4.70695 7.82148C4.41041 7.57345 4.37108 7.13198 4.61911 6.83543Z" fill="#333333"/>
<path fill-rule="evenodd" clip-rule="evenodd" d="M14.5815 7.28454C14.5815 6.89794 14.8949 6.58454 15.2815 6.58454L20.7874 6.58454C21.174 6.58454 21.4874 6.89794 21.4874 7.28454C21.4874 7.67114 21.174 7.98454 20.7874 7.98454L15.2815 7.98454C14.8949 7.98454 14.5815 7.67114 14.5815 7.28454Z" fill="#333333"/>
<path fill-rule="evenodd" clip-rule="evenodd" d="M14.7866 6.78913C15.0599 6.51575 15.5031 6.51574 15.7765 6.7891L18.0339 9.04639C18.3073 9.31975 18.3073 9.76296 18.0339 10.0363C17.7606 10.3097 17.3173 10.3097 17.044 10.0364L14.7866 7.77908C14.5132 7.50571 14.5132 7.0625 14.7866 6.78913Z" fill="#333333"/>
<path fill-rule="evenodd" clip-rule="evenodd" d="M14.7866 7.77908C14.5132 7.50571 14.5132 7.0625 14.7866 6.78913L17.044 4.53217C17.3173 4.25881 17.7605 4.25881 18.0339 4.53217C18.3073 4.80554 18.3073 5.24876 18.0339 5.52212L15.7765 7.77951C15.5032 8.05288 15.0599 8.05244 14.7866 7.77908Z" fill="#333333"/>
<path fill-rule="evenodd" clip-rule="evenodd" d="M5.9999 7.29704C5.6133 7.29704 5.2999 7.61044 5.2999 7.99704V16.0015C5.2999 16.3881 5.6133 16.7015 5.9999 16.7015H17.9999C18.3865 16.7015 18.6999 16.3881 18.6999 16.0015V11.9993C18.6999 11.6127 19.0133 11.2993 19.3999 11.2993C19.7865 11.2993 20.0999 11.6127 20.0999 11.9993V16.0015C20.0999 17.1613 19.1597 18.1015 17.9999 18.1015H5.9999C4.84011 18.1015 3.8999 17.1613 3.8999 16.0015V7.99704C3.8999 6.83724 4.8401 5.89704 5.9999 5.89704H11.9999C12.3865 5.89704 12.6999 6.21044 12.6999 6.59704C12.6999 6.98364 12.3865 7.29704 11.9999 7.29704H5.9999Z" fill="#333333"/>
</svg>
