<svg width="24" height="24" viewBox="0 0 24 24" fill="none" xmlns="http://www.w3.org/2000/svg">
<path fill-rule="evenodd" clip-rule="evenodd" d="M4 8C4 6.89543 4.89543 6 6 6H18C19.1046 6 20 6.89543 20 8V16C20 17.1046 19.1046 18 18 18H6C4.89543 18 4 17.1046 4 16V8ZM17.7122 7.4H6.38463L11.7258 11.8674C11.8729 11.9905 12.0867 11.9918 12.2354 11.8705L17.7122 7.4ZM5.4 8.4016V16C5.4 16.3314 5.66863 16.6 6 16.6H18C18.3314 16.6 18.6 16.3314 18.6 16V8.48253L13.1206 12.955C12.4519 13.5009 11.4898 13.4951 10.8276 12.9413L5.4 8.4016Z" fill="#333333"/>
</svg>
