<svg width="24" height="24" viewBox="0 0 24 24" fill="none" xmlns="http://www.w3.org/2000/svg">
<path fill-rule="evenodd" clip-rule="evenodd" d="M5.99414 5.99805C4.88957 5.99805 3.99414 6.89348 3.99414 7.99805V16.0025C3.99414 17.1071 4.88957 18.0025 5.99414 18.0025H11.367C11.7418 18.0025 12.0022 17.6278 11.9182 17.2626C11.8586 17.0037 11.6357 16.8025 11.3701 16.8025H5.99414C5.55231 16.8025 5.19414 16.4443 5.19414 16.0025V7.99805C5.19414 7.55622 5.55231 7.19805 5.99414 7.19805H17.9941C18.436 7.19805 18.7941 7.55622 18.7941 7.99805V10.6367C18.7941 10.8612 18.9413 11.0591 19.1486 11.1453C19.5306 11.3041 19.9941 11.0444 19.9941 10.6308V7.99805C19.9941 6.89348 19.0987 5.99805 17.9941 5.99805H5.99414Z" fill="#333333"/>
<path fill-rule="evenodd" clip-rule="evenodd" d="M19.503 6.84291C19.7475 7.14241 19.7028 7.58337 19.4033 7.82783L13.1212 12.9556C12.4524 13.5015 11.4903 13.4957 10.8282 12.9419L4.70754 7.82251C4.41099 7.57447 4.37167 7.13301 4.6197 6.83646C4.86773 6.53992 5.3092 6.50059 5.60574 6.74862L11.7264 11.868C11.8735 11.991 12.0873 11.9923 12.2359 11.871L18.5181 6.74326C18.8176 6.4988 19.2585 6.54341 19.503 6.84291Z" fill="#333333"/>
<path fill-rule="evenodd" clip-rule="evenodd" d="M16.6896 14.2631V14.5511C16.6896 14.9377 17.003 15.2511 17.3896 15.2511L17.4093 15.251L17.4201 15.2509C17.4198 15.2509 17.4205 15.2509 17.4201 15.2509C18.6313 15.2887 19.3889 15.8853 19.8975 16.6306C20.0048 16.7878 20.1003 16.9508 20.1853 17.1155C19.4378 16.6605 18.5014 16.2838 17.4428 16.2837H17.3896C17.003 16.2837 16.6896 16.5971 16.6896 16.9837V17.5327L14.994 15.8979L16.6896 14.2631ZM16.6789 12.3287L13.6478 15.2511C13.2831 15.6027 13.2831 16.1931 13.6478 16.5448L16.6789 19.4671C16.9468 19.7254 17.3208 19.758 17.6109 19.6196C17.8951 19.4842 18.0896 19.1936 18.0896 18.856V17.7511C19.2571 17.9916 20.2285 18.8205 20.7442 19.3462C21.3606 19.9745 22.3165 19.3663 22.1537 18.5871C22.0258 17.9753 21.7382 16.8441 21.0539 15.8414C20.4394 14.9411 19.4934 14.1334 18.0896 13.9099V12.9398C18.0896 12.6022 17.8951 12.3117 17.6109 12.1762C17.3208 12.0379 16.9468 12.0705 16.6789 12.3287Z" fill="#333333"/>
</svg>
