<svg width="24" height="24" viewBox="0 0 24 24" fill="none" xmlns="http://www.w3.org/2000/svg">
<path fill-rule="evenodd" clip-rule="evenodd" d="M18.6936 11.933V16.0011C18.6936 16.3877 18.3802 16.7011 17.9936 16.7011H5.99356C5.60696 16.7011 5.29355 16.3877 5.29355 16.0011V8.31137L10.8281 12.9405C11.4902 13.4943 12.4524 13.5001 13.1211 12.9542L15.643 10.8957C15.2901 10.5881 14.9884 10.2232 14.7525 9.81542L12.2358 11.8697C12.0872 11.991 11.8734 11.9897 11.7263 11.8666L6.26253 7.29668H14.2019C14.2474 6.80039 14.3783 6.32879 14.5796 5.89668H5.99355C4.83376 5.89668 3.89355 6.83688 3.89355 7.99668V16.0011C3.89355 17.1609 4.83376 18.1011 5.99356 18.1011H17.9936C19.1534 18.1011 20.0936 17.1609 20.0936 16.0011V11.6049C19.6591 11.7892 19.1877 11.9033 18.6936 11.933Z" fill="#333333"/>
<path fill-rule="evenodd" clip-rule="evenodd" d="M18.4335 9.03691C19.1773 9.03691 19.7803 8.43394 19.7803 7.69013C19.7803 6.94633 19.1773 6.34336 18.4335 6.34336C17.6897 6.34336 17.0868 6.94633 17.0868 7.69013C17.0868 8.43394 17.6897 9.03691 18.4335 9.03691ZM18.4335 10.4369C19.9505 10.4369 21.1803 9.20713 21.1803 7.69013C21.1803 6.17313 19.9505 4.94336 18.4335 4.94336C16.9165 4.94336 15.6868 6.17313 15.6868 7.69013C15.6868 9.20713 16.9165 10.4369 18.4335 10.4369Z" fill="#333333"/>
</svg>
