<svg width="24" height="24" viewBox="0 0 24 24" fill="none" xmlns="http://www.w3.org/2000/svg">
<path fill-rule="evenodd" clip-rule="evenodd" d="M9.84977 6.61113C9.84977 6.22453 10.1632 5.91113 10.5498 5.91113H18.023C19.1828 5.91113 20.123 6.85134 20.123 8.01113V15.9641C20.123 17.1239 19.1828 18.0641 18.023 18.0641H7.6332C6.4734 18.0641 5.5332 17.1239 5.5332 15.9641V15.3395C5.5332 14.9529 5.8466 14.6395 6.2332 14.6395C6.6198 14.6395 6.9332 14.9529 6.9332 15.3395V15.9641C6.9332 16.3507 7.2466 16.6641 7.6332 16.6641H18.023C18.4096 16.6641 18.723 16.3507 18.723 15.9641V8.01113C18.723 7.62453 18.4096 7.31113 18.023 7.31113H10.5498C10.1632 7.31113 9.84977 6.99773 9.84977 6.61113Z" fill="#333333"/>
<path fill-rule="evenodd" clip-rule="evenodd" d="M19.3515 7.25954C19.5996 7.55602 19.5604 7.9975 19.2639 8.24561L13.6297 12.9606C13.1607 13.3531 12.4814 13.3656 11.9983 12.9905L10.3401 11.7034C10.0347 11.4663 9.97932 11.0266 10.2164 10.7212C10.4534 10.4158 10.8932 10.3604 11.1986 10.5974L12.7931 11.8352L18.3654 7.17197C18.6619 6.92385 19.1034 6.96306 19.3515 7.25954Z" fill="#333333"/>
<path fill-rule="evenodd" clip-rule="evenodd" d="M4.27517 9.73516C4.27518 9.34856 4.58858 9.03516 4.97518 9.03516L7.49586 9.03516C7.88246 9.03516 8.19586 9.34856 8.19586 9.73516C8.19586 10.1218 7.88246 10.4352 7.49586 10.4352L4.97517 10.4352C4.58858 10.4352 4.27517 10.1218 4.27517 9.73516Z" fill="#333333"/>
<path fill-rule="evenodd" clip-rule="evenodd" d="M5.18994 12.3398C5.18994 11.9532 5.50334 11.6398 5.88994 11.6398H7.49552C7.88212 11.6398 8.19552 11.9532 8.19552 12.3398C8.19552 12.7264 7.88212 13.0398 7.49552 13.0398H5.88994C5.50334 13.0398 5.18994 12.7264 5.18994 12.3398Z" fill="#333333"/>
<path fill-rule="evenodd" clip-rule="evenodd" d="M2.56299 7.13082C2.56299 6.74422 2.87639 6.43081 3.26299 6.43081H7.49655C7.88315 6.43081 8.19655 6.74422 8.19655 7.13082C8.19655 7.51741 7.88315 7.83081 7.49655 7.83081H3.26299C2.87639 7.83081 2.56299 7.51741 2.56299 7.13082Z" fill="#333333"/>
</svg>
