<svg width="24" height="24" viewBox="0 0 24 24" fill="none" xmlns="http://www.w3.org/2000/svg">
<path fill-rule="evenodd" clip-rule="evenodd" d="M3.8999 7.99746C3.8999 6.83766 4.8401 5.89746 5.9999 5.89746H17.9999C19.1597 5.89746 20.0999 6.83766 20.0999 7.99746V11.9997C20.0999 12.3863 19.7865 12.6997 19.3999 12.6997C19.0133 12.6997 18.6999 12.3863 18.6999 11.9997V7.99746C18.6999 7.61086 18.3865 7.29746 17.9999 7.29746H5.9999C5.6133 7.29746 5.2999 7.61086 5.2999 7.99746V16.0019C5.2999 16.3885 5.6133 16.7019 5.9999 16.7019H11.3671C11.7537 16.7019 12.0671 17.0153 12.0671 17.4019C12.0671 17.7885 11.7537 18.1019 11.3671 18.1019H5.9999C4.8401 18.1019 3.8999 17.1617 3.8999 16.0019V7.99746Z" fill="#333333"/>
<path fill-rule="evenodd" clip-rule="evenodd" d="M19.5022 6.84243C19.7466 7.14193 19.702 7.58289 19.4025 7.82735L13.1204 12.9551C12.4516 13.501 11.4895 13.4952 10.8274 12.9414L4.70673 7.82203C4.41018 7.574 4.37086 7.13253 4.61889 6.83598C4.86692 6.53944 5.30839 6.50011 5.60494 6.74814L11.7256 11.8675C11.8727 11.9906 12.0865 11.9918 12.2351 11.8705L18.5173 6.74278C18.8168 6.49832 19.2577 6.54294 19.5022 6.84243Z" fill="#333333"/>
<path fill-rule="evenodd" clip-rule="evenodd" d="M21.1275 17.3572C21.1275 16.9706 20.8141 16.6572 20.4275 16.6572L14.9217 16.6572C14.5351 16.6572 14.2217 16.9706 14.2217 17.3572C14.2217 17.7438 14.5351 18.0572 14.9217 18.0572H20.4275C20.8141 18.0572 21.1275 17.7438 21.1275 17.3572Z" fill="#333333"/>
<path fill-rule="evenodd" clip-rule="evenodd" d="M20.9225 16.862C20.6492 16.5887 20.2059 16.5887 19.9326 16.862L17.6752 19.1193C17.4018 19.3927 17.4018 19.8359 17.6752 20.1093C17.9485 20.3826 18.3917 20.3826 18.6651 20.1093L20.9225 17.852C21.1959 17.5786 21.1959 17.1354 20.9225 16.862Z" fill="#333333"/>
<path fill-rule="evenodd" clip-rule="evenodd" d="M20.9225 17.852C21.1959 17.5786 21.1959 17.1354 20.9225 16.862L18.6651 14.6049C18.3918 14.3315 17.9485 14.3315 17.6752 14.6049C17.4018 14.8782 17.4018 15.3214 17.6752 15.5948L19.9326 17.8522C20.2059 18.1256 20.6491 18.1254 20.9225 17.852Z" fill="#333333"/>
</svg>
