<svg width="24" height="24" viewBox="0 0 24 24" fill="none" xmlns="http://www.w3.org/2000/svg">
<path fill-rule="evenodd" clip-rule="evenodd" d="M5.11132 6.97751C4.44949 7.30361 3.99414 7.98494 3.99414 8.77262V16.0036C3.99414 17.1082 4.88957 18.0036 5.99414 18.0036H18.007C19.1115 18.0036 20.007 17.1082 20.007 16.0036V8.77262C20.007 7.82238 19.3443 7.02692 18.4558 6.82319L19.0588 7.42617L18.4059 8.07905C18.6456 8.21723 18.807 8.47608 18.807 8.77262V16.0036C18.807 16.4455 18.4488 16.8036 18.007 16.8036H5.99414C5.55231 16.8036 5.19414 16.4455 5.19414 16.0036V8.77262C5.19414 8.39927 5.44989 8.08565 5.79576 7.99741L4.94359 7.14524L5.11132 6.97751Z" fill="#333333"/>
<path fill-rule="evenodd" clip-rule="evenodd" d="M19.5299 7.60682C19.7549 7.9212 19.6825 8.35846 19.3681 8.58345L13.0299 13.1196C12.3972 13.5724 11.5452 13.5675 10.9178 13.1074L4.74267 8.57871C4.43092 8.35008 4.36354 7.91201 4.59217 7.60027C4.8208 7.28852 5.25886 7.22113 5.57061 7.44976L11.7458 11.9784C11.8852 12.0807 12.0745 12.0818 12.2151 11.9812L18.5533 7.44498C18.8677 7.21999 19.3049 7.29244 19.5299 7.60682Z" fill="#333333"/>
<path fill-rule="evenodd" clip-rule="evenodd" d="M19.295 8.0265C19.4916 7.69364 19.3812 7.2644 19.0483 7.06777L12.8388 3.39962C12.2684 3.06272 11.5592 3.06628 10.9923 3.40888L4.93188 7.07137C4.60101 7.27133 4.49488 7.70165 4.69484 8.03252C4.89479 8.3634 5.32512 8.46952 5.65599 8.26957L11.7164 4.60707C11.8423 4.53094 12 4.53015 12.1267 4.60502L18.3363 8.27317C18.6691 8.4698 19.0983 8.35936 19.295 8.0265Z" fill="#333333"/>
</svg>
