<svg width="25" height="24" viewBox="0 0 25 24" fill="none" xmlns="http://www.w3.org/2000/svg">
<path fill-rule="evenodd" clip-rule="evenodd" d="M13.7027 3.71179C13.0388 3.04789 11.9624 3.0479 11.2985 3.71179L9.35729 5.65301C8.6934 6.3169 8.6934 7.39328 9.35729 8.05717L11.2985 9.9984C11.9624 10.6623 13.0388 10.6623 13.7027 9.9984L15.6439 8.05717C16.3078 7.39328 16.3078 6.3169 15.6439 5.65301L13.7027 3.71179ZM12.2885 4.70174C12.4056 4.58458 12.5956 4.58458 12.7127 4.70173L14.654 6.64296C14.7711 6.76012 14.7711 6.95007 14.654 7.06722L12.7127 9.00845C12.5956 9.1256 12.4056 9.1256 12.2885 9.00845L10.3472 7.06722C10.2301 6.95007 10.2301 6.76012 10.3472 6.64296L12.2885 4.70174Z" fill="#333333"/>
<path fill-rule="evenodd" clip-rule="evenodd" d="M13.7027 14.0008C13.0388 13.337 11.9624 13.337 11.2985 14.0008L9.35729 15.9421C8.6934 16.606 8.6934 17.6823 9.35729 18.3462L11.2985 20.2875C11.9624 20.9514 13.0388 20.9513 13.7027 20.2875L15.6439 18.3462C16.3078 17.6823 16.3078 16.606 15.6439 15.9421L13.7027 14.0008ZM12.2885 14.9908C12.4056 14.8736 12.5956 14.8736 12.7127 14.9908L14.654 16.932C14.7711 17.0492 14.7711 17.2391 14.654 17.3563L12.7127 19.2975C12.5956 19.4147 12.4056 19.4147 12.2885 19.2975L10.3472 17.3563C10.2301 17.2391 10.2301 17.0492 10.3472 16.932L12.2885 14.9908Z" fill="#333333"/>
<path fill-rule="evenodd" clip-rule="evenodd" d="M6.1535 8.85632C6.81739 8.19243 7.89377 8.19242 8.55766 8.85632L10.4989 10.7975C11.1628 11.4614 11.1628 12.5378 10.4989 13.2017L8.55766 15.1429C7.89377 15.8068 6.81739 15.8068 6.1535 15.1429L4.21227 13.2017C3.54838 12.5378 3.54838 11.4614 4.21227 10.7975L6.1535 8.85632ZM7.56771 9.84627C7.45055 9.72911 7.2606 9.72911 7.14345 9.84627L5.20222 11.7875C5.08507 11.9046 5.08507 12.0946 5.20222 12.2118L7.14345 14.153C7.2606 14.2701 7.45055 14.2701 7.56771 14.153L9.50893 12.2118C9.62609 12.0946 9.62609 11.9046 9.50893 11.7875L7.56771 9.84627Z" fill="#333333"/>
<path fill-rule="evenodd" clip-rule="evenodd" d="M18.8472 8.85632C18.1833 8.19242 17.1069 8.19243 16.443 8.85632L14.5018 10.7975C13.8379 11.4614 13.8379 12.5378 14.5018 13.2017L16.443 15.1429C17.1069 15.8068 18.1833 15.8068 18.8472 15.1429L20.7884 13.2017C21.4523 12.5378 21.4523 11.4614 20.7884 10.7975L18.8472 8.85632ZM17.433 9.84627C17.5502 9.72911 17.7401 9.72911 17.8573 9.84627L19.7985 11.7875C19.9156 11.9046 19.9156 12.0946 19.7985 12.2118L17.8573 14.153C17.7401 14.2701 17.5502 14.2701 17.433 14.153L15.4918 12.2118C15.3746 12.0946 15.3746 11.9046 15.4918 11.7875L17.433 9.84627Z" fill="#333333"/>
</svg>
