<svg width="24" height="24" viewBox="0 0 24 24" fill="none" xmlns="http://www.w3.org/2000/svg">
<path fill-rule="evenodd" clip-rule="evenodd" d="M19.1178 4.65435C19.3242 4.78189 19.4498 5.0072 19.4498 5.24981V16.4998C19.4498 16.7649 19.3 17.0073 19.0629 17.1259L14.5754 19.3696C14.4837 19.4179 14.38 19.4464 14.2699 19.4495C14.2632 19.4497 14.2565 19.4498 14.2498 19.4498C14.2416 19.4498 14.2334 19.4497 14.2251 19.4494C14.1167 19.4456 14.0146 19.4172 13.9242 19.3696L9.7498 17.2824L5.56285 19.3759C5.34586 19.4844 5.08816 19.4728 4.88179 19.3453C4.67542 19.2177 4.5498 18.9924 4.5498 18.7498V7.49981C4.5498 7.23466 4.69961 6.99228 4.93676 6.87371L9.42413 4.63002C9.52141 4.5788 9.63222 4.5498 9.7498 4.5498C9.86739 4.5498 9.9782 4.5788 10.0755 4.63002L14.2498 6.71718L18.4368 4.62371C18.6537 4.51521 18.9114 4.52681 19.1178 4.65435ZM14.9498 17.6172L18.0498 16.0672V6.38243L14.9498 7.93243V17.6172ZM13.5498 7.93243V17.6172L10.4498 16.0672V6.38243L13.5498 7.93243ZM5.9498 7.93243V17.6172L9.0498 16.0672V6.38243L5.9498 7.93243Z" fill="#333333"/>
</svg>
