<svg width="24" height="24" viewBox="0 0 24 24" fill="none" xmlns="http://www.w3.org/2000/svg">
<path fill-rule="evenodd" clip-rule="evenodd" d="M13.1624 6.92722C14.0841 5.13171 16.2553 4.44434 18.0092 5.43499C18.4333 5.67453 18.5745 6.20273 18.3614 6.61787L13.0057 17.0517C12.4337 18.1661 11.0767 18.6011 9.97756 17.9803C8.89865 17.3709 8.51012 15.9907 9.07283 14.8945L13.1624 6.92722ZM16.8673 6.46289C15.9275 6.19098 14.8975 6.61278 14.4079 7.56654L10.3183 15.5338C10.0886 15.9814 10.2608 16.5324 10.6661 16.7613C11.0511 16.9788 11.5397 16.8418 11.7602 16.4124L16.8673 6.46289ZM7.13845 6.92722C8.0601 5.13171 10.2313 4.44434 11.9852 5.43499C12.4093 5.67454 12.5505 6.20274 12.3374 6.61787L6.98171 17.0517C6.40969 18.1661 5.05271 18.6011 3.95357 17.9803C2.87467 17.3709 2.48613 15.9907 3.04884 14.8945L7.13845 6.92722ZM10.8433 6.46289C9.90354 6.19099 8.87352 6.61278 8.38395 7.56654L4.29434 15.5338C4.06458 15.9814 4.2368 16.5324 4.64208 16.7613C5.02714 16.9788 5.51576 16.8418 5.73621 16.4124L10.8433 6.46289ZM19.49 8.23835C19.8638 8.33719 20.1715 8.67734 20.1716 9.13109L20.1719 16.0007C20.172 17.2557 19.1944 18.3305 17.9183 18.3305C16.6415 18.3305 15.6625 17.2543 15.6624 15.9984C15.6624 15.9984 15.6624 15.9984 15.6624 15.9984L15.6623 14.361C15.6623 14.2142 15.6969 14.0681 15.7649 13.9357L18.4494 8.70585C18.664 8.28782 19.1117 8.1383 19.49 8.23835ZM18.7717 11.1438L17.0623 14.4739L17.0624 15.9984C17.0624 16.5449 17.477 16.9305 17.9183 16.9305C18.3588 16.9305 18.7719 16.5463 18.7719 16.0008L18.7717 11.1438Z" fill="#333333"/>
</svg>
