<svg width="24" height="24" viewBox="0 0 24 24" fill="none" xmlns="http://www.w3.org/2000/svg">
<path d="M10.2979 6.38652C10.2979 6.77312 10.6113 7.08652 10.9979 7.08652L15.3083 7.08652L6.90036 15.4945C6.627 15.7678 6.627 16.2111 6.90036 16.4844C7.17373 16.7578 7.61695 16.7578 7.89031 16.4844L16.2979 8.07689L16.2979 12.3865C16.2979 12.7731 16.6113 13.0865 16.9979 13.0865C17.3845 13.0865 17.6979 12.7731 17.6979 12.3865L17.6979 6.41C17.7041 6.22312 17.6359 6.03422 17.4932 5.89157C17.3958 5.7942 17.2769 5.73151 17.1518 5.70351C17.1023 5.69239 17.0507 5.68652 16.9979 5.68652H10.9979C10.6113 5.68652 10.2979 5.99992 10.2979 6.38652Z" fill="#15C674"/>
<path d="M19.1323 18.782C19.1323 18.3954 18.8189 18.082 18.4323 18.082L5.61982 18.082C5.23322 18.082 4.91982 18.3954 4.91982 18.782C4.91982 19.1686 5.23322 19.482 5.61982 19.482L18.4323 19.482C18.8189 19.482 19.1323 19.1686 19.1323 18.782Z" fill="#15C674"/>
</svg>
