<svg width="24" height="24" viewBox="0 0 24 24" fill="none" xmlns="http://www.w3.org/2000/svg">
<path d="M13.7544 6.38652C13.7544 6.77312 13.441 7.08652 13.0544 7.08652L8.74393 7.08652L17.1519 15.4945C17.4253 15.7678 17.4253 16.2111 17.1519 16.4844C16.8785 16.7578 16.4353 16.7578 16.1619 16.4844L7.75439 8.07689L7.75439 12.3865C7.75439 12.7731 7.44099 13.0865 7.05439 13.0865C6.6678 13.0865 6.3544 12.7731 6.3544 12.3865L6.35439 6.41C6.34817 6.22312 6.41638 6.03422 6.55903 5.89157C6.6564 5.7942 6.77533 5.73151 6.90045 5.70351C6.94999 5.69239 7.00151 5.68652 7.05439 5.68652H13.0544C13.441 5.68652 13.7544 5.99992 13.7544 6.38652Z" fill="#333333"/>
<path d="M4.91992 18.782C4.91992 18.3954 5.23332 18.082 5.61992 18.082L18.4324 18.082C18.819 18.082 19.1324 18.3954 19.1324 18.782C19.1324 19.1686 18.819 19.482 18.4324 19.482L5.61992 19.482C5.23332 19.482 4.91992 19.1686 4.91992 18.782Z" fill="#333333"/>
</svg>
