<svg width="24" height="24" viewBox="0 0 24 24" fill="none" xmlns="http://www.w3.org/2000/svg">
<path d="M8.83105 4.8916C9.21743 4.89187 9.53125 5.20536 9.53125 5.5918C9.53115 5.97815 9.21737 6.29173 8.83105 6.29199H7.40039C6.25688 6.292 5.33009 7.2188 5.33008 8.3623V14.8271C5.33032 15.9705 6.25703 16.8975 7.40039 16.8975H9.09766V19.6836C9.09797 19.8837 9.34148 19.983 9.48145 19.8398L12.3574 16.8975H17.4092C17.6381 16.8973 17.8637 16.838 18.0625 16.7246C18.3674 16.5506 18.5909 16.2617 18.6826 15.9229L18.748 15.6816C18.8491 15.3085 19.2333 15.0874 19.6064 15.1885C19.9792 15.2897 20.1995 15.674 20.0986 16.0469L20.0332 16.2891C19.844 16.9874 19.3844 17.582 18.7559 17.9404C18.3458 18.1743 17.8813 18.2977 17.4092 18.2979H12.9473L10.4824 20.8184C9.46518 21.8589 7.69855 21.1386 7.69824 19.6836V18.2979H7.40039C5.48383 18.2978 3.92896 16.7437 3.92871 14.8271V8.3623C3.92872 6.4456 5.48369 4.89161 7.40039 4.8916H8.83105Z" fill="#15C674"/>
<path d="M14.2305 6.59863C14.8564 6.59863 15.3643 7.10651 15.3643 7.73242C15.3642 8.35833 14.8564 8.86523 14.2305 8.86523C13.6046 8.86515 13.0977 8.35828 13.0977 7.73242C13.0977 7.10656 13.6046 6.59871 14.2305 6.59863Z" fill="#15C674"/>
<path fill-rule="evenodd" clip-rule="evenodd" d="M18.7363 4.2998C19.8204 4.2998 20.6999 5.17868 20.7002 6.2627V12.2383C20.7002 13.3225 19.8206 14.2021 18.7363 14.2021H12.7607C11.6768 14.2018 10.7979 13.3223 10.7979 12.2383V6.2627C10.7981 5.17888 11.6769 4.30012 12.7607 4.2998H18.7363ZM17.8164 10.168C17.4938 9.86965 16.9903 9.88778 16.6895 10.208L14.2529 12.8018H18.7363C19.0474 12.8018 19.2998 12.5493 19.2998 12.2383V11.54L17.8164 10.168ZM12.7607 5.7002C12.4501 5.70051 12.1985 5.95208 12.1982 6.2627V12.2383C12.1982 12.4261 12.2914 12.591 12.4326 12.6934L15.6689 9.24902C16.4963 8.36838 17.8796 8.32021 18.7666 9.14062L19.2998 9.63379V6.2627C19.2996 5.95189 19.0472 5.7002 18.7363 5.7002H12.7607Z" fill="#15C674"/>
</svg>
