<svg width="24" height="24" viewBox="0 0 24 24" fill="none" xmlns="http://www.w3.org/2000/svg">
<path fill-rule="evenodd" clip-rule="evenodd" d="M15.3579 4.93945L8.27869 4.93955C7.66186 4.93956 7.12996 5.37303 7.00546 5.97716L5.97621 10.9716C5.81 11.7781 6.42599 12.534 7.24945 12.534H10.1191C10.1161 12.5585 10.1145 12.5835 10.1145 12.6088V16.3526C10.1145 16.684 10.3831 16.9526 10.7145 16.9526C11.0459 16.9526 11.3145 16.684 11.3145 16.3526V12.6088C11.3145 12.5835 11.3129 12.5585 11.3099 12.534H12.6883C12.6853 12.5585 12.6837 12.5835 12.6837 12.6088V16.3526C12.6837 16.684 12.9523 16.9526 13.2837 16.9526C13.6151 16.9526 13.8837 16.684 13.8837 16.3526V12.6088C13.8837 12.5835 13.8821 12.5585 13.8791 12.534H16.6961C17.5509 12.534 18.173 11.7232 17.9518 10.8976L16.6137 5.90302C16.4614 5.33466 15.9463 4.93945 15.3579 4.93945ZM8.27871 6.13955L15.3579 6.13945C15.4032 6.13945 15.4428 6.16985 15.4545 6.21357L16.7927 11.2081C16.8097 11.2716 16.7619 11.334 16.6961 11.334H7.24945C7.18611 11.334 7.13872 11.2759 7.15151 11.2138L8.18077 6.21937C8.19034 6.17289 8.23126 6.13955 8.27871 6.13955Z" fill="#333333"/>
<path fill-rule="evenodd" clip-rule="evenodd" d="M3.95544 10.6452C3.08409 10.6452 2.41681 11.4203 2.54642 12.282L2.94578 14.9371C3.07082 15.7684 3.4974 16.4889 4.10429 16.9943L3.6897 18.7708C3.61647 19.0846 3.82161 19.4173 4.14789 19.5138C4.47418 19.6103 4.79805 19.4342 4.87129 19.1204L5.22428 17.6079C5.5421 17.7087 5.87971 17.7629 6.22845 17.7629L7.51517 17.7628L8.15022 19.1688C8.28662 19.4708 8.64201 19.6051 8.94401 19.4687C9.246 19.3323 9.38025 18.9769 9.24384 18.6749L8.70458 17.4809C9.04592 17.2384 9.28487 16.8582 9.3374 16.4149C9.44216 15.531 8.77206 14.7451 7.8827 14.7088L7.12073 14.6776C7.09766 14.6767 7.07371 14.6761 7.05609 14.6757L7.04515 14.6754C6.95562 14.6731 6.66487 14.6585 6.39202 14.5809C6.2559 14.5422 6.1549 14.4961 6.09113 14.451C6.0613 14.4299 6.0464 14.4138 6.03982 14.4052C6.0343 14.398 6.03396 14.3955 6.03386 14.3951C5.90126 13.8984 5.54515 12.5249 5.33514 11.7134C5.17242 11.0846 4.60513 10.6452 3.95544 10.6452ZM3.73307 12.1035C3.71261 11.9675 3.81792 11.8452 3.95544 11.8452C4.058 11.8452 4.14768 11.9145 4.17342 12.014C4.3828 12.8231 4.74037 14.2024 4.87447 14.7046C5.05246 15.3713 5.69647 15.6306 6.06375 15.7351C6.48122 15.8538 6.89023 15.8719 7.01461 15.875L7.0325 15.8755C7.04861 15.8759 7.05965 15.8761 7.07176 15.8766L7.83373 15.9078C8.02449 15.9155 8.16821 16.0841 8.14574 16.2737C8.1262 16.4386 7.98641 16.5628 7.82037 16.5628L6.22841 16.5629C5.17957 16.5629 4.28844 15.7958 4.13244 14.7586L3.73307 12.1035Z" fill="#333333"/>
<path fill-rule="evenodd" clip-rule="evenodd" d="M20.0441 10.6453C20.9155 10.6453 21.5828 11.4205 21.4531 12.2821L21.0538 14.9372C20.9287 15.7685 20.5022 16.489 19.8954 16.9944L20.31 18.771C20.3832 19.0848 20.1781 19.4175 19.8518 19.514C19.5255 19.6105 19.2016 19.4344 19.1284 19.1206L18.7754 17.608C18.4575 17.7088 18.1199 17.763 17.7711 17.763L16.4845 17.7629L15.8495 19.169C15.7131 19.471 15.3577 19.6053 15.0557 19.4689C14.7537 19.3325 14.6194 18.9771 14.7558 18.6751L15.2951 17.4811C14.9537 17.2386 14.7147 16.8584 14.6622 16.4151C14.5574 15.5311 15.2275 14.7452 16.1169 14.7089L16.8788 14.6778C16.9019 14.6768 16.9259 14.6762 16.9435 14.6758L16.9544 14.6756C17.0439 14.6733 17.3347 14.6586 17.6075 14.581C17.7437 14.5423 17.8447 14.4963 17.9084 14.4511C17.9383 14.43 17.9532 14.4139 17.9597 14.4053C17.9649 14.3985 17.9655 14.3959 17.9657 14.3953C18.0983 13.8986 18.4544 12.525 18.6644 11.7135C18.8271 11.0847 19.3944 10.6453 20.0441 10.6453ZM20.2665 12.1036C20.287 11.9676 20.1816 11.8453 20.0441 11.8453C19.9416 11.8453 19.8519 11.9147 19.8261 12.0141C19.6168 12.8232 19.2592 14.2025 19.1251 14.7047C18.9471 15.3714 18.3031 15.6308 17.9358 15.7352C17.5183 15.854 17.1093 15.872 16.985 15.8752L16.9671 15.8756C16.951 15.876 16.9399 15.8763 16.9278 15.8768L16.1658 15.9079C15.9751 15.9157 15.8314 16.0842 15.8538 16.2738C15.8734 16.4387 16.0132 16.5629 16.1792 16.5629L17.7712 16.563C18.82 16.563 19.7111 15.7959 19.8671 14.7587L20.2665 12.1036Z" fill="#333333"/>
</svg>
