<svg width="24" height="24" viewBox="0 0 24 24" fill="none" xmlns="http://www.w3.org/2000/svg">
<path fill-rule="evenodd" clip-rule="evenodd" d="M8.54546 4.6178C10.2056 3.84099 12.0789 3.64648 13.8631 4.06551C15.6622 4.44221 17.4081 5.39008 18.5664 6.85373C19.7386 8.33485 20.1496 10.2263 20.1496 11.9996V12.7446C20.1496 14.5203 18.7366 15.6747 17.1051 15.6747C16.1012 15.6747 15.1181 15.2173 14.5342 14.4235C13.8885 15.2011 12.9343 15.6998 11.8511 15.6998C9.85668 15.6998 8.2998 14.0093 8.2998 11.9998C8.2998 9.99031 9.85668 8.2998 11.8511 8.2998C12.6635 8.2998 13.4033 8.5803 13.9949 9.04859V9.01961C13.9949 8.63301 14.3083 8.31961 14.6949 8.31961C15.0815 8.31961 15.3949 8.63301 15.3949 9.01961L15.3949 11.7579C15.3999 11.8379 15.4024 11.9186 15.4024 11.9998C15.4024 12.081 15.3999 12.1617 15.3949 12.2417V12.7446C15.3949 13.6093 16.1296 14.2747 17.1051 14.2747C18.0731 14.2747 18.7496 13.6418 18.7496 12.7446V11.9996C18.7496 10.4164 18.3794 8.87341 17.4686 7.72254C16.5459 6.55667 15.1077 5.7548 13.5685 5.4342L13.5504 5.43019C12.0706 5.08083 10.5161 5.24139 9.13881 5.88584C7.76156 6.53029 6.64225 7.62088 5.96224 8.98092C5.28222 10.341 5.08133 11.8908 5.39211 13.3792C5.7029 14.8677 6.50715 16.2076 7.67457 17.1819C8.84199 18.1562 10.3042 18.7078 11.8242 18.7473C13.3443 18.7868 14.8332 18.3119 16.0496 17.3996C16.3589 17.1676 16.7977 17.2303 17.0296 17.5396C17.2616 17.8489 17.1989 18.2876 16.8896 18.5196C15.4209 19.6212 13.6232 20.1946 11.7879 20.1469C9.95253 20.0992 8.18708 19.4332 6.77753 18.2568C5.36798 17.0804 4.39691 15.4626 4.02167 13.6654C3.64642 11.8682 3.88898 9.99694 4.71004 8.35482C5.5311 6.7127 6.88256 5.39591 8.54546 4.6178ZM13.9949 11.8042C13.9012 10.5973 12.9477 9.6998 11.8511 9.6998C10.6961 9.6998 9.6998 10.6956 9.6998 11.9998C9.6998 13.304 10.6961 14.2998 11.8511 14.2998C12.9477 14.2998 13.9012 13.4023 13.9949 12.1954V11.8042Z" fill="#333333"/>
</svg>
