<svg width="24" height="24" viewBox="0 0 24 24" fill="none" xmlns="http://www.w3.org/2000/svg">
<path d="M16.7295 10.8896C16.9885 10.6025 16.9657 10.1599 16.6787 9.90095C16.3916 9.64199 15.949 9.66477 15.69 9.95183L13.3612 12.5333L11.4132 10.3153C11.2007 10.0734 10.8991 9.92442 10.5685 9.92442C10.238 9.92442 9.93637 10.0734 9.7239 10.3153L7.2639 13.1163C7.00879 13.4067 7.03745 13.849 7.32793 14.1041C7.6184 14.3592 8.06069 14.3306 8.3158 14.0401L10.5685 11.4751L12.5194 13.6963C12.9515 14.1884 13.7226 14.2321 14.1937 13.7006L16.7295 10.8896Z" fill="#333333"/>
<path fill-rule="evenodd" clip-rule="evenodd" d="M11.9998 3.89941C7.52758 3.89941 3.89941 7.5288 3.89941 12.0097C3.89941 13.375 4.24188 14.6692 4.84604 15.7995L4.84553 15.8159C4.84232 15.892 4.82635 16.0065 4.79239 16.1632C4.72456 16.4763 4.60715 16.8607 4.47807 17.271L4.43661 17.4025C4.32474 17.757 4.20781 18.1276 4.13326 18.4326C4.0918 18.6023 4.05423 18.7873 4.04385 18.9574C4.03866 19.0423 4.03821 19.152 4.06025 19.2679C4.08115 19.3778 4.13495 19.5606 4.29192 19.7176C4.55114 19.9768 4.88621 19.9927 5.04377 19.9899C5.2329 19.9865 5.43014 19.9479 5.60441 19.9045C5.93171 19.8231 6.32126 19.687 6.68061 19.5614L6.75786 19.5344C7.15906 19.3944 7.52612 19.269 7.82926 19.1977C7.98015 19.1622 8.08874 19.1467 8.16011 19.1442C8.16858 19.1439 8.17584 19.1438 8.18196 19.1438C9.31693 19.7543 10.6179 20.1002 11.9998 20.1002C16.4714 20.1002 20.1002 16.4714 20.1002 11.9998C20.1002 7.52819 16.4714 3.89941 11.9998 3.89941ZM5.29941 12.0097C5.29941 8.30078 8.302 5.29941 11.9998 5.29941C15.6982 5.29941 18.7002 8.30139 18.7002 11.9998C18.7002 15.6982 15.6982 18.7002 11.9998 18.7002C10.8373 18.7002 9.74911 18.4055 8.80434 17.8887C8.56009 17.7543 8.29813 17.7385 8.11107 17.745C7.91082 17.752 7.70281 17.7892 7.5085 17.8349C7.12124 17.9261 6.68351 18.0776 6.29657 18.2126L6.24701 18.2299C5.99983 18.3162 5.77509 18.3947 5.57673 18.4571C5.63239 18.2658 5.69992 18.0516 5.77291 17.8201L5.81355 17.6911C5.93978 17.2898 6.07707 16.8454 6.16064 16.4597C6.20238 16.2671 6.23628 16.0648 6.24429 15.8749C6.25136 15.7074 6.24488 15.4423 6.11265 15.1985L6.11141 15.1962C5.5941 14.2508 5.29941 13.1623 5.29941 12.0097ZM5.00465 18.5896C5.00494 18.5893 5.0098 18.5892 5.01838 18.5901C5.00865 18.5903 5.00436 18.5898 5.00465 18.5896ZM4.84483 15.7626C4.84474 15.762 4.84486 15.7626 4.84483 15.7626C4.84476 15.7627 4.8449 15.7645 4.84545 15.7679C4.84529 15.7659 4.84495 15.7635 4.84483 15.7626ZM8.20837 19.1453L8.2053 19.1448C8.20741 19.1451 8.2084 19.1452 8.20837 19.1453Z" fill="#333333"/>
</svg>
