<svg width="24" height="24" viewBox="0 0 24 24" fill="none" xmlns="http://www.w3.org/2000/svg">
<path fill-rule="evenodd" clip-rule="evenodd" d="M7.48691 17.0532V19.7069L10.3763 16.8175H17.0001C17.8837 16.8175 18.6001 16.1011 18.6001 15.2175V8C18.6001 7.11634 17.8838 6.4 17.0001 6.4H7C6.11634 6.4 5.4 7.11634 5.4 8V15.2175C5.4 15.9292 5.8657 16.5358 6.51258 16.7423L7.48691 17.0532ZM4 8C4 6.34315 5.34315 5 7 5H17.0001C18.6569 5 20.0001 6.34315 20.0001 8V15.2175C20.0001 16.8743 18.6569 18.2175 17.0001 18.2175H10.9562L8.46203 20.7117C7.58556 21.5881 6.08691 20.9674 6.08691 19.7279V18.076C4.87654 17.6897 4 16.5559 4 15.2175V8Z" fill="#333333"/>
<path fill-rule="evenodd" clip-rule="evenodd" d="M7.47383 9.86914C7.47383 9.48254 7.78723 9.16914 8.17383 9.16914H15.4782C15.8648 9.16914 16.1782 9.48254 16.1782 9.86914C16.1782 10.2557 15.8648 10.5691 15.4782 10.5691H8.17383C7.78723 10.5691 7.47383 10.2557 7.47383 9.86914Z" fill="#333333"/>
<path fill-rule="evenodd" clip-rule="evenodd" d="M7.47383 12.6523C7.47383 12.2657 7.78723 11.9523 8.17383 11.9523H13.7391C14.1257 11.9523 14.4391 12.2657 14.4391 12.6523C14.4391 13.0389 14.1257 13.3523 13.7391 13.3523H8.17383C7.78723 13.3523 7.47383 13.0389 7.47383 12.6523Z" fill="#333333"/>
</svg>
