<svg width="24" height="24" viewBox="0 0 24 24" fill="none" xmlns="http://www.w3.org/2000/svg">
<path fill-rule="evenodd" clip-rule="evenodd" d="M11.9998 5.6998C7.81871 5.6998 4.6998 8.4038 4.6998 11.4397C4.6998 12.906 5.40541 14.2717 6.62066 15.3142C6.93893 15.5872 7.12352 16.0297 7.02176 16.4895C6.85434 17.246 6.62123 18.0064 6.4071 18.6346C7.23026 18.2688 8.304 17.7573 9.38981 17.1426C9.64756 16.9967 9.94526 16.9531 10.2267 17.0085C10.7936 17.1202 11.3874 17.1797 11.9998 17.1797C16.1809 17.1797 19.2998 14.4757 19.2998 11.4397C19.2998 8.4038 16.1809 5.6998 11.9998 5.6998ZM3.2998 11.4397C3.2998 7.36232 7.34434 4.2998 11.9998 4.2998C16.6553 4.2998 20.6998 7.36232 20.6998 11.4397C20.6998 15.5172 16.6553 18.5797 11.9998 18.5797C11.3196 18.5797 10.6568 18.5158 10.0201 18.3945C8.69863 19.1385 7.4086 19.731 6.53803 20.1052C5.51735 20.544 4.60847 19.5121 4.94327 18.5793C5.17011 17.9472 5.43983 17.1203 5.62789 16.3062C4.20443 15.0512 3.2998 13.3459 3.2998 11.4397Z" fill="#333333"/>
</svg>
