<svg width="24" height="24" viewBox="0 0 24 24" fill="none" xmlns="http://www.w3.org/2000/svg">
<path fill-rule="evenodd" clip-rule="evenodd" d="M7 4.86328C5.34315 4.86328 4 6.20643 4 7.86328V11.7642C4 12.8732 4.60177 13.8416 5.49658 14.3608V15.7756C5.49658 17.0151 6.99522 17.6359 7.8717 16.7594L9.72278 14.9083C9.7692 14.8619 9.81141 14.8137 9.84956 14.7642H13.8708C15.5277 14.7642 16.8708 13.421 16.8708 11.7642V11.4342H17.2C17.9732 11.4342 18.6 12.061 18.6 12.8342V15.4511C18.6 15.9875 18.2987 16.4559 17.8495 16.692L17.1009 17.0854V18.7355L15.2165 16.8511H13.0361C12.4885 16.8511 12.0142 16.5366 11.7842 16.0783H10.3067C10.5915 17.3227 11.7054 18.2511 13.0361 18.2511H14.6366L16.1258 19.7402C17.0022 20.6167 18.5009 19.996 18.5009 18.7564V17.9312C19.3922 17.4627 20 16.5279 20 15.4511V12.8342C20 11.2878 18.7464 10.0342 17.2 10.0342H16.8708V7.86328C16.8708 6.20643 15.5277 4.86328 13.8708 4.86328H7ZM6.89658 13.5546L6.19919 13.1499C5.71831 12.8709 5.4 12.3539 5.4 11.7642V7.86328C5.4 6.97963 6.11634 6.26328 7 6.26328H13.8708C14.7545 6.26328 15.4708 6.97963 15.4708 7.86328V11.7642C15.4708 12.6478 14.7545 13.3642 13.8708 13.3642H9.16022L8.73991 13.9105C8.73991 13.9105 8.73692 13.9143 8.73283 13.9184L6.89658 15.7546V13.5546Z" fill="#333333"/>
</svg>
