<svg width="24" height="24" viewBox="0 0 24 24" fill="none" xmlns="http://www.w3.org/2000/svg">
<path fill-rule="evenodd" clip-rule="evenodd" d="M8.62542 6.2011C8.62542 4.34096 10.1334 2.83301 11.9935 2.83301C13.8537 2.83301 15.3616 4.34096 15.3616 6.2011V11.6052C15.3616 13.4654 13.8537 14.9733 11.9935 14.9733C10.1334 14.9733 8.62542 13.4654 8.62542 11.6052V6.2011ZM13.9616 6.2011V11.6052C13.9616 12.6922 13.0805 13.5733 11.9935 13.5733C10.9066 13.5733 10.0254 12.6922 10.0254 11.6052V6.2011C10.0254 5.11415 10.9066 4.23301 11.9935 4.23301C13.0805 4.23301 13.9616 5.11415 13.9616 6.2011Z" fill="#333333"/>
<path d="M6.70069 11.7203C6.70912 11.3338 6.40262 11.0136 6.01611 11.0052C5.6296 10.9968 5.30945 11.3033 5.30102 11.6898C5.24254 14.3724 7.29263 17.985 11.2964 18.3616V19.8654H9.61806C9.23146 19.8654 8.91806 20.1788 8.91806 20.5654C8.91806 20.952 9.23146 21.2654 9.61806 21.2654L14.3752 21.2654C14.7618 21.2654 15.0752 20.952 15.0752 20.5654C15.0752 20.1788 14.7618 19.8654 14.3752 19.8654H12.6964L12.6964 18.3601C16.6883 17.9742 18.8263 14.3523 18.6957 11.6731C18.6769 11.2869 18.3486 10.9892 17.9624 11.008C17.5763 11.0268 17.2785 11.3551 17.2973 11.7412C17.4032 13.9139 15.5029 16.9937 11.9896 16.9937C8.49088 16.9937 6.65193 13.957 6.70069 11.7203Z" fill="#333333"/>
</svg>
