<svg width="24" height="24" viewBox="0 0 24 24" fill="none" xmlns="http://www.w3.org/2000/svg">
<path fill-rule="evenodd" clip-rule="evenodd" d="M11.9931 14.9733C12.5687 14.9733 13.1106 14.8289 13.5845 14.5744L15.0532 16.0432C14.2379 16.6208 13.2109 16.9936 11.9886 16.9936C8.48991 16.9936 6.65095 13.9568 6.69971 11.7201C6.70814 11.3336 6.40164 11.0135 6.01514 11.0051C5.62863 10.9966 5.30847 11.3031 5.30005 11.6896C5.24156 14.3724 7.29181 17.9851 11.2959 18.3615V19.8656H9.61699C9.23039 19.8656 8.91699 20.179 8.91699 20.5656C8.91699 20.9522 9.23039 21.2656 9.61699 21.2656H14.3741C14.7607 21.2656 15.0741 20.9522 15.0741 20.5656C15.0741 20.179 14.7607 19.8656 14.3741 19.8656H12.6959V18.3599C14.028 18.231 15.1537 17.7418 16.0575 17.0474L17.5048 18.4948C17.7782 18.7681 18.2214 18.7681 18.4948 18.4948C18.7681 18.2214 18.7681 17.7782 18.4948 17.5048L6.49478 5.50483C6.22141 5.23146 5.7782 5.23146 5.50483 5.50483C5.23146 5.7782 5.23146 6.22141 5.50483 6.49478L8.625 9.61495V11.6052C8.625 13.4654 10.1329 14.9733 11.9931 14.9733ZM10.025 11.6052V11.0149L12.5138 13.5037C12.3479 13.5491 12.1733 13.5733 11.9931 13.5733C10.9061 13.5733 10.025 12.6922 10.025 11.6052Z" fill="#333333"/>
<path d="M13.9612 11.271V6.2011C13.9612 5.11415 13.08 4.23301 11.9931 4.23301C10.9061 4.23301 10.025 5.11415 10.025 6.2011V7.33486L8.63463 5.94449C8.76574 4.20423 10.2193 2.83301 11.9931 2.83301C13.8532 2.83301 15.3612 4.34096 15.3612 6.2011V11.6052C15.3612 11.9295 15.3154 12.243 15.2299 12.5397L13.9612 11.271Z" fill="#333333"/>
<path d="M18.6947 11.6729C18.7472 12.7499 18.4331 13.9791 17.7795 15.0893L16.7516 14.0615C17.1452 13.2854 17.3316 12.4631 17.2964 11.7411C17.2775 11.3549 17.5753 11.0267 17.9615 11.0078C18.3476 10.989 18.6759 11.2868 18.6947 11.6729Z" fill="#333333"/>
</svg>
