<svg width="24" height="24" viewBox="0 0 24 24" fill="none" xmlns="http://www.w3.org/2000/svg">
<path fill-rule="evenodd" clip-rule="evenodd" d="M16.7551 16.2861C16.8808 16.2583 17.0004 16.1955 17.0982 16.0977C17.2408 15.955 17.3091 15.7661 17.3028 15.5793V9.60273C17.3028 9.21613 16.9894 8.90273 16.6028 8.90273C16.2162 8.90273 15.9028 9.21613 15.9028 9.60273V13.9124L7.49529 5.50483C7.22193 5.23146 6.77871 5.23146 6.50534 5.50483C6.23198 5.7782 6.23198 6.22141 6.50534 6.49478L14.9133 14.9027L10.6028 14.9027C10.2162 14.9027 9.90283 15.2161 9.90283 15.6027C9.90283 15.9893 10.2162 16.3027 10.6028 16.3027H16.6028C16.6551 16.3027 16.706 16.297 16.7551 16.2861ZM4.86572 18.3953C4.86572 18.0087 5.17912 17.6953 5.56572 17.6953L18.3782 17.6953C18.7648 17.6953 19.0782 18.0087 19.0782 18.3953C19.0782 18.7819 18.7648 19.0953 18.3782 19.0953L5.56572 19.0953C5.17912 19.0953 4.86572 18.7819 4.86572 18.3953Z" fill="#333333"/>
</svg>
