<svg width="24" height="24" viewBox="0 0 24 24" fill="none" xmlns="http://www.w3.org/2000/svg">
<path d="M5.56592 17.6953C5.17941 17.6954 4.86572 18.0089 4.86572 18.3955C4.86583 18.7819 5.17947 19.0955 5.56592 19.0957H18.3784C18.765 19.0957 19.0785 18.782 19.0786 18.3955C19.0786 18.0089 18.765 17.6953 18.3784 17.6953H5.56592Z" fill="#15C674"/>
<path d="M17.439 5.50483C17.1656 5.23146 16.7221 5.23146 16.4487 5.50483L8.0415 13.9121V9.60249C8.0414 9.21598 7.72784 8.90229 7.34131 8.90229C6.95486 8.9024 6.64122 9.21604 6.64111 9.60249V15.6025C6.64108 15.7396 6.68217 15.876 6.76221 15.9941C6.81315 16.0693 6.87803 16.134 6.95361 16.1845C6.96544 16.1924 6.97854 16.1979 6.99072 16.205C7.01861 16.2213 7.04649 16.2376 7.07666 16.2499C7.16139 16.2845 7.25117 16.3027 7.34131 16.3027H13.3413C13.7279 16.3027 14.0415 15.9891 14.0415 15.6025C14.0414 15.216 13.7278 14.9023 13.3413 14.9023H9.03174L17.439 6.49506C17.7123 6.2217 17.7123 5.7782 17.439 5.50483Z" fill="#15C674"/>
</svg>
