<svg width="24" height="24" viewBox="0 0 24 24" fill="none" xmlns="http://www.w3.org/2000/svg">
<path d="M6.0249 6.3291C6.0249 4.94839 7.14419 3.8291 8.5249 3.8291H15.476C16.8568 3.8291 17.976 4.94839 17.976 6.3291V9.19974C17.976 9.58634 17.6626 9.89974 17.276 9.89974C16.8894 9.89974 16.576 9.58634 16.576 9.19974V6.3291C16.576 5.72159 16.0835 5.2291 15.476 5.2291H8.5249C7.91739 5.2291 7.4249 5.72159 7.4249 6.3291V17.6705C7.4249 18.278 7.91739 18.7705 8.5249 18.7705H15.8926C16.2792 18.7705 16.5926 19.0839 16.5926 19.4705C16.5926 19.8571 16.2792 20.1705 15.8926 20.1705H8.5249C7.14419 20.1705 6.0249 19.0512 6.0249 17.6705V6.3291Z" fill="#333333"/>
<path d="M9.44629 6.4998C9.44629 6.11321 9.75969 5.7998 10.1463 5.7998H13.8553C14.2419 5.7998 14.5553 6.11321 14.5553 6.4998C14.5553 6.8864 14.2419 7.1998 13.8553 7.1998H10.1463C9.75969 7.1998 9.44629 6.8864 9.44629 6.4998Z" fill="#333333"/>
<path fill-rule="evenodd" clip-rule="evenodd" d="M14.4508 9.42018C14.136 8.56958 12.933 8.56957 12.6182 9.42018L11.9899 11.1183C11.9392 11.2551 11.8313 11.363 11.6944 11.4137L9.99635 12.042C9.14575 12.3568 9.14574 13.5599 9.99635 13.8746L11.6944 14.503C11.8313 14.5536 11.9392 14.6615 11.9899 14.7984L12.6182 16.4965C12.933 17.3471 14.136 17.3471 14.4508 16.4965L15.0791 14.7984C15.1298 14.6615 15.2377 14.5536 15.3746 14.503L17.0727 13.8746C17.9233 13.5599 17.9233 12.3568 17.0727 12.042L15.3746 11.4137C15.2377 11.363 15.1298 11.2551 15.0791 11.1183L14.4508 9.42018ZM13.3028 11.6041L13.5345 10.9781L13.7662 11.6041C13.9586 12.1242 14.3686 12.5342 14.8887 12.7267L15.5147 12.9583L14.8887 13.19C14.3686 13.3824 13.9586 13.7925 13.7662 14.3125L13.5345 14.9386L13.3028 14.3125C13.1104 13.7925 12.7004 13.3824 12.1803 13.19L11.5543 12.9583L12.1803 12.7267C12.7004 12.5342 13.1104 12.1242 13.3028 11.6041Z" fill="#333333"/>
<path d="M18.7301 15.3798C18.4724 14.6833 17.4873 14.6833 17.2296 15.3798L17.0584 15.8425L16.5956 16.0138C15.8991 16.2715 15.8991 17.2566 16.5956 17.5143L17.0584 17.6856L17.2296 18.1483C17.4873 18.8448 18.4724 18.8448 18.7301 18.1483L18.9014 17.6856L19.3641 17.5143C20.0606 17.2566 20.0606 16.2715 19.3641 16.0138L18.9014 15.8425L18.7301 15.3798Z" fill="#333333"/>
</svg>
