<svg width="24" height="24" viewBox="0 0 24 24" fill="none" xmlns="http://www.w3.org/2000/svg">
<path d="M9.44531 6.36797C9.44531 5.98137 9.75871 5.66797 10.1453 5.66797H13.8543C14.2409 5.66797 14.5543 5.98137 14.5543 6.36797C14.5543 6.75457 14.2409 7.06797 13.8543 7.06797H10.1453C9.75871 7.06797 9.44531 6.75457 9.44531 6.36797Z" fill="#333333"/>
<path d="M13.2507 17.0584C13.2507 17.7492 12.6907 18.3093 11.9999 18.3093C11.3091 18.3093 10.749 17.7492 10.749 17.0584C10.749 16.3677 11.3091 15.8076 11.9999 15.8076C12.6907 15.8076 13.2507 16.3677 13.2507 17.0584Z" fill="#333333"/>
<path fill-rule="evenodd" clip-rule="evenodd" d="M6.20703 6.3291C6.20703 4.94839 7.32632 3.8291 8.70703 3.8291H15.2921C16.6728 3.8291 17.7921 4.94839 17.7921 6.3291V17.6705C17.7921 19.0512 16.6728 20.1705 15.2921 20.1705H8.70703C7.32632 20.1705 6.20703 19.0512 6.20703 17.6705V6.3291ZM8.70703 5.2291C8.09952 5.2291 7.60703 5.72159 7.60703 6.3291V17.6705C7.60703 18.278 8.09952 18.7705 8.70703 18.7705H15.2921C15.8996 18.7705 16.3921 18.278 16.3921 17.6705V6.3291C16.3921 5.72159 15.8996 5.2291 15.2921 5.2291H8.70703Z" fill="#333333"/>
</svg>
