<svg width="24" height="24" viewBox="0 0 24 24" fill="none" xmlns="http://www.w3.org/2000/svg">
<path d="M6.07031 6.3291C6.07031 4.94839 7.1896 3.8291 8.57031 3.8291H15.1554C16.5361 3.8291 17.6554 4.94839 17.6554 6.3291V6.54121C17.6554 6.92781 17.342 7.24121 16.9554 7.24121C16.5688 7.24121 16.2554 6.92781 16.2554 6.54121V6.3291C16.2554 5.72159 15.7629 5.2291 15.1554 5.2291H8.57031C7.9628 5.2291 7.47031 5.72159 7.47031 6.3291V17.6705C7.47031 18.278 7.9628 18.7705 8.57031 18.7705H13.62C14.0066 18.7705 14.32 19.0839 14.32 19.4705C14.32 19.8571 14.0066 20.1705 13.62 20.1705H8.57031C7.1896 20.1705 6.07031 19.0512 6.07031 17.6705V6.3291Z" fill="#333333"/>
<path d="M9.30859 6.4998C9.30859 6.11321 9.62199 5.7998 10.0086 5.7998H13.7176C14.1042 5.7998 14.4176 6.11321 14.4176 6.4998C14.4176 6.8864 14.1042 7.1998 13.7176 7.1998H10.0086C9.62199 7.1998 9.30859 6.8864 9.30859 6.4998Z" fill="#333333"/>
<path fill-rule="evenodd" clip-rule="evenodd" d="M9.55758 12.6589C9.2029 12.9614 9.05555 13.442 9.17968 13.8913L10.0047 16.8778C10.2385 17.7241 11.2722 18.0411 11.9402 17.4713L13.6811 15.9862L16.9592 19.8292C17.3893 20.3335 18.1468 20.3935 18.651 19.9634L19.9066 18.8924C20.4108 18.4623 20.4709 17.7048 20.0408 17.2006L16.7626 13.3576L18.2752 12.0673C18.7794 11.6372 18.8395 10.8798 18.4094 10.3756L16.5873 8.23959C16.1572 7.73538 15.3998 7.6753 14.8956 8.10541L9.55758 12.6589ZM11.2705 16.2023L10.5631 13.6413L15.652 9.30033L17.2144 11.132L15.7019 12.4223C15.1976 12.8524 15.1376 13.6098 15.5677 14.114L18.8458 17.957L17.8946 18.7685L14.6164 14.9255C14.1863 14.4213 13.4289 14.3612 12.9246 14.7913L11.2705 16.2023Z" fill="#333333"/>
</svg>
