<svg width="24" height="24" viewBox="0 0 24 24" fill="none" xmlns="http://www.w3.org/2000/svg">
<path d="M15.292 3.8291C16.6726 3.8291 17.7919 4.94848 17.792 6.3291V9.80566C17.792 10.1921 17.4791 10.5056 17.0928 10.5059C16.7062 10.5059 16.3926 10.1923 16.3926 9.80566V6.3291C16.3925 5.72168 15.8994 5.22949 15.292 5.22949H8.70703C8.09967 5.2296 7.60753 5.72174 7.60742 6.3291V17.6709C7.60753 18.2783 8.09967 18.7704 8.70703 18.7705H16.0156C16.4022 18.7705 16.7158 19.0841 16.7158 19.4707C16.7158 19.8573 16.4022 20.1709 16.0156 20.1709H8.70703C7.32647 20.1708 6.20714 19.0515 6.20703 17.6709V6.3291C6.20714 4.94854 7.32647 3.82921 8.70703 3.8291H15.292Z" fill="#15C674"/>
<path d="M19.5967 11.5391C19.8514 11.2483 20.2941 11.2189 20.585 11.4736C20.8753 11.7283 20.9046 12.1702 20.6504 12.4609L16.8965 16.7471C16.6435 17.0355 16.2052 17.0664 15.9141 16.8164L13.6055 14.834C13.3122 14.5821 13.2784 14.14 13.5303 13.8467C13.7821 13.5535 14.2243 13.5197 14.5176 13.7715L16.2998 15.3027L19.5967 11.5391Z" fill="#15C674"/>
<path d="M13.8545 5.66797C14.2411 5.66797 14.5547 5.98156 14.5547 6.36816C14.5547 6.75474 14.2411 7.06836 13.8545 7.06836H10.1455C9.75893 7.06836 9.44535 6.75474 9.44531 6.36816C9.44531 5.98156 9.75891 5.66797 10.1455 5.66797H13.8545Z" fill="#15C674"/>
</svg>
