<svg width="24" height="24" viewBox="0 0 24 24" fill="none" xmlns="http://www.w3.org/2000/svg">
<path d="M5.90039 6.3291C5.90039 4.94839 7.01968 3.8291 8.40039 3.8291H14.9854C16.3662 3.8291 17.4854 4.94839 17.4854 6.3291V7.15364C17.4854 7.54024 17.172 7.85364 16.7854 7.85364C16.3988 7.85364 16.0854 7.54024 16.0854 7.15364V6.3291C16.0854 5.72159 15.593 5.2291 14.9854 5.2291H8.40039C7.79288 5.2291 7.30039 5.72159 7.30039 6.3291V17.6705C7.30039 18.278 7.79288 18.7705 8.40039 18.7705H14.368C14.7546 18.7705 15.068 19.0839 15.068 19.4705C15.068 19.8571 14.7546 20.1705 14.368 20.1705H8.40039C7.01968 20.1705 5.90039 19.0512 5.90039 17.6705V6.3291Z" fill="#333333"/>
<path d="M9.13867 6.4998C9.13867 6.11321 9.45207 5.7998 9.83867 5.7998H13.5477C13.9343 5.7998 14.2477 6.11321 14.2477 6.4998C14.2477 6.8864 13.9343 7.1998 13.5477 7.1998H9.83867C9.45207 7.1998 9.13867 6.8864 9.13867 6.4998Z" fill="#333333"/>
<path fill-rule="evenodd" clip-rule="evenodd" d="M11.7751 11.707C11.4809 11.4128 11.0684 11.2999 10.6885 11.3864C10.2936 11.4763 9.94845 11.783 9.85624 12.2447C9.58546 13.6004 9.99302 15.0741 11.0561 16.1372C12.1879 17.269 13.7854 17.6581 15.2109 17.2758L16.7705 18.8354C17.5864 19.6513 18.9092 19.6513 19.725 18.8354C20.5409 18.0196 20.5409 16.6968 19.725 15.8809L18.1242 14.2801C18.458 12.8832 18.0604 11.3385 16.9576 10.2357C15.9348 9.21286 14.5319 8.79694 13.22 9.00792C12.747 9.08397 12.4249 9.42672 12.3265 9.82708C12.2321 10.2114 12.3434 10.6324 12.6428 10.9317L13.6868 11.9757C13.9136 12.2025 13.9136 12.5703 13.6868 12.7972C13.4599 13.024 13.0921 13.024 12.8653 12.7972L11.7751 11.707ZM12.0461 15.1472C11.4685 14.5697 11.1795 13.8222 11.175 13.0868L11.8753 13.7871C12.6489 14.5607 13.9031 14.5607 14.6767 13.7871C15.4503 13.0135 15.4503 11.7593 14.6767 10.9857L14.05 10.359C14.7387 10.3977 15.4275 10.6855 15.9677 11.2257C16.7358 11.9938 16.9933 13.0623 16.7506 14.0028C16.6495 14.3944 16.7276 14.8633 17.0643 15.2001L18.7351 16.8708C19.0042 17.14 19.0042 17.5764 18.7351 17.8455C18.466 18.1146 18.0296 18.1146 17.7604 17.8455L16.1289 16.2139C15.782 15.867 15.2963 15.7949 14.897 15.91C13.9393 16.186 12.8345 15.9356 12.0461 15.1472Z" fill="#333333"/>
</svg>
