<svg width="24" height="24" viewBox="0 0 24 24" fill="none" xmlns="http://www.w3.org/2000/svg">
<path fill-rule="evenodd" clip-rule="evenodd" d="M10.3864 13.9493C10.4527 14.3302 10.1977 14.6927 9.81685 14.759C8.42982 15.0004 7.50047 15.5773 6.8962 16.2889C6.34152 16.942 6.02763 17.7481 5.91752 18.6034H9.65266C10.0393 18.6034 10.3527 18.9168 10.3527 19.3034C10.3527 19.69 10.0393 20.0034 9.65266 20.0034H5.67283C5.02694 20.0034 4.43692 19.4683 4.49519 18.7476C4.59097 17.5629 4.99487 16.3649 5.82909 15.3826C6.66898 14.3936 7.90527 13.6707 9.57676 13.3797C9.95763 13.3134 10.3201 13.5684 10.3864 13.9493Z" fill="#333333"/>
<path fill-rule="evenodd" clip-rule="evenodd" d="M10.9684 5.3361C10.6921 5.4277 10.4966 5.53477 10.4158 5.59425C9.59181 6.20081 9.17064 7.5305 9.46583 8.87527C9.74973 10.1686 10.5544 10.9419 11.6648 10.9419C12.3762 10.9419 12.8973 10.6411 13.2824 10.1471C13.6928 9.62061 13.9513 8.85695 13.9709 8.0393C13.9905 7.22041 13.7681 6.48414 13.3889 5.98745C13.0425 5.53381 12.5147 5.20371 11.6648 5.20371C11.4918 5.20371 11.2402 5.24601 10.9684 5.3361ZM9.58583 4.46679C6.79257 6.52299 7.71959 12.3419 11.6648 12.3419C16.4013 12.3419 16.8102 3.80371 11.6648 3.80371C10.9412 3.80371 10.0497 4.12536 9.58583 4.46679Z" fill="#333333"/>
<path fill-rule="evenodd" clip-rule="evenodd" d="M16.178 12.5217C16.418 12.5217 16.6412 12.6446 16.7695 12.8474L18.136 15.0074L20.0998 14.598C20.3241 14.5512 20.5571 14.6172 20.7236 14.7747C20.8901 14.9321 20.969 15.1611 20.9349 15.3876L20.3219 19.4523C20.2702 19.7948 19.976 20.048 19.6297 20.048L12.6911 20.0478C12.3426 20.0478 12.0472 19.7914 11.9981 19.4463L11.4202 15.3818C11.3881 15.156 11.4681 14.9286 11.6345 14.7726C11.8009 14.6166 12.0328 14.5514 12.2561 14.598L14.22 15.0074L15.5864 12.8474C15.7147 12.6446 15.938 12.5217 16.178 12.5217ZM16.178 14.531L15.1437 16.1659C14.9876 16.4126 14.6949 16.5365 14.4092 16.477L12.9467 16.1721L13.2987 18.6478L19.0274 18.6479L19.4005 16.1739L17.9467 16.477C17.661 16.5365 17.3683 16.4126 17.2123 16.1659L16.178 14.531Z" fill="#333333"/>
</svg>
