<svg width="24" height="24" viewBox="0 0 24 24" fill="none" xmlns="http://www.w3.org/2000/svg">
<path d="M12.6264 8.95968C12.5491 8.68704 12.2984 8.4873 12.001 8.4873C11.7081 8.4873 11.4604 8.68106 11.3792 8.94739C11.0136 9.02304 10.6775 9.17007 10.4009 9.39324C9.96017 9.74889 9.70293 10.2782 9.74963 10.8835C9.79314 11.4476 10.0845 11.8895 10.5126 12.1875C10.9163 12.4686 11.4275 12.6154 11.9587 12.6823C12.3711 12.7343 12.6268 12.8364 12.7636 12.9388C12.8678 13.0167 12.9127 13.0958 12.9127 13.2403C12.9127 13.4195 12.8543 13.5147 12.7664 13.5834C12.6565 13.6693 12.4232 13.7689 11.9919 13.7689C11.5491 13.7689 11.3199 13.6665 11.2041 13.5843C11.0894 13.5028 11.0274 13.3998 10.9923 13.2919C10.8726 12.9243 10.4776 12.7233 10.11 12.843C9.74235 12.9627 9.54136 13.3577 9.66104 13.7253C9.77028 14.0608 9.98818 14.438 10.3936 14.7258C10.6705 14.9224 11.007 15.0576 11.4045 15.1232C11.505 15.3523 11.7338 15.5123 12 15.5123C12.2676 15.5123 12.4974 15.3505 12.5971 15.1195C12.9843 15.0524 13.3374 14.9139 13.6284 14.6865C14.0875 14.3278 14.3127 13.8087 14.3127 13.2403C14.3127 12.6372 14.0457 12.1495 13.6023 11.8178C13.1916 11.5105 12.664 11.3601 12.1337 11.2933C11.7222 11.2415 11.4596 11.141 11.3125 11.0385C11.1897 10.9531 11.1531 10.8753 11.1455 10.7758C11.1366 10.6609 11.1737 10.5686 11.2801 10.4828C11.4014 10.3849 11.6342 10.2865 11.9919 10.2865C12.454 10.2865 12.7492 10.4766 12.9057 10.8324C13.0613 11.1863 13.4744 11.347 13.8283 11.1913C14.1822 11.0357 14.3429 10.6227 14.1872 10.2688C13.872 9.55196 13.2992 9.12121 12.6264 8.95968Z" fill="#333333"/>
<path d="M6.56885 12.0224C6.56885 11.5807 6.92691 11.2227 7.3686 11.2227C7.8103 11.2227 8.16836 11.5807 8.16836 12.0224C8.16836 12.4641 7.8103 12.8222 7.3686 12.8222C6.92691 12.8222 6.56885 12.4641 6.56885 12.0224Z" fill="#333333"/>
<path d="M15.832 12.0224C15.832 11.5807 16.1901 11.2227 16.6318 11.2227C17.0735 11.2227 17.4315 11.5807 17.4315 12.0224C17.4315 12.4641 17.0735 12.8222 16.6318 12.8222C16.1901 12.8222 15.832 12.4641 15.832 12.0224Z" fill="#333333"/>
<path fill-rule="evenodd" clip-rule="evenodd" d="M6.05205 5.99023C4.83702 5.99023 3.85205 6.97521 3.85205 8.19024V15.8092C3.85205 17.0242 4.83702 18.0092 6.05205 18.0092H17.9476C19.1626 18.0092 20.1476 17.0242 20.1476 15.8092V8.19023C20.1476 6.97521 19.1626 5.99023 17.9476 5.99023H6.05205ZM5.25205 8.19024C5.25205 7.74841 5.61022 7.39023 6.05205 7.39023H17.9476C18.3894 7.39023 18.7476 7.74841 18.7476 8.19023V15.8092C18.7476 16.251 18.3894 16.6092 17.9476 16.6092H6.05205C5.61022 16.6092 5.25205 16.251 5.25205 15.8092V8.19024Z" fill="#333333"/>
</svg>
