<svg width="24" height="24" viewBox="0 0 24 24" fill="none" xmlns="http://www.w3.org/2000/svg">
<path fill-rule="evenodd" clip-rule="evenodd" d="M17.4325 15.7496C16.9195 15.8594 16.3878 15.9171 15.8436 15.9171C11.6678 15.9171 8.28262 12.532 8.28262 8.35612C8.28262 7.67171 8.37389 7.00724 8.54521 6.37492C6.65719 7.5371 5.4 9.62295 5.4 12C5.4 15.6451 8.35492 18.6 12 18.6C14.2508 18.6 16.2407 17.473 17.4325 15.7496ZM18.1594 14.0671C18.842 13.79 19.6962 14.3127 19.4202 14.9957C18.2345 17.9298 15.359 20 12 20C7.58172 20 4 16.4183 4 12C4 8.49044 6.25989 5.50872 9.40385 4.43065C10.1007 4.19171 10.5775 5.07283 10.2642 5.73955C9.89114 6.53375 9.68262 7.42058 9.68262 8.35612C9.68262 11.7588 12.441 14.5171 15.8436 14.5171C16.6627 14.5171 17.4445 14.3573 18.1594 14.0671Z" fill="#333333"/>
</svg>
