<svg width="24" height="24" viewBox="0 0 24 24" fill="none" xmlns="http://www.w3.org/2000/svg">
<path fill-rule="evenodd" clip-rule="evenodd" d="M11.9986 9.48138C10.8468 9.48138 9.91315 8.54771 9.91315 7.39596C9.91315 6.24422 10.8468 5.31055 11.9986 5.31055C13.1503 5.31055 14.084 6.24422 14.084 7.39596C14.084 8.54771 13.1503 9.48138 11.9986 9.48138ZM11.1132 7.39596C11.1132 7.88497 11.5096 8.28138 11.9986 8.28138C12.4876 8.28138 12.884 7.88497 12.884 7.39596C12.884 6.90696 12.4876 6.51055 11.9986 6.51055C11.5096 6.51055 11.1132 6.90696 11.1132 7.39596Z" fill="#15C674"/>
<path fill-rule="evenodd" clip-rule="evenodd" d="M11.9986 14.0859C10.8468 14.0859 9.91315 13.1522 9.91315 12.0005C9.91315 10.8487 10.8468 9.91504 11.9986 9.91504C13.1503 9.91504 14.084 10.8487 14.084 12.0005C14.084 13.1522 13.1503 14.0859 11.9986 14.0859ZM11.1132 12.0005C11.1132 12.4895 11.5096 12.8859 11.9986 12.8859C12.4876 12.8859 12.884 12.4895 12.884 12.0005C12.884 11.5115 12.4876 11.115 11.9986 11.115C11.5096 11.115 11.1132 11.5115 11.1132 12.0005Z" fill="#15C674"/>
<path fill-rule="evenodd" clip-rule="evenodd" d="M9.91315 16.604C9.91315 17.7557 10.8468 18.6894 11.9986 18.6894C13.1503 18.6894 14.084 17.7557 14.084 16.604C14.084 15.4522 13.1503 14.5186 11.9986 14.5186C10.8468 14.5186 9.91315 15.4522 9.91315 16.604ZM11.9986 17.4894C11.5096 17.4894 11.1132 17.093 11.1132 16.604C11.1132 16.115 11.5096 15.7186 11.9986 15.7186C12.4876 15.7186 12.884 16.115 12.884 16.604C12.884 17.093 12.4876 17.4894 11.9986 17.4894Z" fill="#15C674"/>
</svg>
