<svg width="24" height="24" viewBox="0 0 24 24" fill="none" xmlns="http://www.w3.org/2000/svg">
<path fill-rule="evenodd" clip-rule="evenodd" d="M11.9994 8.14961C10.5359 8.14961 9.34941 6.96316 9.34941 5.49961C9.34941 4.03605 10.5359 2.84961 11.9994 2.84961C13.463 2.84961 14.6494 4.03605 14.6494 5.49961C14.6494 6.96316 13.463 8.14961 11.9994 8.14961ZM10.7494 5.49961C10.7494 6.18997 11.3091 6.74961 11.9994 6.74961C12.6898 6.74961 13.2494 6.18997 13.2494 5.49961C13.2494 4.80925 12.6898 4.24961 11.9994 4.24961C11.3091 4.24961 10.7494 4.80925 10.7494 5.49961Z" fill="#15C674"/>
<path fill-rule="evenodd" clip-rule="evenodd" d="M11.9994 14.6496C10.5359 14.6496 9.34941 13.4632 9.34941 11.9996C9.34941 10.5361 10.5359 9.34961 11.9994 9.34961C13.463 9.34961 14.6494 10.5361 14.6494 11.9996C14.6494 13.4632 13.463 14.6496 11.9994 14.6496ZM10.7494 11.9996C10.7494 12.69 11.3091 13.2496 11.9994 13.2496C12.6898 13.2496 13.2494 12.69 13.2494 11.9996C13.2494 11.3093 12.6898 10.7496 11.9994 10.7496C11.3091 10.7496 10.7494 11.3093 10.7494 11.9996Z" fill="#15C674"/>
<path fill-rule="evenodd" clip-rule="evenodd" d="M9.34941 18.4996C9.34941 19.9632 10.5359 21.1496 11.9994 21.1496C13.463 21.1496 14.6494 19.9632 14.6494 18.4996C14.6494 17.0361 13.463 15.8496 11.9994 15.8496C10.5359 15.8496 9.34941 17.0361 9.34941 18.4996ZM11.9994 19.7496C11.3091 19.7496 10.7494 19.19 10.7494 18.4996C10.7494 17.8093 11.3091 17.2496 11.9994 17.2496C12.6898 17.2496 13.2494 17.8093 13.2494 18.4996C13.2494 19.19 12.6898 19.7496 11.9994 19.7496Z" fill="#15C674"/>
</svg>
