<svg width="24" height="24" viewBox="0 0 24 24" fill="none" xmlns="http://www.w3.org/2000/svg">
<path fill-rule="evenodd" clip-rule="evenodd" d="M12.0014 9.14362C10.7369 9.14362 9.71185 8.11854 9.71185 6.85404C9.71185 5.58953 10.7369 4.56445 12.0014 4.56445C13.2659 4.56445 14.291 5.58953 14.291 6.85404C14.291 8.11854 13.2659 9.14362 12.0014 9.14362ZM11.0118 6.85404C11.0118 7.40057 11.4549 7.84362 12.0014 7.84362C12.548 7.84362 12.991 7.40057 12.991 6.85404C12.991 6.3075 12.548 5.86445 12.0014 5.86445C11.4549 5.86445 11.0118 6.3075 11.0118 6.85404Z" fill="#15C674"/>
<path fill-rule="evenodd" clip-rule="evenodd" d="M12.0014 19.4356C10.7369 19.4356 9.71185 18.4105 9.71185 17.146C9.71185 15.8815 10.7369 14.8564 12.0014 14.8564C13.2659 14.8564 14.291 15.8815 14.291 17.146C14.291 18.4105 13.2659 19.4356 12.0014 19.4356ZM11.0118 17.146C11.0118 17.6926 11.4549 18.1356 12.0014 18.1356C12.548 18.1356 12.991 17.6926 12.991 17.146C12.991 16.5995 12.548 16.1564 12.0014 16.1564C11.4549 16.1564 11.0118 16.5995 11.0118 17.146Z" fill="#15C674"/>
<path fill-rule="evenodd" clip-rule="evenodd" d="M9.71185 11.9995C9.71185 13.264 10.7369 14.2891 12.0014 14.2891C13.2659 14.2891 14.291 13.264 14.291 11.9995C14.291 10.735 13.2659 9.70996 12.0014 9.70996C10.7369 9.70996 9.71185 10.735 9.71185 11.9995ZM12.0014 12.9891C11.4549 12.9891 11.0118 12.5461 11.0118 11.9995C11.0118 11.453 11.4549 11.01 12.0014 11.01C12.548 11.01 12.991 11.453 12.991 11.9995C12.991 12.5461 12.548 12.9891 12.0014 12.9891Z" fill="#15C674"/>
</svg>
