<svg width="24" height="24" viewBox="0 0 24 24" fill="none" xmlns="http://www.w3.org/2000/svg">
<path fill-rule="evenodd" clip-rule="evenodd" d="M9.95456 12.0007C9.95456 12.9822 9.15893 13.7778 8.17747 13.7778C7.19602 13.7778 6.40039 12.9822 6.40039 12.0007C6.40039 11.0193 7.19602 10.2236 8.17747 10.2236C9.15893 10.2236 9.95456 11.0193 9.95456 12.0007ZM8.17747 12.6778C8.55142 12.6778 8.85456 12.3747 8.85456 12.0007C8.85456 11.6268 8.55142 11.3236 8.17747 11.3236C7.80353 11.3236 7.50039 11.6268 7.50039 12.0007C7.50039 12.3747 7.80353 12.6778 8.17747 12.6778Z" fill="#333333"/>
<path fill-rule="evenodd" clip-rule="evenodd" d="M13.7778 12.0007C13.7778 12.9822 12.9822 13.7778 12.0007 13.7778C11.0193 13.7778 10.2236 12.9822 10.2236 12.0007C10.2236 11.0193 11.0193 10.2236 12.0007 10.2236C12.9822 10.2236 13.7778 11.0193 13.7778 12.0007ZM12.0007 12.6778C12.3747 12.6778 12.6778 12.3747 12.6778 12.0007C12.6778 11.6268 12.3747 11.3236 12.0007 11.3236C11.6268 11.3236 11.3236 11.6268 11.3236 12.0007C11.3236 12.3747 11.6268 12.6778 12.0007 12.6778Z" fill="#333333"/>
<path fill-rule="evenodd" clip-rule="evenodd" d="M15.8279 13.7778C16.8093 13.7778 17.6049 12.9822 17.6049 12.0007C17.6049 11.0193 16.8093 10.2236 15.8279 10.2236C14.8464 10.2236 14.0508 11.0193 14.0508 12.0007C14.0508 12.9822 14.8464 13.7778 15.8279 13.7778ZM16.5049 12.0007C16.5049 12.3747 16.2018 12.6778 15.8279 12.6778C15.4539 12.6778 15.1508 12.3747 15.1508 12.0007C15.1508 11.6268 15.4539 11.3236 15.8279 11.3236C16.2018 11.3236 16.5049 11.6268 16.5049 12.0007Z" fill="#333333"/>
</svg>
