<svg width="24" height="24" viewBox="0 0 24 24" fill="none" xmlns="http://www.w3.org/2000/svg">
<path fill-rule="evenodd" clip-rule="evenodd" d="M9.1446 12.0005C9.1446 13.265 8.11951 14.2901 6.85501 14.2901C5.59051 14.2901 4.56543 13.265 4.56543 12.0005C4.56543 10.736 5.59051 9.71094 6.85501 9.71094C8.11951 9.71094 9.1446 10.736 9.1446 12.0005ZM6.85501 12.9901C7.40154 12.9901 7.8446 12.5471 7.8446 12.0005C7.8446 11.454 7.40154 11.0109 6.85501 11.0109C6.30848 11.0109 5.86543 11.454 5.86543 12.0005C5.86543 12.5471 6.30848 12.9901 6.85501 12.9901Z" fill="#333333"/>
<path fill-rule="evenodd" clip-rule="evenodd" d="M19.4366 12.0005C19.4366 13.265 18.4115 14.2901 17.147 14.2901C15.8825 14.2901 14.8574 13.265 14.8574 12.0005C14.8574 10.736 15.8825 9.71094 17.147 9.71094C18.4115 9.71094 19.4366 10.736 19.4366 12.0005ZM17.147 12.9901C17.6935 12.9901 18.1366 12.5471 18.1366 12.0005C18.1366 11.454 17.6935 11.0109 17.147 11.0109C16.6005 11.0109 16.1574 11.454 16.1574 12.0005C16.1574 12.5471 16.6005 12.9901 17.147 12.9901Z" fill="#333333"/>
<path fill-rule="evenodd" clip-rule="evenodd" d="M12.0005 14.2901C13.265 14.2901 14.2901 13.265 14.2901 12.0005C14.2901 10.736 13.265 9.71094 12.0005 9.71094C10.736 9.71094 9.71094 10.736 9.71094 12.0005C9.71094 13.265 10.736 14.2901 12.0005 14.2901ZM12.9901 12.0005C12.9901 12.5471 12.5471 12.9901 12.0005 12.9901C11.454 12.9901 11.0109 12.5471 11.0109 12.0005C11.0109 11.454 11.454 11.0109 12.0005 11.0109C12.5471 11.0109 12.9901 11.454 12.9901 12.0005Z" fill="#333333"/>
</svg>
