<svg width="24" height="24" viewBox="0 0 24 24" fill="none" xmlns="http://www.w3.org/2000/svg">
<path fill-rule="evenodd" clip-rule="evenodd" d="M9.4804 11.9995C9.4804 13.1512 8.54673 14.0849 7.39499 14.0849C6.24324 14.0849 5.30957 13.1512 5.30957 11.9995C5.30957 10.8477 6.24324 9.91406 7.39499 9.91406C8.54673 9.91406 9.4804 10.8477 9.4804 11.9995ZM7.39499 12.8849C7.88399 12.8849 8.2804 12.4885 8.2804 11.9995C8.2804 11.5105 7.88399 11.1141 7.39499 11.1141C6.90598 11.1141 6.50957 11.5105 6.50957 11.9995C6.50957 12.4885 6.90598 12.8849 7.39499 12.8849Z" fill="#333333"/>
<path fill-rule="evenodd" clip-rule="evenodd" d="M14.0849 11.9995C14.0849 13.1512 13.1512 14.0849 11.9995 14.0849C10.8477 14.0849 9.91406 13.1512 9.91406 11.9995C9.91406 10.8477 10.8477 9.91406 11.9995 9.91406C13.1512 9.91406 14.0849 10.8477 14.0849 11.9995ZM11.9995 12.8849C12.4885 12.8849 12.8849 12.4885 12.8849 11.9995C12.8849 11.5105 12.4885 11.1141 11.9995 11.1141C11.5105 11.1141 11.1141 11.5105 11.1141 11.9995C11.1141 12.4885 11.5105 12.8849 11.9995 12.8849Z" fill="#333333"/>
<path fill-rule="evenodd" clip-rule="evenodd" d="M16.603 14.0849C17.7547 14.0849 18.6884 13.1512 18.6884 11.9995C18.6884 10.8477 17.7547 9.91406 16.603 9.91406C15.4513 9.91406 14.5176 10.8477 14.5176 11.9995C14.5176 13.1512 15.4513 14.0849 16.603 14.0849ZM17.4884 11.9995C17.4884 12.4885 17.092 12.8849 16.603 12.8849C16.114 12.8849 15.7176 12.4885 15.7176 11.9995C15.7176 11.5105 16.114 11.1141 16.603 11.1141C17.092 11.1141 17.4884 11.5105 17.4884 11.9995Z" fill="#333333"/>
</svg>
