<svg width="24" height="24" viewBox="0 0 24 24" fill="none" xmlns="http://www.w3.org/2000/svg">
<path fill-rule="evenodd" clip-rule="evenodd" d="M8.14961 11.9996C8.14961 13.4632 6.96316 14.6496 5.49961 14.6496C4.03605 14.6496 2.84961 13.4632 2.84961 11.9996C2.84961 10.5361 4.03605 9.34961 5.49961 9.34961C6.96316 9.34961 8.14961 10.5361 8.14961 11.9996ZM5.49961 13.2496C6.18997 13.2496 6.74961 12.69 6.74961 11.9996C6.74961 11.3093 6.18997 10.7496 5.49961 10.7496C4.80925 10.7496 4.24961 11.3093 4.24961 11.9996C4.24961 12.69 4.80925 13.2496 5.49961 13.2496Z" fill="#333333"/>
<path fill-rule="evenodd" clip-rule="evenodd" d="M14.6496 11.9996C14.6496 13.4632 13.4632 14.6496 11.9996 14.6496C10.5361 14.6496 9.34961 13.4632 9.34961 11.9996C9.34961 10.5361 10.5361 9.34961 11.9996 9.34961C13.4632 9.34961 14.6496 10.5361 14.6496 11.9996ZM11.9996 13.2496C12.69 13.2496 13.2496 12.69 13.2496 11.9996C13.2496 11.3093 12.69 10.7496 11.9996 10.7496C11.3093 10.7496 10.7496 11.3093 10.7496 11.9996C10.7496 12.69 11.3093 13.2496 11.9996 13.2496Z" fill="#333333"/>
<path fill-rule="evenodd" clip-rule="evenodd" d="M18.4996 14.6496C19.9632 14.6496 21.1496 13.4632 21.1496 11.9996C21.1496 10.5361 19.9632 9.34961 18.4996 9.34961C17.0361 9.34961 15.8496 10.5361 15.8496 11.9996C15.8496 13.4632 17.0361 14.6496 18.4996 14.6496ZM19.7496 11.9996C19.7496 12.69 19.19 13.2496 18.4996 13.2496C17.8093 13.2496 17.2496 12.69 17.2496 11.9996C17.2496 11.3093 17.8093 10.7496 18.4996 10.7496C19.19 10.7496 19.7496 11.3093 19.7496 11.9996Z" fill="#333333"/>
</svg>
