<svg width="24" height="24" viewBox="0 0 24 24" fill="none" xmlns="http://www.w3.org/2000/svg">
<path fill-rule="evenodd" clip-rule="evenodd" d="M12.0022 9.9526C11.0208 9.9526 10.2251 9.15698 10.2251 8.17552C10.2251 7.19406 11.0208 6.39844 12.0022 6.39844C12.9837 6.39844 13.7793 7.19406 13.7793 8.17552C13.7793 9.15698 12.9837 9.9526 12.0022 9.9526ZM11.3251 8.17552C11.3251 8.54946 11.6283 8.8526 12.0022 8.8526C12.3762 8.8526 12.6793 8.54946 12.6793 8.17552C12.6793 7.80158 12.3762 7.49844 12.0022 7.49844C11.6283 7.49844 11.3251 7.80158 11.3251 8.17552Z" fill="#15C674"/>
<path fill-rule="evenodd" clip-rule="evenodd" d="M12.0022 13.7758C11.0208 13.7758 10.2251 12.9802 10.2251 11.9988C10.2251 11.0173 11.0208 10.2217 12.0022 10.2217C12.9837 10.2217 13.7793 11.0173 13.7793 11.9988C13.7793 12.9802 12.9837 13.7758 12.0022 13.7758ZM11.3251 11.9988C11.3251 12.3727 11.6283 12.6758 12.0022 12.6758C12.3762 12.6758 12.6793 12.3727 12.6793 11.9988C12.6793 11.6248 12.3762 11.3217 12.0022 11.3217C11.6283 11.3217 11.3251 11.6248 11.3251 11.9988Z" fill="#15C674"/>
<path fill-rule="evenodd" clip-rule="evenodd" d="M10.2251 15.8259C10.2251 16.8074 11.0208 17.603 12.0022 17.603C12.9837 17.603 13.7793 16.8074 13.7793 15.8259C13.7793 14.8445 12.9837 14.0488 12.0022 14.0488C11.0208 14.0488 10.2251 14.8445 10.2251 15.8259ZM12.0022 16.503C11.6283 16.503 11.3251 16.1999 11.3251 15.8259C11.3251 15.452 11.6283 15.1488 12.0022 15.1488C12.3762 15.1488 12.6793 15.452 12.6793 15.8259C12.6793 16.1999 12.3762 16.503 12.0022 16.503Z" fill="#15C674"/>
</svg>
