<svg width="24" height="24" viewBox="0 0 24 24" fill="none" xmlns="http://www.w3.org/2000/svg">
<path fill-rule="evenodd" clip-rule="evenodd" d="M2.7998 12C2.7998 11.6134 3.11321 11.3 3.4998 11.3H11.9998C12.3864 11.3 12.6998 11.6134 12.6998 12C12.6998 12.3866 12.3864 12.7 11.9998 12.7H3.4998C3.11321 12.7 2.7998 12.3866 2.7998 12Z" fill="#333333"/>
<path fill-rule="evenodd" clip-rule="evenodd" d="M8.50483 8.50503C8.23146 8.77839 8.23146 9.22161 8.50483 9.49497L11.5048 12.495C11.7782 12.7683 12.2214 12.7683 12.4948 12.495C12.7681 12.2216 12.7681 11.7784 12.4948 11.505L9.49478 8.50503C9.22141 8.23166 8.7782 8.23166 8.50483 8.50503Z" fill="#333333"/>
<path fill-rule="evenodd" clip-rule="evenodd" d="M12.4948 11.505C12.2214 11.2317 11.7782 11.2317 11.5048 11.505L8.50483 14.505C8.23146 14.7784 8.23146 15.2216 8.50483 15.495C8.7782 15.7683 9.22141 15.7683 9.49478 15.495L12.4948 12.495C12.7681 12.2216 12.7681 11.7784 12.4948 11.505Z" fill="#333333"/>
<path fill-rule="evenodd" clip-rule="evenodd" d="M5.3998 17C5.39986 17.3313 5.66847 17.5999 5.9998 17.5999H17.9999C18.3313 17.5999 18.5999 17.3313 18.5999 16.9999V9.4014C18.5999 9.07003 18.3313 8.8014 17.9999 8.8014H14.3078C13.8842 8.8014 13.4834 8.60966 13.2177 8.27988L11.8718 6.60984C11.7579 6.4685 11.5861 6.38633 11.4046 6.38633H5.99982C5.66844 6.38633 5.39981 6.65496 5.39982 6.98633V7H3.99982V6.98633C3.99981 5.88176 4.89524 4.98633 5.99982 4.98633H11.4046C12.0097 4.98633 12.5822 5.26024 12.9619 5.73136L14.3078 7.4014H17.9999C19.1045 7.4014 19.9999 8.29683 19.9999 9.4014V16.9999C19.9999 18.1045 19.1045 18.9999 17.9999 18.9999H5.9998C4.89527 18.9999 3.99986 18.1045 3.9998 17H5.3998Z" fill="#333333"/>
<path fill-rule="evenodd" clip-rule="evenodd" d="M4.69946 6.3C5.08606 6.3 5.39982 6.6134 5.39982 7L5.39946 7.5C5.39946 7.8866 5.08606 8.2 4.69946 8.2C4.31286 8.2 3.99946 7.8866 3.99946 7.5L3.99982 7C3.99982 6.6134 4.31286 6.3 4.69946 6.3Z" fill="#333333"/>
<path fill-rule="evenodd" clip-rule="evenodd" d="M4.69946 15.8C5.08606 15.8 5.39946 16.1134 5.39946 16.5L5.3998 17C5.3998 17.3866 5.08606 17.7 4.69946 17.7C4.31286 17.7 3.9998 17.3866 3.9998 17L3.99946 16.5C3.99946 16.1134 4.31286 15.8 4.69946 15.8Z" fill="#333333"/>
</svg>
