<svg width="24" height="24" viewBox="0 0 24 24" fill="none" xmlns="http://www.w3.org/2000/svg">
<path fill-rule="evenodd" clip-rule="evenodd" d="M12.32 14.3359C12.32 13.9493 12.6334 13.6359 13.02 13.6359L16.52 13.6359C16.9066 13.6359 17.22 13.9493 17.22 14.3359C17.22 14.7225 16.9066 15.0359 16.52 15.0359H13.02C12.6334 15.0359 12.32 14.7225 12.32 14.3359Z" fill="#333333"/>
<path fill-rule="evenodd" clip-rule="evenodd" d="M11.0561 8.41345C11.3309 8.68532 11.3333 9.12853 11.0615 9.40339L9.37796 11.1055C9.12675 11.3594 8.7246 11.3835 8.44488 11.1613L7.37355 10.3103C7.07084 10.0698 7.02038 9.62948 7.26084 9.32676C7.50131 9.02405 7.94164 8.97359 8.24435 9.21405L8.8241 9.67459L10.0661 8.41888C10.338 8.14402 10.7812 8.14159 11.0561 8.41345Z" fill="#333333"/>
<path fill-rule="evenodd" clip-rule="evenodd" d="M11.0561 12.8881C11.3309 13.1599 11.3333 13.6031 11.0615 13.878L9.37796 15.5801C9.12675 15.834 8.7246 15.8581 8.44488 15.6359L7.37355 14.7849C7.07084 14.5444 7.02038 14.1041 7.26084 13.8014C7.50131 13.4987 7.94164 13.4482 8.24435 13.6887L8.8241 14.1492L10.0661 12.8935C10.338 12.6186 10.7812 12.6162 11.0561 12.8881Z" fill="#333333"/>
<path fill-rule="evenodd" clip-rule="evenodd" d="M12 5.3748C12 4.98821 11.6866 4.6748 11.3 4.6748H7.18486C5.69369 4.6748 4.48486 5.88364 4.48486 7.37481V16.6248C4.48486 18.116 5.69369 19.3248 7.18486 19.3248H16.8151C18.3063 19.3248 19.5151 18.116 19.5151 16.6248V11.6998C19.5151 11.3132 19.2017 10.9998 18.8151 10.9998C18.4285 10.9998 18.1151 11.3132 18.1151 11.6998V16.6248C18.1151 17.3428 17.5331 17.9248 16.8151 17.9248H7.18486C6.46689 17.9248 5.88486 17.3428 5.88486 16.6248V7.37481C5.88486 6.65684 6.46689 6.0748 7.18486 6.0748H11.3C11.6866 6.0748 12 5.7614 12 5.3748Z" fill="#333333"/>
<path fill-rule="evenodd" clip-rule="evenodd" d="M14.4253 8.41247C14.1197 8.76313 13.8573 9.26738 13.7238 10.0086C13.6553 10.3891 13.2913 10.642 12.9108 10.5734C12.5304 10.5049 12.2775 10.1409 12.346 9.76046C12.5182 8.8046 12.8766 8.05855 13.37 7.49253C13.8623 6.92781 14.4597 6.57573 15.0606 6.36183C16.2389 5.94248 17.478 6.03957 18.1263 6.10709C18.5108 6.14714 18.7901 6.49132 18.75 6.87584C18.71 7.26036 18.3658 7.53961 17.9813 7.49956C17.3543 7.43426 16.3896 7.37487 15.5301 7.68078C15.1122 7.82952 14.7321 8.0605 14.4253 8.41247Z" fill="#333333"/>
<path fill-rule="evenodd" clip-rule="evenodd" d="M18.4509 6.76114L18.3096 6.61983L18.3096 6.90244L18.4509 6.76114ZM17.7209 8.90534C17.5691 9.05712 17.3096 8.94963 17.3096 8.73498L17.3096 4.78732C17.3096 4.57267 17.5691 4.46517 17.7209 4.61695L19.6947 6.59076C19.7888 6.68485 19.7888 6.83741 19.6947 6.9315L17.7209 8.90534Z" fill="#333333"/>
</svg>
