<svg width="24" height="24" viewBox="0 0 24 24" fill="none" xmlns="http://www.w3.org/2000/svg">
<path d="M12.9932 4.0127C13.2512 4.0379 13.5046 4.10151 13.7451 4.20215C14.0657 4.33637 14.3574 4.53353 14.6025 4.78223L16.9277 7.1377C17.173 7.38602 17.3676 7.68114 17.5 8.00586C17.6325 8.3308 17.7001 8.67967 17.6992 9.03125V17.333L17.6865 17.5967C17.6268 18.2071 17.3605 18.7812 16.9287 19.2188L16.7354 19.3965C16.3341 19.7295 15.8442 19.9353 15.3281 19.9873L15.0674 20H7.33105L7.07031 19.9873C6.55418 19.9353 6.06433 19.7295 5.66309 19.3965L5.46973 19.2188C5.03797 18.7812 4.77167 18.2071 4.71191 17.5967L4.69922 17.333V6.66699C4.69922 6.04819 4.91127 5.45107 5.29492 4.97656L5.46973 4.78125C5.90147 4.34375 6.46801 4.07338 7.07031 4.0127L7.33105 4H12.7344L12.9932 4.0127ZM15.2002 4.00293C15.7551 4.0275 16.5499 4.24473 16.9287 4.62891L19.2812 6.82031C19.5265 7.06862 19.7211 7.36382 19.8535 7.68848C19.9859 8.01342 20.0536 8.67969 20.0527 9.03125V17.333L20.0498 17.4658C20.0175 18.1247 19.7447 18.75 19.2822 19.2188C18.8196 19.6875 18.2021 19.9643 17.5518 19.9971C17.5518 19.9971 17.4872 20.0108 17.4648 19.9668C17.4428 19.9227 17.506 19.8641 17.5068 19.8633C17.714 19.7452 17.6902 19.7349 17.8613 19.5615C18.3547 19.0615 18.6318 18.3828 18.6318 17.6758V17.5605C18.645 17.4863 18.6523 17.4098 18.6523 17.333V9.02832L18.6436 8.81738C18.6397 8.76383 18.6334 8.70526 18.627 8.64453C18.6026 7.86477 18.4835 7.4107 18.0586 6.98047L15.0977 4.12598C15.0949 4.12376 15.0297 4.07049 15.0342 4.03906C15.0391 4.00699 15.0928 4 15.0928 4L15.2002 4.00293ZM7.33105 5.40039C7.05072 5.40039 6.77721 5.49846 6.55762 5.68066L6.4668 5.76465C6.23375 6.0008 6.09961 6.32511 6.09961 6.66699V17.333C6.09961 17.6749 6.23378 17.9992 6.4668 18.2354L6.55762 18.3184C6.77733 18.5008 7.05057 18.5996 7.33105 18.5996H15.0674C15.3879 18.5996 15.6992 18.4709 15.9316 18.2354L16.0146 18.1426C16.1963 17.9178 16.2988 17.6321 16.2988 17.333V9.02734L16.293 8.90137C16.285 8.81717 16.2692 8.73406 16.2451 8.65332L16.2031 8.53516C16.1397 8.37967 16.0473 8.23926 15.9316 8.12207L15.9307 8.12109L13.6064 5.76562L13.6055 5.76465C13.4899 5.64745 13.3537 5.55537 13.2051 5.49316C13.0565 5.43098 12.8979 5.40006 12.7383 5.40039H7.33105ZM12.5586 14.2891C12.8773 14.3545 13.1172 14.6365 13.1172 14.9746C13.1172 15.3127 12.8773 15.5947 12.5586 15.6602L12.417 15.6748H8.69922C8.31262 15.6748 7.99902 15.3612 7.99902 14.9746C7.99902 14.588 8.31262 14.2744 8.69922 14.2744H12.417L12.5586 14.2891ZM13.8398 11.2891C14.159 11.3542 14.3994 11.6362 14.3994 11.9746C14.3994 12.313 14.159 12.595 13.8398 12.6602L13.6992 12.6748H8.69922C8.31262 12.6748 7.99902 12.3612 7.99902 11.9746C7.99902 11.588 8.31262 11.2744 8.69922 11.2744H13.6992L13.8398 11.2891Z" fill="#15C674"/>
</svg>
