<svg width="24" height="24" viewBox="0 0 24 24" fill="none" xmlns="http://www.w3.org/2000/svg">
<path d="M7.56633 18.7715C7.31902 18.3528 7.68823 17.9 8.17448 17.9C8.48802 17.9 8.75693 18.1061 8.98025 18.3262C9.21495 18.5575 9.53715 18.7002 9.89268 18.7002H17.211C17.929 18.7002 18.511 18.1182 18.511 17.4002V10.0818C18.511 9.72733 18.3691 9.40597 18.139 9.17145C17.9199 8.9481 17.7148 8.67952 17.7148 8.36663C17.7148 7.87946 18.1688 7.50991 18.5877 7.75866C19.38 8.22918 19.911 9.09349 19.911 10.0818V17.4002C19.911 18.8914 18.7022 20.1002 17.211 20.1002H9.89268C8.90211 20.1002 8.03613 19.5668 7.56633 18.7715Z" fill="#333333"/>
<path d="M13.0379 9.01233C13.2613 8.6968 13.1865 8.25992 12.871 8.03654C12.5555 7.81317 12.1186 7.88787 11.8952 8.20341L9.73122 11.2602L8.769 10.2495C8.50243 9.96949 8.05935 9.9586 7.77935 10.2252C7.49935 10.4917 7.48846 10.9348 7.75503 11.2148L8.88487 12.4016C9.40585 12.9488 10.2968 12.8842 10.7334 12.2675L13.0379 9.01233Z" fill="#333333"/>
<path fill-rule="evenodd" clip-rule="evenodd" d="M3.94092 14.0389C3.94092 15.53 5.14975 16.7389 6.64092 16.7389H13.9593C15.4504 16.7389 16.6593 15.53 16.6593 14.0389V6.72051C16.6593 5.22934 15.4504 4.02051 13.9593 4.02051H6.64092C5.14975 4.02051 3.94092 5.22934 3.94092 6.72051V14.0389ZM6.64092 15.3389C5.92295 15.3389 5.34092 14.7568 5.34092 14.0389V6.72051C5.34092 6.00254 5.92295 5.42051 6.64092 5.42051H13.9593C14.6772 5.42051 15.2593 6.00254 15.2593 6.72051V14.0389C15.2593 14.7568 14.6772 15.3389 13.9593 15.3389H6.64092Z" fill="#333333"/>
</svg>
