<svg width="24" height="24" viewBox="0 0 24 24" fill="none" xmlns="http://www.w3.org/2000/svg">
<path d="M8.1735 17.9C7.68725 17.9 7.31804 18.3528 7.56535 18.7715C8.03515 19.5668 8.90113 20.1002 9.89171 20.1002H17.2101C18.7012 20.1002 19.9101 18.8914 19.9101 17.4002V10.0818C19.9101 9.09349 19.379 8.22918 18.5867 7.75866C18.1678 7.50991 17.7138 7.87946 17.7138 8.36663C17.7138 8.67952 17.9189 8.9481 18.1381 9.17145C18.3682 9.40597 18.5101 9.72733 18.5101 10.0818V17.4002C18.5101 18.1182 17.928 18.7002 17.2101 18.7002H9.89171C9.53617 18.7002 9.21397 18.5575 8.97927 18.3262C8.75595 18.1061 8.48704 17.9 8.1735 17.9Z" fill="#333333"/>
<path fill-rule="evenodd" clip-rule="evenodd" d="M6.64043 16.7389C5.14926 16.7389 3.94043 15.53 3.94043 14.0389V6.72051C3.94043 5.22934 5.14926 4.02051 6.64043 4.02051H13.9588C15.45 4.02051 16.6588 5.22934 16.6588 6.72051V14.0389C16.6588 15.53 15.45 16.7389 13.9588 16.7389H6.64043ZM5.34043 14.0389C5.34043 14.7568 5.92246 15.3389 6.64043 15.3389H13.9588C14.6768 15.3389 15.2588 14.7568 15.2588 14.0389V6.72051C15.2588 6.00254 14.6768 5.42051 13.9588 5.42051H6.64043C5.92246 5.42051 5.34043 6.00254 5.34043 6.72051V14.0389Z" fill="#333333"/>
</svg>
