<svg width="24" height="24" viewBox="0 0 24 24" fill="none" xmlns="http://www.w3.org/2000/svg">
<path fill-rule="evenodd" clip-rule="evenodd" d="M17.5939 4.10436C18.3386 3.95049 19.0367 4.51915 19.0367 5.27953V14.7862C19.042 14.8206 19.0465 14.8554 19.0501 14.8905C19.1359 15.7075 18.7637 16.4401 18.2 16.9621C17.6365 17.4839 16.8512 17.8316 15.9831 17.9227C15.1151 18.0138 14.2747 17.8366 13.6151 17.4431C12.9554 17.0495 12.4393 16.41 12.3536 15.5931C12.2679 14.7761 12.64 14.0434 13.2037 13.5215C13.7672 12.9996 14.5525 12.6519 15.4206 12.5608C16.2234 12.4766 17.0024 12.6218 17.6367 12.9553V5.52509L10.5449 6.99053C10.4057 7.0193 10.3058 7.14182 10.3056 7.28398L10.2946 16.7778C10.2945 16.8359 10.2874 16.8922 10.274 16.9461C10.255 17.6442 9.90762 18.2652 9.41244 18.7238C8.84888 19.2456 8.06362 19.5933 7.19554 19.6844C6.32747 19.7755 5.48713 19.5983 4.82754 19.2048C4.16777 18.8112 3.65169 18.1718 3.56597 17.3548C3.48026 16.5378 3.85238 15.8052 4.41609 15.2832C4.97965 14.7613 5.76491 14.4136 6.63298 14.3225C7.45604 14.2362 8.25416 14.391 8.89693 14.7427L8.90564 7.28234C8.90658 6.4768 9.47274 5.78251 10.2616 5.6195L17.5939 4.10436ZM17.6376 14.9237C17.5762 14.6805 17.3963 14.4366 17.0713 14.2427C16.6956 14.0186 16.1633 13.8906 15.5667 13.9532C14.97 14.0158 14.4758 14.2515 14.1549 14.5487C13.8341 14.8457 13.7166 15.1678 13.7459 15.447C13.7752 15.7261 13.957 16.0168 14.3324 16.2408C14.7081 16.4649 15.2404 16.5929 15.8371 16.5303C16.4337 16.4677 16.9279 16.232 17.2488 15.9348C17.5571 15.6494 17.6776 15.3409 17.6606 15.0696C17.648 15.0227 17.6402 14.9739 17.6376 14.9237ZM5.3673 16.3104C5.04649 16.6075 4.92904 16.9295 4.95833 17.2087C4.98762 17.4879 5.16936 17.7785 5.54483 18.0025C5.92048 18.2266 6.45281 18.3547 7.04946 18.2921C7.6461 18.2295 8.14028 17.9937 8.46123 17.6966C8.78203 17.3995 8.89948 17.0774 8.87019 16.7983C8.8409 16.5191 8.65917 16.2284 8.28369 16.0044C7.90805 15.7803 7.37571 15.6523 6.77907 15.7149C6.18242 15.7775 5.68825 16.0132 5.3673 16.3104Z" fill="#333333"/>
</svg>
