<svg width="24" height="24" viewBox="0 0 24 24" fill="none" xmlns="http://www.w3.org/2000/svg">
<path d="M8.11113 3.87891C6.61996 3.87891 5.41113 5.08774 5.41113 6.57891V17.3943C5.41113 18.8858 6.62102 20.0943 8.11186 20.0943H9.9088C9.93859 20.0982 9.96896 20.1002 9.9998 20.1002L11.9998 20.1002C12.0306 20.1002 12.061 20.0982 12.0908 20.0943H16.8054C17.192 20.0943 17.5054 19.7809 17.5054 19.3943C17.5054 19.0077 17.192 18.6943 16.8054 18.6943H8.11186C7.39356 18.6943 6.81113 18.112 6.81113 17.3943V6.57891C6.81113 5.86094 7.39316 5.27891 8.11113 5.27891H15.8763C16.5942 5.27891 17.1763 5.86094 17.1763 6.57891V8.28276C17.1763 8.66936 17.4897 8.98276 17.8763 8.98276C18.2629 8.98276 18.5763 8.66936 18.5763 8.28276V8.18192C18.5919 8.12385 18.6002 8.0628 18.6002 7.9998V6.9998C18.6002 6.93681 18.5919 6.87576 18.5763 6.81769V6.57891C18.5763 5.08774 17.3674 3.87891 15.8763 3.87891H8.11113Z" fill="#333333"/>
<path d="M20.3651 12.5761C20.5987 12.2681 20.5383 11.829 20.2303 11.5954C19.9222 11.3618 19.4831 11.4222 19.2495 11.7302L16.2604 15.672L14.9379 14.521C14.6462 14.2673 14.2041 14.2979 13.9503 14.5896C13.6965 14.8812 13.7272 15.3234 14.0188 15.5771L15.7448 17.0792C16.1377 17.4211 16.738 17.3591 17.0527 16.9441L20.3651 12.5761Z" fill="#333333"/>
<path d="M8.2998 8.06914C8.2998 7.68254 8.61321 7.36914 8.9998 7.36914H14.9998C15.3864 7.36914 15.6998 7.68254 15.6998 8.06914C15.6998 8.45574 15.3864 8.76914 14.9998 8.76914H8.9998C8.61321 8.76914 8.2998 8.45574 8.2998 8.06914Z" fill="#333333"/>
<path d="M8.9998 10.2354C8.61321 10.2354 8.2998 10.5488 8.2998 10.9354C8.2998 11.322 8.61321 11.6354 8.9998 11.6354H14.9998C15.3864 11.6354 15.6998 11.322 15.6998 10.9354C15.6998 10.5488 15.3864 10.2354 14.9998 10.2354H8.9998Z" fill="#333333"/>
<path d="M8.2998 13.8953C8.2998 13.5087 8.61321 13.1953 8.9998 13.1953H11.9998C12.3864 13.1953 12.6998 13.5087 12.6998 13.8953C12.6998 14.2819 12.3864 14.5953 11.9998 14.5953H8.9998C8.61321 14.5953 8.2998 14.2819 8.2998 13.8953Z" fill="#333333"/>
</svg>
