<svg width="24" height="24" viewBox="0 0 24 24" fill="none" xmlns="http://www.w3.org/2000/svg">
<path fill-rule="evenodd" clip-rule="evenodd" d="M4.0957 7C4.0957 6.6134 4.4091 6.3 4.7957 6.3H10.3094C10.696 6.3 11.0094 6.6134 11.0094 7C11.0094 7.3866 10.696 7.7 10.3094 7.7H4.7957C4.4091 7.7 4.0957 7.3866 4.0957 7Z" fill="#333333"/>
<path fill-rule="evenodd" clip-rule="evenodd" d="M4.0957 16C4.0957 15.6134 4.4091 15.3 4.7957 15.3H7.69803C8.08463 15.3 8.39803 15.6134 8.39803 16C8.39803 16.3866 8.08463 16.7 7.69803 16.7H4.7957C4.4091 16.7 4.0957 16.3866 4.0957 16Z" fill="#333333"/>
<path fill-rule="evenodd" clip-rule="evenodd" d="M4.0957 11.5C4.0957 11.1134 4.4091 10.8 4.7957 10.8H9.33499C9.72159 10.8 10.035 11.1134 10.035 11.5C10.035 11.8866 9.72159 12.2 9.33499 12.2H4.7957C4.4091 12.2 4.0957 11.8866 4.0957 11.5Z" fill="#333333"/>
<path fill-rule="evenodd" clip-rule="evenodd" d="M12.0639 13.4714C13.1113 12.877 14.3844 12.6975 15.5191 12.6975C16.6537 12.6975 17.9269 12.877 18.9742 13.4714C20.0616 14.0884 20.8619 15.1316 21.0149 16.7145C21.0856 17.4452 20.4849 17.9822 19.8416 17.9822H11.1966C10.5533 17.9822 9.95258 17.4452 10.0232 16.7145C10.1763 15.1316 10.9766 14.0884 12.0639 13.4714ZM11.4519 16.5822H19.5862C19.4261 15.634 18.933 15.0577 18.2833 14.689C17.5346 14.2641 16.5384 14.0975 15.5191 14.0975C14.4998 14.0975 13.5035 14.2641 12.7549 14.689C12.1051 15.0577 11.612 15.634 11.4519 16.5822Z" fill="#333333"/>
<path fill-rule="evenodd" clip-rule="evenodd" d="M14.7493 7.18726C14.7332 7.19673 14.7256 7.20217 14.725 7.20258C14.725 7.20261 14.725 7.2026 14.725 7.20258C14.2694 7.538 13.9712 8.34849 14.1673 9.24183C14.3522 10.0838 14.8356 10.4734 15.4257 10.4734C15.8249 10.4734 16.105 10.3134 16.3256 10.0304C16.5714 9.71503 16.7417 9.23284 16.7546 8.69664C16.7675 8.15922 16.6198 7.70442 16.4017 7.41883C16.2165 7.17628 15.9364 6.98691 15.4258 6.98691C15.3481 6.98691 15.2031 7.00801 15.0292 7.06563C14.9484 7.09242 14.876 7.12235 14.8176 7.15086C14.7888 7.16491 14.7661 7.17734 14.7493 7.18726ZM13.8951 6.07513C11.8385 7.58906 12.521 11.8734 15.4257 11.8734C18.9131 11.8734 19.2142 5.58691 15.4258 5.58691C14.893 5.58691 14.2366 5.82373 13.8951 6.07513Z" fill="#333333"/>
</svg>
