<svg width="24" height="24" viewBox="0 0 24 24" fill="none" xmlns="http://www.w3.org/2000/svg">
<path fill-rule="evenodd" clip-rule="evenodd" d="M11.9997 5.30234C8.30057 5.30234 5.30186 8.30106 5.30186 12.0002C5.30186 15.6993 8.30057 18.698 11.9997 18.698C15.6988 18.698 18.6975 15.6993 18.6975 12.0002C18.6975 8.30106 15.6988 5.30234 11.9997 5.30234ZM3.90186 12.0002C3.90186 7.52786 7.52738 3.90234 11.9997 3.90234C16.472 3.90234 20.0975 7.52786 20.0975 12.0002C20.0975 16.4725 16.472 20.098 11.9997 20.098C7.52738 20.098 3.90186 16.4725 3.90186 12.0002Z" fill="#333333"/>
<path fill-rule="evenodd" clip-rule="evenodd" d="M8.96408 14.2889C8.96408 13.9023 9.27748 13.5889 9.66408 13.5889H14.3352C14.7218 13.5889 15.0352 13.9023 15.0352 14.2889C15.0352 14.6755 14.7218 14.9889 14.3352 14.9889H9.66408C9.27748 14.9889 8.96408 14.6755 8.96408 14.2889Z" fill="#333333"/>
<path fill-rule="evenodd" clip-rule="evenodd" d="M9.74492 9.24941C10.2144 9.24941 10.5949 9.62997 10.5949 10.0994V10.5312C10.5949 11.0007 10.2144 11.3812 9.74492 11.3812C9.27548 11.3812 8.89492 11.0007 8.89492 10.5312V10.0994C8.89492 9.62997 9.27548 9.24941 9.74492 9.24941Z" fill="#333333"/>
<path fill-rule="evenodd" clip-rule="evenodd" d="M14.2537 9.24941C14.7232 9.24941 15.1037 9.62997 15.1037 10.0994V10.5312C15.1037 11.0007 14.7232 11.3812 14.2537 11.3812C13.7843 11.3812 13.4037 11.0007 13.4037 10.5312V10.0994C13.4037 9.62997 13.7843 9.24941 14.2537 9.24941Z" fill="#333333"/>
</svg>
