<svg width="24" height="24" viewBox="0 0 24 24" fill="none" xmlns="http://www.w3.org/2000/svg">
<path fill-rule="evenodd" clip-rule="evenodd" d="M7.3 9.99979C7.3 9.61319 7.6134 9.29979 8 9.29979H14.5C14.8866 9.29979 15.2 9.61319 15.2 9.99979C15.2 10.3864 14.8866 10.6998 14.5 10.6998H8C7.6134 10.6998 7.3 10.3864 7.3 9.99979Z" fill="#333333"/>
<path fill-rule="evenodd" clip-rule="evenodd" d="M11.3 5.70254C11.3 5.31594 11.6134 5.00254 12 5.00254H13.5C13.8866 5.00254 14.2 5.31594 14.2 5.70254C14.2 6.08914 13.8866 6.40254 13.5 6.40254H12C11.6134 6.40254 11.3 6.08914 11.3 5.70254Z" fill="#333333"/>
<path fill-rule="evenodd" clip-rule="evenodd" d="M19.2988 10.7609C19.6854 10.7609 19.9988 11.0743 19.9988 11.4609V13.0001C19.9988 13.3867 19.6854 13.7001 19.2988 13.7001C18.9122 13.7001 18.5988 13.3867 18.5988 13.0001V11.4609C18.5988 11.0743 18.9122 10.7609 19.2988 10.7609Z" fill="#333333"/>
<path fill-rule="evenodd" clip-rule="evenodd" d="M7.3 12.9998C7.3 12.6132 7.6134 12.2998 8 12.2998H13C13.3866 12.2998 13.7 12.6132 13.7 12.9998C13.7 13.3864 13.3866 13.6998 13 13.6998H8C7.6134 13.6998 7.3 13.3864 7.3 12.9998Z" fill="#333333"/>
<path fill-rule="evenodd" clip-rule="evenodd" d="M13.3135 4.99979H7C5.34315 4.99979 4 6.34294 4 7.99979V15.2173C4 16.5557 4.87654 17.6895 6.08691 18.0758V19.7277C6.08691 20.9672 7.58556 21.5879 8.46203 20.7115L10.9562 18.2173H17.0001C18.6569 18.2173 20.0001 16.8741 20.0001 15.2173V11.9998H18.6001V15.2173C18.6001 16.1009 17.8837 16.8173 17.0001 16.8173H10.3763L7.48691 19.7067V17.053L6.51258 16.7421C5.8657 16.5356 5.4 15.929 5.4 15.2173V7.99979C5.4 7.11614 6.11634 6.39979 7 6.39979H13.3135V4.99979Z" fill="#333333"/>
<path fill-rule="evenodd" clip-rule="evenodd" d="M18.2497 8.00367C18.9423 8.00367 19.5037 7.44224 19.5037 6.74969C19.5037 6.05713 18.9423 5.4957 18.2497 5.4957C17.5571 5.4957 16.9957 6.05713 16.9957 6.74969C16.9957 7.44224 17.5571 8.00367 18.2497 8.00367ZM18.2497 9.40367C19.7155 9.40367 20.9037 8.21544 20.9037 6.74969C20.9037 5.28393 19.7155 4.0957 18.2497 4.0957C16.7839 4.0957 15.5957 5.28393 15.5957 6.74969C15.5957 8.21544 16.7839 9.40367 18.2497 9.40367Z" fill="#333333"/>
</svg>
