<svg width="24" height="24" viewBox="0 0 24 24" fill="none" xmlns="http://www.w3.org/2000/svg">
<path d="M11.2207 8.17559C11.2207 7.78899 11.5341 7.47559 11.9207 7.47559L13.6589 7.47559C14.0455 7.47559 14.3589 7.78899 14.3589 8.17559C14.3589 8.56218 14.0455 8.87559 13.6589 8.87559L11.9207 8.87559C11.5341 8.87559 11.2207 8.56219 11.2207 8.17559Z" fill="#333333"/>
<path d="M8.09063 10.9561C7.70403 10.9561 7.39062 11.2695 7.39062 11.6561C7.39062 12.0427 7.70403 12.3561 8.09063 12.3561H13.6589C14.0455 12.3561 14.3589 12.0427 14.3589 11.6561C14.3589 11.2695 14.0455 10.9561 13.6589 10.9561H8.09063Z" fill="#333333"/>
<path d="M7.39062 14.4402C7.39062 14.0536 7.70403 13.7402 8.09063 13.7402H12.2669C12.6535 13.7402 12.9669 14.0536 12.9669 14.4402C12.9669 14.8268 12.6535 15.1402 12.2669 15.1402H8.09063C7.70403 15.1402 7.39062 14.8268 7.39062 14.4402Z" fill="#333333"/>
<path d="M10.1777 8.17626C10.1777 8.94508 9.55445 9.56833 8.78563 9.56833C8.01681 9.56833 7.39355 8.94508 7.39355 8.17626C7.39355 7.40743 8.01681 6.78418 8.78563 6.78418C9.55445 6.78418 10.1777 7.40743 10.1777 8.17626Z" fill="#333333"/>
<path fill-rule="evenodd" clip-rule="evenodd" d="M7.39353 20.0089C5.85588 20.0089 4.60938 18.7624 4.60938 17.2247V6.78415C4.60938 5.24651 5.85588 4 7.39353 4H15.05C16.5876 4 17.8341 5.24651 17.8341 6.78415V17.2247C17.8341 17.8795 17.6081 18.4815 17.2298 18.9569C17.3 18.9425 17.3689 18.9245 17.4364 18.9031C18.1854 18.6663 18.7519 18.0184 18.871 17.2242C18.8863 17.1223 18.8942 17.018 18.8942 16.9118L18.8942 8.39793C18.8942 8.36854 18.8947 8.33954 18.8982 8.31037C18.9036 8.26596 18.9159 8.19162 18.9435 8.10667C19.0169 7.88075 19.1984 7.57982 19.6451 7.56738C19.8352 7.81471 19.9847 8.09489 20.0836 8.39793C20.0899 8.41727 20.096 8.43671 20.1019 8.45624C20.128 8.54258 20.15 8.6307 20.1677 8.72036C20.2024 8.89577 20.2205 9.07709 20.2205 9.26266L20.2205 17.2242C20.2205 18.7619 18.974 20.0084 17.4364 20.0084H15.1041C15.0861 20.0087 15.0681 20.0089 15.05 20.0089H7.39353ZM6.00938 17.2247L6.00937 6.78415C6.00937 6.01971 6.62908 5.4 7.39353 5.4L15.05 5.4C15.8144 5.4 16.4341 6.01971 16.4341 6.78415V17.2247C16.4341 17.9892 15.8144 18.6089 15.05 18.6089H7.39353C6.62908 18.6089 6.00938 17.9892 6.00938 17.2247Z" fill="#333333"/>
</svg>
