<svg width="24" height="24" viewBox="0 0 24 24" fill="none" xmlns="http://www.w3.org/2000/svg">
<path d="M19.4966 10.4803C20.3906 11.311 20.3906 12.7263 19.4966 13.557L14.0782 18.5919C12.9906 19.6026 11.221 18.8313 11.221 17.3466V17.0926L12.621 15.7917V17.3466C12.621 17.6086 12.9333 17.7447 13.1252 17.5664L18.5436 12.5314C18.8416 12.2545 18.8416 11.7828 18.5436 11.5059L13.1252 6.4709C12.9333 6.29256 12.621 6.42867 12.621 6.69067L12.621 8.24558L11.221 6.94466V6.69067C11.221 5.20601 12.9906 4.4347 14.0782 5.44533L19.4966 10.4803Z" fill="#333333"/>
<path fill-rule="evenodd" clip-rule="evenodd" d="M13.1765 13.558C14.0705 12.7272 14.0705 11.312 13.1765 10.4813L7.75809 5.44631C6.67049 4.43568 4.90088 5.20699 4.90088 6.69165V17.3476C4.90088 18.8323 6.67049 19.6036 7.75809 18.5929L13.1765 13.558ZM12.2235 11.5068C12.5215 11.7837 12.5215 12.2555 12.2235 12.5324L6.80509 17.5674C6.61316 17.7457 6.30088 17.6096 6.30088 17.3476L6.30088 6.69165C6.30088 6.42964 6.61317 6.29354 6.80509 6.47188L12.2235 11.5068Z" fill="#333333"/>
</svg>
