<svg width="24" height="24" viewBox="0 0 24 24" fill="none" xmlns="http://www.w3.org/2000/svg">
<path d="M9.65323 10.3642L6.0126 12.9247C5.99311 12.9384 5.9837 12.9477 5.98038 12.952C5.9771 12.9564 5.97516 12.9605 5.97354 12.9647C5.96976 12.9753 5.96536 12.9983 5.97159 13.0272C5.97792 13.0557 5.99122 13.074 5.99893 13.0819C6.00214 13.0852 6.00592 13.0892 6.01065 13.0917C6.01587 13.0944 6.02862 13.1002 6.05069 13.1044L10.2626 13.9003C10.9082 14.0224 11.4942 14.3603 11.9228 14.8583L14.7196 18.1093C14.7347 18.1266 14.7454 18.1348 14.7499 18.1376C14.7544 18.1402 14.7593 18.1413 14.7636 18.1425C14.7746 18.1452 14.7974 18.1474 14.8251 18.1386C14.853 18.1295 14.8706 18.1149 14.8778 18.1063C14.8808 18.1028 14.8835 18.0987 14.8857 18.0937C14.8877 18.0887 14.8923 18.0761 14.8944 18.0526L15.0946 15.8056L16.3847 17.0956L16.289 18.1767C16.1745 19.4556 14.6243 19.9925 13.7411 19.1122L13.6581 19.0224L10.8622 15.7714C10.6406 15.5139 10.3366 15.3385 10.0028 15.2753L5.79092 14.4804L5.67081 14.453C4.46607 14.1288 4.15594 12.5168 5.20694 11.7782L8.64835 9.35928L9.65323 10.3642Z" fill="#15C674"/>
<path fill-rule="evenodd" clip-rule="evenodd" d="M6.49698 4.24795C6.77035 3.97467 7.21388 3.97461 7.48721 4.24795L10.9687 7.72939L14.995 4.90127C16.0394 4.16776 17.4648 4.99031 17.3515 6.26162L16.7079 13.4687L19.8026 16.5634C20.0754 16.8368 20.0757 17.2804 19.8026 17.5536C19.5479 17.8083 19.1468 17.8225 18.872 17.6024L6.44913 5.17959C6.22737 4.90469 6.24166 4.50334 6.49698 4.24795ZM15.8339 6.02724C15.8283 6.02913 15.8167 6.03394 15.7997 6.0458L11.9735 8.73428L15.4179 12.1786L15.9569 6.13662C15.9587 6.11591 15.9562 6.10335 15.955 6.09756C15.9538 6.09198 15.9524 6.08637 15.9501 6.08193C15.9445 6.07175 15.9305 6.05554 15.9071 6.04189C15.8835 6.02827 15.8623 6.02419 15.8505 6.02431C15.8454 6.02444 15.8394 6.02548 15.8339 6.02724Z" fill="#15C674"/>
</svg>
