<svg width="24" height="24" viewBox="0 0 24 24" fill="none" xmlns="http://www.w3.org/2000/svg">
<path fill-rule="evenodd" clip-rule="evenodd" d="M5.04165 3.53119L19.4884 17.9775C19.7618 18.2508 19.7618 18.6941 19.4884 18.9674C19.2151 19.2408 18.7719 19.2408 18.4985 18.9674L16.5684 17.0375H6.24205C5.02702 17.0375 4.04205 16.0525 4.04205 14.8375V7.16168C4.04205 6.43934 4.39017 5.79831 4.9278 5.39721L4.05171 4.52115C3.77834 4.24779 3.77833 3.80458 4.0517 3.53121C4.32506 3.25783 4.76827 3.25783 5.04165 3.53119ZM5.94805 6.41743L15.1684 15.6375H6.24205C5.80022 15.6375 5.44205 15.2793 5.44205 14.8375V7.16168C5.44205 6.82366 5.65169 6.5346 5.94805 6.41743Z" fill="#1BCE7B"/>
<path d="M19.9577 14.8375C19.9577 15.3206 19.802 15.7673 19.538 16.1302L18.5121 15.1043C18.5416 15.0208 18.5577 14.931 18.5577 14.8375V12.8588C18.5573 12.8493 18.5571 12.8397 18.5571 12.8301V7.26168C18.5571 6.76463 18.1541 6.36168 17.6571 6.36168H11.8788C11.8786 6.36168 11.879 6.36168 11.8788 6.36168L9.76947 6.36168L8.36947 4.96168H17.6571C18.9273 4.96168 19.9571 5.99143 19.9571 7.26168V12.4092C19.9575 12.4188 19.9577 12.4283 19.9577 12.4379V14.8375Z" fill="#1BCE7B"/>
<path d="M7.99986 18.2996C7.61326 18.2996 7.29986 18.613 7.29986 18.9996C7.29986 19.3862 7.61326 19.6996 7.99986 19.6996H15.9999C16.3865 19.6996 16.6999 19.3862 16.6999 18.9996C16.6999 18.613 16.3865 18.2996 15.9999 18.2996H7.99986Z" fill="#1BCE7B"/>
</svg>
