<svg width="24" height="24" viewBox="0 0 24 24" fill="none" xmlns="http://www.w3.org/2000/svg">
<path d="M6.62271 5.63765C6.34935 5.36428 5.90614 5.36427 5.63277 5.63764C5.3594 5.911 5.35939 6.35422 5.63275 6.62759L6.55586 7.55071C5.54989 8.07498 4.6093 8.75515 3.77297 9.59122C3.49956 9.86455 3.4995 10.3078 3.77282 10.5812C4.04615 10.8546 4.48936 10.8546 4.76277 10.5813C5.60471 9.73964 6.56818 9.07789 7.6012 8.59608L9.03051 10.0254C7.95304 10.4267 6.94665 11.0548 6.09173 11.9098C5.81837 12.1831 5.81838 12.6263 6.09176 12.8997C6.36513 13.1731 6.80835 13.1731 7.08171 12.8997C7.95204 12.0293 9.01408 11.4421 10.1431 11.138L11.7765 12.7715C10.5636 12.8242 9.3673 13.3065 8.45669 14.2181C8.18348 14.4917 8.18374 14.9349 8.45726 15.2081C8.73079 15.4813 9.174 15.481 9.44721 15.2075C10.5174 14.1361 12.1521 13.8918 13.4796 14.4746L16.6064 17.6015C16.8798 17.8748 17.323 17.8748 17.5963 17.6015C17.8697 17.3281 17.8697 16.8849 17.5964 16.6115L6.62271 5.63765Z" fill="#333333"/>
<path d="M13.5624 11.0654L11.9901 9.49317C14.1421 9.49067 16.295 10.2962 17.9084 11.9098C18.1817 12.1832 18.1817 12.6264 17.9083 12.8997C17.6349 13.1731 17.1917 13.173 16.9184 12.8997C15.9727 11.9539 14.8007 11.3425 13.5624 11.0654Z" fill="#333333"/>
<path d="M10.2684 7.77143L9.08617 6.5892C12.9514 5.61454 17.2494 6.61521 20.2263 9.59122C20.4997 9.86455 20.4997 10.3078 20.2264 10.5812C19.9531 10.8546 19.5099 10.8546 19.2365 10.5813C16.8341 8.17971 13.4424 7.24308 10.2684 7.77143Z" fill="#333333"/>
<path fill-rule="evenodd" clip-rule="evenodd" d="M10.6655 17.4253C10.6655 16.6716 11.2765 16.0605 12.0303 16.0605C12.784 16.0605 13.395 16.6716 13.395 17.4253C13.395 18.179 12.784 18.7901 12.0303 18.7901C11.2765 18.7901 10.6655 18.179 10.6655 17.4253Z" fill="#333333"/>
</svg>
