<svg width="24" height="24" viewBox="0 0 24 24" fill="none" xmlns="http://www.w3.org/2000/svg">
<path fill-rule="evenodd" clip-rule="evenodd" d="M7.04011 15.5143L7.22236 14.399L3.82929 10.9276C3.30389 10.3901 3.54411 9.39234 4.37306 9.26591L9.03486 8.55492L11.1259 4.10796C11.4764 3.36245 12.5235 3.36245 12.8741 4.10796L14.9651 8.55492L15.1386 8.58139L17.8125 6.29234C18.1062 6.04092 18.5481 6.07519 18.7995 6.36887C19.0509 6.66255 19.0166 7.10444 18.7229 7.35586L5.84169 18.3832C5.54801 18.6346 5.10612 18.6003 4.8547 18.3067C4.60329 18.013 4.63755 17.5711 4.93124 17.3197L7.04011 15.5143ZM12 5.53914L13.8343 9.44023C13.8628 9.50085 13.8984 9.55691 13.94 9.6075L8.66042 14.1272C8.64455 13.9448 8.5663 13.7711 8.43552 13.6373L5.39472 10.5263L9.56228 9.89067C9.8259 9.85046 10.0522 9.68155 10.1656 9.44023L12 5.53914Z" fill="#333333"/>
<path d="M18.4557 9.0873L17.0573 10.2902L18.6052 10.5263L15.5644 13.6373C15.3867 13.8191 15.306 14.0746 15.347 14.3255L16.0578 18.6753L12.3865 16.6495C12.1459 16.5167 11.854 16.5167 11.6135 16.6495L7.94214 18.6753L8.04571 18.0415L6.40777 19.4504C6.40006 20.1256 7.11165 20.7326 7.83841 20.3315L12 18.0352L16.1615 20.3315C16.9388 20.7605 17.6988 20.0363 17.5799 19.3089L16.7776 14.399L20.1706 10.9276C20.696 10.3901 20.4558 9.39234 19.6269 9.26591L18.4557 9.0873Z" fill="#333333"/>
</svg>
