<svg width="24" height="24" viewBox="0 0 24 24" fill="none" xmlns="http://www.w3.org/2000/svg">
<path d="M7.55518 9.91895C7.55518 9.50473 7.89096 9.16895 8.30518 9.16895H14.2988C14.713 9.16895 15.0488 9.50473 15.0488 9.91895C15.0488 10.3332 14.713 10.6689 14.2988 10.6689H8.30518C7.89096 10.6689 7.55518 10.3332 7.55518 9.91895Z" fill="#333333"/>
<path d="M8.30518 12.4141C7.89096 12.4141 7.55518 12.7498 7.55518 13.1641C7.55518 13.5783 7.89096 13.9141 8.30518 13.9141H12.9971C13.4113 13.9141 13.7471 13.5783 13.7471 13.1641C13.7471 12.7498 13.4113 12.4141 12.9971 12.4141H8.30518Z" fill="#333333"/>
<path fill-rule="evenodd" clip-rule="evenodd" d="M7 5.00001C5.89543 5.00001 5 5.89544 5 7.00001V17C5 18.1046 5.89543 19 7 19H17C18.1046 19 19 18.1046 19 17V10.4308C19 9.76429 18.7338 9.12537 18.2607 8.65597L15.3063 5.72517C14.838 5.26065 14.2052 5 13.5456 5L7 5.00001ZM7 17.6H17C17.3314 17.6 17.6 17.3314 17.6 17V10.4308C17.6 10.1375 17.4829 9.85641 17.2747 9.64988L14.3203 6.71907C14.1143 6.51469 13.8358 6.4 13.5456 6.4L7 6.40001C6.66863 6.40001 6.4 6.66864 6.4 7.00001V17C6.4 17.3314 6.66863 17.6 7 17.6Z" fill="#333333"/>
</svg>
