<svg width="24" height="24" viewBox="0 0 24 24" fill="none" xmlns="http://www.w3.org/2000/svg">
<path d="M12.7232 17.8106H5.87519C5.1192 17.8106 4.50635 17.1978 4.50635 16.4418C4.50635 15.9626 4.75447 15.5367 5.12502 15.2833C5.38977 15.1023 5.76484 14.8261 6.06627 14.5329C6.21738 14.3859 6.33165 14.2522 6.40392 14.1401C6.45609 14.0592 6.4691 14.0163 6.47198 14.0069L6.47233 14.0057C6.47226 13.6677 6.4693 13.2553 6.46576 12.7609L6.46312 12.3883C6.45851 11.7205 6.45389 10.9264 6.45389 9.99877C6.45389 8.12459 7.82982 5.52844 10.5966 4.88772C10.6299 4.14104 11.2458 3.5459 12.0007 3.5459C12.7616 3.5459 13.3812 4.15056 13.4054 4.90558C15.368 5.39058 16.6177 6.86539 17.1597 8.34701C16.9999 8.33321 16.8382 8.32617 16.6748 8.32617C16.3326 8.32617 15.9976 8.35706 15.6725 8.41619C15.1727 7.39937 14.2059 6.45179 12.7865 6.20531L12.7678 6.2018L12.7663 6.20152L12.7553 6.19941C12.7448 6.19742 12.7281 6.19435 12.7061 6.19054C12.662 6.18291 12.5973 6.17245 12.5189 6.16194C12.3593 6.14053 12.1558 6.12068 11.9588 6.1207C11.7625 6.12072 11.5597 6.14091 11.4003 6.16271C11.322 6.1734 11.2575 6.18404 11.2135 6.1918C11.1916 6.19567 11.175 6.19879 11.1645 6.2008L11.1536 6.20294L11.1525 6.20315C11.1457 6.20456 11.1388 6.20587 11.1319 6.20708C8.96371 6.58676 7.85389 8.60392 7.85389 9.99877C7.85389 10.9217 7.85849 11.7122 7.86309 12.3786L7.86571 12.7482C7.86929 13.2486 7.87233 13.6714 7.87233 14.0171C7.87233 14.3683 7.72534 14.6742 7.58053 14.8988C7.42973 15.1327 7.23501 15.3491 7.04245 15.5365C6.67442 15.8945 6.24716 16.21 5.95655 16.4106H11.7108C11.9746 16.9295 12.3173 17.4014 12.7232 17.8106Z" fill="#333333"/>
<path d="M13.4669 18.4401C13.4479 18.4626 13.43 18.4865 13.4135 18.5118C13.2905 18.7011 13.0997 18.8733 12.8491 18.9986C12.5983 19.124 12.3048 19.1934 12.0004 19.1934C11.6959 19.1934 11.4024 19.124 11.1516 18.9986C10.901 18.8733 10.7103 18.7011 10.5872 18.5118C10.3765 18.1877 9.94287 18.0958 9.61877 18.3066C9.29467 18.5174 9.20278 18.9509 9.41354 19.275C9.68432 19.6915 10.0726 20.0243 10.5256 20.2508C10.9784 20.4773 11.4874 20.5934 12.0004 20.5934C12.5134 20.5934 13.0223 20.4773 13.4752 20.2508C13.9282 20.0243 14.3164 19.6915 14.5872 19.275C14.6261 19.2152 14.6547 19.1516 14.6735 19.0863C14.2429 18.9203 13.8381 18.7024 13.4669 18.4401Z" fill="#333333"/>
<path d="M16.6748 10.3075C17.0614 10.3075 17.3748 10.6209 17.3748 11.0075V13.1415H19.5088C19.8954 13.1415 20.2088 13.4549 20.2088 13.8415C20.2088 14.2281 19.8954 14.5415 19.5088 14.5415H17.3748V16.6755C17.3748 17.0621 17.0614 17.3755 16.6748 17.3755C16.2882 17.3755 15.9748 17.0621 15.9748 16.6755V14.5415H13.8408C13.4542 14.5415 13.1408 14.2281 13.1408 13.8415C13.1408 13.4549 13.4542 13.1415 13.8408 13.1415H15.9748V11.0075C15.9748 10.6209 16.2882 10.3075 16.6748 10.3075Z" fill="#333333"/>
</svg>
