<svg width="24" height="24" viewBox="0 0 24 24" fill="none" xmlns="http://www.w3.org/2000/svg">
<path fill-rule="evenodd" clip-rule="evenodd" d="M13.4049 4.90558C16.12 5.57653 17.4708 8.14175 17.4708 9.99877C17.4708 10.9262 17.4664 11.7203 17.462 12.388L17.4595 12.7608C17.4562 13.2549 17.4534 13.6678 17.4533 14.0058L17.4537 14.007C17.4565 14.0165 17.4695 14.0594 17.5217 14.1404C17.5939 14.2524 17.708 14.3862 17.859 14.5331C18.16 14.8263 18.5347 15.1025 18.7992 15.2835C19.1694 15.5369 19.4174 15.9626 19.4174 16.4417C19.4174 17.1977 18.8044 17.8106 18.0484 17.8106H5.8747C5.11871 17.8106 4.50586 17.1978 4.50586 16.4418C4.50586 15.9626 4.75398 15.5367 5.12453 15.2833C5.38928 15.1023 5.76435 14.8261 6.06578 14.5329C6.21689 14.3859 6.33116 14.2522 6.40343 14.1401C6.4556 14.0592 6.46861 14.0163 6.47149 14.0069L6.47184 14.0057C6.47177 13.6677 6.46882 13.2553 6.46527 12.7609L6.46264 12.3883C6.45802 11.7205 6.4534 10.9264 6.4534 9.99877C6.4534 8.12459 7.82933 5.52844 10.5961 4.88772C10.6294 4.14104 11.2453 3.5459 12.0002 3.5459C12.7611 3.5459 13.3807 4.15056 13.4049 4.90558ZM11.152 6.20315C11.1452 6.20456 11.1383 6.20587 11.1314 6.20708C8.96322 6.58676 7.8534 8.60392 7.8534 9.99877C7.8534 10.9217 7.858 11.7122 7.8626 12.3786L7.86522 12.7482C7.86881 13.2486 7.87184 13.6714 7.87184 14.0171C7.87184 14.3683 7.72485 14.6742 7.58004 14.8988C7.42924 15.1327 7.23453 15.3491 7.04196 15.5365C6.67393 15.8945 6.24667 16.21 5.95606 16.4106H17.9675C17.6771 16.21 17.2501 15.8943 16.8823 15.5361C16.6899 15.3488 16.4954 15.1323 16.3447 14.8985C16.2001 14.6739 16.0533 14.3681 16.0533 14.0171C16.0533 13.6716 16.0562 13.249 16.0596 12.7487L16.0621 12.3789C16.0664 11.7124 16.0708 10.9218 16.0708 9.99877C16.0708 8.60225 14.9585 6.58256 12.786 6.20531C12.6972 6.18864 12.6081 6.17396 12.5184 6.16194C12.3588 6.14053 12.1553 6.12068 11.9583 6.1207C11.762 6.12072 11.5592 6.14091 11.3998 6.16271C11.3169 6.17404 11.2341 6.18689 11.152 6.20315Z" fill="#333333"/>
<path d="M9.61828 18.3066C9.94238 18.0958 10.376 18.1877 10.5867 18.5118C10.7098 18.7011 10.9005 18.8733 11.1512 18.9986C11.4019 19.124 11.6954 19.1934 11.9999 19.1934C12.3043 19.1934 12.5978 19.124 12.8486 18.9986C13.0993 18.8733 13.29 18.7011 13.4131 18.5118C13.6238 18.1877 14.0574 18.0958 14.3815 18.3066C14.7056 18.5174 14.7975 18.9509 14.5867 19.275C14.3159 19.6915 13.9277 20.0243 13.4747 20.2508C13.0219 20.4773 12.5129 20.5934 11.9999 20.5934C11.4869 20.5934 10.9779 20.4773 10.5251 20.2508C10.0721 20.0243 9.68383 19.6915 9.41305 19.275C9.2023 18.9509 9.29418 18.5174 9.61828 18.3066Z" fill="#333333"/>
</svg>
