<svg width="24" height="24" viewBox="0 0 24 24" fill="none" xmlns="http://www.w3.org/2000/svg">
<path fill-rule="evenodd" clip-rule="evenodd" d="M12.0002 4.9957C12.0248 4.9957 12.0448 4.97576 12.0448 4.95116H11.9557C11.9557 4.97576 11.9756 4.9957 12.0002 4.9957ZM10.6448 4.95116C10.6448 4.20256 11.2516 3.5957 12.0002 3.5957C12.7488 3.5957 13.3557 4.20256 13.3557 4.95116V5.65116H10.6448V4.95116Z" fill="#333333"/>
<path fill-rule="evenodd" clip-rule="evenodd" d="M9.61843 18.3065C9.94253 18.0958 10.3761 18.1877 10.5869 18.5118C10.7099 18.701 10.9007 18.8732 11.1513 18.9986C11.4021 19.1239 11.6956 19.1934 12 19.1934C12.3045 19.1934 12.598 19.1239 12.8488 18.9986C13.0994 18.8732 13.2901 18.701 13.4132 18.5118C13.624 18.1877 14.0575 18.0958 14.3816 18.3065C14.7057 18.5173 14.7976 18.9509 14.5869 19.275C14.3161 19.6914 13.9278 20.0243 13.4749 20.2507C13.022 20.4772 12.5131 20.5934 12 20.5934C11.487 20.5934 10.9781 20.4772 10.5252 20.2507C10.0722 20.0243 9.68398 19.6914 9.4132 19.275C9.20244 18.9509 9.29433 18.5173 9.61843 18.3065Z" fill="#333333"/>
<path fill-rule="evenodd" clip-rule="evenodd" d="M15.8523 6.28923C15.1452 5.58112 14.2061 5.03263 13.034 4.82735L13.015 4.8237C12.998 4.82049 12.9743 4.81615 12.9449 4.81105C12.8861 4.80087 12.8036 4.78758 12.705 4.77436C12.5105 4.74828 12.2402 4.72067 11.9586 4.7207C11.6763 4.72073 11.4054 4.74898 11.2106 4.77561C11.1118 4.78913 11.0292 4.8027 10.9702 4.8131C10.9407 4.8183 10.917 4.82275 10.8999 4.82603L10.8818 4.82958C7.92436 5.3522 6.45389 8.06128 6.45389 9.99877C6.45389 10.9264 6.45851 11.7205 6.46312 12.3883L6.46576 12.7609C6.46932 13.2569 6.47228 13.6705 6.47233 14.0091C6.47232 14.0091 6.47234 14.0091 6.47233 14.0091C6.47218 14.0091 6.47183 14.0101 6.47118 14.0123C6.4672 14.0258 6.45072 14.0816 6.38473 14.1863C6.29971 14.3212 6.16938 14.4793 6.0046 14.6496C5.67617 14.989 5.27818 15.3081 5.02629 15.4987C4.71052 15.7377 4.50635 16.1162 4.50635 16.5352C4.50635 16.8427 4.61518 17.1248 4.79643 17.3451L7.8414 14.3001C7.86094 14.2093 7.87233 14.1146 7.87233 14.0171C7.87233 13.6714 7.8693 13.2487 7.86571 12.7482L7.86309 12.3786C7.85849 11.7122 7.85389 10.9217 7.85389 9.99877C7.85389 8.60392 8.96371 6.58676 11.1319 6.20708C11.1388 6.20587 11.1457 6.20456 11.1525 6.20315L11.1536 6.20294L11.1645 6.2008C11.175 6.19879 11.1916 6.19567 11.2135 6.1918C11.2575 6.18404 11.322 6.1734 11.4003 6.16271C11.5597 6.14091 11.7625 6.12073 11.9588 6.1207C12.1558 6.12068 12.3593 6.14053 12.5189 6.16194C12.5973 6.17245 12.662 6.18291 12.7061 6.19054C12.7281 6.19435 12.7448 6.19742 12.7553 6.19941L12.7663 6.20152L12.7673 6.2017L12.7865 6.20531C13.6442 6.35426 14.3367 6.75923 14.8607 7.2808L15.8523 6.28923ZM15.6832 8.4382L16.7147 7.40671C17.2194 8.2631 17.4713 9.19695 17.4713 9.99877C17.4713 10.9262 17.4669 11.7203 17.4625 12.388L17.46 12.7608C17.4567 13.2549 17.4539 13.6678 17.4538 14.0058C17.4539 14.0061 17.454 14.0065 17.4542 14.007C17.457 14.0165 17.47 14.0594 17.5222 14.1404C17.5944 14.2524 17.7085 14.3862 17.8594 14.5331C18.1605 14.8263 18.5352 15.1025 18.7996 15.2835C19.1699 15.5369 19.4178 15.9626 19.4178 16.4417C19.4178 17.1977 18.8049 17.8106 18.0489 17.8106H6.31076L7.71076 16.4106H17.968C17.6776 16.21 17.2506 15.8943 16.8827 15.5361C16.6904 15.3488 16.4959 15.1323 16.3452 14.8985C16.2006 14.6739 16.0538 14.3681 16.0538 14.0171C16.0538 13.6716 16.0567 13.249 16.0601 12.7487L16.0626 12.3789C16.0669 11.7124 16.0713 10.9218 16.0713 9.99877C16.0713 9.52125 15.9412 8.97086 15.6832 8.4382ZM6.47233 14.0091C6.47233 14.0118 6.47233 14.0144 6.47233 14.0171C6.47233 14.015 6.47236 14.0134 6.47238 14.0121C6.47241 14.0103 6.47243 14.0093 6.47233 14.0091Z" fill="#333333"/>
<path fill-rule="evenodd" clip-rule="evenodd" d="M17.4946 3.97769C17.2212 3.70433 16.778 3.70433 16.5047 3.97769L3.77534 16.707C3.50197 16.9804 3.50197 17.4236 3.77534 17.697C4.0487 17.9703 4.49192 17.9703 4.76529 17.697L17.4946 4.96764C17.768 4.69428 17.768 4.25106 17.4946 3.97769Z" fill="#333333"/>
</svg>
