<svg width="24" height="24" viewBox="0 0 24 24" fill="none" xmlns="http://www.w3.org/2000/svg">
<path fill-rule="evenodd" clip-rule="evenodd" d="M15.7105 6.16762C15.1063 5.60886 14.332 5.14033 13.405 4.90694C13.3815 4.15128 12.7615 3.5459 12.0002 3.5459C11.2536 3.5459 10.6429 4.12807 10.5974 4.86322C7.74505 5.46629 6.4534 8.12666 6.4534 9.9992C6.4534 10.9268 6.45802 11.7209 6.46264 12.3887L6.46527 12.7613C6.46882 13.2557 6.47177 13.6682 6.47184 14.0062L6.47149 14.0073C6.46861 14.0168 6.4556 14.0596 6.40343 14.1405C6.33116 14.2526 6.21689 14.3864 6.06578 14.5334C5.76435 14.8266 5.38928 15.1028 5.12453 15.2838C4.75398 15.5371 4.50586 15.963 4.50586 16.4422C4.50586 17.1982 5.11871 17.8111 5.8747 17.8111H11.9616C12.3482 17.8111 12.6616 17.4977 12.6616 17.1111C12.6616 16.7245 12.3482 16.4111 11.9616 16.4111H5.95606C6.24667 16.2104 6.67393 15.8949 7.04196 15.5369C7.23453 15.3496 7.42924 15.1331 7.58004 14.8992C7.72485 14.6746 7.87184 14.3687 7.87184 14.0175C7.87184 13.6718 7.86881 13.249 7.86522 12.7486L7.8626 12.3791C7.858 11.7126 7.8534 10.9221 7.8534 9.9992C7.8534 8.57924 8.88146 6.58329 11.0258 6.2061C11.6283 6.10636 12.2148 6.09032 12.7668 6.20213L12.786 6.20574C13.5821 6.34398 14.2456 6.71986 14.7599 7.19545C15.0437 7.45794 15.4866 7.44065 15.7491 7.15682C16.0116 6.87299 15.9943 6.43012 15.7105 6.16762ZM10.5867 18.5118C10.376 18.1877 9.94238 18.0958 9.61828 18.3066C9.29418 18.5174 9.2023 18.9509 9.41305 19.275C9.68383 19.6915 10.0721 20.0243 10.5251 20.2508C10.9779 20.4773 11.4869 20.5934 11.9999 20.5934C12.5129 20.5934 13.0219 20.4773 13.4747 20.2508C13.9277 20.0243 14.3159 19.6915 14.5867 19.275C14.7975 18.9509 14.7056 18.5174 14.3815 18.3066C14.0574 18.0958 13.6238 18.1877 13.4131 18.5118C13.29 18.7011 13.0993 18.8733 12.8486 18.9986C12.5978 19.124 12.3043 19.1934 11.9999 19.1934C11.6954 19.1934 11.4019 19.124 11.1512 18.9986C10.9005 18.8733 10.7098 18.7011 10.5867 18.5118ZM19.5881 9.62267C20.1078 9.55001 20.7068 9.72471 21.0659 10.2328C21.2989 10.5626 21.487 10.9175 21.6287 11.2879C21.8502 11.8672 21.6645 12.4609 21.3165 12.853L21.1973 12.9872C21.1179 13.0767 21.1136 13.21 21.1871 13.3044L21.2968 13.4453C21.6193 13.8595 21.7667 14.4656 21.5059 15.0302C21.3433 15.3825 21.1353 15.7208 20.8813 16.0373C20.4911 16.5234 19.8801 16.6652 19.36 16.5587L19.1877 16.5234C19.0706 16.4994 18.953 16.5623 18.908 16.6731L18.8334 16.8569C18.6358 17.3436 18.1839 17.775 17.5634 17.8306C17.1696 17.8659 16.7704 17.8523 16.3755 17.788C15.7647 17.6885 15.347 17.2307 15.1828 16.7361L15.1225 16.5544C15.0848 16.4408 14.9713 16.3703 14.8526 16.3868L14.6763 16.4115C14.1565 16.4842 13.5574 16.3094 13.1983 15.8011C12.9655 15.4714 12.7775 15.1166 12.636 14.7464C12.4145 14.1672 12.6002 13.5735 12.9482 13.1814L13.0677 13.0468C13.1471 12.9574 13.1514 12.824 13.0779 12.7297L12.9683 12.5888C12.6458 12.1745 12.4984 11.5683 12.7593 11.0037C12.922 10.6514 13.1301 10.313 13.3843 9.99658C13.7745 9.51064 14.3853 9.36896 14.9053 9.47547L15.0773 9.51071C15.1945 9.5347 15.3121 9.47174 15.3571 9.36094L15.4028 9.24817C15.6015 8.75884 16.0499 8.33919 16.6547 8.27107C17.0487 8.22669 17.449 8.22424 17.8381 8.26919C18.4797 8.3433 18.9225 8.81661 19.092 9.3274L19.1425 9.47964C19.1803 9.59331 19.2938 9.66381 19.4124 9.64723L19.5881 9.62267ZM19.8891 11.0183C19.8648 11.0091 19.8272 11.0028 19.7819 11.0092L19.6062 11.0337C18.8184 11.1439 18.0644 10.6756 17.8138 9.92067L17.7633 9.76844C17.7485 9.72394 17.7257 9.69323 17.7071 9.67655C17.6905 9.66171 17.681 9.66035 17.6774 9.65994C17.4014 9.62805 17.1078 9.62888 16.8114 9.66227C16.7996 9.6636 16.7834 9.66848 16.763 9.68519C16.7411 9.70308 16.717 9.73304 16.7 9.77475L16.6543 9.88752C16.3555 10.6234 15.5745 11.0416 14.7964 10.8822L14.6244 10.847C14.5793 10.8378 14.5408 10.8416 14.5149 10.8498C14.4911 10.8572 14.481 10.8668 14.4758 10.8732C14.2934 11.1004 14.1454 11.3415 14.0302 11.5908C14.0276 11.5964 14.0237 11.6079 14.0274 11.6313C14.0315 11.657 14.0449 11.6927 14.073 11.7288L14.1826 11.8696C14.6706 12.4964 14.6421 13.3822 14.1147 13.9762L13.9952 14.1108C13.9649 14.145 13.9493 14.1796 13.9435 14.2051C13.9382 14.2284 13.9413 14.2404 13.9436 14.2464C14.0441 14.5092 14.1773 14.7604 14.3419 14.9934C14.3453 14.9983 14.3532 15.0074 14.3753 15.0158C14.3996 15.0251 14.4372 15.0313 14.4825 15.025L14.6588 15.0003C15.4466 14.8902 16.2006 15.3584 16.4512 16.1134L16.5116 16.2951C16.5259 16.3383 16.5479 16.369 16.5667 16.3865C16.5838 16.4024 16.595 16.4053 16.6005 16.4062C16.8786 16.4515 17.1602 16.4611 17.4384 16.4362C17.4444 16.4357 17.4562 16.4334 17.4746 16.4185C17.4948 16.4021 17.519 16.3727 17.5362 16.3303L17.6108 16.1465C17.9095 15.4107 18.6906 14.9925 19.4686 15.1518L19.6409 15.1871C19.686 15.1964 19.7245 15.1925 19.7504 15.1844C19.7743 15.1769 19.7844 15.1673 19.7895 15.1609C19.9719 14.9337 20.1198 14.6926 20.2349 14.4433C20.2375 14.4377 20.2415 14.4262 20.2377 14.4028C20.2336 14.3771 20.2202 14.3415 20.1921 14.3054L20.0824 14.1644C19.5944 13.5376 19.623 12.6519 20.1503 12.0578L20.2695 11.9236C20.2998 11.8895 20.3154 11.8548 20.3212 11.8293C20.3265 11.8061 20.3234 11.7941 20.3211 11.7881C20.2205 11.5252 20.0872 11.2739 19.9225 11.0408C19.9191 11.0359 19.9112 11.0268 19.8891 11.0183ZM17.0507 12.4927C17.4799 12.402 17.8263 12.7622 17.7394 13.1677L16.6296 12.9084C16.6407 12.8564 16.688 12.7566 16.7908 12.6546C16.8934 12.5527 16.9952 12.5044 17.0507 12.4927ZM17.3183 13.5833C17.5309 13.5384 17.6956 13.3722 17.7394 13.1677L16.6296 12.9084C16.5428 13.3136 16.889 13.674 17.3183 13.5833ZM19.1083 13.461C19.4114 12.0468 18.1648 10.8264 16.7614 11.1229C16.3836 11.2027 16.051 11.4163 15.8045 11.661C15.5583 11.9054 15.3418 12.2368 15.2607 12.6149C14.9577 14.0287 16.2037 15.2495 17.6074 14.9531C18.3562 14.7951 18.9477 14.2108 19.1083 13.461Z" fill="#333333"/>
</svg>
