<svg width="24" height="24" viewBox="0 0 24 24" fill="none" xmlns="http://www.w3.org/2000/svg">
<path fill-rule="evenodd" clip-rule="evenodd" d="M9.8881 7.19805C9.8881 6.81145 10.2015 6.49805 10.5881 6.49805H18.5881C18.9747 6.49805 19.2881 6.81145 19.2881 7.19805C19.2881 7.58465 18.9747 7.89805 18.5881 7.89805H10.5881C10.2015 7.89805 9.8881 7.58465 9.8881 7.19805Z" fill="#333333"/>
<path fill-rule="evenodd" clip-rule="evenodd" d="M9.8881 16.8006C9.8881 16.414 10.2015 16.1006 10.5881 16.1006L18.5881 16.1006C18.9747 16.1006 19.2881 16.414 19.2881 16.8006C19.2881 17.1872 18.9747 17.5006 18.5881 17.5006L10.5881 17.5006C10.2015 17.5006 9.8881 17.1872 9.8881 16.8006Z" fill="#333333"/>
<path fill-rule="evenodd" clip-rule="evenodd" d="M9.8881 11.9998C9.8881 11.6132 10.2015 11.2998 10.5881 11.2998L18.5881 11.2998C18.9747 11.2998 19.2881 11.6132 19.2881 11.9998C19.2881 12.3864 18.9747 12.6998 18.5881 12.6998L10.5881 12.6998C10.2015 12.6998 9.8881 12.3864 9.8881 11.9998Z" fill="#333333"/>
<path fill-rule="evenodd" clip-rule="evenodd" d="M6.83018 5.88263C7.05779 6.00445 7.19988 6.24165 7.19988 6.49981V10.4998C7.19988 10.8864 6.88648 11.1998 6.49988 11.1998C6.11328 11.1998 5.79988 10.8864 5.79988 10.4998V7.80777L5.38817 8.08224C5.0665 8.29669 4.63189 8.20977 4.41744 7.8881C4.203 7.56643 4.28992 7.13182 4.61159 6.91737L6.11159 5.91737C6.32639 5.77417 6.60257 5.76082 6.83018 5.88263Z" fill="#333333"/>
<path fill-rule="evenodd" clip-rule="evenodd" d="M4.96013 13.5267C6.11311 12.1304 8.14571 12.9174 8.14571 14.4886C8.14571 15.0498 7.95893 15.4755 7.65111 15.8021C7.42352 16.0436 7.1287 16.2217 6.92749 16.3433C6.89628 16.3622 6.86733 16.3797 6.84123 16.3958C6.60935 16.5393 6.47123 16.6446 6.37555 16.78C6.37105 16.7864 6.36654 16.793 6.36201 16.7998H7.49988C7.88648 16.7998 8.19988 17.1132 8.19988 17.4998C8.19988 17.8864 7.88648 18.1998 7.49988 18.1998H5.49988C5.11328 18.1998 4.79988 17.8864 4.79988 17.4998C4.79988 16.8658 4.95204 16.3685 5.23228 15.972C5.50145 15.5911 5.84978 15.363 6.10436 15.2054C6.14698 15.179 6.18623 15.1549 6.2225 15.1326C6.43479 15.0022 6.54515 14.9344 6.63223 14.842C6.68926 14.7815 6.74571 14.7017 6.74571 14.4886C6.74571 14.3849 6.67412 14.2683 6.53022 14.2188C6.46485 14.1964 6.39291 14.1926 6.31934 14.214C6.24821 14.2346 6.14816 14.2867 6.03963 14.4181C5.79346 14.7162 5.35225 14.7583 5.05416 14.5121C4.75606 14.266 4.71396 13.8248 4.96013 13.5267Z" fill="#333333"/>
</svg>
