<svg width="24" height="24" viewBox="0 0 24 24" fill="none" xmlns="http://www.w3.org/2000/svg">
<path fill-rule="evenodd" clip-rule="evenodd" d="M12.0911 14.9839C13.6944 14.9839 14.9941 13.6841 14.9941 12.0808C14.9941 10.4775 13.6944 9.17773 12.0911 9.17773C10.4877 9.17773 9.18799 10.4775 9.18799 12.0808C9.18799 13.6841 10.4877 14.9839 12.0911 14.9839ZM13.5941 12.0808C13.5941 12.9109 12.9212 13.5839 12.0911 13.5839C11.2609 13.5839 10.588 12.9109 10.588 12.0808C10.588 11.2507 11.2609 10.5777 12.0911 10.5777C12.9212 10.5777 13.5941 11.2507 13.5941 12.0808Z" fill="#333333"/>
<path fill-rule="evenodd" clip-rule="evenodd" d="M3.97453 10.6077C5.9187 7.99863 8.67797 5.90745 12.0925 5.99379C15.5234 5.90709 18.1358 8.03745 20.1807 10.606C20.1986 10.6285 20.2191 10.6536 20.2413 10.681C20.3434 10.8069 20.4839 10.9801 20.5943 11.1569C20.7364 11.3847 20.8822 11.6967 20.8822 12.0777C20.8822 12.4568 20.7392 12.7685 20.5995 12.9972C20.4924 13.1725 20.3555 13.346 20.2555 13.4728C20.2324 13.5021 20.2112 13.5288 20.1929 13.5526C18.1561 16.188 15.5184 18.2542 12.0925 18.1674C8.68065 18.2539 5.90731 16.2257 3.96184 13.5469C3.94224 13.5199 3.91848 13.4881 3.892 13.4527C3.79857 13.3278 3.67132 13.1576 3.57386 12.993C3.43918 12.7655 3.2998 12.4557 3.2998 12.0802C3.2998 11.7027 3.44101 11.3916 3.57807 11.1632C3.67954 10.9941 3.81076 10.8225 3.90701 10.6967C3.93233 10.6635 3.95523 10.6336 3.97453 10.6077ZM5.09714 11.4442C6.90967 9.01179 9.29448 7.31686 12.0731 7.39377C12.086 7.39413 12.0989 7.39413 12.1118 7.39377C14.8841 7.31703 17.1275 9.01861 19.0855 11.478C19.1198 11.5211 19.1512 11.5601 19.1804 11.5961C19.2762 11.7148 19.3464 11.8016 19.4065 11.898C19.4771 12.0111 19.4822 12.0618 19.4822 12.0777C19.4822 12.0976 19.4756 12.1515 19.4047 12.2675C19.3455 12.3644 19.2773 12.4512 19.185 12.5687C19.1546 12.6074 19.1214 12.6496 19.0852 12.6965C17.1581 15.1899 14.891 16.8444 12.1118 16.7674C12.0989 16.767 12.086 16.767 12.0731 16.7674C9.2852 16.8446 6.89137 15.1982 5.09463 12.7242C5.04998 12.6627 5.01053 12.6099 4.97498 12.5623C4.89481 12.455 4.83442 12.3741 4.77858 12.2798C4.70759 12.1599 4.6998 12.1032 4.6998 12.0802C4.6998 12.0582 4.70723 12.0024 4.77849 11.8836C4.8358 11.7881 4.89935 11.7048 4.9843 11.5934C5.01818 11.549 5.05549 11.5001 5.09714 11.4442Z" fill="#333333"/>
</svg>
