<svg width="24" height="24" viewBox="0 0 24 24" fill="none" xmlns="http://www.w3.org/2000/svg">
<path fill-rule="evenodd" clip-rule="evenodd" d="M13.5361 15.0293C13.1357 14.0682 14.0576 13.1043 15.0176 13.4209L15.1104 13.4551L20.625 15.7529C21.6141 16.1651 21.6027 17.5501 20.6504 17.9648L20.5557 18.002L18.7178 18.6367L18.083 20.4746C17.7211 21.5196 16.2594 21.5648 15.834 20.5439L13.5361 15.0293ZM16.9268 19.5098L17.4209 18.084L17.4736 17.9561C17.6118 17.6686 17.8601 17.4455 18.165 17.3398L19.5908 16.8457L15.0244 14.9434L16.9268 19.5098Z" fill="#15C674"/>
<path d="M15.4316 3.61914C15.9287 3.61914 16.332 4.02248 16.332 4.51953V4.91406H17.3105C18.8566 4.91427 20.1101 6.16778 20.1104 7.71387V12.9512C20.1104 13.3378 19.7968 13.6514 19.4102 13.6514C19.0236 13.6514 18.71 13.3378 18.71 12.9512V7.71387C18.7098 6.94098 18.0834 6.31466 17.3105 6.31445H16.332V6.94922C16.332 7.44627 15.9287 7.84961 15.4316 7.84961C14.9346 7.84961 14.5312 7.44627 14.5312 6.94922V6.31445H9.45215V6.94922C9.45215 7.44627 9.04881 7.84961 8.55176 7.84961C8.0547 7.84961 7.65137 7.44627 7.65137 6.94922V6.31445H6.69336C5.92047 6.31466 5.29416 6.94098 5.29395 7.71387V16.2988C5.29416 17.0717 5.92047 17.698 6.69336 17.6982H12.6826L12.8242 17.7129C13.1431 17.7783 13.3828 18.0602 13.3828 18.3984C13.3828 18.7366 13.1431 19.0186 12.8242 19.084L12.6826 19.0986H6.69336C5.14727 19.0984 3.89376 17.8449 3.89355 16.2988V7.71387C3.89377 6.16778 5.14727 4.91427 6.69336 4.91406H7.65137V4.51953C7.65137 4.02248 8.0547 3.61914 8.55176 3.61914C9.04881 3.61914 9.45215 4.02248 9.45215 4.51953V4.91406H14.5312V4.51953C14.5312 4.02248 14.9346 3.61914 15.4316 3.61914Z" fill="#15C674"/>
<path fill-rule="evenodd" clip-rule="evenodd" d="M8.86328 13.1504C9.2668 13.1912 9.58193 13.5321 9.58203 13.9463V14.793L9.57812 14.874C9.53999 15.2508 9.24007 15.5508 8.86328 15.5889L8.78223 15.5928H7.97363L7.8916 15.5889C7.5152 15.5505 7.21585 15.2505 7.17773 14.874L7.17383 14.793V13.9463C7.17393 13.5323 7.48847 13.1915 7.8916 13.1504L7.97363 13.1465H8.78223L8.86328 13.1504ZM8.35547 14.3691C8.36228 14.376 8.3708 14.3812 8.37793 14.3877C8.3849 14.3813 8.39275 14.3758 8.39941 14.3691C8.39277 14.3625 8.38489 14.3569 8.37793 14.3506C8.37078 14.3571 8.36229 14.3623 8.35547 14.3691Z" fill="#15C674"/>
<path fill-rule="evenodd" clip-rule="evenodd" d="M8.86328 9.32617C9.2668 9.36695 9.58193 9.70784 9.58203 10.1221V10.9688L9.57812 11.0498C9.53999 11.4266 9.24007 11.7266 8.86328 11.7646L8.78223 11.7686H7.97363L7.8916 11.7646C7.5152 11.7262 7.21585 11.4263 7.17773 11.0498L7.17383 10.9688V10.1221C7.17393 9.70811 7.48847 9.36732 7.8916 9.32617L7.97363 9.32227H8.78223L8.86328 9.32617ZM8.35547 10.5449C8.36228 10.5518 8.3708 10.5569 8.37793 10.5635C8.3849 10.5571 8.39275 10.5516 8.39941 10.5449C8.39277 10.5382 8.38489 10.5327 8.37793 10.5264C8.37078 10.5329 8.36229 10.5381 8.35547 10.5449Z" fill="#15C674"/>
<path fill-rule="evenodd" clip-rule="evenodd" d="M12.5439 9.32617C12.9475 9.36695 13.2626 9.70784 13.2627 10.1221V10.9688L13.2588 11.0498C13.2207 11.4266 12.9207 11.7266 12.5439 11.7646L12.4629 11.7686H11.6543L11.5723 11.7646C11.1959 11.7262 10.8965 11.4263 10.8584 11.0498L10.8545 10.9688V10.1221C10.8546 9.70811 11.1691 9.36732 11.5723 9.32617L11.6543 9.32227H12.4629L12.5439 9.32617ZM12.0361 10.5449C12.0429 10.5518 12.0515 10.5569 12.0586 10.5635C12.0656 10.5571 12.0734 10.5516 12.0801 10.5449C12.0734 10.5382 12.0656 10.5327 12.0586 10.5264C12.0514 10.5329 12.043 10.5381 12.0361 10.5449Z" fill="#15C674"/>
<path fill-rule="evenodd" clip-rule="evenodd" d="M16.0605 9.32617C16.4641 9.36695 16.7792 9.70784 16.7793 10.1221V10.9688L16.7754 11.0498C16.7373 11.4266 16.4373 11.7266 16.0605 11.7646L15.9795 11.7686H15.1709L15.0889 11.7646C14.7125 11.7262 14.4131 11.4263 14.375 11.0498L14.3711 10.9688V10.1221C14.3712 9.70811 14.6857 9.36732 15.0889 9.32617L15.1709 9.32227H15.9795L16.0605 9.32617ZM15.5527 10.5449C15.5595 10.5518 15.5681 10.5569 15.5752 10.5635C15.5822 10.5571 15.59 10.5516 15.5967 10.5449C15.59 10.5382 15.5822 10.5327 15.5752 10.5264C15.5681 10.5329 15.5596 10.5381 15.5527 10.5449Z" fill="#15C674"/>
</svg>
