<svg width="24" height="24" viewBox="0 0 24 24" fill="none" xmlns="http://www.w3.org/2000/svg">
<path d="M8.55137 3.61914C9.04842 3.61914 9.45137 4.02208 9.45137 4.51914V4.91406H14.5312V4.51914C14.5312 4.02208 14.9342 3.61914 15.4312 3.61914C15.9283 3.61914 16.3313 4.02208 16.3313 4.51914V4.91406H17.31C18.8564 4.91406 20.11 6.16767 20.11 7.71406V11.0053C20.11 11.3919 19.7966 11.7053 19.41 11.7053C19.0234 11.7053 18.71 11.3919 18.71 11.0053V7.71406C18.71 6.94086 18.0832 6.31406 17.31 6.31406H16.3313V6.94883C16.3313 7.44588 15.9283 7.84883 15.4313 7.84883C14.9342 7.84883 14.5312 7.44588 14.5312 6.94883V6.31406H9.45137V6.94883C9.45137 7.44588 9.04842 7.84883 8.55137 7.84883C8.05431 7.84883 7.65137 7.44588 7.65137 6.94883V6.31406H6.69355C5.92036 6.31406 5.29355 6.94086 5.29355 7.71406V16.2982C5.29355 17.0714 5.92036 17.6982 6.69356 17.6982H10.4055C10.7921 17.6982 11.1055 18.0116 11.1055 18.3982C11.1055 18.7848 10.7921 19.0982 10.4055 19.0982H6.69356C5.14716 19.0982 3.89355 17.8446 3.89355 16.2982V7.71406C3.89355 6.16767 5.14716 4.91406 6.69355 4.91406H7.65137V4.51914C7.65137 4.02208 8.05431 3.61914 8.55137 3.61914Z" fill="#333333"/>
<path d="M13.4248 15.3387C13.4248 14.9521 13.7382 14.6387 14.1248 14.6387L20.4611 14.6387C20.8477 14.6387 21.1611 14.9521 21.1611 15.3387C21.1611 15.7253 20.8477 16.0387 20.4611 16.0387L14.1248 16.0387C13.7382 16.0387 13.4248 15.7253 13.4248 15.3387Z" fill="#333333"/>
<path d="M14.1248 17.6982C13.7382 17.6982 13.4248 18.0116 13.4248 18.3982C13.4248 18.7848 13.7382 19.0982 14.1248 19.0982L20.4611 19.0983C20.8477 19.0983 21.1611 18.7849 21.1611 18.3983C21.1611 18.0117 20.8477 17.6983 20.4611 17.6983L14.1248 17.6982Z" fill="#333333"/>
<path fill-rule="evenodd" clip-rule="evenodd" d="M15.1711 9.32129C14.7293 9.32129 14.3711 9.67946 14.3711 10.1213V10.9674C14.3711 11.4092 14.7293 11.7674 15.1711 11.7674H15.9792C16.421 11.7674 16.7792 11.4092 16.7792 10.9674V10.1213C16.7792 9.67946 16.421 9.32129 15.9792 9.32129H15.1711ZM15.5966 10.5443C15.5896 10.5514 15.5825 10.5582 15.5751 10.5649C15.5678 10.5582 15.5607 10.5514 15.5537 10.5443C15.5607 10.5373 15.5678 10.5305 15.5751 10.5238C15.5825 10.5305 15.5896 10.5373 15.5966 10.5443Z" fill="#333333"/>
<path fill-rule="evenodd" clip-rule="evenodd" d="M10.8535 10.1213C10.8535 9.67946 11.2117 9.32129 11.6535 9.32129H12.4616C12.9034 9.32129 13.2616 9.67946 13.2616 10.1213V10.9674C13.2616 11.4092 12.9034 11.7674 12.4616 11.7674H11.6535C11.2117 11.7674 10.8535 11.4092 10.8535 10.9674V10.1213ZM12.0576 10.5649C12.0649 10.5582 12.072 10.5514 12.079 10.5443C12.072 10.5373 12.0649 10.5305 12.0576 10.5238C12.0503 10.5305 12.0431 10.5373 12.0361 10.5443C12.0431 10.5514 12.0503 10.5582 12.0576 10.5649Z" fill="#333333"/>
<path fill-rule="evenodd" clip-rule="evenodd" d="M7.97383 9.32129C7.532 9.32129 7.17383 9.67946 7.17383 10.1213V10.9674C7.17383 11.4092 7.532 11.7674 7.97383 11.7674H8.78193C9.22376 11.7674 9.58193 11.4092 9.58193 10.9674V10.1213C9.58193 9.67946 9.22376 9.32129 8.78193 9.32129H7.97383ZM8.3993 10.5443C8.39233 10.5514 8.38519 10.5582 8.37788 10.5649C8.37057 10.5582 8.36343 10.5514 8.35646 10.5443C8.36343 10.5373 8.37057 10.5305 8.37788 10.5238C8.38519 10.5305 8.39233 10.5373 8.3993 10.5443Z" fill="#333333"/>
<path fill-rule="evenodd" clip-rule="evenodd" d="M7.17383 13.9455C7.17383 13.5037 7.532 13.1455 7.97383 13.1455H8.78193C9.22376 13.1455 9.58193 13.5037 9.58193 13.9455V14.7916C9.58193 15.2334 9.22376 15.5916 8.78193 15.5916H7.97383C7.532 15.5916 7.17383 15.2334 7.17383 14.7916V13.9455ZM8.37788 14.3891C8.38519 14.3824 8.39233 14.3756 8.3993 14.3686C8.39233 14.3616 8.38519 14.3547 8.37788 14.3481C8.37057 14.3547 8.36343 14.3616 8.35646 14.3686C8.36343 14.3756 8.37057 14.3824 8.37788 14.3891Z" fill="#333333"/>
</svg>
