<svg width="24" height="24" viewBox="0 0 24 24" fill="none" xmlns="http://www.w3.org/2000/svg">
<path d="M11.0102 11.9998L8.50522 9.49478C8.23185 9.22141 8.23185 8.7782 8.50522 8.50483C8.77859 8.23146 9.2218 8.23146 9.49517 8.50483L12.4952 11.5048C12.7344 11.744 12.7643 12.1133 12.5849 12.385C12.5592 12.4238 12.5293 12.4606 12.4952 12.4948L9.49517 15.4948C9.2218 15.7681 8.77859 15.7681 8.50522 15.4948C8.23185 15.2214 8.23185 14.7782 8.50522 14.5048L11.0102 11.9998Z" fill="#333333"/>
<path fill-rule="evenodd" clip-rule="evenodd" d="M6.8998 5.0498C5.18772 5.0498 3.7998 6.43772 3.7998 8.1498V15.8498C3.7998 17.5619 5.18772 18.9498 6.8998 18.9498H17.0998C18.8119 18.9498 20.1998 17.5619 20.1998 15.8498V8.1498C20.1998 6.43772 18.8119 5.0498 17.0998 5.0498H6.8998ZM5.1998 8.1498C5.1998 7.21092 5.96092 6.4498 6.8998 6.4498H14.7998L14.7999 17.5498H6.8998C5.96092 17.5498 5.1998 16.7887 5.1998 15.8498V8.1498ZM16.1999 17.5498H17.0998C18.0387 17.5498 18.7998 16.7887 18.7998 15.8498V8.1498C18.7998 7.21092 18.0387 6.4498 17.0998 6.4498H16.1998L16.1999 17.5498Z" fill="#333333"/>
</svg>
