<svg width="24" height="24" viewBox="0 0 24 24" fill="none" xmlns="http://www.w3.org/2000/svg">
<path d="M9.60014 11.3996C9.78014 11.3996 9.96014 11.3296 10.0901 11.1896C10.3601 10.9196 10.3601 10.4696 10.0901 10.1996L9.79014 9.88957H14.6001C14.9901 9.88957 15.3001 9.57957 15.3001 9.18957C15.3001 8.79957 14.9901 8.48957 14.6001 8.48957H9.79014L10.0901 8.18957C10.3601 7.91957 10.3601 7.46957 10.0901 7.19957C9.82014 6.92957 9.37014 6.92957 9.10014 7.19957L7.60014 8.69957C7.47014 8.82957 7.39014 9.00957 7.39014 9.18957C7.39014 9.37957 7.46014 9.54957 7.60014 9.68957L9.10014 11.1896C9.24014 11.3296 9.42014 11.3996 9.60014 11.3996Z" fill="#333333"/>
<path d="M14.0999 12.2103C13.8299 11.9403 13.3799 11.9403 13.1099 12.2103C12.8399 12.4803 12.8399 12.9303 13.1099 13.2003L13.4099 13.5003H8.5999C8.2099 13.5003 7.8999 13.8103 7.8999 14.2003C7.8999 14.5903 8.2099 14.9003 8.5999 14.9003H13.4099L13.1099 15.2003C12.8399 15.4703 12.8399 15.9203 13.1099 16.1903C13.2499 16.3303 13.4299 16.4003 13.6099 16.4003C13.7899 16.4003 13.9699 16.3303 14.1099 16.1903L15.6099 14.6903C15.7399 14.5603 15.8199 14.3803 15.8199 14.1903C15.8199 14.0003 15.7499 13.8303 15.6099 13.6903L14.1099 12.1903L14.0999 12.2103Z" fill="#333333"/>
<path fill-rule="evenodd" clip-rule="evenodd" d="M20.2999 11.71C20.2999 13.16 19.9299 14.59 19.2399 15.85V15.86C19.2399 16.04 19.5499 17.03 19.7199 17.56C20.1299 18.85 20.3499 19.55 19.8899 20.01C19.3815 20.5284 18.5351 20.2318 17.3706 19.8237L17.3599 19.82C17.335 19.8115 17.309 19.8027 17.2822 19.7935C16.7699 19.619 15.9274 19.332 15.6899 19.37C14.4899 20.03 13.0599 20.4 11.5999 20.4C6.7999 20.4 2.8999 16.5 2.8999 11.7C2.8999 6.9 6.7999 3 11.5999 3C16.3999 3 20.2999 6.91 20.2999 11.71ZM18.4627 18.2135C18.4367 18.131 18.4118 18.0521 18.3899 17.98L18.3799 17.97C17.9499 16.61 17.6999 15.74 18.0099 15.18C18.5899 14.13 18.8999 12.92 18.8999 11.71C18.8999 7.68 15.6299 4.4 11.5999 4.4C7.5699 4.4 4.2999 7.67 4.2999 11.7C4.2999 15.73 7.5699 19 11.5999 19C12.8199 19 14.0199 18.7 15.0799 18.12C15.7199 17.77 16.6999 18.11 17.8199 18.5C17.8968 18.5256 17.9809 18.5544 18.0683 18.5842C18.2535 18.6474 18.4532 18.7156 18.6299 18.77C18.5818 18.5915 18.5196 18.3941 18.4627 18.2135Z" fill="#333333"/>
</svg>
