<svg width="24" height="24" viewBox="0 0 24 24" fill="none" xmlns="http://www.w3.org/2000/svg">
<path d="M10.7003 10.5809C10.7003 10.1943 10.3869 9.88086 10.0003 9.88086C9.61369 9.88086 9.30029 10.1943 9.30029 10.5809C9.30029 11.302 9.58203 11.9959 10.0871 12.5092C10.5925 13.023 11.2805 13.3137 12.0003 13.3137C12.7201 13.3137 13.4081 13.023 13.9135 12.5092C14.4186 11.9959 14.7003 11.302 14.7003 10.5809C14.7003 10.1943 14.3869 9.88086 14.0003 9.88086C13.6137 9.88086 13.3003 10.1943 13.3003 10.5809C13.3003 10.938 13.1606 11.2783 12.9155 11.5274C12.6708 11.7761 12.3414 11.9137 12.0003 11.9137C11.6592 11.9137 11.3298 11.7761 11.0851 11.5274C10.84 11.2783 10.7003 10.938 10.7003 10.5809Z" fill="#333333"/>
<path fill-rule="evenodd" clip-rule="evenodd" d="M7.18039 5.06083C7.5029 4.70025 7.96375 4.49414 8.44752 4.49414H15.5531C16.0368 4.49414 16.4977 4.70025 16.8202 5.06083L18.2674 6.67894C18.5462 6.99061 18.7003 7.3941 18.7003 7.81225V16.6798C18.7003 17.218 18.4845 17.7328 18.1025 18.1114C17.7207 18.4897 17.2042 18.7012 16.667 18.7012H7.33363C6.79638 18.7012 6.27988 18.4897 5.89808 18.1114C5.51607 17.7328 5.30029 17.218 5.30029 16.6798V7.81225C5.30029 7.3941 5.45441 6.99061 5.73317 6.67894L7.18039 5.06083ZM8.44752 5.89414C8.36215 5.89414 8.28082 5.93051 8.22391 5.99414L7.47451 6.83203H16.5261L15.7767 5.99414C15.7198 5.93051 15.6384 5.89414 15.5531 5.89414H8.44752ZM6.70029 16.6798V8.23203H17.3003V16.6798C17.3003 16.8426 17.2351 16.9999 17.117 17.117C16.9987 17.2342 16.837 17.3012 16.667 17.3012H7.33363C7.16363 17.3012 7.00185 17.2342 6.88355 17.117C6.76547 16.9999 6.70029 16.8426 6.70029 16.6798Z" fill="#333333"/>
</svg>
