<svg width="24" height="24" viewBox="0 0 24 24" fill="none" xmlns="http://www.w3.org/2000/svg">
<path fill-rule="evenodd" clip-rule="evenodd" d="M12.3174 7.99824C12.3174 7.41726 12.7884 6.94629 13.3693 6.94629C13.9503 6.94629 14.4213 7.41726 14.4213 7.99824C14.4213 8.57922 13.9503 9.0502 13.3693 9.0502C12.7884 9.0502 12.3174 8.57922 12.3174 7.99824ZM13.3693 8.04629C13.3959 8.04629 13.4174 8.02478 13.4174 7.99824C13.4174 7.97171 13.3959 7.9502 13.3693 7.9502C13.3428 7.9502 13.3213 7.97171 13.3213 7.99824C13.3213 8.02478 13.3428 8.04629 13.3693 8.04629Z" fill="#333333"/>
<path fill-rule="evenodd" clip-rule="evenodd" d="M9.425 7.64062C8.84564 7.64062 8.37598 8.11029 8.37598 8.68965C8.37598 9.26901 8.84564 9.73867 9.425 9.73867C10.0044 9.73867 10.474 9.26901 10.474 8.68965C10.474 8.11029 10.0044 7.64062 9.425 7.64062ZM9.47598 8.68965C9.47598 8.7178 9.45315 8.74062 9.425 8.74062C9.39685 8.74062 9.37402 8.7178 9.37402 8.68965C9.37402 8.66149 9.39685 8.63867 9.425 8.63867C9.45315 8.63867 9.47598 8.66149 9.47598 8.68965Z" fill="#333333"/>
<path fill-rule="evenodd" clip-rule="evenodd" d="M14.9951 10.8968C14.9951 10.3158 15.4661 9.84473 16.0472 9.84473C16.6282 9.84473 17.0993 10.3158 17.0993 10.8968C17.0993 11.4778 16.6282 11.9489 16.0472 11.9489C15.4661 11.9489 14.9951 11.4778 14.9951 10.8968ZM16.0472 10.9447C16.0737 10.9447 16.0951 10.9233 16.0951 10.8968C16.0951 10.8703 16.0737 10.8489 16.0472 10.8489C16.0207 10.8489 15.9993 10.8703 15.9993 10.8968C15.9993 10.9233 16.0207 10.9447 16.0472 10.9447Z" fill="#333333"/>
<path fill-rule="evenodd" clip-rule="evenodd" d="M6.90234 12.3681C6.90234 11.7878 7.37277 11.3174 7.95308 11.3174C8.53338 11.3174 9.00381 11.7878 9.00381 12.3681C9.00381 12.9484 8.53338 13.4188 7.95308 13.4188C7.37277 13.4188 6.90234 12.9484 6.90234 12.3681ZM7.95308 12.4174C7.98029 12.4174 8.00234 12.3953 8.00234 12.3681C8.00234 12.3409 7.98029 12.3188 7.95308 12.3188C7.92587 12.3188 7.90381 12.3409 7.90381 12.3681C7.90381 12.3953 7.92587 12.4174 7.95308 12.4174Z" fill="#333333"/>
<path fill-rule="evenodd" clip-rule="evenodd" d="M12.0029 3.90527C7.54789 3.90527 3.90527 7.54603 3.90527 12C3.90527 16.4539 7.54789 20.0947 12.0029 20.0947C13.0918 20.0947 13.9221 19.2122 13.9221 18.1465C13.9221 17.6305 13.711 17.1755 13.4226 16.8502C13.413 16.8394 13.4031 16.8288 13.3928 16.8186C13.323 16.7491 13.2749 16.6653 13.2749 16.4826L13.2747 16.4706C13.2735 16.4018 13.2862 16.3335 13.3119 16.2697C13.3377 16.2059 13.3761 16.148 13.4248 16.0993C13.4735 16.0506 13.5315 16.0122 13.5954 15.9864C13.6593 15.9606 13.7277 15.948 13.7967 15.9492H15.2853C17.9285 15.9492 20.0947 13.7853 20.0947 11.1422L20.0947 11.1383C20.0721 7.10966 16.3501 3.90527 12.0029 3.90527ZM5.30527 12C5.30527 8.31975 8.32056 5.30527 12.0029 5.30527C15.7347 5.30527 18.676 8.03319 18.6947 11.144C18.6937 13.0123 17.1555 14.5492 15.2853 14.5492H13.8141C13.5596 14.5457 13.307 14.593 13.071 14.6884C12.8329 14.7845 12.6167 14.9276 12.4351 15.1092C12.2535 15.2907 12.1103 15.5069 12.014 15.7449C11.9186 15.9811 11.8712 16.2339 11.8748 16.4885C11.876 16.9934 12.0406 17.4372 12.385 17.7905C12.4708 17.8924 12.5221 18.0209 12.5221 18.1465C12.5221 18.4739 12.2842 18.6947 12.0029 18.6947C8.32056 18.6947 5.30527 15.6802 5.30527 12Z" fill="#333333"/>
</svg>
