<svg width="24" height="24" viewBox="0 0 24 24" fill="none" xmlns="http://www.w3.org/2000/svg">
<path fill-rule="evenodd" clip-rule="evenodd" d="M10.5151 3.83969C11.3352 3.01958 12.6649 3.01958 13.485 3.83968L15.0032 5.35788C15.8233 6.17798 15.8233 7.50763 15.0032 8.32773L13.485 9.84593C12.6649 10.666 11.3352 10.666 10.5151 9.84593L8.99691 8.32773C8.17681 7.50763 8.17681 6.17798 8.99691 5.35788L10.5151 3.83969ZM12.495 4.82963C12.2216 4.55627 11.7784 4.55627 11.5051 4.82963L9.98686 6.34783C9.71349 6.6212 9.71349 7.06442 9.98686 7.33778L11.5051 8.85598C11.7784 9.12935 12.2216 9.12935 12.495 8.85598L14.0132 7.33778C14.2866 7.06442 14.2866 6.6212 14.0132 6.34783L12.495 4.82963Z" fill="#333333"/>
<path fill-rule="evenodd" clip-rule="evenodd" d="M10.5151 14.1541C11.3352 13.334 12.6649 13.334 13.485 14.1541L15.0032 15.6723C15.8233 16.4924 15.8233 17.8221 15.0032 18.6422L13.485 20.1604C12.6649 20.9805 11.3352 20.9805 10.5151 20.1604L8.99691 18.6422C8.17681 17.8221 8.17681 16.4924 8.99691 15.6723L10.5151 14.1541ZM12.495 15.1441C12.2216 14.8707 11.7784 14.8707 11.5051 15.1441L9.98686 16.6623C9.71349 16.9357 9.71349 17.3789 9.98686 17.6522L11.5051 19.1704C11.7784 19.4438 12.2216 19.4438 12.495 19.1704L14.0132 17.6522C14.2866 17.3789 14.2866 16.9357 14.0132 16.6623L12.495 15.1441Z" fill="#333333"/>
<path fill-rule="evenodd" clip-rule="evenodd" d="M5.35886 8.99691C6.17896 8.17681 7.50861 8.17681 8.32871 8.99691L9.84691 10.5151C10.667 11.3352 10.667 12.6649 9.84691 13.485L8.32871 15.0032C7.50861 15.8233 6.17896 15.8233 5.35886 15.0032L3.84066 13.485C3.02056 12.6649 3.02056 11.3352 3.84066 10.5151L5.35886 8.99691ZM7.33876 9.98686C7.06539 9.71349 6.62218 9.71349 6.34881 9.98686L4.83061 11.5051C4.55724 11.7784 4.55724 12.2216 4.83061 12.495L6.34881 14.0132C6.62218 14.2866 7.06539 14.2866 7.33876 14.0132L8.85696 12.495C9.13032 12.2216 9.13032 11.7784 8.85696 11.5051L7.33876 9.98686Z" fill="#333333"/>
<path fill-rule="evenodd" clip-rule="evenodd" d="M15.6714 8.99691C16.4915 8.17681 17.8211 8.17681 18.6412 8.99691L20.1594 10.5151C20.9795 11.3352 20.9795 12.6649 20.1594 13.485L18.6412 15.0032C17.8211 15.8233 16.4915 15.8233 15.6714 15.0032L14.1532 13.485C13.3331 12.6649 13.3331 11.3352 14.1532 10.5151L15.6714 8.99691ZM17.6513 9.98686C17.3779 9.71349 16.9347 9.71349 16.6613 9.98686L15.1431 11.5051C14.8697 11.7784 14.8697 12.2216 15.1431 12.495L16.6613 14.0132C16.9347 14.2866 17.3779 14.2866 17.6513 14.0132L19.1695 12.495C19.4428 12.2216 19.4428 11.7784 19.1695 11.5051L17.6513 9.98686Z" fill="#333333"/>
<path fill-rule="evenodd" clip-rule="evenodd" d="M7.97296 12.0006C7.97296 12.6244 7.46729 13.13 6.8435 13.13C6.21972 13.13 5.71405 12.6244 5.71405 12.0006C5.71405 11.3768 6.21972 10.8711 6.8435 10.8711C7.46729 10.8711 7.97296 11.3768 7.97296 12.0006Z" fill="#333333"/>
<path fill-rule="evenodd" clip-rule="evenodd" d="M18.2864 12.0006C18.2864 12.6244 17.7808 13.13 17.157 13.13C16.5332 13.13 16.0275 12.6244 16.0275 12.0006C16.0275 11.3768 16.5332 10.8711 17.157 10.8711C17.7808 10.8711 18.2864 11.3768 18.2864 12.0006Z" fill="#333333"/>
<path fill-rule="evenodd" clip-rule="evenodd" d="M13.1292 17.1578C13.1292 17.7816 12.6235 18.2873 11.9998 18.2873C11.376 18.2873 10.8703 17.7816 10.8703 17.1578C10.8703 16.534 11.376 16.0283 11.9998 16.0283C12.6235 16.0283 13.1292 16.534 13.1292 17.1578Z" fill="#333333"/>
</svg>
