<svg width="24" height="24" viewBox="0 0 24 24" fill="none" xmlns="http://www.w3.org/2000/svg">
<path fill-rule="evenodd" clip-rule="evenodd" d="M14.5399 7.95569L14.5551 7.95552C14.8523 8.90149 15.7361 9.58763 16.7801 9.58763C18.068 9.58763 19.112 8.54361 19.112 7.25573C19.112 5.96786 18.068 4.92383 16.7801 4.92383C15.7361 4.92383 14.8523 5.60993 14.5551 6.55586L14.5399 6.55569L7.84082 6.55566C7.06218 6.55566 6.3315 6.89817 5.80449 7.48069C5.27958 8.06088 4.99512 8.83405 4.99512 9.62735C4.99512 10.4206 5.27958 11.1938 5.80449 11.774C6.3315 12.3565 7.06218 12.699 7.84081 12.699L16.2508 12.6991C16.6104 12.6991 16.9712 12.8563 17.249 13.1633C17.5289 13.4727 17.6965 13.906 17.6965 14.3707C17.6965 14.8355 17.5289 15.2688 17.249 15.5781C16.9712 15.8852 16.6104 16.0424 16.2508 16.0424H9.44559C9.14825 15.0964 8.26431 14.4102 7.2201 14.4102C5.93195 14.4102 4.8877 15.4544 4.8877 16.7426C4.8877 18.0307 5.93195 19.075 7.2201 19.075C8.26441 19.075 9.14842 18.3886 9.44567 17.4424H16.2508C17.0295 17.4424 17.7602 17.0999 18.2872 16.5174C18.8121 15.9372 19.0965 15.164 19.0965 14.3707C19.0965 13.5774 18.8121 12.8043 18.2872 12.2241C17.7602 11.6416 17.0295 11.2991 16.2509 11.2991L7.84081 11.299C7.4813 11.299 7.12045 11.1418 6.84266 10.8348C6.56278 10.5254 6.39512 10.0921 6.39512 9.62735C6.39512 9.16262 6.56278 8.7293 6.84266 8.41994C7.12045 8.1129 7.4813 7.95566 7.84081 7.95566L14.5399 7.95569ZM16.7801 6.32383C16.2655 6.32383 15.8482 6.74106 15.8482 7.25573C15.8482 7.77041 16.2655 8.18763 16.7801 8.18763C17.2948 8.18763 17.712 7.77041 17.712 7.25573C17.712 6.74106 17.2948 6.32383 16.7801 6.32383ZM6.2877 16.7426C6.2877 16.2276 6.70515 15.8102 7.2201 15.8102C7.73505 15.8102 8.1525 16.2276 8.1525 16.7426C8.1525 17.2575 7.73505 17.675 7.2201 17.675C6.70515 17.675 6.2877 17.2575 6.2877 16.7426Z" fill="#333333"/>
</svg>
