<svg width="24" height="24" viewBox="0 0 24 24" fill="none" xmlns="http://www.w3.org/2000/svg">
<path fill-rule="evenodd" clip-rule="evenodd" d="M9.4 5H7.6C6.71634 5 6 5.71635 6 6.6V17.4C6 18.2837 6.71634 19 7.6 19H9.4C10.2837 19 11 18.2837 11 17.4V6.6C11 5.71634 10.2837 5 9.4 5ZM7.6 6.4H9.4C9.51046 6.4 9.6 6.48954 9.6 6.6V17.4C9.6 17.5105 9.51046 17.6 9.4 17.6H7.6C7.48954 17.6 7.4 17.5105 7.4 17.4V6.6C7.4 6.48954 7.48954 6.4 7.6 6.4Z" fill="#333333"/>
<path fill-rule="evenodd" clip-rule="evenodd" d="M16.4 5H14.6C13.7163 5 13 5.71635 13 6.6V17.4C13 18.2837 13.7163 19 14.6 19H16.4C17.2837 19 18 18.2837 18 17.4V6.6C18 5.71634 17.2837 5 16.4 5ZM14.6 6.4H16.4C16.5105 6.4 16.6 6.48954 16.6 6.6V17.4C16.6 17.5105 16.5105 17.6 16.4 17.6H14.6C14.4895 17.6 14.4 17.5105 14.4 17.4V6.6C14.4 6.48954 14.4895 6.4 14.6 6.4Z" fill="#333333"/>
</svg>
