<svg width="24" height="24" viewBox="0 0 24 24" fill="none" xmlns="http://www.w3.org/2000/svg">
<path fill-rule="evenodd" clip-rule="evenodd" d="M9.76667 6.16699H8.4C7.6268 6.16699 7 6.79379 7 7.56699V16.4337C7 17.2069 7.6268 17.8337 8.4 17.8337H9.76667C10.5399 17.8337 11.1667 17.2069 11.1667 16.4337V7.56699C11.1667 6.79379 10.5399 6.16699 9.76667 6.16699ZM8.4 7.46699H9.76667C9.8219 7.46699 9.86667 7.51176 9.86667 7.56699V16.4337C9.86667 16.4889 9.82189 16.5337 9.76667 16.5337H8.4C8.34477 16.5337 8.3 16.4889 8.3 16.4337V7.56699C8.3 7.51176 8.34477 7.46699 8.4 7.46699Z" fill="#333333"/>
<path fill-rule="evenodd" clip-rule="evenodd" d="M15.5997 6.16699H14.233C13.4598 6.16699 12.833 6.79379 12.833 7.56699V16.4337C12.833 17.2069 13.4598 17.8337 14.233 17.8337H15.5997C16.3729 17.8337 16.9997 17.2069 16.9997 16.4337V7.56699C16.9997 6.79379 16.3729 6.16699 15.5997 6.16699ZM14.233 7.46699H15.5997C15.6549 7.46699 15.6997 7.51176 15.6997 7.56699V16.4337C15.6997 16.4889 15.6549 16.5337 15.5997 16.5337H14.233C14.1778 16.5337 14.133 16.4889 14.133 16.4337V7.56699C14.133 7.51176 14.1778 7.46699 14.233 7.46699Z" fill="#333333"/>
</svg>
