<svg width="24" height="24" viewBox="0 0 24 24" fill="none" xmlns="http://www.w3.org/2000/svg">
<path fill-rule="evenodd" clip-rule="evenodd" d="M10.4167 7.91699H9.5C8.94772 7.91699 8.5 8.36471 8.5 8.91699V15.0837C8.5 15.6359 8.94772 16.0837 9.5 16.0837H10.4167C10.969 16.0837 11.4167 15.6359 11.4167 15.0837V8.91699C11.4167 8.36471 10.969 7.91699 10.4167 7.91699ZM9.6 14.9837V9.01699H10.3167V14.9837H9.6Z" fill="#333333"/>
<path fill-rule="evenodd" clip-rule="evenodd" d="M14.4997 7.91699H13.583C13.0307 7.91699 12.583 8.36471 12.583 8.91699V15.0837C12.583 15.6359 13.0307 16.0837 13.583 16.0837H14.4997C15.052 16.0837 15.4997 15.6359 15.4997 15.0837V8.91699C15.4997 8.36471 15.052 7.91699 14.4997 7.91699ZM13.683 14.9837V9.01699H14.3997V14.9837H13.683Z" fill="#333333"/>
</svg>
