<svg width="24" height="24" viewBox="0 0 24 24" fill="none" xmlns="http://www.w3.org/2000/svg">
<path fill-rule="evenodd" clip-rule="evenodd" d="M10.0917 7.04199H8.95C8.28726 7.04199 7.75 7.57925 7.75 8.24199V15.7587C7.75 16.4214 8.28726 16.9587 8.95 16.9587H10.0917C10.7544 16.9587 11.2917 16.4214 11.2917 15.7587V8.24199C11.2917 7.57925 10.7544 7.04199 10.0917 7.04199ZM8.95 8.24199H10.0917V15.7587L8.95 15.7587V8.24199Z" fill="#333333"/>
<path fill-rule="evenodd" clip-rule="evenodd" d="M15.0497 7.04199H13.908C13.2453 7.04199 12.708 7.57925 12.708 8.24199V15.7587C12.708 16.4214 13.2453 16.9587 13.908 16.9587H15.0497C15.7124 16.9587 16.2497 16.4214 16.2497 15.7587V8.24199C16.2497 7.57925 15.7124 7.04199 15.0497 7.04199ZM13.908 8.24199H15.0497V15.7587L13.908 15.7587V8.24199Z" fill="#333333"/>
</svg>
