<svg width="24" height="24" viewBox="0 0 24 24" fill="none" xmlns="http://www.w3.org/2000/svg">
<path fill-rule="evenodd" clip-rule="evenodd" d="M14.6133 6.30078C14.9997 6.30087 15.3135 6.61449 15.3135 7.00098V7.90625H15.4932C16.3566 7.90625 17.1687 8.31939 17.6768 9.01758L19.8789 12.0439L19.915 12.1064C20.1977 12.4098 20.372 12.8154 20.3721 13.2627V16.291C20.372 17.2267 19.6153 17.9845 18.6807 17.9893C18.4378 19.1361 17.4213 19.9969 16.2021 19.9971C14.9832 19.9971 13.966 19.1367 13.7227 17.9902H11.0664C10.8232 19.1366 9.80675 19.9969 8.58789 19.9971C7.36891 19.9971 6.35178 19.1367 6.1084 17.9902H5.78809C4.8494 17.9902 4.08799 17.2297 4.08789 16.291V14.8252C4.08793 14.4387 4.40157 14.125 4.78809 14.125C5.17461 14.125 5.48825 14.4387 5.48828 14.8252V16.291C5.48838 16.4566 5.62249 16.5908 5.78809 16.5908H6.20898C6.56472 15.62 7.494 14.9258 8.58789 14.9258C9.68165 14.9259 10.6103 15.6201 10.9658 16.5908H13.8232C14.179 15.62 15.1083 14.9258 16.2021 14.9258C17.2959 14.9259 18.2246 15.6201 18.5801 16.5908H18.6719C18.8375 16.5908 18.9716 16.4566 18.9717 16.291V13.2627C18.9715 13.0972 18.8374 12.9629 18.6719 12.9629H14.6133C14.2268 12.9629 13.9131 12.6492 13.9131 12.2627V7.00098C13.9131 6.61443 14.2267 6.30078 14.6133 6.30078ZM8.58789 16.3262C7.96062 16.3262 7.45215 16.8346 7.45215 17.4619C7.45229 18.0891 7.96071 18.5977 8.58789 18.5977C9.21495 18.5975 9.72349 18.089 9.72363 17.4619C9.72363 16.8347 9.21504 16.3263 8.58789 16.3262ZM16.2021 16.3262C15.5749 16.3262 15.0664 16.8346 15.0664 17.4619C15.0666 18.0891 15.575 18.5977 16.2021 18.5977C16.8292 18.5975 17.3377 18.089 17.3379 17.4619C17.3379 16.8347 16.8293 16.3263 16.2021 16.3262ZM15.3135 11.5635H17.7979L16.5449 9.8418C16.3003 9.50563 15.9089 9.30664 15.4932 9.30664H15.3135V11.5635Z" fill="#15C674"/>
<path d="M7.70215 6.63281C7.9011 6.63296 8.07213 6.74887 8.1543 6.91602C8.61477 7.03207 9.01054 7.33246 9.22852 7.82812L9.26367 7.9375C9.31913 8.19563 9.1875 8.4665 8.93652 8.57715C8.6853 8.68749 8.39696 8.60112 8.24414 8.38574L8.1875 8.28516L8.1543 8.21973C8.06825 8.07665 7.92603 7.99824 7.69727 7.99805C7.48486 7.99805 7.36018 8.05686 7.30566 8.10059C7.26354 8.13458 7.25706 8.15926 7.25977 8.19434L7.26953 8.2334C7.27752 8.24681 7.29291 8.26217 7.32031 8.28125C7.39549 8.33326 7.54679 8.39438 7.80371 8.42676C8.15779 8.47147 8.52354 8.57385 8.8125 8.79004C9.12771 9.02624 9.31934 9.37681 9.31934 9.80566C9.31926 10.2064 9.15916 10.5783 8.83105 10.835C8.62838 10.9933 8.38546 11.0875 8.125 11.1348C8.03518 11.2735 7.87985 11.366 7.70215 11.3662C7.52495 11.3662 7.36938 11.2747 7.2793 11.1367C7.01371 11.0904 6.78359 10.9993 6.5918 10.8633C6.37688 10.7106 6.23578 10.5222 6.14648 10.3379L6.07422 10.1562L6.04883 10.043C6.01928 9.78043 6.17744 9.52444 6.43848 9.43945C6.69938 9.35488 6.97787 9.46872 7.1084 9.69824L7.1543 9.80371L7.18945 9.87598C7.20478 9.89804 7.22468 9.91848 7.25 9.93652C7.30226 9.97347 7.42793 10.0361 7.69727 10.0361C7.96146 10.036 8.08584 9.97458 8.13086 9.93945C8.15783 9.9183 8.18256 9.89013 8.18262 9.80566C8.18262 9.76698 8.17502 9.74946 8.17188 9.74316C8.16864 9.73684 8.15914 9.72144 8.13086 9.7002C8.06407 9.65024 7.91932 9.5873 7.66113 9.55469C7.30644 9.50997 6.954 9.4107 6.6709 9.21387C6.40591 9.02939 6.21187 8.76378 6.14648 8.42969L6.12598 8.28223C6.09255 7.84895 6.27816 7.46891 6.5918 7.21582C6.78214 7.06239 7.01003 6.96076 7.25488 6.90723C7.33867 6.74487 7.50674 6.63299 7.70215 6.63281Z" fill="#15C674"/>
<path fill-rule="evenodd" clip-rule="evenodd" d="M10.7812 4.88281C11.8448 4.88297 12.7068 5.74503 12.707 6.80859V11.1885C12.707 12.2523 11.845 13.1151 10.7812 13.1152H4.64551C3.58185 13.115 2.71973 12.2522 2.71973 11.1885V6.80859C2.71998 5.74509 3.582 4.88306 4.64551 4.88281H10.7812ZM4.64551 6.20898C4.3145 6.20923 4.04615 6.47759 4.0459 6.80859V8.33594H4.29492L4.42871 8.34961C4.73081 8.41152 4.95801 8.67862 4.95801 8.99902C4.95801 9.31943 4.73081 9.58653 4.42871 9.64844L4.29492 9.66211H4.0459V11.1885C4.0459 11.5197 4.31435 11.7878 4.64551 11.7881H10.7812C11.1125 11.7879 11.3809 11.5197 11.3809 11.1885V9.66211H11.1875C10.8212 9.66211 10.5244 9.36528 10.5244 8.99902C10.5244 8.63277 10.8212 8.33594 11.1875 8.33594H11.3809V6.80859C11.3806 6.47753 11.1123 6.20914 10.7812 6.20898H4.64551Z" fill="#15C674"/>
</svg>
