<svg width="24" height="24" viewBox="0 0 24 24" fill="none" xmlns="http://www.w3.org/2000/svg">
<path fill-rule="evenodd" clip-rule="evenodd" d="M7.52971 6.59799L7.60163 6.19303C7.78233 5.17551 8.74317 4.48901 9.76433 4.64782L17.9877 5.9267C18.9131 6.07063 19.5957 6.86752 19.5957 7.80413V9.31749C19.5961 9.3346 19.5964 9.35176 19.5964 9.36898L19.5965 11.0775C19.6015 11.135 19.604 11.1932 19.604 11.252V17.6979C19.604 18.8024 18.7086 19.6979 17.604 19.6979H6.604C5.49943 19.6979 4.604 18.8024 4.604 17.6979V11.252C4.604 10.4556 5.06943 9.76796 5.74311 9.44621L5.94149 8.18177C6.07229 7.34814 6.72939 6.7206 7.52971 6.59799ZM8.98006 6.43783C9.02761 6.17006 9.28047 5.9894 9.54919 6.03119L17.7725 7.31007C17.9094 7.33136 18.0261 7.40691 18.102 7.51276C18.0255 7.49612 17.9472 7.48404 17.8674 7.47682L8.93886 6.66979L8.98006 6.43783ZM7.86354 7.9783C7.60117 7.95459 7.36541 8.13852 7.32457 8.39877L7.19071 9.25195H17.604C17.81 9.25195 18.0086 9.28308 18.1956 9.34089C18.1819 9.09486 17.9896 8.89358 17.7414 8.87114L7.86354 7.9783ZM17.604 10.652H6.604C6.27263 10.652 6.004 10.9206 6.004 11.252V17.6979C6.004 18.0292 6.27263 18.2979 6.604 18.2979H17.604C17.9354 18.2979 18.204 18.0292 18.204 17.6979V11.252C18.204 10.9206 17.9354 10.652 17.604 10.652Z" fill="#333333"/>
</svg>
