<svg width="24" height="24" viewBox="0 0 24 24" fill="none" xmlns="http://www.w3.org/2000/svg">
<path d="M13.0917 15.1804L13.9679 15.1803C14.3545 15.1802 14.6678 14.8667 14.6678 14.4801C14.6677 14.0935 14.3542 13.7802 13.9676 13.7803L13.0915 13.7804C12.7049 13.7805 12.3915 14.094 12.3916 14.4806C12.3917 14.8672 12.7051 15.1805 13.0917 15.1804Z" fill="#333333"/>
<path d="M10.9274 17.276L10.0512 17.2761C9.6646 17.2762 9.35114 16.9629 9.35107 16.5763C9.351 16.1897 9.66435 15.8762 10.0509 15.8761L10.9271 15.876C11.3137 15.8759 11.6272 16.1892 11.6272 16.5758C11.6273 16.9624 11.314 17.2759 10.9274 17.276Z" fill="#333333"/>
<path d="M13.0917 17.2761L13.9679 17.276C14.3545 17.2759 14.6678 16.9624 14.6678 16.5758C14.6677 16.1892 14.3542 15.8759 13.9676 15.876L13.0915 15.8761C12.7049 15.8762 12.3915 16.1897 12.3916 16.5763C12.3917 16.9629 12.7051 17.2762 13.0917 17.2761Z" fill="#333333"/>
<path d="M10.9186 15.1803L10.0424 15.1804C9.65581 15.1805 9.34236 14.8672 9.34229 14.4806C9.34221 14.094 9.65556 13.7805 10.0422 13.7804L10.9183 13.7803C11.3049 13.7802 11.6184 14.0935 11.6184 14.4801C11.6185 14.8667 11.3052 15.1802 10.9186 15.1803Z" fill="#333333"/>
<path d="M15.002 8.07861C15.2774 7.80732 15.2808 7.36412 15.0095 7.08868C14.7382 6.81325 14.295 6.80988 14.0196 7.08116L11.5776 9.48632L10.4335 8.46213C10.1455 8.20427 9.70291 8.22874 9.44506 8.51679C9.1872 8.80483 9.21168 9.24737 9.49972 9.50523L11.1336 10.9679C11.4089 11.2143 11.8284 11.2043 12.0917 10.945L15.002 8.07861Z" fill="#333333"/>
<path fill-rule="evenodd" clip-rule="evenodd" d="M6.66629 18.7639V12.503L6.31036 12.102C5.98554 11.736 5.80615 11.2637 5.80615 10.7744V5.23535C5.80615 4.40693 6.47773 3.73535 7.30615 3.73535H16.6938C17.5223 3.73535 18.1938 4.40692 18.1938 5.23535V10.8604C18.1938 11.2974 18.0508 11.7223 17.7864 12.0702L17.4577 12.503V18.7639C17.4577 19.5923 16.7861 20.2639 15.9577 20.2639H8.16629C7.33786 20.2639 6.66629 19.5923 6.66629 18.7639ZM8.06629 12.503C8.06629 12.1605 7.94072 11.8298 7.71335 11.5737L7.35742 11.1727C7.25997 11.0629 7.20615 10.9212 7.20615 10.7744V5.23535C7.20615 5.18012 7.25093 5.13535 7.30615 5.13535H16.6938C16.7491 5.13535 16.7938 5.18012 16.7938 5.23535V10.8604C16.7938 10.9915 16.7509 11.119 16.6716 11.2234L16.3429 11.6561C16.1579 11.8997 16.0577 12.1971 16.0577 12.503V18.7639C16.0577 18.8191 16.0129 18.8639 15.9577 18.8639H8.16629C8.11107 18.8639 8.06629 18.8191 8.06629 18.7639V12.503Z" fill="#333333"/>
</svg>
