<svg width="24" height="24" viewBox="0 0 24 24" fill="none" xmlns="http://www.w3.org/2000/svg">
<path fill-rule="evenodd" clip-rule="evenodd" d="M9.85624 4.56754C9.82327 4.59081 9.79279 4.61656 9.76494 4.64439C8.40115 5.72025 7.95325 7.68926 8.32618 9.3894C8.71296 11.1413 9.96166 12.6394 11.9899 12.6394C13.2013 12.6394 14.1485 12.0973 14.7905 11.2717C15.4404 10.4517 15.7772 9.35736 15.7998 8.27399C15.8223 7.19023 15.5316 6.09615 14.9069 5.27543L14.9048 5.27262C14.2745 4.45328 13.3109 3.89941 11.9899 3.89941C11.6216 3.89941 11.2074 3.97603 10.8215 4.10435C10.4265 4.23244 10.0919 4.40118 9.85624 4.56754ZM11.2613 5.43349C11.5345 5.34241 11.7992 5.29941 11.9899 5.29941C12.8681 5.29941 13.4242 5.64487 13.794 6.12479C14.1886 6.64405 14.4175 7.40935 14.4001 8.24483C14.3827 9.08012 14.1203 9.86443 13.6917 10.4041L13.6869 10.4102C13.289 10.9229 12.7371 11.2394 11.9899 11.2394C10.8183 11.2394 9.98686 10.4168 9.69356 9.08895C9.39469 7.72566 9.81922 6.343 10.686 5.70234C10.6998 5.6921 10.7132 5.68142 10.7261 5.67034C10.8402 5.6004 11.0206 5.51139 11.2554 5.43543L11.2613 5.43349Z" fill="#333333"/>
<path fill-rule="evenodd" clip-rule="evenodd" d="M11.9998 13.4297C10.4569 13.4297 8.74468 13.6786 7.36107 14.4849C5.93452 15.3162 4.90765 16.7144 4.7614 18.8519L4.75977 18.8997C4.75977 19.5624 5.29702 20.0997 5.95977 20.0997H18.0298C18.6925 20.0997 19.2298 19.5624 19.2298 18.8997L19.2281 18.8519C19.0819 16.7153 18.0583 15.3169 16.634 14.4852C15.2526 13.6786 13.5426 13.4297 11.9998 13.4297ZM17.8092 18.6997H6.18037C6.3495 17.1859 7.08255 16.2676 8.06596 15.6945C9.14486 15.0658 10.5727 14.8297 11.9998 14.8297C13.4269 14.8297 14.8519 15.0658 15.928 15.6942C16.9088 16.2669 17.6402 17.185 17.8092 18.6997Z" fill="#333333"/>
</svg>
