<svg width="24" height="24" viewBox="0 0 24 24" fill="none" xmlns="http://www.w3.org/2000/svg">
<path fill-rule="evenodd" clip-rule="evenodd" d="M17.2158 5.55273C18.7089 5.55273 19.9199 6.76378 19.9199 8.25684V16.0107C19.9197 17.5036 18.7088 18.7139 17.2158 18.7139H6.79004C5.2971 18.7139 4.08614 17.5036 4.08594 16.0107V8.1543C4.08594 6.71765 5.25085 5.55273 6.6875 5.55273C7.07459 5.55273 7.38867 5.86682 7.38867 6.25391C7.38867 6.641 7.07459 6.95508 6.6875 6.95508C6.02503 6.95508 5.48828 7.49183 5.48828 8.1543V15.6758C6.31693 14.4123 7.84582 14.1152 9.02441 14.1152C9.83198 14.1152 10.7565 14.2502 11.5342 14.708C12.3476 15.187 12.9452 15.9899 13.0908 17.1797C13.0963 17.2247 13.0991 17.269 13.0996 17.3125H17.2158C17.9346 17.3125 18.5174 16.7295 18.5176 16.0107V8.25684C18.5176 7.53796 17.9347 6.95508 17.2158 6.95508H17.1875C16.8004 6.95508 16.4863 6.641 16.4863 6.25391C16.4863 5.86682 16.8004 5.55273 17.1875 5.55273H17.2158ZM9.02441 15.5176C7.95575 15.5176 7.06703 15.7974 6.63672 16.4795L6.55664 16.6221C6.52897 16.6776 6.53088 16.7096 6.53418 16.7285C6.53855 16.7533 6.55424 16.7965 6.60156 16.8496C6.70379 16.9641 6.90135 17.0645 7.12598 17.0645H11.6484C11.5126 16.4865 11.2046 16.1406 10.8232 15.916C10.347 15.6356 9.70511 15.5176 9.02441 15.5176Z" fill="#15C674"/>
<path d="M15.5312 12.3525C15.8507 12.4178 16.0908 12.7003 16.0908 13.0391C16.0908 13.3778 15.8507 13.6603 15.5312 13.7256L15.3906 13.7402H12.8945C12.5074 13.7402 12.1934 13.4262 12.1934 13.0391C12.1934 12.652 12.5074 12.3379 12.8945 12.3379H15.3906L15.5312 12.3525Z" fill="#15C674"/>
<path fill-rule="evenodd" clip-rule="evenodd" d="M9.02246 9.17773C9.71305 9.17794 10.2641 9.47599 10.6211 9.94336C10.9616 10.3894 11.0963 10.9475 11.084 11.4639C11.0716 11.9807 10.911 12.5249 10.5752 12.9561C10.2265 13.4033 9.69379 13.7166 9.02246 13.7168C7.86628 13.7168 7.21148 12.8411 7.02734 12.0029C6.84897 11.1903 7.043 10.1464 7.84277 9.55762L7.96973 9.47461C8.10126 9.39655 8.24599 9.33377 8.38379 9.28809C8.56998 9.2264 8.79518 9.17773 9.02246 9.17773ZM9.02246 10.5801C8.98411 10.5801 8.91155 10.5906 8.8252 10.6191C8.78517 10.6324 8.74869 10.647 8.71973 10.6611C8.70557 10.668 8.69385 10.6748 8.68555 10.6797L8.67383 10.6865C8.44743 10.8532 8.29877 11.257 8.39648 11.7021C8.48857 12.1214 8.72948 12.3145 9.02246 12.3145C9.22029 12.3143 9.35925 12.235 9.46875 12.0947C9.59097 11.9379 9.67619 11.6976 9.68262 11.4307C9.68902 11.163 9.61519 10.9359 9.50684 10.7939C9.41495 10.6738 9.27576 10.5803 9.02246 10.5801Z" fill="#15C674"/>
<path d="M16.7979 9.72949C17.1172 9.79486 17.3574 10.0773 17.3574 10.416C17.3574 10.7547 17.1172 11.0372 16.7979 11.1025L16.6562 11.1172H12.8945C12.5074 11.1172 12.1934 10.8031 12.1934 10.416C12.1934 10.0289 12.5074 9.71484 12.8945 9.71484H16.6562L16.7979 9.72949Z" fill="#15C674"/>
<path fill-rule="evenodd" clip-rule="evenodd" d="M13.6445 4.17188C14.7807 4.17188 15.7021 5.09336 15.7021 6.22949C15.7021 7.36563 14.7807 8.28711 13.6445 8.28711H10.3789C9.24277 8.2871 8.32129 7.36563 8.32129 6.22949C8.3213 5.09336 9.24278 4.17188 10.3789 4.17188H13.6445ZM10.3789 5.57617C10.0178 5.57618 9.72559 5.86842 9.72559 6.22949C9.72559 6.59057 10.0178 6.88378 10.3789 6.88379H13.6445C14.0056 6.88379 14.2988 6.59058 14.2988 6.22949C14.2988 5.86841 14.0056 5.57617 13.6445 5.57617H10.3789Z" fill="#15C674"/>
</svg>
