<svg width="24" height="24" viewBox="0 0 24 24" fill="none" xmlns="http://www.w3.org/2000/svg">
<path fill-rule="evenodd" clip-rule="evenodd" d="M12.181 13.9792C12.201 14.3653 11.9043 14.6945 11.5182 14.7145C9.55469 14.8163 8.3107 15.441 7.53725 16.2271C6.82303 16.953 6.45462 17.8731 6.33462 18.8H11.7517C12.1383 18.8 12.4517 19.1134 12.4517 19.5C12.4517 19.8866 12.1383 20.2 11.7517 20.2H6.08983C5.44394 20.2 4.85392 19.6649 4.91219 18.9442C5.01438 17.6802 5.48061 16.3213 6.53928 15.2452C7.60472 14.1624 9.20473 13.4326 11.4457 13.3164C11.8318 13.2963 12.161 13.5931 12.181 13.9792Z" fill="#333333"/>
<path fill-rule="evenodd" clip-rule="evenodd" d="M11.3854 5.53239C11.1091 5.62399 10.9136 5.73106 10.8328 5.79054C10.0088 6.3971 9.58763 7.72679 9.88282 9.07155C10.1667 10.3649 10.9714 11.1382 12.0818 11.1382C12.7932 11.1382 13.3142 10.8374 13.6994 10.3434C14.1098 9.8169 14.3683 9.05324 14.3879 8.23559C14.4075 7.4167 14.1851 6.68043 13.8059 6.18374C13.4595 5.7301 12.9317 5.4 12.0818 5.4C11.9087 5.4 11.6572 5.4423 11.3854 5.53239ZM10.0028 4.66308C7.20956 6.71928 8.13658 12.5382 12.0818 12.5382C16.8182 12.5382 17.2272 4 12.0818 4C11.3582 4 10.4666 4.32165 10.0028 4.66308Z" fill="#333333"/>
<path fill-rule="evenodd" clip-rule="evenodd" d="M20.0691 13.4076C20.5883 13.3354 21.1862 13.5099 21.5452 14.0168C21.7793 14.3473 21.9683 14.7031 22.1106 15.0744C22.3328 15.654 22.1471 16.2484 21.7986 16.6408L21.6809 16.7734C21.6015 16.8629 21.5972 16.9963 21.6707 17.0907L21.7812 17.2325C22.1037 17.6464 22.2513 18.2521 21.9911 18.8167C21.8287 19.1691 21.6209 19.5076 21.367 19.8241C20.9767 20.3108 20.3651 20.4526 19.8447 20.3457L19.6714 20.3101C19.5542 20.2861 19.4365 20.3491 19.3915 20.46L19.3169 20.6439C19.1193 21.1312 18.6668 21.563 18.0458 21.6182C17.6519 21.6533 17.2526 21.6395 16.8575 21.575C16.2474 21.4754 15.8299 21.0181 15.6656 20.524L15.6038 20.3382C15.566 20.2247 15.4526 20.1543 15.3341 20.1708L15.1538 20.1959C14.6342 20.2682 14.0357 20.0932 13.6768 19.5855C13.4437 19.2556 13.2555 18.9008 13.1137 18.5304C12.8918 17.9509 13.0775 17.3567 13.4259 16.9644L13.5456 16.8296C13.625 16.7401 13.6293 16.6067 13.5558 16.5123L13.4452 16.3704C13.1225 15.9561 12.9749 15.3496 13.236 14.7847C13.3989 14.4324 13.6071 14.0941 13.8614 13.7777C14.2519 13.292 14.8628 13.1507 15.3826 13.2574L15.5551 13.2929C15.6723 13.3169 15.79 13.2539 15.835 13.143L15.8798 13.0326C16.0785 12.5427 16.5275 12.1226 17.1329 12.0549C17.528 12.0107 17.9295 12.0086 18.3197 12.0541C18.9601 12.1289 19.4021 12.6013 19.5717 13.1113L19.6228 13.2648C19.6605 13.3783 19.7739 13.4487 19.8924 13.4322L20.0691 13.4076ZM20.3691 14.8034C20.3448 14.7942 20.3074 14.788 20.2621 14.7943L20.0854 14.8189C19.2983 14.9284 18.5451 14.4607 18.2943 13.7066L18.2433 13.5531C18.2285 13.5087 18.2057 13.478 18.1871 13.4614C18.1705 13.4465 18.161 13.4451 18.1574 13.4447C17.8804 13.4124 17.5859 13.4129 17.2886 13.4462C17.2768 13.4475 17.2606 13.4524 17.2401 13.4691C17.2183 13.487 17.1941 13.517 17.1771 13.5588L17.1323 13.6693C16.8336 14.4057 16.052 14.8241 15.2735 14.6642L15.101 14.6288C15.056 14.6196 15.0175 14.6234 14.9916 14.6315C14.9677 14.639 14.9577 14.6485 14.9525 14.6549C14.77 14.8819 14.622 15.1229 14.5068 15.3721C14.5042 15.3777 14.5003 15.3891 14.504 15.4125C14.5081 15.4382 14.5215 15.4739 14.5496 15.51L14.6602 15.6519C15.1486 16.2788 15.1201 17.1649 14.5925 17.7591L14.4727 17.894C14.4424 17.9282 14.4267 17.9628 14.4209 17.9884C14.4156 18.0117 14.4188 18.0237 14.4211 18.0297C14.5218 18.2927 14.6553 18.5442 14.8201 18.7775C14.8236 18.7824 14.8316 18.7916 14.8537 18.8C14.878 18.8093 14.9155 18.8155 14.9609 18.8092L15.1411 18.7841C15.9282 18.6746 16.6814 19.1423 16.9322 19.8964L16.994 20.0822C17.0084 20.1254 17.0303 20.156 17.0491 20.1735C17.0662 20.1895 17.0776 20.1924 17.0831 20.1933C17.3614 20.2387 17.6433 20.2485 17.9217 20.2237C17.9277 20.2232 17.9395 20.221 17.9579 20.206C17.9781 20.1896 18.0023 20.1602 18.0196 20.1177L18.0942 19.9337C18.3929 19.1973 19.1745 18.7789 19.953 18.9388L20.1263 18.9743C20.1714 18.9836 20.2099 18.9797 20.2358 18.9716C20.2597 18.9641 20.2697 18.9546 20.2748 18.9482C20.457 18.721 20.6047 18.48 20.7197 18.2307C20.7222 18.2251 20.7262 18.2137 20.7224 18.1903C20.7183 18.1646 20.7049 18.129 20.6768 18.0929L20.5663 17.9511C20.0779 17.3242 20.1064 16.4381 20.634 15.8439L20.7517 15.7113C20.7821 15.6771 20.7977 15.6424 20.8036 15.6169C20.8089 15.5936 20.8057 15.5816 20.8034 15.5755C20.7023 15.3118 20.5683 15.0598 20.4027 14.826C20.3992 14.821 20.3913 14.8119 20.3691 14.8034Z" fill="#333333"/>
<path fill-rule="evenodd" clip-rule="evenodd" d="M18.196 16.9616C18.2828 16.5562 17.9365 16.196 17.5073 16.2867C17.4517 16.2984 17.35 16.3467 17.2474 16.4485C17.1446 16.5506 17.0973 16.6504 17.0862 16.7023M18.196 16.9616C18.1521 17.1662 17.9875 17.3324 17.7748 17.3773C17.3456 17.4679 16.9993 17.1076 17.0862 16.7023M17.2179 14.9169C18.6214 14.6204 19.8679 15.8408 19.5649 17.255C19.4042 18.0048 18.8128 18.5891 18.064 18.7471C16.6603 19.0435 15.4142 17.8227 15.7173 16.4089C15.7983 16.0308 16.0148 15.6994 16.2611 15.455C16.5076 15.2103 16.8402 14.9967 17.2179 14.9169Z" fill="#333333"/>
</svg>
