<svg width="24" height="24" viewBox="0 0 24 24" fill="none" xmlns="http://www.w3.org/2000/svg">
<path fill-rule="evenodd" clip-rule="evenodd" d="M10.0028 4.66308C7.20957 6.71928 8.13658 12.5382 12.0818 12.5382C16.8182 12.5382 17.2272 4 12.0818 4C11.3582 4 10.4666 4.32165 10.0028 4.66308ZM11.3854 5.53239C11.1091 5.62399 10.9136 5.73106 10.8328 5.79054C10.0088 6.3971 9.58764 7.72679 9.88282 9.07155C10.1667 10.3649 10.9714 11.1382 12.0818 11.1382C12.7932 11.1382 13.3142 10.8374 13.6994 10.3434C14.1098 9.8169 14.3683 9.05324 14.3879 8.23559C14.4075 7.4167 14.1851 6.68043 13.8059 6.18374C13.4595 5.7301 12.9317 5.4 12.0818 5.4C11.9087 5.4 11.6572 5.4423 11.3854 5.53239Z" fill="#333333"/>
<path d="M11.4251 13.994C11.4737 14.3775 11.2021 14.7278 10.8186 14.7764C9.14541 14.9883 8.07243 15.6173 7.39617 16.3782C6.77444 17.0779 6.44653 17.9361 6.33462 18.8003H11.7517C12.1383 18.8003 12.4517 19.1137 12.4517 19.5003C12.4517 19.8869 12.1383 20.2003 11.7517 20.2003H6.08983C5.44394 20.2003 4.85392 19.6652 4.91219 18.9445C5.00804 17.7589 5.4239 16.49 6.34969 15.4483C7.28259 14.3985 8.68365 13.6356 10.6427 13.3875C11.0262 13.3389 11.3765 13.6104 11.4251 13.994Z" fill="#333333"/>
<path fill-rule="evenodd" clip-rule="evenodd" d="M16.657 19.5444C17.3932 19.5444 18.0771 19.3209 18.6447 18.9381L20.0537 20.347C20.288 20.5813 20.6679 20.5813 20.9022 20.347C21.1365 20.1127 21.1365 19.7328 20.9022 19.4985L19.5131 18.1094C19.9549 17.5165 20.2163 16.7813 20.2163 15.9851C20.2163 14.0193 18.6227 12.4258 16.657 12.4258C14.6912 12.4258 13.0977 14.0193 13.0977 15.9851C13.0977 17.9509 14.6912 19.5444 16.657 19.5444ZM16.657 18.3444C17.96 18.3444 19.0163 17.2881 19.0163 15.9851C19.0163 14.6821 17.96 13.6258 16.657 13.6258C15.354 13.6258 14.2977 14.6821 14.2977 15.9851C14.2977 17.2881 15.354 18.3444 16.657 18.3444Z" fill="#333333"/>
</svg>
