<svg width="24" height="24" viewBox="0 0 24 24" fill="none" xmlns="http://www.w3.org/2000/svg">
<path d="M4.67285 14.1641C5.05924 14.1642 5.37293 14.4779 5.37305 14.8643V16.3252C5.37316 17.5954 6.40267 18.625 7.67285 18.625H9.13379C9.52015 18.6253 9.83398 18.9388 9.83398 19.3252C9.83387 19.7115 9.52008 20.0251 9.13379 20.0254H7.67285C5.62947 20.0254 3.97277 18.3686 3.97266 16.3252V14.8643C3.97277 14.4778 4.28632 14.1641 4.67285 14.1641Z" fill="#15C674"/>
<path d="M19.3281 14.1641C19.7145 14.1642 20.0282 14.4779 20.0283 14.8643V16.3252C20.0282 18.3684 18.3714 20.0252 16.3281 20.0254H14.8672C14.4808 20.0253 14.1671 19.7116 14.167 19.3252C14.167 18.9387 14.4807 18.6251 14.8672 18.625H16.3281C17.5982 18.6248 18.6278 17.5952 18.6279 16.3252V14.8643C18.628 14.4778 18.9416 14.1641 19.3281 14.1641Z" fill="#15C674"/>
<path fill-rule="evenodd" clip-rule="evenodd" d="M12 12.4541C12.9443 12.4541 14.0131 12.5988 14.9043 13.083C15.8329 13.5878 16.5376 14.4499 16.6982 15.7607C16.7899 16.51 16.1688 17.0448 15.5332 17.0449H8.4668C7.83124 17.0447 7.21012 16.5099 7.30176 15.7607L7.33789 15.5195C7.55114 14.3433 8.22538 13.5562 9.0957 13.083C9.98683 12.5987 11.0556 12.4541 12 12.4541ZM12 13.8545C11.1677 13.8545 10.3644 13.9869 9.76367 14.3135C9.26869 14.5827 8.89353 14.9899 8.74121 15.6455H15.2588C15.1064 14.9897 14.7306 14.5827 14.2354 14.3135C13.6346 13.9871 12.8321 13.8545 12 13.8545Z" fill="#15C674"/>
<path fill-rule="evenodd" clip-rule="evenodd" d="M11.9893 6.59961C15.2578 6.59961 14.9981 12.0645 11.9893 12.0645C9.56244 12.0638 8.93369 8.56958 10.5088 7.1543L10.6689 7.02441C10.9634 6.806 11.5297 6.59983 11.9893 6.59961ZM11.9893 8C11.9491 8.00015 11.8458 8.01261 11.7109 8.05762C11.6495 8.07818 11.5946 8.10148 11.5527 8.12207C11.5258 8.13532 11.5091 8.14463 11.5029 8.14844C11.1864 8.38378 10.9322 9.00745 11.0918 9.74023C11.2409 10.4234 11.6061 10.6638 11.9893 10.6641C12.2642 10.6641 12.4522 10.559 12.6113 10.3535C12.7956 10.1151 12.9329 9.73422 12.9434 9.29883C12.9537 8.86172 12.8341 8.50767 12.6758 8.29883C12.5507 8.1338 12.3655 8 11.9893 8Z" fill="#15C674"/>
<path d="M9.13867 3.97266C9.52513 3.97282 9.83887 4.28635 9.83887 4.67285C9.83877 5.05926 9.52507 5.37288 9.13867 5.37305H7.67285C6.4026 5.37305 5.37305 6.4026 5.37305 7.67285V9.13867C5.37295 9.52508 5.05925 9.8387 4.67285 9.83887C4.28631 9.83887 3.97276 9.52519 3.97266 9.13867V7.67285C3.97266 5.6294 5.6294 3.97266 7.67285 3.97266H9.13867Z" fill="#15C674"/>
<path d="M16.3281 3.97266C18.3714 3.97282 20.0283 5.6295 20.0283 7.67285V9.13184C20.028 9.51808 19.7144 9.83089 19.3281 9.83105C18.9417 9.83105 18.6282 9.51819 18.6279 9.13184V7.67285C18.6279 6.4027 17.5982 5.37321 16.3281 5.37305H14.8691C14.4828 5.37286 14.17 5.05925 14.1699 4.67285C14.1699 4.28637 14.4827 3.97285 14.8691 3.97266H16.3281Z" fill="#15C674"/>
</svg>
