<svg width="24" height="24" viewBox="0 0 24 24" fill="none" xmlns="http://www.w3.org/2000/svg">
<path fill-rule="evenodd" clip-rule="evenodd" d="M7.36107 14.4851C8.74468 13.6788 10.4569 13.4299 11.9998 13.4299C13.5426 13.4299 15.2526 13.6788 16.634 14.4854C18.0583 15.3171 19.0819 16.7155 19.2281 18.8521L18.5298 18.8999H19.2298C19.2298 19.5626 18.6925 20.0999 18.0298 20.0999H5.95977C5.29702 20.0999 4.75977 19.5626 4.75977 18.8999H5.45977L4.7614 18.8521C4.90765 16.7146 5.93452 15.3164 7.36107 14.4851ZM6.18037 18.6999H17.8092C17.6402 17.1852 16.9088 16.2671 15.928 15.6944C14.8519 15.066 13.4269 14.8299 11.9998 14.8299C10.5727 14.8299 9.14486 15.066 8.06596 15.6947C7.08255 16.2677 6.3495 17.186 6.18037 18.6999Z" fill="#333333"/>
<path fill-rule="evenodd" clip-rule="evenodd" d="M11.9899 5.29959C11.7991 5.29959 11.5345 5.34259 11.2612 5.43367L11.2554 5.43563C11.0206 5.51159 10.8401 5.60057 10.7261 5.67052C10.7132 5.6816 10.6998 5.69228 10.686 5.70252C9.81918 6.34317 9.39465 7.72584 9.69352 9.08913C9.98682 10.417 10.8183 11.2396 11.9899 11.2396C12.737 11.2396 13.289 10.9231 13.6869 10.4104L13.6917 10.4042C14.1202 9.86458 14.3826 9.0803 14.4 8.24501C14.4174 7.40953 14.1886 6.64423 13.7939 6.12497C13.4242 5.64505 12.868 5.29959 11.9899 5.29959ZM9.76489 4.64457C9.79275 4.61674 9.82322 4.59099 9.8562 4.56772C10.0919 4.40136 10.4265 4.23262 10.8215 4.10453C11.2074 3.97621 11.6216 3.89959 11.9899 3.89959C13.3109 3.89959 14.2745 4.45346 14.9047 5.2728L14.9069 5.27561C15.5316 6.09632 15.8223 7.19041 15.7997 8.27417C15.7772 9.35754 15.4403 10.4518 14.7905 11.2718C14.1484 12.0974 13.2012 12.6396 11.9899 12.6396C9.96161 12.6396 8.71312 11.1424 8.32634 9.3905C7.95341 7.69037 8.40111 5.72043 9.76489 4.64457Z" fill="#333333"/>
<path fill-rule="evenodd" clip-rule="evenodd" d="M16.8186 5.29729C17.1738 5.14464 17.5855 5.30883 17.7381 5.66402C18.508 7.45534 18.3921 9.04745 17.7468 10.6956C17.6059 11.0556 17.1998 11.2332 16.8398 11.0922C16.4798 10.9513 16.3023 10.5452 16.4432 10.1852C16.9789 8.81678 17.0516 7.61222 16.4519 6.21681C16.2992 5.86162 16.4634 5.44994 16.8186 5.29729Z" fill="#333333"/>
<path fill-rule="evenodd" clip-rule="evenodd" d="M18.621 3.63225C18.9762 3.4796 19.3878 3.64379 19.5405 3.99898C20.817 6.96919 20.6313 9.59587 19.5492 12.36C19.4082 12.72 19.0022 12.8975 18.6422 12.7566C18.2822 12.6157 18.1046 12.2096 18.2455 11.8496C19.2182 9.3652 19.3606 7.12606 18.2542 4.55177C18.1016 4.19658 18.2658 3.7849 18.621 3.63225Z" fill="#333333"/>
</svg>
