<svg width="24" height="24" viewBox="0 0 24 24" fill="none" xmlns="http://www.w3.org/2000/svg">
<path fill-rule="evenodd" clip-rule="evenodd" d="M6.24477 18.1994C6.37086 17.2252 6.77123 16.2586 7.56043 15.516C8.41339 14.7134 9.7982 14.0994 12 14.0994C12.0941 14.0994 12.1318 14.1005 12.2211 14.103C12.2301 14.1033 12.2397 14.1035 12.2499 14.1038C12.6364 14.1146 12.9584 13.8101 12.9693 13.4237C12.9801 13.0372 12.6756 12.7152 12.2891 12.7044C12.2792 12.7041 12.2697 12.7038 12.2606 12.7036C12.1683 12.7009 12.1141 12.6994 12 12.6994C9.53102 12.6994 7.77219 13.3944 6.60103 14.4964C5.43552 15.5931 4.92932 17.0204 4.82234 18.3436C4.76407 19.0644 5.35409 19.5994 5.99998 19.5994H13.8168C14.2034 19.5994 14.5168 19.286 14.5168 18.8994C14.5168 18.5128 14.2034 18.1994 13.8168 18.1994H6.24477Z" fill="#333333"/>
<path fill-rule="evenodd" clip-rule="evenodd" d="M11.2956 4.9318C11.0193 5.0234 10.8237 5.13047 10.7429 5.18996C9.91895 5.79651 9.49779 7.1262 9.79298 8.47097C10.0769 9.76434 10.8816 10.5376 11.9919 10.5376C12.7033 10.5376 13.2244 10.2368 13.6096 9.74278C14.02 9.21631 14.2784 8.45266 14.298 7.635C14.3176 6.81611 14.0953 6.07984 13.716 5.58316C13.3696 5.12951 12.8418 4.79941 11.992 4.79941C11.8189 4.79941 11.5673 4.84171 11.2956 4.9318ZM9.91298 4.06249C7.11972 6.1187 8.04674 11.9376 11.9919 11.9376C16.7284 11.9376 17.1373 3.39941 11.992 3.39941C11.2683 3.39941 10.3768 3.72106 9.91298 4.06249Z" fill="#333333"/>
<path fill-rule="evenodd" clip-rule="evenodd" d="M13.8 14.3994C13.8 14.0128 14.1134 13.6994 14.5 13.6994H19.5C19.8866 13.6994 20.2 14.0128 20.2 14.3994C20.2 14.786 19.8866 15.0994 19.5 15.0994H14.5C14.1134 15.0994 13.8 14.786 13.8 14.3994Z" fill="#333333"/>
<path fill-rule="evenodd" clip-rule="evenodd" d="M14.8 16.6992C14.8 16.3126 15.1134 15.9992 15.5 15.9992H18.5C18.8866 15.9992 19.2 16.3126 19.2 16.6992C19.2 17.0858 18.8866 17.3992 18.5 17.3992H15.5C15.1134 17.3992 14.8 17.0858 14.8 16.6992Z" fill="#333333"/>
<path fill-rule="evenodd" clip-rule="evenodd" d="M15.8 18.8994C15.8 18.5128 16.1134 18.1994 16.5 18.1994H17.5C17.8866 18.1994 18.2 18.5128 18.2 18.8994C18.2 19.286 17.8866 19.5994 17.5 19.5994H16.5C16.1134 19.5994 15.8 19.286 15.8 18.8994Z" fill="#333333"/>
</svg>
