<svg width="24" height="24" viewBox="0 0 24 24" fill="none" xmlns="http://www.w3.org/2000/svg">
<path fill-rule="evenodd" clip-rule="evenodd" d="M6.24477 18.1994C6.37086 17.2252 6.77123 16.2586 7.56043 15.516C8.41339 14.7134 9.7982 14.0994 12 14.0994C12.0533 14.0994 12.1062 14.0998 12.1586 14.1005C12.5452 14.1058 12.8629 13.7967 12.8682 13.4101C12.8735 13.0236 12.5644 12.7059 12.1778 12.7006C12.119 12.6998 12.0597 12.6994 12 12.6994C9.53102 12.6994 7.77219 13.3944 6.60103 14.4964C5.43552 15.5931 4.92932 17.0204 4.82234 18.3436C4.76407 19.0644 5.35409 19.5994 5.99998 19.5994H12.4996C12.8862 19.5994 13.1996 19.286 13.1996 18.8994C13.1996 18.5128 12.8862 18.1994 12.4996 18.1994H6.24477Z" fill="#333333"/>
<path fill-rule="evenodd" clip-rule="evenodd" d="M11.2956 4.9318C11.0193 5.0234 10.8237 5.13047 10.7429 5.18996C9.91895 5.79651 9.49779 7.1262 9.79298 8.47097C10.0769 9.76434 10.8816 10.5376 11.9919 10.5376C12.7033 10.5376 13.2244 10.2368 13.6096 9.74278C14.02 9.21631 14.2784 8.45266 14.298 7.635C14.3176 6.81611 14.0953 6.07984 13.716 5.58316C13.3696 5.12951 12.8418 4.79941 11.992 4.79941C11.8189 4.79941 11.5673 4.84171 11.2956 4.9318ZM9.91298 4.06249C7.11972 6.1187 8.04674 11.9376 11.9919 11.9376C16.7284 11.9376 17.1373 3.39941 11.992 3.39941C11.2683 3.39941 10.3768 3.72106 9.91298 4.06249Z" fill="#333333"/>
<path fill-rule="evenodd" clip-rule="evenodd" d="M18.9481 15.3617C19.2451 15.6092 19.2852 16.0505 19.0378 16.3475L16.5378 19.3475C16.4118 19.4986 16.2282 19.5898 16.0317 19.5987C15.8352 19.6076 15.6441 19.5335 15.505 19.3944L14.005 17.8944C13.7317 17.621 13.7317 17.1778 14.005 16.9044C14.2784 16.6311 14.7216 16.6311 14.995 16.9044L15.953 17.8624L17.9622 15.4513C18.2097 15.1543 18.6511 15.1142 18.9481 15.3617Z" fill="#333333"/>
<path fill-rule="evenodd" clip-rule="evenodd" d="M18.9481 11.8617C19.2451 12.1092 19.2852 12.5505 19.0378 12.8475L16.5378 15.8475C16.4118 15.9986 16.2282 16.0898 16.0317 16.0987C15.8352 16.1076 15.6441 16.0335 15.505 15.8944L14.005 14.3944C13.7317 14.121 13.7317 13.6778 14.005 13.4044C14.2784 13.1311 14.7216 13.1311 14.995 13.4044L15.953 14.3624L17.9622 11.9513C18.2097 11.6543 18.6511 11.6142 18.9481 11.8617Z" fill="#333333"/>
</svg>
