<svg width="24" height="24" viewBox="0 0 24 24" fill="none" xmlns="http://www.w3.org/2000/svg">
<path fill-rule="evenodd" clip-rule="evenodd" d="M12.0365 7.50391H12.2551C12.2702 7.50391 12.2852 7.50438 12.3001 7.50533C16.4034 7.54984 18.8901 8.63574 20.3253 10.1253C21.7894 11.6448 22.0464 13.4673 21.9427 14.6742C21.8774 15.4337 21.2841 15.9461 20.6387 16.0658C20.5213 16.0876 20.4164 16.0877 20.3471 16.0855C19.4069 16.0563 18.6668 16.0119 18.0846 15.9768C17.4907 15.9411 17.0932 15.9174 16.7993 15.9232C16.7279 15.9246 16.5844 15.9264 16.426 15.8854C15.927 15.7561 15.5009 15.3736 15.3704 14.8212C15.2519 14.3199 15.1518 13.5306 15.3143 12.5473C15.3174 12.5283 15.3195 12.5128 15.3207 12.5001C15.2653 12.4259 15.16 12.3266 14.9771 12.2161C14.7623 12.0863 14.483 11.9666 14.1603 11.8653C13.512 11.6616 12.7733 11.5577 12.2213 11.5577H12.0703C11.5183 11.5577 10.7796 11.6616 10.1313 11.8653C9.80862 11.9666 9.52924 12.0863 9.3145 12.2161C9.13159 12.3266 9.02626 12.4259 8.97084 12.5001C8.97211 12.5128 8.97416 12.5283 8.9773 12.5473C9.13983 13.5306 9.03972 14.3199 8.92123 14.8212C8.77564 15.4373 8.26662 15.8366 7.69915 15.9189C7.67336 15.9226 7.64738 15.9249 7.62134 15.9257C6.79544 15.9524 5.66093 15.9868 3.75394 16.0383C3.72143 16.0392 3.6889 16.0378 3.65659 16.0342C2.96312 15.956 2.30232 15.4314 2.23299 14.6247C2.12815 13.4048 2.42252 11.5946 3.91601 10.0927C5.37842 8.62205 7.88864 7.54924 11.9918 7.50531C12.0066 7.50438 12.0215 7.50391 12.0365 7.50391ZM12.1455 8.90416C8.17716 8.92262 6.03848 9.94375 4.90874 11.0799C3.7687 12.2264 3.54979 13.5966 3.62785 14.5048C3.63005 14.5305 3.64016 14.555 3.66744 14.5805C3.69212 14.6036 3.73027 14.6258 3.77923 14.6372C5.60453 14.5877 6.71203 14.5543 7.52106 14.5282C7.53686 14.5233 7.54624 14.5168 7.55061 14.513C7.55369 14.5104 7.5558 14.5072 7.5558 14.5072C7.5558 14.5072 7.55762 14.5041 7.55876 14.4993C7.64228 14.1459 7.72335 13.5459 7.59604 12.7756C7.56473 12.5861 7.52083 12.2124 7.72411 11.8534C7.93056 11.4889 8.25894 11.2182 8.59039 11.0179C8.92835 10.8136 9.31827 10.6532 9.71164 10.5296C10.4953 10.2834 11.3755 10.1577 12.0703 10.1577H12.2213C12.9161 10.1577 13.7963 10.2834 14.58 10.5296C14.9733 10.6532 15.3632 10.8136 15.7012 11.0179C16.0327 11.2182 16.361 11.4889 16.5675 11.8534C16.7708 12.2124 16.7269 12.5861 16.6955 12.7756C16.5682 13.5459 16.6493 14.1459 16.7328 14.4993C16.7339 14.5037 16.7355 14.5068 16.7355 14.5068C16.7355 14.5068 16.7372 14.5094 16.7393 14.5115C16.742 14.5142 16.748 14.519 16.7583 14.5236C16.7622 14.5236 16.7667 14.5235 16.772 14.5234C17.1262 14.5165 17.5766 14.5437 18.1259 14.5768L18.1688 14.5794C18.7491 14.6143 19.472 14.6576 20.3906 14.6862C20.3932 14.6863 20.3974 14.6864 20.3974 14.6864C20.4499 14.674 20.4891 14.6495 20.513 14.6253C20.5364 14.6017 20.5457 14.579 20.5478 14.5543C20.627 13.6331 20.4287 12.2503 19.3172 11.0967C18.2173 9.9552 16.1123 8.92273 12.1455 8.90416Z" fill="#333333"/>
</svg>
