<svg width="24" height="24" viewBox="0 0 24 24" fill="none" xmlns="http://www.w3.org/2000/svg">
<path fill-rule="evenodd" clip-rule="evenodd" d="M8.01686 16.4255L7.86227 16.2709C7.85159 16.2602 7.84133 16.2493 7.83148 16.2381C4.96147 13.3051 3.97093 10.7789 4.00937 8.71074C4.04858 6.60104 5.15551 5.13066 6.08226 4.35059C6.66549 3.85968 7.44735 3.91685 7.98833 4.28857C8.08681 4.35623 8.16103 4.43037 8.2085 4.48088C8.85267 5.16639 9.34458 5.72106 9.73147 6.15755C10.1261 6.60276 10.3905 6.90055 10.6023 7.10432C10.6538 7.15384 10.7566 7.25396 10.8396 7.39502C11.101 7.83927 11.1319 8.41102 10.8336 8.89393C10.5629 9.33223 10.0756 9.9611 9.2653 10.5415C9.24964 10.5527 9.23722 10.5622 9.22739 10.5703C9.21411 10.6619 9.21836 10.8066 9.26954 11.0141C9.32962 11.2578 9.44256 11.5399 9.59903 11.8397C9.91343 12.4422 10.3623 13.038 10.7526 13.4283L10.8595 13.5351C11.2498 13.9254 11.8455 14.3743 12.448 14.6887C12.7478 14.8452 13.03 14.9581 13.2736 15.0182C13.4811 15.0694 13.6258 15.0736 13.7174 15.0604C13.7255 15.0505 13.735 15.0381 13.7462 15.0224C14.3266 14.2122 14.9555 13.7249 15.3938 13.4541C15.9324 13.1215 16.5747 13.1991 17.0341 13.5422C17.055 13.5577 17.075 13.5745 17.094 13.5923C17.6968 14.1574 18.5234 14.9353 19.9083 16.2473C19.9319 16.2697 19.9539 16.2937 19.9742 16.3191C20.4092 16.8648 20.5055 17.703 19.9842 18.3224C19.1957 19.2591 17.7075 20.331 15.5895 20.3369C13.5155 20.3428 10.9819 19.3264 8.04942 16.456C8.03832 16.4463 8.02746 16.4361 8.01686 16.4255ZM8.92992 15.3583C11.749 18.1512 13.9833 18.9415 15.5855 18.937C17.2023 18.9324 18.326 18.1183 18.9131 17.4209C18.9296 17.4012 18.9398 17.3767 18.9386 17.3394C18.9375 17.3056 18.9262 17.2629 18.8996 17.2203C17.574 15.9645 16.7672 15.205 16.1767 14.6514C16.162 14.6437 16.1508 14.6417 16.1451 14.6413C16.141 14.641 16.1373 14.6417 16.1373 14.6417C16.1373 14.6417 16.1349 14.6423 16.1325 14.6435L16.1295 14.6452C15.8206 14.8361 15.339 15.203 14.8844 15.8377C14.7725 15.9938 14.5393 16.2891 14.1417 16.3992C13.738 16.511 13.3144 16.4702 12.9384 16.3775C12.555 16.2829 12.1658 16.1206 11.8003 15.9299C11.072 15.5498 10.3608 15.0163 9.86953 14.525L9.7627 14.4182C9.27145 13.927 8.73793 13.2157 8.35787 12.4874C8.16711 12.1219 8.00482 11.7328 7.91027 11.3494C7.81753 10.9734 7.77675 10.5498 7.88854 10.146C7.99861 9.74844 8.29393 9.5152 8.45003 9.40338C9.08473 8.94873 9.45167 8.46713 9.6425 8.15819C9.64489 8.15433 9.64593 8.15094 9.64593 8.15094C9.64593 8.15094 9.64661 8.14791 9.64658 8.14498C9.64653 8.14112 9.64573 8.13351 9.64172 8.12294L9.63188 8.11338C9.37655 7.86782 9.07724 7.53011 8.71229 7.11835L8.68378 7.08618C8.29812 6.65108 7.81759 6.1093 7.18826 5.43959L7.18355 5.43464C7.1377 5.40627 7.09267 5.39589 7.0587 5.39608C7.02542 5.39626 7.00279 5.40569 6.98381 5.42167C6.27641 6.0171 5.4389 7.13506 5.40913 8.73676C5.37967 10.3216 6.1381 12.5402 8.92992 15.3583Z" fill="#333333"/>
<path d="M18.5901 11.1787C18.2035 11.1787 17.8901 10.8653 17.8901 10.4787L17.8901 7.25451L13.6707 11.4742C13.3973 11.7475 12.9541 11.7476 12.6807 11.4742C12.4073 11.2008 12.4073 10.7576 12.6807 10.4842L16.7576 6.40719L13.8186 6.40719C13.432 6.40719 13.1186 6.09379 13.1186 5.70719C13.1186 5.32059 13.432 5.00719 13.8186 5.00719L18.5901 5.00719C18.9767 5.00719 19.2901 5.32059 19.2901 5.70719L19.2901 10.4787C19.2901 10.8653 18.9767 11.1787 18.5901 11.1787Z" fill="#333333"/>
</svg>
