<svg width="24" height="24" viewBox="0 0 24 24" fill="none" xmlns="http://www.w3.org/2000/svg">
<path d="M8.85463 15.214C14.7223 21.0817 18.5705 18.9439 19.946 17.3097C20.2176 16.987 20.1872 16.5234 19.9242 16.1936C18.54 14.8823 17.7144 14.1052 17.1126 13.5411C16.8591 13.3518 16.5283 13.3215 16.2591 13.4878C15.8854 13.7186 15.3302 14.1457 14.8127 14.8682C14.7197 14.998 14.6063 15.1201 14.4523 15.1627C13.4759 15.433 11.7434 14.3497 10.8619 13.4682L10.7551 13.3613C9.87351 12.4798 8.79019 10.7473 9.06054 9.77088C9.10316 9.61696 9.22522 9.50355 9.35505 9.41054C10.0775 8.89302 10.5046 8.33778 10.7354 7.96416C10.8852 7.72164 10.8755 7.42912 10.7337 7.18816C10.7023 7.13473 10.6592 7.08992 10.6145 7.04695C10.1407 6.59125 9.46926 5.75355 8.19577 4.39833C8.16329 4.36377 8.12839 4.33046 8.0893 4.3036C7.7647 4.08057 7.33486 4.06798 7.03042 4.32423C5.39627 5.69973 3.14155 9.50093 9.00922 15.3686L8.85463 15.214Z" stroke="#333333" stroke-width="1.4" stroke-linecap="round" stroke-linejoin="round"/>
<path fill-rule="evenodd" clip-rule="evenodd" d="M8.51441 15.8639L8.35983 15.7094C8.34915 15.6987 8.33889 15.6877 8.32904 15.6766C5.45902 12.7436 4.46849 10.2174 4.50693 8.14922C4.54614 6.03952 5.65306 4.56914 6.57982 3.78907C7.16304 3.29816 7.9449 3.35533 8.48589 3.72705C8.58437 3.79471 8.65859 3.86884 8.70606 3.91935C9.35023 4.60486 9.84214 5.15954 10.229 5.59602C10.6236 6.04124 10.888 6.33902 11.0999 6.5428C11.1514 6.59231 11.2541 6.69243 11.3372 6.8335C11.5986 7.27775 11.6294 7.84949 11.3312 8.3324C11.0604 8.77071 10.5731 9.39957 9.76286 9.97999C9.7472 9.99121 9.73478 10.0007 9.72495 10.0088C9.71167 10.1004 9.71592 10.2451 9.7671 10.4526C9.82718 10.6962 9.94012 10.9784 10.0966 11.2782C10.411 11.8807 10.8599 12.4764 11.2502 12.8667L11.357 12.9736C11.7473 13.3639 12.3431 13.8128 12.9456 14.1272C13.2454 14.2837 13.5275 14.3966 13.7712 14.4567C13.9787 14.5079 14.1234 14.5121 14.215 14.4988C14.2231 14.489 14.2326 14.4766 14.2438 14.4609C14.8242 13.6507 15.4531 13.1634 15.8914 12.8926C16.4299 12.5599 17.0722 12.6375 17.5316 12.9806C17.5525 12.9962 17.5725 13.013 17.5915 13.0308C18.1944 13.5959 19.0209 14.3738 20.4058 15.6858C20.4294 15.7082 20.4514 15.7322 20.4717 15.7576C20.9068 16.3033 21.0031 17.1415 20.4817 17.7609C19.6932 18.6976 18.2051 19.7695 16.087 19.7754C14.013 19.7813 11.4794 18.7649 8.54698 15.8945C8.53588 15.8847 8.52502 15.8745 8.51441 15.8639ZM9.42748 14.7968C12.2466 17.5897 14.4809 18.3799 16.0831 18.3754C17.6999 18.3709 18.8236 17.5567 19.4106 16.8593C19.4272 16.8397 19.4374 16.8152 19.4361 16.7778C19.435 16.7441 19.4237 16.7014 19.3971 16.6587C18.0715 15.403 17.2648 14.6435 16.6743 14.0899C16.6596 14.0822 16.6484 14.0801 16.6426 14.0797C16.6385 14.0794 16.6348 14.0802 16.6348 14.0802C16.6348 14.0802 16.6313 14.0811 16.6271 14.0837C16.3182 14.2745 15.8366 14.6415 15.3819 15.2762C15.2701 15.4323 15.0369 15.7276 14.6393 15.8377C14.2355 15.9495 13.8119 15.9087 13.4359 15.8159C13.0525 15.7214 12.6634 15.5591 12.2979 15.3683C11.5696 14.9883 10.8583 14.4548 10.3671 13.9635L10.2603 13.8567C9.769 13.3654 9.23549 12.6542 8.85543 11.9259C8.66467 11.5604 8.50238 11.1712 8.40782 10.7878C8.31509 10.4118 8.2743 9.98823 8.3861 9.58447C8.49617 9.18691 8.79149 8.95368 8.94759 8.84186C9.58229 8.38721 9.94923 7.90561 10.1401 7.59667C10.1424 7.5928 10.1435 7.58941 10.1435 7.58941C10.1435 7.58941 10.1442 7.58639 10.1441 7.58346C10.1441 7.5796 10.1433 7.57198 10.1393 7.56142C10.1365 7.5587 10.1333 7.55555 10.1294 7.55186C9.87411 7.3063 9.5748 6.96859 9.20985 6.55682L9.18134 6.52465C8.79568 6.08955 8.31514 5.54777 7.68582 4.87806C7.684 4.87613 7.68111 4.87312 7.68111 4.87312C7.63525 4.84474 7.59023 4.83437 7.55625 4.83455C7.52298 4.83473 7.50035 4.84417 7.48137 4.86015C6.77397 5.45558 5.93646 6.57354 5.90669 8.17523C5.87723 9.7601 6.63566 11.9787 9.42748 14.7968Z" fill="#333333"/>
</svg>
