<svg width="24" height="24" viewBox="0 0 24 24" fill="none" xmlns="http://www.w3.org/2000/svg">
<path d="M15.3552 9.87166H19.0256C19.4122 9.87166 19.7256 10.1851 19.7256 10.5717C19.7256 10.9583 19.4122 11.2717 19.0256 11.2717H13.664C13.2774 11.2717 12.964 10.9583 12.964 10.5717V5.20999C12.964 4.82339 13.2774 4.50999 13.664 4.50999C14.0506 4.50999 14.364 4.82339 14.364 5.20999V8.88297L19.246 4.00092C19.5194 3.72756 19.9626 3.72756 20.236 4.00093C20.5094 4.27429 20.5094 4.71751 20.236 4.99087L15.3552 9.87166Z" fill="#333333"/>
<path fill-rule="evenodd" clip-rule="evenodd" d="M8.01686 16.4257L7.86227 16.2711C7.85159 16.2604 7.84133 16.2495 7.83148 16.2383C4.96147 13.3053 3.97093 10.7791 4.00937 8.71095C4.04858 6.60126 5.15551 5.13087 6.08226 4.35081C6.66549 3.8599 7.44735 3.91707 7.98833 4.28878C8.08681 4.35645 8.16103 4.43058 8.2085 4.48109C8.85267 5.1666 9.34458 5.72128 9.73147 6.15776C10.1261 6.60297 10.3905 6.90076 10.6023 7.10454C10.6538 7.15405 10.7566 7.25417 10.8396 7.39523C11.101 7.83948 11.1319 8.41123 10.8336 8.89414C10.5629 9.33244 10.0756 9.96131 9.2653 10.5417C9.24964 10.5529 9.23722 10.5625 9.22739 10.5705C9.21411 10.6621 9.21836 10.8069 9.26954 11.0144C9.32962 11.258 9.44256 11.5401 9.59903 11.8399C9.91343 12.4424 10.3623 13.0382 10.7526 13.4285L10.8595 13.5353C11.2498 13.9256 11.8455 14.3745 12.448 14.6889C12.7478 14.8454 13.03 14.9583 13.2736 15.0184C13.4811 15.0696 13.6258 15.0738 13.7174 15.0606C13.7255 15.0507 13.735 15.0383 13.7462 15.0226C14.3266 14.2124 14.9555 13.7251 15.3938 13.4544C15.9324 13.1217 16.5747 13.1993 17.0341 13.5424C17.055 13.558 17.075 13.5747 17.094 13.5925C17.6968 14.1576 18.5234 14.9356 19.9083 16.2476C19.9319 16.2699 19.9539 16.2939 19.9742 16.3193C20.4092 16.865 20.5055 17.7032 19.9842 18.3226C19.1957 19.2594 17.7075 20.3312 15.5895 20.3372C13.5155 20.343 10.9819 19.3266 8.04942 16.4563C8.03832 16.4465 8.02746 16.4363 8.01686 16.4257ZM8.92992 15.3585C11.749 18.1515 13.9833 18.9417 15.5855 18.9372C17.2023 18.9326 18.326 18.1185 18.9131 17.4211C18.9296 17.4014 18.9398 17.3769 18.9386 17.3396C18.9375 17.3058 18.9262 17.2631 18.8996 17.2205C17.574 15.9647 16.7672 15.2053 16.1767 14.6516C16.162 14.644 16.1508 14.6419 16.1451 14.6415C16.1425 14.6413 16.1406 14.6414 16.1392 14.6416L16.1373 14.6419C16.1362 14.6422 16.1338 14.6429 16.1295 14.6454C15.8206 14.8363 15.339 15.2032 14.8844 15.8379C14.7725 15.994 14.5393 16.2893 14.1417 16.3994C13.738 16.5112 13.3144 16.4704 12.9384 16.3777C12.555 16.2831 12.1658 16.1208 11.8003 15.9301C11.072 15.55 10.3608 15.0165 9.86953 14.5253L9.7627 14.4184C9.27145 13.9272 8.73793 13.2159 8.35787 12.4877C8.16711 12.1221 8.00482 11.733 7.91027 11.3496C7.81753 10.9736 7.77675 10.55 7.88854 10.1462C7.99861 9.74865 8.29393 9.51541 8.45003 9.40359C9.08473 8.94895 9.45167 8.46735 9.6425 8.1584C9.64489 8.15454 9.64563 8.15222 9.64593 8.15115C9.64626 8.14995 9.64661 8.14812 9.64658 8.14519C9.64653 8.14134 9.64573 8.13372 9.64172 8.12316L9.63188 8.11359C9.37656 7.86804 9.07725 7.53033 8.7123 7.11857L8.68378 7.08639C8.29812 6.65129 7.81759 6.10951 7.18826 5.4398L7.18355 5.43486C7.1377 5.40648 7.09267 5.39611 7.0587 5.39629C7.02542 5.39647 7.00279 5.40591 6.98381 5.42189C6.27641 6.01731 5.4389 7.13528 5.40913 8.73697C5.37967 10.3218 6.1381 12.5404 8.92992 15.3585Z" fill="#333333"/>
</svg>
