<svg width="24" height="24" viewBox="0 0 24 24" fill="none" xmlns="http://www.w3.org/2000/svg">
<path d="M4.2998 5.99981C4.2998 5.61321 4.61321 5.2998 4.9998 5.2998H13.451C13.8376 5.2998 14.151 5.61321 14.151 5.9998C14.151 6.3864 13.8376 6.6998 13.451 6.6998L4.9998 6.69981C4.61321 6.69981 4.2998 6.3864 4.2998 5.99981Z" fill="#333333"/>
<path d="M4.2998 9.45195C4.2998 9.06535 4.61321 8.75195 4.9998 8.75195H9.72622C10.1128 8.75195 10.4262 9.06535 10.4262 9.45195C10.4262 9.83855 10.1128 10.152 9.72622 10.152H4.9998C4.61321 10.152 4.2998 9.83855 4.2998 9.45195Z" fill="#333333"/>
<path d="M4.9998 12.6025C4.61321 12.6025 4.2998 12.9159 4.2998 13.3025C4.2998 13.6891 4.61321 14.0025 4.9998 14.0025H7.32311C7.70971 14.0025 8.02311 13.6891 8.02311 13.3025C8.02311 12.9159 7.70971 12.6025 7.32311 12.6025L4.9998 12.6025Z" fill="#333333"/>
<path fill-rule="evenodd" clip-rule="evenodd" d="M15.632 7.28413C16.1838 6.73113 17.1049 6.65103 17.7085 7.22322L17.7224 7.23678L20.4257 9.94571C21.0234 10.5464 20.9519 11.4897 20.3901 12.0519C19.8308 12.6115 18.8948 12.6842 18.2953 12.0941L15.6115 15.6222L15.7236 15.7346C15.7302 15.7412 15.7367 15.748 15.7431 15.7549C16.3002 16.3604 16.2169 17.2713 15.6702 17.8195C15.1227 18.3684 14.2111 18.4525 13.6059 17.8926C13.5991 17.8863 13.5925 17.88 13.586 17.8735L12.1896 16.4739L9.70152 18.9621C9.42815 19.2354 8.98494 19.2354 8.71157 18.9621C8.4382 18.6887 8.4382 18.2455 8.71157 17.9721L11.2008 15.4829L9.80466 14.0835L9.79046 14.0689C9.22161 13.4646 9.30157 12.5444 9.85269 11.9921C10.4046 11.4391 11.3256 11.359 11.9292 11.9312L11.9433 11.9449L12.0531 12.055L15.5726 9.36384L15.5697 9.3609C15.0009 8.75664 15.0808 7.83636 15.632 7.28413ZM16.7111 8.23043C16.687 8.23147 16.6537 8.24218 16.6229 8.27308C16.592 8.30403 16.5807 8.33817 16.5795 8.36393C16.5787 8.38409 16.5836 8.39406 16.587 8.39877L17.1275 8.94073C17.2699 9.08349 17.3438 9.28071 17.3303 9.48188C17.3168 9.68305 17.2172 9.86863 17.0571 9.9911L12.416 13.5399C12.137 13.7532 11.7432 13.7268 11.4952 13.4781L10.9637 12.9452C10.9593 12.942 10.9504 12.9376 10.9318 12.9384C10.9077 12.9395 10.8745 12.9502 10.8436 12.9811C10.8128 13.012 10.8014 13.0462 10.8003 13.0719C10.7994 13.092 10.8043 13.102 10.8077 13.1067L13.2497 15.5562L14.5601 16.8676C14.5648 16.8706 14.5739 16.8744 14.5912 16.8735C14.6153 16.8723 14.6483 16.8615 14.6789 16.8308C14.7095 16.8002 14.721 16.7662 14.7222 16.7405C14.7231 16.7217 14.719 16.7116 14.7156 16.7065L14.1892 16.1786C13.9422 15.9309 13.9159 15.5389 14.1277 15.2605L17.6669 10.6077C17.7894 10.4467 17.9755 10.3466 18.1773 10.3331C18.3791 10.3196 18.5769 10.394 18.7197 10.5372L19.276 11.095C19.2788 11.0979 19.2872 11.1057 19.3103 11.105C19.3344 11.1043 19.3683 11.0939 19.3998 11.0623C19.4314 11.0306 19.4426 10.9959 19.4434 10.97C19.4441 10.9455 19.4366 10.9365 19.4335 10.9334L16.743 8.23723C16.7386 8.23405 16.7297 8.22963 16.7111 8.23043Z" fill="#333333"/>
</svg>
