<svg width="24" height="24" viewBox="0 0 24 24" fill="none" xmlns="http://www.w3.org/2000/svg">
<path fill-rule="evenodd" clip-rule="evenodd" d="M15.7063 4.75208C15.0141 4.09592 13.9495 4.1822 13.3061 4.82694C12.6634 5.47092 12.5772 6.53512 13.2297 7.22829L13.2438 7.24278L13.395 7.39444L8.50942 11.1302L8.23973 10.8598L8.22566 10.8461C7.53344 10.1899 6.46885 10.2762 5.82541 10.921C5.18273 11.5649 5.0965 12.6291 5.74904 13.3223L5.76324 13.337L7.716 15.2941L4.50483 18.5053C4.23146 18.7787 4.23146 19.2219 4.50483 19.4953C4.7782 19.7686 5.22141 19.7686 5.49478 19.4953L8.70483 16.2852L10.6578 18.2426C10.6643 18.2491 10.6709 18.2554 10.6776 18.2616C11.3718 18.9038 12.4255 18.8127 13.0638 18.1728C13.7013 17.5335 13.7915 16.4801 13.1524 15.7855C13.146 15.7786 13.1396 15.7718 13.1329 15.7652L12.861 15.4925L16.5866 10.5946L16.7395 10.748C17.4263 11.438 18.5173 11.3636 19.1734 10.7071C19.8286 10.0514 19.9047 8.96079 19.2192 8.27187L15.7203 4.76565L15.7063 4.75208ZM14.297 5.81589C14.456 5.65664 14.6496 5.68475 14.7386 5.76396L18.2271 9.25969C18.3134 9.34689 18.3491 9.55136 18.1831 9.71748C18.0177 9.88296 17.8164 9.8454 17.7312 9.75973L17.0111 9.03767C16.8682 8.89446 16.6704 8.82002 16.4686 8.83354C16.2668 8.84706 16.0807 8.9472 15.9583 9.10818L11.3771 15.1307C11.1653 15.4091 11.1916 15.8011 11.4386 16.0488L12.1281 16.7402C12.2056 16.8325 12.2295 17.0267 12.0725 17.1842C11.9162 17.3409 11.7254 17.3163 11.6349 17.2397L9.9317 15.5352L8.43722 14.0345L6.76404 12.3579C6.68397 12.267 6.65678 12.0698 6.81636 11.9099C6.97526 11.7507 7.16883 11.7788 7.25792 11.8579L7.95149 12.5534C8.19948 12.802 8.59335 12.8284 8.87232 12.6151L14.8797 8.02156C15.0399 7.89909 15.1394 7.71351 15.1529 7.51234C15.1664 7.31117 15.0925 7.11395 14.9501 6.97119L14.2448 6.26391C14.1647 6.17304 14.1374 5.97582 14.297 5.81589Z" fill="#333333"/>
</svg>
