<svg width="24" height="24" viewBox="0 0 24 24" fill="none" xmlns="http://www.w3.org/2000/svg">
<path fill-rule="evenodd" clip-rule="evenodd" d="M11.9944 5.27012C10.7117 5.27012 9.51485 5.62856 8.49613 6.25038C8.16615 6.4518 7.73536 6.34757 7.53394 6.01759C7.33252 5.68761 7.43674 5.25682 7.76673 5.0554C8.99886 4.30331 10.4471 3.87012 11.9944 3.87012C16.4817 3.87012 20.1194 7.5078 20.1194 11.9951C20.1194 16.4824 16.4817 20.1201 11.9944 20.1201C10.4471 20.1201 8.99886 19.6869 7.76673 18.9348C7.43674 18.7334 7.33252 18.3026 7.53394 17.9726C7.73536 17.6427 8.16615 17.5384 8.49613 17.7399C9.51485 18.3617 10.7117 18.7201 11.9944 18.7201C15.7085 18.7201 18.7194 15.7092 18.7194 11.9951C18.7194 8.281 15.7085 5.27012 11.9944 5.27012Z" fill="#333333"/>
<path fill-rule="evenodd" clip-rule="evenodd" d="M11.9995 8.30039C11.4839 8.30039 10.9947 8.40545 10.5506 8.59468C10.1949 8.74622 9.78374 8.58075 9.63219 8.22509C9.48065 7.86943 9.64612 7.45826 10.0018 7.30672C10.6162 7.04491 11.2919 6.90039 11.9995 6.90039C14.8162 6.90039 17.0995 9.18374 17.0995 12.0004C17.0995 14.817 14.8162 17.1004 11.9995 17.1004C11.2919 17.1004 10.6162 16.9559 10.0018 16.6941C9.64612 16.5425 9.48065 16.1313 9.63219 15.7757C9.78374 15.42 10.1949 15.2546 10.5506 15.4061C10.9947 15.5953 11.4839 15.7004 11.9995 15.7004C14.043 15.7004 15.6995 14.0438 15.6995 12.0004C15.6995 9.95694 14.043 8.30039 11.9995 8.30039Z" fill="#333333"/>
<path fill-rule="evenodd" clip-rule="evenodd" d="M3.89941 11.9998C3.89941 11.6132 4.21281 11.2998 4.59941 11.2998H9.59941C9.98601 11.2998 10.2994 11.6132 10.2994 11.9998C10.2994 12.3864 9.98601 12.6998 9.59941 12.6998L4.59941 12.6998C4.21281 12.6998 3.89941 12.3864 3.89941 11.9998Z" fill="#333333"/>
<path fill-rule="evenodd" clip-rule="evenodd" d="M6.50385 8.90522C6.77722 8.63185 7.22044 8.63185 7.4938 8.90522L10.0939 11.5053C10.3673 11.7787 10.3673 12.2219 10.0939 12.4953C9.82053 12.7686 9.37732 12.7686 9.10395 12.4953L6.50385 9.89517C6.23049 9.6218 6.23049 9.17859 6.50385 8.90522Z" fill="#333333"/>
<path fill-rule="evenodd" clip-rule="evenodd" d="M10.0939 11.5053C10.3673 11.7787 10.3673 12.2219 10.0939 12.4953L7.59439 14.9948C7.32102 15.2681 6.87781 15.2681 6.60444 14.9948C6.33107 14.7214 6.33107 14.2782 6.60444 14.0048L9.10444 11.5048C9.37781 11.2315 9.82053 11.232 10.0939 11.5053Z" fill="#333333"/>
</svg>
