<svg width="24" height="24" viewBox="0 0 24 24" fill="none" xmlns="http://www.w3.org/2000/svg">
<path d="M9.40579 3.47582C9.58138 3.57987 9.69489 3.74866 9.73393 3.93377L10.3107 6.18795C10.4065 6.56248 10.1806 6.94379 9.80608 7.03962C9.43155 7.13545 9.05024 6.90952 8.95441 6.53499L8.78924 5.88948L6.20765 10.2462L6.96039 10.0536C7.33492 9.95779 7.71623 10.1837 7.81206 10.5583C7.9079 10.9328 7.68197 11.3141 7.30743 11.4099L5.0243 11.9941C4.64976 12.09 4.26845 11.864 4.17262 11.4895L3.58842 9.20636C3.49259 8.83183 3.71852 8.45052 4.09305 8.35468C4.46759 8.25885 4.84889 8.48478 4.94473 8.85931L5.08268 9.39845L7.58511 5.17529L6.93875 5.34068C6.56421 5.43651 6.18291 5.21058 6.08707 4.83605C5.99124 4.46152 6.21717 4.08021 6.5917 3.98438L8.86211 3.40343C9.0392 3.35441 9.23523 3.37475 9.40579 3.47582Z" fill="#333333"/>
<path fill-rule="evenodd" clip-rule="evenodd" d="M12.6641 4.53027C12.3468 4.53027 11.904 4.63643 11.5332 4.97754C11.1433 5.33606 10.9142 5.87841 10.9142 6.59095C10.9142 6.86214 10.9139 7.34944 10.9135 7.95373C10.9126 9.4811 10.9112 11.7562 10.913 13.1776C10.5063 12.9384 10.0549 12.6681 9.70729 12.4346C9.49191 12.29 9.1262 12.0453 8.68986 11.9577C8.1915 11.8577 7.66219 11.9702 7.18167 12.3996C6.81193 12.7301 6.70949 13.1622 6.72165 13.5117C6.73322 13.8444 6.84677 14.1589 6.9962 14.3812C7.4733 15.0909 8.69001 16.5049 9.84356 17.7209C10.4254 18.3342 11.0086 18.9156 11.4936 19.348C11.7346 19.5628 11.9645 19.7527 12.1659 19.8931C12.266 19.9629 12.3734 20.0306 12.4818 20.0835C12.5725 20.1277 12.7424 20.2018 12.9452 20.2018H17.7116C18.0482 20.2018 18.3184 20.0435 18.5006 19.8985C18.6896 19.7479 18.8562 19.5544 19.0001 19.3572C19.2893 18.9609 19.5605 18.4472 19.7938 17.9324C20.2551 16.914 20.6391 15.7286 20.7248 15.1344C20.8493 14.2701 20.8571 13.777 20.87 12.9609L20.8726 12.8019C20.8731 12.7911 20.8734 12.7823 20.8735 12.7785C20.8739 12.7677 20.8742 12.7554 20.8745 12.7428C20.8748 12.7308 20.875 12.7187 20.8752 12.7075L20.876 12.6426C20.8761 12.6379 20.8762 12.6228 20.8759 12.6095L20.8754 12.5926C20.8753 12.5905 20.8752 12.5877 20.875 12.5841C20.8748 12.5809 20.8746 12.5772 20.8743 12.573C20.8739 12.5685 20.8729 12.5547 20.8706 12.5363L20.8706 12.5056C20.8706 11.9623 20.6747 11.4753 20.3751 11.1175C20.0852 10.7714 19.6449 10.4899 19.1345 10.4899C18.9885 10.4899 18.8384 10.5069 18.6903 10.5438C18.6045 10.1939 18.3959 9.91172 18.1508 9.71483C17.8366 9.46242 17.4327 9.32153 17.0352 9.32153C16.8485 9.32153 16.6652 9.35449 16.493 9.41258C16.2495 8.77227 15.5934 8.34946 14.9081 8.34946C14.7377 8.34946 14.5713 8.37434 14.4136 8.41974L14.4135 6.20226C14.4135 5.56994 14.1019 5.12177 13.7164 4.85788C13.3635 4.61637 12.9578 4.53027 12.6641 4.53027ZM19.4718 12.768C19.4719 12.772 19.4721 12.7811 19.4725 12.7926L19.4704 12.9248C19.4575 13.7399 19.4509 14.1588 19.3391 14.9347C19.2804 15.3415 18.9556 16.3897 18.5185 17.3547C18.3025 17.8315 18.0771 18.2469 17.8692 18.5319C17.7658 18.6736 17.6843 18.7583 17.6304 18.8018H13.0536C13.0317 18.7885 13.0028 18.7699 12.9665 18.7446C12.8312 18.6503 12.6487 18.5021 12.4252 18.303C11.9815 17.9074 11.4285 17.3574 10.8592 16.7573C9.7104 15.5463 8.56446 14.2045 8.15792 13.5998C8.15646 13.5973 8.14711 13.5808 8.1376 13.5518C8.12727 13.5203 8.1217 13.4889 8.1208 13.4631C8.12039 13.4511 8.12103 13.4426 8.12175 13.4372C8.20663 13.3629 8.26531 13.3395 8.29664 13.331C8.32835 13.3224 8.36388 13.3202 8.41431 13.3303C8.5425 13.3561 8.69499 13.4412 8.92672 13.5968C9.33853 13.8734 9.8637 14.1851 10.2878 14.434L10.4801 14.5467C10.616 14.6263 10.7364 14.6967 10.8361 14.7561C10.9081 14.799 10.9639 14.833 11.0038 14.8582C11.0172 14.8667 11.0266 14.8728 11.0328 14.8769L11.0505 14.8929L11.0521 14.8943C11.0651 14.906 11.1046 14.9416 11.1529 14.975L11.1552 14.9766C11.1882 14.9996 11.3492 15.1117 11.5817 15.1098C11.924 15.1071 12.1267 14.8824 12.2089 14.7309C12.2739 14.6112 12.2916 14.498 12.2974 14.459C12.3056 14.4047 12.3091 14.3519 12.311 14.3096C12.315 14.2245 12.3153 14.1148 12.3148 13.9883C12.3105 12.8225 12.3124 9.83337 12.3135 7.95981V7.95861C12.3139 7.35283 12.3142 6.8638 12.3142 6.59095C12.3142 6.18924 12.4339 6.05125 12.4809 6.00799C12.5468 5.94733 12.6291 5.93027 12.6641 5.93027C12.6838 5.93027 12.7291 5.93421 12.7855 5.95023C12.8408 5.96593 12.8892 5.98827 12.9256 6.01319C12.9603 6.0369 12.9784 6.05882 12.9887 6.07722C12.9976 6.09294 13.0135 6.12823 13.0135 6.20226L13.0136 11.7643C13.0136 12.0088 13.1264 12.228 13.3065 12.3698C13.467 12.4961 13.6469 12.537 13.7899 12.5383C13.9324 12.5397 14.1076 12.5027 14.2662 12.387C14.4437 12.2576 14.5797 12.039 14.5797 11.7707L14.58 9.92275C14.5832 9.91436 14.5964 9.8867 14.6428 9.84795C14.7151 9.78751 14.8154 9.74946 14.9081 9.74946C14.9939 9.74946 15.0719 9.78313 15.1259 9.83291C15.1795 9.8823 15.1925 9.92969 15.1925 9.95913L15.1923 12.1907C15.1923 12.5733 15.4573 12.9209 15.8569 12.9851C16.0444 13.0153 16.2743 12.979 16.4658 12.8208C16.6677 12.654 16.7437 12.4216 16.7437 12.2231L16.7439 10.8773C16.7499 10.8668 16.7655 10.8449 16.8022 10.815C16.8373 10.7865 16.8804 10.7615 16.926 10.7443C16.9718 10.7271 17.0098 10.7215 17.0352 10.7215C17.1145 10.7215 17.209 10.754 17.274 10.8063C17.3311 10.8521 17.3321 10.8819 17.3321 10.8935L17.3318 12.8582C17.3318 13.3168 17.6953 13.6216 18.0677 13.6446C18.2576 13.6564 18.4775 13.5982 18.6512 13.4309C18.8296 13.2589 18.8902 13.0395 18.8902 12.8583C18.8902 12.7839 18.8857 12.5939 18.8817 12.4357L18.876 12.2184L18.8737 12.1355C18.8746 12.0633 18.8876 12.0203 18.8974 11.9974C18.9073 11.9743 18.919 11.9598 18.9317 11.9485C18.9594 11.9241 19.0248 11.8907 19.1348 11.8907C19.1473 11.8942 19.2154 11.9133 19.3018 12.0164C19.3963 12.1292 19.4706 12.3001 19.4706 12.5056C19.4706 12.5998 19.4708 12.666 19.4712 12.7109C19.4713 12.7331 19.4715 12.7518 19.4718 12.7667L19.4718 12.768Z" fill="#333333"/>
</svg>
