<svg width="24" height="24" viewBox="0 0 24 24" fill="none" xmlns="http://www.w3.org/2000/svg">
<path d="M9.45186 4.51914C9.45186 4.02208 9.04891 3.61914 8.55186 3.61914C8.0548 3.61914 7.65186 4.02208 7.65186 4.51914V4.91406H6.69355C5.14716 4.91406 3.89355 6.16767 3.89355 7.71406V16.2982C3.89355 17.8446 5.14716 19.0982 6.69355 19.0982H10.3039C10.6905 19.0982 11.0039 18.7848 11.0039 18.3982C11.0039 18.0116 10.6905 17.6982 10.3039 17.6982H6.69355C5.92036 17.6982 5.29355 17.0714 5.29355 16.2982V7.71406C5.29355 6.94086 5.92036 6.31406 6.69355 6.31406H7.65186V6.94883C7.65186 7.44588 8.0548 7.84883 8.55186 7.84883C9.04891 7.84883 9.45186 7.44588 9.45186 6.94883V6.31406H14.5317V6.94883C14.5317 7.44588 14.9347 7.84883 15.4317 7.84883C15.9288 7.84883 16.3317 7.44588 16.3317 6.94883V6.31406H17.31C18.0832 6.31406 18.71 6.94086 18.71 7.71406V9.11612C18.71 9.50272 19.0234 9.81612 19.41 9.81612C19.7966 9.81612 20.11 9.50272 20.11 9.11612V7.71406C20.11 6.16767 18.8564 4.91406 17.31 4.91406H16.3317V4.51914C16.3317 4.02208 15.9288 3.61914 15.4317 3.61914C14.9347 3.61914 14.5317 4.02208 14.5317 4.51914V4.91406H9.45186V4.51914Z" fill="#333333"/>
<path fill-rule="evenodd" clip-rule="evenodd" d="M7.17383 10.1213C7.17383 9.67946 7.532 9.32129 7.97383 9.32129H8.78193C9.22376 9.32129 9.58193 9.67946 9.58193 10.1213V10.9674C9.58193 11.4092 9.22376 11.7674 8.78193 11.7674H7.97383C7.532 11.7674 7.17383 11.4092 7.17383 10.9674V10.1213ZM8.37788 10.5649C8.38519 10.5582 8.39233 10.5514 8.3993 10.5443C8.39233 10.5373 8.38519 10.5305 8.37788 10.5238C8.37057 10.5305 8.36343 10.5373 8.35646 10.5443C8.36343 10.5514 8.37057 10.5582 8.37788 10.5649Z" fill="#333333"/>
<path d="M16.6783 13.0242C16.6783 12.6376 16.3649 12.3242 15.9783 12.3242C15.5917 12.3242 15.2783 12.6376 15.2783 13.0242V15.0242C15.2783 15.2099 15.3521 15.3879 15.4833 15.5192C15.6146 15.6505 15.7927 15.7242 15.9783 15.7242L17.9783 15.7242C18.3649 15.7242 18.6783 15.4108 18.6783 15.0242C18.6783 14.6376 18.3649 14.3242 17.9783 14.3242L16.6783 14.3242V13.0242Z" fill="#333333"/>
<path fill-rule="evenodd" clip-rule="evenodd" d="M11.3779 14.825C11.3779 12.2293 13.4822 10.125 16.0779 10.125C18.6737 10.125 20.7779 12.2293 20.7779 14.825C20.7779 17.4207 18.6737 19.525 16.0779 19.525C13.4822 19.525 11.3779 17.4207 11.3779 14.825ZM16.0779 11.525C14.2554 11.525 12.7779 13.0025 12.7779 14.825C12.7779 16.6475 14.2554 18.125 16.0779 18.125C17.9005 18.125 19.3779 16.6475 19.3779 14.825C19.3779 13.0025 17.9005 11.525 16.0779 11.525Z" fill="#333333"/>
</svg>
