<svg width="24" height="24" viewBox="0 0 24 24" fill="none" xmlns="http://www.w3.org/2000/svg">
<path d="M11.4004 15.9994C11.4004 16.3308 11.669 16.5994 12.0004 16.5994C12.3318 16.5994 12.6004 16.3308 12.6004 15.9994V12.6002H16.0004C16.3318 12.6002 16.6004 12.3316 16.6004 12.0002C16.6004 11.6688 16.3318 11.4002 16.0004 11.4002H12.6004V7.99941C12.6004 7.66804 12.3318 7.39941 12.0004 7.39941C11.669 7.39941 11.4004 7.66804 11.4004 7.99941L11.4004 11.4002H8.00039C7.66902 11.4002 7.40039 11.6688 7.40039 12.0002C7.40039 12.3316 7.66902 12.6002 8.00039 12.6002H11.4004L11.4004 15.9994Z" fill="black"/>
</svg>
