<svg width="24" height="24" viewBox="0 0 24 24" fill="none" xmlns="http://www.w3.org/2000/svg">
<path d="M11.3496 17.0006C11.3496 17.3596 11.6406 17.6506 11.9996 17.6506C12.3586 17.6506 12.6496 17.3596 12.6496 17.0006V12.6498H16.9996C17.3586 12.6498 17.6496 12.3588 17.6496 11.9998C17.6496 11.6408 17.3586 11.3498 16.9996 11.3498H12.6496V7.00059C12.6496 6.6416 12.3586 6.35059 11.9996 6.35059C11.6406 6.35059 11.3496 6.6416 11.3496 7.00059V11.3498H6.99961C6.64062 11.3498 6.34961 11.6408 6.34961 11.9998C6.34961 12.3588 6.64062 12.6498 6.99961 12.6498H11.3496V17.0006Z" fill="#333333"/>
</svg>
