<svg width="24" height="24" viewBox="0 0 24 24" fill="none" xmlns="http://www.w3.org/2000/svg">
<path fill-rule="evenodd" clip-rule="evenodd" d="M5.98926 6.60234C5.98926 6.21574 6.30266 5.90234 6.68926 5.90234H18.6846C19.0712 5.90234 19.3846 6.21574 19.3846 6.60234C19.3846 6.98894 19.0712 7.30234 18.6846 7.30234H6.68926C6.30266 7.30234 5.98926 6.98894 5.98926 6.60234ZM5.99316 17.5076C5.99316 17.121 6.30656 16.8076 6.69316 16.8076H18.6885C19.0751 16.8076 19.3885 17.121 19.3885 17.5076C19.3885 17.8942 19.0751 18.2076 18.6885 18.2076L6.69316 18.2076C6.30656 18.2076 5.99316 17.8942 5.99316 17.5076ZM7.29229 12.7555H16.5153C16.9019 12.7555 17.2153 12.4421 17.2153 12.0555C17.2153 11.6689 16.9019 11.3555 16.5153 11.3555H7.29193L8.82352 9.82388C9.09689 9.55051 9.09689 9.1073 8.82352 8.83393C8.55015 8.56056 8.10694 8.56056 7.83357 8.83393L5.10737 11.5601C4.97064 11.6969 4.9023 11.8761 4.90234 12.0553C4.9023 12.2345 4.97064 12.4137 5.10737 12.5504L7.83357 15.2766C8.10694 15.55 8.55015 15.55 8.82352 15.2766C9.09689 15.0033 9.09689 14.5601 8.82352 14.2867L7.29229 12.7555Z" fill="#333333"/>
</svg>
