<svg width="24" height="24" viewBox="0 0 24 24" fill="none" xmlns="http://www.w3.org/2000/svg">
<path fill-rule="evenodd" clip-rule="evenodd" d="M18.2967 6.60039C18.2967 6.21379 17.9833 5.90039 17.5967 5.90039H5.60137C5.21477 5.90039 4.90137 6.21379 4.90137 6.60039C4.90137 6.98699 5.21477 7.30039 5.60137 7.30039H17.5967C17.9833 7.30039 18.2967 6.98699 18.2967 6.60039ZM18.2967 17.5057C18.2967 17.1191 17.9833 16.8057 17.5967 16.8057H5.60137C5.21477 16.8057 4.90137 17.1191 4.90137 17.5057C4.90137 17.8923 5.21477 18.2057 5.60137 18.2057L17.5967 18.2057C17.9833 18.2057 18.2967 17.8923 18.2967 17.5057ZM16.9975 12.7535H7.78233C7.39573 12.7535 7.08233 12.4401 7.08233 12.0535C7.08233 11.6669 7.39573 11.3535 7.78233 11.3535H16.9979L15.4663 9.82193C15.1929 9.54856 15.1929 9.10535 15.4663 8.83198C15.7397 8.55861 16.1829 8.55861 16.4563 8.83198L19.1825 11.5582C19.3192 11.6949 19.3875 11.8741 19.3875 12.0533C19.3875 12.2325 19.3192 12.4118 19.1825 12.5485L16.4563 15.2747C16.1829 15.5481 15.7397 15.5481 15.4663 15.2747C15.1929 15.0013 15.1929 14.5581 15.4663 14.2847L16.9975 12.7535Z" fill="#333333"/>
</svg>
