<svg width="24" height="24" viewBox="0 0 24 24" fill="none" xmlns="http://www.w3.org/2000/svg">
<path fill-rule="evenodd" clip-rule="evenodd" d="M6.15527 5.48242C5.0507 5.48242 4.15527 6.37785 4.15527 7.48242V8.72813C4.15527 9.22443 4.33605 9.67852 4.63536 10.0281C4.33605 10.3777 4.15527 10.8318 4.15527 11.3281V12.5738C4.15527 13.1075 4.3643 13.5923 4.70494 13.951C4.3643 14.3096 4.15527 14.7945 4.15527 15.3281V16.5738C4.15527 17.6784 5.0507 18.5738 6.15527 18.5738H17.9957C19.1003 18.5738 19.9957 17.6784 19.9957 16.5738V15.3281C19.9957 14.2236 19.1003 13.3281 17.9957 13.3281H13.0814C13.1762 13.0954 13.2285 12.8407 13.2285 12.5738V11.3281C13.2285 11.1191 13.1964 10.9175 13.1369 10.7281H16.282C17.3866 10.7281 18.282 9.8327 18.282 8.72813V7.48242C18.282 6.37785 17.3866 5.48242 16.282 5.48242H6.15527ZM11.2285 10.7281L6.15528 10.7281C5.8239 10.7281 5.55527 10.9968 5.55527 11.3281V12.5738C5.55527 12.9052 5.8239 13.1738 6.15527 13.1738H11.2285C11.5599 13.1738 11.8285 12.9052 11.8285 12.5738V11.3281C11.8285 10.9968 11.5599 10.7281 11.2285 10.7281ZM16.282 9.32812C16.6134 9.32812 16.882 9.0595 16.882 8.72813V7.48242C16.882 7.15105 16.6134 6.88242 16.282 6.88242H6.15527C5.8239 6.88242 5.55527 7.15105 5.55527 7.48242V8.72813C5.55527 9.05949 5.8239 9.32812 6.15528 9.32812H16.282ZM6.15527 14.7281C5.8239 14.7281 5.55527 14.9968 5.55527 15.3281V16.5738C5.55527 16.9052 5.8239 17.1738 6.15527 17.1738H17.9957C18.3271 17.1738 18.5957 16.9052 18.5957 16.5738V15.3281C18.5957 14.9968 18.3271 14.7281 17.9957 14.7281H6.15527Z" fill="#333333"/>
</svg>
