<svg width="24" height="24" viewBox="0 0 24 24" fill="none" xmlns="http://www.w3.org/2000/svg">
<path d="M12.6998 4.69707C12.6998 4.31047 12.3864 3.99707 11.9998 3.99707C11.6132 3.99707 11.2998 4.31047 11.2998 4.69707L11.2998 11.4887C11.2998 11.8753 11.6132 12.1887 11.9998 12.1887C12.3864 12.1887 12.6998 11.8753 12.6998 11.4887L12.6998 4.69707Z" fill="#333333"/>
<path d="M16.9314 5.69655C16.6269 5.45834 16.187 5.51207 15.9488 5.81657C15.7105 6.12106 15.7643 6.561 16.0688 6.79921C17.1469 7.64266 17.9362 8.80036 18.3275 10.1121C18.7188 11.4239 18.6927 12.8248 18.2529 14.1211C17.813 15.4173 16.9811 16.5448 15.8723 17.3475C14.7635 18.1503 13.4326 18.5885 12.0638 18.6016C10.695 18.6148 9.356 18.2021 8.23202 17.4208C7.10803 16.6395 6.25468 15.5281 5.79004 14.2405C5.3254 12.953 5.27245 11.5528 5.63852 10.2338C6.00459 8.91476 6.77157 7.74214 7.83334 6.87818C8.13321 6.63417 8.1785 6.19328 7.93449 5.89341C7.69049 5.59354 7.24959 5.54825 6.94972 5.79226C5.66282 6.83942 4.7332 8.26068 4.28951 9.85937C3.84582 11.4581 3.90999 13.1551 4.47316 14.7158C5.03632 16.2764 6.07062 17.6234 7.43293 18.5703C8.79525 19.5173 10.4182 20.0175 12.0773 20.0016C13.7363 19.9857 15.3494 19.4545 16.6933 18.4816C18.0372 17.5086 19.0455 16.142 19.5786 14.5709C20.1118 12.9998 20.1434 11.3018 19.6691 9.71191C19.1949 8.12202 18.2382 6.71884 16.9314 5.69655Z" fill="#333333"/>
</svg>
