<svg width="24" height="24" viewBox="0 0 24 24" fill="none" xmlns="http://www.w3.org/2000/svg">
<path d="M14.2996 10.1553C13.913 10.1553 13.5996 10.4687 13.5996 10.8553C13.5996 11.2419 13.913 11.5553 14.2996 11.5553H16.5003C16.8869 11.5553 17.2003 11.2419 17.2003 10.8553C17.2003 10.4687 16.8869 10.1553 16.5003 10.1553L14.2996 10.1553Z" fill="#333333"/>
<path fill-rule="evenodd" clip-rule="evenodd" d="M6.7998 6.00137V7.55957H6.60137C5.1102 7.55957 3.90137 8.7684 3.90137 10.2596V14.4937C3.90137 15.9849 5.1102 17.1937 6.60137 17.1937H6.7998V18.0002C6.7998 19.16 7.74001 20.1002 8.8998 20.1002H15.0998C16.2596 20.1002 17.1998 19.16 17.1998 18.0002V17.1937H17.3997C18.8909 17.1937 20.0997 15.9849 20.0997 14.4937V10.2596C20.0997 8.7684 18.8909 7.55957 17.3997 7.55957H17.1998V6.00137C17.1998 4.84157 16.2596 3.90137 15.0998 3.90137H8.8998C7.74001 3.90137 6.7998 4.84157 6.7998 6.00137ZM8.8998 5.30137C8.51321 5.30137 8.1998 5.61477 8.1998 6.00137V7.55957H15.7998V6.00137C15.7998 5.61477 15.4864 5.30137 15.0998 5.30137H8.8998ZM5.30137 10.2596C5.30137 9.5416 5.8834 8.95957 6.60137 8.95957H17.3997C18.1177 8.95957 18.6997 9.5416 18.6997 10.2596V14.4937C18.6997 15.2117 18.1177 15.7937 17.3997 15.7937H17.1998V14.8002C17.1998 13.6404 16.2596 12.7002 15.0998 12.7002H8.8998C7.74001 12.7002 6.7998 13.6404 6.7998 14.8002V15.7937H6.60137C5.8834 15.7937 5.30137 15.2117 5.30137 14.4937V10.2596ZM8.1998 14.8002C8.1998 14.4136 8.51321 14.1002 8.8998 14.1002H15.0998C15.4864 14.1002 15.7998 14.4136 15.7998 14.8002V18.0002C15.7998 18.3868 15.4864 18.7002 15.0998 18.7002H8.8998C8.51321 18.7002 8.1998 18.3868 8.1998 18.0002V14.8002Z" fill="#333333"/>
</svg>
