<svg width="24" height="24" viewBox="0 0 24 24" fill="none" xmlns="http://www.w3.org/2000/svg">
<path d="M8.64893 4.90625C8.96773 4.97166 9.2085 5.25364 9.2085 5.5918C9.2085 5.92995 8.96773 6.21194 8.64893 6.27734L8.5083 6.29199H7.40088C6.25737 6.292 5.33057 7.2188 5.33057 8.3623V14.8271C5.33071 15.9705 6.25746 16.8975 7.40088 16.8975H9.09814V19.6836C9.09831 19.8838 9.34193 19.9831 9.48193 19.8398L12.3579 16.8975H17.4048C17.6368 16.8974 17.8654 16.8366 18.0669 16.7217L18.1772 16.6514C18.4257 16.4753 18.6077 16.2185 18.6909 15.9229L18.7329 15.7754C18.8377 15.4034 19.2241 15.1864 19.5962 15.291C19.9679 15.3959 20.1849 15.7824 20.0806 16.1543L20.0386 16.3018C19.8683 16.9073 19.4956 17.4334 18.9868 17.7939L18.7603 17.9385C18.3475 18.1738 17.8799 18.2978 17.4048 18.2979H12.9478L10.4829 20.8184C9.46563 21.8589 7.69889 21.1387 7.69873 19.6836V18.2979H7.40088C5.48426 18.2978 3.93032 16.7437 3.93018 14.8271V8.3623C3.93018 6.4456 5.48417 4.89161 7.40088 4.8916H8.5083L8.64893 4.90625Z" fill="#1BCE7B"/>
<path d="M15.1577 8.80957C15.6851 8.86317 16.0962 9.30812 16.0962 9.84961C16.0962 9.93979 16.0835 10.0269 16.062 10.1104C16.0583 10.1248 16.0546 10.1391 16.0503 10.1533C16.0349 10.204 16.0153 10.2527 15.9927 10.2998C15.9872 10.3113 15.982 10.3228 15.9761 10.334C15.9519 10.3801 15.9246 10.4241 15.894 10.4658C15.8854 10.4777 15.8768 10.4895 15.8677 10.501C15.8597 10.5109 15.8516 10.5206 15.8433 10.5303C15.83 10.5457 15.8163 10.5606 15.8022 10.5752C15.793 10.5848 15.7836 10.5943 15.7739 10.6035C15.7634 10.6136 15.7526 10.6232 15.7417 10.6328C15.7475 10.6692 15.7534 10.7061 15.7534 10.7441V11.7031C15.7533 12.0896 15.4398 12.4033 15.0532 12.4033C14.6667 12.4033 14.3531 12.0896 14.353 11.7031V10.7441C14.353 10.7075 14.3574 10.6718 14.3628 10.6367C14.3494 10.625 14.3365 10.6129 14.3237 10.6006C14.3135 10.5907 14.3033 10.5807 14.2935 10.5703C14.2818 10.5581 14.2713 10.545 14.2603 10.5322C14.2504 10.5209 14.2403 10.5098 14.231 10.498C14.2206 10.4849 14.2105 10.4716 14.2007 10.458C14.1908 10.4443 14.1815 10.4302 14.1724 10.416C14.1628 10.4013 14.1538 10.3863 14.145 10.3711C14.1377 10.3585 14.1303 10.346 14.1235 10.333C14.1164 10.3193 14.1106 10.305 14.104 10.291C14.0959 10.2736 14.0878 10.2562 14.0806 10.2383C14.0737 10.2213 14.0679 10.2039 14.062 10.1865C14.0582 10.1754 14.0537 10.1646 14.0503 10.1533C14.0453 10.1369 14.0408 10.1203 14.0366 10.1035C14.0246 10.0555 14.0153 10.0064 14.0103 9.95605C14.0067 9.92105 14.0054 9.88555 14.0054 9.84961C14.0054 9.27216 14.4729 8.80396 15.0503 8.80371L15.1577 8.80957Z" fill="#1BCE7B"/>
<path fill-rule="evenodd" clip-rule="evenodd" d="M15.0532 3.01367C16.7003 3.01393 18.045 4.30272 18.1372 5.92676C19.2775 6.04726 20.1665 7.01238 20.1665 8.18457V12.3701C20.1665 13.6238 19.1497 14.6406 17.896 14.6406H12.2104C10.9568 14.6406 9.93994 13.6238 9.93994 12.3701V8.18457C9.93994 7.01304 10.8279 6.04814 11.9673 5.92676C12.0595 4.30262 13.406 3.01382 15.0532 3.01367ZM12.2104 7.31445C11.73 7.31445 11.3403 7.7041 11.3403 8.18457V12.3701C11.3403 12.8506 11.73 13.2402 12.2104 13.2402H17.896C18.3765 13.2402 18.7661 12.8506 18.7661 12.3701V8.18457C18.7661 7.7041 18.3765 7.31445 17.896 7.31445H12.2104ZM15.0532 4.41406C14.184 4.41421 13.4683 5.07013 13.3735 5.91406H16.7329C16.6381 5.0702 15.9224 4.41431 15.0532 4.41406Z" fill="#1BCE7B"/>
</svg>
