<svg width="24" height="24" viewBox="0 0 24 24" fill="none" xmlns="http://www.w3.org/2000/svg">
<path d="M5.75781 15.1455H7.67773C8.06423 15.1455 8.37777 15.4593 8.37793 15.8457C8.37793 16.2323 8.06433 16.5459 7.67773 16.5459H7.13184C7.27211 16.6978 7.41781 16.8465 7.57227 16.9873L7.78906 17.1778C8.80372 18.0317 9.90616 18.5302 11.1172 18.6729C12.3342 18.8162 13.7079 18.6046 15.2637 17.9678C15.6212 17.8219 16.0293 17.9933 16.1758 18.3506C16.3222 18.7082 16.1513 19.117 15.7939 19.2637C14.0724 19.9684 12.4575 20.2397 10.9531 20.0625C9.44341 19.8846 8.08989 19.2599 6.8877 18.2481L6.62891 18.0225C6.43511 17.8458 6.25325 17.6581 6.07812 17.4668V18.1494L6.06348 18.2901C5.99824 18.609 5.71618 18.8486 5.37793 18.8487C5.03964 18.8487 4.75764 18.6091 4.69238 18.2901L4.67773 18.1494V15.8457C4.6779 15.4593 4.99143 15.1455 5.37793 15.1455H5.66309C5.6948 15.1433 5.72627 15.1435 5.75781 15.1455Z" fill="#15C674"/>
<path d="M14.9512 5.27053C15.1329 4.92949 15.5563 4.79906 15.8975 4.98049L16.1797 5.14065C17.5744 5.97066 18.6776 7.2883 19.3584 8.7549C20.0838 10.3179 20.3573 12.1111 19.9404 13.7412L19.8496 14.0723C19.7608 14.3699 19.6536 14.6597 19.5352 14.9424L20.0625 14.7403L20.1992 14.7022C20.5202 14.6487 20.8463 14.827 20.9678 15.1426C21.0888 15.458 20.9662 15.808 20.6924 15.9834L20.5654 16.0469L18.415 16.874C18.0544 17.0128 17.6497 16.8332 17.5107 16.4727L16.6846 14.3252C16.5459 13.9645 16.7254 13.5598 17.0859 13.4209C17.4466 13.2821 17.8522 13.4617 17.9912 13.8223L18.2285 14.4404C18.3346 14.1913 18.4293 13.935 18.5078 13.6719L18.585 13.3946C18.9062 12.1384 18.7077 10.6781 18.0889 9.34475C17.4707 8.01289 16.459 6.86712 15.2383 6.21682L15.1221 6.13772C14.871 5.9302 14.7921 5.56918 14.9512 5.27053Z" fill="#15C674"/>
<path fill-rule="evenodd" clip-rule="evenodd" d="M13.4697 8.83108C14.4083 8.83134 15.1698 9.59269 15.1699 10.5313V13.4697C15.1699 14.4085 14.4084 15.1697 13.4697 15.1699H10.5312C9.59237 15.1699 8.83105 14.4086 8.83105 13.4697V10.5313C8.83122 9.59253 9.59247 8.83108 10.5312 8.83108H13.4697ZM10.5312 10.2315C10.3657 10.2315 10.2316 10.3657 10.2314 10.5313V13.4697C10.2314 13.6354 10.3656 13.7696 10.5312 13.7696H13.4697C13.6352 13.7693 13.7695 13.6353 13.7695 13.4697V10.5313C13.7694 10.3659 13.6351 10.2317 13.4697 10.2315H10.5312Z" fill="#15C674"/>
<path d="M9.99902 2.78518C10.2165 2.52605 10.5819 2.46414 10.8682 2.61916L10.9854 2.69826L12.751 4.17971C13.0258 4.41029 13.0751 4.80502 12.8828 5.09768C12.8331 5.2113 12.7544 5.30747 12.6562 5.3799L11.3584 6.92873C11.1099 7.22488 10.6682 7.26317 10.3721 7.01467C10.076 6.76616 10.0367 6.32447 10.2852 6.02834L10.6162 5.63283C10.494 5.65533 10.3717 5.68004 10.25 5.709L9.97168 5.78127C9.08811 6.02882 8.29371 6.47733 7.62207 7.07131C6.4776 8.11493 5.76224 9.61267 5.4668 11.333L5.38867 11.8779C5.38138 11.9396 5.36362 11.9976 5.3418 12.0528C5.33966 12.1242 5.3379 12.1958 5.33789 12.2676C5.33789 12.6541 5.0242 12.9677 4.6377 12.9678C4.2511 12.9678 3.9375 12.6542 3.9375 12.2676C3.93768 9.88833 4.93356 7.62355 6.6123 6.09475C7.41229 5.34528 8.39984 4.76686 9.58887 4.43361L9.92188 4.3467C10.1513 4.29212 10.3825 4.25029 10.6133 4.21486L10.085 3.7715L9.9873 3.66994C9.78491 3.41502 9.78186 3.04433 9.99902 2.78518Z" fill="#15C674"/>
</svg>
