<svg width="24" height="24" viewBox="0 0 24 24" fill="none" xmlns="http://www.w3.org/2000/svg">
<path d="M10.8499 6.03073C10.7564 6.12421 10.7564 6.27578 10.8499 6.36927L12.811 8.33041C12.9618 8.48122 13.2197 8.37441 13.2197 8.16114L13.2197 6.9H16.4998C16.8312 6.9 17.0998 7.16863 17.0998 7.5V8.68352C17.0998 9.07012 17.4132 9.38352 17.7998 9.38352C18.1864 9.38352 18.4998 9.07012 18.4998 8.68352V7.5C18.4998 6.39543 17.6044 5.5 16.4998 5.5H13.2197L13.2197 4.23889C13.2197 4.02562 12.9619 3.91881 12.8111 4.06962L10.8499 6.03073Z" fill="#333333"/>
<path d="M7.5 5.5C6.39543 5.5 5.5 6.39543 5.5 7.5V10.7803L4.23889 10.7803C4.02562 10.7803 3.91881 11.0381 4.06962 11.1889L6.03073 13.1501C6.12421 13.2436 6.27578 13.2436 6.36927 13.1501L8.33041 11.189C8.48122 11.0382 8.37441 10.7803 8.16114 10.7803L6.9 10.7803V7.5C6.9 7.16863 7.16863 6.9 7.5 6.9H8.68389C9.07049 6.9 9.38389 6.5866 9.38389 6.2C9.38389 5.8134 9.07049 5.5 8.68389 5.5H7.5Z" fill="#333333"/>
<path d="M17.0998 13.2197L15.8385 13.2197C15.6252 13.2197 15.5184 12.9619 15.6692 12.8111L17.6303 10.8499C17.7238 10.7564 17.8754 10.7564 17.9689 10.8499L19.93 12.811C20.0808 12.9618 19.974 13.2197 19.7608 13.2197L18.4998 13.2197V16.4998C18.4998 17.6044 17.6044 18.4998 16.4998 18.4998H15.3182C14.9316 18.4998 14.6182 18.1864 14.6182 17.7998C14.6182 17.4132 14.9316 17.0998 15.3182 17.0998H16.4998C16.8312 17.0998 17.0998 16.8312 17.0998 16.4998V13.2197Z" fill="#333333"/>
<path d="M13.1491 17.6303C13.2426 17.7238 13.2426 17.8754 13.1491 17.9689L11.188 19.93C11.0372 20.0808 10.7793 19.974 10.7793 19.7608L10.7793 18.4998H7.5C6.39543 18.4998 5.5 17.6044 5.5 16.4998V15.3201C5.5 14.9335 5.8134 14.6201 6.2 14.6201C6.5866 14.6201 6.9 14.9335 6.9 15.3201V16.4998C6.9 16.8312 7.16863 17.0998 7.5 17.0998H10.7793L10.7793 15.8385C10.7793 15.6252 11.0371 15.5184 11.188 15.6692L13.1491 17.6303Z" fill="#333333"/>
</svg>
