<svg width="24" height="24" viewBox="0 0 24 24" fill="none" xmlns="http://www.w3.org/2000/svg">
<path d="M5.76562 15.1453H7.78027C8.16687 15.1453 8.48047 15.4589 8.48047 15.8455C8.48036 16.232 8.16681 16.5457 7.78027 16.5457H7.13281C7.27288 16.6974 7.41807 16.8456 7.57227 16.9862L7.78906 17.1766C8.80377 18.0306 9.90607 18.5291 11.1172 18.6717C12.3342 18.815 13.7079 18.6044 15.2637 17.9676C15.6213 17.8216 16.0294 17.9929 16.1758 18.3504C16.322 18.7079 16.1512 19.1158 15.7939 19.2625C14.0724 19.9672 12.4575 20.2395 10.9531 20.0623C9.44328 19.8844 8.08997 19.2588 6.8877 18.2469L6.62891 18.0213C6.4352 17.8447 6.25317 17.6579 6.07812 17.4666V18.2518L6.06348 18.3924C5.99823 18.7114 5.71617 18.9519 5.37793 18.952C5.03966 18.952 4.75766 18.7114 4.69238 18.3924L4.67773 18.2518V15.8455C4.67773 15.4589 4.99133 15.1453 5.37793 15.1453H5.65527C5.69222 15.1423 5.72892 15.1426 5.76562 15.1453Z" fill="#15C674"/>
<path d="M14.9502 5.26936C15.1319 4.92836 15.5554 4.79888 15.8965 4.9803L16.1797 5.14046C17.5744 5.97052 18.6766 7.28808 19.3574 8.75472C20.0828 10.3177 20.3572 12.11 19.9404 13.7401L19.8486 14.0721C19.7598 14.3697 19.6537 14.6595 19.5352 14.9422L20.1523 14.7049L20.2891 14.6678C20.6101 14.6142 20.9352 14.7916 21.0566 15.1073C21.1778 15.4227 21.056 15.7716 20.7822 15.9471L20.6553 16.0116L18.416 16.8739C18.0553 17.0127 17.6497 16.8322 17.5107 16.4715L16.6504 14.2352C16.5115 13.8744 16.691 13.4688 17.0518 13.3299C17.4126 13.1911 17.8182 13.3715 17.957 13.7323L18.2285 14.4383C18.3344 14.1897 18.4285 13.9343 18.5068 13.6717L18.584 13.3934C18.9052 12.1373 18.7066 10.6778 18.0879 9.34456C17.4697 8.01265 16.459 6.86598 15.2383 6.21565L15.1211 6.13753C14.87 5.92999 14.7911 5.56803 14.9502 5.26936Z" fill="#15C674"/>
<path d="M9.92969 2.72444C10.1471 2.4657 10.5127 2.40361 10.7988 2.55843L10.916 2.63948L12.751 4.17854C13.0264 4.40966 13.0757 4.80567 12.8818 5.09847C12.8326 5.21041 12.7557 5.30587 12.6592 5.37776L11.2998 6.99788C11.0513 7.29378 10.6096 7.33209 10.3135 7.08382C10.0174 6.8354 9.97834 6.39364 10.2266 6.09749L10.6152 5.63265C10.4933 5.6551 10.3714 5.67993 10.25 5.70882L9.97168 5.78108C9.11413 6.02135 8.33953 6.44931 7.68066 7.01741C6.50174 8.06303 5.76725 9.58309 5.4668 11.3328L5.38867 11.8778C5.38138 11.9392 5.36351 11.9966 5.3418 12.0516C5.33965 12.1233 5.33789 12.1953 5.33789 12.2674C5.33778 12.6539 5.02413 12.9675 4.6377 12.9676C4.25116 12.9676 3.93761 12.6539 3.9375 12.2674C3.9376 9.88526 4.9358 7.61763 6.61816 6.0887C7.4171 5.3419 8.40277 4.76587 9.58887 4.43343L9.92188 4.34651C10.1519 4.29178 10.3838 4.24918 10.6152 4.2137L10.0156 3.71077L9.91602 3.60921C9.71409 3.35419 9.71242 2.98337 9.92969 2.72444Z" fill="#15C674"/>
</svg>
