<svg width="24" height="24" viewBox="0 0 24 24" fill="none" xmlns="http://www.w3.org/2000/svg">
<path d="M9.00049 16.9785C9.93937 16.9785 10.7007 17.7398 10.7007 18.6787C10.7007 19.6176 9.93937 20.3789 9.00049 20.3789C8.0616 20.3789 7.30029 19.6176 7.30029 18.6787C7.30029 17.7398 8.0616 16.9785 9.00049 16.9785Z" fill="#15C674"/>
<path d="M16.0005 16.9785C16.9394 16.9785 17.7007 17.7398 17.7007 18.6787C17.7007 19.6176 16.9394 20.3789 16.0005 20.3789C15.0616 20.3789 14.3003 19.6176 14.3003 18.6787C14.3003 17.7398 15.0616 16.9785 16.0005 16.9785Z" fill="#15C674"/>
<path d="M5.61768 4.98926C5.89107 5.03678 6.11512 5.24365 6.1792 5.52148L8.17041 14.167L8.17627 14.1953L8.2251 14.375C8.28556 14.5457 8.38067 14.6877 8.49365 14.79C8.64202 14.9243 8.81009 14.9824 8.96729 14.9785H16.3042C16.4584 14.9782 16.6232 14.9177 16.7681 14.7842C16.9148 14.6487 17.0304 14.4457 17.0776 14.2002L17.0933 14.1387L17.2798 13.4922C17.3871 13.121 17.7747 12.9066 18.146 13.0137C18.5174 13.1209 18.7317 13.5094 18.6245 13.8809L18.4399 14.5166C18.334 15.0129 18.0872 15.4716 17.7163 15.8135C17.3304 16.1693 16.8343 16.377 16.3071 16.3779H8.98584C8.45332 16.3869 7.94787 16.1852 7.5542 15.8291C7.16546 15.4774 6.90885 14.998 6.80615 14.4805L4.93994 6.37891H4.00049C3.61389 6.37891 3.30029 6.06531 3.30029 5.67871C3.30029 5.29211 3.61389 4.97852 4.00049 4.97852H5.49756L5.61768 4.98926Z" fill="#15C674"/>
<path fill-rule="evenodd" clip-rule="evenodd" d="M13.5972 3.58398C13.9997 3.58405 14.3311 3.71717 14.6069 3.84766C14.7619 3.92102 15.388 4.27233 15.9575 4.59277C16.5544 4.92864 17.1282 5.25344 17.23 5.30859C17.5423 5.47785 17.8572 5.75589 18.0522 6.08887C18.2399 6.40954 18.3325 6.71881 18.3325 7.19629V9.96582C18.3325 10.3955 18.2413 10.7321 18.0532 11.0566C17.8725 11.3685 17.6427 11.6133 17.2808 11.8135C17.1557 11.8826 16.5744 12.2128 15.9595 12.5557C15.6582 12.7236 15.3539 12.892 15.1079 13.0244C14.9852 13.0904 14.8734 13.1492 14.7827 13.1953C14.7076 13.2335 14.6059 13.2845 14.5249 13.3135C14.4799 13.3296 14.4341 13.3476 14.3774 13.3711C14.3254 13.3927 14.2548 13.423 14.1841 13.4492C14.0364 13.504 13.8373 13.5634 13.5972 13.5635C13.1833 13.5634 12.7764 13.3878 12.5435 13.2803C12.3933 13.2109 11.7866 12.8752 11.23 12.5625C10.6717 12.2488 10.0642 11.9021 9.91357 11.8018C9.68188 11.6473 9.35224 11.4312 9.13721 11.0488C8.94421 10.7053 8.88434 10.3905 8.86377 10.0029C8.84524 9.65364 8.86278 7.45309 8.86279 7.17773C8.86286 6.75127 8.95078 6.43981 9.1333 6.10645C9.34777 5.71489 9.65554 5.49572 9.90674 5.33496C10.0469 5.2453 10.6654 4.90606 11.2339 4.5957C11.8332 4.26849 12.4093 3.95524 12.5278 3.88574C12.8911 3.67283 13.2224 3.58403 13.5972 3.58398ZM10.2612 7.38477C10.2582 8.0227 10.2483 9.66655 10.2622 9.92871C10.2761 10.1904 10.3067 10.2711 10.3579 10.3623C10.3872 10.4143 10.4348 10.4676 10.6899 10.6377C10.7841 10.7003 11.3267 11.0119 11.9155 11.3428C12.201 11.5032 12.4855 11.6616 12.7124 11.7861C12.7795 11.823 12.8419 11.8553 12.897 11.8848V8.96777L10.2612 7.38477ZM14.2974 8.96875V11.8682C14.342 11.8444 14.3915 11.8192 14.4438 11.791C14.6806 11.6636 14.9784 11.5 15.2778 11.333C15.8649 11.0056 16.4847 10.6533 16.603 10.5879C16.7274 10.5191 16.7795 10.4628 16.8423 10.3545C16.8977 10.2588 16.9321 10.1673 16.9321 9.96582V7.38477L14.2974 8.96875ZM13.5972 4.98438C13.4839 4.9844 13.3954 5.00026 13.2358 5.09375C13.0925 5.17774 12.4824 5.50984 11.9048 5.8252C11.6198 5.98079 11.3361 6.13469 11.1079 6.26074L13.5972 7.75586L16.0767 6.26562C15.8434 6.13392 15.5551 5.97236 15.271 5.8125C14.977 5.64707 14.6832 5.48208 14.4478 5.35156C14.33 5.28627 14.2272 5.23038 14.1479 5.1875C14.1085 5.16615 14.0758 5.14813 14.0503 5.13477C14.0379 5.12827 14.0277 5.12304 14.02 5.11914L14.0083 5.11328C13.785 5.00764 13.6828 4.98443 13.5972 4.98438Z" fill="#15C674"/>
</svg>
