<svg width="24" height="24" viewBox="0 0 24 24" fill="none" xmlns="http://www.w3.org/2000/svg">
<path fill-rule="evenodd" clip-rule="evenodd" d="M12 3.90137C11.4481 3.90137 10.965 4.02782 10.412 4.35201C10.2354 4.45551 9.51621 4.84793 8.69194 5.29765L8.16676 5.58426C7.17146 6.12767 6.12923 6.69839 5.90773 6.84015C5.49305 7.10552 5.05242 7.42689 4.7456 7.98716C4.47058 8.48934 4.34171 8.94338 4.34168 9.5924C4.34167 9.70121 4.34024 9.96612 4.33831 10.3198C4.33145 11.5835 4.31843 13.9804 4.34266 14.4372C4.37571 15.0602 4.46773 15.5179 4.74928 16.0191C5.05287 16.5594 5.51955 16.873 5.92787 17.1452C6.1664 17.3043 7.1906 17.8897 8.16512 18.4372C9.13794 18.9838 10.16 19.5483 10.3949 19.6567C10.7978 19.8426 11.4086 20.0982 12 20.0982C12.3289 20.0982 12.6071 20.0167 12.8351 19.932C12.9343 19.8952 13.0333 19.8541 13.1201 19.818L13.1505 19.8054C13.2491 19.7645 13.3377 19.7284 13.4286 19.6959C13.5326 19.6588 13.6789 19.5869 13.8147 19.5179C13.966 19.441 14.1541 19.3416 14.3644 19.2285C14.7855 19.0019 15.308 18.7132 15.8273 18.4236C16.4865 18.056 17.1318 17.692 17.5738 17.4426C17.8362 17.2946 18.0269 17.187 18.1064 17.1431C18.6451 16.8452 18.9769 16.4916 19.2461 16.0272C19.5225 15.5502 19.6584 15.0587 19.6584 14.4001V9.62355C19.6584 8.88429 19.5204 8.44078 19.2445 7.96965C18.9615 7.48631 18.4927 7.0686 18.0231 6.81425C17.9101 6.75305 17.4767 6.50857 16.9171 6.19287C16.5832 6.00452 16.2041 5.79067 15.8216 5.57543C14.8248 5.01456 13.7684 4.42331 13.5236 4.30754C13.0667 4.09142 12.5797 3.90137 12 3.90137ZM11.12 5.55977C11.4694 5.35495 11.7096 5.30137 12 5.30137C12.2626 5.30137 12.5204 5.38175 12.925 5.57311C13.111 5.66109 14.1003 6.21327 15.135 6.79554C15.5001 7.00095 15.8667 7.20778 16.1952 7.39303C16.6931 7.6739 17.1033 7.90532 17.2862 8.00673L12 11.1823L6.69807 7.99733C6.9393 7.85209 7.86065 7.34646 8.83765 6.81305L9.35172 6.53251C10.1742 6.08377 10.9228 5.67536 11.12 5.55977ZM5.79518 9.08813C5.7583 9.23191 5.74169 9.38928 5.74168 9.59247C5.74167 9.72459 5.74004 10.0298 5.73791 10.4262C5.73102 11.7111 5.71898 13.9537 5.7407 14.363C5.76708 14.8603 5.83002 15.0845 5.96983 15.3333C6.0876 15.5429 6.27259 15.6925 6.70445 15.9804C6.88601 16.1014 7.84557 16.6518 8.85092 17.2167C9.85797 17.7826 10.8119 18.3073 10.9815 18.3855C11.0916 18.4363 11.1983 18.4826 11.3003 18.523V12.3951L5.79518 9.08813ZM12.7003 18.4767C12.7791 18.4446 12.8658 18.4103 12.9578 18.3775C12.963 18.3752 12.9806 18.3676 13.0138 18.352C13.0562 18.3321 13.1118 18.3047 13.1805 18.2698C13.3176 18.2001 13.4948 18.1066 13.701 17.9957C14.1128 17.7741 14.628 17.4894 15.1454 17.2009C15.7868 16.8432 16.4407 16.4744 16.89 16.221C17.157 16.0704 17.352 15.9604 17.429 15.9178C17.7301 15.7514 17.8837 15.5859 18.0348 15.3252C18.1787 15.077 18.2584 14.8307 18.2584 14.4001V9.62355C18.2584 9.39001 18.2415 9.22234 18.2092 9.08545L12.7003 12.3948V18.4767Z" fill="#333333"/>
</svg>
