<svg width="24" height="24" viewBox="0 0 24 24" fill="none" xmlns="http://www.w3.org/2000/svg">
<path d="M18.3828 17.0078C18.77 17.0078 19.084 17.3218 19.084 17.709C19.084 18.637 18.3313 19.3896 17.4033 19.3896H6.7041C5.77608 19.3896 5.02344 18.637 5.02344 17.709C5.02344 17.3218 5.33743 17.0078 5.72461 17.0078C6.11179 17.0078 6.42578 17.3218 6.42578 17.709C6.42578 17.8626 6.55044 17.9873 6.7041 17.9873H17.4033L17.46 17.9814C17.5867 17.9554 17.6816 17.8434 17.6816 17.709C17.6816 17.3219 17.9957 17.0079 18.3828 17.0078Z" fill="#15C674"/>
<path d="M12.0537 7.12305C12.3456 7.12305 12.5897 7.31699 12.6719 7.58203C13.2746 7.7284 13.7956 8.09683 14.1152 8.69824L14.1953 8.86426L14.2393 9C14.3075 9.31789 14.146 9.65091 13.8369 9.78711C13.5274 9.92312 13.1715 9.81731 12.9834 9.55176L12.9141 9.42871L12.8525 9.30957C12.6938 9.04878 12.4317 8.91029 12.0449 8.91016C11.7011 8.91019 11.4787 9.00415 11.3652 9.0957C11.2668 9.17519 11.2341 9.25967 11.2422 9.36426L11.2529 9.42773C11.2702 9.48918 11.3095 9.54457 11.3955 9.60449C11.5348 9.70136 11.7869 9.79848 12.1846 9.84863C12.7013 9.91376 13.2183 10.06 13.6211 10.3613C14.0565 10.6872 14.3193 11.1675 14.3193 11.7598C14.3192 12.3171 14.0975 12.8272 13.6465 13.1797C13.3625 13.4015 13.0184 13.5352 12.6426 13.6016C12.5402 13.8266 12.3149 13.9844 12.0518 13.9844C11.7899 13.9842 11.5658 13.8278 11.4629 13.6045C11.078 13.5396 10.7502 13.4102 10.4805 13.2188C10.0827 12.9363 9.86794 12.5654 9.76074 12.2363L10.4268 12.0205L11.0928 11.8037C11.1259 11.905 11.1841 12.0012 11.291 12.0771C11.3995 12.1541 11.6185 12.2529 12.0449 12.2529C12.4601 12.2528 12.6819 12.1568 12.7842 12.0771C12.8642 12.0146 12.9188 11.9279 12.9189 11.7598C12.9189 11.6261 12.8785 11.5545 12.7822 11.4824C12.6532 11.3859 12.4085 11.2876 12.0098 11.2373C11.4922 11.1721 10.9915 11.0284 10.5957 10.7529C10.2283 10.497 9.96336 10.1322 9.87402 9.67383L9.84668 9.47168C9.80079 8.87679 10.0536 8.35619 10.4863 8.00684C10.756 7.78925 11.0834 7.64589 11.4385 7.57129C11.5238 7.31178 11.7659 7.12328 12.0537 7.12305Z" fill="#15C674"/>
<path d="M10.21 11.3545C10.5775 11.2348 10.9731 11.4361 11.0928 11.8037L9.76074 12.2363C9.64148 11.869 9.84273 11.4742 10.21 11.3545Z" fill="#15C674"/>
<path d="M7.55469 9.79688C7.98448 9.79696 8.33301 10.1454 8.33301 10.5752C8.33292 11.0049 7.98443 11.3534 7.55469 11.3535C7.12487 11.3535 6.77646 11.005 6.77637 10.5752C6.77637 10.1453 7.12482 9.79688 7.55469 9.79688Z" fill="#15C674"/>
<path d="M16.5537 9.79688C16.9835 9.79696 17.332 10.1454 17.332 10.5752C17.3319 11.0049 16.9835 11.3534 16.5537 11.3535C16.1239 11.3535 15.7755 11.005 15.7754 10.5752C15.7754 10.1453 16.1238 9.79688 16.5537 9.79688Z" fill="#15C674"/>
<path fill-rule="evenodd" clip-rule="evenodd" d="M17.7891 4.69531C19.0039 4.69556 19.9883 5.68063 19.9883 6.89551V14.2109C19.9883 15.4258 19.0039 16.4109 17.7891 16.4111H6.31836C5.10333 16.4111 4.11816 15.426 4.11816 14.2109V6.89551C4.11816 5.68048 5.10333 4.69531 6.31836 4.69531H17.7891ZM6.31836 6.0957C5.87653 6.0957 5.51856 6.45368 5.51855 6.89551V14.2109C5.51855 14.6528 5.87653 15.0117 6.31836 15.0117H17.7891C18.2307 15.0115 18.5889 14.6526 18.5889 14.2109V6.89551C18.5889 6.45383 18.2307 6.09595 17.7891 6.0957H6.31836Z" fill="#15C674"/>
</svg>
