<svg width="24" height="24" viewBox="0 0 24 24" fill="none" xmlns="http://www.w3.org/2000/svg">
<path d="M8.89355 17.1209C9.82062 17.1209 10.5722 17.8726 10.5723 18.7996C10.5721 19.7266 9.82061 20.4783 8.89355 20.4783C7.96659 20.4782 7.21496 19.7265 7.21484 18.7996C7.21495 17.8726 7.96658 17.121 8.89355 17.1209Z" fill="#15C674"/>
<path d="M15.7441 17.1209C16.6712 17.1209 17.4227 17.8726 17.4229 18.7996C17.4227 19.7266 16.6712 20.4783 15.7441 20.4783C14.8172 20.4782 14.0655 19.7265 14.0654 18.7996C14.0655 17.8726 14.8172 17.121 15.7441 17.1209Z" fill="#15C674"/>
<path d="M5.58496 5.38553C5.85854 5.43295 6.0834 5.63975 6.14746 5.91775L8.0957 14.3787L8.10156 14.407C8.14718 14.6503 8.26228 14.8511 8.40723 14.9822C8.54987 15.1112 8.71147 15.1657 8.86133 15.1619H16.042C16.1856 15.1616 16.3378 15.1054 16.4746 14.9832C16.4769 14.9801 16.4808 14.9766 16.4844 14.9715C16.502 14.9459 16.5267 14.9071 16.5557 14.8543C16.6139 14.7481 16.6785 14.6103 16.7422 14.4588L16.9639 13.9656C16.9949 13.9003 17.0212 13.8456 17.04 13.8074L17.0703 13.7469L17.0713 13.7459L17.1475 13.6258C17.3494 13.3703 17.7097 13.283 18.0117 13.4353C18.3135 13.5877 18.4572 13.9289 18.3721 14.2429L18.3213 14.3758L18.3154 14.3875C18.3112 14.396 18.305 14.4091 18.2969 14.4256C18.2804 14.4591 18.2565 14.5083 18.2285 14.5672L18.0322 15.0017C17.9568 15.1811 17.8719 15.3654 17.7832 15.5271C17.7247 15.6338 17.6442 15.7705 17.543 15.8914L17.4346 16.0056C17.0544 16.3561 16.5647 16.5603 16.0449 16.5613H8.87891C8.35412 16.57 7.85646 16.3708 7.46875 16.0203C7.08575 15.6738 6.83256 15.2015 6.73145 14.6922L4.9082 6.77518H4C3.61347 6.77518 3.29992 6.46148 3.2998 6.07498C3.2998 5.68838 3.6134 5.37479 4 5.37479H5.46484L5.58496 5.38553Z" fill="#15C674"/>
<path d="M11.2793 6.45779C11.8485 6.30529 12.4334 6.64352 12.5859 7.21268C12.7382 7.78169 12.401 8.36681 11.832 8.51932C11.2629 8.67182 10.6779 8.33358 10.5254 7.76443C10.3729 7.19536 10.7103 6.6104 11.2793 6.45779Z" fill="#15C674"/>
<path fill-rule="evenodd" clip-rule="evenodd" d="M14.9316 3.20779C15.9136 3.04888 16.8754 3.6561 17.1387 4.63748L18.5566 9.9285C18.8372 10.9756 18.216 12.052 17.1689 12.3328L11.8779 13.7498C10.8963 14.0126 9.88949 13.4834 9.53613 12.5535L9.47363 12.3621L8.05566 7.07107C7.77559 6.02419 8.39758 4.94849 9.44434 4.66775L14.7344 3.24979L14.9316 3.20779ZM15.0977 4.60232L9.80664 6.02029C9.50671 6.10092 9.32818 6.4087 9.4082 6.70877L10.8262 11.9998L10.8672 12.1062C10.9237 12.2193 11.0156 12.3069 11.125 12.3601L13.1562 8.574L13.2715 8.3826C13.8916 7.46276 15.1177 7.13974 16.1201 7.66775L16.5645 7.90213L15.7871 4.99979C15.7165 4.73716 15.4713 4.56904 15.21 4.58475L15.0977 4.60232ZM15.4668 8.90604C15.1025 8.71451 14.657 8.83261 14.4316 9.16678L14.3896 9.23611L12.8896 12.0301L16.8066 10.9812C17.1069 10.9007 17.2854 10.5911 17.2051 10.2908L17.0586 9.7449L15.4668 8.90604Z" fill="#15C674"/>
</svg>
