<svg width="24" height="24" viewBox="0 0 24 24" fill="none" xmlns="http://www.w3.org/2000/svg">
<path d="M10.3301 11.2676C10.9774 11.2676 11.5018 11.7922 11.502 12.4395C11.502 13.0868 10.9775 13.6123 10.3301 13.6123C9.68275 13.6123 9.15823 13.0868 9.15823 12.4395C9.15837 11.7922 9.68284 11.2676 10.3301 11.2676Z" fill="#15C674"/>
<path fill-rule="evenodd" clip-rule="evenodd" d="M9.98343 5.10059C10.2407 5.14213 10.4577 5.32508 10.5391 5.5791C10.5391 5.5791 10.5404 5.58207 10.541 5.58398C10.5437 5.59167 10.5487 5.60559 10.5557 5.62402C10.5699 5.66155 10.5929 5.719 10.625 5.78906C10.6904 5.93158 10.7888 6.11814 10.9229 6.2998C11.1979 6.67238 11.5492 6.93732 12.0078 6.9375C12.4644 6.9375 12.8076 6.67437 13.0752 6.30469C13.206 6.12404 13.3021 5.93893 13.3653 5.79688C13.3964 5.72688 13.418 5.66921 13.4317 5.63184C13.4383 5.61358 13.4438 5.60039 13.4463 5.59277L13.4473 5.58789C13.5374 5.29335 13.8102 5.092 14.1182 5.0918H16.5576C16.8834 5.0918 17.1964 5.21157 17.4385 5.4248L17.5381 5.52246L20.4532 8.68945L20.5342 8.78516C20.885 9.24599 20.8967 9.88365 20.5635 10.3574L20.4873 10.4561L19.2334 11.9268C18.8633 12.3609 18.2615 12.5084 17.7373 12.3047L17.6338 12.2598L17.5362 12.2119V18.0303C17.5359 19.1149 16.656 19.9941 15.5713 19.9941H8.42679C7.34235 19.9939 6.46219 19.1147 6.46194 18.0303V12.0908C5.90229 12.4699 5.14315 12.372 4.7012 11.8535L3.51077 10.4561C3.07411 9.94334 3.08898 9.18509 3.54495 8.68945L6.45999 5.52246L6.5596 5.4248C6.80165 5.21153 7.11471 5.09191 7.44046 5.0918H9.87112L9.98343 5.10059ZM14.1367 15.0225C13.8175 14.7383 13.3309 14.7558 13.0323 15.0615L9.58401 18.5918H15.5713C15.8816 18.5918 16.1336 18.3405 16.1338 18.0303V16.7988L14.1367 15.0225ZM4.61722 9.59277L5.72659 10.8936L6.74905 10.1455L6.83206 10.0928C7.03196 9.98549 7.27446 9.98071 7.4805 10.085C7.71593 10.2043 7.86413 10.446 7.86429 10.71V18.0303C7.86437 18.138 7.89657 18.2378 7.94925 18.3232C7.98197 18.2508 8.02626 18.1822 8.08499 18.1221L12.0303 14.083L12.1905 13.9346C13.0173 13.2396 14.2443 13.2441 15.0674 13.9766L16.1338 14.9248V11.0889C16.1338 10.8471 16.2589 10.6222 16.4639 10.4941C16.6689 10.3663 16.9255 10.353 17.1426 10.459L18.2012 10.9756L19.3799 9.59277L16.5274 6.49414H14.586C14.4967 6.67864 14.3741 6.90164 14.211 7.12695C13.8105 7.68005 13.0985 8.33984 12.0078 8.33984C10.9195 8.33966 10.2011 7.682 9.79495 7.13184C9.62724 6.90457 9.50104 6.6794 9.40921 6.49414H7.47073L4.61722 9.59277Z" fill="#15C674"/>
</svg>
