<svg width="24" height="24" viewBox="0 0 24 24" fill="none" xmlns="http://www.w3.org/2000/svg">
<path d="M7.73798 4.92096L8.49655 4.9209C8.88315 4.92087 9.19658 5.23424 9.19661 5.62084C9.19664 6.00744 8.88327 6.32087 8.49667 6.3209L7.7381 6.32096C6.96494 6.32103 6.33821 6.94781 6.33821 7.72096V7.82843C6.33821 8.21503 6.02481 8.52843 5.63821 8.52843C5.25161 8.52843 4.93821 8.21503 4.93821 7.82843V7.72096C4.93821 6.17466 6.19167 4.92109 7.73798 4.92096Z" fill="#333333"/>
<path d="M5.63821 15.5049C6.02481 15.5049 6.33821 15.8183 6.33821 16.2049V16.2287C6.33821 17.002 6.96509 17.6288 7.73833 17.6287L8.49655 17.6287C8.88315 17.6286 9.19658 17.942 9.19661 18.3286C9.19665 18.7152 8.88327 19.0286 8.49667 19.0287L7.73845 19.0287C6.19196 19.0289 4.93821 17.7752 4.93821 16.2287V16.2049C4.93821 15.8183 5.25161 15.5049 5.63821 15.5049Z" fill="#333333"/>
<path d="M8.67894 8.45781C8.67894 8.07121 8.99234 7.75781 9.37894 7.75781H14.6223C15.0089 7.75781 15.3223 8.07121 15.3223 8.45781C15.3223 8.84441 15.0089 9.15781 14.6223 9.15781H12.7201V15.6695C12.7201 16.0561 12.4067 16.3695 12.0201 16.3695C11.6335 16.3695 11.3201 16.0561 11.3201 15.6695V9.15781H9.37894C8.99234 9.15781 8.67894 8.84441 8.67894 8.45781Z" fill="#333333"/>
<path d="M16.2744 4.9209C17.8208 4.9209 19.0744 6.1745 19.0744 7.7209V16.2287C19.0744 17.7751 17.8208 19.0287 16.2744 19.0287L15.5656 19.0287C15.179 19.0287 14.8656 18.7153 14.8656 18.3287C14.8656 17.9421 15.179 17.6287 15.5656 17.6287H16.2744C17.0476 17.6287 17.6744 17.0019 17.6744 16.2287V7.7209C17.6744 6.9477 17.0476 6.3209 16.2744 6.3209H15.5082C15.1216 6.3209 14.8082 6.0075 14.8082 5.6209C14.8082 5.2343 15.1216 4.9209 15.5082 4.9209H16.2744Z" fill="#333333"/>
<path d="M6.1378 12.609L5.91528 12.8315C5.64191 13.1049 5.64191 13.5481 5.91527 13.8214C6.18864 14.0948 6.63185 14.0948 6.90522 13.8215L8.16135 12.5654C8.55193 12.1748 8.55188 11.5415 8.16124 11.151L6.9462 9.93639C6.67279 9.66307 6.22957 9.66314 5.95625 9.93656C5.68293 10.21 5.68301 10.6532 5.95642 10.9265L6.239 11.209H3.36113C2.97453 11.209 2.66113 11.5224 2.66113 11.909C2.66113 12.2956 2.97453 12.609 3.36113 12.609H6.1378Z" fill="#333333"/>
</svg>
