<svg width="24" height="24" viewBox="0 0 24 24" fill="none" xmlns="http://www.w3.org/2000/svg">
<path fill-rule="evenodd" clip-rule="evenodd" d="M14.6223 9.60384C14.6323 9.84741 14.4682 10.1407 14.1451 10.255C13.8382 10.3649 13.5312 10.4806 13.2264 10.5955C13.1315 10.6312 13.0366 10.667 12.9422 10.7024C12.7185 10.7869 12.5694 10.941 12.4899 11.1597C12.4153 11.361 12.3408 11.5636 12.2662 11.7661C12.1916 11.9687 12.1171 12.1712 12.0425 12.3726C11.9331 12.6708 11.6846 12.8547 11.3864 12.8547C11.0881 12.8547 10.8445 12.6708 10.7352 12.3676C10.5811 11.9451 10.427 11.5226 10.2679 11.105C10.1934 10.9112 10.0443 10.7769 9.8504 10.7024L9.58555 10.6036C9.2598 10.4823 8.93213 10.3602 8.6077 10.2351C8.32934 10.1307 8.15039 9.87226 8.15039 9.58893C8.15039 9.30062 8.33431 9.04711 8.61764 8.94273C9.03519 8.78863 9.44776 8.63454 9.86034 8.47547C10.0741 8.39594 10.2133 8.23688 10.2928 8.0281C10.3698 7.82183 10.4457 7.61402 10.5215 7.4065C10.5973 7.19907 10.6731 6.9916 10.7501 6.78541C10.8992 6.38775 11.3466 6.21874 11.7144 6.41757C11.8685 6.50208 11.9779 6.62635 12.0375 6.79038C12.1867 7.19302 12.3358 7.59565 12.4799 8.00325C12.5694 8.25179 12.7285 8.41583 12.977 8.5053C13.2893 8.6185 13.5985 8.73477 13.9094 8.85169L14.165 8.9477C14.4533 9.05705 14.6372 9.32051 14.6273 9.59887L14.6223 9.60384ZM10.0542 9.59887C10.3723 9.70823 10.6557 9.86232 10.8943 10.0959C11.1329 10.3345 11.282 10.6228 11.3864 10.9559C11.6001 10.26 12.0425 9.81758 12.7235 9.59887C12.0425 9.38016 11.6001 8.93776 11.3864 8.24185C11.1726 8.93776 10.7302 9.38016 10.0542 9.59887Z" fill="#333333"/>
<path d="M13.9364 13.5467C14.0308 13.8102 14.2545 13.9792 14.5031 13.9742V13.9792C14.7715 13.9742 14.9753 13.8251 15.0697 13.5765L15.1592 13.3379C15.1691 13.3081 15.1841 13.2932 15.2139 13.2833C15.2884 13.2584 15.368 13.2286 15.4425 13.1988C15.6861 13.1143 15.8551 12.8906 15.8551 12.652C15.8601 12.3935 15.7159 12.1798 15.4624 12.0803L15.2238 11.9909C15.189 11.976 15.1691 11.961 15.1592 11.9262C15.1488 11.8981 15.1389 11.87 15.1291 11.842C15.1058 11.7761 15.0827 11.7107 15.0548 11.6479C14.9604 11.4192 14.7317 11.2751 14.4732 11.285C14.2645 11.29 14.0259 11.454 13.9513 11.6827C13.9364 11.7224 13.9214 11.7636 13.9065 11.8045C13.8917 11.8455 13.8767 11.8866 13.8618 11.9262C13.8519 11.9511 13.837 11.971 13.8071 11.9809C13.7649 11.9958 13.7239 12.012 13.6829 12.0281C13.6419 12.0443 13.6009 12.0605 13.5586 12.0754C13.3349 12.1549 13.1808 12.3686 13.1709 12.6023C13.1609 12.8458 13.3051 13.0745 13.5288 13.1689C13.5966 13.1991 13.6644 13.2235 13.7343 13.2487C13.7567 13.2568 13.7793 13.2649 13.8022 13.2733C13.832 13.2833 13.8519 13.3032 13.8618 13.3379C13.8751 13.3843 13.8928 13.4308 13.9105 13.4772C13.9193 13.5004 13.9281 13.5236 13.9364 13.5467Z" fill="#333333"/>
<path fill-rule="evenodd" clip-rule="evenodd" d="M18.6762 15.8855C18.6762 16.0573 18.613 16.223 18.4988 16.3512L18.4884 16.3636C18.4777 16.3765 18.46 16.3987 18.4374 16.4292C18.392 16.4907 18.3291 16.5833 18.266 16.6997C18.1366 16.9382 18.0252 17.2413 18.0252 17.5641C18.0252 17.9725 18.2018 18.3925 18.3679 18.6869C18.5417 18.995 18.5086 19.3373 18.3734 19.5878C18.2363 19.8417 17.9533 20.0714 17.5712 20.0714H7.89188C7.22593 20.0714 6.57837 19.825 6.09376 19.3727C5.60752 18.9189 5.32442 18.2926 5.32442 17.6285L5.32422 6.1281C5.32421 4.91292 6.30933 3.92836 7.52415 3.92826L9.6656 3.92803C12.2691 3.92771 14.8728 3.92739 17.4765 3.92854C18.1381 3.92883 18.6759 4.46454 18.6759 5.12799L18.6762 15.8855ZM7.52427 5.32826L9.66607 5.32803C12.2028 5.32772 14.7394 5.32741 17.2759 5.32846L17.2761 15.1855H7.89188C7.48484 15.1855 7.08467 15.2776 6.72438 15.4525L6.72422 6.12809C6.72421 5.68642 7.08224 5.3283 7.52427 5.32826ZM7.89188 16.5855H16.7922C16.6954 16.87 16.6252 17.201 16.6252 17.5641C16.6252 17.9691 16.7129 18.3484 16.8269 18.6714H7.89188C7.56726 18.6714 7.26483 18.5506 7.04901 18.3492C6.83482 18.1493 6.72442 17.8889 6.72442 17.6285C6.72442 17.3681 6.83482 17.1077 7.04901 16.9078C7.26483 16.7063 7.56726 16.5855 7.89188 16.5855Z" fill="#333333"/>
</svg>
