<svg width="24" height="24" viewBox="0 0 24 24" fill="none" xmlns="http://www.w3.org/2000/svg">
<path fill-rule="evenodd" clip-rule="evenodd" d="M8.96204 3.96135C9.28953 3.97248 9.56547 4.2093 9.62615 4.53132L12.0434 17.359L14.8951 9.4062C14.9913 9.13777 15.2408 8.95456 15.5257 8.94304C15.8106 8.93152 16.0741 9.09398 16.1917 9.35376L18.0729 13.5089H20.643C21.0296 13.5089 21.343 13.8223 21.343 14.2089C21.343 14.5955 21.0296 14.9089 20.643 14.9089H17.6214C17.3465 14.9089 17.0971 14.748 16.9837 14.4976L15.6294 11.5062L12.4916 20.2569C12.3849 20.5543 12.0923 20.7434 11.7774 20.7185C11.4624 20.6935 11.2032 20.4607 11.1447 20.1503L8.8294 7.86336L7.13487 14.3849C7.0547 14.6935 6.77617 14.9089 6.45737 14.9089H3.35625C2.96965 14.9089 2.65625 14.5955 2.65625 14.2089C2.65625 13.8223 2.96965 13.5089 3.35625 13.5089H5.91601L8.26076 4.4849C8.34316 4.16775 8.63455 3.95021 8.96204 3.96135Z" fill="#333333"/>
</svg>
