<svg width="24" height="24" viewBox="0 0 24 24" fill="none" xmlns="http://www.w3.org/2000/svg">
<path fill-rule="evenodd" clip-rule="evenodd" d="M18 17.3C18.3866 17.3 18.7 17.6134 18.7 18V18.0067C18.7 18.3933 18.3866 18.7067 18 18.7067C17.6134 18.7067 17.3 18.3933 17.3 18.0067V18C17.3 17.6134 17.6134 17.3 18 17.3Z" fill="#333333"/>
<path fill-rule="evenodd" clip-rule="evenodd" d="M5.29999 12C5.29999 11.6134 5.61339 11.3 5.99999 11.3H6.00665C6.39325 11.3 6.70665 11.6134 6.70665 12C6.70665 12.3866 6.39325 12.7 6.00665 12.7H5.99999C5.61339 12.7 5.29999 12.3866 5.29999 12Z" fill="#333333"/>
<path fill-rule="evenodd" clip-rule="evenodd" d="M11.3 6C11.3 5.6134 11.6134 5.3 12 5.3H12.0067C12.3933 5.3 12.7067 5.6134 12.7067 6C12.7067 6.3866 12.3933 6.7 12.0067 6.7H12C11.6134 6.7 11.3 6.3866 11.3 6Z" fill="#333333"/>
<path fill-rule="evenodd" clip-rule="evenodd" d="M12 13.9667C12.3866 13.9667 12.7 14.2801 12.7 14.6667V14.6733C12.7 15.0599 12.3866 15.3733 12 15.3733C11.6134 15.3733 11.3 15.0599 11.3 14.6733V14.6667C11.3 14.2801 11.6134 13.9667 12 13.9667Z" fill="#333333"/>
<path fill-rule="evenodd" clip-rule="evenodd" d="M13.8 12C13.8 11.6134 14.1134 11.3 14.5 11.3H15.5C15.8866 11.3 16.2 11.6134 16.2 12C16.2 12.3866 15.8866 12.7 15.5 12.7H14.5C14.1134 12.7 13.8 12.3866 13.8 12Z" fill="#333333"/>
<path fill-rule="evenodd" clip-rule="evenodd" d="M18 11.3C18.3866 11.3 18.7 11.6134 18.7 12V12.0067C18.7 12.3933 18.3866 12.7067 18 12.7067C17.6134 12.7067 17.3 12.3933 17.3 12.0067V12C17.3 11.6134 17.6134 11.3 18 11.3Z" fill="#333333"/>
<path fill-rule="evenodd" clip-rule="evenodd" d="M12 16.3C12.3866 16.3 12.7 16.6134 12.7 17V18C12.7 18.3866 12.3866 18.7 12 18.7C11.6134 18.7 11.3 18.3866 11.3 18V17C11.3 16.6134 11.6134 16.3 12 16.3Z" fill="#333333"/>
<path fill-rule="evenodd" clip-rule="evenodd" d="M5 15.1996C5 14.316 5.71634 13.5996 6.6 13.5996H8.8C9.68366 13.5996 10.4 14.316 10.4 15.1996V17.3996C10.4 18.2833 9.68366 18.9996 8.8 18.9996H6.6C5.71634 18.9996 5 18.2833 5 17.3996V15.1996ZM6.6 14.9996C6.48954 14.9996 6.4 15.0892 6.4 15.1996V17.3996C6.4 17.5101 6.48954 17.5996 6.6 17.5996H8.8C8.91046 17.5996 9 17.5101 9 17.3996V15.1996C9 15.0892 8.91046 14.9996 8.8 14.9996H6.6Z" fill="#333333"/>
<path fill-rule="evenodd" clip-rule="evenodd" d="M14.2998 16.2996C14.2998 14.8084 15.5086 13.5996 16.9998 13.5996H17.9998C18.3864 13.5996 18.6998 13.913 18.6998 14.2996C18.6998 14.6862 18.3864 14.9996 17.9998 14.9996H16.9998C16.2818 14.9996 15.6998 15.5816 15.6998 16.2996V17.2996C15.6998 17.6862 15.3864 17.9996 14.9998 17.9996C14.6132 17.9996 14.2998 17.6862 14.2998 17.2996V16.2996Z" fill="#333333"/>
<path fill-rule="evenodd" clip-rule="evenodd" d="M5 6.6C5 5.71634 5.71634 5 6.6 5H8.8C9.68366 5 10.4 5.71634 10.4 6.6V8.8C10.4 9.68366 9.68366 10.4 8.8 10.4H6.6C5.71634 10.4 5 9.68366 5 8.8V6.6ZM6.6 6.4C6.48954 6.4 6.4 6.48954 6.4 6.6V8.8C6.4 8.91046 6.48954 9 6.6 9H8.8C8.91046 9 9 8.91046 9 8.8V6.6C9 6.48954 8.91046 6.4 8.8 6.4H6.6Z" fill="#333333"/>
<path fill-rule="evenodd" clip-rule="evenodd" d="M12 8.3C12.3866 8.3 12.7 8.6134 12.7 9V10C12.7 11.4912 11.4912 12.7 9.99999 12.7H8.99999C8.61339 12.7 8.29999 12.3866 8.29999 12C8.29999 11.6134 8.61339 11.3 8.99999 11.3H9.99999C10.718 11.3 11.3 10.718 11.3 10V9C11.3 8.6134 11.6134 8.3 12 8.3Z" fill="#333333"/>
<path fill-rule="evenodd" clip-rule="evenodd" d="M13.6 6.6C13.6 5.71634 14.3163 5 15.2 5H17.4C18.2836 5 19 5.71634 19 6.6V8.8C19 9.68366 18.2836 10.4 17.4 10.4H15.2C14.3163 10.4 13.6 9.68366 13.6 8.8V6.6ZM15.2 6.4C15.0895 6.4 15 6.48954 15 6.6V8.8C15 8.91046 15.0895 9 15.2 9H17.4C17.5104 9 17.6 8.91046 17.6 8.8V6.6C17.6 6.48954 17.5104 6.4 17.4 6.4H15.2Z" fill="#333333"/>
</svg>
