<svg width="24" height="24" viewBox="0 0 24 24" fill="none" xmlns="http://www.w3.org/2000/svg">
<path fill-rule="evenodd" clip-rule="evenodd" d="M12.2644 11.6089C14.2639 11.6089 15.8848 9.98803 15.8848 7.98855C15.8848 5.98907 14.2639 4.36816 12.2644 4.36816C10.2649 4.36816 8.64404 5.98907 8.64404 7.98855C8.64404 9.98803 10.2649 11.6089 12.2644 11.6089ZM12.2644 10.2089C13.4907 10.2089 14.4848 9.21483 14.4848 7.98855C14.4848 6.76226 13.4907 5.76816 12.2644 5.76816C11.0381 5.76816 10.044 6.76226 10.044 7.98855C10.044 9.21483 11.0381 10.2089 12.2644 10.2089Z" fill="#333333"/>
<path fill-rule="evenodd" clip-rule="evenodd" d="M7.98953 19.2281C9.98901 19.2281 11.6099 17.6072 11.6099 15.6077C11.6099 13.6082 9.98901 11.9873 7.98953 11.9873C5.99004 11.9873 4.36914 13.6082 4.36914 15.6077C4.36914 17.6072 5.99004 19.2281 7.98953 19.2281ZM7.98953 17.8281C9.21581 17.8281 10.2099 16.834 10.2099 15.6077C10.2099 14.3814 9.21581 13.3873 7.98953 13.3873C6.76324 13.3873 5.76914 14.3814 5.76914 15.6077C5.76914 16.834 6.76324 17.8281 7.98953 17.8281Z" fill="#333333"/>
<path fill-rule="evenodd" clip-rule="evenodd" d="M20.1597 15.6077C20.1597 17.6072 18.5388 19.2281 16.5393 19.2281C14.5398 19.2281 12.9189 17.6072 12.9189 15.6077C12.9189 13.6082 14.5398 11.9873 16.5393 11.9873C18.5388 11.9873 20.1597 13.6082 20.1597 15.6077ZM18.7597 15.6077C18.7597 16.834 17.7656 17.8281 16.5393 17.8281C15.313 17.8281 14.3189 16.834 14.3189 15.6077C14.3189 14.3814 15.313 13.3873 16.5393 13.3873C17.7656 13.3873 18.7597 14.3814 18.7597 15.6077Z" fill="#333333"/>
</svg>
