<svg width="24" height="24" viewBox="0 0 24 24" fill="none" xmlns="http://www.w3.org/2000/svg">
<path d="M12.0436 8.98887C11.2296 8.98887 10.7987 9.4682 10.6267 9.97857C10.5033 10.3449 10.1063 10.5419 9.73991 10.4185C9.37354 10.2951 9.17659 9.89802 9.3 9.53165C9.62345 8.57146 10.5113 7.58887 12.0436 7.58887C12.5662 7.58887 13.2225 7.74255 13.7646 8.16871C14.3343 8.61653 14.7199 9.32187 14.7199 10.2849C14.7199 11.3595 13.9826 12.0454 13.5003 12.494L13.458 12.5334C12.8791 13.0731 12.6414 13.3385 12.6414 13.6948C12.6414 14.0814 12.328 14.3948 11.9414 14.3948C11.5548 14.3948 11.2414 14.0814 11.2414 13.6948C11.2414 12.6771 11.9613 12.011 12.4285 11.5788L12.5033 11.5094C13.0624 10.9881 13.3199 10.6925 13.3199 10.2849C13.3199 9.73362 13.1177 9.44095 12.8994 9.26933C12.6535 9.07605 12.3218 8.98887 12.0436 8.98887Z" fill="#333333"/>
<path d="M12.6998 15.7771C12.6998 15.3905 12.3864 15.0771 11.9998 15.0771C11.6132 15.0772 11.2998 15.3906 11.2998 15.7772L11.2998 15.8499C11.2998 16.2365 11.6132 16.5498 11.9998 16.5498C12.3864 16.5498 12.6998 16.2364 12.6998 15.8498L12.6998 15.7771Z" fill="#333333"/>
<path fill-rule="evenodd" clip-rule="evenodd" d="M3.80176 12.0002C3.80176 7.47232 7.47232 3.80176 12.0002 3.80176C16.5281 3.80176 20.1986 7.47232 20.1986 12.0002C20.1986 16.5281 16.5281 20.1986 12.0002 20.1986C7.47232 20.1986 3.80176 16.5281 3.80176 12.0002ZM12.0002 5.40176C8.35598 5.40176 5.40176 8.35598 5.40176 12.0002C5.40176 15.6444 8.35598 18.5986 12.0002 18.5986C15.6444 18.5986 18.5986 15.6444 18.5986 12.0002C18.5986 8.35598 15.6444 5.40176 12.0002 5.40176Z" fill="#333333"/>
</svg>
