<svg width="24" height="24" viewBox="0 0 24 24" fill="none" xmlns="http://www.w3.org/2000/svg">
<path d="M9.68151 6.39592C9.1745 6.85324 8.90907 7.44094 8.82418 7.95028C8.76062 8.33162 8.39996 8.58924 8.01862 8.52568C7.63728 8.46212 7.37967 8.10147 7.44323 7.72013C7.57399 6.93553 7.97547 6.04938 8.74382 5.35634C9.52273 4.65376 10.6368 4.1875 12.117 4.1875C13.1252 4.1875 14.3956 4.45068 15.4344 5.19512C16.5066 5.96343 17.2802 7.21087 17.2802 9.03194C17.2801 10.9771 15.8433 12.2016 14.7256 13.1542L14.6513 13.2175C14.0637 13.7183 13.5489 14.1571 13.1676 14.637C12.7926 15.1089 12.5861 15.5742 12.5861 16.1121C12.5861 16.4987 12.2727 16.8121 11.8861 16.8121C11.4995 16.8121 11.1861 16.4987 11.1861 16.1121C11.1861 15.1653 11.5664 14.4018 12.0715 13.766C12.5395 13.177 13.1477 12.659 13.698 12.1904L13.779 12.1214C15.0031 11.078 15.8801 10.2527 15.8802 9.03193C15.8802 7.66472 15.3263 6.83994 14.619 6.33311C13.8784 5.8024 12.9171 5.5875 12.117 5.5875C10.9477 5.5875 10.178 5.94812 9.68151 6.39592Z" fill="#333333"/>
<path d="M11 19C11 18.4477 11.4477 18 12 18C12.5523 18 13 18.4477 13 19C13 19.5523 12.5523 20 12 20C11.4477 20 11 19.5523 11 19Z" fill="#333333"/>
</svg>
