<svg width="24" height="24" viewBox="0 0 24 24" fill="none" xmlns="http://www.w3.org/2000/svg">
<path d="M17.3076 4.9082C18.8543 4.9082 20.1084 6.1623 20.1084 7.70898V8.76367C20.1081 9.15013 19.7947 9.46289 19.4082 9.46289C19.0217 9.46289 18.7083 9.15013 18.708 8.76367V7.70898C18.708 6.93564 18.081 6.30859 17.3076 6.30859H6.69238C5.91904 6.30859 5.29199 6.93564 5.29199 7.70898V16.292C5.29199 17.0653 5.91904 17.6924 6.69238 17.6924H11.7354L11.876 17.707C12.195 17.7723 12.4355 18.0542 12.4355 18.3926C12.4355 18.7309 12.195 19.0128 11.876 19.0781L11.7354 19.0928H6.69238C5.1457 19.0928 3.8916 17.8387 3.8916 16.292V7.70898C3.8916 6.1623 5.1457 4.9082 6.69238 4.9082H17.3076ZM18.8291 10.9961C19.4607 10.4813 20.3928 10.519 20.9814 11.1074L21.3848 11.5107L21.4951 11.6328C21.9757 12.2224 21.976 13.0737 21.4951 13.6631L21.3848 13.7852L16.8223 18.3467C16.7569 18.412 16.6786 18.464 16.5938 18.499L16.5059 18.5283L14.7129 19.0029C13.9708 19.1988 13.2921 18.5219 13.4863 17.7793L13.9551 15.9932L13.9844 15.9053C14.0195 15.8196 14.0708 15.7407 14.1367 15.6748L18.707 11.1064L18.8291 10.9961ZM19.9912 12.0967C19.9201 12.0261 19.8101 12.0172 19.7295 12.0703L19.6973 12.0967L15.6045 16.1855L16.3037 16.8848L20.3945 12.7949L20.4219 12.7627C20.4676 12.6936 20.4673 12.6024 20.4219 12.5332L20.3945 12.501L19.9912 12.0967ZM11.5957 14.4395C12.0595 14.4396 12.4353 14.8156 12.4355 15.2793C12.4355 15.7432 12.0596 16.1199 11.5957 16.1201H7.53613C7.10116 16.1199 6.74401 15.789 6.70117 15.3652L6.69629 15.2793L6.70117 15.1943C6.74399 14.7706 7.10114 14.4397 7.53613 14.4395H11.5957ZM15.7529 8.0127C16.6918 8.0128 17.453 8.77398 17.4531 9.71289V10.1475C17.453 11.0864 16.6918 11.8476 15.7529 11.8477H8.24805C7.30914 11.8476 6.54795 11.0864 6.54785 10.1475V9.71289C6.54795 8.77398 7.30914 8.0128 8.24805 8.0127H15.7529ZM8.24805 9.41309C8.08248 9.41319 7.94834 9.54732 7.94824 9.71289V10.1475C7.94834 10.313 8.08248 10.4472 8.24805 10.4473H15.7529C15.9185 10.4472 16.0526 10.313 16.0527 10.1475V9.71289C16.0526 9.54732 15.9185 9.41319 15.7529 9.41309H8.24805Z" fill="#15C674"/>
</svg>
