<svg width="24" height="24" viewBox="0 0 24 24" fill="none" xmlns="http://www.w3.org/2000/svg">
<path fill-rule="evenodd" clip-rule="evenodd" d="M6.26018 5.91992H9.32018C10.6002 5.91992 11.6502 6.93992 11.6502 8.18992V12.6899C11.6502 13.6599 11.5402 14.2599 11.3102 15.1599C11.0802 16.0599 10.7102 16.8699 10.2302 17.5599C9.74018 18.2699 9.09018 18.8399 8.32018 19.2699C7.59018 19.6599 6.76018 19.8799 5.83018 19.9099C5.77018 19.9199 5.72018 19.9199 5.67018 19.9199C5.45018 19.9199 5.29018 19.8299 5.19018 19.7499C5.05018 19.6399 4.89018 19.4299 4.89018 19.0599V17.1499C4.89018 16.5899 5.22018 16.1999 5.73018 16.1699C6.06018 16.1599 6.32018 16.0699 6.53018 15.9199C6.80018 15.7199 7.02018 15.4499 7.20018 15.1099C7.44018 14.6399 7.56018 14.1099 7.63018 13.5799H6.26018C4.98018 13.5799 3.93018 12.5599 3.93018 11.3099V8.18992C3.93018 6.93992 4.97018 5.91992 6.26018 5.91992ZM9.95018 14.8199C10.1502 13.9999 10.2402 13.5299 10.2402 12.6899V8.19992C10.2402 7.71992 9.82018 7.32992 9.31018 7.32992H6.27018C5.76018 7.32992 5.34018 7.71992 5.34018 8.19992V11.3199C5.34018 11.7999 5.76018 12.1899 6.27018 12.1899H8.41018C8.60017 12.1899 8.79018 12.2699 8.92018 12.4099C9.06018 12.5499 9.12018 12.7499 9.11018 12.9399C9.05017 13.8199 8.94018 14.8399 8.45018 15.7699C8.17018 16.2999 7.81018 16.7299 7.37018 17.0599C7.06018 17.2899 6.70018 17.4499 6.29018 17.5299V18.4899C6.79018 18.4199 7.24018 18.2799 7.64018 18.0599C8.23018 17.7299 8.70018 17.3099 9.08018 16.7699C9.47018 16.2199 9.76018 15.5599 9.95018 14.8199Z" fill="#333333"/>
<path fill-rule="evenodd" clip-rule="evenodd" d="M14.6698 5.91992H17.7098L17.7298 5.92992C19.0098 5.92992 20.0598 6.94992 20.0598 8.19992V12.6999C20.0598 13.6699 19.9498 14.2699 19.7198 15.1699C19.4898 16.0699 19.1198 16.8799 18.6398 17.5699C18.1498 18.2799 17.4998 18.8599 16.7298 19.2799C15.9998 19.6699 15.1698 19.8899 14.2398 19.9199C14.1798 19.9299 14.1298 19.9299 14.0798 19.9299C13.8598 19.9299 13.6998 19.8399 13.5998 19.7599C13.4598 19.6499 13.2998 19.4399 13.2998 19.0699V17.1599C13.2998 16.5999 13.6298 16.2099 14.1398 16.1799C14.4698 16.1599 14.7298 16.0699 14.9398 15.9199C15.2098 15.7199 15.4298 15.4499 15.6098 15.1099C15.8498 14.6399 15.9698 14.1099 16.0398 13.5799H14.6698C13.3898 13.5799 12.3398 12.5599 12.3398 11.3099V8.18992C12.3398 6.93992 13.3798 5.91992 14.6698 5.91992ZM18.3498 14.8199C18.5498 13.9999 18.6398 13.5299 18.6398 12.6899V8.19992C18.6398 7.71992 18.2198 7.32992 17.7098 7.32992H14.6698C14.1598 7.32992 13.7398 7.71992 13.7398 8.19992V11.3199C13.7398 11.7999 14.1598 12.1899 14.6698 12.1899H16.8098C16.9998 12.1899 17.1898 12.2699 17.3198 12.4099C17.4598 12.5499 17.5198 12.7499 17.5098 12.9399C17.4498 13.8199 17.3398 14.8399 16.8498 15.7699C16.5698 16.2999 16.2098 16.7299 15.7698 17.0599C15.4598 17.2899 15.0998 17.4499 14.6898 17.5299V18.4899C15.1898 18.4199 15.6398 18.2799 16.0398 18.0599C16.6298 17.7299 17.0998 17.3099 17.4798 16.7699C17.8698 16.2199 18.1598 15.5599 18.3498 14.8199Z" fill="#333333"/>
</svg>
