<svg width="24" height="24" viewBox="0 0 24 24" fill="none" xmlns="http://www.w3.org/2000/svg">
<path d="M14.0928 11.1826C14.4119 11.2477 14.6523 11.5298 14.6523 11.8682C14.6523 12.2066 14.4119 12.4886 14.0928 12.5537L13.9521 12.5684H8.9541C8.5675 12.5684 8.25391 12.2548 8.25391 11.8682C8.25391 11.4816 8.5675 11.168 8.9541 11.168H13.9521L14.0928 11.1826Z" fill="#1BCE7B"/>
<path d="M14.0928 8.46777C14.4119 8.5329 14.6523 8.81491 14.6523 9.15332C14.6523 9.49173 14.4119 9.77374 14.0928 9.83887L13.9521 9.85352H8.9541C8.5675 9.85352 8.25391 9.53992 8.25391 9.15332C8.25391 8.76672 8.5675 8.45312 8.9541 8.45312H13.9521L14.0928 8.46777Z" fill="#1BCE7B"/>
<path fill-rule="evenodd" clip-rule="evenodd" d="M16.0615 5C17.6629 5.00026 18.9619 6.29893 18.9619 7.90039V14.665C18.9618 15.1543 18.7728 15.625 18.4346 15.9785L16.1699 18.3438C15.8117 18.7178 15.3157 18.9295 14.7979 18.9297H7.95898C6.35736 18.9297 5.05762 17.6309 5.05762 16.0293V7.90039C5.05762 6.29876 6.35736 5 7.95898 5H16.0615ZM7.95898 6.40039C7.13056 6.40039 6.45898 7.07196 6.45898 7.90039V16.0293C6.45898 16.8577 7.13056 17.5293 7.95898 17.5293H13.8506V15.5283C13.8506 14.5894 14.6119 13.8281 15.5508 13.8281H17.5615V7.90039C17.5615 7.07213 16.8897 6.40065 16.0615 6.40039H7.95898ZM15.5508 15.2285C15.3851 15.2285 15.251 15.3626 15.251 15.5283V17.2773L17.2139 15.2285H15.5508Z" fill="#1BCE7B"/>
</svg>
