<svg width="24" height="24" viewBox="0 0 24 24" fill="none" xmlns="http://www.w3.org/2000/svg">
<path d="M14.4532 11.8818C14.772 11.9473 15.0118 12.2292 15.0118 12.5674C15.0118 12.9055 14.772 13.1875 14.4532 13.2529L14.3116 13.2676H8.67977C8.29317 13.2676 7.97958 12.954 7.97958 12.5674C7.97958 12.1808 8.29317 11.8672 8.67977 11.8672H14.3116L14.4532 11.8818Z" fill="#1BCE7B"/>
<path d="M14.4532 8.91309C14.772 8.97851 15.0118 9.2605 15.0118 9.59863C15.0118 9.93677 14.772 10.2188 14.4532 10.2842L14.3116 10.2988H8.67977C8.29317 10.2988 7.97958 9.98523 7.97958 9.59863C7.97958 9.21203 8.29317 8.89844 8.67977 8.89844H14.3116L14.4532 8.91309Z" fill="#1BCE7B"/>
<path fill-rule="evenodd" clip-rule="evenodd" d="M18.4913 4.76172C19.2537 4.79955 19.87 5.12004 20.2823 5.6748C20.6984 6.23485 20.8497 6.95621 20.8497 7.6709C20.8497 7.85655 20.7759 8.03474 20.6446 8.16602C20.5134 8.29718 20.3351 8.37109 20.1495 8.37109H17.9034C17.9018 9.18802 17.8997 10.3724 17.8966 11.5713C17.892 13.3306 17.8878 15.1217 17.8878 15.8369C17.8878 16.7942 17.4117 17.6107 16.7862 18.1719C16.1656 18.7285 15.3363 19.0908 14.5157 19.0908H5.4327C4.95039 19.0904 4.72709 18.7063 4.66415 18.5371C4.59766 18.358 4.53982 17.9922 4.80184 17.6836L4.90243 17.543C5.01037 17.3632 5.127 17.0599 5.12704 16.5791V8.58105C5.12707 7.42844 5.50852 6.44121 6.28817 5.75195C7.05544 5.07391 8.11972 4.76275 9.33993 4.7627C10.449 4.7627 12.8359 4.76289 14.8761 4.7627C15.896 4.7626 16.8299 4.76179 17.4737 4.76172H18.2999C18.3122 4.76107 18.3245 4.75782 18.337 4.75781L18.4913 4.76172ZM9.33993 6.16309C8.34239 6.16314 7.64948 6.41674 7.21493 6.80078C6.79291 7.17392 6.52648 7.74677 6.52645 8.58105C6.52645 9.57465 6.52733 10.8711 6.52743 12.2705C6.52753 13.6699 6.52743 15.1728 6.52743 16.5791C6.5274 17.0139 6.45918 17.3815 6.35848 17.6904H14.5157C14.9412 17.6904 15.4481 17.4918 15.8516 17.1299C16.2502 16.7723 16.4874 16.3122 16.4874 15.8369C16.4874 15.1194 16.4916 13.3256 16.4962 11.5674C16.5007 9.80801 16.5059 8.08454 16.5059 7.50391C16.5059 7.0181 16.5905 6.55986 16.7384 6.16211C16.196 6.16217 15.555 6.16205 14.8761 6.16211C12.836 6.1623 10.4491 6.16309 9.33993 6.16309ZM18.3663 6.15918C18.3891 6.15554 18.3006 6.16755 18.1661 6.39844C18.0816 6.54365 18.0068 6.73836 17.9591 6.9707H19.3673C19.316 6.77874 19.244 6.62507 19.1583 6.50977C19.0283 6.33494 18.8325 6.19686 18.4923 6.16504L18.3663 6.15918Z" fill="#1BCE7B"/>
</svg>
