<svg width="24" height="24" viewBox="0 0 24 24" fill="none" xmlns="http://www.w3.org/2000/svg">
<path fill-rule="evenodd" clip-rule="evenodd" d="M3.9541 8.01465C3.9541 6.91008 4.84953 6.01465 5.9541 6.01465H14.2552C15.3598 6.01465 16.2552 6.91008 16.2552 8.01465V9.20502L18.3371 7.74224C19.5961 6.85767 21.3294 7.7582 21.3294 9.29687V14.6982C21.3294 16.2393 19.5913 17.1393 18.3329 16.2499L16.2552 14.7815V15.9853C16.2552 17.0898 15.3598 17.9852 14.2552 17.9852H5.9541C4.84953 17.9852 3.9541 17.0898 3.9541 15.9852V8.01465ZM5.9541 7.41465H14.2552C14.5866 7.41465 14.8552 7.68328 14.8552 8.01465V15.9853C14.8552 16.3166 14.5866 16.5852 14.2552 16.5852H5.9541C5.62273 16.5852 5.3541 16.3166 5.3541 15.9852V8.01465C5.3541 7.68328 5.62273 7.41465 5.9541 7.41465ZM16.2623 13.0722L16.2623 10.9111L19.142 8.88776C19.4733 8.65497 19.9294 8.89196 19.9294 9.29687V14.6982C19.9294 15.1038 19.4721 15.3406 19.1409 15.1066L16.2623 13.0722Z" fill="#333333"/>
</svg>
