<svg width="24" height="24" viewBox="0 0 24 24" fill="none" xmlns="http://www.w3.org/2000/svg">
<g opacity="0.5">
<path d="M12 19.3789C16.0753 19.3789 19.3789 16.0753 19.3789 12C19.3789 7.92475 16.0753 4.62109 12 4.62109C7.92475 4.62109 4.62109 7.92475 4.62109 12C4.62109 16.0753 7.92475 19.3789 12 19.3789Z" stroke="#525C69" stroke-width="1.4" stroke-linecap="round" stroke-linejoin="round"/>
<path d="M12.0002 14.8491C13.5734 14.8491 14.8486 13.5739 14.8486 12.0007C14.8486 10.4276 13.5734 9.15234 12.0002 9.15234C10.4271 9.15234 9.15186 10.4276 9.15186 12.0007C9.15186 13.5739 10.4271 14.8491 12.0002 14.8491Z" stroke="#525C69" stroke-width="1.4" stroke-linecap="round" stroke-linejoin="round"/>
</g>
<path d="M18.6787 12C18.6787 8.31135 15.6887 5.32129 12 5.32129C8.31135 5.32129 5.32129 8.31135 5.32129 12C5.32129 15.6887 8.31135 18.6787 12 18.6787C15.6887 18.6787 18.6787 15.6887 18.6787 12ZM20.0791 12C20.0791 16.4619 16.4619 20.0791 12 20.0791C7.53815 20.0791 3.9209 16.4619 3.9209 12C3.9209 7.53815 7.53815 3.9209 12 3.9209C16.4619 3.9209 20.0791 7.53815 20.0791 12Z" fill="#15C674"/>
<path d="M14.1489 12.0005C14.1489 10.814 13.1869 9.85218 12.0005 9.85205C10.814 9.85205 9.85205 10.814 9.85205 12.0005C9.85218 13.1869 10.814 14.1489 12.0005 14.1489C13.1868 14.1488 14.1488 13.1868 14.1489 12.0005ZM15.5483 12.0005C15.5482 13.96 13.96 15.5482 12.0005 15.5483C10.0409 15.5483 8.45179 13.9601 8.45166 12.0005C8.45166 10.0408 10.0408 8.45166 12.0005 8.45166C13.9601 8.45179 15.5483 10.0409 15.5483 12.0005Z" fill="#15C674"/>
</svg>
