<svg width="24" height="24" viewBox="0 0 24 24" fill="none" xmlns="http://www.w3.org/2000/svg">
<path d="M19.2776 8.45925C19.277 8.6377 19.2087 8.81599 19.0725 8.95215L15.1517 12.873C14.8784 13.1464 14.4352 13.1464 14.1618 12.873C13.8884 12.5996 13.8884 12.1564 14.1618 11.883L16.8881 9.15672H9.77193C7.52323 9.15672 5.70029 10.9797 5.70029 13.2284C5.70029 15.4771 7.52323 17.3 9.77193 17.3H12.0682C12.4548 17.3 12.7682 17.6134 12.7682 18C12.7682 18.3866 12.4548 18.7 12.0682 18.7H9.77193C6.75003 18.7 4.30029 16.2503 4.30029 13.2284C4.30029 10.2065 6.75003 7.75672 9.77193 7.75672H16.8872L14.1399 5.00943C13.8666 4.73606 13.8666 4.29285 14.1399 4.01948C14.4133 3.74611 14.8565 3.74611 15.1299 4.01948L19.0725 7.96214C19.1898 8.07943 19.2568 8.228 19.2734 8.38099C19.2763 8.40699 19.2776 8.43312 19.2776 8.45925Z" fill="#333333"/>
</svg>
