<svg width="24" height="24" viewBox="0 0 24 24" fill="none" xmlns="http://www.w3.org/2000/svg">
<path d="M19.2031 4.63262C19.2031 4.24602 18.8897 3.93262 18.5031 3.93262C18.1165 3.93262 17.8031 4.24602 17.8031 4.63262L17.8031 6.5911C15.787 4.43079 12.6238 3.59704 9.69494 4.42772C6.34405 5.37809 4.64089 8.34591 4.26357 11.5811C4.21878 11.9651 4.49377 12.3127 4.87776 12.3575C5.26176 12.4023 5.60936 12.1273 5.65414 11.7433C5.99087 8.85622 7.45235 6.51898 10.0769 5.7746C12.5693 5.06773 15.2225 5.81239 16.8593 7.63379H14.8045C14.4179 7.63379 14.1045 7.94719 14.1045 8.33379C14.1045 8.72039 14.4179 9.03379 14.8045 9.03379H18.5028C18.7265 9.03379 18.9257 8.92886 19.0538 8.76555L19.0656 8.75009C19.152 8.63366 19.2031 8.48949 19.2031 8.33337V4.63262Z" fill="#333333"/>
<path d="M4.94629 15.6336C4.94629 15.247 5.25969 14.9336 5.64629 14.9336H9.34629C9.73289 14.9336 10.0463 15.247 10.0463 15.6336C10.0463 16.0202 9.73289 16.3336 9.34629 16.3336H7.28835C8.92785 18.1406 11.5753 18.878 14.063 18.1739C16.6906 17.4302 18.1529 15.0954 18.4898 12.2126C18.5347 11.8286 18.8824 11.5537 19.2664 11.5985C19.6503 11.6434 19.9252 11.9911 19.8804 12.3751C19.5026 15.6076 17.7974 18.5719 14.4442 19.521C11.5216 20.3482 8.36531 19.5226 6.34668 17.3777L6.34668 19.3336C6.34668 19.7202 6.03328 20.0336 5.64668 20.0336C5.26008 20.0336 4.94668 19.7202 4.94668 19.3336L4.94668 15.6572C4.94642 15.6494 4.94629 15.6415 4.94629 15.6336Z" fill="#333333"/>
</svg>
