<svg width="24" height="24" viewBox="0 0 24 24" fill="none" xmlns="http://www.w3.org/2000/svg">
<path d="M18.957 8.45605C19.7796 9.04083 20.3184 9.99897 20.3184 11.085V16.2764C20.3182 18.0581 18.8735 19.5029 17.0918 19.5029H9.57129C8.44109 19.5029 7.44739 18.9209 6.87109 18.041C7.08517 18.1 7.31016 18.1348 7.54297 18.1348H16.4307C16.561 18.1347 16.6885 18.1216 16.8135 18.1025H17.0918C18.1003 18.1025 18.9179 17.2849 18.918 16.2764V16.0332C18.9414 15.8949 18.957 15.7533 18.957 15.6084V8.45605ZM15.3086 4.59863C16.8462 4.59863 18.0927 5.84524 18.0928 7.38281V14.4941C18.0928 16.0318 16.8463 17.2793 15.3086 17.2793H6.43359C4.89602 17.2792 3.64941 16.0317 3.64941 14.4941V7.38281C3.64954 5.84531 4.8961 4.59875 6.43359 4.59863H15.3086ZM6.43359 5.99902C5.66929 5.99915 5.04993 6.61851 5.0498 7.38281V14.4941C5.0498 15.2585 5.66922 15.8788 6.43359 15.8789H15.3086C16.0731 15.8789 16.6934 15.2586 16.6934 14.4941V7.38281C16.6932 6.61844 16.073 5.99902 15.3086 5.99902H6.43359ZM13.2578 6.875C13.553 6.87503 13.8403 6.92513 14.1025 7.01172L14.1016 7.0127C14.7151 7.21436 15.2316 7.62675 15.5713 8.16797L15.7061 8.4082L15.7744 8.55664C15.9245 8.90598 16.0098 9.29239 16.0098 9.70117C16.0096 10.5191 15.748 11.1003 15.4102 11.6064C15.2524 11.8427 15.0695 12.0753 14.9092 12.2852C14.7425 12.5034 14.5813 12.7205 14.4297 12.9668L14.4277 12.9707C14.2725 13.2194 14.218 13.4084 14.1621 13.5898C14.1423 13.6544 14.0904 13.8387 13.9844 13.9922C13.9191 14.0866 13.8209 14.1917 13.6777 14.2676C13.5345 14.3433 13.3896 14.3672 13.2666 14.3672C13.1447 14.3671 13.0003 14.3435 12.8574 14.2686C12.7144 14.1934 12.6157 14.0896 12.5498 13.9951C12.4428 13.8415 12.3899 13.6577 12.3701 13.5938C12.3281 13.4583 12.2876 13.3181 12.2041 13.1514L12.1055 12.9756C12.0511 12.8888 11.9961 12.8045 11.9424 12.7246L11.7852 12.5C11.4753 12.0803 11.0311 11.572 10.7764 10.9883L10.7773 10.9873C10.6095 10.6073 10.5137 10.1899 10.5137 9.69629C10.5137 9.01625 10.7535 8.38306 11.1475 7.89453L11.1484 7.89355L11.2451 7.78027C11.7432 7.22828 12.4598 6.87514 13.2578 6.875ZM9.19336 12.8691C9.51235 12.9343 9.75278 13.2165 9.75293 13.5547C9.75293 13.893 9.51245 14.175 9.19336 14.2402L9.05273 14.2549H7.16504C6.77851 14.2548 6.46484 13.9412 6.46484 13.5547C6.46501 13.1683 6.77861 12.8546 7.16504 12.8545H9.05273L9.19336 12.8691ZM13.2578 8.27539C12.8597 8.27553 12.4901 8.46113 12.2363 8.77344L12.2373 8.77441C12.0379 9.02186 11.9141 9.34634 11.9141 9.69629C11.9141 9.92482 11.9452 10.1092 11.998 10.2705L12.0576 10.4248L12.0596 10.4287L12.1279 10.5713C12.2987 10.8955 12.5472 11.1747 12.9121 11.6689L13.1045 11.9434C13.1588 12.0242 13.2113 12.1077 13.2637 12.1904C13.4448 11.901 13.6301 11.6526 13.7959 11.4355C13.9761 11.1996 14.1204 11.0174 14.2461 10.8291C14.4754 10.4855 14.6102 10.1708 14.6104 9.70117C14.6104 9.46043 14.5529 9.23578 14.4531 9.03418L14.3848 8.91211C14.2378 8.67805 14.0295 8.49632 13.7881 8.38867L13.6641 8.3418L13.6631 8.34082C13.5356 8.29875 13.3967 8.27542 13.2578 8.27539ZM9.19336 10.085C9.51234 10.1501 9.75276 10.4323 9.75293 10.7705C9.75293 11.1089 9.51245 11.3909 9.19336 11.4561L9.05273 11.4707H7.16504C6.77851 11.4706 6.46484 11.1571 6.46484 10.7705C6.46504 10.3841 6.77863 10.0704 7.16504 10.0703H9.05273L9.19336 10.085ZM13.2627 8.78809C13.6974 8.78809 14.0498 9.14048 14.0498 9.5752C14.0497 10.0098 13.6974 10.3623 13.2627 10.3623C12.8281 10.3623 12.4757 10.0098 12.4756 9.5752C12.4756 9.1405 12.828 8.78812 13.2627 8.78809ZM9.19336 7.32617C9.51224 7.39143 9.75181 7.67358 9.75195 8.01172C9.75195 8.34999 9.51233 8.63199 9.19336 8.69727L9.05273 8.71191H7.04395C6.65751 8.71172 6.34375 8.3982 6.34375 8.01172C6.34392 7.62538 6.65761 7.31172 7.04395 7.31152H9.05273L9.19336 7.32617Z" fill="#15C674"/>
</svg>
