<svg width="24" height="24" viewBox="0 0 24 24" fill="none" xmlns="http://www.w3.org/2000/svg">
<path fill-rule="evenodd" clip-rule="evenodd" d="M10 5.4H6C5.66863 5.4 5.4 5.66863 5.4 6V10C5.4 10.3314 5.66863 10.6 6 10.6H10C10.3314 10.6 10.6 10.3314 10.6 10V6C10.6 5.66863 10.3314 5.4 10 5.4ZM6 4C4.89543 4 4 4.89543 4 6V10C4 11.1046 4.89543 12 6 12H10C11.1046 12 12 11.1046 12 10V6C12 4.89543 11.1046 4 10 4H6Z" fill="#333333"/>
<path fill-rule="evenodd" clip-rule="evenodd" d="M18 13.4H14C13.6686 13.4 13.4 13.6686 13.4 14V18C13.4 18.3314 13.6686 18.6 14 18.6H18C18.3314 18.6 18.6 18.3314 18.6 18V14C18.6 13.6686 18.3314 13.4 18 13.4ZM14 12C12.8954 12 12 12.8954 12 14V18C12 19.1046 12.8954 20 14 20H18C19.1046 20 20 19.1046 20 18V14C20 12.8954 19.1046 12 18 12H14Z" fill="#333333"/>
<path fill-rule="evenodd" clip-rule="evenodd" d="M8 11.3C8.3866 11.3 8.7 11.6134 8.7 12V14.6667C8.7 14.8346 8.76673 14.9957 8.8855 15.1145C9.00427 15.2333 9.16536 15.3 9.33333 15.3H12C12.3866 15.3 12.7 15.6134 12.7 16C12.7 16.3866 12.3866 16.7 12 16.7H9.33333C8.79406 16.7 8.27687 16.4858 7.89555 16.1045C7.51423 15.7231 7.3 15.2059 7.3 14.6667V12C7.3 11.6134 7.6134 11.3 8 11.3Z" fill="#333333"/>
</svg>
