<svg width="24" height="24" viewBox="0 0 24 24" fill="none" xmlns="http://www.w3.org/2000/svg">
<path d="M7.79596 6.08945H16.2578C17.02 6.08945 17.6378 6.7073 17.6378 7.46945V10.6251L16.4457 9.60329C16.1522 9.35169 15.7103 9.38568 15.4587 9.67921C15.2071 9.97274 15.2411 10.4146 15.5346 10.6662L18.0757 12.8444C18.3412 13.0719 18.7339 13.0687 18.9956 12.8367L21.4531 10.6586C21.7424 10.4022 21.7691 9.9598 21.5127 9.67048C21.2563 9.38116 20.8139 9.35449 20.5245 9.61091L19.0378 10.9285V7.46945C19.0378 5.9341 17.7932 4.68945 16.2578 4.68945H7.79596C6.26061 4.68945 5.01596 5.9341 5.01596 7.46945V8.8583C5.01596 9.17969 5.23481 9.45978 5.54666 9.53751C5.98834 9.64761 6.41596 9.3135 6.41596 8.8583V7.46945C6.41596 6.7073 7.03381 6.08945 7.79596 6.08945Z" fill="#333333"/>
<path d="M5.01596 13.1911L3.58032 14.4635C3.29099 14.7199 2.84858 14.6932 2.59216 14.4039C2.33574 14.1146 2.36241 13.6722 2.65173 13.4158L5.1093 11.2377C5.37098 11.0057 5.76366 11.0025 6.02914 11.2301L8.57027 13.4082C8.8638 13.6598 8.89779 14.1017 8.64619 14.3952C8.3946 14.6887 7.95269 14.7227 7.65916 14.4711L6.41596 13.4055V16.5573C6.41596 17.3194 7.03381 17.9373 7.79596 17.9373H16.2578C17.02 17.9373 17.6378 17.3194 17.6378 16.5573V15.2214C17.6378 14.7662 18.0655 14.4321 18.5072 14.5422C18.819 14.62 19.0378 14.9001 19.0378 15.2214V16.5573C19.0378 18.0926 17.7932 19.3373 16.2578 19.3373H7.79596C6.26061 19.3373 5.01596 18.0926 5.01596 16.5573V13.1911Z" fill="#333333"/>
</svg>
