<svg width="24" height="24" viewBox="0 0 24 24" fill="none" xmlns="http://www.w3.org/2000/svg">
<path d="M17.0554 7.86275C15.4409 5.87498 12.6703 5.03806 10.0765 5.77371C7.45186 6.51809 5.99038 8.85533 5.65365 11.7424C5.60887 12.1264 5.26127 12.4014 4.87728 12.3566C4.49328 12.3118 4.21829 11.9642 4.26308 11.5802C4.6404 8.34502 6.34356 5.3772 9.69446 4.42683C12.6063 3.60097 15.7475 4.41991 17.7655 6.55091V5.21953C17.7655 4.83293 18.0789 4.51953 18.4655 4.51953C18.8521 4.51953 19.1655 4.83293 19.1655 5.21953V8.44481L19.1654 8.45878C19.1699 8.66593 19.0828 8.87302 18.9104 9.01492C18.6119 9.26061 18.1708 9.21782 17.9251 8.91933L17.0554 7.86275Z" fill="#333333"/>
<path d="M6.37754 17.4103C8.39754 19.5309 11.536 20.3441 14.4442 19.521C17.7974 18.5719 19.5026 15.6076 19.8803 12.3751C19.9252 11.9911 19.6503 11.6434 19.2663 11.5985C18.8823 11.5537 18.5347 11.8286 18.4898 12.2126C18.1529 15.0954 16.6906 17.4302 14.0629 18.1739C11.3979 18.9282 8.54817 18.0277 6.9526 15.9298L6.2351 14.9848C6.00132 14.6769 5.5622 14.6168 5.25429 14.8506C5.07246 14.9886 4.97705 15.1983 4.97754 15.4102L4.97754 15.4119L4.97754 18.7445C4.97754 19.1311 5.29094 19.4445 5.67754 19.4445C6.06414 19.4445 6.37754 19.1311 6.37754 18.7445V17.4103Z" fill="#333333"/>
<path d="M9.09814 15.9451C9.09814 15.5585 9.41155 15.2451 9.79814 15.2451H14.2027C14.5893 15.2451 14.9027 15.5585 14.9027 15.9451C14.9027 16.3317 14.5893 16.6451 14.2027 16.6451H9.79814C9.41155 16.6451 9.09814 16.3317 9.09814 15.9451Z" fill="#333333"/>
<path d="M12.7198 7.7152C12.6622 7.38652 12.3754 7.13672 12.0303 7.13672C11.6902 7.13672 11.4067 7.37924 11.3435 7.70077C11.0125 7.78042 10.7083 7.9221 10.455 8.1296C10.0215 8.48473 9.77201 9.00996 9.81738 9.60707C9.85969 10.164 10.1432 10.6034 10.5648 10.9014C10.9622 11.1822 11.4649 11.3286 11.9857 11.3952C12.3852 11.4463 12.63 11.5463 12.7598 11.6449C12.8575 11.7191 12.9023 11.7959 12.9023 11.9411C12.9023 12.1206 12.8443 12.2135 12.7622 12.2786C12.6594 12.3601 12.4377 12.4577 12.0215 12.4577C11.5945 12.4577 11.3763 12.3576 11.2673 12.279C11.1586 12.2007 11.0985 12.1005 11.064 11.993C10.946 11.6249 10.5518 11.4221 10.1837 11.5402C9.81558 11.6582 9.61284 12.0523 9.73088 12.4205C9.83723 12.7521 10.05 13.1274 10.4486 13.4147C10.6976 13.5942 10.9955 13.7224 11.343 13.7933C11.4072 14.1136 11.69 14.3549 12.0293 14.3549C12.3701 14.3549 12.654 14.1114 12.7165 13.7889C13.0585 13.7162 13.3709 13.5828 13.6324 13.3753C14.0837 13.0172 14.3023 12.5017 14.3023 11.9411C14.3023 11.346 14.0429 10.8615 13.6066 10.5301C13.2024 10.223 12.6833 10.073 12.1634 10.0065C11.7647 9.9555 11.5128 9.85696 11.3729 9.7581C11.2573 9.67636 11.221 9.60116 11.2134 9.501C11.2045 9.38488 11.2421 9.29462 11.3422 9.21256C11.4567 9.11879 11.6781 9.02305 12.0215 9.02305C12.4604 9.02305 12.7433 9.20466 12.8954 9.55589C13.049 9.91064 13.4612 10.0737 13.8159 9.92C14.1707 9.76634 14.3337 9.35419 14.1801 8.99944C13.8835 8.31476 13.3512 7.89002 12.7198 7.7152Z" fill="#333333"/>
</svg>
