<svg width="24" height="24" viewBox="0 0 24 24" fill="none" xmlns="http://www.w3.org/2000/svg">
<path d="M15.8956 5.15435C15.6225 4.88067 15.623 4.43745 15.8967 4.16441C16.1704 3.89136 16.6136 3.89188 16.8867 4.16557L19.555 6.84021L19.562 6.84702C19.699 6.98377 19.7676 7.1632 19.7676 7.34264C19.7676 7.52208 19.699 7.70151 19.562 7.83826L19.555 7.84508L16.8867 10.5197C16.6136 10.7934 16.1704 10.7939 15.8967 10.5209C15.623 10.2478 15.6225 9.80462 15.8956 9.53093L17.38 8.04303L6.93145 8.043C6.21348 8.043 5.63145 8.62503 5.63145 9.343L5.63145 10.5686C5.63145 10.9552 5.31804 11.2686 4.93145 11.2686C4.54485 11.2686 4.23145 10.9552 4.23145 10.5686V9.343C4.23145 7.85183 5.44028 6.643 6.93145 6.643L17.3807 6.64303L15.8956 5.15435Z" fill="#333333"/>
<path d="M19.3213 13.4334C19.3213 13.0468 19.0079 12.7334 18.6213 12.7334C18.2347 12.7334 17.9213 13.0468 17.9213 13.4334L17.9213 14.7572C17.9213 15.4752 17.3393 16.0573 16.6213 16.0572L6.61912 16.0572L8.10346 14.5694C8.37651 14.2957 8.37599 13.8525 8.1023 13.5794C7.82861 13.3064 7.3854 13.3069 7.11235 13.5806L4.44399 16.2552C4.44167 16.2575 4.43935 16.2598 4.43705 16.2621C4.29998 16.3988 4.23143 16.5782 4.23145 16.7577C4.23143 16.9371 4.29998 17.1166 4.43705 17.2533C4.43934 17.2556 4.44165 17.2579 4.44396 17.2601L7.11235 19.9348C7.3854 20.2084 7.82861 20.209 8.1023 19.9359C8.37599 19.6629 8.37651 19.2197 8.10346 18.946L6.6182 17.4572L16.6213 17.4572C18.1125 17.4573 19.3213 16.2484 19.3213 14.7572L19.3213 13.4334Z" fill="#333333"/>
</svg>
