<svg width="24" height="24" viewBox="0 0 24 24" fill="none" xmlns="http://www.w3.org/2000/svg">
<path fill-rule="evenodd" clip-rule="evenodd" d="M13.4311 4.73938C13.1422 4.60177 12.7813 4.61224 12.4907 4.81457L12.3706 4.91321L6.6567 10.422C6.22207 10.8412 6.22212 11.5496 6.6567 11.9689L12.3706 17.4767C12.6768 17.7719 13.1008 17.8089 13.4311 17.6515C13.7553 17.4968 13.9799 17.1633 13.9799 16.7706V13.9738C16.5716 14.2487 18.1674 16.2596 19.3432 17.4581C20.0444 18.1726 21.14 17.4885 20.9516 16.587L20.7534 15.6173C20.5152 14.4928 20.1299 12.9658 19.3569 11.588C18.3676 9.8248 16.7223 8.26562 13.9799 7.99426V5.61926C13.9798 5.22678 13.7551 4.89407 13.4311 4.73938ZM12.5805 8.65637C12.5805 9.04283 12.8933 9.35633 13.2797 9.35657C13.2913 9.35657 13.3024 9.35665 13.311 9.35657C13.3208 9.35647 13.3256 9.35565 13.3325 9.35559C13.344 9.3555 13.3497 9.35645 13.353 9.35657C15.8527 9.43273 17.2621 10.7157 18.1362 12.2736C18.699 13.2769 19.0294 14.3759 19.2563 15.338C18.0032 14.0838 16.0929 12.5425 13.3803 12.5421C13.3451 12.5421 13.3121 12.5421 13.2797 12.5421C12.8936 12.5423 12.581 12.8552 12.5805 13.2413V15.7345L7.87154 11.1945L12.5805 6.65539V8.65637Z" fill="#15C674"/>
<path d="M9.36178 5.25696C9.09349 4.97896 8.64978 4.97133 8.37154 5.23938L2.98092 10.4366C2.55455 10.8478 2.55453 11.5421 2.98092 11.9532L8.37154 17.1505C8.64986 17.4187 9.09349 17.4102 9.36178 17.132C9.62956 16.8538 9.62194 16.4109 9.3442 16.1427L4.21236 11.1945L9.3442 6.24719C9.62201 5.97886 9.62982 5.53512 9.36178 5.25696Z" fill="#15C674"/>
</svg>
