<svg width="24" height="24" viewBox="0 0 24 24" fill="none" xmlns="http://www.w3.org/2000/svg">
<path fill-rule="evenodd" clip-rule="evenodd" d="M10.4948 5.00483C10.7681 5.2782 10.7681 5.72141 10.4948 5.99478L5.98975 10.4998L10.4948 15.0048C10.7681 15.2782 10.7681 15.7214 10.4948 15.9948C10.2214 16.2681 9.7782 16.2681 9.50483 15.9948L4.50483 10.9948C4.23146 10.7214 4.23146 10.2782 4.50483 10.0048L9.50483 5.00483C9.7782 4.73146 10.2214 4.73146 10.4948 5.00483Z" fill="#333333"/>
<path fill-rule="evenodd" clip-rule="evenodd" d="M4.96649 10.4998C4.96649 10.1132 5.27989 9.7998 5.66649 9.7998H15.1665C16.192 9.7998 17.1755 10.2072 17.9006 10.9323C18.6258 11.6575 19.0332 12.641 19.0332 13.6665V17.4998C19.0332 17.8864 18.7198 18.1998 18.3332 18.1998C17.9466 18.1998 17.6332 17.8864 17.6332 17.4998V13.6665C17.6332 13.0123 17.3733 12.3849 16.9107 11.9223C16.4481 11.4597 15.8207 11.1998 15.1665 11.1998H5.66649C5.27989 11.1998 4.96649 10.8864 4.96649 10.4998Z" fill="#333333"/>
</svg>
