<svg width="24" height="24" viewBox="0 0 24 24" fill="none" xmlns="http://www.w3.org/2000/svg">
<path fill-rule="evenodd" clip-rule="evenodd" d="M11.6753 5.7877C10.4269 5.7877 9.20564 6.16295 8.16603 6.86715C7.12631 7.57143 6.31451 8.57346 5.83475 9.74762C5.35497 10.9219 5.22929 12.2145 5.474 13.4617C5.71871 14.7088 6.32249 15.8531 7.20754 16.7503C8.09248 17.6474 9.2188 18.2573 10.4435 18.5043C10.8225 18.5807 11.0678 18.9498 10.9914 19.3288C10.9149 19.7078 10.5458 19.953 10.1668 19.8766C8.66682 19.5742 7.29032 18.8278 6.21085 17.7335C5.13148 16.6393 4.39747 15.2463 4.1002 13.7312C3.80293 12.2162 3.95542 10.6458 4.53876 9.21808C5.12214 7.7903 6.1107 6.56842 7.38089 5.70804C8.65119 4.84757 10.1457 4.3877 11.6753 4.3877C13.8309 4.3877 15.8851 5.25474 17.4235 6.75396L17.4333 6.76359L19.1968 8.55154C19.4683 8.82677 19.4653 9.26998 19.1901 9.54147C18.9149 9.81296 18.4717 9.80994 18.2002 9.53471L16.4415 7.75189C15.1556 6.50104 13.4505 5.7877 11.6753 5.7877Z" fill="#333333"/>
<path fill-rule="evenodd" clip-rule="evenodd" d="M18.7712 4.56738C19.1578 4.56738 19.4712 4.88078 19.4712 5.26738V9.20362C19.4712 9.59022 19.1578 9.90362 18.7712 9.90362H14.999C14.6124 9.90362 14.299 9.59022 14.299 9.20362C14.299 8.81702 14.6124 8.50362 14.999 8.50362H18.0712V5.26738C18.0712 4.88078 18.3846 4.56738 18.7712 4.56738Z" fill="#333333"/>
</svg>
