<svg width="24" height="24" viewBox="0 0 24 24" fill="none" xmlns="http://www.w3.org/2000/svg">
<path d="M8.9707 12.3597C8.9707 11.8849 9.35561 11.5 9.83043 11.5C10.3052 11.5 10.6901 11.8849 10.6901 12.3597C10.6901 12.8345 10.3052 13.2194 9.83043 13.2194C9.35561 13.2194 8.9707 12.8345 8.9707 12.3597Z" fill="#333333"/>
<path d="M14.1156 11.5C13.6408 11.5 13.2559 11.8849 13.2559 12.3597C13.2559 12.8345 13.6408 13.2194 14.1156 13.2194C14.5904 13.2194 14.9753 12.8345 14.9753 12.3597C14.9753 11.8849 14.5904 11.5 14.1156 11.5Z" fill="#333333"/>
<path fill-rule="evenodd" clip-rule="evenodd" d="M12.071 9.2793C10.5744 9.2793 9.18593 9.65325 8.14901 10.2943C7.12313 10.9285 6.34473 11.8964 6.34473 13.0861C6.34473 13.6891 6.55439 14.203 7.00476 14.5603C7.41198 14.8833 7.93663 15.0119 8.43347 15.0717C8.94208 15.1329 9.52752 15.1325 10.1294 15.1199C10.323 15.1159 10.5184 15.1106 10.7165 15.1053C11.1517 15.0935 11.6005 15.0814 12.071 15.0814C12.5428 15.0814 12.9923 15.0936 13.4287 15.1054C13.6263 15.1108 13.8212 15.1161 14.0143 15.1201C14.6165 15.1328 15.2023 15.1334 15.7111 15.0723C16.2081 15.0126 16.733 14.8841 17.1403 14.5609C17.5909 14.2034 17.8004 13.6892 17.8004 13.0861C17.8004 11.8954 17.0208 10.9275 15.9942 10.2936C14.9565 9.65282 13.5674 9.2793 12.071 9.2793ZM7.74473 13.0861C7.74473 12.5612 8.09179 11.9756 8.8852 11.4851C9.66757 11.0014 10.7922 10.6793 12.071 10.6793C13.3498 10.6793 14.4754 11.0012 15.2586 11.4848C16.0529 11.9753 16.4004 12.5608 16.4004 13.0861C16.4004 13.3411 16.3286 13.4178 16.2702 13.4641C16.1687 13.5447 15.9572 13.6327 15.5441 13.6823C15.1429 13.7305 14.6449 13.7331 14.0437 13.7205C13.8674 13.7167 13.6819 13.7117 13.4894 13.7065C13.0444 13.6944 12.5622 13.6814 12.071 13.6814C11.5812 13.6814 11.1004 13.6943 10.6565 13.7063C10.4633 13.7115 10.2771 13.7166 10.1002 13.7203C9.49944 13.7328 9.00177 13.73 8.60074 13.6818C8.18794 13.6321 7.9764 13.5441 7.87484 13.4635C7.81643 13.4172 7.74473 13.3405 7.74473 13.0861Z" fill="#333333"/>
<path fill-rule="evenodd" clip-rule="evenodd" d="M16.8047 5.075C16.9618 4.72173 17.3755 4.56267 17.7287 4.71971C18.082 4.87676 18.241 5.29045 18.084 5.64371L17.0193 8.03866C18.7927 9.5458 20.2831 11.9788 20.3376 14.9872C20.3589 16.1635 20.1505 17.0873 19.6329 17.7504C19.1015 18.4311 18.3449 18.7103 17.5634 18.8133C16.7971 18.9143 15.9131 18.8577 15.0247 18.7864C14.8894 18.7756 14.7534 18.7643 14.6165 18.753C13.8299 18.6879 13.0175 18.6206 12.1752 18.6174C11.3292 18.6142 10.5115 18.6692 9.71955 18.7225C9.56205 18.7331 9.40549 18.7436 9.25002 18.7536C8.336 18.8123 7.43285 18.8545 6.6504 18.7465C5.85798 18.6371 5.08995 18.3607 4.5449 17.6989C4.00665 17.0454 3.78625 16.1371 3.807 14.9872C3.85919 12.0941 5.01407 9.64538 7.12418 7.99115L5.93501 5.82287C5.74911 5.4839 5.87319 5.05841 6.21216 4.87251C6.55112 4.68661 6.97661 4.81069 7.16252 5.14966L8.29383 7.21244C9.27336 6.67434 10.6259 6.33228 12.0207 6.31155C13.2946 6.29261 14.6633 6.54109 15.8549 7.21148L16.8047 5.075ZM12.0415 7.71139C10.7916 7.72997 9.63504 8.05123 8.8907 8.48306C6.56121 9.83452 5.25898 12.1185 5.20677 15.0125C5.18902 15.9964 5.38579 16.5177 5.62556 16.8089C5.85853 17.0917 6.22937 17.2751 6.84187 17.3596C7.46434 17.4456 8.23214 17.416 9.16031 17.3564C9.30755 17.347 9.45836 17.3368 9.61231 17.3264C10.4044 17.2731 11.2801 17.214 12.1805 17.2174C13.0828 17.2208 13.9566 17.2933 14.7416 17.3585C14.8759 17.3696 15.0079 17.3806 15.1366 17.3909C16.0429 17.4636 16.7832 17.504 17.3804 17.4253C17.9625 17.3486 18.3088 17.1714 18.5294 16.8888C18.7637 16.5887 18.9565 16.0427 18.9378 15.0125C18.8858 12.1454 17.2885 9.87849 15.5396 8.66392C14.5487 7.97579 13.2872 7.69287 12.0415 7.71139Z" fill="#333333"/>
</svg>
