<svg width="24" height="24" viewBox="0 0 24 24" fill="none" xmlns="http://www.w3.org/2000/svg">
<path fill-rule="evenodd" clip-rule="evenodd" d="M14.232 11.7335C15.3614 11.7335 16.277 10.8179 16.277 9.68852C16.277 8.55912 15.3614 7.64355 14.232 7.64355C13.1026 7.64355 12.187 8.55912 12.187 9.68852C12.187 10.8179 13.1026 11.7335 14.232 11.7335ZM14.232 10.3335C14.5882 10.3335 14.877 10.0447 14.877 9.68852C14.877 9.33232 14.5882 9.04355 14.232 9.04355C13.8758 9.04355 13.587 9.33232 13.587 9.68852C13.587 10.0447 13.8758 10.3335 14.232 10.3335Z" fill="#333333"/>
<path fill-rule="evenodd" clip-rule="evenodd" d="M19.4355 5.65155C19.44 4.99185 18.9025 4.43735 18.2219 4.45449C15.1318 4.53228 12.434 5.48899 10.3146 7.46919C10.3118 7.46785 10.309 7.46651 10.3062 7.46516C10.1216 7.37737 9.8598 7.26723 9.55471 7.18176C8.97394 7.01904 8.07636 6.90274 7.29134 7.42175L7.29041 7.42237C6.59963 7.88065 5.27412 9.06958 4.51462 9.76439C3.81926 10.4005 4.10322 11.5337 4.99038 11.7918L6.64625 12.2734C6.58451 12.3882 6.52446 12.5083 6.46654 12.6348C6.2519 13.1032 6.38104 13.6262 6.71457 13.9572L9.72481 16.9449C10.0985 17.3158 10.6747 17.4023 11.1424 17.1461C11.2679 17.0773 11.3886 17.0103 11.5053 16.9447L12.0647 18.8675C12.3228 19.7547 13.4559 20.0386 14.0921 19.3433C14.7869 18.5838 15.9758 17.2583 16.4341 16.5675L16.4347 16.5666C16.9537 15.7816 16.8374 14.884 16.6747 14.3032C16.5919 14.0078 16.486 13.753 16.3997 13.5696C17.4427 12.5766 18.1417 11.5765 18.6015 10.5488C19.3376 8.90364 19.4245 7.2619 19.4355 5.65155ZM15.2796 14.5289C15.2961 14.5778 15.312 14.6286 15.3266 14.6809C15.4515 15.1266 15.4479 15.5203 15.2671 15.7941C14.9245 16.3102 14.0139 17.3462 13.307 18.1261L12.7503 16.2122C13.0352 16.0378 13.3224 15.8585 13.6349 15.6635L13.6367 15.6624C13.772 15.5779 13.9121 15.4905 14.0588 15.3992L14.0744 15.3892C14.5095 15.1021 14.9104 14.8155 15.2796 14.5289ZM7.46564 11.0538C7.5233 10.9793 7.58032 10.9065 7.63689 10.8342C7.88657 10.5152 8.12753 10.2073 8.37677 9.8246C8.6631 9.37438 8.96744 8.95428 9.28892 8.56361C9.2525 8.55185 9.21514 8.54053 9.17702 8.52985C8.7313 8.40497 8.33764 8.40857 8.06386 8.58932C7.5477 8.9319 6.51168 9.84256 5.73186 10.5494L7.46564 11.0538ZM9.55624 10.5788C11.5202 7.48885 14.414 6.00789 18.0334 5.86138C18.0151 7.35366 17.9047 8.67818 17.3236 9.97706C16.7199 11.3263 15.5721 12.7223 13.3111 14.2155C13.1645 14.3067 13.0253 14.3936 12.8915 14.4771C12.0721 14.9885 11.4559 15.3731 10.6036 15.8446L7.80939 13.0713C8.00957 12.6698 8.24293 12.3395 8.51542 11.985C8.58011 11.9008 8.64822 11.8138 8.71895 11.7235C8.9751 11.3965 9.26556 11.0257 9.55221 10.5851L9.55624 10.5788Z" fill="#333333"/>
<path d="M6.74338 14.8341C7.0332 14.9948 7.13789 15.36 6.97723 15.6498C6.88863 15.8096 6.68624 16.2387 6.60661 17.0091C6.88986 16.9943 7.16141 16.9509 7.39965 16.8964C7.59538 16.8515 7.76178 16.8007 7.88522 16.7565C7.98166 16.722 8.03434 16.6978 8.05249 16.6895C8.06056 16.6858 8.06181 16.6852 8.05703 16.6883C8.33615 16.5097 8.70721 16.5911 8.88582 16.8702C9.06443 17.1494 8.98295 17.5204 8.70384 17.699C8.5982 17.7666 8.44163 17.8319 8.28955 17.8864C8.12153 17.9465 7.90958 18.0106 7.66755 18.0661C7.18739 18.176 6.56141 18.2581 5.91087 18.1892C5.60315 18.1566 5.37067 17.8954 5.37406 17.586C5.38886 16.2338 5.72481 15.434 5.92771 15.068C6.08838 14.7782 6.45356 14.6735 6.74338 14.8341Z" fill="#333333"/>
</svg>
