<svg width="24" height="24" viewBox="0 0 24 24" fill="none" xmlns="http://www.w3.org/2000/svg">
<path fill-rule="evenodd" clip-rule="evenodd" d="M14.1649 10.1689L12.9818 12.5779L15.2314 13.995C15.5867 14.2188 15.7253 14.6685 15.5577 15.0535L13.8699 18.9296C13.6825 19.36 13.1817 19.557 12.7513 19.3696C12.3208 19.1822 12.1239 18.6814 12.3113 18.251L13.7075 15.0442L11.4288 13.6087C11.3898 13.5841 11.3534 13.5568 11.3197 13.5272L9.81147 16.4358C9.62305 16.7992 9.20242 16.9766 8.81067 16.8581L5.53807 15.8677C5.08875 15.7317 4.83475 15.2572 4.97073 14.8079C5.10671 14.3586 5.58119 14.1046 6.0305 14.2405L8.62733 15.0264L11.7906 8.92627L11.797 8.91414L9.63397 9.29725L8.44887 10.5562C8.1271 10.898 7.58916 10.9142 7.24734 10.5925C6.90552 10.2707 6.88928 9.73274 7.21105 9.39092L8.58932 7.92681C8.71474 7.79357 8.98912 7.67531 9.1693 7.6434C9.1693 7.6434 11.0691 7.28268 11.4484 7.22736C11.8278 7.17205 12.2145 7.17036 12.3748 7.24723L15.095 8.55157C15.2816 8.64108 15.4292 8.79564 15.51 8.98624L16.2254 10.6737L17.72 10.1519C18.1632 9.99714 18.648 10.231 18.8027 10.6742C18.9574 11.1174 18.784 11.5962 18.2804 11.7569L16.0339 12.5412C15.8914 12.5909 15.7442 12.6005 15.6049 12.5756C15.3898 12.5372 15.1935 12.4165 15.0629 12.2342C15.027 12.1841 14.9961 12.1294 14.9711 12.0704L14.1649 10.1689ZM8.56807 12.0995C7.80224 12.3647 6.91873 12.2058 6.28773 11.6118C5.38292 10.7601 5.33991 9.33611 6.19167 8.43131L7.56994 6.96719C7.80645 6.71595 8.08671 6.56308 8.26313 6.48014C8.4535 6.39064 8.68181 6.3092 8.91451 6.26676L9.21281 6.21039C9.39756 6.17557 9.6481 6.12852 9.91079 6.0797C10.4176 5.9855 11.0224 5.87468 11.2464 5.84202C11.4948 5.8058 11.7615 5.78438 12.0131 5.78786C12.0977 5.78903 12.2278 5.79257 12.38 5.81314C12.3798 5.80219 12.3798 5.79122 12.3798 5.78024C12.3798 4.24961 13.6206 3.00879 15.1512 3.00879C16.6818 3.00879 17.9227 4.24961 17.9227 5.78024C17.9227 6.76568 17.4084 7.631 16.6335 8.1224C16.6967 8.22307 16.7521 8.32913 16.799 8.43979L17.0024 8.91955L17.2586 8.83011C18.4318 8.42053 19.7149 9.03956 20.1244 10.2128C20.3058 10.7321 20.3153 11.3346 20.0672 11.8913C19.8132 12.4613 19.3315 12.8846 18.7277 13.0836L16.8124 13.7522C17.0817 14.3223 17.1086 14.9985 16.8413 15.6124L15.1535 19.4885C14.6574 20.6279 13.3317 21.1493 12.1923 20.6532C11.053 20.1571 10.5316 18.8314 11.0277 17.692L11.9439 15.5878L11.8567 15.5329L11.0543 17.0803C10.5555 18.0421 9.44213 18.5119 8.40513 18.1981L5.13253 17.2076C3.94317 16.8477 3.2708 15.5917 3.63075 14.4023C3.9907 13.213 5.24667 12.5406 6.43604 12.9006L7.91983 13.3496L8.56807 12.0995ZM14.252 6.81576C14.2582 6.82118 14.2645 6.82655 14.2708 6.83186C14.5091 7.0315 14.8161 7.15169 15.1512 7.15169C15.2276 7.15169 15.3025 7.14545 15.3755 7.13345C16.0262 7.02641 16.5227 6.4613 16.5227 5.78024C16.5227 5.02281 15.9086 4.40879 15.1512 4.40879C14.3938 4.40879 13.7798 5.02281 13.7798 5.78024C13.7798 6.02455 13.8436 6.25394 13.9556 6.45261C14.0331 6.59012 14.1336 6.71291 14.252 6.81576Z" fill="#333333"/>
</svg>
