<svg width="24" height="24" viewBox="0 0 24 24" fill="none" xmlns="http://www.w3.org/2000/svg">
<path d="M10.7367 9.23945C10.7367 10.0955 10.0428 10.7895 9.18672 10.7895C8.33068 10.7895 7.63672 10.0955 7.63672 9.23945C7.63672 8.38341 8.33068 7.68945 9.18672 7.68945C10.0428 7.68945 10.7367 8.38341 10.7367 9.23945Z" fill="#333333"/>
<path fill-rule="evenodd" clip-rule="evenodd" d="M6.53642 4.88965C5.59754 4.88965 4.83643 5.65077 4.83643 6.58965V12.1772C4.83643 12.6281 5.01553 13.0605 5.33434 13.3793L11.5461 19.591C12.4776 20.5225 13.9991 20.5225 14.9306 19.591L19.5378 14.9838C20.4693 14.0523 20.4693 12.5308 19.5378 11.5993L13.326 5.38757C13.0072 5.06875 12.5748 4.88965 12.124 4.88965H6.53642ZM6.23643 6.58965C6.23643 6.42396 6.37074 6.28965 6.53642 6.28965H12.124C12.2035 6.28965 12.2798 6.32126 12.3361 6.37752L18.5478 12.5892C18.9326 12.974 18.9326 13.6091 18.5478 13.9939L13.9407 18.6011C13.5559 18.9858 12.9208 18.9858 12.536 18.6011L6.32429 12.3893C6.26803 12.3331 6.23643 12.2568 6.23643 12.1772V6.58965Z" fill="#333333"/>
</svg>
