<svg width="24" height="24" viewBox="0 0 24 24" fill="none" xmlns="http://www.w3.org/2000/svg">
<path d="M15.9995 18.2998C16.3861 18.2998 16.6997 18.6134 16.6997 19C16.6997 19.3866 16.3861 19.7002 15.9995 19.7002H7.99951C7.61291 19.7002 7.29932 19.3866 7.29932 19C7.29932 18.6134 7.61291 18.2998 7.99951 18.2998H15.9995Z" fill="#15C674"/>
<path d="M10.3843 4.96191C10.7709 4.96191 11.0845 5.27551 11.0845 5.66211C11.0845 6.04871 10.7709 6.3623 10.3843 6.3623H6.2417C5.79987 6.3623 5.44189 6.72028 5.44189 7.16211V14.8379C5.44189 15.2797 5.79987 15.6377 6.2417 15.6377H17.7573C18.1992 15.6377 18.5571 15.2797 18.5571 14.8379V13.458C18.5571 13.0714 18.8707 12.7578 19.2573 12.7578C19.6439 12.7578 19.9575 13.0714 19.9575 13.458V14.8379C19.9575 16.0529 18.9724 17.0381 17.7573 17.0381H6.2417C5.02667 17.0381 4.0415 16.0529 4.0415 14.8379V7.16211C4.0415 5.94708 5.02667 4.96191 6.2417 4.96191H10.3843Z" fill="#15C674"/>
<path d="M13.9663 5.35352C14.3527 5.35378 14.6665 5.66727 14.6665 6.05371V10.624C14.6665 11.0105 14.3527 11.324 13.9663 11.3242C13.5797 11.3242 13.2661 11.0106 13.2661 10.624V6.05371C13.2661 5.66711 13.5797 5.35352 13.9663 5.35352Z" fill="#15C674"/>
<path d="M17.1187 5.35352C17.505 5.35378 17.8188 5.66727 17.8188 6.05371V10.624C17.8188 11.0105 17.505 11.324 17.1187 11.3242C16.7321 11.3242 16.4185 11.0106 16.4185 10.624V6.05371C16.4185 5.66711 16.7321 5.35352 17.1187 5.35352Z" fill="#15C674"/>
</svg>
