<svg width="24" height="24" viewBox="0 0 24 24" fill="none" xmlns="http://www.w3.org/2000/svg">
<path d="M14.1201 18.2998C14.5067 18.2998 14.8203 18.6134 14.8203 19C14.8203 19.3866 14.5067 19.7002 14.1201 19.7002H8C7.6134 19.7002 7.2998 19.3866 7.2998 19C7.2998 18.6134 7.6134 18.2998 8 18.2998H14.1201Z" fill="#15C674"/>
<path d="M17.8574 4.95996C19.0171 4.96009 19.9579 5.90089 19.958 7.06055V9.27051C19.958 9.65694 19.6442 9.97044 19.2578 9.9707C18.8712 9.9707 18.5576 9.65711 18.5576 9.27051V7.06055C18.5576 6.67408 18.2439 6.36048 17.8574 6.36035H6.10156C5.715 6.36035 5.40143 6.674 5.40137 7.06055V14.9395C5.40137 15.3261 5.71496 15.6396 6.10156 15.6396H12.4131C12.7995 15.6398 13.1132 15.9534 13.1133 16.3398C13.1131 16.7262 12.7995 17.0399 12.4131 17.04H6.10156C4.94176 17.04 4.00098 16.0992 4.00098 14.9395V7.06055C4.00104 5.9008 4.94181 4.95996 6.10156 4.95996H17.8574Z" fill="#15C674"/>
<path d="M20.498 11.5605C20.7528 11.2698 21.1955 11.2404 21.4863 11.4951C21.7767 11.7497 21.806 12.1917 21.5518 12.4824L17.7979 16.7686C17.5448 17.057 17.1066 17.0879 16.8154 16.8379L14.5068 14.8555C14.2135 14.6036 14.1798 14.1615 14.4316 13.8682C14.6835 13.575 15.1257 13.5412 15.4189 13.793L17.2012 15.3242L20.498 11.5605Z" fill="#15C674"/>
</svg>
