<svg width="24" height="24" viewBox="0 0 24 24" fill="none" xmlns="http://www.w3.org/2000/svg">
<path fill-rule="evenodd" clip-rule="evenodd" d="M4 7C4 5.89543 4.89543 5 6 5H18C19.1046 5 20 5.89543 20 7V15C20 16.1046 19.1046 17 18 17H6C4.89543 17 4 16.1046 4 15V7ZM6 6.4H18C18.3314 6.4 18.6 6.66863 18.6 7V15C18.6 15.3314 18.3314 15.6 18 15.6H6C5.66863 15.6 5.4 15.3314 5.4 15V7C5.4 6.66863 5.66863 6.4 6 6.4Z" fill="#333333"/>
<path d="M7.9998 18.2998C7.61321 18.2998 7.2998 18.6132 7.2998 18.9998C7.2998 19.3864 7.61321 19.6998 7.9998 19.6998H15.9998C16.3864 19.6998 16.6998 19.3864 16.6998 18.9998C16.6998 18.6132 16.3864 18.2998 15.9998 18.2998H7.9998Z" fill="#333333"/>
</svg>
