<svg width="24" height="24" viewBox="0 0 24 24" fill="none" xmlns="http://www.w3.org/2000/svg">
<path fill-rule="evenodd" clip-rule="evenodd" d="M10.1144 6.3877C10.4331 6.45319 10.673 6.73518 10.673 7.07324C10.673 7.41131 10.4331 7.6933 10.1144 7.75879L9.97281 7.77344H7.08219C6.91656 7.77345 6.78247 7.90764 6.78238 8.07324V15.3037C6.78238 15.4694 6.9165 15.6035 7.08219 15.6035H16.8459L16.9875 15.6182C17.1555 15.6527 17.3 15.7485 17.4005 15.8799L17.424 15.8984L19.63 18.0352L19.7277 18.1445C20.1598 18.7162 19.7622 19.5809 19.0041 19.5811H4.46012C3.68389 19.581 3.27205 18.6644 3.78727 18.084L5.56852 16.0771C5.44964 15.845 5.38199 15.5824 5.38199 15.3037V8.07324C5.38208 7.13447 6.1434 6.3731 7.08219 6.37305H9.97281L10.1144 6.3877ZM5.5734 18.1816H17.7687L16.5529 17.0039H7.08219C6.93854 17.0039 6.79942 16.9837 6.66617 16.9502L5.5734 18.1816Z" fill="#1BCE7B"/>
<path d="M15.5324 10.875C16.0426 10.8751 16.4562 11.2888 16.4562 11.7988C16.4562 12.3091 16.0426 12.7226 15.5324 12.7227C15.0222 12.7227 14.6086 12.3091 14.6086 11.7988C14.6086 11.2887 15.0221 10.875 15.5324 10.875Z" fill="#1BCE7B"/>
<path d="M16.5226 6.66797C16.8413 6.7335 17.0812 7.01548 17.0812 7.35352C17.0812 7.69155 16.8413 7.97353 16.5226 8.03906L16.381 8.05371H14.6838C14.2972 8.05371 13.9836 7.74011 13.9836 7.35352C13.9836 6.96692 14.2972 6.65332 14.6838 6.65332H16.381L16.5226 6.66797Z" fill="#1BCE7B"/>
<path fill-rule="evenodd" clip-rule="evenodd" d="M17.7228 4.52246C18.6617 4.52246 19.423 5.28377 19.423 6.22266V12.9482C19.423 13.8871 18.6617 14.6484 17.7228 14.6484H13.342C12.4032 14.6483 11.6418 13.887 11.6418 12.9482V6.22266C11.6418 5.28386 12.4032 4.52261 13.342 4.52246H17.7228ZM13.342 5.92285C13.1764 5.923 13.0422 6.05707 13.0422 6.22266V12.9482C13.0422 13.1138 13.1764 13.2489 13.342 13.249H17.7228C17.8885 13.249 18.0226 13.1139 18.0226 12.9482V6.22266C18.0226 6.05697 17.8885 5.92285 17.7228 5.92285H13.342Z" fill="#1BCE7B"/>
</svg>
