<svg width="24" height="24" viewBox="0 0 24 24" fill="none" xmlns="http://www.w3.org/2000/svg">
<path d="M9.00489 6.00303C9.00541 6.18148 9.07375 6.35978 9.20991 6.49594C9.21215 6.49818 9.21441 6.50041 9.21668 6.50262L11.2599 8.54576C11.5333 8.81912 11.9765 8.81911 12.2499 8.54573C12.5232 8.27236 12.5232 7.82914 12.2498 7.55578L11.3992 6.70523L11.5136 6.70059C14.1582 6.708 16.2998 8.85419 16.2998 11.5006C16.2998 14.0861 14.2556 16.1941 11.6953 16.2967H5.01948C4.6773 16.2967 4.3999 16.6108 4.3999 16.9983C4.3999 17.3858 4.6773 17.7 5.01948 17.7L11.4709 17.7C11.4805 17.7004 11.4902 17.7006 11.4998 17.7006C14.924 17.7006 17.6998 14.9247 17.6998 11.5006C17.6998 8.07641 14.924 5.30057 11.4998 5.30057C11.4646 5.30057 11.4294 5.30087 11.3943 5.30146L12.2498 4.44595C12.5232 4.17258 12.5232 3.72937 12.2498 3.456C11.9765 3.18263 11.5333 3.18263 11.2599 3.456L9.21666 5.49923C9.2144 5.50144 9.21214 5.50367 9.2099 5.50591C9.07267 5.64314 9.00434 5.82317 9.00489 6.00303Z" fill="#333333"/>
<path d="M17.8735 14.6028C18.1468 14.3294 18.5901 14.3294 18.8634 14.6028L20.7666 16.506C20.8474 16.5868 20.9043 16.6824 20.9373 16.784C20.9532 16.8329 20.9636 16.8832 20.9685 16.9339C20.9877 17.1347 20.9205 17.3423 20.7667 17.4961L18.8635 19.3993C18.5901 19.6726 18.1469 19.6726 17.8735 19.3993C17.6001 19.1259 17.6001 18.6827 17.8735 18.4093L18.5828 17.7H15.5261C16.1202 17.2998 16.6561 16.8271 17.1186 16.2967H18.5774L17.8735 15.5927C17.6001 15.3194 17.6001 14.8762 17.8735 14.6028Z" fill="#333333"/>
<path d="M7.0515 7.22791C7.32236 6.95206 7.76556 6.94801 8.04141 7.21887C8.31726 7.48973 8.32131 7.93293 8.05045 8.20878C7.20924 9.0655 6.74651 10.1768 6.74651 11.5007C6.74651 12.4286 7.00911 13.293 7.46371 14.0262C7.66744 14.3547 7.56625 14.7862 7.23769 14.99C6.90913 15.1937 6.47762 15.0925 6.27389 14.7639C5.68587 13.8156 5.34651 12.6967 5.34651 11.5007C5.34651 9.82336 5.94396 8.35587 7.0515 7.22791Z" fill="#333333"/>
</svg>
