<svg width="24" height="24" viewBox="0 0 24 24" fill="none" xmlns="http://www.w3.org/2000/svg">
<path fill-rule="evenodd" clip-rule="evenodd" d="M15.0592 16.0491C13.8973 16.9731 12.4264 17.5252 10.8266 17.5252C7.06795 17.5252 4.021 14.4782 4.021 10.7196C4.021 6.96101 7.06795 3.91406 10.8266 3.91406C14.5852 3.91406 17.6321 6.96101 17.6321 10.7196C17.6321 12.3741 17.0417 13.8907 16.0601 15.0702L19.9948 19.0049C20.2682 19.2782 20.2682 19.7215 19.9948 19.9948C19.7215 20.2682 19.2782 20.2682 19.0049 19.9948L15.0592 16.0491ZM16.2321 10.7196C16.2321 13.705 13.812 16.1252 10.8266 16.1252C7.84115 16.1252 5.421 13.705 5.421 10.7196C5.421 7.73421 7.84115 5.31406 10.8266 5.31406C13.812 5.31406 16.2321 7.73421 16.2321 10.7196Z" fill="#333333"/>
</svg>
