<svg width="24" height="24" viewBox="0 0 24 24" fill="none" xmlns="http://www.w3.org/2000/svg">
<path fill-rule="evenodd" clip-rule="evenodd" d="M7.04357 5.83798C6.27521 5.48178 5.51823 6.35049 5.97619 7.0629L8.52416 11.0265C8.57144 11.1 8.61262 11.1763 8.6477 11.2545H11.6759C12.0625 11.2545 12.3759 11.5679 12.3759 11.9545C12.3759 12.3411 12.0625 12.6545 11.6759 12.6545H8.65462C8.61807 12.7382 8.57458 12.8197 8.52416 12.8982L5.97619 16.8618C5.51823 17.5742 6.27521 18.4429 7.04357 18.0867L18.5991 12.7298C19.2526 12.4268 19.2526 11.4978 18.5991 11.1948L7.04357 5.83798ZM4.79854 7.81995C3.58265 5.92852 5.59241 3.62214 7.63239 4.56782L19.1879 9.92469C20.923 10.7291 20.923 13.1956 19.1879 14L7.63239 19.3568C5.59241 20.3025 3.58265 17.9961 4.79854 16.1047L7.3465 12.1411C7.41651 12.0322 7.41651 11.8925 7.3465 11.7835L4.79854 7.81995Z" fill="#333333"/>
</svg>
