<svg width="24" height="24" viewBox="0 0 24 24" fill="none" xmlns="http://www.w3.org/2000/svg">
<path d="M5.08164 8.23906C5.08164 7.52109 5.66367 6.93906 6.38164 6.93906H6.43277C6.44115 6.93936 6.44957 6.93951 6.45802 6.93951L17.5621 6.93913C18.2801 6.93911 18.8622 7.52114 18.8622 8.23913V8.50226C18.8622 8.88886 19.1756 9.20226 19.5622 9.20226C19.9488 9.20226 20.2622 8.88886 20.2622 8.50226V8.23913C20.2622 6.74792 19.0533 5.53908 17.5621 5.53913L7.03475 5.53949C7.02656 5.53921 7.01834 5.53906 7.01008 5.53906H6.38164C4.89047 5.53906 3.68164 6.74789 3.68164 8.23906V15.6248C3.68164 17.116 4.89047 18.3248 6.38164 18.3248H6.96329C7.0915 19.4914 8.08029 20.399 9.28105 20.399H11.3964C11.783 20.399 12.0964 20.0856 12.0964 19.699C12.0964 19.3124 11.783 18.999 11.3964 18.999H9.28105C8.85578 18.999 8.49705 18.7141 8.38529 18.3248H10.2359C10.6225 18.3248 10.9359 18.0114 10.9359 17.6248C10.9359 17.2382 10.6225 16.9248 10.2359 16.9248H6.38164C5.66367 16.9248 5.08164 16.3428 5.08164 15.6248V8.23906Z" fill="#1BCE7B"/>
<path fill-rule="evenodd" clip-rule="evenodd" d="M18.6718 15.3438C18.9749 13.9297 17.7283 12.7092 16.3248 13.0057C15.9471 13.0855 15.6145 13.2991 15.368 13.5438C15.1218 13.7882 14.9052 14.1196 14.8242 14.4977C14.5211 15.9116 15.7672 17.1323 17.1709 16.836C17.9197 16.6779 18.5111 16.0936 18.6718 15.3438ZM16.6142 14.3755C17.0434 14.2848 17.3898 14.6451 17.3029 15.0505L16.1931 14.7912C16.2042 14.7392 16.2515 14.6394 16.3543 14.5374C16.4569 14.4355 16.5587 14.3872 16.6142 14.3755ZM16.8818 15.4661C17.0944 15.4213 17.2591 15.255 17.3029 15.0505L16.1931 14.7912C16.1062 15.1964 16.4525 15.5568 16.8818 15.4661Z" fill="#1BCE7B"/>
<path fill-rule="evenodd" clip-rule="evenodd" d="M20.6521 12.1056C20.2931 11.5987 19.6952 11.4241 19.176 11.4964L18.9993 11.521C18.8808 11.5375 18.7674 11.467 18.7296 11.3535L18.6786 11.2C18.509 10.69 18.067 10.2176 17.4265 10.1429C17.0364 10.0973 16.6349 10.0994 16.2398 10.1436C15.6343 10.2114 15.1854 10.6314 14.9867 11.1213L14.9418 11.2318C14.8969 11.3427 14.7792 11.4057 14.662 11.3816L14.4894 11.3462C13.9696 11.2395 13.3587 11.3808 12.9683 11.8665C12.714 12.1828 12.5057 12.5211 12.3429 12.8734C12.0817 13.4383 12.2293 14.0449 12.5521 14.4592L12.6627 14.6011C12.7362 14.6955 12.7319 14.8289 12.6525 14.9183L12.5327 15.0532C12.1844 15.4455 11.9987 16.0397 12.2206 16.6192C12.3624 16.9895 12.5506 17.3444 12.7837 17.6742C13.1426 18.182 13.7411 18.3569 14.2607 18.2846L14.441 18.2595C14.5595 18.243 14.6729 18.3135 14.7106 18.427L14.7724 18.6128C14.9368 19.1069 15.3543 19.5641 15.9644 19.6637C16.3594 19.7282 16.7587 19.742 17.1526 19.707C17.7737 19.6517 18.2262 19.2199 18.4238 18.7327L18.4984 18.5487C18.5434 18.4378 18.6611 18.3748 18.7783 18.3989L18.9516 18.4345C19.472 18.5413 20.0835 18.3996 20.4739 17.9129C20.7277 17.5963 20.9355 17.2579 21.098 16.9055C21.3582 16.3409 21.2105 15.7351 20.8881 15.3212L20.7776 15.1794C20.7041 15.085 20.7083 14.9516 20.7878 14.8622L20.9055 14.7296C21.2539 14.3372 21.4397 13.7428 21.2175 13.1632C21.0752 12.7918 20.8862 12.4361 20.6521 12.1056ZM19.369 12.883C19.4142 12.8767 19.4517 12.8829 19.476 12.8922C19.4982 12.9006 19.5061 12.9098 19.5096 12.9147C19.6752 13.1485 19.8092 13.4006 19.9102 13.6643C19.9126 13.6703 19.9157 13.6823 19.9104 13.7056C19.9046 13.7312 19.889 13.7659 19.8586 13.8001L19.7409 13.9326C19.2133 14.5268 19.1848 15.413 19.6732 16.0399L19.7837 16.1817C19.8118 16.2178 19.8252 16.2533 19.8293 16.279C19.8331 16.3025 19.8291 16.3139 19.8265 16.3195C19.7116 16.5688 19.5639 16.8098 19.3817 17.037C19.3766 17.0433 19.3665 17.0529 19.3427 17.0604C19.3168 17.0685 19.2783 17.0723 19.2332 17.0631L19.0599 17.0275C18.2814 16.8677 17.4998 17.2861 17.2011 18.0225L17.1265 18.2065C17.1092 18.249 17.085 18.2784 17.0648 18.2948C17.0464 18.3097 17.0345 18.312 17.0286 18.3125C16.7501 18.3373 16.4683 18.3275 16.19 18.282C16.1845 18.2811 16.1731 18.2782 16.156 18.2623C16.1372 18.2447 16.1152 18.2141 16.1009 18.1709L16.0391 17.9851C15.7883 17.2311 15.0351 16.7634 14.248 16.8729L14.0677 16.898C14.0224 16.9043 13.9849 16.898 13.9606 16.8888C13.9384 16.8803 13.9305 16.8712 13.927 16.8662C13.7621 16.6329 13.6287 16.3815 13.528 16.1185C13.5257 16.1124 13.5225 16.1004 13.5278 16.0771C13.5336 16.0516 13.5493 16.0169 13.5796 15.9827L13.6993 15.8479C14.227 15.2537 14.2555 14.3675 13.7671 13.7407L13.6565 13.5988C13.6284 13.5626 13.615 13.527 13.6109 13.5013C13.6071 13.4779 13.6111 13.4664 13.6137 13.4609C13.7289 13.2116 13.8769 12.9707 14.0594 12.7436C14.0645 12.7373 14.0746 12.7277 14.0984 12.7203C14.1244 12.7122 14.1628 12.7083 14.2079 12.7176L14.3804 12.753C15.1588 12.9128 15.9405 12.4944 16.2392 11.758L16.284 11.6475C16.3009 11.6058 16.3251 11.5758 16.347 11.5579C16.3675 11.5412 16.3836 11.5363 16.3955 11.535C16.6928 11.5017 16.9873 11.5011 17.2642 11.5334C17.2678 11.5339 17.2774 11.5353 17.294 11.5501C17.3125 11.5668 17.3354 11.5975 17.3501 11.6419L17.4012 11.7954C17.652 12.5494 18.4052 13.0171 19.1923 12.9076L19.369 12.883Z" fill="#1BCE7B"/>
</svg>
