<svg width="24" height="24" viewBox="0 0 24 24" fill="none" xmlns="http://www.w3.org/2000/svg">
<path fill-rule="evenodd" clip-rule="evenodd" d="M10.3795 3.41172C10.5792 3.54065 10.6998 3.76211 10.6998 3.99981V8.34343C10.6998 8.50911 10.8341 8.64343 10.9998 8.64343H12.9998C13.1655 8.64343 13.2998 8.50911 13.2998 8.34343V3.99981C13.2998 3.76211 13.4204 3.54065 13.6201 3.41172C13.8198 3.2828 14.0713 3.26401 14.2879 3.36185C16.3047 4.27266 17.6998 6.34371 17.6998 8.73803C17.6998 10.9657 16.4921 12.9135 14.6998 13.9074V17.9994C14.6998 19.4906 13.491 20.6994 11.9998 20.6994C10.5086 20.6994 9.2998 19.4906 9.2998 17.9994V13.9074C7.50746 12.9135 6.2998 10.9657 6.2998 8.73803C6.2998 6.34371 7.69495 4.27266 9.71169 3.36185C9.92832 3.26401 10.1798 3.2828 10.3795 3.41172ZM9.2998 5.26039C8.32717 6.07697 7.6998 7.32781 7.6998 8.73803C7.6998 10.5824 8.77285 12.1541 10.2879 12.8383C10.5387 12.9515 10.6998 13.2011 10.6998 13.4763V17.9994C10.6998 18.7174 11.2818 19.2994 11.9998 19.2994C12.7178 19.2994 13.2998 18.7174 13.2998 17.9994V13.4763C13.2998 13.2011 13.461 12.9515 13.7117 12.8383C15.2268 12.1541 16.2998 10.5824 16.2998 8.73803C16.2998 7.32781 15.6724 6.07697 14.6998 5.26039V8.34343C14.6998 9.28231 13.9387 10.0434 12.9998 10.0434H10.9998C10.0609 10.0434 9.2998 9.28231 9.2998 8.34343V5.26039Z" fill="#333333"/>
</svg>
