<svg width="24" height="24" viewBox="0 0 24 24" fill="none" xmlns="http://www.w3.org/2000/svg">
<path fill-rule="evenodd" clip-rule="evenodd" d="M14.9498 6.4459H17.3C18.018 6.4459 18.6 7.02793 18.6 7.7459V8.44416C18.5986 8.46249 18.5978 8.48102 18.5978 8.49971L18.5977 9.74625C18.5976 10.1328 18.911 10.4463 19.2976 10.4463C19.6842 10.4464 19.9976 10.133 19.9977 9.74643L19.9977 9.55496L20 9.55568V7.7459C20 6.25473 18.7912 5.0459 17.3 5.0459H6.7C5.20883 5.0459 4 6.25473 4 7.7459V16.2541C4 17.7453 5.20883 18.9541 6.7 18.9541H10.7445C10.6102 18.543 10.5108 18.1162 10.4498 17.677V6.4459H13.5498V9.98516C13.5498 10.3718 13.8632 10.6852 14.2498 10.6852C14.6364 10.6852 14.9498 10.3718 14.9498 9.98516V6.4459ZM9.0498 6.4459H6.7C5.98203 6.4459 5.4 7.02793 5.4 7.7459V16.2541C5.4 16.9721 5.98203 17.5541 6.7 17.5541H9.0498V6.4459Z" fill="#333333"/>
<path fill-rule="evenodd" clip-rule="evenodd" d="M16.5684 13.9639C15.4859 13.9639 14.6084 14.8414 14.6084 15.9239C14.6084 17.0063 15.4859 17.8839 16.5684 17.8839C17.6509 17.8839 18.5284 17.0063 18.5284 15.9239C18.5284 14.8414 17.6509 13.9639 16.5684 13.9639ZM16.0084 15.9239C16.0084 15.6146 16.2591 15.3639 16.5684 15.3639C16.8777 15.3639 17.1284 15.6146 17.1284 15.9239C17.1284 16.2331 16.8777 16.4839 16.5684 16.4839C16.2591 16.4839 16.0084 16.2331 16.0084 15.9239Z" fill="#333333"/>
<path fill-rule="evenodd" clip-rule="evenodd" d="M16.0926 11.1484C16.4877 11.1041 16.8892 11.102 17.2793 11.1475C17.9198 11.2222 18.3619 11.6946 18.5316 12.2047L18.5826 12.3582C18.6204 12.4717 18.7338 12.5421 18.8523 12.5256L19.0293 12.501C19.5485 12.4288 20.1464 12.6033 20.5054 13.1102C20.7394 13.4406 20.9284 13.7962 21.0707 14.1674C21.2929 14.7471 21.1072 15.3415 20.7587 15.734L20.6408 15.8668C20.5613 15.9563 20.557 16.0897 20.6306 16.1841L20.7413 16.3262C21.0638 16.7401 21.2114 17.346 20.9511 17.9106C20.7887 18.2629 20.5809 18.6012 20.3272 18.9176C19.9368 19.4043 19.3252 19.5461 18.8049 19.4392L18.6313 19.4036C18.5141 19.3795 18.3964 19.4425 18.3514 19.5534L18.2768 19.7374C18.0791 20.2247 17.6266 20.6565 17.0054 20.7117C16.6115 20.7467 16.2122 20.7328 15.8172 20.6683C15.2072 20.5686 14.7897 20.1114 14.6254 19.6174L14.5636 19.4317C14.5259 19.3181 14.4125 19.2477 14.2939 19.2642L14.114 19.2892C13.5944 19.3615 12.9958 19.1866 12.637 18.6788C12.4039 18.3489 12.2156 17.9939 12.0738 17.6234C11.8519 17.0439 12.0377 16.4498 12.386 16.0576L12.5055 15.923C12.5849 15.8335 12.5892 15.7001 12.5156 15.6057L12.4053 15.4641C12.0826 15.0499 11.935 14.4434 12.196 13.8785C12.3589 13.5261 12.5672 13.1877 12.8215 12.8712C13.212 12.3855 13.8229 12.2442 14.3427 12.3509L14.515 12.3863C14.6322 12.4103 14.7498 12.3473 14.7948 12.2365L14.8396 12.126C15.0383 11.6362 15.4872 11.2162 16.0926 11.1484ZM17.1172 12.5381C16.8402 12.5058 16.5458 12.5064 16.2484 12.5397C16.2366 12.541 16.2204 12.5459 16.2 12.5626C16.1781 12.5805 16.1539 12.6105 16.137 12.6522L16.0922 12.7627C15.7935 13.4991 15.0118 13.9175 14.2334 13.7577L14.0612 13.7223C14.0161 13.7131 13.9777 13.7169 13.9517 13.725C13.9279 13.7325 13.9178 13.742 13.9127 13.7484C13.7302 13.9755 13.5821 14.2165 13.4669 14.4658C13.4643 14.4714 13.4604 14.4828 13.4641 14.5062C13.4682 14.532 13.4816 14.5676 13.5097 14.6037L13.62 14.7453C14.1084 15.3722 14.08 16.2583 13.5523 16.8526L13.4328 16.9871C13.4025 17.0213 13.3869 17.056 13.381 17.0815C13.3757 17.1048 13.3789 17.1168 13.3812 17.1229C13.4819 17.3859 13.6154 17.6375 13.7803 17.8708C13.7838 17.8758 13.7918 17.8849 13.8139 17.8934C13.8382 17.9027 13.8757 17.9089 13.9211 17.9026L14.101 17.8776C14.8881 17.768 15.6413 18.2358 15.8921 18.9898L15.9538 19.1755C15.9682 19.2187 15.9902 19.2493 16.009 19.2669C16.0261 19.2828 16.0374 19.2857 16.0429 19.2866C16.3213 19.3321 16.6031 19.3419 16.8815 19.3172C16.8875 19.3167 16.8993 19.3144 16.9177 19.2995C16.9379 19.2831 16.9622 19.2537 16.9794 19.2112L17.0541 19.0272C17.3528 18.2907 18.1344 17.8723 18.9128 18.0322L19.0865 18.0678C19.1316 18.0771 19.1701 18.0732 19.196 18.0651C19.2198 18.0576 19.2299 18.0481 19.235 18.0417C19.4172 17.8146 19.5648 17.5736 19.6797 17.3244C19.6823 17.3189 19.6863 17.3074 19.6825 17.284C19.6784 17.2583 19.665 17.2227 19.6369 17.1866L19.5262 17.0445C19.0378 16.4176 19.0663 15.5315 19.5939 14.9373L19.7119 14.8044C19.7422 14.7702 19.7579 14.7356 19.7637 14.71C19.769 14.6867 19.7658 14.6747 19.7635 14.6686C19.6624 14.4051 19.5285 14.1531 19.3629 13.9193C19.3594 13.9144 19.3515 13.9053 19.3293 13.8968C19.305 13.8876 19.2676 13.8813 19.2223 13.8876L19.0452 13.9123C18.2581 14.0218 17.505 13.5541 17.2542 12.8L17.2031 12.6465C17.1883 12.6021 17.1655 12.5714 17.1469 12.5547C17.1304 12.5399 17.1208 12.5385 17.1172 12.5381Z" fill="#333333"/>
</svg>
