<svg width="24" height="24" viewBox="0 0 24 24" fill="none" xmlns="http://www.w3.org/2000/svg">
<path fill-rule="evenodd" clip-rule="evenodd" d="M11.1493 8.19075C13.9525 7.59411 16.3982 10.0391 15.8018 12.8429C15.4868 14.3237 14.3236 15.4869 12.8428 15.8018C10.0391 16.3981 7.59429 13.9526 8.19068 11.1495C8.34125 10.4419 8.75703 9.77935 9.2681 9.26825C9.77916 8.75716 10.4416 8.34135 11.1493 8.19075ZM14.4324 12.5516C14.8179 10.7394 13.2524 9.17447 11.4407 9.56007C11.0573 9.64168 10.626 9.89021 10.2581 10.2582C9.89013 10.6261 9.64162 11.0574 9.56003 11.4409C9.17458 13.2525 10.7395 14.8178 12.5515 14.4325C13.4917 14.2325 14.2324 13.4918 14.4324 12.5516Z" fill="#333333"/>
<path fill-rule="evenodd" clip-rule="evenodd" d="M11.106 3.62834C11.717 3.56514 12.3177 3.56757 12.9017 3.62988C13.5683 3.70101 14.0679 4.18617 14.2402 4.77067L14.3879 5.27193C14.4087 5.34247 14.4747 5.42743 14.5999 5.47742C14.6579 5.50058 14.7155 5.52448 14.7728 5.54913C14.8966 5.60244 15.0034 5.58906 15.068 5.55385L15.5261 5.30432C16.0612 5.01283 16.7573 5.02314 17.279 5.44374C17.7488 5.82256 18.1771 6.25083 18.5559 6.72068C18.9765 7.24233 18.9868 7.9384 18.6953 8.47352L18.4456 8.93187C18.4104 8.99651 18.397 9.10327 18.4503 9.22707C18.4749 9.28418 18.4988 9.34169 18.5219 9.39958C18.5719 9.5248 18.6568 9.59078 18.7274 9.61157L19.2288 9.75936C19.8133 9.93165 20.2985 10.4313 20.3696 11.0979C20.4319 11.6819 20.4343 12.2826 20.3711 12.8936C20.302 13.5623 19.817 14.0673 19.2277 14.241L18.7446 14.3834C18.6734 14.4044 18.5873 14.4716 18.5375 14.5994C18.5124 14.6638 18.4864 14.7277 18.4595 14.7911C18.4067 14.9153 18.4204 15.0218 18.4554 15.0861L18.7106 15.5547C19.0015 16.0887 18.9923 16.7838 18.5724 17.3055C18.1967 17.7722 17.7716 18.1973 17.3049 18.5729C16.7833 18.9927 16.0882 19.0019 15.5542 18.7111L15.0857 18.4558C15.0214 18.4208 14.9149 18.4072 14.7907 18.46C14.7273 18.4869 14.6634 18.5129 14.599 18.538C14.4711 18.5878 14.4039 18.674 14.3829 18.7451L14.2407 19.2277C14.067 19.817 13.562 20.302 12.8932 20.3712C12.2821 20.4343 11.6812 20.4319 11.0972 20.3695C10.4306 20.2983 9.93104 19.8132 9.75877 19.2287L9.61115 18.7279C9.59036 18.6573 9.52438 18.5724 9.39915 18.5224C9.34124 18.4993 9.2837 18.4754 9.22656 18.4508C9.10276 18.3975 8.996 18.4109 8.93136 18.4461L8.47368 18.6954C7.93857 18.9869 7.24252 18.9766 6.72086 18.556C6.25088 18.1771 5.8225 17.7488 5.44359 17.2788C5.02302 16.7571 5.01272 16.0611 5.3042 15.5259L5.55338 15.0685C5.58859 15.0038 5.60197 14.8971 5.54865 14.7733C5.524 14.716 5.50009 14.6584 5.47692 14.6003C5.42694 14.4751 5.34197 14.4092 5.27143 14.3884L4.77074 14.2408C4.18629 14.0685 3.70116 13.569 3.62997 12.9024C3.56759 12.3184 3.56511 11.7176 3.62828 11.1065C3.69742 10.4377 4.18243 9.93266 4.7717 9.75897L5.27731 9.60994C5.34596 9.58971 5.43303 9.52449 5.48913 9.3951C5.50947 9.3482 5.5304 9.30149 5.55191 9.25498C5.61164 9.12581 5.59843 9.01427 5.56245 8.94822L5.34822 8.55492C5.04947 8.00645 5.07135 7.29691 5.50574 6.77504C5.88788 6.31594 6.31537 5.88841 6.77443 5.50624C7.29631 5.07177 8.00591 5.04985 8.55442 5.34863L8.9478 5.56291C9.01385 5.59888 9.12539 5.61209 9.25456 5.55236C9.30106 5.53086 9.34775 5.50994 9.39463 5.48961C9.52403 5.4335 9.58926 5.34643 9.6095 5.27778L9.75865 4.77174C9.93232 4.18251 10.4373 3.69752 11.106 3.62834ZM12.7531 5.02197C12.2664 4.97003 11.7637 4.96778 11.2501 5.02091C11.2027 5.02581 11.1314 5.06622 11.1015 5.16756L10.9524 5.67359C10.7959 6.20454 10.3957 6.5815 9.95157 6.77407C9.91509 6.78988 9.87862 6.80622 9.84216 6.82308C9.37382 7.03965 8.79018 7.07127 8.27812 6.79235L7.88474 6.57807C7.79151 6.52729 7.70992 6.54909 7.67017 6.58218C7.27656 6.90986 6.90941 7.27705 6.58176 7.67068C6.54868 7.71043 6.52688 7.79202 6.57766 7.88524L6.7919 8.27854C7.07082 8.79061 7.0392 9.37426 6.82261 9.84261C6.80575 9.87908 6.7894 9.91557 6.77358 9.95206C6.58101 10.3962 6.20405 10.7963 5.67313 10.9528L5.16751 11.1019C5.06616 11.1317 5.02576 11.203 5.02086 11.2504C4.96776 11.7641 4.97005 12.2669 5.02205 12.7537C5.02677 12.798 5.06532 12.8681 5.16655 12.8979L5.66724 13.0455C6.20663 13.2045 6.59138 13.616 6.77715 14.0813C6.79566 14.1277 6.81478 14.1738 6.83449 14.2195C7.03291 14.6803 7.05205 15.2439 6.78282 15.7382L6.53364 16.1956C6.48319 16.2882 6.50541 16.3652 6.53349 16.4001C6.84972 16.7923 7.2073 17.1499 7.59955 17.4661C7.63438 17.4942 7.71138 17.5164 7.804 17.466L8.26168 17.2167C8.75589 16.9475 9.31945 16.9666 9.78015 17.1649C9.82584 17.1846 9.87183 17.2036 9.91813 17.2221C10.3835 17.4079 10.795 17.7926 10.954 18.3321L11.1017 18.8329C11.1315 18.9342 11.2016 18.9727 11.2458 18.9774C11.7327 19.0294 12.2355 19.0317 12.7492 18.9786C12.7966 18.9737 12.8679 18.9333 12.8978 18.8319L13.0401 18.3493C13.2008 17.8038 13.6195 17.4172 14.0906 17.2336C14.1419 17.2136 14.1928 17.1928 14.2434 17.1714C14.7024 16.9764 15.2631 16.9583 15.7554 17.2264L16.2239 17.4816C16.3165 17.5321 16.393 17.5097 16.4272 17.4822C16.8155 17.1697 17.1692 16.816 17.4818 16.4277C17.5093 16.3935 17.5317 16.317 17.4812 16.2244L17.2259 15.7557C16.9578 15.2635 16.9759 14.7028 17.1709 14.2438C17.1924 14.1933 17.2131 14.1424 17.2331 14.0911C17.4167 13.62 17.8033 13.2013 18.3488 13.0405L18.8319 12.8981C18.9332 12.8683 18.9736 12.7969 18.9786 12.7495C19.0317 12.2359 19.0294 11.7332 18.9775 11.2464C18.9728 11.2022 18.9342 11.1321 18.833 11.1022L18.3316 10.9545C17.7921 10.7955 17.4074 10.3839 17.2216 9.91857C17.2031 9.87229 17.1841 9.82632 17.1644 9.78066C16.9661 9.31996 16.947 8.7564 17.2162 8.26219L17.4658 7.80384C17.5163 7.71122 17.4941 7.63422 17.466 7.59939C17.1498 7.20725 16.7924 6.84977 16.4002 6.53361C16.3654 6.50552 16.2884 6.4833 16.1958 6.53376L15.7377 6.78329C15.2434 7.05252 14.6798 7.03338 14.219 6.83496C14.1733 6.81526 14.1272 6.79615 14.0809 6.77764C13.6155 6.59188 13.204 6.20712 13.0451 5.66774L12.8973 5.16648C12.8675 5.06524 12.7974 5.02669 12.7531 5.02197Z" fill="#333333"/>
</svg>
