<svg width="24" height="24" viewBox="0 0 24 24" fill="none" xmlns="http://www.w3.org/2000/svg">
<path fill-rule="evenodd" clip-rule="evenodd" d="M11.3891 9.26095C13.4029 8.83231 15.1613 10.5901 14.7328 12.6044C14.5062 13.6697 13.6696 14.5063 12.6043 14.7328C10.5901 15.1612 8.83245 13.403 9.26091 11.3892C9.3704 10.8746 9.67081 10.3989 10.0348 10.0349C10.3988 9.6709 10.8745 9.37047 11.3891 9.26095ZM13.5591 12.3547C13.8067 11.1904 12.8029 10.1869 11.6389 10.4347C11.4022 10.485 11.1247 10.6421 10.8833 10.8834C10.642 11.1247 10.485 11.4022 10.4346 11.639C10.187 12.8029 11.1904 13.8067 12.3547 13.5591C12.9565 13.4311 13.431 12.9566 13.5591 12.3547Z" fill="#333333"/>
<path fill-rule="evenodd" clip-rule="evenodd" d="M11.5735 6.09996C11.8639 6.07955 12.1506 6.08017 12.4323 6.10059C13.0754 6.1472 13.5464 6.61724 13.707 7.16217L13.7411 7.27788C13.7533 7.31919 13.7977 7.38286 13.8964 7.42383C13.9921 7.46357 14.0659 7.45089 14.1059 7.42909L14.2114 7.37159C14.7102 7.09989 15.3754 7.10057 15.863 7.52173C16.0821 7.71088 16.2871 7.91583 16.4763 8.13482C16.8977 8.6225 16.8984 9.28779 16.6267 9.78671L16.5692 9.89219C16.5474 9.93224 16.5347 10.0061 16.5745 10.1018C16.6155 10.2005 16.6792 10.245 16.7205 10.2572L16.8368 10.2914C17.3816 10.452 17.8516 10.923 17.8983 11.5659C17.9188 11.8474 17.9194 12.134 17.8991 12.4241C17.8539 13.0689 17.3842 13.5449 16.8347 13.7069L16.7396 13.7349C16.6944 13.7483 16.6264 13.7966 16.5834 13.9021C16.5425 14.0025 16.5555 14.0803 16.579 14.1235L16.638 14.2318C16.9091 14.7295 16.9095 15.394 16.4886 15.8816C16.3016 16.0983 16.099 16.3009 15.8824 16.488C15.3947 16.909 14.7301 16.9086 14.2323 16.6375L14.1246 16.5788C14.0813 16.5553 14.0033 16.5423 13.9027 16.5833C13.7971 16.6264 13.7486 16.6945 13.7352 16.7398L13.7072 16.8347C13.5453 17.3841 13.0693 17.8539 12.4245 17.8991C12.1345 17.9194 11.8481 17.9188 11.5668 17.8984C10.9237 17.8518 10.4527 17.3817 10.2921 16.8368L10.2581 16.7216C10.2459 16.6799 10.2011 16.6159 10.1019 16.5748C10.0058 16.5348 9.93155 16.5475 9.89117 16.5695L9.78656 16.6265C9.28761 16.8983 8.6223 16.8975 8.13462 16.4761C7.91577 16.287 7.71095 16.0821 7.5219 15.8632C7.10071 15.3756 7.10002 14.7104 7.37173 14.2116L7.42876 14.1069C7.45074 14.0665 7.46343 13.9923 7.42353 13.8962C7.38238 13.7971 7.3184 13.7524 7.27675 13.7401L7.16214 13.7063C6.61715 13.5457 6.14707 13.0746 6.10054 12.4315C6.08016 12.1499 6.07957 11.8633 6.09999 11.5731C6.14535 10.9285 6.61505 10.4526 7.16438 10.2907L7.29337 10.2527C7.33203 10.2413 7.38702 10.2047 7.42692 10.1153C7.47119 10.0161 7.45628 9.94135 7.43999 9.91146L7.39394 9.8269C7.12142 9.32659 7.13478 8.66691 7.55359 8.18978C7.75144 7.96437 7.96484 7.75099 8.19027 7.55316C8.6675 7.13434 9.32724 7.12102 9.82761 7.39357L9.91252 7.43982C9.94227 7.45603 10.0168 7.47094 10.1159 7.42677C10.2052 7.38695 10.2416 7.33206 10.253 7.29354L10.2911 7.16436C10.453 6.61501 10.9289 6.1453 11.5735 6.09996ZM12.3456 7.29745C12.1207 7.28116 11.8911 7.2806 11.6577 7.29701C11.5842 7.30217 11.4837 7.36243 11.4421 7.50362L11.404 7.63281C11.2776 8.06165 10.9603 8.36408 10.6046 8.52272C10.2351 8.68753 9.75932 8.72284 9.33851 8.49363L9.2536 8.44738C9.13663 8.38366 9.03293 8.41021 8.98179 8.45509C8.7955 8.61858 8.61896 8.7951 8.45545 8.98139C8.41064 9.03244 8.38409 9.13602 8.44775 9.25289L8.4938 9.33744C8.72315 9.7585 8.68775 10.2346 8.52277 10.6043C8.36404 10.96 8.06154 11.2773 7.63264 11.4037L7.50364 11.4418C7.36245 11.4834 7.3022 11.5839 7.29703 11.6574C7.28061 11.8906 7.28115 12.1201 7.29741 12.3449C7.30247 12.4149 7.36059 12.5138 7.5014 12.5553L7.61601 12.5891C8.06412 12.7212 8.37718 13.0637 8.53181 13.4361C8.68783 13.8119 8.70501 14.2725 8.48257 14.6809L8.42554 14.7856C8.35536 14.9144 8.38408 15.0256 8.43008 15.0789C8.58099 15.2536 8.74451 15.4172 8.91921 15.5681C8.97247 15.6142 9.08366 15.6429 9.21254 15.5727L9.31716 15.5157C9.72558 15.2933 10.1863 15.3105 10.5621 15.4665C10.9346 15.6212 11.2771 15.9342 11.4092 16.3824L11.4431 16.4975C11.4846 16.6383 11.5835 16.6965 11.6535 16.7015C11.8781 16.7178 12.1074 16.7184 12.3406 16.702C12.414 16.6969 12.5146 16.6366 12.5562 16.4954L12.5842 16.4005C12.7188 15.9436 13.0703 15.6269 13.4495 15.4722C13.8269 15.3183 14.2886 15.3017 14.6986 15.525L14.8063 15.5837C14.9352 15.6539 15.0457 15.625 15.0981 15.5797C15.2703 15.431 15.4315 15.2698 15.5802 15.0975C15.6254 15.0451 15.6544 14.9347 15.5842 14.8058L15.5252 14.6975C15.302 14.2878 15.3185 13.8263 15.4722 13.4491C15.6268 13.0699 15.9435 12.7185 16.4003 12.5839L16.4954 12.5559C16.6366 12.5142 16.6969 12.4137 16.7021 12.3402C16.7184 12.107 16.7178 11.8775 16.7015 11.6528C16.6964 11.5829 16.6383 11.484 16.4975 11.4425L16.3812 11.4082C15.9336 11.2763 15.6208 10.9342 15.4662 10.5621C15.3103 10.1865 15.2931 9.72623 15.5154 9.31817L15.5728 9.2127C15.643 9.08382 15.6143 8.97263 15.5683 8.91937C15.4172 8.74456 15.2536 8.58093 15.0787 8.42993C15.0255 8.38394 14.9143 8.35522 14.7854 8.4254L14.6799 8.48289C14.2719 8.70514 13.8116 8.688 13.4362 8.53208C13.0641 8.37757 12.722 8.06478 12.59 7.61714L12.5559 7.50144C12.5144 7.36065 12.4156 7.30253 12.3456 7.29745Z" fill="#333333"/>
</svg>
