<svg width="24" height="24" viewBox="0 0 24 24" fill="none" xmlns="http://www.w3.org/2000/svg">
<path fill-rule="evenodd" clip-rule="evenodd" d="M11.5315 9.89688C13.0773 9.56787 14.4275 10.9177 14.0986 12.4638C13.9245 13.2821 13.282 13.9246 12.4637 14.0986C10.9176 14.4274 9.56797 13.0774 9.89685 11.5316C9.98143 11.1341 10.2127 10.769 10.4908 10.4909C10.7689 10.2128 11.1339 9.98149 11.5315 9.89688ZM13.1205 12.2558C13.2987 11.4179 12.5772 10.6967 11.7396 10.875C11.5737 10.9103 11.3738 11.0221 11.1979 11.198C11.0221 11.3739 10.9103 11.5737 10.875 11.7397C10.6967 12.5773 11.4179 13.2987 12.2557 13.1205C12.6878 13.0286 13.0286 12.6878 13.1205 12.2558Z" fill="#333333"/>
<path fill-rule="evenodd" clip-rule="evenodd" d="M11.6881 7.52425C11.9015 7.50978 12.1124 7.51029 12.3197 7.52494C12.8315 7.56111 13.2041 7.93512 13.3308 8.36494L13.3541 8.44416C13.3583 8.45817 13.3792 8.49551 13.4417 8.52149C13.5018 8.54642 13.541 8.53567 13.5556 8.52769L13.628 8.48827C14.0213 8.27402 14.5489 8.27307 14.9362 8.60885C15.098 8.74905 15.2496 8.90062 15.3898 9.06233C15.7256 9.44963 15.7247 9.97715 15.5105 10.3705L15.4712 10.4426C15.4632 10.4573 15.4524 10.4966 15.4774 10.5568C15.5035 10.6195 15.5409 10.6405 15.555 10.6447L15.6341 10.668C16.064 10.7947 16.438 11.1673 16.4742 11.6791C16.4891 11.8895 16.4894 12.1036 16.4743 12.3202C16.4388 12.8284 16.0689 13.2015 15.6393 13.3282L15.5696 13.3487C15.5528 13.3537 15.5121 13.3774 15.4845 13.4453C15.4584 13.5092 15.4694 13.5517 15.4787 13.5689L15.5172 13.6396C15.732 14.0339 15.7341 14.5639 15.3963 14.9531C15.2596 15.1106 15.1119 15.2584 14.9544 15.3951C14.5653 15.7332 14.0352 15.7312 13.6408 15.5164L13.5703 15.478C13.553 15.4686 13.5104 15.4576 13.4463 15.4838C13.3784 15.5115 13.3545 15.5522 13.3495 15.5692L13.329 15.6389C13.2023 16.0687 12.8291 16.4387 12.3208 16.4743C12.1046 16.4894 11.891 16.4891 11.681 16.4743C11.1689 16.4383 10.796 16.0641 10.6692 15.6341L10.646 15.5553C10.6418 15.5409 10.6206 15.5032 10.5575 15.4771C10.497 15.4519 10.4574 15.4627 10.4424 15.4709L10.3704 15.5101C9.97692 15.7244 9.44909 15.7253 9.06164 15.3892C8.90042 15.2493 8.74928 15.0982 8.60946 14.9369C8.2734 14.5494 8.27434 14.0215 8.48871 13.628L8.52806 13.5558C8.53616 13.5409 8.54692 13.5014 8.52187 13.441C8.49576 13.3781 8.45819 13.357 8.44393 13.3528L8.36499 13.3295C7.93496 13.2028 7.56079 12.8299 7.52481 12.3178C7.51028 12.1109 7.50982 11.9006 7.52428 11.6877C7.55924 11.1728 7.93432 10.7951 8.36906 10.6669L8.4567 10.6411C8.46933 10.6374 8.50016 10.6217 8.52508 10.5659C8.53759 10.5379 8.54258 10.5111 8.54263 10.4904C8.54267 10.4706 8.53838 10.4609 8.53663 10.4577L8.50191 10.3939C8.28873 10.0025 8.29823 9.4844 8.62811 9.10869C8.77785 8.93814 8.93934 8.77671 9.10993 8.62702C9.48569 8.2973 10.0038 8.28788 10.3951 8.50103L10.4591 8.53589C10.4622 8.53761 10.4719 8.54189 10.4916 8.54185C10.5123 8.5418 10.5389 8.53683 10.5669 8.52435C10.6227 8.49949 10.6382 8.46874 10.6419 8.45621L10.6677 8.36868C10.7958 7.93407 11.1735 7.55915 11.6881 7.52425ZM12.2492 8.52245C12.0878 8.51106 11.9232 8.51061 11.7558 8.52196C11.7195 8.52442 11.655 8.55629 11.6269 8.6514L11.6011 8.73894C11.5016 9.07668 11.252 9.31374 10.9743 9.43763C10.6859 9.56624 10.3125 9.59479 9.98073 9.41406L9.91673 9.3792C9.84488 9.34006 9.79016 9.36054 9.76948 9.37868C9.63149 9.49977 9.5007 9.63051 9.37956 9.76848C9.36145 9.78911 9.34097 9.84376 9.38008 9.91557L9.4148 9.97932C9.59563 10.3113 9.56701 10.6849 9.43827 10.9734C9.31431 11.2512 9.07721 11.5007 8.73942 11.6003L8.65179 11.6261C8.55647 11.6542 8.52446 11.7189 8.52198 11.7554C8.51064 11.9224 8.51105 12.0867 8.52236 12.2477C8.52464 12.2803 8.55403 12.3427 8.64771 12.3703L8.72665 12.3936C9.07964 12.4977 9.32479 12.7669 9.44546 13.0576C9.56727 13.3511 9.58137 13.7126 9.40623 14.0341L9.36688 14.1063C9.32021 14.192 9.3435 14.257 9.36496 14.2818C9.47379 14.4073 9.59144 14.525 9.71692 14.6338C9.7416 14.6552 9.80651 14.6785 9.89211 14.6319L9.96406 14.5927C10.2858 14.4174 10.6475 14.4316 10.9411 14.5535C11.2318 14.6743 11.5011 14.9195 11.6052 15.2726L11.6284 15.3514C11.6561 15.4451 11.7186 15.4745 11.7511 15.4768C11.9146 15.4883 12.0814 15.4885 12.2511 15.4767C12.283 15.4745 12.3433 15.4459 12.3698 15.3562L12.3903 15.2865C12.4964 14.9265 12.7728 14.6785 13.0687 14.5578C13.3634 14.4376 13.7258 14.424 14.0487 14.5998L14.1191 14.6382C14.2068 14.686 14.2733 14.6622 14.2986 14.6402C14.4207 14.5342 14.5351 14.4197 14.6411 14.2976C14.6631 14.2722 14.6868 14.2057 14.6391 14.1179L14.6005 14.0472C14.4248 13.7245 14.4384 13.3623 14.5584 13.0678C14.679 12.7719 14.927 12.4956 15.2869 12.3895L15.3565 12.369C15.446 12.3426 15.4745 12.2824 15.4767 12.2506C15.4886 12.0807 15.4883 11.9134 15.4767 11.7497C15.4744 11.7172 15.445 11.6548 15.3514 11.6272L15.2723 11.6039C14.9196 11.4999 14.6746 11.2309 14.5539 10.9404C14.4321 10.6471 14.418 10.2857 14.5931 9.96421L14.6323 9.89213C14.6788 9.80673 14.6556 9.74202 14.6343 9.71746C14.5251 9.59159 14.4071 9.47361 14.2812 9.36449C14.2566 9.34314 14.1918 9.31988 14.1063 9.36645L14.034 9.40586C13.7127 9.58085 13.3515 9.56679 13.0583 9.44505C12.7678 9.32447 12.4989 9.07952 12.3949 8.72689L12.3716 8.64767C12.344 8.55409 12.2816 8.52475 12.2492 8.52245Z" fill="#333333"/>
</svg>
