<svg width="24" height="24" viewBox="0 0 24 24" fill="none" xmlns="http://www.w3.org/2000/svg">
<path fill-rule="evenodd" clip-rule="evenodd" d="M11.2853 8.79519C13.643 8.29336 15.7009 10.3506 15.1993 12.7089C14.9341 13.9553 13.9552 14.9342 12.7088 15.1993C10.3506 15.7008 8.29352 13.6431 8.79514 11.2854C8.92262 10.6863 9.2734 10.1293 9.70125 9.70138C10.1291 9.2735 10.6861 8.92269 11.2853 8.79519ZM13.9277 12.4384C14.2335 11.001 12.9929 9.76084 11.5559 10.0667C11.2578 10.1301 10.9155 10.3256 10.6205 10.6206C10.3256 10.9156 10.1301 11.2579 10.0667 11.556C9.76093 12.993 11.001 14.2334 12.4384 13.9277C13.1827 13.7695 13.7694 13.1828 13.9277 12.4384Z" fill="#333333"/>
<path fill-rule="evenodd" clip-rule="evenodd" d="M11.3722 5.03144C11.8011 4.99389 12.2237 4.99522 12.6367 5.03253C13.2919 5.09174 13.7771 5.56941 13.9436 6.13405L14.0162 6.3804C14.0374 6.4525 14.1072 6.54255 14.2405 6.5979C14.3706 6.65192 14.4804 6.63843 14.5488 6.60116L14.7735 6.4788C15.2905 6.1972 15.9712 6.20265 16.4763 6.62368C16.8032 6.89608 17.1048 7.19772 17.3771 7.52459C17.7981 8.02975 17.8035 8.71039 17.5219 9.22732L17.3994 9.45226C17.3622 9.5206 17.3487 9.63034 17.4026 9.76031C17.458 9.89352 17.5479 9.96323 17.62 9.98445L17.8663 10.0571C18.431 10.2235 18.9087 10.7088 18.9678 11.364C19.0051 11.7771 19.0064 12.1997 18.9689 12.6288C18.9113 13.2858 18.4339 13.7763 17.8646 13.9441L17.6418 14.0097C17.5651 14.0323 17.4703 14.1068 17.4128 14.2478C17.3577 14.383 17.3715 14.4971 17.4106 14.5689L17.5347 14.7968C17.8157 15.3126 17.8114 15.9924 17.3909 16.4976C17.1211 16.8218 16.822 17.1209 16.4978 17.3908C15.9926 17.8112 15.3127 17.8156 14.7969 17.5346L14.5691 17.4105C14.4973 17.3714 14.3832 17.3576 14.248 17.4127C14.107 17.4702 14.0324 17.565 14.0098 17.6418L13.9442 17.8646C13.7764 18.4339 13.2859 18.9113 12.6289 18.9689C12.1999 19.0064 11.7772 19.0051 11.3642 18.9679C10.709 18.9087 10.2237 18.431 10.0572 17.8663L9.98461 17.6199C9.96338 17.5479 9.89365 17.4579 9.76042 17.4026C9.63042 17.3486 9.52066 17.3621 9.4523 17.3993L9.22729 17.5219C8.71034 17.8035 8.0297 17.798 7.52454 17.3771C7.1977 17.1047 6.8961 16.8032 6.62373 16.4764C6.20269 15.9712 6.19724 15.2905 6.47884 14.7735L6.60125 14.5488C6.63853 14.4803 6.65202 14.3705 6.598 14.2404C6.54264 14.1071 6.45257 14.0373 6.38045 14.016L6.13405 13.9434C5.5694 13.777 5.09172 13.2917 5.03252 12.6365C4.99522 12.2236 4.9939 11.801 5.03144 11.3721C5.08896 10.715 5.56639 10.2245 6.13569 10.0567L6.39934 9.97902C6.4672 9.95902 6.54664 9.89972 6.6009 9.77808C6.66047 9.64455 6.64545 9.53299 6.61417 9.47557L6.51641 9.29609C6.22757 8.76583 6.24498 8.07281 6.67788 7.56765C6.95061 7.24938 7.24954 6.95046 7.56781 6.67773C8.07297 6.24485 8.76597 6.22746 9.29623 6.51629L9.47574 6.61407C9.53314 6.64533 9.64468 6.66036 9.7782 6.6008C9.89984 6.54654 9.95914 6.4671 9.97913 6.39926L10.0568 6.13569C10.2246 5.5664 10.7151 5.08897 11.3722 5.03144ZM12.5197 6.32726C12.1833 6.29686 11.8378 6.29566 11.4856 6.32649C11.4254 6.33175 11.3395 6.38191 11.3038 6.50323L11.2261 6.7668C11.0815 7.25751 10.7179 7.60509 10.3078 7.78804C9.88126 7.9783 9.33502 8.01776 8.85389 7.75569L8.67438 7.65791C8.56291 7.59719 8.46343 7.62227 8.4137 7.66488C8.14607 7.89422 7.89435 8.14593 7.66501 8.41356C7.62239 8.46329 7.59732 8.56278 7.65804 8.67425L7.7558 8.85373C8.01788 9.33487 7.97841 9.88114 7.78813 10.3077C7.60517 10.7178 7.25758 11.0813 6.76688 11.226L6.50323 11.3037C6.38191 11.3395 6.33175 11.4253 6.32649 11.4855C6.29566 11.8377 6.29686 12.1832 6.32725 12.5195C6.33238 12.5763 6.38053 12.6608 6.50159 12.6964L6.74799 12.7691C7.26035 12.9201 7.62026 13.3124 7.79859 13.7418C7.97846 14.1749 7.99733 14.7035 7.74287 15.1706L7.62047 15.3953C7.56012 15.5061 7.58571 15.6001 7.62235 15.6441C7.84441 15.9105 8.09031 16.1564 8.35675 16.3784C8.40073 16.415 8.49467 16.4406 8.60544 16.3803L8.83046 16.2577C9.29747 16.0033 9.82585 16.0221 10.2589 16.2019C10.6883 16.3802 11.0806 16.7401 11.2316 17.2524L11.3042 17.4988C11.3399 17.6198 11.4244 17.668 11.4811 17.6731C11.8176 17.7035 12.1631 17.7047 12.5154 17.6738C12.5755 17.6685 12.6614 17.6184 12.6972 17.4971L12.7629 17.2742C12.9169 16.7517 13.3196 16.3873 13.7571 16.2089C14.1922 16.0315 14.722 16.0134 15.191 16.2689L15.4188 16.393C15.5296 16.4533 15.6229 16.4276 15.6661 16.3916C15.9295 16.1724 16.1725 15.9294 16.3917 15.666C16.4277 15.6227 16.4534 15.5294 16.3931 15.4186L16.269 15.1908C16.0135 14.7218 16.0316 14.192 16.209 13.757C16.3874 13.3195 16.7517 12.9168 17.2743 12.7628L17.4971 12.6971C17.6184 12.6613 17.6686 12.5755 17.6738 12.5153C17.7047 12.163 17.7035 11.8174 17.6731 11.4809C17.668 11.4242 17.6198 11.3397 17.4988 11.304L17.2524 11.2314C16.7401 11.0804 16.3803 10.6882 16.202 10.2588C16.0222 9.82576 16.0034 9.29741 16.2578 8.83041L16.3803 8.60548C16.4406 8.49471 16.4151 8.40076 16.3784 8.35679C16.1564 8.09032 15.9105 7.84439 15.644 7.62231C15.6 7.58567 15.5061 7.56008 15.3953 7.62043L15.1707 7.74279C14.7035 7.99723 14.175 7.97837 13.7419 7.79849C13.3125 7.62017 12.9202 7.26027 12.7692 6.74794L12.6966 6.50159C12.6609 6.38053 12.5765 6.33239 12.5197 6.32726Z" fill="#333333"/>
</svg>
