<svg width="24" height="24" viewBox="0 0 24 24" fill="none" xmlns="http://www.w3.org/2000/svg">
<path fill-rule="evenodd" clip-rule="evenodd" d="M16.5 5.9H7.5C6.61634 5.9 5.9 6.61634 5.9 7.5V16.5C5.9 17.3837 6.61634 18.1 7.5 18.1H16.5C17.3837 18.1 18.1 17.3837 18.1 16.5V7.5C18.1 6.61634 17.3837 5.9 16.5 5.9ZM7.5 4.5C5.84315 4.5 4.5 5.84315 4.5 7.5V16.5C4.5 18.1569 5.84315 19.5 7.5 19.5H16.5C18.1569 19.5 19.5 18.1569 19.5 16.5V7.5C19.5 5.84315 18.1569 4.5 16.5 4.5H7.5Z" fill="#333333"/>
<path fill-rule="evenodd" clip-rule="evenodd" d="M8.55439 13.8467C8.55439 11.8032 10.2109 10.1467 12.2544 10.1467H14.7544C15.141 10.1467 15.4544 10.4601 15.4544 10.8467C15.4544 11.2333 15.141 11.5467 14.7544 11.5467H12.2544C10.9841 11.5467 9.95439 12.5764 9.95439 13.8467V15.119C9.95439 15.5056 9.64099 15.819 9.25439 15.819C8.86779 15.819 8.55439 15.5056 8.55439 15.119V13.8467Z" fill="#333333"/>
<path fill-rule="evenodd" clip-rule="evenodd" d="M12.7594 8.3517C13.0328 8.07834 13.476 8.07834 13.7494 8.3517L15.7494 10.3517C16.0227 10.6251 16.0227 11.0683 15.7494 11.3417L13.7494 13.3417C13.476 13.615 13.0328 13.615 12.7594 13.3417C12.4861 13.0683 12.4861 12.6251 12.7594 12.3517L14.2644 10.8467L12.7594 9.34165C12.4861 9.06829 12.4861 8.62507 12.7594 8.3517Z" fill="#333333"/>
</svg>
