<svg width="24" height="24" viewBox="0 0 24 24" fill="none" xmlns="http://www.w3.org/2000/svg">
<path d="M8.00049 8.2959H6.62822C5.13705 8.2959 3.92822 9.50473 3.92822 10.9959V17.3987C3.92822 18.8899 5.13705 20.0987 6.62822 20.0987H17.3724C18.8635 20.0987 20.0724 18.8899 20.0724 17.3987V10.9959C20.0724 9.50473 18.8635 8.2959 17.3724 8.2959H16.0005V9.6959H17.3724C18.0903 9.6959 18.6724 10.2779 18.6724 10.9959V17.3987C18.6724 18.1167 18.0903 18.6987 17.3724 18.6987H6.62822C5.91025 18.6987 5.32822 18.1167 5.32822 17.3987V10.9959C5.32822 10.2779 5.91025 9.6959 6.62822 9.6959H8.00049V8.2959Z" fill="#333333"/>
<path d="M8.23823 6.24604C7.96486 6.51941 7.96486 6.96262 8.23823 7.23599C8.5116 7.50936 8.95481 7.50936 9.22818 7.23599L11.3002 5.16397V13.1135C11.3002 13.5001 11.6136 13.8135 12.0002 13.8135C12.3868 13.8135 12.7002 13.5001 12.7002 13.1135L12.7002 5.1628L14.7734 7.23599C15.0468 7.50936 15.49 7.50936 15.7633 7.23599C16.0367 6.96262 16.0367 6.51941 15.7633 6.24604L12.4958 2.97846C12.2224 2.7051 11.7792 2.7051 11.5058 2.97846L8.23823 6.24604Z" fill="#333333"/>
</svg>
