<svg width="24" height="24" viewBox="0 0 24 24" fill="none" xmlns="http://www.w3.org/2000/svg">
<path d="M11.9987 7.65234C11.6121 7.65234 11.2987 7.96574 11.2987 8.35234L11.2987 12.8122C11.2987 13.1988 11.6121 13.5122 11.9987 13.5122C12.3853 13.5122 12.6987 13.1988 12.6987 12.8122V8.35234C12.6987 7.96574 12.3853 7.65234 11.9987 7.65234Z" fill="#333333"/>
<path d="M11.1486 15.143C11.1486 14.6735 11.5292 14.293 11.9986 14.293C12.4681 14.293 12.8486 14.6735 12.8486 15.143V15.2181C12.8486 15.6876 12.4681 16.0681 11.9986 16.0681C11.5292 16.0681 11.1486 15.6876 11.1486 15.2181V15.143Z" fill="#333333"/>
<path fill-rule="evenodd" clip-rule="evenodd" d="M12.1066 4.20026C14.4656 4.19436 16.8364 4.60696 18.6711 5.50511C19.0743 5.70248 19.3082 6.10481 19.3274 6.51514C19.5864 12.0519 18.0952 15.5072 16.3638 17.6209C14.6433 19.7212 12.7431 20.4271 12.284 20.5739C12.0976 20.6335 11.9012 20.634 11.7149 20.576C11.2542 20.4327 9.3652 19.7447 7.65 17.6507C5.9246 15.5444 4.43421 12.0872 4.66656 6.5157C4.68474 6.07976 4.94441 5.65994 5.37648 5.47326C7.32372 4.63194 9.74394 4.20617 12.1066 4.20026ZM6.06024 6.70392C5.8684 11.9043 7.2678 14.9748 8.73303 16.7636C10.0629 18.3871 11.4951 19.0131 11.9943 19.1931C12.4969 19.0081 13.9431 18.3668 15.2808 16.7338C16.7531 14.9363 18.1517 11.8677 17.9344 6.70446C16.3631 5.96745 14.2738 5.59484 12.1101 5.60025C9.9482 5.60566 7.77793 5.98841 6.06024 6.70392Z" fill="#333333"/>
</svg>
