<svg width="24" height="24" viewBox="0 0 24 24" fill="none" xmlns="http://www.w3.org/2000/svg">
<path d="M15.6767 10.5432C15.9509 10.2707 15.9522 9.82745 15.6797 9.55324C15.4072 9.27903 14.964 9.27766 14.6898 9.55018L11.621 12.6L10.1263 11.2498C9.83937 10.9907 9.39673 11.0132 9.13758 11.3001C8.87844 11.587 8.90093 12.0296 9.18782 12.2887L11.1748 14.0835C11.4508 14.3329 11.8736 14.3228 12.1374 14.0606L15.6767 10.5432Z" fill="#333333"/>
<path fill-rule="evenodd" clip-rule="evenodd" d="M18.6711 5.50511C16.8364 4.60696 14.4656 4.19436 12.1066 4.20026C9.74394 4.20617 7.32372 4.63194 5.37648 5.47326C4.94441 5.65994 4.68474 6.07976 4.66656 6.5157C4.43421 12.0872 5.9246 15.5444 7.65 17.6507C9.3652 19.7447 11.2542 20.4327 11.7149 20.576C11.9012 20.634 12.0976 20.6335 12.284 20.5739C12.7431 20.4271 14.6433 19.7212 16.3638 17.6209C18.0952 15.5072 19.5864 12.0519 19.3274 6.51514C19.3082 6.10481 19.0743 5.70248 18.6711 5.50511ZM8.73303 16.7636C7.2678 14.9748 5.8684 11.9043 6.06024 6.70392C7.77793 5.98841 9.9482 5.60566 12.1101 5.60025C14.2738 5.59484 16.3631 5.96745 17.9344 6.70446C18.1517 11.8677 16.7531 14.9363 15.2808 16.7338C13.9431 18.3668 12.4969 19.0081 11.9943 19.1931C11.4951 19.0131 10.0629 18.3871 8.73303 16.7636Z" fill="#333333"/>
</svg>
