<svg width="24" height="24" viewBox="0 0 24 24" fill="none" xmlns="http://www.w3.org/2000/svg">
<path fill-rule="evenodd" clip-rule="evenodd" d="M12.0587 5.34438C11.1385 6.02084 8.71589 7.66328 6.11981 8.23818C5.75484 11.872 7.25091 14.6504 8.89487 16.5602C9.73874 17.5406 10.6148 18.2828 11.28 18.7795C11.5791 19.0029 11.8341 19.1755 12.0223 19.2968C12.207 19.1726 12.4568 18.9965 12.7498 18.7695C13.4039 18.2627 14.2668 17.5074 15.1012 16.5155C16.7268 14.583 18.2168 11.7897 17.9039 8.18664C16.8065 7.94579 15.5296 7.34777 14.4564 6.77027C13.4475 6.22738 12.5567 5.66802 12.0587 5.34438ZM12.0305 20.1219C12.3818 20.7273 12.3821 20.7272 12.3824 20.727L12.3832 20.7265L12.3852 20.7253L12.3913 20.7218L12.4114 20.7098C12.4283 20.6997 12.452 20.6854 12.482 20.6668C12.5422 20.6296 12.6278 20.5754 12.735 20.5044C12.9493 20.3623 13.2505 20.1526 13.6072 19.8762C14.3195 19.3243 15.2597 18.5018 16.1725 17.4167C17.9982 15.2464 19.7428 11.9865 19.2666 7.7435C19.2134 7.26995 18.8426 6.93003 18.4199 6.8608C17.512 6.71209 16.279 6.16119 15.1198 5.53743C13.9821 4.92524 12.9957 4.28746 12.6032 4.02718C12.2453 3.78978 11.7755 3.80311 11.4315 4.0653C10.7406 4.59188 8.17553 6.42828 5.57353 6.92139C5.15582 7.00055 4.81802 7.3404 4.76263 7.7814C4.22445 12.0666 5.98044 15.3204 7.83382 17.4736C8.75979 18.5493 9.7168 19.3595 10.4423 19.9013C10.8057 20.1726 11.1127 20.378 11.3313 20.5168C11.4406 20.5862 11.528 20.6391 11.5894 20.6754C11.62 20.6935 11.6442 20.7075 11.6615 20.7173L11.682 20.729L11.6882 20.7325L11.6903 20.7336L11.6911 20.7341C11.6914 20.7343 11.6917 20.7344 12.0305 20.1219ZM12.0305 20.1219L11.6917 20.7344C11.907 20.8535 12.169 20.8508 12.3818 20.7273L12.0305 20.1219ZM12.37 19.5097C12.3701 19.5098 12.3701 19.5098 12.37 19.5097L12.37 19.5097Z" fill="#333333"/>
</svg>
