<svg width="24" height="24" viewBox="0 0 24 24" fill="none" xmlns="http://www.w3.org/2000/svg">
<path fill-rule="evenodd" clip-rule="evenodd" d="M3.2998 4.9998C3.2998 4.61321 3.61321 4.2998 3.9998 4.2998H5.49681C5.82289 4.2998 6.10578 4.52495 6.17895 4.84271L6.58029 6.58537H18.9998C19.2088 6.58537 19.4069 6.67876 19.5398 6.84C19.6728 7.00124 19.7268 7.21346 19.687 7.41864L18.4522 13.7859C18.3528 14.3018 18.0997 14.7814 17.7161 15.135C17.3302 15.4908 16.8337 15.6984 16.3065 15.6994L8.99281 15.6994C8.45749 15.7104 7.94949 15.5076 7.55394 15.1498C7.16209 14.7953 6.90374 14.3115 6.8027 13.7893L4.9397 5.6998H3.9998C3.61321 5.6998 3.2998 5.3864 3.2998 4.9998ZM6.90271 7.98537L8.16997 13.488C8.17213 13.4974 8.17409 13.5068 8.17586 13.5162C8.223 13.7679 8.34233 13.9752 8.49314 14.1116C8.64164 14.2459 8.80969 14.3036 8.967 14.2996L8.98483 14.2994L16.3039 14.2994C16.458 14.299 16.6224 14.2392 16.7671 14.1057C16.914 13.9703 17.0301 13.7673 17.0774 13.5216L17.0776 13.5204L18.151 7.98537H6.90271Z" fill="#333333"/>
<path fill-rule="evenodd" clip-rule="evenodd" d="M7.2998 17.9998C7.2998 17.0609 8.06092 16.2998 8.9998 16.2998C9.93869 16.2998 10.6998 17.0609 10.6998 17.9998C10.6998 18.9387 9.93869 19.6998 8.9998 19.6998C8.06092 19.6998 7.2998 18.9387 7.2998 17.9998Z" fill="#333333"/>
<path fill-rule="evenodd" clip-rule="evenodd" d="M15.9998 16.2998C15.0609 16.2998 14.2998 17.0609 14.2998 17.9998C14.2998 18.9387 15.0609 19.6998 15.9998 19.6998C16.9387 19.6998 17.6998 18.9387 17.6998 17.9998C17.6998 17.0609 16.9387 16.2998 15.9998 16.2998Z" fill="#333333"/>
</svg>
