<svg width="24" height="24" viewBox="0 0 24 24" fill="none" xmlns="http://www.w3.org/2000/svg">
<path d="M15.9096 4.40086C16.1854 4.12992 16.6286 4.13384 16.8995 4.40962L19.6995 7.25962C19.9671 7.53195 19.9671 7.96844 19.6995 8.24077L16.8995 11.0908C16.6286 11.3665 16.1854 11.3705 15.9096 11.0995C15.6338 10.8286 15.6299 10.3854 15.9009 10.1096L17.5316 8.4498H14.9112C14.1845 8.4498 13.5054 8.78637 13.1584 9.33041C13.1521 9.3403 13.1455 9.35003 13.1387 9.35958L8.80289 15.458C8.10381 16.417 7.04203 16.9498 5.8942 16.9498H4.9002C4.5136 16.9498 4.2002 16.6364 4.2002 16.2498C4.2002 15.8632 4.5136 15.5498 4.9002 15.5498H5.8942C6.59113 15.5498 7.23236 15.2338 7.66923 14.6364L11.9882 8.56177C12.6371 7.55792 13.7977 7.0498 14.9112 7.0498H17.5308L15.9009 5.39077C15.6299 5.115 15.6338 4.6718 15.9096 4.40086Z" fill="#333333"/>
<path d="M12.793 14.0282C12.5875 13.7007 12.1554 13.6019 11.828 13.8074C11.5005 14.0129 11.4017 14.445 11.6072 14.7724L11.9629 15.3391L11.9659 15.3439C12.5953 16.3288 13.745 16.942 14.9032 16.942H17.5393L15.9009 18.6096C15.6299 18.8854 15.6338 19.3286 15.9096 19.5995C16.1854 19.8705 16.6286 19.8665 16.8995 19.5908L19.6995 16.7408C19.9671 16.4684 19.9671 16.032 19.6995 15.7596L16.8995 12.9096C16.6286 12.6338 16.1854 12.6299 15.9096 12.9009C15.6338 13.1718 15.6299 13.615 15.9009 13.8908L17.5231 15.542H14.9032C14.2128 15.542 13.5139 15.1644 13.147 14.5922L12.793 14.0282Z" fill="#333333"/>
<path d="M4.9002 7.0498C4.5136 7.0498 4.2002 7.36321 4.2002 7.7498C4.2002 8.1364 4.5136 8.4498 4.9002 8.4498H6.24603C7.03325 8.4498 7.7973 8.92983 8.1797 9.64001C8.36299 9.9804 8.78751 10.1078 9.1279 9.92447C9.46829 9.74118 9.59564 9.31666 9.41236 8.97627C8.80309 7.84478 7.58381 7.0498 6.24603 7.0498H4.9002Z" fill="#333333"/>
</svg>
