<svg width="24" height="24" viewBox="0 0 24 24" fill="none" xmlns="http://www.w3.org/2000/svg">
<path fill-rule="evenodd" clip-rule="evenodd" d="M19.3207 4.83332C18.9193 4.43747 18.3769 4.2168 17.8134 4.2168H16.7649C16.3783 4.2168 16.0649 4.5302 16.0649 4.9168C16.0649 5.3034 16.3783 5.6168 16.7649 5.6168H17.8134C18.0118 5.6168 18.2002 5.69464 18.3376 5.83014C18.4747 5.96531 18.5499 6.14656 18.5499 6.33346V9.87513C18.5499 10.8135 18.172 11.7154 17.4961 12.3819C16.8199 13.0488 15.9008 13.4251 14.9403 13.4251C13.9799 13.4251 13.0607 13.0488 12.3845 12.3819C11.7087 11.7154 11.3308 10.8135 11.3308 9.87513V6.33346C11.3308 6.14656 11.406 5.96531 11.543 5.83014C11.6804 5.69464 11.8688 5.6168 12.0673 5.6168H13.1199C13.5065 5.6168 13.8199 5.3034 13.8199 4.9168C13.8199 4.5302 13.5065 4.2168 13.1199 4.2168H12.0673C11.5038 4.2168 10.9614 4.43747 10.56 4.83332C10.1583 5.2295 9.93076 5.76892 9.93076 6.33346V9.87513C9.93076 11.1911 10.461 12.4512 11.4015 13.3787C12.3417 14.3059 13.6148 14.8251 14.9403 14.8251C16.2658 14.8251 17.539 14.3059 18.4792 13.3787C19.4197 12.4512 19.9499 11.1911 19.9499 9.87513V6.33346C19.9499 5.76892 19.7224 5.2295 19.3207 4.83332Z" fill="#333333"/>
<path fill-rule="evenodd" clip-rule="evenodd" d="M6.1668 11.2998C5.7802 11.2998 5.4668 11.6132 5.4668 11.9998V14.8331C5.4668 16.1548 6.01266 17.4167 6.97498 18.3427C7.9364 19.2679 9.23481 19.7831 10.5833 19.7831C11.9318 19.7831 13.2302 19.2679 14.1916 18.3427C15.1539 17.4167 15.6998 16.1548 15.6998 14.8331V14.1248C15.6998 13.7382 15.3864 13.4248 14.9998 13.4248C14.6132 13.4248 14.2998 13.7382 14.2998 14.1248V14.8331C14.2998 15.7658 13.915 16.6659 13.2209 17.334C12.5258 18.0028 11.5775 18.3831 10.5833 18.3831C9.58913 18.3831 8.64083 18.0028 7.94574 17.334C7.25155 16.6659 6.8668 15.7658 6.8668 14.8331V11.9998C6.8668 11.6132 6.5534 11.2998 6.1668 11.2998Z" fill="#333333"/>
<path fill-rule="evenodd" clip-rule="evenodd" d="M6.16647 9.86685C6.56228 9.86685 6.88314 10.1877 6.88314 10.5835C6.88314 10.9793 6.5626 11.2998 6.1668 11.2998C5.77099 11.2998 5.4498 10.9793 5.4498 10.5835C5.4498 10.1877 5.77067 9.86685 6.16647 9.86685ZM8.28314 10.5835C8.28314 9.41451 7.33547 8.46685 6.16647 8.46685C4.99747 8.46685 4.0498 9.41451 4.0498 10.5835C4.0498 11.7525 4.99747 12.7002 6.16647 12.7002C7.33547 12.7002 8.28314 11.7525 8.28314 10.5835Z" fill="#333333"/>
</svg>
