<svg width="24" height="24" viewBox="0 0 24 24" fill="none" xmlns="http://www.w3.org/2000/svg">
<path d="M5.99981 5.51465C5.73738 5.51465 5.49699 5.66143 5.37711 5.89488C5.25723 6.12833 5.278 6.40922 5.4309 6.6225L9.28823 12.003L5.43091 17.3835C5.278 17.5968 5.25724 17.8777 5.37712 18.1111C5.497 18.3446 5.73738 18.4914 5.99981 18.4914H15.0039C15.3905 18.4914 15.7039 18.178 15.7039 17.7914C15.7039 17.4048 15.3905 17.0914 15.0039 17.0914H7.36295L10.7184 12.4109C10.8932 12.167 10.8932 11.839 10.7184 11.5951L7.36294 6.91465H15.0039C15.3905 6.91465 15.7039 6.60125 15.7039 6.21465C15.7039 5.82805 15.3905 5.51465 15.0039 5.51465H5.99981Z" fill="#333333"/>
<path fill-rule="evenodd" clip-rule="evenodd" d="M17.1764 15.0464L16.5678 13.5961H14.0724L13.5298 14.9824C13.3888 15.3424 12.9828 15.52 12.6228 15.3791C12.2628 15.2381 12.0852 14.8321 12.2261 14.4721L14.2428 9.32012C14.603 8.40014 15.8992 8.38446 16.2815 9.29547L18.4674 14.5047C18.617 14.8612 18.4492 15.2715 18.0927 15.4211C17.7363 15.5707 17.326 15.4029 17.1764 15.0464ZM14.6205 12.1961L15.2768 10.5194L15.9804 12.1961H14.6205Z" fill="#333333"/>
</svg>
