<svg width="24" height="24" viewBox="0 0 24 24" fill="none" xmlns="http://www.w3.org/2000/svg">
<path d="M9.13818 10.0566C8.85485 9.79407 8.41181 9.8097 8.14893 10.0928C7.7361 10.5377 7.44075 11.0882 7.30811 11.6426C7.1777 12.1879 7.18981 12.816 7.51025 13.3438C7.85116 13.9048 8.45259 14.2095 9.19385 14.2393C9.90933 14.2678 10.7852 14.048 11.8267 13.5645C12.6579 13.1785 13.1749 13.0272 13.479 12.9932C13.5459 12.9857 13.5947 12.9851 13.6284 12.9863C13.6333 13.0268 13.6374 13.0918 13.6343 13.1904C13.6308 13.3001 13.6208 13.4152 13.6089 13.5537C13.5979 13.6814 13.5845 13.8382 13.5845 13.9873C13.5845 14.6585 14.0867 15.0615 14.5884 15.1895C15.0804 15.3146 15.655 15.2258 16.2026 14.9639C16.5514 14.797 16.6986 14.379 16.5317 14.0303C16.3647 13.6821 15.9476 13.5347 15.5991 13.7012C15.3201 13.8346 15.1108 13.8511 14.9937 13.8398C14.9969 13.7915 14.998 13.7362 15.0034 13.6738C15.0142 13.5491 15.0287 13.3912 15.0337 13.2354C15.0425 12.9586 15.0349 12.4842 14.7466 12.1006C14.4054 11.647 13.865 11.5412 13.3237 11.6016C12.792 11.6609 12.1106 11.8882 11.2368 12.2939C10.2959 12.7308 9.65375 12.8568 9.25049 12.8408C8.87412 12.8257 8.75446 12.6959 8.70654 12.6172C8.63853 12.5049 8.59302 12.2872 8.66943 11.9678C8.74381 11.6571 8.91975 11.3214 9.17529 11.0459C9.4382 10.7626 9.42139 10.3196 9.13818 10.0566Z" fill="#15C674"/>
<path fill-rule="evenodd" clip-rule="evenodd" d="M7.9585 5.00098C6.35687 5.00098 5.05811 6.29974 5.05811 7.90137V16.0303C5.05811 17.6319 6.35687 18.9307 7.9585 18.9307H16.061C17.6627 18.9307 18.9614 17.6319 18.9614 16.0303V9.26562C18.9613 8.7763 18.7724 8.30566 18.4341 7.95215L16.1694 5.58691C15.8111 5.21275 15.3154 5.00106 14.7974 5.00098H7.9585ZM13.8501 8.40234C13.8501 9.34123 14.6114 10.1025 15.5503 10.1025H17.561V16.0303C17.561 16.8587 16.8895 17.5303 16.061 17.5303H7.9585C7.13007 17.5303 6.4585 16.8587 6.4585 16.0303V7.90137C6.4585 7.07294 7.13007 6.40137 7.9585 6.40137H13.8501V8.40234ZM17.2134 8.70215H15.5503C15.3846 8.70215 15.2505 8.56803 15.2505 8.40234V6.65234L17.2134 8.70215Z" fill="#15C674"/>
</svg>
