<svg width="24" height="24" viewBox="0 0 24 24" fill="none" xmlns="http://www.w3.org/2000/svg">
<path fill-rule="evenodd" clip-rule="evenodd" d="M16.4591 4.66887C15.8343 4.04408 14.8214 4.04395 14.1965 4.6686L5.37306 13.4885C5.2852 13.5763 5.22229 13.686 5.1908 13.8061L4.2329 17.4616C4.03875 18.2024 4.7154 18.8776 5.45584 18.6818L9.1231 17.7123C9.24263 17.6807 9.35166 17.618 9.4391 17.5305L18.2493 8.72219C18.8742 8.09739 18.8743 7.08427 18.2495 6.45938L16.4591 4.66887ZM15.1863 5.65875C15.2644 5.58066 15.391 5.58068 15.4691 5.65878L17.2595 7.44929C17.3376 7.5274 17.3376 7.65404 17.2594 7.73214L16.0921 8.89922L14.0187 6.82587L15.1863 5.65875ZM13.0285 7.81562L15.1021 9.88907L8.90143 16.0884L6.8273 14.0144L13.0285 7.81562ZM6.22303 15.39L5.76101 17.1531L7.52088 16.6878L6.22303 15.39Z" fill="#333333"/>
<path d="M19.4399 15.074C19.1496 14.8187 18.7073 14.847 18.452 15.1373C18.1967 15.4276 18.225 15.8699 18.5153 16.1252C18.8658 16.4335 19.0831 16.8051 19.1639 17.1385C19.2441 17.4699 19.1843 17.7198 19.0569 17.8841C18.9307 18.0467 18.642 18.249 18.0101 18.2818C17.3729 18.3149 16.4464 18.1683 15.1728 17.6856C14.0214 17.2492 13.1866 16.998 12.5838 16.8984C12.2824 16.8487 12.0033 16.8304 11.7537 16.8633C11.4995 16.8968 11.2309 16.9901 11.019 17.2028C10.8047 17.4179 10.727 17.6761 10.7031 17.8842C10.6803 18.0824 10.7014 18.2749 10.7228 18.4188C10.7358 18.5064 10.756 18.6161 10.7728 18.7079L10.7826 18.7612C10.5392 18.7196 10.1938 18.6191 9.75465 18.4476C9.39454 18.3069 8.9886 18.4848 8.84796 18.845C8.70732 19.2051 8.88524 19.611 9.24535 19.7516C9.85017 19.9879 10.4482 20.1657 10.9309 20.1825C11.1667 20.1907 11.4783 20.1656 11.7514 19.9912C12.0782 19.7827 12.2253 19.4441 12.2253 19.0996C12.2253 18.9133 12.1987 18.7332 12.1742 18.5905C12.1618 18.5181 12.1512 18.4611 12.1416 18.4101C12.1311 18.3536 12.1219 18.3044 12.1133 18.2501C12.1771 18.2544 12.257 18.2634 12.3556 18.2797C12.8178 18.3561 13.5479 18.5669 14.6767 18.9947C16.0543 19.5168 17.1835 19.7266 18.0827 19.6799C18.9871 19.6329 19.7154 19.3193 20.1631 18.7422C20.6095 18.1667 20.6805 17.4529 20.5245 16.809C20.3691 16.1672 19.9832 15.5519 19.4399 15.074Z" fill="#333333"/>
</svg>
