<svg width="24" height="24" viewBox="0 0 24 24" fill="none" xmlns="http://www.w3.org/2000/svg">
<path fill-rule="evenodd" clip-rule="evenodd" d="M17.3594 8.25586C18.8503 8.25612 20.0596 9.46505 20.0596 10.9561V17.2793C20.0596 18.7703 18.8503 19.9792 17.3594 19.9795H10.6816C9.19047 19.9795 7.98145 18.7705 7.98145 17.2793V10.9561C7.98145 9.46489 9.19047 8.25586 10.6816 8.25586H17.3594ZM10.6816 9.65625C9.96367 9.65625 9.38086 10.2381 9.38086 10.9561V17.2793C9.38086 17.9973 9.96367 18.5791 10.6816 18.5791H17.3594C18.0771 18.5788 18.6592 17.9971 18.6592 17.2793V10.9561C18.6592 10.2382 18.0771 9.65651 17.3594 9.65625H10.6816Z" fill="#15C674"/>
<path d="M6.12695 8.11914C6.51348 8.11923 6.82812 8.43279 6.82812 8.81934C6.82807 9.20567 6.51419 9.51918 6.12793 9.51953H5.91113L5.91211 18.5527H6.12695C6.51348 18.5528 6.82812 18.8664 6.82812 19.2529C6.82799 19.6392 6.51415 19.9528 6.12793 19.9531H4.2959C3.90938 19.9531 3.59486 19.6394 3.59473 19.2529C3.59473 18.8665 3.90855 18.553 4.29492 18.5527H4.51172L4.51074 9.51953H4.2959C3.90933 9.51953 3.59478 9.20589 3.59473 8.81934C3.59473 8.4329 3.90855 8.1194 4.29492 8.11914H6.12695Z" fill="#15C674"/>
<path d="M19.3438 3.64746C19.73 3.64759 20.0436 3.96144 20.0439 4.34766V6.17969C20.0439 6.56604 19.731 6.88046 19.3447 6.88086C18.9583 6.88086 18.6438 6.56704 18.6436 6.18066V5.96387L9.30469 5.96484V6.17969C9.30469 6.56629 8.99109 6.87988 8.60449 6.87988C8.21828 6.87943 7.9043 6.56601 7.9043 6.17969V4.34766C7.90439 3.96141 8.21833 3.64791 8.60449 3.64746C8.99104 3.64746 9.3046 3.96113 9.30469 4.34766V4.56445L18.6436 4.56348V4.34863C18.6436 3.96227 18.9574 3.64773 19.3438 3.64746Z" fill="#15C674"/>
</svg>
