<svg width="24" height="24" viewBox="0 0 24 24" fill="none" xmlns="http://www.w3.org/2000/svg">
<path d="M15.9 5.4H8.1C7.43726 5.4 6.9 5.93726 6.9 6.6V17.4C6.9 18.0627 7.43726 18.6 8.1 18.6H9.95572C9.9703 18.5991 9.985 18.5986 9.9998 18.5986L11.9998 18.5986C12.3864 18.5986 12.6998 18.912 12.6998 19.2986C12.6998 19.6852 12.3864 19.9986 11.9998 19.9986H11V20H8.1C6.66406 20 5.5 18.8359 5.5 17.4V6.6C5.5 5.16406 6.66406 4 8.1 4H15.9C17.3359 4 18.5 5.16406 18.5 6.6L18.4996 7.9998C18.4996 8.3864 18.1862 8.6998 17.7996 8.6998C17.413 8.6998 17.0996 8.3864 17.0996 7.9998V6.9998C17.0996 6.9919 17.0997 6.98403 17.1 6.97618V6.6C17.1 5.93726 16.5627 5.4 15.9 5.4Z" fill="#333333"/>
<path fill-rule="evenodd" clip-rule="evenodd" d="M18.4705 11.0035C18.7016 10.0792 17.5258 9.47654 16.9103 10.2039L11.9654 16.0478C11.7894 16.2559 11.7501 16.5472 11.8648 16.7945C11.9795 17.0418 12.2273 17.2 12.4998 17.2H15.0718L14.5595 18.9931C14.2986 19.9062 15.4466 20.5485 16.0883 19.8485L21.0158 14.473C21.2034 14.2684 21.2523 13.9722 21.1406 13.7181C21.0288 13.464 20.7774 13.3 20.4998 13.3H17.8964L18.4705 11.0035ZM14.0091 15.8L16.5912 12.7485L16.3207 13.8302C16.2684 14.0393 16.3154 14.2609 16.4481 14.4308C16.5807 14.6007 16.7843 14.7 16.9998 14.7H18.9086L16.4875 17.3411L16.6729 16.6923C16.7332 16.4811 16.6909 16.2538 16.5587 16.0784C16.4264 15.9031 16.2195 15.8 15.9998 15.8H14.0091Z" fill="#333333"/>
<path d="M8.2998 7.9998C8.2998 7.61321 8.61321 7.2998 8.9998 7.2998H14.9998C15.3864 7.2998 15.6998 7.61321 15.6998 7.9998C15.6998 8.3864 15.3864 8.6998 14.9998 8.6998H8.9998C8.61321 8.6998 8.2998 8.3864 8.2998 7.9998Z" fill="#333333"/>
<path d="M8.9998 11.2998C8.61321 11.2998 8.2998 11.6132 8.2998 11.9998C8.2998 12.3864 8.61321 12.6998 8.9998 12.6998H11.9998C12.3864 12.6998 12.6998 12.3864 12.6998 11.9998C12.6998 11.6132 12.3864 11.2998 11.9998 11.2998H8.9998Z" fill="#333333"/>
</svg>
