<svg width="24" height="24" viewBox="0 0 24 24" fill="none" xmlns="http://www.w3.org/2000/svg">
<path d="M11.2414 2.66275C11.5397 2.41689 11.9809 2.45942 12.2268 2.75777L13.4925 4.29362C13.7193 4.56887 13.7029 4.97066 13.4544 5.22651L12.0271 6.69601C11.7578 6.97333 11.3146 6.97979 11.0373 6.71043C10.76 6.44108 10.7535 5.99791 11.0229 5.72059L11.3642 5.3692C11.2367 5.38511 11.1089 5.40475 10.9809 5.42822C10.4514 5.52525 9.9488 5.68193 9.47846 5.88976C9.12485 6.04601 8.71152 5.88602 8.55526 5.5324C8.39901 5.17879 8.559 4.76546 8.91262 4.6092C9.48256 4.35736 10.0903 4.1681 10.7285 4.05115C10.953 4.01001 11.1772 3.97857 11.4005 3.95655L11.1464 3.64813C10.9005 3.34979 10.943 2.90862 11.2414 2.66275Z" fill="#333333"/>
<path d="M16.5082 5.17295C16.5167 5.17783 16.5251 5.18293 16.5334 5.18825C17.1491 5.58147 17.7113 6.05735 18.2021 6.6037C18.2132 6.61604 18.2238 6.62866 18.2338 6.64153C18.362 6.78617 18.4851 6.93557 18.6029 7.08952C18.9797 7.5819 19.2975 8.1146 19.5511 8.67662C19.56 8.69312 19.5684 8.71011 19.5761 8.72757C19.828 9.29752 20.0172 9.90525 20.1342 10.5435C20.2511 11.1817 20.2897 11.8171 20.2563 12.4393C20.2553 12.457 20.2537 12.4745 20.2515 12.4918C20.2301 12.844 20.1855 13.1953 20.1178 13.5434C20.0293 13.9989 19.9018 14.4447 19.7376 14.8761C19.7336 14.8882 19.7293 14.9003 19.7247 14.9124C19.5905 15.2589 19.4328 15.5951 19.2532 15.9186C19.1117 16.1739 18.9562 16.4218 18.7872 16.6613C18.6107 16.9113 18.4206 17.1504 18.2179 17.3778C18.0182 17.6021 17.8059 17.8156 17.5816 18.0171C17.5735 18.0244 17.5652 18.0315 17.5568 18.0383C17.1679 18.3844 16.7454 18.6929 16.2947 18.9591C16.0361 19.1119 15.7697 19.2498 15.4969 19.3723C15.4841 19.3789 15.4711 19.3852 15.4577 19.3911C15.1292 19.5363 14.788 19.6606 14.4357 19.7624C13.9932 19.8907 13.5394 19.9812 13.0791 20.0325C12.9845 20.043 12.8899 20.0519 12.7952 20.059C12.4426 20.0861 12.0922 20.0898 11.746 20.0712C11.7321 20.0705 11.7182 20.0693 11.7045 20.0678C11.0271 20.0274 10.3556 19.9018 9.70613 19.6925C9.5688 19.6482 9.43286 19.6004 9.29843 19.5489C9.28992 19.546 9.28142 19.5429 9.27295 19.5396C9.10338 19.474 8.93629 19.4027 8.77197 19.326C8.04376 18.9867 7.36848 18.5398 6.76941 17.999C6.48247 17.7399 6.45987 17.2972 6.71895 17.0103C6.97803 16.7233 7.42067 16.7008 7.70761 16.9598C7.81704 17.0586 7.92955 17.1536 8.04492 17.2447C8.05181 17.2498 8.05863 17.255 8.06538 17.2602C8.46588 17.5737 8.90146 17.8413 9.36327 18.057C9.6136 18.1736 9.8715 18.2749 10.1356 18.36C10.9601 18.6257 11.8277 18.7283 12.6901 18.663C12.922 18.6451 13.1553 18.615 13.3895 18.572C13.6135 18.531 13.8326 18.4793 14.0466 18.4175C14.583 18.2619 15.0992 18.0392 15.5828 17.7537C16.1783 17.4019 16.7144 16.9606 17.1726 16.4465C17.5016 16.077 17.7889 15.672 18.0289 15.2396C18.3679 14.628 18.6095 13.9655 18.7436 13.2761C18.9239 12.3487 18.9055 11.3936 18.6896 10.4739C18.4737 9.55412 18.0652 8.69061 17.4911 7.94033C16.9169 7.19005 16.1902 6.57007 15.3588 6.12129C15.0186 5.93765 14.8917 5.513 15.0753 5.1728C15.259 4.8326 15.6836 4.70568 16.0238 4.88932C16.1888 4.97837 16.3503 5.07298 16.5082 5.17295Z" fill="#333333"/>
<path d="M4.23619 13.4568C4.35315 14.095 4.5424 14.7027 4.79425 15.2727C4.85297 15.4056 4.94801 15.5111 5.06254 15.5828C5.25335 15.7023 5.49266 15.6375 5.69604 15.541C5.89943 15.4445 6.10102 15.3001 6.12921 15.0768C6.14459 14.9549 6.12807 14.8274 6.0748 14.7068C5.86697 14.2365 5.7103 13.7339 5.61326 13.2044C5.51623 12.6749 5.48452 12.1494 5.51207 11.636C5.53278 11.2499 5.23662 10.9202 4.85058 10.8995C4.46453 10.8788 4.13479 11.1749 4.11408 11.561C4.0807 12.1832 4.11924 12.8185 4.23619 13.4568Z" fill="#333333"/>
<path d="M4.64568 9.08791C4.50607 9.44842 4.68514 9.85385 5.04565 9.99346C5.40616 10.1331 5.81159 9.954 5.9512 9.59348C6.33172 8.61089 6.94059 7.72882 7.7244 7.0246C8.01198 6.76623 8.03566 6.32365 7.77729 6.03607C7.51891 5.74849 7.07633 5.72481 6.78875 5.98318C5.84124 6.83446 5.10566 7.90011 4.64568 9.08791Z" fill="#333333"/>
<path d="M16.0072 10.3072C16.2684 10.0222 16.2492 9.57944 15.9642 9.31821C15.6792 9.05697 15.2364 9.07622 14.9752 9.36121L11.4395 13.2183L9.41241 11.4808C9.11888 11.2292 8.67697 11.2632 8.42538 11.5568C8.17378 11.8503 8.20777 12.2922 8.5013 12.5438L11.0424 14.7219C11.3291 14.9676 11.7589 14.9417 12.014 14.6634L16.0072 10.3072Z" fill="#333333"/>
</svg>
