<svg width="24" height="24" viewBox="0 0 24 24" fill="none" xmlns="http://www.w3.org/2000/svg">
<path d="M15.1043 10.1C15.1043 9.63056 14.7237 9.25 14.2543 9.25C13.7849 9.25 13.4043 9.63056 13.4043 10.1V10.5318C13.4043 11.0012 13.7849 11.3818 14.2543 11.3818C14.7237 11.3818 15.1043 11.0012 15.1043 10.5318V10.1Z" fill="#333333"/>
<path d="M15.3861 13.4161C15.7085 13.6295 15.7969 14.0638 15.5836 14.3862C15.4684 14.5603 14.2932 16.1999 11.9998 16.1999C10.8525 16.1999 9.97993 15.7809 9.38997 15.3516C9.09624 15.1378 8.87094 14.9206 8.71255 14.7485C8.6331 14.6622 8.57012 14.5868 8.52352 14.5284C8.48501 14.4802 8.43683 14.4161 8.44645 14.4286C8.2097 14.1229 8.26553 13.6832 8.57116 13.4465C8.87679 13.2097 9.31647 13.2656 9.55322 13.5712L9.56256 13.5835C9.67744 13.7357 10.4805 14.7999 11.9998 14.7999C12.7895 14.7999 13.3808 14.5187 13.7876 14.2242C13.9924 14.076 14.1488 13.9253 14.2561 13.8081C14.3587 13.6961 14.4118 13.6198 14.4159 13.6139C14.416 13.6137 14.4161 13.6135 14.4159 13.6139C14.6292 13.2915 15.0637 13.2028 15.3861 13.4161Z" fill="#333333"/>
<path d="M10.5945 10.1C10.5945 9.63056 10.214 9.25 9.74453 9.25C9.27509 9.25 8.89453 9.63056 8.89453 10.1V10.5318C8.89453 11.0012 9.27509 11.3818 9.74453 11.3818C10.214 11.3818 10.5945 11.0012 10.5945 10.5318V10.1Z" fill="#333333"/>
<path fill-rule="evenodd" clip-rule="evenodd" d="M11.9992 3.90234C7.52689 3.90234 3.90137 7.52786 3.90137 12.0002C3.90137 16.4725 7.52689 20.098 11.9992 20.098C16.4715 20.098 20.097 16.4725 20.097 12.0002C20.097 7.52786 16.4715 3.90234 11.9992 3.90234ZM5.30137 12.0002C5.30137 8.30106 8.30009 5.30234 11.9992 5.30234C15.6983 5.30234 18.697 8.30106 18.697 12.0002C18.697 15.6993 15.6983 18.698 11.9992 18.698C8.30009 18.698 5.30137 15.6993 5.30137 12.0002Z" fill="#333333"/>
</svg>
