<svg width="24" height="24" viewBox="0 0 24 24" fill="none" xmlns="http://www.w3.org/2000/svg">
<path fill-rule="evenodd" clip-rule="evenodd" d="M8.99582 9.22477C9.2811 9.12915 9.59557 9.22653 9.77689 9.46663L10.903 10.9579L12.0292 9.46663C12.2105 9.22653 12.525 9.12915 12.8103 9.22477C13.0955 9.32038 13.2878 9.5876 13.2878 9.88848V13.5883C13.2878 13.9749 12.9744 14.2883 12.5878 14.2883C12.2012 14.2883 11.8878 13.9749 11.8878 13.5883V11.977L11.4617 12.5413C11.3294 12.7165 11.1226 12.8194 10.903 12.8194C10.6835 12.8194 10.4767 12.7165 10.3444 12.5413L9.91828 11.977V13.5883C9.91828 13.9749 9.60488 14.2883 9.21828 14.2883C8.83168 14.2883 8.51828 13.9749 8.51828 13.5883V9.88848C8.51828 9.5876 8.71055 9.32038 8.99582 9.22477Z" fill="#333333"/>
<path fill-rule="evenodd" clip-rule="evenodd" d="M4.57254 9.45665C4.92646 9.18783 5.38357 9.03418 5.84589 9.03418C6.50474 9.03417 6.85982 9.07068 7.03761 9.09538C7.42053 9.14856 7.68784 9.5021 7.63465 9.88502C7.58147 10.2679 7.22793 10.5352 6.84501 10.4821C6.74154 10.4677 6.45187 10.4342 5.8459 10.4342C5.68274 10.4342 5.52446 10.4917 5.41934 10.5715C5.31493 10.6508 5.3151 10.7054 5.3151 10.7065C5.3151 10.7924 5.34476 10.8443 5.38331 10.8797C5.42507 10.9181 5.51393 10.9685 5.67352 10.9685H5.67984L6.11041 10.9724C6.95711 10.9739 7.93947 11.5081 7.93947 12.5974C7.93947 13.2341 7.59661 13.6944 7.16355 13.9637C6.75658 14.2167 6.26635 14.3113 5.83357 14.3113C5.28708 14.3113 4.78981 14.265 4.45419 14.1877C4.07747 14.1009 3.84244 13.7251 3.92925 13.3484C4.01606 12.9716 4.39184 12.7366 4.76856 12.8234C4.96327 12.8683 5.34538 12.9113 5.83361 12.9113C6.08717 12.9113 6.29988 12.8521 6.42426 12.7748C6.48145 12.7392 6.50723 12.7081 6.51873 12.6892C6.52787 12.6742 6.53947 12.6494 6.53947 12.5974C6.53947 12.5513 6.52605 12.5161 6.47448 12.4755C6.41206 12.4263 6.2886 12.3724 6.1069 12.3724H6.10058L5.67003 12.3685C4.7166 12.3669 3.9151 11.7006 3.9151 10.7065C3.9151 10.1571 4.21837 9.72566 4.57254 9.45665Z" fill="#333333"/>
<path fill-rule="evenodd" clip-rule="evenodd" d="M14.4865 9.45665C14.8404 9.18783 15.2975 9.03418 15.7598 9.03418C16.4187 9.03417 16.7738 9.07068 16.9515 9.09538C17.3345 9.14856 17.6018 9.5021 17.5486 9.88502C17.4954 10.2679 17.1419 10.5352 16.7589 10.4821C16.6555 10.4677 16.3658 10.4342 15.7598 10.4342C15.5967 10.4342 15.4384 10.4917 15.3333 10.5715C15.2289 10.6508 15.229 10.7054 15.229 10.7065C15.229 10.7924 15.2587 10.8443 15.2972 10.8797C15.339 10.9181 15.4279 10.9685 15.5874 10.9685H15.5938L16.0243 10.9724C16.871 10.9739 17.8534 11.5081 17.8534 12.5974C17.8534 13.2341 17.5105 13.6944 17.0775 13.9637C16.6705 14.2167 16.1803 14.3113 15.7475 14.3113C15.201 14.3113 14.7037 14.265 14.3681 14.1877C13.9914 14.1009 13.7564 13.7251 13.8432 13.3484C13.93 12.9716 14.3058 12.7366 14.6825 12.8234C14.8772 12.8683 15.2593 12.9113 15.7475 12.9113C16.0011 12.9113 16.2138 12.8521 16.3382 12.7748C16.3954 12.7392 16.4212 12.7081 16.4327 12.6892C16.4418 12.6742 16.4534 12.6494 16.4534 12.5974C16.4534 12.5513 16.44 12.5161 16.3884 12.4755C16.326 12.4263 16.2025 12.3724 16.0208 12.3724H16.0145L15.584 12.3685C14.6305 12.3669 13.829 11.7006 13.829 10.7065C13.829 10.1571 14.1323 9.72566 14.4865 9.45665Z" fill="#333333"/>
<path fill-rule="evenodd" clip-rule="evenodd" d="M5.97412 6.70371C5.68281 6.92007 5.4494 7.26261 5.27795 7.79838C5.16012 8.16659 4.76612 8.36956 4.39791 8.25173C4.0297 8.13391 3.82673 7.7399 3.94456 7.37169C4.17501 6.65151 4.54431 6.02175 5.13937 5.57979C5.73551 5.13703 6.48049 4.94043 7.35318 4.94043H16.6269C18.4838 4.94043 20.109 6.32001 20.109 8.16258V14.9438C20.109 16.7864 18.4838 18.1659 16.6269 18.1659H11.3593L8.62752 20.28C8.41026 20.4753 8.17073 20.6642 7.92473 20.8055C7.6867 20.9423 7.35486 21.0864 6.9889 21.0577C6.55074 21.0233 6.22055 20.7581 6.03596 20.3842C5.87358 20.0552 5.81865 19.6419 5.81865 19.19V17.9894C5.39955 17.9118 5.00542 17.7554 4.67577 17.4925C4.14208 17.0669 3.87109 16.4372 3.87109 15.6929C3.87109 15.3063 4.18449 14.9929 4.57109 14.9929C4.95769 14.9929 5.27109 15.3063 5.27109 15.6929C5.27109 16.0779 5.39697 16.277 5.5486 16.3979C5.72489 16.5385 6.03589 16.6505 6.51865 16.6505C6.90525 16.6505 7.21865 16.9639 7.21865 17.3505V19.19C7.21865 19.3569 7.22886 19.4854 7.24392 19.5819C7.37426 19.5046 7.53194 19.3837 7.708 19.2241C7.72146 19.2119 7.73538 19.2002 7.74974 19.1891L10.6916 16.9124C10.8142 16.8174 10.9649 16.7659 11.12 16.7659H16.6269C17.843 16.7659 18.709 15.8871 18.709 14.9438V8.16258C18.709 7.21926 17.843 6.34043 16.6269 6.34043H7.35318C6.68937 6.34043 6.26434 6.48816 5.97412 6.70371Z" fill="#333333"/>
</svg>
