<svg width="24" height="24" viewBox="0 0 24 24" fill="none" xmlns="http://www.w3.org/2000/svg">
<path d="M5.30022 16.1499C7.5677 19.7557 12.2544 20.9159 15.926 18.848C16.0854 18.759 16.242 18.6643 16.3954 18.5641C16.7191 18.3527 16.8101 17.9189 16.5987 17.5953C16.3873 17.2716 15.9536 17.1805 15.6299 17.3919C15.6043 17.4086 15.5786 17.4252 15.5528 17.4415C15.5407 17.4481 15.5288 17.4552 15.517 17.4626C15.4214 17.5227 15.3249 17.58 15.2276 17.6346C13.3612 18.6708 11.0278 18.7752 8.99851 17.7103C5.7953 16.0294 4.56122 12.0701 6.24212 8.86684C6.71306 7.96941 7.36298 7.22643 8.12508 6.65882C8.2597 6.55908 8.39914 6.46372 8.54332 6.37305C10.5588 5.10561 12.9998 5.0707 14.9841 6.07056C15.3294 6.24452 15.7503 6.10567 15.9243 5.76042C16.0982 5.41517 15.9594 4.99427 15.6141 4.82031C15.1657 4.59438 14.6979 4.41196 14.2175 4.27468C14.1775 4.25511 14.135 4.23911 14.0903 4.22716C11.6707 3.57994 9.10579 4.12645 7.16894 5.62655C3.96155 8.09882 3.10047 12.6519 5.30022 16.1499Z" fill="#333333"/>
<path d="M12.6996 8.49988C12.6996 8.11328 12.3862 7.79988 11.9996 7.79988C11.613 7.79988 11.2996 8.11328 11.2996 8.49988V11.9999C11.2996 12.3865 11.613 12.6999 11.9996 12.6999H13.9996C14.3862 12.6999 14.6996 12.3865 14.6996 11.9999C14.6996 11.6133 14.3862 11.2999 13.9996 11.2999H12.6996V8.49988Z" fill="#333333"/>
<path d="M18.3191 7.80311V16.1132C18.3191 16.4998 18.6325 16.8132 19.0191 16.8132C19.4057 16.8132 19.7191 16.4998 19.7191 16.1132V7.80311L20.5241 8.60813C20.7975 8.8815 21.2407 8.8815 21.5141 8.60813C21.7874 8.33477 21.7874 7.89155 21.5141 7.61818L19.5141 5.61818C19.447 5.55107 19.3696 5.50043 19.2871 5.46627C19.2045 5.43205 19.114 5.41316 19.0191 5.41316C18.9242 5.41316 18.8337 5.43205 18.7512 5.46627C18.6686 5.50043 18.5912 5.55107 18.5241 5.61818L16.5241 7.61818C16.2508 7.89155 16.2508 8.33477 16.5241 8.60813C16.7975 8.8815 17.2407 8.8815 17.5141 8.60813L18.3191 7.80311Z" fill="#333333"/>
</svg>
