<svg width="24" height="24" viewBox="0 0 24 24" fill="none" xmlns="http://www.w3.org/2000/svg">
<path d="M9.45186 4.51914C9.45186 4.02208 9.04891 3.61914 8.55186 3.61914C8.0548 3.61914 7.65186 4.02208 7.65186 4.51914V4.91408L6.69355 4.91408C5.14715 4.91408 3.89355 6.16768 3.89355 7.71408V16.2983C3.89355 17.8447 5.14716 19.0983 6.69356 19.0983H15.1704C15.557 19.0983 15.8704 18.7849 15.8704 18.3983C15.8704 18.0117 15.557 17.6983 15.1704 17.6983H6.69356C5.92036 17.6983 5.29355 17.0715 5.29355 16.2983V7.71408C5.29355 6.94088 5.92035 6.31408 6.69355 6.31408L7.65186 6.31408V6.94883C7.65186 7.44588 8.0548 7.84883 8.55186 7.84883C9.04891 7.84883 9.45186 7.44588 9.45186 6.94883V6.31407L15.1704 6.31406C15.557 6.31406 15.8704 6.00066 15.8704 5.61406C15.8704 5.22746 15.557 4.91406 15.1704 4.91406L9.45186 4.91407V4.51914Z" fill="#333333"/>
<path fill-rule="evenodd" clip-rule="evenodd" d="M11.654 9.32129C11.2122 9.32129 10.854 9.67946 10.854 10.1213V10.9674C10.854 11.4092 11.2122 11.7674 11.654 11.7674H12.4621C12.9039 11.7674 13.2621 11.4092 13.2621 10.9674V10.1213C13.2621 9.67946 12.9039 9.32129 12.4621 9.32129H11.654Z" fill="#333333"/>
<path fill-rule="evenodd" clip-rule="evenodd" d="M7.17383 10.1213C7.17383 9.67946 7.532 9.32129 7.97383 9.32129H8.78193C9.22376 9.32129 9.58193 9.67946 9.58193 10.1213V10.9674C9.58193 11.4092 9.22376 11.7674 8.78193 11.7674H7.97383C7.532 11.7674 7.17383 11.4092 7.17383 10.9674V10.1213Z" fill="#333333"/>
<path fill-rule="evenodd" clip-rule="evenodd" d="M7.97383 13.1455C7.532 13.1455 7.17383 13.5037 7.17383 13.9455V14.7916C7.17383 15.2334 7.532 15.5916 7.97383 15.5916H8.78193C9.22376 15.5916 9.58193 15.2334 9.58193 14.7916V13.9455C9.58193 13.5037 9.22376 13.1455 8.78193 13.1455H7.97383Z" fill="#333333"/>
<path d="M17.4312 16.6926C17.4312 17.0792 17.7446 17.3926 18.1312 17.3926C18.5178 17.3926 18.8312 17.0792 18.8312 16.6926L18.8312 9.31964L19.6362 10.1247C19.9095 10.398 20.3528 10.398 20.6261 10.1247C20.8995 9.8513 20.8995 9.40808 20.6261 9.13471L18.6261 7.13471C18.3528 6.86135 17.9095 6.86135 17.6362 7.13471L15.6362 9.13471C15.3628 9.40808 15.3628 9.85129 15.6362 10.1247C15.9095 10.398 16.3528 10.398 16.6261 10.1247L17.4312 9.31964L17.4312 16.6926Z" fill="#333333"/>
</svg>
