<svg width="24" height="24" viewBox="0 0 24 24" fill="none" xmlns="http://www.w3.org/2000/svg">
<path fill-rule="evenodd" clip-rule="evenodd" d="M12.4665 5.13874C13.5284 4.41211 14.97 5.17249 14.97 6.45919V17.4725C14.97 18.7526 13.5415 19.5144 12.4785 18.8012L8.35115 16.0318C7.58823 16.0325 6.92476 16.0322 6.22673 16.0319L5.87228 16.0317C4.98896 16.0314 4.27245 15.3153 4.27246 14.4315L4.27249 9.55738C4.2725 8.6736 4.989 7.95754 5.87231 7.95719L6.22462 7.95705C6.92236 7.95674 7.58544 7.95646 8.34767 7.95717L12.4665 5.13874ZM13.57 6.45919C13.57 6.29835 13.3898 6.2033 13.2571 6.29413L8.95922 9.23509C8.84256 9.31492 8.70446 9.35756 8.5631 9.35739C7.70895 9.3564 6.9884 9.35672 6.22519 9.35705L5.87286 9.35719C5.76205 9.35724 5.6725 9.44707 5.67249 9.55739L5.67246 14.4316C5.67246 14.5419 5.76202 14.6317 5.87281 14.6317L6.22583 14.6319C6.98844 14.6322 7.70956 14.6325 8.56313 14.6316C8.7023 14.6314 8.83836 14.6727 8.95393 14.7503L13.2586 17.6386C13.3915 17.7278 13.57 17.6325 13.57 17.4725V6.45919Z" fill="#333333"/>
<path d="M16.1112 8.25051C16.3578 7.95281 16.7991 7.91141 17.0968 8.15804C18.2885 9.14532 19.0015 10.4363 19.0015 11.9997C19.0015 13.5632 18.2885 14.8541 17.0968 15.8414C16.7991 16.088 16.3578 16.0466 16.1112 15.7489C15.8645 15.4512 15.9059 15.0099 16.2037 14.7633C17.1265 13.9987 17.6015 13.0829 17.6015 11.9997C17.6015 10.9166 17.1265 10.0007 16.2036 9.23613C15.9059 8.9895 15.8645 8.54822 16.1112 8.25051Z" fill="#333333"/>
<path d="M18.7477 6.00862C18.45 5.76199 18.0087 5.8034 17.762 6.1011C17.5154 6.39881 17.5568 6.84009 17.8545 7.08672C19.4592 8.41611 20.3274 10.1878 20.3274 12.0002C20.3274 13.8125 19.4592 15.5842 17.8545 16.9137C17.5568 17.1603 17.5154 17.6016 17.7621 17.8993C18.0087 18.197 18.45 18.2384 18.7477 17.9917C20.634 16.4289 21.7274 14.2781 21.7274 12.0002C21.7274 9.72231 20.634 7.57135 18.7477 6.00862Z" fill="#333333"/>
</svg>
