<svg width="24" height="24" viewBox="0 0 24 24" fill="none" xmlns="http://www.w3.org/2000/svg">
<path fill-rule="evenodd" clip-rule="evenodd" d="M13.0939 5.18171C14.1558 4.45508 15.5975 5.21546 15.5975 6.50216V17.5155C15.5975 18.7956 14.169 19.5573 13.106 18.8441L8.97859 16.0747C8.21567 16.0754 7.55221 16.0751 6.85417 16.0749L6.49973 16.0747C5.6164 16.0744 4.8999 15.3583 4.8999 14.4745L4.89994 9.60035C4.89994 8.71656 5.61645 8.00051 6.49975 8.00016L6.85206 8.00001C7.5498 7.99971 8.21288 7.99943 8.97511 8.00014L13.0939 5.18171ZM14.1975 6.50216C14.1975 6.34132 14.0173 6.24627 13.8845 6.3371L9.58666 9.27806C9.47 9.35789 9.3319 9.40053 9.19054 9.40036C8.33639 9.39937 7.61584 9.39968 6.85263 9.40001L6.5003 9.40016C6.38949 9.4002 6.29994 9.49004 6.29994 9.60036L6.2999 14.4745C6.2999 14.5848 6.38946 14.6747 6.50025 14.6747L6.85327 14.6749C7.61588 14.6752 8.337 14.6755 9.19057 14.6745C9.32974 14.6744 9.46581 14.7157 9.58137 14.7932L13.886 17.6816C14.0189 17.7707 14.1975 17.6755 14.1975 17.5155V6.50216Z" fill="#333333"/>
<path d="M21.8918 9.5478C22.1651 9.82117 22.1651 10.2644 21.8918 10.5377L20.3867 12.0428L21.8918 13.5478C22.1651 13.8212 22.1651 14.2644 21.8918 14.5377C21.6184 14.8111 21.1752 14.8111 20.9018 14.5377L19.3968 13.0327L17.8918 14.5377C17.6184 14.8111 17.1752 14.8111 16.9018 14.5377C16.6284 14.2644 16.6284 13.8212 16.9018 13.5478L18.4068 12.0428L16.9018 10.5377C16.6284 10.2644 16.6284 9.82117 16.9018 9.5478C17.1752 9.27443 17.6184 9.27443 17.8918 9.5478L19.3968 11.0528L20.9018 9.5478C21.1752 9.27443 21.6184 9.27443 21.8918 9.5478Z" fill="#333333"/>
</svg>
