<svg width="24" height="24" viewBox="0 0 24 24" fill="none" xmlns="http://www.w3.org/2000/svg">
<path fill-rule="evenodd" clip-rule="evenodd" d="M14.2432 7.39258C14.2432 7.79913 14.2919 8.1942 14.3818 8.57324L7.90234 10.9727V12.9541L18.5996 16.124V12.4326C18.8407 12.4676 19.0871 12.4883 19.3379 12.4883C19.5623 12.4883 19.7833 12.4715 20 12.4434V16.2588L19.9902 16.4189C19.9014 17.1502 19.2127 17.665 18.4863 17.542L18.3311 17.5049L14.457 16.3574V17.3789C14.457 18.0416 13.9196 18.5791 13.2568 18.5791H9.25684C8.59409 18.5791 8.05664 18.0416 8.05664 17.3789V14.46L7.2666 14.2266L5.04297 15.0225L4.91992 15.0576C4.34916 15.1844 3.7867 14.7881 3.71387 14.208L3.70605 14.0811V9.91895C3.70638 9.22755 4.39183 8.74478 5.04297 8.97754L7.18848 9.74414L14.249 7.12891C14.2446 7.21615 14.2432 7.30423 14.2432 7.39258ZM9.45703 17.1787H13.0566V15.9424L9.45703 14.875V17.1787ZM5.10645 13.5127L6.50098 13.0137V10.9844L5.10645 10.4863V13.5127Z" fill="#15C674"/>
<path d="M19.3379 3.66797C19.7245 3.66797 20.0381 3.98156 20.0381 4.36816V6.36328H22.0371L22.1787 6.37793C22.4974 6.44345 22.7373 6.72543 22.7373 7.06348C22.7373 7.40152 22.4974 7.6835 22.1787 7.74902L22.0371 7.76367H20.0381V9.7959C20.0379 10.1823 19.7244 10.4951 19.3379 10.4951C18.9514 10.4951 18.6379 10.1823 18.6377 9.7959V7.76367H16.6396C16.253 7.76367 15.9395 7.45008 15.9395 7.06348C15.9395 6.67688 16.253 6.36328 16.6396 6.36328H18.6377V4.36816C18.6377 3.98156 18.9513 3.66797 19.3379 3.66797Z" fill="#15C674"/>
</svg>
