<svg width="24" height="24" viewBox="0 0 24 24" fill="none" xmlns="http://www.w3.org/2000/svg">
<path fill-rule="evenodd" clip-rule="evenodd" d="M5.04265 15.0226L7.26817 14.2271L8.05664 14.4607V17.3799C8.05664 18.0427 8.5939 18.5799 9.25664 18.5799H13.2566C13.9194 18.5799 14.4566 18.0427 14.4566 17.3799V16.3571L18.3307 17.5051C19.1638 17.752 20 17.1276 20 16.2586V6.86756C20 5.96212 19.0975 5.33401 18.2485 5.6485L7.18833 9.74514L5.04266 8.97815C4.39137 8.74533 3.70605 9.22814 3.70605 9.91979V14.0809C3.70605 14.7726 4.39136 15.2554 5.04265 15.0226ZM7.90234 12.9548V10.9736L18.6 7.01124V16.1247L7.90234 12.9548ZM13.0566 15.9423L9.45664 14.8756V17.1799H13.0566V15.9423ZM5.10605 13.5132L6.50098 13.0145V10.9862L5.10605 10.4876V13.5132Z" fill="#333333"/>
</svg>
