<svg width="24" height="24" viewBox="0 0 24 24" fill="none" xmlns="http://www.w3.org/2000/svg">
<path d="M9.47335 4.20914C11.2645 3.63313 13.1993 3.69062 14.9532 4.37198C15.3135 4.51198 15.4922 4.9176 15.3522 5.27796C15.2122 5.63832 14.8065 5.81696 14.4462 5.67696C12.9918 5.11193 11.3873 5.06426 9.90195 5.54192C8.41658 6.01959 7.14065 6.99354 6.28822 8.3004C5.43579 9.60725 5.05871 11.1675 5.22024 12.7194C5.38177 14.2713 6.07209 15.7205 7.17538 16.8238C8.27867 17.927 9.72782 18.6174 11.2797 18.7789C12.8316 18.9404 14.3919 18.5633 15.6987 17.7109C17.0056 16.8585 17.9795 15.5826 18.4572 14.0972C18.9349 12.6118 18.8872 11.0073 18.3222 9.55296C18.1822 9.1926 18.3608 8.78698 18.7212 8.64698C19.0815 8.50698 19.4872 8.68562 19.6272 9.04598C20.3085 10.7998 20.366 12.7346 19.79 14.5258C19.214 16.317 18.0395 17.8556 16.4636 18.8835C14.8877 19.9114 13.0062 20.3662 11.1348 20.1714C9.26337 19.9766 7.51587 19.1441 6.18543 17.8137C4.85499 16.4833 4.02255 14.7358 3.82777 12.8643C3.63298 10.9929 4.08769 9.11145 5.11562 7.53554C6.14355 5.95963 7.68217 4.78515 9.47335 4.20914Z" fill="#333333"/>
<path fill-rule="evenodd" clip-rule="evenodd" d="M12.9798 10.0296C12.6847 9.88253 12.3519 9.7998 11.9998 9.7998C10.7848 9.7998 9.7998 10.7848 9.7998 11.9998C9.7998 13.2148 10.7848 14.1998 11.9998 14.1998C13.2148 14.1998 14.1998 13.2148 14.1998 11.9998C14.1998 11.6476 14.117 11.3147 13.9699 11.0195L17.7446 7.24478C18.018 6.97141 18.018 6.5282 17.7446 6.25483C17.4712 5.98146 17.028 5.98146 16.7546 6.25483L12.9798 10.0296ZM11.9998 11.1998C11.558 11.1998 11.1998 11.558 11.1998 11.9998C11.1998 12.4416 11.558 12.7998 11.9998 12.7998C12.4416 12.7998 12.7998 12.4416 12.7998 11.9998C12.7998 11.8174 12.7387 11.6492 12.6359 11.5146C12.6075 11.4937 12.5803 11.4705 12.5546 11.4448C12.529 11.4191 12.5057 11.392 12.4849 11.3636C12.3503 11.2608 12.1822 11.1998 11.9998 11.1998Z" fill="#333333"/>
</svg>
