<svg width="24" height="24" viewBox="0 0 24 24" fill="none" xmlns="http://www.w3.org/2000/svg">
<path fill-rule="evenodd" clip-rule="evenodd" d="M13.7239 6.33594C12.0383 6.33594 10.6719 7.70239 10.6719 9.38799V14.2815C10.6719 15.9671 12.0383 17.3336 13.7239 17.3336C15.4095 17.3336 16.776 15.9671 16.776 14.2815V9.38799C16.776 7.70239 15.4095 6.33594 13.7239 6.33594ZM12.0719 9.38799C12.0719 8.47559 12.8115 7.73594 13.7239 7.73594C14.6363 7.73594 15.376 8.47559 15.376 9.38799V14.2815C15.376 15.1939 14.6363 15.9336 13.7239 15.9336C12.8115 15.9336 12.0719 15.1939 12.0719 14.2815V9.38799Z" fill="#333333"/>
<path d="M8.18109 7.41128C8.64958 7.94338 8.92063 8.65672 8.92063 9.51191C8.92063 10.192 8.61646 10.8142 8.25018 11.3602C7.88153 11.9097 7.38542 12.4732 6.89437 13.031L6.89319 13.0323C6.10805 13.9241 5.3021 14.8428 4.73253 15.8781H8.22063C8.60723 15.8781 8.92063 16.1915 8.92063 16.5781C8.92063 16.9647 8.60723 17.2781 8.22063 17.2781H3.6425C3.41367 17.2781 3.19928 17.1662 3.06837 16.9785C2.93746 16.7908 2.90655 16.551 2.98559 16.3363C3.60857 14.6438 4.81487 13.274 5.78916 12.1677L5.84238 12.1072C6.35008 11.5305 6.77989 11.0388 7.08758 10.5802C7.39795 10.1176 7.52063 9.77825 7.52063 9.51191C7.52063 8.96473 7.35311 8.58946 7.13033 8.33643C6.90193 8.07702 6.57783 7.90403 6.20442 7.83443C5.42779 7.68968 4.61111 8.01014 4.25146 8.64457C4.06081 8.98089 3.63362 9.09898 3.2973 8.90833C2.96098 8.71767 2.84289 8.29048 3.03355 7.95416C3.74352 6.70173 5.21591 6.22608 6.46094 6.45813C7.09835 6.57694 7.71823 6.88557 8.18109 7.41128Z" fill="#333333"/>
<path d="M10.7596 16.4428C10.7596 16.8238 10.4507 17.1326 10.0697 17.1326C9.68874 17.1326 9.37988 16.8238 9.37988 16.4428C9.37988 16.0618 9.68874 15.7529 10.0697 15.7529C10.4507 15.7529 10.7596 16.0618 10.7596 16.4428Z" fill="#333333"/>
<path d="M21.1909 10.2949C21.4696 10.5628 21.4785 11.0059 21.2106 11.2846L20.332 12.199L21.2106 13.1133C21.4785 13.3921 21.4696 13.8352 21.1909 14.1031C20.9121 14.3709 20.469 14.3621 20.2011 14.0833L19.3611 13.2092L18.5211 14.0833C18.2533 14.3621 17.8101 14.3709 17.5314 14.1031C17.2526 13.8352 17.2438 13.3921 17.5117 13.1133L18.3903 12.199L17.5117 11.2846C17.2438 11.0059 17.2526 10.5628 17.5314 10.2949C17.8101 10.027 18.2533 10.0358 18.5211 10.3146L19.3611 11.1887L20.2011 10.3146C20.469 10.0358 20.9121 10.027 21.1909 10.2949Z" fill="#333333"/>
</svg>
