<svg width="24" height="24" viewBox="0 0 24 24" fill="none" xmlns="http://www.w3.org/2000/svg">
<path fill-rule="evenodd" clip-rule="evenodd" d="M3.21533 9.38603C3.21533 7.70043 4.58178 6.33398 6.26738 6.33398C7.95298 6.33398 9.31943 7.70043 9.31943 9.38604V14.2796C9.31943 15.9652 7.95298 17.3316 6.26738 17.3316C4.58178 17.3316 3.21533 15.9652 3.21533 14.2796V9.38603ZM6.26738 7.73398C5.35498 7.73398 4.61533 8.47363 4.61533 9.38603V14.2796C4.61533 15.192 5.35498 15.9316 6.26738 15.9316C7.17979 15.9316 7.91943 15.192 7.91943 14.2796V9.38604C7.91943 8.47363 7.17979 7.73398 6.26738 7.73398Z" fill="#333333"/>
<path d="M11.3118 16.4428C11.3118 16.8238 11.003 17.1326 10.622 17.1326C10.241 17.1326 9.93213 16.8238 9.93213 16.4428C9.93213 16.0618 10.241 15.7529 10.622 15.7529C11.003 15.7529 11.3118 16.0618 11.3118 16.4428Z" fill="#333333"/>
<path d="M11.4402 6.53516C11.0536 6.53516 10.7402 6.84856 10.7402 7.23516C10.7402 7.62176 11.0536 7.93516 11.4402 7.93516H14.9862L12.741 16.2779C12.6405 16.6512 12.8617 17.0352 13.235 17.1357C13.6083 17.2362 13.9924 17.015 14.0929 16.6417L16.5754 7.41707C16.632 7.20679 16.5875 6.98216 16.455 6.80933C16.3226 6.6365 16.1172 6.53516 15.8995 6.53516H11.4402Z" fill="#333333"/>
<path d="M21.1914 10.2949C21.4701 10.5628 21.4789 11.0059 21.2111 11.2846L20.3324 12.199L21.2111 13.1133C21.4789 13.3921 21.4701 13.8352 21.1914 14.1031C20.9126 14.3709 20.4695 14.3621 20.2016 14.0833L19.3616 13.2092L18.5216 14.0833C18.2538 14.3621 17.8106 14.3709 17.5319 14.1031C17.2531 13.8352 17.2443 13.3921 17.5122 13.1133L18.3908 12.199L17.5122 11.2846C17.2443 11.0059 17.2531 10.5628 17.5319 10.2949C17.8106 10.027 18.2538 10.0358 18.5216 10.3146L19.3616 11.1887L20.2016 10.3146C20.4695 10.0358 20.9126 10.027 21.1914 10.2949Z" fill="#333333"/>
</svg>
