<svg width="24" height="24" viewBox="0 0 24 24" fill="none" xmlns="http://www.w3.org/2000/svg">
<path d="M11.1229 6.53711C10.7363 6.53711 10.4229 6.85051 10.4229 7.23711C10.4229 7.62371 10.7363 7.93711 11.1229 7.93711H14.6688L12.4236 16.2798C12.3231 16.6531 12.5443 17.0372 12.9176 17.1377C13.291 17.2381 13.675 17.0169 13.7755 16.6436L16.258 7.41902C16.3146 7.20874 16.2701 6.98411 16.1377 6.81128C16.0052 6.63845 15.7998 6.53711 15.5821 6.53711H11.1229Z" fill="#333333"/>
<path d="M21.1909 10.2949C21.4696 10.5628 21.4785 11.0059 21.2106 11.2846L20.332 12.199L21.2106 13.1133C21.4785 13.3921 21.4696 13.8352 21.1909 14.1031C20.9121 14.3709 20.469 14.3621 20.2011 14.0833L19.3611 13.2092L18.5211 14.0833C18.2533 14.3621 17.8101 14.3709 17.5314 14.1031C17.2526 13.8352 17.2438 13.3921 17.5117 13.1133L18.3903 12.199L17.5117 11.2846C17.2438 11.0059 17.2526 10.5628 17.5314 10.2949C17.8101 10.027 18.2533 10.0358 18.5211 10.3146L19.3611 11.1887L20.2011 10.3146C20.469 10.0358 20.9121 10.027 21.1909 10.2949Z" fill="#333333"/>
<path d="M10.3333 16.4428C10.3333 16.8238 10.0244 17.1326 9.64346 17.1326C9.26247 17.1326 8.95361 16.8238 8.95361 16.4428C8.95361 16.0618 9.26247 15.7529 9.64346 15.7529C10.0244 15.7529 10.3333 16.0618 10.3333 16.4428Z" fill="#333333"/>
<path d="M7.31676 7.42266C7.31676 7.15338 7.16229 6.90797 6.9195 6.79151C6.6767 6.67505 6.38863 6.70819 6.17862 6.87674L3.61149 8.93704C3.30999 9.17901 3.26173 9.61959 3.50371 9.9211C3.74569 10.2226 4.18627 10.2709 4.48778 10.0289L5.91676 8.88202V16.5789C5.91676 16.9655 6.23016 17.2789 6.61676 17.2789C7.00336 17.2789 7.31676 16.9655 7.31676 16.5789V7.42266Z" fill="#333333"/>
</svg>
