<svg width="24" height="24" viewBox="0 0 24 24" fill="none" xmlns="http://www.w3.org/2000/svg">
<path fill-rule="evenodd" clip-rule="evenodd" d="M13.3606 6.33594C11.675 6.33594 10.3086 7.70239 10.3086 9.38799V14.2815C10.3086 15.9671 11.675 17.3336 13.3606 17.3336C15.0462 17.3336 16.4127 15.9671 16.4127 14.2815V9.38799C16.4127 7.70239 15.0462 6.33594 13.3606 6.33594ZM11.7086 9.38799C11.7086 8.47559 12.4482 7.73594 13.3606 7.73594C14.273 7.73594 15.0127 8.47559 15.0127 9.38799V14.2815C15.0127 15.1939 14.273 15.9336 13.3606 15.9336C12.4482 15.9336 11.7086 15.1939 11.7086 14.2815V9.38799Z" fill="#333333"/>
<path d="M6.91999 6.79151C7.16278 6.90797 7.31725 7.15338 7.31725 7.42266V16.5789C7.31725 16.9655 7.00385 17.2789 6.61725 17.2789C6.23065 17.2789 5.91725 16.9655 5.91725 16.5789V8.88202L4.48826 10.0289C4.18676 10.2709 3.74618 10.2226 3.5042 9.9211C3.26222 9.61959 3.31048 9.17901 3.61198 8.93704L6.17911 6.87674C6.38912 6.70819 6.67719 6.67505 6.91999 6.79151Z" fill="#333333"/>
<path d="M9.83428 16.4428C9.83428 16.8238 9.52542 17.1326 9.14443 17.1326C8.76344 17.1326 8.45459 16.8238 8.45459 16.4428C8.45459 16.0618 8.76344 15.7529 9.14443 15.7529C9.52542 15.7529 9.83428 16.0618 9.83428 16.4428Z" fill="#333333"/>
<path d="M21.1914 10.2949C21.4701 10.5628 21.4789 11.0059 21.2111 11.2846L20.3324 12.199L21.2111 13.1133C21.4789 13.3921 21.4701 13.8352 21.1914 14.1031C20.9126 14.3709 20.4695 14.3621 20.2016 14.0833L19.3616 13.2092L18.5216 14.0833C18.2538 14.3621 17.8106 14.3709 17.5319 14.1031C17.2531 13.8352 17.2443 13.3921 17.5122 13.1133L18.3908 12.199L17.5122 11.2846C17.2443 11.0059 17.2531 10.5628 17.5319 10.2949C17.8106 10.027 18.2538 10.0358 18.5216 10.3146L19.3616 11.1887L20.2016 10.3146C20.4695 10.0358 20.9126 10.027 21.1914 10.2949Z" fill="#333333"/>
</svg>
