<svg width="24" height="24" viewBox="0 0 24 24" fill="none" xmlns="http://www.w3.org/2000/svg">
<path d="M16.8171 9.51191C16.8171 8.65672 16.5461 7.94338 16.0776 7.41128C15.6147 6.88557 14.9948 6.57694 14.3574 6.45813C13.1124 6.22608 11.64 6.70173 10.93 7.95416C10.7394 8.29048 10.8575 8.71767 11.1938 8.90833C11.5301 9.09898 11.9573 8.98089 12.1479 8.64457C12.5076 8.01014 13.3243 7.68968 14.1009 7.83443C14.4743 7.90403 14.7984 8.07702 15.0268 8.33643C15.2496 8.58946 15.4171 8.96473 15.4171 9.51191C15.4171 9.77825 15.2944 10.1176 14.9841 10.5802C14.6764 11.0388 14.2466 11.5305 13.7389 12.1072L13.6856 12.1677C12.7114 13.274 11.5051 14.6438 10.8821 16.3363C10.803 16.551 10.8339 16.7908 10.9649 16.9785C11.0958 17.1662 11.3102 17.2781 11.539 17.2781H16.1171C16.5037 17.2781 16.8171 16.9647 16.8171 16.5781C16.8171 16.1915 16.5037 15.8781 16.1171 15.8781H12.629C13.1986 14.8428 14.0045 13.9241 14.7897 13.0323L14.7909 13.031C15.2819 12.4732 15.778 11.9097 16.1467 11.3602C16.5129 10.8142 16.8171 10.192 16.8171 9.51191Z" fill="#333333"/>
<path d="M6.91999 6.79151C7.16278 6.90797 7.31725 7.15338 7.31725 7.42266V16.5789C7.31725 16.9655 7.00385 17.2789 6.61725 17.2789C6.23065 17.2789 5.91725 16.9655 5.91725 16.5789V8.88202L4.48826 10.0289C4.18676 10.2709 3.74618 10.2226 3.5042 9.9211C3.26222 9.61959 3.31048 9.17901 3.61198 8.93704L6.17911 6.87674C6.38912 6.70819 6.67719 6.67505 6.91999 6.79151Z" fill="#333333"/>
<path d="M9.83428 16.4428C9.83428 16.8238 9.52542 17.1326 9.14443 17.1326C8.76344 17.1326 8.45459 16.8238 8.45459 16.4428C8.45459 16.0618 8.76344 15.7529 9.14443 15.7529C9.52542 15.7529 9.83428 16.0618 9.83428 16.4428Z" fill="#333333"/>
<path d="M21.1914 10.2949C21.4701 10.5628 21.4789 11.0059 21.2111 11.2846L20.3324 12.199L21.2111 13.1133C21.4789 13.3921 21.4701 13.8352 21.1914 14.1031C20.9126 14.3709 20.4695 14.3621 20.2016 14.0833L19.3616 13.2092L18.5216 14.0833C18.2538 14.3621 17.8106 14.3709 17.5319 14.1031C17.2531 13.8352 17.2443 13.3921 17.5122 13.1133L18.3908 12.199L17.5122 11.2846C17.2443 11.0059 17.2531 10.5628 17.5319 10.2949C17.8106 10.027 18.2538 10.0358 18.5216 10.3146L19.3616 11.1887L20.2016 10.3146C20.4695 10.0358 20.9126 10.027 21.1914 10.2949Z" fill="#333333"/>
</svg>
