<svg width="24" height="24" viewBox="0 0 24 24" fill="none" xmlns="http://www.w3.org/2000/svg">
<path fill-rule="evenodd" clip-rule="evenodd" d="M3.21533 9.38603C3.21533 7.70043 4.58178 6.33398 6.26738 6.33398C7.95298 6.33398 9.31943 7.70043 9.31943 9.38604V14.2796C9.31943 15.9652 7.95298 17.3316 6.26738 17.3316C4.58178 17.3316 3.21533 15.9652 3.21533 14.2796V9.38603ZM6.26738 7.73398C5.35498 7.73398 4.61533 8.47363 4.61533 9.38603V14.2796C4.61533 15.192 5.35498 15.9316 6.26738 15.9316C7.17979 15.9316 7.91943 15.192 7.91943 14.2796V9.38604C7.91943 8.47363 7.17979 7.73398 6.26738 7.73398Z" fill="#333333"/>
<path d="M10.6438 16.4428C10.6438 16.8238 10.335 17.1326 9.954 17.1326C9.57301 17.1326 9.26416 16.8238 9.26416 16.4428C9.26416 16.0618 9.57301 15.7529 9.954 15.7529C10.335 15.7529 10.6438 16.0618 10.6438 16.4428Z" fill="#333333"/>
<path d="M11.7675 6.53516C11.3809 6.53516 11.0675 6.84856 11.0675 7.23516L11.0675 10.7925C11.0675 11.1791 11.3809 11.4925 11.7675 11.4925H13.2192C14.521 11.4925 15.5343 12.4966 15.5343 13.757C15.5343 15.0174 14.521 16.0215 13.2192 16.0215C12.7761 16.0215 12.442 15.9313 12.0958 15.7475C11.7543 15.5662 11.3306 15.696 11.1493 16.0375C10.968 16.3789 11.0978 16.8027 11.4393 16.984C11.9864 17.2745 12.5457 17.4215 13.2192 17.4215C15.2676 17.4215 16.9343 15.8169 16.9343 13.757C16.9343 11.6972 15.2676 10.0925 13.2192 10.0925H12.4675V7.93516L15.5643 7.93516C15.9509 7.93516 16.2643 7.62176 16.2643 7.23516C16.2643 6.84856 15.9509 6.53516 15.5643 6.53516L11.7675 6.53516Z" fill="#333333"/>
<path d="M21.1914 10.2949C21.4701 10.5628 21.4789 11.0059 21.2111 11.2846L20.3324 12.199L21.2111 13.1133C21.4789 13.3921 21.4701 13.8352 21.1914 14.1031C20.9126 14.3709 20.4695 14.3621 20.2016 14.0833L19.3616 13.2092L18.5216 14.0833C18.2538 14.3621 17.8106 14.3709 17.5319 14.1031C17.2531 13.8352 17.2443 13.3921 17.5122 13.1133L18.3908 12.199L17.5122 11.2846C17.2443 11.0059 17.2531 10.5628 17.5319 10.2949C17.8106 10.027 18.2538 10.0358 18.5216 10.3146L19.3616 11.1887L20.2016 10.3146C20.4695 10.0358 20.9126 10.027 21.1914 10.2949Z" fill="#333333"/>
</svg>
