<svg width="24" height="24" viewBox="0 0 24 24" fill="none" xmlns="http://www.w3.org/2000/svg">
<path d="M11.768 6.53711C11.3814 6.53711 11.068 6.85051 11.068 7.23711L11.068 10.7945C11.068 11.1811 11.3814 11.4945 11.768 11.4945H13.2197C14.5214 11.4945 15.5348 12.4986 15.5348 13.759C15.5348 15.0193 14.5214 16.0234 13.2197 16.0234C12.7766 16.0234 12.4425 15.9333 12.0963 15.7494C11.7548 15.5681 11.331 15.698 11.1497 16.0394C10.9685 16.3809 11.0983 16.8047 11.4398 16.986C11.9868 17.2764 12.5462 17.4234 13.2197 17.4234C15.2681 17.4234 16.9348 15.8188 16.9348 13.759C16.9348 11.6991 15.2681 10.0945 13.2197 10.0945H12.468V7.93711L15.5648 7.93711C15.9514 7.93711 16.2648 7.62371 16.2648 7.23711C16.2648 6.85051 15.9514 6.53711 15.5648 6.53711H11.768Z" fill="#333333"/>
<path d="M6.91999 6.79151C7.16278 6.90797 7.31725 7.15338 7.31725 7.42266V16.5789C7.31725 16.9655 7.00385 17.2789 6.61725 17.2789C6.23065 17.2789 5.91725 16.9655 5.91725 16.5789V8.88202L4.48826 10.0289C4.18676 10.2709 3.74618 10.2226 3.5042 9.9211C3.26222 9.61959 3.31048 9.17901 3.61198 8.93704L6.17911 6.87674C6.38912 6.70819 6.67719 6.67505 6.91999 6.79151Z" fill="#333333"/>
<path d="M9.97539 16.4428C9.97539 16.8238 9.66654 17.1326 9.28555 17.1326C8.90456 17.1326 8.5957 16.8238 8.5957 16.4428C8.5957 16.0618 8.90456 15.7529 9.28555 15.7529C9.66654 15.7529 9.97539 16.0618 9.97539 16.4428Z" fill="#333333"/>
<path d="M21.1914 10.2949C21.4701 10.5628 21.4789 11.0059 21.2111 11.2846L20.3324 12.199L21.2111 13.1133C21.4789 13.3921 21.4701 13.8352 21.1914 14.1031C20.9126 14.3709 20.4695 14.3621 20.2016 14.0833L19.3616 13.2092L18.5216 14.0833C18.2538 14.3621 17.8106 14.3709 17.5319 14.1031C17.2531 13.8352 17.2443 13.3921 17.5122 13.1133L18.3908 12.199L17.5122 11.2846C17.2443 11.0059 17.2531 10.5628 17.5319 10.2949C17.8106 10.027 18.2538 10.0358 18.5216 10.3146L19.3616 11.1887L20.2016 10.3146C20.4695 10.0358 20.9126 10.027 21.1914 10.2949Z" fill="#333333"/>
</svg>
