<svg width="24" height="24" viewBox="0 0 24 24" fill="none" xmlns="http://www.w3.org/2000/svg">
<path fill-rule="evenodd" clip-rule="evenodd" d="M10.7836 16.8182C10.7836 16.8182 8.82729 19.1386 8.3933 19.6206C7.9593 20.1025 7.40371 20.0908 6.98351 19.7324C6.56332 19.374 6.51323 18.7429 6.87164 18.3227L9.08939 15.7226L10.0981 10.3734L10.0048 10.435L9.00059 12.3507C8.79573 12.7092 8.50169 12.8985 8.19147 12.9293C8.00111 12.9481 7.80467 12.9072 7.61899 12.8091C7.13071 12.551 6.94408 11.946 7.20215 11.4577L8.35627 9.27403C8.44934 9.09336 8.54944 8.99913 8.68967 8.90661L10.6264 7.62879C10.7008 7.57971 10.7806 7.54131 10.8635 7.51392C11.0532 7.45128 11.2594 7.44625 11.4552 7.50292L13.0211 7.95627C13.1071 7.98117 13.1886 8.01726 13.2637 8.06307C13.4136 8.15449 13.5382 8.28464 13.6231 8.4419L14.7969 10.6168L16.5515 10.9417C17.0946 11.0422 17.4407 11.6484 17.3527 12.107C17.2648 12.5656 16.7305 13.0088 16.1874 12.9083L13.9621 12.4963C13.7499 12.457 13.5586 12.3507 13.4141 12.1964C13.356 12.1343 13.3054 12.0644 13.2641 11.9879L12.9795 11.4606L12.7094 12.9105C12.7094 12.9105 13.1843 13.3791 13.6741 13.8665C14.1498 14.3399 14.6397 14.8311 14.7228 14.9284C14.8914 15.1261 15.0335 15.5407 15.0335 15.739C15.0335 15.9374 15.0149 19.1557 15.0149 19.1557C15.0149 19.708 14.5672 20.1557 14.0149 20.1557C13.4626 20.1557 13.0149 19.708 13.0149 19.1557V16.0483L11.3735 14.4032L11.0055 16.3545C10.9732 16.5258 10.8967 16.6856 10.7836 16.8182ZM11.6149 18.0038L11.5405 18.0919C11.3499 18.3174 11.0912 18.6233 10.8187 18.9444C10.2826 19.5763 9.6681 20.297 9.43367 20.5574C9.00628 21.032 8.42546 21.3556 7.7545 21.3898C7.09537 21.4234 6.511 21.1695 6.07498 20.7976C5.06651 19.9374 4.9463 18.4226 5.80648 17.4141L7.78263 15.0973L7.92782 14.3274C7.58791 14.302 7.26035 14.203 6.96481 14.0468C5.79293 13.4275 5.34503 11.9754 5.96439 10.8035L7.11569 8.62519C7.33702 8.1989 7.61724 7.93692 7.91866 7.73804L9.85539 6.46022C9.91163 6.42311 9.96916 6.38855 10.0278 6.35655C9.9108 6.0499 9.84671 5.71711 9.84671 5.36936C9.84671 3.83967 11.0868 2.59961 12.6165 2.59961C14.1461 2.59961 15.3862 3.83967 15.3862 5.36936C15.3862 6.14322 15.0688 6.84295 14.5572 7.34551C14.6711 7.47699 14.7712 7.62147 14.8551 7.77699L15.7106 9.36222L16.8064 9.56508C17.5309 9.69922 18.0565 10.1546 18.3638 10.629C18.6626 11.0904 18.8526 11.7193 18.7277 12.3708C18.6053 13.0087 18.2111 13.5223 17.7678 13.8469C17.3237 14.1721 16.6918 14.4073 15.9872 14.2943C16.1117 14.4947 16.1981 14.6954 16.2546 14.8483C16.3332 15.061 16.4335 15.3962 16.4335 15.739C16.4335 15.8434 16.4288 16.7043 16.4241 17.5296L16.4149 19.1607C16.4122 20.4839 15.3387 21.5557 14.0149 21.5557C12.6894 21.5557 11.6149 20.4812 11.6149 19.1557V18.0038ZM11.4443 6.07838C11.3189 5.87155 11.2467 5.62888 11.2467 5.36936C11.2467 4.61287 11.86 3.99961 12.6165 3.99961C13.3729 3.99961 13.9862 4.61287 13.9862 5.36936C13.9862 5.88792 13.698 6.33917 13.2731 6.57173C13.0782 6.67844 12.8544 6.73911 12.6165 6.73911C12.2936 6.73911 11.9969 6.62742 11.7627 6.44059C11.6364 6.3398 11.5284 6.21716 11.4443 6.07838Z" fill="#333333"/>
</svg>
