<svg width="24" height="24" viewBox="0 0 24 24" fill="none" xmlns="http://www.w3.org/2000/svg">
<path fill-rule="evenodd" clip-rule="evenodd" d="M8.28076 12.1375C8.28076 11.1986 9.04188 10.4375 9.98076 10.4375H17.3285C17.9282 10.4375 18.4834 10.7534 18.7898 11.2688L19.9787 13.2688C20.297 13.8042 20.297 14.4708 19.9787 15.0062L18.7898 17.0062C18.4834 17.5216 17.9282 17.8375 17.3285 17.8375H9.98076C9.04188 17.8375 8.28076 17.0764 8.28076 16.1375V12.1375ZM9.98076 11.8375C9.81508 11.8375 9.68076 11.9718 9.68076 12.1375V16.1375C9.68076 16.3032 9.81508 16.4375 9.98076 16.4375H17.3285C17.4343 16.4375 17.5323 16.3818 17.5864 16.2908L18.7753 14.2908C18.8315 14.1963 18.8315 14.0787 18.7753 13.9842L17.5864 11.9842C17.5323 11.8932 17.4343 11.8375 17.3285 11.8375H9.98076Z" fill="#333333"/>
<path fill-rule="evenodd" clip-rule="evenodd" d="M3.78076 6.9375C3.78076 6.10907 4.45233 5.4375 5.28076 5.4375H12.7713C13.3048 5.4375 13.7981 5.72087 14.0669 6.18169L15.2561 8.22026L15.3271 8.34202C15.5219 8.67596 15.4091 9.10458 15.0752 9.29938C14.7413 9.49417 14.3126 9.38138 14.1178 9.04744L12.8576 6.88711C12.8397 6.85639 12.8068 6.8375 12.7713 6.8375H5.28076C5.22553 6.8375 5.18076 6.88227 5.18076 6.9375V11.3375C5.18076 11.3927 5.22553 11.4375 5.28076 11.4375H6.38976C6.77636 11.4375 7.08976 11.7509 7.08976 12.1375C7.08976 12.5241 6.77636 12.8375 6.38976 12.8375H5.28076C4.45234 12.8375 3.78076 12.1659 3.78076 11.3375V6.9375Z" fill="#333333"/>
</svg>
