<svg width="24" height="24" viewBox="0 0 24 24" fill="none" xmlns="http://www.w3.org/2000/svg">
<path d="M9.68926 11.3389C9.30266 11.3389 8.98926 11.6523 8.98926 12.0389C8.98926 12.4255 9.30266 12.7389 9.68926 12.7389H14.1893C14.5759 12.7389 14.8893 12.4255 14.8893 12.0389C14.8893 11.6523 14.5759 11.3389 14.1893 11.3389H9.68926Z" fill="#333333"/>
<path fill-rule="evenodd" clip-rule="evenodd" d="M6.67227 5.55859C5.51247 5.55859 4.57227 6.4988 4.57227 7.65859V16.341C4.57227 17.5008 5.51247 18.441 6.67226 18.441H15.6317C16.3286 18.441 16.9802 18.0953 17.3708 17.5181L20.385 13.0648C20.8203 12.4215 20.8203 11.5781 20.385 10.9348L17.3708 6.48151C16.9802 5.90435 16.3286 5.55859 15.6317 5.55859H6.67227ZM5.97227 7.65859C5.97227 7.27199 6.28567 6.95859 6.67227 6.95859H15.6317C15.864 6.95859 16.0812 7.07385 16.2114 7.26623L19.2256 11.7195C19.3401 11.8888 19.3401 12.1108 19.2256 12.2801L16.2114 16.7334C16.0812 16.9258 15.864 17.041 15.6317 17.041H6.67226C6.28567 17.041 5.97227 16.7276 5.97227 16.341V7.65859Z" fill="#333333"/>
</svg>
