<svg width="24" height="24" viewBox="0 0 24 24" fill="none" xmlns="http://www.w3.org/2000/svg">
<path d="M11.9393 9.08887C12.3259 9.08887 12.6393 9.40227 12.6393 9.78887V11.3389H14.1893C14.5759 11.3389 14.8893 11.6523 14.8893 12.0389C14.8893 12.4255 14.5759 12.7389 14.1893 12.7389H12.6393V14.2889C12.6393 14.6755 12.3259 14.9889 11.9393 14.9889C11.5527 14.9889 11.2393 14.6755 11.2393 14.2889V12.7389H9.68926C9.30266 12.7389 8.98926 12.4255 8.98926 12.0389C8.98926 11.6523 9.30266 11.3389 9.68926 11.3389H11.2393V9.78887C11.2393 9.40227 11.5527 9.08887 11.9393 9.08887Z" fill="#333333"/>
<path fill-rule="evenodd" clip-rule="evenodd" d="M4.57227 7.65859C4.57227 6.4988 5.51247 5.55859 6.67227 5.55859H15.6317C16.3286 5.55859 16.9802 5.90435 17.3708 6.48151L20.385 10.9348C20.8203 11.5781 20.8203 12.4215 20.385 13.0648L17.3708 17.5181C16.9802 18.0953 16.3286 18.441 15.6317 18.441H6.67226C5.51247 18.441 4.57227 17.5008 4.57227 16.341V7.65859ZM6.67227 6.95859C6.28567 6.95859 5.97227 7.27199 5.97227 7.65859V16.341C5.97227 16.7276 6.28567 17.041 6.67226 17.041H15.6317C15.864 17.041 16.0812 16.9258 16.2114 16.7334L19.2256 12.2801C19.3401 12.1108 19.3401 11.8888 19.2256 11.7195L16.2114 7.26623C16.0812 7.07385 15.864 6.95859 15.6317 6.95859H6.67227Z" fill="#333333"/>
</svg>
