<svg width="24" height="24" viewBox="0 0 24 24" fill="none" xmlns="http://www.w3.org/2000/svg">
<path d="M18.991 19.1024C19.3772 19.1027 19.6901 19.4162 19.6902 19.8026C19.6901 20.1889 19.3773 20.5025 18.991 20.5028H4.97631C4.58974 20.5028 4.27617 20.1891 4.27612 19.8026C4.27622 19.4161 4.58978 19.1024 4.97631 19.1024H18.991Z" fill="#15C674"/>
<path fill-rule="evenodd" clip-rule="evenodd" d="M6.99877 11.995C7.93766 11.995 8.69897 12.7563 8.69897 13.6951V16.6951C8.69892 17.634 7.93762 18.3953 6.99877 18.3953H5.99877C5.06012 18.3951 4.29863 17.6338 4.29858 16.6951V13.6951C4.29858 12.7564 5.06009 11.9952 5.99877 11.995H6.99877ZM5.99877 13.3953C5.83329 13.3956 5.69897 13.5296 5.69897 13.6951V16.6951C5.69902 16.8606 5.83332 16.9947 5.99877 16.995H6.99877C7.16443 16.995 7.29853 16.8608 7.29858 16.6951V13.6951C7.29858 13.5295 7.16446 13.3953 6.99877 13.3953H5.99877Z" fill="#15C674"/>
<path fill-rule="evenodd" clip-rule="evenodd" d="M12.4988 9.49495C13.4377 9.49496 14.199 10.2563 14.199 11.1951V16.6951C14.1989 17.634 13.4376 18.3953 12.4988 18.3953H11.4988C10.5601 18.3951 9.79863 17.6338 9.79858 16.6951V11.1951C9.79858 10.2564 10.5601 9.4952 11.4988 9.49495H12.4988ZM11.4988 10.8953C11.3333 10.8956 11.199 11.0296 11.199 11.1951V16.6951C11.199 16.8606 11.3333 16.9947 11.4988 16.995H12.4988C12.6644 16.9949 12.7985 16.8608 12.7986 16.6951V11.1951C12.7986 11.0295 12.6645 10.8953 12.4988 10.8953H11.4988Z" fill="#15C674"/>
<path fill-rule="evenodd" clip-rule="evenodd" d="M17.9988 6.99495C18.9377 6.99495 19.699 7.75626 19.699 8.69515V16.6951C19.6989 17.634 18.9376 18.3953 17.9988 18.3953H16.9988C16.0601 18.3951 15.2986 17.6338 15.2986 16.6951V8.69515C15.2986 7.75642 16.0601 6.9952 16.9988 6.99495H17.9988ZM16.9988 8.39534C16.8333 8.39559 16.699 8.52962 16.699 8.69515V16.6951C16.699 16.8606 16.8333 16.9947 16.9988 16.995H17.9988C18.1644 16.995 18.2985 16.8608 18.2986 16.6951V8.69515C18.2986 8.52946 18.1645 8.39534 17.9988 8.39534H16.9988Z" fill="#15C674"/>
<path d="M12.2302 3.39534C12.3697 3.03036 12.7728 2.84501 13.1296 2.98128L15.2292 3.78402C15.5805 3.91827 15.7577 4.31525 15.6287 4.67757L14.8581 6.84359C14.727 7.21185 14.3276 7.40624 13.9675 7.27816C13.6081 7.1499 13.4228 6.74855 13.5535 6.38069L13.7908 5.71077L5.21459 9.34652C4.85869 9.49726 4.45405 9.32778 4.31127 8.96859C4.16864 8.60946 4.34132 8.1957 4.69701 8.04476L13.0955 4.48421L12.6247 4.30452C12.268 4.16798 12.091 3.76045 12.2302 3.39534Z" fill="#15C674"/>
</svg>
