<svg width="24" height="24" viewBox="0 0 24 24" fill="none" xmlns="http://www.w3.org/2000/svg">
<path fill-rule="evenodd" clip-rule="evenodd" d="M16.0615 5C17.6629 5.00026 18.9619 6.29893 18.9619 7.90039V14.665C18.9618 15.1543 18.7728 15.625 18.4346 15.9785L16.1699 18.3438C15.8117 18.7178 15.3157 18.9295 14.7979 18.9297H7.95898C6.35736 18.9297 5.05762 17.6309 5.05762 16.0293V7.90039C5.05762 6.29876 6.35736 5 7.95898 5H16.0615ZM7.95898 6.40039C7.13056 6.40039 6.45898 7.07196 6.45898 7.90039V16.0293C6.45898 16.8577 7.13056 17.5293 7.95898 17.5293H13.8506V15.5283C13.8506 14.5894 14.6119 13.8281 15.5508 13.8281H17.5615V7.90039C17.5615 7.07213 16.8897 6.40065 16.0615 6.40039H7.95898ZM15.5508 15.2285C15.3851 15.2285 15.251 15.3626 15.251 15.5283V17.2773L17.2139 15.2285H15.5508Z" fill="#15C674"/>
</svg>
