<svg width="24" height="24" viewBox="0 0 24 24" fill="none" xmlns="http://www.w3.org/2000/svg">
<path fill-rule="evenodd" clip-rule="evenodd" d="M12.7108 5.52989C12.263 5.34021 11.7601 5.33976 11.3121 5.52863C10.0812 6.04759 7.93307 6.95347 6.37045 7.6134C5.96394 7.78508 5.6998 8.18346 5.6998 8.62566V17.1996C5.6998 17.4205 5.87888 17.5996 6.09974 17.5996H6.7998V10.2996C6.7998 9.63687 7.33706 9.09961 7.9998 9.09961H15.9998C16.6625 9.09961 17.1998 9.63687 17.1998 10.2996V17.5996H17.8999C18.1207 17.5996 18.2998 17.4205 18.2998 17.1996V8.62565C18.2998 8.18352 18.0357 7.78481 17.6288 7.61259C16.0713 6.95324 13.9362 6.04896 12.7108 5.52989ZM16.5075 18.9996H17.8999C18.8941 18.9996 19.6998 18.1936 19.6998 17.1996V8.62565C19.6998 7.62158 19.0996 6.71491 18.1746 6.32335C16.6172 5.66406 14.4823 4.75984 13.2569 4.24077C12.4609 3.90363 11.5648 3.90273 10.7682 4.2386C9.53732 4.75756 7.38883 5.66358 5.82578 6.32369C4.90002 6.71466 4.2998 7.62165 4.2998 8.62566V17.1996C4.2998 18.1936 5.10556 18.9996 6.09974 18.9996H7.49206C7.49464 18.9996 7.49722 18.9996 7.4998 18.9996H16.4998C16.5024 18.9996 16.505 18.9996 16.5075 18.9996ZM8.1998 13.5357V17.5996H15.7998V13.5357H8.1998ZM15.7998 12.1357H8.1998V10.4996H15.7998V12.1357Z" fill="#333333"/>
</svg>
