<svg width="24" height="24" viewBox="0 0 24 24" fill="none" xmlns="http://www.w3.org/2000/svg">
<path fill-rule="evenodd" clip-rule="evenodd" d="M9.77852 8.47949C9.06055 8.47949 8.47852 9.06152 8.47852 9.77949V14.2222C8.47852 14.9402 9.06055 15.5222 9.77852 15.5222H14.2212C14.9392 15.5222 15.5212 14.9402 15.5212 14.2222V9.77949C15.5212 9.06152 14.9392 8.47949 14.2212 8.47949H9.77852ZM14.2212 9.57949H9.77852C9.66806 9.57949 9.57852 9.66904 9.57852 9.77949V14.2222C9.57852 14.3327 9.66806 14.4222 9.77852 14.4222H14.2212C14.3317 14.4222 14.4212 14.3327 14.4212 14.2222V9.77949C14.4212 9.66904 14.3317 9.57949 14.2212 9.57949Z" fill="black"/>
</svg>
