<svg width="24" height="24" viewBox="0 0 24 24" fill="none" xmlns="http://www.w3.org/2000/svg">
<path fill-rule="evenodd" clip-rule="evenodd" d="M7.5 5.5C6.39543 5.5 5.5 6.39543 5.5 7.5V16.502C5.5 17.6065 6.39543 18.502 7.5 18.502H16.502C17.6065 18.502 18.502 17.6065 18.502 16.502V7.5C18.502 6.39543 17.6065 5.5 16.502 5.5H7.5ZM16.502 6.9H7.5C7.16863 6.9 6.9 7.16863 6.9 7.5V16.502C6.9 16.8333 7.16863 17.102 7.5 17.102H16.502C16.8333 17.102 17.102 16.8333 17.102 16.502V7.5C17.102 7.16863 16.8333 6.9 16.502 6.9Z" fill="black"/>
</svg>
