<svg width="24" height="24" viewBox="0 0 24 24" fill="none" xmlns="http://www.w3.org/2000/svg">
<path fill-rule="evenodd" clip-rule="evenodd" d="M16.5828 6.9029C16.7889 6.83654 17.0022 6.80622 17.2092 6.80622C17.6653 6.80622 18.1513 6.96626 18.53 7.31456C18.9213 7.67444 19.1558 8.19683 19.1558 8.82899C19.1558 9.1189 19.1574 9.41194 19.1591 9.70937C19.1625 10.3195 19.1661 10.9481 19.1557 11.6061L19.1553 11.629C19.1398 12.6106 19.1306 13.1963 18.982 14.2271C18.8817 14.923 18.4257 16.3353 17.8731 17.5551C17.5943 18.1707 17.2726 18.7787 16.9329 19.2441C16.7638 19.4759 16.5719 19.6978 16.3582 19.868C16.1514 20.0327 15.8571 20.2019 15.4976 20.2019H9.76305C9.54558 20.2019 9.36548 20.1212 9.25721 20.0634C9.13648 19.9988 9.02111 19.9163 8.91628 19.8321C8.70586 19.6631 8.47466 19.4358 8.23792 19.1816C7.76118 18.6698 7.20084 17.9824 6.64247 17.2598C5.52307 15.8111 4.36984 14.1666 3.83169 13.3661C3.66636 13.1202 3.53845 12.7674 3.52547 12.3944C3.51191 12.0046 3.62591 11.53 4.03159 11.1674C4.57634 10.6805 5.16769 10.5576 5.72338 10.6691C6.21706 10.7682 6.6354 11.0463 6.89619 11.2215C7.10747 11.3634 7.29448 11.509 7.45975 11.6522C7.45839 10.4146 7.45969 8.93989 7.46072 7.77225C7.46124 7.17979 7.46169 6.66637 7.46169 6.30308C7.46169 5.47737 7.72623 4.86593 8.16041 4.4666C8.57566 4.08469 9.07171 3.96602 9.42484 3.96602C9.64118 3.96602 9.91341 4.00804 10.1873 4.11389L10.1873 4.02366C10.1873 3.49062 10.4733 3.04894 10.8163 2.76236C11.1633 2.47243 11.6293 2.28516 12.1243 2.28516C13.0981 2.28516 14.0087 3.04358 14.0087 4.0796L14.0087 4.45324C14.2215 4.37302 14.4506 4.32692 14.6834 4.32692C15.1294 4.32692 15.5839 4.48542 15.9366 4.76877C16.2973 5.05853 16.5828 5.50907 16.5828 6.07605L16.5828 6.9029ZM11.7139 3.83673C11.5989 3.93283 11.5873 4.01041 11.5873 4.02366L11.5873 10.2006C11.5873 10.4734 11.4492 10.6955 11.2686 10.8272C11.1068 10.9452 10.9274 10.9833 10.7807 10.9819C10.6334 10.9805 10.4493 10.9384 10.2857 10.8096C10.1024 10.6653 9.98744 10.4424 9.98744 10.1928L9.98742 5.83544C9.98742 5.72339 9.96258 5.65675 9.93937 5.61539C9.91465 5.57136 9.87657 5.52951 9.81975 5.49062C9.69166 5.40295 9.51939 5.36602 9.42484 5.36602C9.35398 5.36602 9.21846 5.39558 9.10813 5.49705C9.01674 5.58111 8.86169 5.7882 8.86169 6.30308C8.86169 6.6687 8.86124 7.18412 8.86072 7.77816C8.85932 9.36678 8.85743 11.5176 8.86239 12.8691C8.86295 13.0217 8.86255 13.1503 8.85801 13.2486C8.85575 13.2974 8.85181 13.3555 8.84306 13.4137C8.8366 13.4567 8.81817 13.5727 8.75223 13.6942C8.66904 13.8475 8.46517 14.0729 8.12146 14.0757C7.88711 14.0776 7.72437 13.9644 7.68984 13.9403L7.68756 13.9387C7.63715 13.9038 7.59525 13.8662 7.58003 13.8525L7.57847 13.8511C7.56768 13.8414 7.56081 13.8352 7.55539 13.8303C7.54796 13.8235 7.54324 13.8192 7.53486 13.8119C7.4386 13.7281 7.34132 13.5996 7.28878 13.5303C7.28315 13.5229 7.27804 13.5161 7.27349 13.5102C7.20047 13.4146 7.11802 13.3068 7.01443 13.1859C6.80933 12.9465 6.52172 12.6565 6.11561 12.3837C5.83847 12.1976 5.63336 12.079 5.44783 12.0417C5.32432 12.0169 5.18072 12.018 4.96456 12.2112C4.9481 12.2259 4.94105 12.2381 4.93591 12.2522C4.92948 12.2697 4.92304 12.3001 4.92463 12.3457C4.92623 12.3918 4.93574 12.4428 4.95182 12.4919C4.9684 12.5425 4.9866 12.5747 4.99354 12.585C5.51852 13.3659 6.65366 14.9846 7.75028 16.4037C8.29992 17.1151 8.8295 17.7627 9.26238 18.2275C9.48046 18.4616 9.65899 18.633 9.79297 18.7406C9.82687 18.7678 9.85397 18.7877 9.87459 18.8019H15.4461C15.4558 18.7957 15.4691 18.7864 15.4862 18.7728C15.5648 18.7102 15.6722 18.5968 15.802 18.4188C16.0605 18.0647 16.3363 17.5549 16.5979 16.9774C17.1263 15.811 17.5231 14.5359 17.5963 14.0275C17.7321 13.0851 17.7402 12.5735 17.7557 11.5929L17.7559 11.5839C17.766 10.9404 17.7626 10.3386 17.7592 9.73746C17.7575 9.43622 17.7558 9.13513 17.7558 8.82899C17.7558 8.56026 17.6652 8.42127 17.5822 8.34498C17.4867 8.25712 17.3494 8.20622 17.2092 8.20622C17.0489 8.20622 16.9349 8.25601 16.8711 8.31244C16.821 8.35669 16.7537 8.44502 16.7532 8.6512L16.7633 10.0191C16.7683 10.7112 16.7733 11.4296 16.7733 11.5091C16.7733 11.6967 16.7108 11.9206 16.5293 12.0955C16.3526 12.2658 16.1287 12.3252 15.9348 12.3132C15.5543 12.2896 15.1829 11.9785 15.1829 11.5089L15.1828 6.07605C15.1828 6.01102 15.1554 5.937 15.0598 5.86019C14.9563 5.77698 14.8112 5.72692 14.6834 5.72692C14.5759 5.72692 14.4303 5.77631 14.3135 5.87122C14.2059 5.95872 14.1926 6.02321 14.191 6.03105L14.1909 10.7449C14.1909 10.9488 14.113 11.1851 13.9082 11.3543C13.7138 11.5149 13.48 11.552 13.2887 11.5212C12.8814 11.4558 12.6087 11.1011 12.6087 10.7058L12.6087 4.0796C12.6087 3.92181 12.4343 3.68516 12.1243 3.68516C11.9774 3.68516 11.8249 3.74399 11.7139 3.83673Z" fill="black"/>
</svg>
