<svg width="24" height="24" viewBox="0 0 24 24" fill="none" xmlns="http://www.w3.org/2000/svg">
<path fill-rule="evenodd" clip-rule="evenodd" d="M8.89648 7.39551C8.06806 7.39551 7.39648 8.06708 7.39648 8.89551V15.1052C7.39648 15.9337 8.06806 16.6052 8.89648 16.6052H15.1062C15.9346 16.6052 16.6062 15.9337 16.6062 15.1052V8.89551C16.6062 8.06708 15.9346 7.39551 15.1062 7.39551H8.89648ZM15.1062 8.59551H8.89648C8.7308 8.59551 8.59648 8.72982 8.59648 8.89551V15.1052C8.59648 15.2709 8.7308 15.4052 8.89648 15.4052H15.1062C15.2719 15.4052 15.4062 15.2709 15.4062 15.1052V8.89551C15.4062 8.72982 15.2719 8.59551 15.1062 8.59551Z" fill="black"/>
</svg>
