<svg width="24" height="24" viewBox="0 0 24 24" fill="none" xmlns="http://www.w3.org/2000/svg">
<path fill-rule="evenodd" clip-rule="evenodd" d="M8.0125 6.3125C7.07362 6.3125 6.3125 7.07362 6.3125 8.0125V15.9892C6.3125 16.9281 7.07362 17.6892 8.0125 17.6892H15.9892C16.9281 17.6892 17.6892 16.9281 17.6892 15.9892V8.0125C17.6892 7.07362 16.9281 6.3125 15.9892 6.3125H8.0125ZM15.9892 7.6125H8.0125C7.79159 7.6125 7.6125 7.79159 7.6125 8.0125V15.9892C7.6125 16.2101 7.79159 16.3892 8.0125 16.3892H15.9892C16.2101 16.3892 16.3892 16.2101 16.3892 15.9892V8.0125C16.3892 7.79159 16.2101 7.6125 15.9892 7.6125Z" fill="black"/>
</svg>
