<svg width="24" height="24" viewBox="0 0 24 24" fill="none" xmlns="http://www.w3.org/2000/svg">
<path d="M11.7144 3.83673C11.5994 3.93283 11.5878 4.01041 11.5878 4.02366L11.5878 9.8792L9.98792 8.27935L9.98791 5.83544C9.98791 5.72339 9.96307 5.65675 9.93986 5.61539C9.91513 5.57136 9.87705 5.52951 9.82024 5.49062C9.69215 5.40295 9.51987 5.36602 9.42533 5.36602C9.35447 5.36602 9.21895 5.39558 9.10862 5.49705C9.01722 5.58111 8.86218 5.7882 8.86218 6.30308C8.86218 6.53307 8.862 6.82234 8.86174 7.15317L7.49934 5.79077C7.58636 5.21941 7.82193 4.77836 8.1609 4.4666C8.57615 4.08469 9.0722 3.96602 9.42533 3.96602C9.64167 3.96602 9.9139 4.00804 10.1878 4.11389L10.1878 4.02366C10.1878 3.49062 10.4738 3.04894 10.8168 2.76236C11.1638 2.47243 11.6298 2.28516 12.1248 2.28516C13.0986 2.28516 14.0092 3.04358 14.0092 4.0796L14.0092 4.45324C14.222 4.37302 14.4511 4.32692 14.6839 4.32692C15.1298 4.32692 15.5844 4.48542 15.9371 4.76877C16.2978 5.05853 16.5833 5.50907 16.5833 6.07605L16.5833 6.9029C16.7893 6.83654 17.0026 6.80622 17.2096 6.80622C17.6658 6.80622 18.1518 6.96626 18.5305 7.31456C18.9217 7.67444 19.1563 8.19683 19.1563 8.82899C19.1563 9.1189 19.1579 9.41194 19.1596 9.70937L19.1618 10.0628C19.1711 11.4511 19.1806 12.8528 18.9825 14.2271C18.9085 14.7409 18.6405 15.6453 18.2829 16.5743L17.1914 15.4829C17.4081 14.8567 17.555 14.3174 17.5968 14.0275C17.7814 12.7464 17.7719 11.4361 17.7624 10.1406C17.7614 10.0062 17.7604 9.87152 17.7597 9.73746C17.758 9.43622 17.7563 9.13513 17.7563 8.82899C17.7563 8.56026 17.6657 8.42127 17.5827 8.34498C17.4872 8.25712 17.3499 8.20622 17.2096 8.20622C17.0493 8.20622 16.9354 8.25601 16.8716 8.31244C16.8215 8.35669 16.7542 8.44502 16.7537 8.6512L16.7638 10.0191C16.7688 10.7112 16.7738 11.4296 16.7738 11.5091C16.7738 11.6967 16.7113 11.9206 16.5298 12.0955C16.3531 12.2658 16.1292 12.3252 15.9353 12.3132C15.5548 12.2896 15.1834 11.9785 15.1834 11.5089L15.1833 6.07605C15.1833 6.01102 15.1559 5.937 15.0603 5.86019C14.9568 5.77698 14.8116 5.72692 14.6839 5.72692C14.5764 5.72692 14.4308 5.77631 14.314 5.87122C14.2064 5.95872 14.1931 6.02321 14.1915 6.03105L14.1913 10.7449C14.1913 10.9488 14.1135 11.1851 13.9087 11.3543C13.7143 11.5149 13.4805 11.552 13.2892 11.5212C13.2636 11.5171 13.2386 11.5119 13.2141 11.5056L12.6393 10.9308C12.6196 10.8586 12.6092 10.783 12.6092 10.7058L12.6092 4.0796C12.6092 3.92181 12.4348 3.68516 12.1248 3.68516C11.9779 3.68516 11.8254 3.74399 11.7144 3.83673Z" fill="#333333"/>
<path fill-rule="evenodd" clip-rule="evenodd" d="M7.45996 9.40697L6.46772 8.4147C6.19435 8.14133 6.19436 7.69811 6.46773 7.42475C6.7411 7.15138 7.18431 7.15139 7.45768 7.42476L18.4313 18.3986C18.7047 18.672 18.7047 19.1152 18.4313 19.3886C18.1579 19.662 17.7147 19.662 17.4414 19.3886L17.0823 19.0295C17.0331 19.1039 16.9835 19.1756 16.9334 19.2441C16.7642 19.4759 16.5724 19.6978 16.3587 19.868C16.1519 20.0327 15.8576 20.2019 15.4981 20.2019H9.76354C9.54606 20.2019 9.36597 20.1212 9.2577 20.0634C9.13697 19.9988 9.0216 19.9163 8.91677 19.8321C8.70635 19.6631 8.47515 19.4358 8.23841 19.1816C7.76167 18.6698 7.20133 17.9824 6.64296 17.2598C5.52356 15.8111 4.37032 14.1666 3.83218 13.3661C3.66685 13.1202 3.53894 12.7674 3.52596 12.3944C3.5124 12.0046 3.6264 11.53 4.03207 11.1674C4.57683 10.6805 5.16818 10.5576 5.72387 10.6691C6.21755 10.7682 6.63588 11.0463 6.89668 11.2215C7.10796 11.3634 7.29496 11.509 7.46024 11.6522C7.45947 10.9472 7.45955 10.1653 7.45996 9.40697ZM16.0668 18.014C15.9776 18.1642 15.8891 18.3003 15.8025 18.4188L15.8011 18.4209C15.7018 18.5569 15.5906 18.7092 15.4466 18.8019H9.87508C9.65886 18.6533 9.47371 18.4542 9.29535 18.2624L9.26287 18.2275C8.82998 17.7627 8.30041 17.1151 7.75077 16.4037C6.65414 14.9846 5.51901 13.3659 4.99403 12.585C4.77932 12.2656 5.09718 11.9712 5.44832 12.0417C5.63384 12.079 5.83896 12.1976 6.1161 12.3837C6.52221 12.6565 6.80981 12.9465 7.01492 13.1859C7.0741 13.255 7.13284 13.3324 7.19322 13.4119C7.43356 13.7285 7.69972 14.0791 8.12195 14.0757C8.82906 14.07 8.86477 13.3826 8.86288 12.8691C8.86076 12.2921 8.85989 11.5693 8.8597 10.8067L16.0668 18.014Z" fill="#333333"/>
</svg>
