<svg width="24" height="24" viewBox="0 0 24 24" fill="none" xmlns="http://www.w3.org/2000/svg">
<path d="M9.59082 13.8221C9.59082 13.4355 9.90422 13.1221 10.2908 13.1221L15.9908 13.1221C16.3774 13.1221 16.6908 13.4355 16.6908 13.8221C16.6908 14.2087 16.3774 14.5221 15.9908 14.5221H10.2908C9.90422 14.5221 9.59082 14.2087 9.59082 13.8221Z" fill="#333333"/>
<path d="M8.54783 13.8227C8.54783 14.5916 7.92457 15.2148 7.15575 15.2148C6.38693 15.2148 5.76367 14.5916 5.76367 13.8227C5.76367 13.0539 6.38693 12.4307 7.15575 12.4307C7.92457 12.4307 8.54783 13.0539 8.54783 13.8227Z" fill="#333333"/>
<path fill-rule="evenodd" clip-rule="evenodd" d="M16.3912 6.00488C17.407 6.00488 18.3368 6.57502 18.7975 7.48034L20.5742 10.9717C20.844 11.4005 21 11.9081 21 12.4521V15.2207C21 16.7584 19.7535 18.0049 18.2158 18.0049H5.78415C4.24651 18.0049 3 16.7584 3 15.2207V12.4521C3 11.8668 3.18065 11.3236 3.48923 10.8753L5.1819 7.49576C5.63959 6.58195 6.57401 6.00488 7.59603 6.00488H16.3912ZM7.59603 7.40488H16.3912C16.8803 7.40488 17.328 7.67939 17.5498 8.11529L18.3237 9.63613H5.67567L6.43367 8.12271C6.65404 7.68273 7.10395 7.40488 7.59603 7.40488ZM18.2158 11.068H5.78415C5.01971 11.068 4.4 11.6877 4.4 12.4521V15.2207C4.4 15.9852 5.01971 16.6049 5.78415 16.6049H18.2158C18.9803 16.6049 19.6 15.9852 19.6 15.2207V12.4521C19.6 11.6877 18.9803 11.068 18.2158 11.068Z" fill="#333333"/>
</svg>
