<svg width="24" height="24" viewBox="0 0 24 24" fill="none" xmlns="http://www.w3.org/2000/svg">
<path fill-rule="evenodd" clip-rule="evenodd" d="M12.949 6.18268L6.77345 13.2777H11.465C11.6876 13.2777 11.897 13.3836 12.0289 13.563C12.1608 13.7424 12.1995 13.9738 12.1331 14.1864L11.0896 17.527L16.9699 10.5656H12.5499C12.3278 10.5656 12.1189 10.4602 11.9869 10.2816C11.855 10.1029 11.8156 9.8723 11.8808 9.66001L12.949 6.18268ZM13.44 3.48614C14.0783 2.7529 15.2647 3.41209 14.9792 4.34131L13.4972 9.16556H18.4775C18.7499 9.16556 18.9976 9.32365 19.1124 9.57077C19.2271 9.81789 19.1881 10.1091 19.0122 10.3173L10.5618 20.3214C9.92821 21.0714 8.7224 20.4095 9.01517 19.4723L10.5129 14.6777H5.23614C4.96181 14.6777 4.71276 14.5174 4.59908 14.2677C4.48539 14.0181 4.52803 13.725 4.70814 13.5181L13.44 3.48614Z" fill="#333333"/>
</svg>
