<svg width="24" height="24" viewBox="0 0 24 24" fill="none" xmlns="http://www.w3.org/2000/svg">
<path fill-rule="evenodd" clip-rule="evenodd" d="M12.284 4.8887C13.5161 4.96452 14.7212 5.40544 15.4838 6.09473C15.7706 6.35395 15.793 6.79661 15.5337 7.08342C15.2745 7.37023 14.8319 7.39259 14.5451 7.13336C14.0734 6.70705 13.1973 6.34755 12.198 6.28605C11.2112 6.22533 10.2124 6.46188 9.46608 7.08678C8.6584 7.76304 8.51323 8.76944 8.93782 9.65221C9.04625 9.87765 9.19394 10.0969 9.38042 10.2986H7.69546L7.67617 10.259C7.00339 8.86027 7.2184 7.14279 8.56732 6.01336C9.65654 5.10138 11.0395 4.81211 12.284 4.8887ZM8.39816 11.2986H11.4449C11.6145 11.3201 11.7918 11.3323 11.9768 11.3342C13.5444 11.3496 14.9875 11.8206 15.9258 12.6982H11.3613C10.1159 12.5601 9.10189 12.0357 8.39816 11.2986ZM14.9446 13.6982C15.0204 13.767 15.0896 13.8383 15.1519 13.9116C15.4262 14.2344 15.5723 14.5999 15.5806 15.0018C15.589 15.4088 15.4565 15.9078 15.0782 16.4865C14.5569 17.2842 13.4625 17.7135 12.172 17.7191C10.8834 17.7248 9.6598 17.302 9.0427 16.7132C8.76301 16.4463 8.31991 16.4567 8.05303 16.7364C7.78614 17.0161 7.79652 17.4592 8.07622 17.7261C9.03865 18.6444 10.662 19.1258 12.1782 19.1191C13.6926 19.1125 15.3607 18.6132 16.2501 17.2525C16.7481 16.4907 16.9957 15.7189 16.9803 14.9729C16.9709 14.5146 16.8624 14.0866 16.6737 13.6982H14.9446Z" fill="#333333"/>
<path fill-rule="evenodd" clip-rule="evenodd" d="M5.2998 12C5.2998 11.6134 5.61321 11.3 5.9998 11.3H17.9998C18.3864 11.3 18.6998 11.6134 18.6998 12C18.6998 12.3866 18.3864 12.7 17.9998 12.7H5.9998C5.61321 12.7 5.2998 12.3866 5.2998 12Z" fill="#333333"/>
</svg>
