<svg width="24" height="24" viewBox="0 0 24 24" fill="none" xmlns="http://www.w3.org/2000/svg">
<path fill-rule="evenodd" clip-rule="evenodd" d="M13.1064 6.81602C13.1064 5.76667 13.9571 4.91602 15.0064 4.91602H17.1579C18.2072 4.91602 19.0579 5.76667 19.0579 6.81602V8.97586C19.0579 10.0252 18.2072 10.8759 17.1579 10.8759H15.0064C14.0639 10.8759 13.2816 10.1895 13.1322 9.28928L9.00754 11.5648V12.3874L13.1399 14.6672C13.3069 13.7884 14.0791 13.124 15.0064 13.124H17.1579C18.2072 13.124 19.0579 13.9747 19.0579 15.024V17.1839C19.0579 18.2332 18.2072 19.0839 17.1579 19.0839H15.0064C13.9571 19.0839 13.1064 18.2332 13.1064 17.1839V16.271L9.00754 14.0098V17.2597C9.00754 17.9777 8.42551 18.5597 7.70754 18.5597H6.21357C5.4956 18.5597 4.91357 17.9777 4.91357 17.2597V6.73945C4.91357 6.02148 5.4956 5.43945 6.21357 5.43945H7.70754C8.42551 5.43945 9.00754 6.02148 9.00754 6.73945V9.94242L13.1064 7.68113V6.81602ZM15.0064 6.31602C14.7303 6.31602 14.5064 6.53987 14.5064 6.81602V8.97586C14.5064 9.25201 14.7303 9.47586 15.0064 9.47586H17.1579C17.434 9.47586 17.6579 9.25201 17.6579 8.97586V6.81602C17.6579 6.53987 17.434 6.31602 17.1579 6.31602H15.0064ZM15.0064 14.524C14.7303 14.524 14.5064 14.7479 14.5064 15.024V17.1839C14.5064 17.46 14.7303 17.6839 15.0064 17.6839H17.1579C17.434 17.6839 17.6579 17.46 17.6579 17.1839V15.024C17.6579 14.7479 17.434 14.524 17.1579 14.524H15.0064ZM6.31357 17.1597V6.83945H7.60754V17.1597H6.31357Z" fill="#333333"/>
</svg>
