<svg width="24" height="24" viewBox="0 0 24 24" fill="none" xmlns="http://www.w3.org/2000/svg">
<path fill-rule="evenodd" clip-rule="evenodd" d="M9.03223 6.30723C9.03223 5.25788 9.88289 4.40723 10.9322 4.40723H13.0673C14.1167 4.40723 14.9673 5.25789 14.9673 6.30723V8.47126C14.9673 8.97698 14.7697 9.43655 14.4476 9.777L16.705 13.1045H17.7929C18.8422 13.1045 19.6929 13.9552 19.6929 15.0045V17.1685C19.6929 18.2179 18.8422 19.0685 17.7929 19.0685H15.6578C14.6085 19.0685 13.7578 18.2179 13.7578 17.1685V15.0045C13.7578 14.1633 14.3044 13.4499 15.0618 13.1999L13.1419 10.3698C13.1171 10.3708 13.0923 10.3713 13.0673 10.3713H10.969L9.05162 13.1975C9.81274 13.4453 10.3628 14.1607 10.3628 15.0045V17.1685C10.3628 18.2179 9.51216 19.0685 8.46282 19.0685H6.32773C5.27839 19.0685 4.42773 18.2179 4.42773 17.1685V15.0045C4.42773 13.9552 5.27839 13.1045 6.32773 13.1045H7.40683L9.61873 9.84412C9.25731 9.49822 9.03223 9.01103 9.03223 8.47126V6.30723ZM10.9322 5.80723C10.6561 5.80723 10.4322 6.03108 10.4322 6.30723V8.47126C10.4322 8.7474 10.6561 8.97126 10.9322 8.97126H13.0673C13.3435 8.97126 13.5673 8.7474 13.5673 8.47126V6.30723C13.5673 6.03108 13.3435 5.80723 13.0673 5.80723H10.9322ZM6.32773 14.5045C6.05159 14.5045 5.82773 14.7283 5.82773 15.0045V17.1685C5.82773 17.4447 6.05159 17.6685 6.32773 17.6685H8.46282C8.73896 17.6685 8.96282 17.4447 8.96282 17.1685V15.0045C8.96282 14.7284 8.73896 14.5045 8.46282 14.5045H6.32773ZM15.1578 15.0045C15.1578 14.7283 15.3817 14.5045 15.6578 14.5045H17.7929C18.069 14.5045 18.2929 14.7284 18.2929 15.0045V17.1685C18.2929 17.4447 18.069 17.6685 17.7929 17.6685H15.6578C15.3817 17.6685 15.1578 17.4447 15.1578 17.1685V15.0045Z" fill="#333333"/>
</svg>
