<svg width="24" height="24" viewBox="0 0 24 24" fill="none" xmlns="http://www.w3.org/2000/svg">
<path fill-rule="evenodd" clip-rule="evenodd" d="M13.0148 17.0742V18.0363C13.0148 19.0857 13.8655 19.9363 14.9148 19.9363H18.0148C19.0642 19.9363 19.9148 19.0857 19.9148 18.0363V14.9363C19.9148 13.887 19.0642 13.0363 18.0148 13.0363H17.0054V14.4363H18.0148C18.291 14.4363 18.5148 14.6602 18.5148 14.9363V18.0363C18.5148 18.3125 18.291 18.5363 18.0148 18.5363H14.9148C14.6387 18.5363 14.4148 18.3125 14.4148 18.0363V17.0742H13.0148Z" fill="#333333"/>
<path fill-rule="evenodd" clip-rule="evenodd" d="M13.2 5.39902H6.8C6.0268 5.39902 5.4 6.02583 5.4 6.79902V13.199C5.4 13.9722 6.0268 14.599 6.8 14.599H13.2C13.9732 14.599 14.6 13.9722 14.6 13.199V6.79902C14.6 6.02583 13.9732 5.39902 13.2 5.39902ZM6.8 3.99902C5.2536 3.99902 4 5.25263 4 6.79902V13.199C4 14.7454 5.2536 15.999 6.8 15.999H13.2C14.7464 15.999 16 14.7454 16 13.199V6.79902C16 5.25263 14.7464 3.99902 13.2 3.99902H6.8Z" fill="#333333"/>
<path d="M8.56934 8.96836C8.56934 8.74745 8.74842 8.56836 8.96934 8.56836H11.0332C11.2541 8.56836 11.4332 8.74745 11.4332 8.96836V11.0322C11.4332 11.2531 11.2541 11.4322 11.0332 11.4322H8.96934C8.74842 11.4322 8.56934 11.2531 8.56934 11.0322V8.96836Z" fill="#333333"/>
<path fill-rule="evenodd" clip-rule="evenodd" d="M9.3 16.5787V14.999H10.7V16.5787C10.7 16.8549 10.9239 17.0787 11.2 17.0787H13.5586V18.4787H11.2C10.1507 18.4787 9.3 17.6281 9.3 16.5787Z" fill="#333333"/>
</svg>
