<svg width="24" height="24" viewBox="0 0 24 24" fill="none" xmlns="http://www.w3.org/2000/svg">
<path fill-rule="evenodd" clip-rule="evenodd" d="M8.57715 5.94824V6.02148H7.12822C5.36091 6.02148 3.92822 7.45417 3.92822 9.22148V15.5439C3.92822 17.3112 5.36091 18.7439 7.12822 18.7439H16.8709C18.6382 18.7439 20.0709 17.3112 20.0709 15.5439V9.22148C20.0709 7.45417 18.6382 6.02148 16.8709 6.02148H15.4232V5.94824C15.4232 4.84367 14.5278 3.94824 13.4232 3.94824H10.5771C9.47258 3.94824 8.57715 4.84367 8.57715 5.94824ZM13.4232 5.34824H10.5771C10.2458 5.34824 9.97715 5.61687 9.97715 5.94824V6.02148H14.0232V5.94824C14.0232 5.61687 13.7546 5.34824 13.4232 5.34824ZM7.12822 7.42148H16.8709C17.865 7.42148 18.6709 8.22737 18.6709 9.22148V9.81231L14.5038 11.0698V10.7373C14.5038 10.185 14.0561 9.7373 13.5038 9.7373H10.4946C9.94234 9.7373 9.49463 10.185 9.49463 10.7373V11.0419L5.32822 9.78463V9.22148C5.32822 8.22737 6.13411 7.42148 7.12822 7.42148ZM5.32822 11.247V15.5439C5.32822 16.538 6.13411 17.3439 7.12822 17.3439H16.8709C17.865 17.3439 18.6709 16.538 18.6709 15.5439V11.2747L14.5038 12.5322V13.2755C14.5038 13.8278 14.0561 14.2755 13.5038 14.2755H10.4946C9.94234 14.2755 9.49463 13.8278 9.49463 13.2755V12.5043L5.32822 11.247ZM10.8946 12.8755V11.1373H13.1038V12.8755H10.8946Z" fill="#333333"/>
</svg>
