<svg width="24" height="24" viewBox="0 0 24 24" fill="none" xmlns="http://www.w3.org/2000/svg">
<path fill-rule="evenodd" clip-rule="evenodd" d="M11.9998 11.4088C12.59 11.4088 13.0685 10.9303 13.0685 10.3401C13.0685 9.74994 12.59 9.27148 11.9998 9.27148C11.4096 9.27148 10.9312 9.74994 10.9312 10.3401C10.9312 10.9303 11.4096 11.4088 11.9998 11.4088Z" fill="#333333"/>
<path fill-rule="evenodd" clip-rule="evenodd" d="M12.0002 7.06055C10.1661 7.06055 8.6792 8.5474 8.6792 10.3815V13.6121C8.6792 15.4462 10.1661 16.933 12.0002 16.933C13.8343 16.933 15.3212 15.4462 15.3212 13.6121V10.3815C15.3212 8.5474 13.8343 7.06055 12.0002 7.06055ZM10.0792 10.3815C10.0792 9.3206 10.9393 8.46055 12.0002 8.46055C13.0611 8.46055 13.9212 9.3206 13.9212 10.3815V13.6121C13.9212 14.673 13.0611 15.533 12.0002 15.533C10.9393 15.533 10.0792 14.673 10.0792 13.6121V10.3815Z" fill="#333333"/>
<path fill-rule="evenodd" clip-rule="evenodd" d="M4.5 7.5C4.5 5.84315 5.84315 4.5 7.5 4.5H16.5C18.1569 4.5 19.5 5.84315 19.5 7.5V16.5C19.5 18.1569 18.1569 19.5 16.5 19.5H7.5C5.84315 19.5 4.5 18.1569 4.5 16.5V7.5ZM7.5 5.9H16.5C17.3837 5.9 18.1 6.61634 18.1 7.5V16.5C18.1 17.3837 17.3837 18.1 16.5 18.1H7.5C6.61634 18.1 5.9 17.3837 5.9 16.5V7.5C5.9 6.61634 6.61634 5.9 7.5 5.9Z" fill="#333333"/>
</svg>
