<svg width="24" height="24" viewBox="0 0 24 24" fill="none" xmlns="http://www.w3.org/2000/svg">
<path d="M13.3998 12.031C13.2456 12.1202 13.276 12.3513 13.4481 12.3974L15.1589 12.8558C15.2656 12.8844 15.3753 12.8211 15.4039 12.7144L15.8626 11.0024C15.9087 10.8302 15.7236 10.6883 15.5693 10.7775L15.1573 11.0155C15.1376 10.9691 15.1126 10.9241 15.0821 10.8813C14.1583 9.58545 12.4839 9.05997 10.9593 9.49238C9.89755 9.79351 9.17079 10.4067 8.75552 11.39C8.60512 11.7462 8.77191 12.1568 9.12806 12.3072C9.4842 12.4576 9.89484 12.2908 10.0452 11.9347C10.2833 11.3709 10.6576 11.0332 11.3413 10.8393C12.3369 10.5569 13.3855 10.9131 13.9422 11.694L13.9544 11.7106L13.3998 12.031Z" fill="#333333"/>
<path d="M8.91103 13.3067C8.80433 13.2781 8.69467 13.3414 8.66608 13.4481L8.20738 15.1601C8.16126 15.3322 8.34632 15.4742 8.50063 15.385L8.94893 15.126C9.87684 16.4045 11.5419 16.9205 13.0583 16.4913C14.0313 16.2159 14.719 15.6736 15.1492 14.8129C15.322 14.4671 15.1818 14.0467 14.836 13.8738C14.4902 13.701 14.0697 13.8412 13.8969 14.187C13.658 14.665 13.3053 14.9664 12.677 15.1442C11.7363 15.4105 10.7487 15.1087 10.1721 14.4192L10.6701 14.1314C10.8244 14.0423 10.7939 13.8112 10.6219 13.7651L8.91103 13.3067Z" fill="#333333"/>
<path fill-rule="evenodd" clip-rule="evenodd" d="M16.1245 7.40124H18.0001C19.1047 7.40124 20.0001 8.29667 20.0001 9.40124V16.9997C20.0001 18.1043 19.1047 18.9997 18.0001 18.9997H6C4.89543 18.9997 4 18.1043 4 16.9997V9.40123C4 8.29666 4.89543 7.40124 6 7.40124H7.82126L8.8391 5.87635C9.21007 5.32057 9.83411 4.98677 10.5023 4.98669L13.4054 4.98633C14.0621 4.98625 14.677 5.30852 15.0505 5.84859L16.1245 7.40124ZM8.98568 8.17848C8.72597 8.56757 8.28907 8.80124 7.82126 8.80124H6C5.66863 8.80124 5.4 9.06987 5.4 9.40123V16.9997C5.4 17.3311 5.66863 17.5997 6 17.5997H18.0001C18.3315 17.5997 18.6001 17.3311 18.6001 16.9997V9.40124C18.6001 9.06986 18.3315 8.80124 18.0001 8.80124H16.1245C15.6649 8.80124 15.2345 8.57565 14.9731 8.19766L13.8991 6.645C13.787 6.48299 13.6026 6.3863 13.4056 6.38633L10.5025 6.38669C10.302 6.38672 10.1148 6.48686 10.0035 6.65359L8.98568 8.17848Z" fill="#333333"/>
</svg>
