<svg width="24" height="24" viewBox="0 0 24 24" fill="none" xmlns="http://www.w3.org/2000/svg">
<path d="M9.98535 6.7498C9.98535 6.36321 10.2988 6.0498 10.6854 6.0498H13.3147C13.7013 6.0498 14.0147 6.36321 14.0147 6.7498C14.0147 7.1364 13.7013 7.4498 13.3147 7.4498H10.6854C10.2988 7.4498 9.98535 7.1364 9.98535 6.7498Z" fill="#333333"/>
<path d="M13.0452 17.1197C13.0452 17.6971 12.5771 18.1653 11.9996 18.1653C11.4222 18.1653 10.9541 17.6971 10.9541 17.1197C10.9541 16.5424 11.4222 16.0742 11.9996 16.0742C12.5771 16.0742 13.0452 16.5424 13.0452 17.1197Z" fill="#333333"/>
<path fill-rule="evenodd" clip-rule="evenodd" d="M5.3418 6.08867C5.3418 4.87365 6.32677 3.88867 7.5418 3.88867H16.4788C17.6938 3.88867 18.6788 4.87365 18.6788 6.08867V18.1414C18.6788 19.3564 17.6938 20.3414 16.4788 20.3414H7.5418C6.32677 20.3414 5.3418 19.3564 5.3418 18.1414V6.08867ZM7.5418 5.28867C7.09997 5.28867 6.7418 5.64684 6.7418 6.08867V18.1414C6.7418 18.5832 7.09997 18.9414 7.5418 18.9414H16.4788C16.9206 18.9414 17.2788 18.5832 17.2788 18.1414V6.08867C17.2788 5.64684 16.9206 5.28867 16.4788 5.28867H7.5418Z" fill="#333333"/>
</svg>
