<svg width="24" height="24" viewBox="0 0 24 24" fill="none" xmlns="http://www.w3.org/2000/svg">
<path fill-rule="evenodd" clip-rule="evenodd" d="M10.0988 4.30693C10.4815 4.3616 10.7475 4.71617 10.6928 5.09889L8.69279 19.0989C8.63811 19.4816 8.28354 19.7475 7.90083 19.6929C7.51811 19.6382 7.25219 19.2836 7.30686 18.9009L9.30686 4.9009C9.36153 4.51819 9.7161 4.25226 10.0988 4.30693Z" fill="#333333"/>
<path fill-rule="evenodd" clip-rule="evenodd" d="M15.9844 4.30693C16.3671 4.3616 16.6331 4.71617 16.5784 5.09889L14.5784 19.0989C14.5237 19.4816 14.1691 19.7475 13.7864 19.6929C13.4037 19.6382 13.1378 19.2836 13.1925 18.9009L15.1925 4.9009C15.2471 4.51819 15.6017 4.25226 15.9844 4.30693Z" fill="#333333"/>
<path fill-rule="evenodd" clip-rule="evenodd" d="M5.74902 9.07021C5.74902 8.68361 6.06242 8.37021 6.44902 8.37021L18.2527 8.37021C18.6393 8.37021 18.9527 8.68361 18.9527 9.07021C18.9527 9.45681 18.6393 9.77021 18.2527 9.77021L6.44902 9.77021C6.06242 9.77021 5.74902 9.45681 5.74902 9.07021Z" fill="#333333"/>
<path fill-rule="evenodd" clip-rule="evenodd" d="M5 14.7999C5 14.4133 5.3134 14.0999 5.7 14.0999L17.5016 14.0999C17.8882 14.0999 18.2016 14.4133 18.2016 14.7999C18.2016 15.1865 17.8882 15.4999 17.5016 15.4999L5.7 15.4999C5.3134 15.4999 5 15.1865 5 14.7999Z" fill="#333333"/>
</svg>
