<svg width="24" height="24" viewBox="0 0 24 24" fill="none" xmlns="http://www.w3.org/2000/svg">
<path fill-rule="evenodd" clip-rule="evenodd" d="M9.7211 5.0498C9.69385 5.04658 9.66611 5.04492 9.63799 5.04492C9.60987 5.04492 9.58213 5.04658 9.55487 5.0498H6.7C5.20883 5.0498 4 6.25864 4 7.7498V9.19766H3.43633C3.04973 9.19766 2.73633 9.51106 2.73633 9.89766C2.73633 10.2843 3.04973 10.5977 3.43633 10.5977H4V16.2502C4 17.7414 5.20883 18.9502 6.7 18.9502H9.55325C9.58103 18.9535 9.6093 18.9553 9.63799 18.9553C9.66667 18.9553 9.69495 18.9535 9.72273 18.9502H14.4053C14.4331 18.9535 14.4614 18.9553 14.49 18.9553C14.5187 18.9553 14.547 18.9535 14.5748 18.9502H17.3C18.7912 18.9502 20 17.7414 20 16.2502V10.5977H20.5634C20.95 10.5977 21.2634 10.2843 21.2634 9.89766C21.2634 9.51106 20.95 9.19766 20.5634 9.19766H20V7.7498C20 6.25864 18.7912 5.0498 17.3 5.0498H14.5732C14.5459 5.04658 14.5182 5.04492 14.49 5.04492C14.4619 5.04492 14.4342 5.04658 14.4069 5.0498H9.7211ZM18.6 9.19766V7.7498C18.6 7.03183 18.018 6.4498 17.3 6.4498H15.19V9.19766L18.6 9.19766ZM13.79 9.19766V6.4498H10.338V9.19766H13.79ZM10.338 10.5977L13.79 10.5977V17.5502H10.338V10.5977ZM8.93799 9.19766V6.4498H6.7C5.98203 6.4498 5.4 7.03183 5.4 7.7498V9.19766L8.93799 9.19766ZM5.4 10.5977L8.93799 10.5977V17.5502H6.7C5.98203 17.5502 5.4 16.9682 5.4 16.2502V10.5977ZM15.19 10.5977L18.6 10.5977V16.2502C18.6 16.9682 18.018 17.5502 17.3 17.5502H15.19V10.5977Z" fill="#333333"/>
</svg>
