<svg width="24" height="24" viewBox="0 0 24 24" fill="none" xmlns="http://www.w3.org/2000/svg">
<path d="M15.5105 10.4786C15.7749 10.1965 15.7606 9.75354 15.4786 9.48913C15.1965 9.22472 14.7535 9.23901 14.4891 9.52105L11.2054 13.0237L9.46487 11.4766C9.17592 11.2198 8.73347 11.2458 8.47663 11.5348C8.21978 11.8237 8.24581 12.2662 8.53476 12.523L10.7848 14.523C11.0683 14.775 11.501 14.7553 11.7605 14.4786L15.5105 10.4786Z" fill="#333333"/>
<path fill-rule="evenodd" clip-rule="evenodd" d="M4.5 7.5C4.5 5.84315 5.84315 4.5 7.5 4.5H16.5C18.1569 4.5 19.5 5.84315 19.5 7.5V16.5C19.5 18.1569 18.1569 19.5 16.5 19.5H7.5C5.84315 19.5 4.5 18.1569 4.5 16.5V7.5ZM7.5 5.9H16.5C17.3837 5.9 18.1 6.61634 18.1 7.5V16.5C18.1 17.3837 17.3837 18.1 16.5 18.1H7.5C6.61634 18.1 5.9 17.3837 5.9 16.5V7.5C5.9 6.61634 6.61634 5.9 7.5 5.9Z" fill="#333333"/>
</svg>
