<svg width="24" height="24" viewBox="0 0 24 24" fill="none" xmlns="http://www.w3.org/2000/svg">
<path fill-rule="evenodd" clip-rule="evenodd" d="M17.3 6.0748H6.7C5.98203 6.0748 5.4 6.65684 5.4 7.37481V16.6248C5.4 17.3428 5.98203 17.9248 6.7 17.9248H17.3C18.018 17.9248 18.6 17.3428 18.6 16.6248V7.3748C18.6 6.65683 18.018 6.0748 17.3 6.0748ZM6.7 4.6748C5.20883 4.6748 4 5.88364 4 7.37481V16.6248C4 18.116 5.20883 19.3248 6.7 19.3248H17.3C18.7912 19.3248 20 18.116 20 16.6248V7.3748C20 5.88364 18.7912 4.6748 17.3 4.6748H6.7Z" fill="#333333"/>
<path fill-rule="evenodd" clip-rule="evenodd" d="M12.32 9.83008C12.32 9.44348 12.6334 9.13008 13.02 9.13008L16.52 9.13008C16.9066 9.13008 17.22 9.44348 17.22 9.83008C17.22 10.2167 16.9066 10.5301 16.52 10.5301L13.02 10.5301C12.6334 10.5301 12.32 10.2167 12.32 9.83008Z" fill="#333333"/>
<path fill-rule="evenodd" clip-rule="evenodd" d="M12.32 14.3359C12.32 13.9493 12.6334 13.6359 13.02 13.6359H16.52C16.9066 13.6359 17.22 13.9493 17.22 14.3359C17.22 14.7225 16.9066 15.0359 16.52 15.0359H13.02C12.6334 15.0359 12.32 14.7225 12.32 14.3359Z" fill="#333333"/>
<path fill-rule="evenodd" clip-rule="evenodd" d="M10.7984 8.41345C11.0732 8.68532 11.0757 9.12853 10.8038 9.40339L9.12028 11.1055C8.86907 11.3594 8.46691 11.3835 8.1872 11.1613L7.11587 10.3103C6.81315 10.0698 6.76269 9.62948 7.00316 9.32676C7.24362 9.02405 7.68396 8.97359 7.98667 9.21405L8.56642 9.67459L9.80844 8.41888C10.0803 8.14402 10.5235 8.14159 10.7984 8.41345Z" fill="#333333"/>
<path fill-rule="evenodd" clip-rule="evenodd" d="M10.7984 12.8881C11.0732 13.1599 11.0757 13.6031 10.8038 13.878L9.12028 15.5801C8.86907 15.834 8.46691 15.8581 8.1872 15.6359L7.11587 14.7849C6.81315 14.5444 6.76269 14.1041 7.00316 13.8014C7.24362 13.4987 7.68396 13.4482 7.98667 13.6887L8.56642 14.1492L9.80844 12.8935C10.0803 12.6186 10.5235 12.6162 10.7984 12.8881Z" fill="#333333"/>
</svg>
