<svg width="24" height="24" viewBox="0 0 24 24" fill="none" xmlns="http://www.w3.org/2000/svg">
<path fill-rule="evenodd" clip-rule="evenodd" d="M8.1117 8.21559L8.26629 8.061C8.27697 8.05032 8.28791 8.04006 8.29908 8.03021C11.2321 5.1602 13.7583 4.16966 15.8264 4.2081C17.9361 4.24731 19.4065 5.35424 20.1866 6.28099C20.6775 6.86422 20.6203 7.64608 20.2486 8.18706C20.1809 8.28554 20.1068 8.35976 20.0563 8.40723C19.3708 9.0514 18.8161 9.54331 18.3796 9.9302C17.9344 10.3248 17.6366 10.5892 17.4328 10.8011C17.3833 10.8526 17.2832 10.9553 17.1421 11.0383C16.6979 11.2998 16.1262 11.3306 15.6432 11.0323C15.2049 10.7616 14.5761 10.2743 13.9957 9.46403C13.9844 9.44837 13.9749 9.43595 13.9669 9.42612C13.8752 9.41284 13.7305 9.41709 13.523 9.46827C13.2794 9.52835 12.9973 9.64129 12.6974 9.79776C12.095 10.1122 11.4992 10.5611 11.1089 10.9514L11.0021 11.0582C10.6118 11.4485 10.1629 12.0443 9.84846 12.6467C9.69199 12.9466 9.57905 13.2287 9.51897 13.4723C9.46779 13.6798 9.46354 13.8245 9.47682 13.9162C9.48666 13.9242 9.49907 13.9337 9.51473 13.945C10.325 14.5254 10.8123 15.1542 11.083 15.5925C11.4157 16.1311 11.3381 16.7734 10.995 17.2328C10.9794 17.2537 10.9627 17.2737 10.9449 17.2927C10.3797 17.8956 9.60182 18.7221 8.28982 20.107C8.26745 20.1306 8.24347 20.1526 8.21804 20.1729C7.67239 20.608 6.83416 20.7042 6.21476 20.1829C5.27802 19.3944 4.20618 17.9063 4.20022 15.7882C4.19438 13.7142 5.21079 11.1806 8.08112 8.24815C8.09091 8.23705 8.1011 8.22619 8.1117 8.21559ZM9.1789 9.12865C6.38593 11.9477 5.5957 14.182 5.60021 15.7843C5.60477 17.4011 6.4189 18.5248 7.11631 19.1118C7.13598 19.1284 7.16046 19.1385 7.19781 19.1373C7.23159 19.1362 7.27426 19.1249 7.31691 19.0983C8.57265 17.7727 9.33212 16.9659 9.88577 16.3754C9.89342 16.3607 9.8955 16.3496 9.89591 16.3438C9.8962 16.3397 9.89579 16.3373 9.89548 16.336C9.89522 16.3349 9.89453 16.3325 9.89193 16.3283C9.7011 16.0193 9.33416 15.5377 8.69946 15.0831C8.54337 14.9713 8.24804 14.738 8.13797 14.3405C8.02618 13.9367 8.06696 13.5131 8.1597 13.1371C8.25425 12.7537 8.41654 12.3646 8.6073 11.999C8.98736 11.2708 9.52088 10.5595 10.0121 10.0683L10.119 9.96143C10.6102 9.47018 11.3215 8.93666 12.0497 8.5566C12.4153 8.36584 12.8044 8.20355 13.1878 8.109C13.5638 8.01626 13.9874 7.97548 14.3912 8.08727C14.7887 8.19734 15.022 8.49266 15.1338 8.64876C15.5884 9.28346 16.07 9.6504 16.379 9.84123C16.3828 9.84362 16.3852 9.84436 16.3862 9.84466C16.3874 9.84499 16.3893 9.84534 16.3922 9.84531C16.396 9.84526 16.4037 9.84446 16.4142 9.84045C16.4169 9.83769 16.4201 9.83445 16.4238 9.83061C16.6693 9.57528 17.0071 9.27597 17.4188 8.91102L17.451 8.88251C17.8861 8.49685 18.4279 8.01632 19.0976 7.38699C19.0995 7.38517 19.1012 7.38361 19.1025 7.38228C19.1309 7.33643 19.1413 7.29141 19.1411 7.25743C19.1409 7.22415 19.1315 7.20152 19.1155 7.18254C18.5201 6.47514 17.4021 5.63763 15.8004 5.60786C14.2155 5.5784 11.997 6.33683 9.1789 9.12865Z" fill="#333333"/>
</svg>
