<svg width="24" height="24" viewBox="0 0 24 24" fill="none" xmlns="http://www.w3.org/2000/svg">
<path fill-rule="evenodd" clip-rule="evenodd" d="M17.4855 6.85158L5.80342 11.7014L8.33967 12.785C8.5838 12.8894 8.76028 13.108 8.81076 13.3686L9.61789 17.5361L11.8171 15.6497C12.111 15.3976 12.5432 15.3922 12.8433 15.6368L15.396 17.717L17.4855 6.85158ZM17.2919 5.41606C18.1748 5.04952 19.111 5.81218 18.9305 6.75096L16.7076 18.3101C16.5362 19.2017 15.475 19.5873 14.7711 19.0138L12.3478 17.039L9.87652 19.1588C9.35246 19.6083 8.53826 19.3246 8.40698 18.6468L7.49683 13.9474L4.38005 12.6157C3.56605 12.2679 3.57199 11.112 4.38952 10.7726L17.2919 5.41606Z" fill="#333333"/>
<path fill-rule="evenodd" clip-rule="evenodd" d="M11.9325 12.1975L8.40907 13.9989L7.77178 12.7523L13.6675 9.73816C14.4271 9.34979 15.1859 10.2614 14.666 10.9379L11.3183 15.2945L10.2505 18.3477L8.92895 17.8855L10.0287 14.7413C10.0568 14.6609 10.0976 14.5855 10.1495 14.5179L11.9325 12.1975Z" fill="#333333"/>
</svg>
