<svg width="24" height="24" viewBox="0 0 24 24" fill="none" xmlns="http://www.w3.org/2000/svg">
<path d="M16.4619 12.2266C16.7255 12.0354 17.0962 12.0489 17.3457 12.2773C17.6308 12.5384 17.6496 12.9815 17.3887 13.2666L14.7568 16.1416C14.3564 16.5786 13.6884 16.6156 13.2432 16.2451L13.1572 16.166L12.0322 15.0098L11.9443 14.8994C11.7685 14.6253 11.8035 14.2565 12.0459 14.0205C12.2882 13.7847 12.6575 13.7596 12.9268 13.9424L13.0361 14.0332L13.9385 14.9609L16.3564 12.3213L16.4619 12.2266Z" fill="#15C674"/>
<path d="M8.12109 7.32324C8.44026 7.38837 8.68066 7.67038 8.68066 8.00879C8.68066 8.3472 8.44026 8.62921 8.12109 8.69434L7.98047 8.70898H7.18945C6.80285 8.70898 6.48926 8.39539 6.48926 8.00879C6.48926 7.62219 6.80285 7.30859 7.18945 7.30859H7.98047L8.12109 7.32324Z" fill="#15C674"/>
<path d="M11.1016 7.32324C11.4207 7.38837 11.6611 7.67038 11.6611 8.00879C11.6611 8.3472 11.4207 8.62921 11.1016 8.69434L10.9609 8.70898H10.1699C9.78332 8.70898 9.46973 8.39539 9.46973 8.00879C9.46973 7.62219 9.78332 7.30859 10.1699 7.30859H10.9609L11.1016 7.32324Z" fill="#15C674"/>
<path fill-rule="evenodd" clip-rule="evenodd" d="M17.3105 4.91406C18.8566 4.91427 20.1101 6.16778 20.1104 7.71387V16.2988C20.1101 17.8449 18.8566 19.0984 17.3105 19.0986H6.69336C5.14727 19.0984 3.89377 17.8449 3.89355 16.2988V7.71387C3.89377 6.16778 5.14727 4.91427 6.69336 4.91406H17.3105ZM5.29395 16.2988C5.29416 17.0717 5.92047 17.698 6.69336 17.6982H17.3105C18.0834 17.698 18.7097 17.0717 18.71 16.2988V10.9941H5.29395V16.2988ZM6.69336 6.31445C5.92047 6.31466 5.29416 6.94098 5.29395 7.71387V9.59375H18.71V7.71387C18.7098 6.94098 18.0834 6.31466 17.3105 6.31445H6.69336Z" fill="#15C674"/>
</svg>
