<svg width="24" height="24" viewBox="0 0 24 24" fill="none" xmlns="http://www.w3.org/2000/svg">
<path d="M15.5996 9.75195C15.9185 9.68665 16.1582 9.40465 16.1582 9.06641C16.1582 8.72816 15.9185 8.44616 15.5996 8.38086L15.458 8.36621H8.54199C8.15539 8.36621 7.8418 8.67981 7.8418 9.06641C7.8418 9.45301 8.15539 9.7666 8.54199 9.7666H15.458L15.5996 9.75195Z" fill="#1BCE7B"/>
<path d="M15.5996 12.752C15.9185 12.6866 16.1582 12.4047 16.1582 12.0664C16.1582 11.7282 15.9185 11.4462 15.5996 11.3809L15.458 11.3662H8.54199C8.15539 11.3662 7.8418 11.6798 7.8418 12.0664C7.8418 12.453 8.15539 12.7666 8.54199 12.7666H15.458L15.5996 12.752Z" fill="#1BCE7B"/>
<path fill-rule="evenodd" clip-rule="evenodd" d="M16.5986 19.5977C18.2551 19.5973 19.5985 18.2542 19.5986 16.5977V7.40137C19.5985 5.74483 18.2551 4.40174 16.5986 4.40137H7.40234C5.74565 4.40147 4.40245 5.74467 4.40234 7.40137V16.5977C4.40245 18.2544 5.74565 19.5975 7.40234 19.5977H16.5986ZM7.40234 18.1973C6.51885 18.1972 5.80284 17.4812 5.80273 16.5977V7.40137C5.80284 6.51787 6.51884 5.80186 7.40234 5.80176H16.5986C17.4819 5.80213 18.1981 6.51803 18.1982 7.40137V16.5977C18.1981 17.481 17.4819 18.1969 16.5986 18.1973H7.40234Z" fill="#1BCE7B"/>
</svg>
