<svg width="24" height="24" viewBox="0 0 24 24" fill="none" xmlns="http://www.w3.org/2000/svg">
<path d="M15.5 11.2998C15.8864 11.3001 16.2002 11.6136 16.2002 12C16.2002 12.3864 15.8864 12.6999 15.5 12.7002H11.4805L11.3398 12.6855C11.0207 12.6204 10.7803 12.3384 10.7803 12C10.7803 11.6616 11.0207 11.3796 11.3398 11.3145L11.4805 11.2998H15.5Z" fill="#1BCE7B"/>
<path d="M15.5 8.2998C15.8864 8.30007 16.2002 8.61356 16.2002 9C16.2002 9.38644 15.8864 9.69993 15.5 9.7002H11.4805L11.3398 9.68555C11.0207 9.62042 10.7803 9.33841 10.7803 9C10.7803 8.66159 11.0207 8.37958 11.3398 8.31445L11.4805 8.2998H15.5Z" fill="#1BCE7B"/>
<path fill-rule="evenodd" clip-rule="evenodd" d="M16.5986 4.40137C18.2553 4.40147 19.5985 5.74467 19.5986 7.40137V16.5977C19.5985 18.2542 18.2561 19.5973 16.5996 19.5977H7.40332C5.74662 19.5976 4.40245 18.2544 4.40234 16.5977V7.40137C4.40245 5.74483 5.74587 4.40174 7.40234 4.40137H16.5986ZM7.40234 5.80176C6.51907 5.80213 5.80284 6.51803 5.80273 7.40137V16.5977C5.80284 17.481 6.51907 18.1969 7.40234 18.1973H16.5986C17.4821 18.1972 18.1981 17.4812 18.1982 16.5977V7.40137C18.1981 6.51787 17.4821 5.80186 16.5986 5.80176H7.40234Z" fill="#1BCE7B"/>
</svg>
