<svg width="24" height="24" viewBox="0 0 24 24" fill="none" xmlns="http://www.w3.org/2000/svg">
<path fill-rule="evenodd" clip-rule="evenodd" d="M4.91357 5.61406C4.91357 5.22746 5.22697 4.91406 5.61357 4.91406H16.4993C16.8859 4.91406 17.1993 5.22746 17.1993 5.61406V6.72133C17.1993 7.10793 16.8859 7.42133 16.4993 7.42133C16.1127 7.42133 15.7993 7.10793 15.7993 6.72133V6.31406H6.31357V6.72133C6.31357 7.10793 6.00017 7.42133 5.61357 7.42133C5.22697 7.42133 4.91357 7.10793 4.91357 6.72133V5.61406Z" fill="#333333"/>
<path fill-rule="evenodd" clip-rule="evenodd" d="M8.33779 18.4003C8.33779 18.0137 8.65119 17.7003 9.03779 17.7003H12.9368C13.3234 17.7003 13.6368 18.0137 13.6368 18.4003C13.6368 18.7869 13.3234 19.1003 12.9368 19.1003H9.03779C8.65119 19.1003 8.33779 18.7869 8.33779 18.4003Z" fill="#333333"/>
<path fill-rule="evenodd" clip-rule="evenodd" d="M14.161 10.2936C14.161 9.90698 14.4744 9.59358 14.861 9.59358H19.8517C20.2383 9.59358 20.5517 9.90698 20.5517 10.2936C20.5517 10.6802 20.2383 10.9936 19.8517 10.9936H14.861C14.4744 10.9936 14.161 10.6802 14.161 10.2936Z" fill="#333333"/>
<path fill-rule="evenodd" clip-rule="evenodd" d="M14.161 13.0153C14.161 12.6287 14.4744 12.3153 14.861 12.3153H19.8517C20.2383 12.3153 20.5517 12.6287 20.5517 13.0153C20.5517 13.4019 20.2383 13.7153 19.8517 13.7153H14.861C14.4744 13.7153 14.161 13.4019 14.161 13.0153Z" fill="#333333"/>
<path fill-rule="evenodd" clip-rule="evenodd" d="M14.161 15.8014C14.161 15.4148 14.4744 15.1014 14.861 15.1014H17.7099C18.0965 15.1014 18.4099 15.4148 18.4099 15.8014C18.4099 16.188 18.0965 16.5014 17.7099 16.5014H14.861C14.4744 16.5014 14.161 16.188 14.161 15.8014Z" fill="#333333"/>
<path fill-rule="evenodd" clip-rule="evenodd" d="M10.9876 5.44629C11.3742 5.44629 11.6876 5.75969 11.6876 6.14629V18.3016C11.6876 18.6882 11.3742 19.0016 10.9876 19.0016C10.601 19.0016 10.2876 18.6882 10.2876 18.3016V6.14629C10.2876 5.75969 10.601 5.44629 10.9876 5.44629Z" fill="#333333"/>
</svg>
