<svg width="24" height="24" viewBox="0 0 24 24" fill="none" xmlns="http://www.w3.org/2000/svg">
<path d="M12.6621 11.3145C12.981 11.3798 13.2217 11.6618 13.2217 12C13.2217 12.3382 12.981 12.6202 12.6621 12.6855L12.5215 12.7002H8.50195C8.11535 12.7002 7.80176 12.3866 7.80176 12C7.80176 11.6134 8.11535 11.2998 8.50195 11.2998H12.5215L12.6621 11.3145Z" fill="#1BCE7B"/>
<path d="M12.6621 8.31445C12.981 8.37976 13.2217 8.66175 13.2217 9C13.2217 9.33825 12.981 9.62024 12.6621 9.68555L12.5215 9.7002H8.50195C8.11535 9.7002 7.80176 9.3866 7.80176 9C7.80176 8.6134 8.11535 8.2998 8.50195 8.2998H12.5215L12.6621 8.31445Z" fill="#1BCE7B"/>
<path fill-rule="evenodd" clip-rule="evenodd" d="M16.5986 4.40137C18.2551 4.40174 19.5985 5.74483 19.5986 7.40137V16.5977C19.5985 18.2542 18.2551 19.5973 16.5986 19.5977H7.40234C5.74565 19.5975 4.40245 18.2544 4.40234 16.5977V7.40137C4.40245 5.74467 5.74565 4.40147 7.40234 4.40137H16.5986ZM7.40234 5.80176C6.51885 5.80186 5.80284 6.51787 5.80273 7.40137V16.5977C5.80284 17.4812 6.51884 18.1972 7.40234 18.1973H16.5986C17.4819 18.1969 18.1981 17.481 18.1982 16.5977V7.40137C18.1981 6.51803 17.4819 5.80213 16.5986 5.80176H7.40234Z" fill="#1BCE7B"/>
</svg>
