<svg width="24" height="24" viewBox="0 0 24 24" fill="none" xmlns="http://www.w3.org/2000/svg">
<path d="M7.40137 19.5977C5.74489 19.5973 4.40147 18.2542 4.40137 16.5977L4.40137 7.40137C4.40148 5.74483 5.7449 4.40174 7.40137 4.40137L16.5977 4.40137C18.2544 4.40147 19.5976 5.74467 19.5977 7.40137L19.5977 16.5977C19.5976 18.2544 18.2544 19.5976 16.5977 19.5977L7.40137 19.5977ZM16.5977 18.1973C17.4812 18.1972 18.1972 17.4812 18.1973 16.5977L18.1973 7.40137C18.1972 6.51787 17.4812 5.80186 16.5977 5.80176L7.40137 5.80176C6.51809 5.80213 5.80187 6.51803 5.80176 7.40137L5.80176 16.5977C5.80186 17.481 6.51809 18.1969 7.40137 18.1973L16.5977 18.1973ZM10.3164 14.6523C10.0447 14.8314 9.6756 14.8025 9.43652 14.5635C9.19745 14.3244 9.16856 13.9553 9.34766 13.6836L9.43652 13.5732L11.0098 12L9.43652 10.4268C9.16316 10.1534 9.16316 9.70989 9.43652 9.43652C9.70989 9.16316 10.1534 9.16316 10.4268 9.43652L12 11.0098L13.5732 9.43652C13.8466 9.16316 14.2901 9.16316 14.5635 9.43652C14.8368 9.70989 14.8368 10.1534 14.5635 10.4268L12.9902 12L14.5635 13.5732L14.6523 13.6836C14.8314 13.9553 14.8026 14.3244 14.5635 14.5635C14.3244 14.8025 13.9553 14.8314 13.6836 14.6523L13.5732 14.5635L12 12.9902L10.4268 14.5635L10.3164 14.6523Z" fill="#1BCE7B"/>
</svg>
