<svg width="24" height="24" viewBox="0 0 24 24" fill="none" xmlns="http://www.w3.org/2000/svg">
<path d="M15.5996 14.2471C15.9185 14.3124 16.1592 14.5944 16.1592 14.9326C16.1592 15.2709 15.9185 15.5529 15.5996 15.6182L15.459 15.6328H8.54199C8.15562 15.6326 7.84277 15.3191 7.84277 14.9326C7.84277 14.5462 8.15562 14.2327 8.54199 14.2324H15.459L15.5996 14.2471Z" fill="#1BCE7B"/>
<path d="M15.5996 11.2471C15.9185 11.3124 16.1592 11.5944 16.1592 11.9326C16.1592 12.2709 15.9185 12.5529 15.5996 12.6182L15.459 12.6328H8.54199C8.15562 12.6326 7.84277 12.3191 7.84277 11.9326C7.84277 11.5462 8.15562 11.2327 8.54199 11.2324H15.459L15.5996 11.2471Z" fill="#1BCE7B"/>
<path fill-rule="evenodd" clip-rule="evenodd" d="M16.7529 4.40527C18.3377 4.48591 19.5985 5.79658 19.5986 7.40137V16.5977L19.5947 16.752C19.5169 18.2857 18.2866 19.5157 16.7529 19.5938L16.5986 19.5977H7.40234C5.7974 19.5976 4.48666 18.3369 4.40625 16.752L4.40234 16.5977V7.40137C4.40245 5.74467 5.74565 4.40147 7.40234 4.40137H16.5986L16.7529 4.40527ZM7.40234 5.80176C6.51884 5.80186 5.80284 6.51787 5.80273 7.40137V16.5977L5.81055 16.7607C5.89235 17.5676 6.57391 18.1972 7.40234 18.1973H16.5986L16.7617 18.1895C17.5148 18.1129 18.1141 17.5139 18.1904 16.7607L18.1982 16.5977V7.40137L18.1904 7.23828C18.1141 6.48515 17.5148 5.88612 16.7617 5.80957L16.5986 5.80176H7.40234Z" fill="#1BCE7B"/>
</svg>
