<svg width="24" height="24" viewBox="0 0 24 24" fill="none" xmlns="http://www.w3.org/2000/svg">
<path fill-rule="evenodd" clip-rule="evenodd" d="M9.862 11.4375C10.0061 11.281 10.1904 11.0802 10.4065 10.8437C10.9555 10.2427 11.7091 9.41168 12.5274 8.49142C13.5352 7.35804 15.7196 5.11928 17.3952 4.09727C17.4659 4.0541 17.5449 4.02606 17.627 4.01493C18.4434 3.90433 19.0801 4.1725 19.4664 4.67328C19.8243 5.13716 19.912 5.73118 19.8163 6.20391C19.8064 6.25263 19.7906 6.29993 19.769 6.34474C18.9277 8.09529 17.022 10.4352 16.028 11.5909C15.2281 12.521 14.5483 13.3332 14.0686 13.9127C13.8288 14.2024 13.6391 14.4339 13.5095 14.5928C13.4447 14.6722 13.395 14.7334 13.3615 14.7747L13.3491 14.7901C13.3565 14.8594 13.3619 14.9291 13.3653 14.9991C13.4571 16.8961 11.7098 19.0411 9.01887 19.6696C8.19434 19.8622 7.19982 19.8951 6.25987 19.7214C5.32586 19.5488 4.37839 19.1587 3.72293 18.4421C3.65461 18.3675 3.57033 18.2531 3.52953 18.0977C3.48408 17.9247 3.5056 17.7493 3.581 17.5977C3.702 17.3546 3.93306 17.2346 4.02294 17.1888C4.1452 17.1264 4.29201 17.0694 4.41857 17.0206L4.45563 17.0062C4.58028 16.9582 4.70469 16.9101 4.83336 16.8542C5.41029 16.6032 5.86441 16.2805 5.95556 15.654C6.28743 13.3727 7.472 11.5643 9.57265 11.4411L9.57464 11.441C9.6712 11.4357 9.76703 11.4346 9.862 11.4375ZM17.9069 5.19226C16.4088 6.14627 14.4042 8.18669 13.4242 9.28881C13.2908 9.43876 13.1592 9.58634 13.0299 9.73095C13.6564 9.98935 14.0964 10.3971 14.3932 10.7945C14.5227 10.9679 14.6245 11.1383 14.7037 11.2923C14.8378 11.1351 14.9761 10.9736 15.1182 10.8084C16.1062 9.65978 17.866 7.48479 18.6495 5.90273C18.6654 5.73794 18.6217 5.54285 18.5163 5.40623C18.434 5.2996 18.2707 5.17021 17.9069 5.19226ZM11.2924 11.653C11.54 11.3821 11.8289 11.0646 12.1466 10.7132C12.7958 10.8423 13.1883 11.1866 13.4317 11.5126C13.5741 11.7032 13.6667 11.8905 13.7231 12.0292C13.7511 12.0979 13.7695 12.153 13.7802 12.1882C13.7856 12.2058 13.789 12.2182 13.7907 12.2247L13.792 12.2296C13.8002 12.2647 13.8115 12.2984 13.8253 12.3304C13.5688 12.6361 13.34 12.911 13.1442 13.1476C13.0642 13.2442 12.9897 13.3345 12.9211 13.4178C12.5356 12.699 11.9267 12.1053 11.1941 11.7606C11.2261 11.7257 11.2589 11.6898 11.2924 11.653ZM7.14306 15.8267C7.44186 13.7728 8.39211 12.7129 9.6419 12.6391C10.911 12.5695 12.1012 13.7011 12.1667 15.0571C12.2227 16.2152 11.0447 17.9642 8.74594 18.5011C8.0838 18.6557 7.25647 18.6853 6.47797 18.5414C5.95611 18.4449 5.48597 18.2765 5.10675 18.0401C5.17276 18.0136 5.24184 17.9851 5.31209 17.9545C5.97844 17.6646 6.95744 17.1027 7.14306 15.8267ZM4.53404 18.2777C4.53404 18.2777 4.53737 18.2747 4.54673 18.2693C4.53917 18.275 4.53404 18.2777 4.53404 18.2777Z" fill="#333333"/>
</svg>
