<svg width="24" height="24" viewBox="0 0 24 24" fill="none" xmlns="http://www.w3.org/2000/svg">
<path fill-rule="evenodd" clip-rule="evenodd" d="M12.0429 12.5C8.47014 12.5 7.63063 7.38863 10.1602 5.58245C10.5802 5.28253 11.3876 5 12.0429 5C16.7025 5 16.3322 12.5 12.0429 12.5ZM10.9737 6.72182C11.033 6.6795 11.1981 6.58995 11.4419 6.51155C11.6806 6.43479 11.8983 6.4 12.0429 6.4C12.7883 6.4 13.2296 6.67939 13.5118 7.03786C13.8255 7.43631 14.016 8.03626 13.9992 8.71544C13.9824 9.39374 13.7612 10.0222 13.4165 10.4511C13.0968 10.8488 12.6596 11.1 12.0429 11.1C11.0892 11.1 10.418 10.4674 10.1786 9.40953C9.9258 8.29224 10.2904 7.20974 10.9737 6.72182Z" fill="#333333"/>
<path d="M6.58955 7.16719C6.86998 6.96327 7.38175 6.76993 7.83665 6.73145C7.66799 7.21739 7.57194 7.72695 7.5423 8.23525C7.52005 8.24456 7.49942 8.25385 7.4807 8.26288C7.43831 8.28332 7.41685 8.29704 7.41294 8.29953C7.04536 8.56683 6.7803 9.23884 6.95098 10.0069C7.10598 10.7045 7.49424 11.0109 7.96279 11.0241C8.11207 11.5986 8.26493 12.1637 8.32994 12.4028C8.22198 12.4171 8.11017 12.4245 7.99454 12.4245C5.32831 12.4245 4.70182 8.53988 6.58955 7.16719Z" fill="#333333"/>
<path d="M5.02589 13.5114C5.71568 13.0781 6.51929 12.8776 7.29067 12.8066C7.28857 12.8432 7.28766 12.8845 7.28733 12.9311C7.28614 13.0971 7.2492 13.2619 7.15149 13.3961C6.99004 13.6178 6.7558 13.8722 6.49083 14.16C6.39674 14.2622 6.29877 14.3686 6.19881 14.4793C6.04678 14.5412 5.90337 14.6135 5.77055 14.6969C5.28949 14.9991 4.89977 15.475 4.75781 16.2749H4.87781C4.65269 16.7055 4.48236 17.172 4.41123 17.6749H4.37521C3.79341 17.6749 3.26845 17.1913 3.31543 16.5479C3.42177 15.0915 4.08104 14.1049 5.02589 13.5114Z" fill="#333333"/>
<path d="M16.2954 6.73926C19.4522 7.05961 19.0994 12.4243 15.994 12.4243C15.8771 12.4243 15.7642 12.4169 15.6553 12.4025C15.6921 12.2326 15.7834 11.9327 15.8948 11.5667L15.8952 11.5654C15.9467 11.3965 16.0024 11.2135 16.059 11.0226C16.3582 11.0067 16.5662 10.8796 16.7344 10.6664C16.9398 10.4061 17.0876 9.99946 17.0988 9.54039C17.1099 9.08021 16.9814 8.70136 16.8035 8.47116C16.7423 8.39203 16.6673 8.31816 16.5682 8.2591C16.547 7.74779 16.4586 7.2322 16.2954 6.73926Z" fill="#333333"/>
<path d="M16.7084 12.9299C16.7064 12.8834 16.7035 12.8422 16.6992 12.8057C17.4737 12.8758 18.2814 13.0762 18.9743 13.5114C19.9192 14.1048 20.5784 15.0915 20.6848 16.5478C20.7317 17.1912 20.2068 17.6749 19.625 17.6749H19.5888C19.5178 17.1719 19.3477 16.7055 19.1227 16.2749H19.2424C19.1004 15.475 18.7107 14.999 18.2297 14.6969C18.0972 14.6137 17.9542 14.5416 17.8026 14.4797C17.7021 14.3684 17.6036 14.2614 17.509 14.1587C17.244 13.8709 17.0098 13.6165 16.8483 13.3948C16.7506 13.2606 16.7154 13.0957 16.7084 12.9299Z" fill="#333333"/>
<path fill-rule="evenodd" clip-rule="evenodd" d="M7.91399 13.9184C9.14025 13.2151 10.6468 13 12.0003 13C13.3538 13 14.8603 13.2151 16.0866 13.9184C17.3546 14.6456 18.2766 15.8721 18.4282 17.7421C18.4865 18.4601 17.8991 19 17.2503 19H6.75029C6.10143 19 5.51412 18.4601 5.57235 17.7421C5.724 15.8721 6.64595 14.6456 7.91399 13.9184ZM17.0053 17.6C16.8378 16.3601 16.2176 15.6074 15.3901 15.1329C14.4655 14.6026 13.2392 14.4 12.0003 14.4C10.7613 14.4 9.53507 14.6026 8.61049 15.1329C7.78302 15.6074 7.16277 16.3601 6.99523 17.6H17.0053Z" fill="#333333"/>
</svg>
