<svg width="24" height="24" viewBox="0 0 24 24" fill="none" xmlns="http://www.w3.org/2000/svg">
<path fill-rule="evenodd" clip-rule="evenodd" d="M15.5035 16.5951V18.3719L13.7 16.5951H6.95176C6.12333 16.5951 5.45176 15.9235 5.45176 15.0951V7.9498C5.45176 7.12138 6.12333 6.4498 6.95176 6.4498H17.1332C17.9616 6.4498 18.6332 7.12138 18.6332 7.9498V15.0951C18.6332 15.9235 17.9616 16.5951 17.1332 16.5951H15.5035ZM20.0332 7.9498C20.0332 6.34818 18.7348 5.0498 17.1332 5.0498H6.95176C5.35013 5.0498 4.05176 6.34818 4.05176 7.9498V15.0951C4.05176 16.6967 5.35013 17.9951 6.95176 17.9951H13.1262L14.6911 19.5369C15.5128 20.3464 16.9035 19.7643 16.9035 18.6108V17.9951H17.1332C18.7348 17.9951 20.0332 16.6967 20.0332 15.0951V7.9498Z" fill="#333333"/>
<path fill-rule="evenodd" clip-rule="evenodd" d="M9.28818 13.5819C9.28818 13.9685 9.60158 14.2819 9.98818 14.2819C10.3748 14.2819 10.6882 13.9685 10.6882 13.5819V11.6608H12.6093C12.9959 11.6608 13.3093 11.3474 13.3093 10.9608C13.3093 10.5742 12.9959 10.2608 12.6093 10.2608H10.6882V8.34023C10.6882 7.95364 10.3748 7.64023 9.98818 7.64023C9.60158 7.64023 9.28818 7.95364 9.28818 8.34023V10.2608H7.36758C6.98098 10.2608 6.66758 10.5742 6.66758 10.9608C6.66758 11.3474 6.98098 11.6608 7.36758 11.6608H9.28818V13.5819Z" fill="#333333"/>
</svg>
