<svg width="24" height="24" viewBox="0 0 24 24" fill="none" xmlns="http://www.w3.org/2000/svg">
<path fill-rule="evenodd" clip-rule="evenodd" d="M16.0079 19.6658L14.811 18.4866H11.2502C10.8084 18.4866 10.4502 18.1284 10.4502 17.6866V14.7391C10.4502 14.2972 10.8084 13.9391 11.2502 13.9391H17.8434C18.2852 13.9391 18.6434 14.2972 18.6434 14.7391V17.6866C18.6434 18.1284 18.2852 18.4866 17.8434 18.4866H16.0079V19.6658ZM20.0434 14.7391C20.0434 13.524 19.0584 12.5391 17.8434 12.5391H11.2502C10.0352 12.5391 9.0502 13.524 9.0502 14.7391V17.6866C9.0502 18.9016 10.0352 19.8866 11.2502 19.8866H14.2372L15.7061 21.3338C16.3382 21.9565 17.4079 21.5087 17.4079 20.6214V19.8866H17.8434C19.0584 19.8866 20.0434 18.9016 20.0434 17.6866V14.7391Z" fill="#333333"/>
<path fill-rule="evenodd" clip-rule="evenodd" d="M11.2503 5.2418H17.8435C18.2853 5.2418 18.6435 5.59997 18.6435 6.0418V9.29202C18.6435 9.73385 18.2853 10.092 17.8435 10.092H11.2503C10.8085 10.092 10.4503 9.73385 10.4503 9.29202V6.0418C10.4503 5.59997 10.8085 5.2418 11.2503 5.2418ZM17.8435 3.8418C19.0585 3.8418 20.0435 4.82677 20.0435 6.0418V9.29202C20.0435 10.507 19.0585 11.492 17.8435 11.492H11.2503C10.0353 11.492 9.05034 10.507 9.05034 9.29202V6.0418C9.05034 4.82677 10.0353 3.8418 11.2503 3.8418H17.8435Z" fill="#333333"/>
<path fill-rule="evenodd" clip-rule="evenodd" d="M5.19326 11.9504C5.57986 11.9504 5.89326 12.2638 5.89326 12.6504V14.085C5.89326 14.8029 6.47529 15.385 7.19326 15.385H7.329C7.7156 15.385 8.029 15.6984 8.029 16.085C8.029 16.4716 7.7156 16.785 7.329 16.785H7.19326C5.70209 16.785 4.49326 15.5761 4.49326 14.085V12.6504C4.49326 12.2638 4.80666 11.9504 5.19326 11.9504Z" fill="#333333"/>
<path fill-rule="evenodd" clip-rule="evenodd" d="M4.50298 9.95596C4.50298 10.3426 4.81638 10.656 5.20298 10.656C5.58958 10.656 5.90298 10.3426 5.90298 9.95596V8.6394H7.21953C7.60613 8.6394 7.91953 8.326 7.91953 7.9394C7.91953 7.5528 7.60613 7.2394 7.21953 7.2394H5.90298V5.92324C5.90298 5.53664 5.58958 5.22324 5.20298 5.22324C4.81638 5.22324 4.50298 5.53664 4.50298 5.92324V7.2394H3.18682C2.80022 7.2394 2.48682 7.5528 2.48682 7.9394C2.48682 8.326 2.80022 8.6394 3.18682 8.6394H4.50298V9.95596Z" fill="#333333"/>
</svg>
