<svg width="24" height="24" viewBox="0 0 24 24" fill="none" xmlns="http://www.w3.org/2000/svg">
<path d="M10.366 2.0127C9.97942 2.0127 9.66602 2.3261 9.66602 2.7127C9.66602 3.09929 9.97942 3.4127 10.366 3.4127H13.6405C14.0271 3.4127 14.3405 3.09929 14.3405 2.7127C14.3405 2.3261 14.0271 2.0127 13.6405 2.0127H10.366Z" fill="#333333"/>
<path d="M12.5909 7.9666C12.5909 7.58 12.2775 7.2666 11.8909 7.2666C11.5043 7.2666 11.1909 7.58 11.1909 7.9666V12.07C11.1909 12.2557 11.2647 12.4337 11.3959 12.565C11.5272 12.6963 11.7053 12.77 11.8909 12.77L15.3439 12.77C15.7305 12.77 16.0439 12.4566 16.0439 12.07C16.0439 11.6834 15.7305 11.37 15.3439 11.37L12.5909 11.37V7.9666Z" fill="#333333"/>
<path d="M19.3929 9.50406C19.6557 10.2851 19.7981 11.1215 19.7981 11.9911C19.7981 16.296 16.3082 19.7859 12.0033 19.7859C7.69834 19.7859 4.2085 16.296 4.2085 11.9911C4.2085 7.68614 7.69834 4.19629 12.0033 4.19629C12.9496 4.19629 13.8565 4.36492 14.6957 4.67378C14.5078 5.09782 14.3988 5.56456 14.3872 6.05541C13.6505 5.75926 12.8459 5.59629 12.0033 5.59629C8.47154 5.59629 5.6085 8.45933 5.6085 11.9911C5.6085 15.5228 8.47154 18.3859 12.0033 18.3859C15.535 18.3859 18.3981 15.5228 18.3981 11.9911C18.3981 11.2115 18.2586 10.4646 18.0032 9.7738L18.017 9.77383C18.504 9.77383 18.9686 9.67796 19.3929 9.50406Z" fill="#333333"/>
<path fill-rule="evenodd" clip-rule="evenodd" d="M20.6708 6.14324C20.6708 7.609 19.4825 8.79722 18.0168 8.79722C16.551 8.79722 15.3628 7.609 15.3628 6.14324C15.3628 4.67749 16.551 3.48926 18.0168 3.48926C19.4825 3.48926 20.6708 4.67749 20.6708 6.14324ZM19.2708 6.14324C19.2708 6.8358 18.7093 7.39722 18.0168 7.39722C17.3242 7.39722 16.7628 6.8358 16.7628 6.14324C16.7628 5.45069 17.3242 4.88926 18.0168 4.88926C18.7093 4.88926 19.2708 5.45069 19.2708 6.14324Z" fill="#333333"/>
</svg>
