<svg width="24" height="24" viewBox="0 0 24 24" fill="none" xmlns="http://www.w3.org/2000/svg">
<path d="M9.6626 2.72246C9.6626 2.33586 9.976 2.02246 10.3626 2.02246H13.6371C14.0237 2.02246 14.3371 2.33586 14.3371 2.72246C14.3371 3.10906 14.0237 3.42246 13.6371 3.42246H10.3626C9.976 3.42246 9.6626 3.10906 9.6626 2.72246Z" fill="#333333"/>
<path d="M11.8875 7.27637C12.2741 7.27637 12.5875 7.58977 12.5875 7.97637V11.3798L15.3405 11.3798C15.7271 11.3798 16.0405 11.6932 16.0405 12.0798C16.0405 12.4664 15.7271 12.7798 15.3405 12.7798L11.8875 12.7798C11.7019 12.7798 11.5238 12.706 11.3925 12.5748C11.2613 12.4435 11.1875 12.2654 11.1875 12.0798V7.97637C11.1875 7.58977 11.5009 7.27637 11.8875 7.27637Z" fill="#333333"/>
<path fill-rule="evenodd" clip-rule="evenodd" d="M11.9999 4.20605C7.69492 4.20605 4.20508 7.6959 4.20508 12.0008C4.20508 16.3058 7.69492 19.7956 11.9999 19.7956C16.3048 19.7956 19.7947 16.3058 19.7947 12.0008C19.7947 7.6959 16.3048 4.20605 11.9999 4.20605ZM5.60508 12.0008C5.60508 8.4691 8.46812 5.60605 11.9999 5.60605C15.5316 5.60605 18.3947 8.4691 18.3947 12.0008C18.3947 15.5326 15.5316 18.3956 11.9999 18.3956C8.46812 18.3956 5.60508 15.5326 5.60508 12.0008Z" fill="#333333"/>
</svg>
