<svg width="24" height="24" viewBox="0 0 24 24" fill="none" xmlns="http://www.w3.org/2000/svg">
<path fill-rule="evenodd" clip-rule="evenodd" d="M10.0422 7.4H18.1989C18.4198 7.4 18.5989 7.57909 18.5989 7.8V9.59056C18.5989 9.81147 18.4198 9.99056 18.1989 9.99056H10.0422C9.82127 9.99056 9.64219 9.81147 9.64219 9.59056V7.8C9.64219 7.57909 9.82127 7.4 10.0422 7.4ZM8.24219 7.8C8.24219 6.80589 9.04808 6 10.0422 6H18.1989C19.193 6 19.9989 6.80589 19.9989 7.8V9.59056C19.9989 10.5847 19.193 11.3906 18.1989 11.3906H10.0422C9.04808 11.3906 8.24219 10.5847 8.24219 9.59056V7.8ZM10.0422 14.0709H18.1989C18.4198 14.0709 18.5989 14.25 18.5989 14.4709V16.2C18.5989 16.4209 18.4198 16.6 18.1989 16.6H10.0422C9.82127 16.6 9.64219 16.4209 9.64219 16.2V14.4709C9.64219 14.25 9.82127 14.0709 10.0422 14.0709ZM8.24219 14.4709C8.24219 13.4768 9.04808 12.6709 10.0422 12.6709H18.1989C19.193 12.6709 19.9989 13.4768 19.9989 14.4709V16.2C19.9989 17.1941 19.193 18 18.1989 18H10.0422C9.04808 18 8.24219 17.1941 8.24219 16.2V14.4709Z" fill="#333333"/>
<path fill-rule="evenodd" clip-rule="evenodd" d="M4.36666 5.5374C4.36666 5.18775 4.65011 4.9043 4.99977 4.9043C5.34943 4.9043 5.63289 5.18775 5.63289 5.5374V7.23765C6.31214 7.49366 6.79531 8.14961 6.79531 8.9184C6.79531 9.6872 6.31214 10.3431 5.63289 10.5991V13.4768C6.31287 13.7328 6.79663 14.3893 6.79663 15.1588C6.79663 15.9283 6.31287 16.5848 5.63289 16.8409V18.4614C5.63289 18.8111 5.34943 19.0945 4.99977 19.0945C4.65011 19.0945 4.36666 18.8111 4.36666 18.4614V16.8408C3.68678 16.5847 3.20312 15.9282 3.20312 15.1588C3.20312 14.3894 3.68678 13.7329 4.36666 13.4768V10.5992C3.68735 10.3432 3.20413 9.68724 3.20413 8.9184C3.20413 8.14957 3.68735 7.49359 4.36666 7.23761V5.5374Z" fill="#333333"/>
</svg>
