<svg width="24" height="24" viewBox="0 0 24 24" fill="none" xmlns="http://www.w3.org/2000/svg">
<path d="M7.49979 8.7998C7.1132 8.7998 6.79979 9.1132 6.7998 9.4998C6.7998 9.8864 7.1132 10.1998 7.4998 10.1998H16.4998C16.8864 10.1998 17.1998 9.8864 17.1998 9.4998C17.1998 9.1132 16.8864 8.7998 16.4998 8.7998H7.49979Z" fill="#333333"/>
<path fill-rule="evenodd" clip-rule="evenodd" d="M6.8998 5.0498C5.18772 5.0498 3.7998 6.43772 3.7998 8.1498V15.8498C3.7998 17.5619 5.18772 18.9498 6.8998 18.9498H17.0998C18.8119 18.9498 20.1998 17.5619 20.1998 15.8498V8.1498C20.1998 6.43772 18.8119 5.0498 17.0998 5.0498H6.8998ZM5.1998 8.1498C5.1998 7.21092 5.96092 6.4498 6.8998 6.4498H17.0998C18.0387 6.4498 18.7998 7.21092 18.7998 8.1498V15.8498C18.7998 16.7887 18.0387 17.5498 17.0998 17.5498H6.8998C5.96092 17.5498 5.1998 16.7887 5.1998 15.8498V8.1498Z" fill="#333333"/>
</svg>
