<svg width="24" height="24" viewBox="0 0 24 24" fill="none" xmlns="http://www.w3.org/2000/svg">
<path d="M11.6407 12.7002L11.7813 12.7168C12.0995 12.7863 12.3358 13.0718 12.3311 13.4102C12.3265 13.7484 12.0826 14.027 11.7628 14.0879L11.6212 14.1006L11.463 14.0996C9.26142 14.0996 7.87647 14.7131 7.0235 15.5156C6.23439 16.2582 5.8342 17.2251 5.70807 18.1992H11.963L12.1036 18.2139C12.4226 18.2791 12.6622 18.5611 12.6622 18.8994C12.6622 19.2377 12.4226 19.5197 12.1036 19.585L11.963 19.5996H5.46296C4.81713 19.5996 4.22704 19.0644 4.28522 18.3438L4.30964 18.0947C4.4576 16.8436 4.97085 15.5243 6.06354 14.4961C7.23469 13.3941 8.99403 12.6992 11.463 12.6992L11.6407 12.7002Z" fill="#1BCE7B"/>
<path fill-rule="evenodd" clip-rule="evenodd" d="M19.1592 11.5C19.5789 11.4759 19.9051 11.8211 19.9053 12.209L19.9219 13.5176C19.9245 13.9773 19.9156 14.4479 19.8712 14.8906C19.7862 15.7373 19.5626 16.6294 18.9473 17.3359L18.8184 17.4746C18.1096 18.196 16.9356 18.4422 15.9229 18.2344C15.9119 18.2645 15.9 18.2939 15.8897 18.3232C15.7814 18.6328 15.7442 18.8238 15.7442 18.8994C15.7442 19.286 15.4306 19.5996 15.044 19.5996C14.6575 19.5995 14.3438 19.2859 14.3438 18.8994C14.3438 18.5686 14.4544 18.1846 14.5674 17.8613C14.5922 17.7905 14.619 17.7187 14.6465 17.6465C14.4826 17.5139 14.3301 17.3609 14.1973 17.1826C13.8093 16.6613 13.6187 15.9906 13.6719 15.2041L13.7042 14.9062C13.9186 13.4646 14.9372 12.6708 15.9903 12.2314C17.0731 11.7798 18.3545 11.6347 19.0733 11.5098L19.1592 11.5ZM18.5147 13.0205C17.8597 13.1283 17.1572 13.2616 16.5294 13.5234C15.7291 13.8573 15.1994 14.334 15.086 15.1338L15.0694 15.2988C15.0398 15.7377 15.131 16.0454 15.2647 16.2627C15.3205 16.1504 15.3722 16.0479 15.418 15.959C15.4751 15.8483 15.5231 15.7574 15.5567 15.6943C15.5734 15.663 15.5865 15.6382 15.5958 15.6211C15.6002 15.6129 15.604 15.6062 15.6065 15.6016C15.6077 15.5993 15.6097 15.597 15.6104 15.5957V15.5938C15.7961 15.2547 16.2225 15.1299 16.5616 15.3154C16.9006 15.5011 17.0245 15.9266 16.8389 16.2656C16.8385 16.2664 16.8378 16.2689 16.837 16.2705C16.835 16.2741 16.8312 16.2798 16.8272 16.2871C16.8192 16.302 16.8074 16.3247 16.7921 16.3535C16.7612 16.4115 16.7166 16.4958 16.6632 16.5996C16.6174 16.6884 16.5646 16.7909 16.5089 16.9033C17.0448 16.9333 17.558 16.7591 17.8194 16.4932L17.9551 16.3379C18.2522 15.954 18.4105 15.4291 18.4786 14.751C18.534 14.1984 18.5252 13.6266 18.5147 13.0205Z" fill="#1BCE7B"/>
<path fill-rule="evenodd" clip-rule="evenodd" d="M11.6924 3.40527C16.5863 3.66424 16.1172 11.9372 11.4551 11.9375L11.2725 11.9336C7.54176 11.76 6.65406 6.26456 9.24811 4.16113L9.37604 4.0625C9.83986 3.72109 10.7316 3.39944 11.4551 3.39941L11.6924 3.40527ZM11.4551 4.7998C11.2822 4.79982 11.0304 4.84164 10.7589 4.93164C10.5514 5.00041 10.3892 5.07817 10.2872 5.1377L10.2061 5.19043C9.3823 5.79699 8.9609 7.1261 9.25592 8.4707C9.53982 9.76406 10.3449 10.538 11.4551 10.5381C12.1662 10.538 12.6873 10.237 13.0723 9.74316C13.4827 9.21669 13.7412 8.45242 13.7608 7.63477C13.7804 6.81598 13.558 6.07964 13.1788 5.58301C12.8324 5.12952 12.3047 4.79986 11.4551 4.7998Z" fill="#1BCE7B"/>
</svg>
