<svg width="24" height="24" viewBox="0 0 24 24" fill="none" xmlns="http://www.w3.org/2000/svg">
<path fill-rule="evenodd" clip-rule="evenodd" d="M16.1469 9.45215C16.4235 9.45311 16.6735 9.61678 16.7851 9.86983L20.277 17.7925C20.4329 18.1463 20.2725 18.5594 19.9187 18.7154C19.565 18.8713 19.1518 18.7109 18.9959 18.3571L18.0081 16.116H14.2337L13.2253 18.3616C13.0669 18.7142 12.6526 18.8717 12.3 18.7134C11.9473 18.555 11.7898 18.1407 11.9482 17.788L15.5059 9.86539C15.6192 9.61312 15.8704 9.45119 16.1469 9.45215ZM14.8624 14.716H17.3911L16.1385 11.8742L14.8624 14.716Z" fill="#333333"/>
<path fill-rule="evenodd" clip-rule="evenodd" d="M10.7066 5.60234C10.7066 5.21574 10.3932 4.90234 10.0066 4.90234C9.62004 4.90234 9.30664 5.21574 9.30664 5.60234V6.26953H4.60527C4.21867 6.26953 3.90527 6.58293 3.90527 6.96953C3.90527 7.35613 4.21867 7.66953 4.60527 7.66953H11.7503C11.4111 8.77752 10.8392 10.1653 9.87691 11.2395C9.74549 11.3862 9.60666 11.529 9.46198 11.6678C8.78302 11.0501 8.14663 10.3042 7.46283 9.2955C7.2459 8.9755 6.81064 8.89194 6.49063 9.10886C6.17063 9.32579 6.08707 9.76105 6.30399 10.0811C7.00761 11.119 7.67599 11.9114 8.3759 12.5702C7.35317 13.3165 6.24133 13.8938 5.41599 14.2693C5.0641 14.4294 4.90861 14.8444 5.0687 15.1963C5.22879 15.5482 5.64383 15.7037 5.99573 15.5436C6.9172 15.1244 8.25937 14.4318 9.48212 13.4902C10.1389 13.9736 10.8461 14.3984 11.6486 14.8401C11.9873 15.0265 12.413 14.903 12.5994 14.5643C12.7858 14.2256 12.6623 13.7999 12.3236 13.6135C11.6717 13.2548 11.0968 12.9147 10.5668 12.5454C10.6882 12.4244 10.8061 12.3005 10.9197 12.1736C12.199 10.7455 12.863 8.91667 13.2086 7.66953H14.5473C14.9339 7.66953 15.2473 7.35613 15.2473 6.96953C15.2473 6.58293 14.9339 6.26953 14.5473 6.26953H12.7429C12.6922 6.26403 12.6419 6.26418 12.5926 6.26953H10.7066V5.60234Z" fill="#333333"/>
</svg>
