<svg width="24" height="24" viewBox="0 0 24 24" fill="none" xmlns="http://www.w3.org/2000/svg">
<mask id="path-1-inside-1_27414_16360" fill="white">
<path d="M5.4509 10.1493C5.37063 9.54964 5.83706 9.0166 6.44206 9.0166H17.4479C18.0577 9.0166 18.5256 9.55771 18.4374 10.1611L17.1191 19.1881C16.9756 20.1706 16.133 20.8991 15.1401 20.8991H8.6401C7.63809 20.8991 6.79074 20.1576 6.65778 19.1645L5.4509 10.1493Z"/>
</mask>
<path d="M6.65778 19.1645L8.0454 18.9787L6.65778 19.1645ZM17.1191 19.1881L15.7338 18.9858L17.1191 19.1881ZM18.4374 10.1611L19.8227 10.3634L18.4374 10.1611ZM5.4509 10.1493L4.06328 10.3351L5.4509 10.1493ZM6.44206 10.4166H17.4479V7.6166H6.44206V10.4166ZM17.0521 9.9588L15.7338 18.9858L18.5044 19.3904L19.8227 10.3634L17.0521 9.9588ZM15.1401 19.4991H8.6401V22.2991H15.1401V19.4991ZM8.0454 18.9787L6.83852 9.96353L4.06328 10.3351L5.27016 19.3502L8.0454 18.9787ZM8.6401 19.4991C8.3395 19.4991 8.08529 19.2766 8.0454 18.9787L5.27016 19.3502C5.49619 21.0386 6.93669 22.2991 8.6401 22.2991V19.4991ZM15.7338 18.9858C15.6908 19.2805 15.438 19.4991 15.1401 19.4991V22.2991C16.8281 22.2991 18.2605 21.0607 18.5044 19.3904L15.7338 18.9858ZM17.4479 10.4166C17.204 10.4166 17.0169 10.2002 17.0521 9.9588L19.8227 10.3634C20.0342 8.91525 18.9115 7.6166 17.4479 7.6166V10.4166ZM6.44206 7.6166C4.99006 7.6166 3.87062 8.89589 4.06328 10.3351L6.83852 9.96353C6.87064 10.2034 6.68406 10.4166 6.44206 10.4166V7.6166Z" fill="#959CA4" mask="url(#path-1-inside-1_27414_16360)"/>
<path d="M18.5581 7.38184L5.59293 7.38184" stroke="#959CA4" stroke-width="1.4" stroke-linecap="round" stroke-linejoin="round"/>
<mask id="path-4-inside-2_27414_16360" fill="white">
<path d="M7.98633 7.85059H16.1651L15.5456 5.01863C15.2845 3.82502 14.2275 2.97425 13.0056 2.97425H11.0945C9.85566 2.97425 8.78887 3.84837 8.54529 5.06307L7.98633 7.85059Z"/>
</mask>
<path d="M7.98633 7.85059V9.25059H6.27773L6.61365 7.57533L7.98633 7.85059ZM16.1651 7.85059L17.5327 7.55141L17.9044 9.25059H16.1651V7.85059ZM15.5456 5.01863L14.1779 5.31781L15.5456 5.01863ZM8.54529 5.06307L9.91797 5.33832V5.33832L8.54529 5.06307ZM7.98633 6.45059H16.1651V9.25059H7.98633V6.45059ZM14.7974 8.14976L14.1779 5.31781L16.9132 4.71946L17.5327 7.55141L14.7974 8.14976ZM14.1779 5.31781C14.0574 4.76691 13.5695 4.37425 13.0056 4.37425V1.57425C14.8854 1.57425 16.5115 2.88313 16.9132 4.71946L14.1779 5.31781ZM13.0056 4.37425H11.0945V1.57425H13.0056V4.37425ZM11.0945 4.37425C10.5228 4.37425 10.0304 4.77769 9.91797 5.33832L7.17262 4.78781C7.54735 2.91905 9.18858 1.57425 11.0945 1.57425V4.37425ZM9.91797 5.33832L9.359 8.12584L6.61365 7.57533L7.17262 4.78781L9.91797 5.33832Z" fill="#959CA4" mask="url(#path-4-inside-2_27414_16360)"/>
<path d="M10.3555 12.6885V17.0875" stroke="#959CA4" stroke-width="1.4" stroke-linecap="round" stroke-linejoin="round"/>
<path d="M13.582 12.6885V17.0875" stroke="#959CA4" stroke-width="1.4" stroke-linecap="round" stroke-linejoin="round"/>
</svg>
