<svg width="24" height="24" viewBox="0 0 24 24" fill="none" xmlns="http://www.w3.org/2000/svg">
<path fill-rule="evenodd" clip-rule="evenodd" d="M19.4071 10.2656C19.7937 10.2656 20.1071 10.579 20.1071 10.9656V16.3656C20.1071 16.7522 19.7937 17.0656 19.4071 17.0656H14.0071C13.6205 17.0656 13.3071 16.7522 13.3071 16.3656C13.3071 15.979 13.6205 15.6656 14.0071 15.6656H18.7071V10.9656C18.7071 10.579 19.0205 10.2656 19.4071 10.2656Z" fill="#333333"/>
<path fill-rule="evenodd" clip-rule="evenodd" d="M4.12696 6.08638C4.40922 5.82221 4.8522 5.83688 5.11636 6.11914L9.523 10.8277C9.63613 10.9485 9.8258 10.9549 9.9468 10.8419L11.6099 9.28881C12.3048 8.63988 13.3968 8.68699 14.0332 9.39335L19.9134 15.9199C20.1721 16.2071 20.1491 16.6497 19.8619 16.9085C19.5746 17.1673 19.132 17.1442 18.8733 16.857L12.9931 10.3305C12.8808 10.2058 12.6881 10.1975 12.5654 10.312L10.9023 11.8651C10.2167 12.5055 9.14189 12.4693 8.50082 11.7843L4.09419 7.07578C3.83002 6.79352 3.84469 6.35054 4.12696 6.08638Z" fill="#333333"/>
</svg>
