<svg width="24" height="24" viewBox="0 0 24 24" fill="none" xmlns="http://www.w3.org/2000/svg">
<path d="M20.1075 12.3559C20.1075 12.7425 19.7941 13.0559 19.4075 13.0559C19.0209 13.0559 18.7075 12.7425 18.7075 12.3559V8.64734L13.9148 13.8422C13.2701 14.541 12.1776 14.5753 11.4904 13.9182L9.89363 12.3913C9.77397 12.2769 9.58424 12.281 9.46969 12.4005L5.08724 16.9738C4.81976 17.2529 4.37665 17.2624 4.09752 16.9949C3.81839 16.7274 3.80895 16.2843 4.07643 16.0052L8.45888 11.4319C9.10798 10.7545 10.1831 10.7311 10.8612 11.3794L12.458 12.9063C12.5793 13.0223 12.772 13.0162 12.8858 12.8929L17.7174 7.65586L14.0075 7.65586C13.6209 7.65586 13.3075 7.34246 13.3075 6.95586C13.3075 6.56926 13.6209 6.25586 14.0075 6.25586H19.4075C19.7941 6.25586 20.1075 6.56926 20.1075 6.95586V12.3559Z" fill="#333333"/>
</svg>
