<svg width="24" height="24" viewBox="0 0 24 24" fill="none" xmlns="http://www.w3.org/2000/svg">
<path fill-rule="evenodd" clip-rule="evenodd" d="M5.80273 18.3006C5.80273 17.914 6.11613 17.6006 6.50273 17.6006L17.5027 17.6006C17.8893 17.6006 18.2027 17.914 18.2027 18.3006C18.2027 18.6872 17.8893 19.0006 17.5027 19.0006L6.50273 19.0006C6.11614 19.0006 5.80273 18.6872 5.80273 18.3006Z" fill="#333333"/>
<path fill-rule="evenodd" clip-rule="evenodd" d="M15.8499 5C16.2365 5 16.5499 5.3134 16.5499 5.7V11.7615C16.5499 14.3476 14.5443 16.5025 11.9998 16.5025C9.45532 16.5025 7.44971 14.3476 7.44971 11.7615L7.44971 5.7C7.44971 5.3134 7.76311 5 8.14971 5C8.53631 5 8.84971 5.3134 8.84971 5.7L8.84971 11.7615C8.84971 13.639 10.2916 15.1025 11.9998 15.1025C13.708 15.1025 15.1499 13.639 15.1499 11.7615V5.7C15.1499 5.3134 15.4633 5 15.8499 5Z" fill="#333333"/>
</svg>
