<svg width="24" height="24" viewBox="0 0 24 24" fill="none" xmlns="http://www.w3.org/2000/svg">
<path d="M6.69014 7.75672L9.43744 5.00943C9.71081 4.73606 9.71081 4.29285 9.43744 4.01948C9.16407 3.74611 8.72086 3.74611 8.44749 4.01948L4.50483 7.96214C4.3676 8.09937 4.29926 8.27939 4.29981 8.45925C4.30033 8.6377 4.36867 8.81599 4.50483 8.95215L8.42562 12.873C8.69899 13.1464 9.1422 13.1464 9.41557 12.873C9.68894 12.5996 9.68894 12.1564 9.41558 11.883L6.68929 9.15672H13.8054C16.0541 9.15672 17.8771 10.9797 17.8771 13.2284C17.8771 15.4771 16.0541 17.3 13.8054 17.3H11.5091C11.1225 17.3 10.8091 17.6134 10.8091 18C10.8091 18.3866 11.1225 18.7 11.5091 18.7H13.8054C16.8273 18.7 19.2771 16.2503 19.2771 13.2284C19.2771 10.2065 16.8273 7.75672 13.8054 7.75672H6.69014Z" fill="#333333"/>
</svg>
