<svg width="24" height="24" viewBox="0 0 24 24" fill="none" xmlns="http://www.w3.org/2000/svg">
<path d="M18.3989 5.53312C17.6325 4.76669 16.6847 4.3816 15.7124 4.40747C14.7466 4.43318 13.817 4.86221 13.0664 5.61138L11.4037 7.23234C11.1269 7.50221 11.1213 7.94539 11.3912 8.22221C11.661 8.49902 12.1042 8.50465 12.381 8.23478L14.0468 6.61085L14.0531 6.6046C14.5841 6.07361 15.1851 5.822 15.7496 5.80698C16.3091 5.79209 16.8932 6.00732 17.4089 6.52307C17.885 6.99917 18.0241 7.53866 17.9389 8.09482C17.8495 8.6779 17.5037 9.31438 16.9395 9.87863L16.9375 9.88067L15.6385 11.1903C15.3663 11.4648 15.3681 11.908 15.6426 12.1803C15.9171 12.4525 16.3603 12.4507 16.6326 12.1762L17.9295 10.8686L17.9305 10.8676C18.6479 10.1498 19.1774 9.25501 19.3227 8.30688C19.4722 7.33137 19.205 6.3392 18.3989 5.53312Z" fill="#333333"/>
<path d="M8.66169 11.9801C8.94904 11.7214 8.97233 11.2788 8.7137 10.9915C8.45508 10.7041 8.01247 10.6808 7.72512 10.9395C6.78976 11.7813 5.66972 12.8484 5.0933 14.0307C4.79736 14.6378 4.62411 15.3145 4.71977 16.0301C4.81631 16.7522 5.17621 17.435 5.80726 18.0661C6.45056 18.7094 7.15553 19.0464 7.8968 19.098C8.62274 19.1486 9.29947 18.9197 9.89085 18.5901C10.9985 17.9728 11.9913 16.8905 12.7072 16.1102L12.799 16.0101C13.0605 15.7254 13.0417 15.2826 12.7571 15.0211C12.4724 14.7595 12.0295 14.7783 11.768 15.063L11.7375 15.0962C10.9756 15.9256 10.115 16.8624 9.20928 17.3672C8.76381 17.6155 8.36081 17.727 7.99415 17.7014C7.64281 17.6769 7.24229 17.5212 6.79721 17.0761C6.34001 16.6189 6.15581 16.2065 6.10743 15.8446C6.05817 15.4761 6.13918 15.0802 6.35172 14.6442C6.79226 13.7406 7.70604 12.8402 8.66169 11.9801Z" fill="#333333"/>
<path d="M4.78076 9.1375C4.78076 8.7509 5.09416 8.4375 5.48076 8.4375H7.48076C7.86736 8.4375 8.18076 8.7509 8.18076 9.1375C8.18076 9.5241 7.86736 9.8375 7.48076 9.8375H5.48076C5.09416 9.8375 4.78076 9.5241 4.78076 9.1375Z" fill="#333333"/>
<path d="M10.1808 5.1375C10.1808 4.7509 9.86736 4.4375 9.48076 4.4375C9.09416 4.4375 8.78076 4.7509 8.78076 5.1375V7.1375C8.78076 7.5241 9.09416 7.8375 9.48076 7.8375C9.86736 7.8375 10.1808 7.5241 10.1808 7.1375V5.1375Z" fill="#333333"/>
<path d="M14.4808 15.4375C14.8674 15.4375 15.1808 15.7509 15.1808 16.1375V18.1375C15.1808 18.5241 14.8674 18.8375 14.4808 18.8375C14.0942 18.8375 13.7808 18.5241 13.7808 18.1375V16.1375C13.7808 15.7509 14.0942 15.4375 14.4808 15.4375Z" fill="#333333"/>
<path d="M16.4808 13.4375C16.0942 13.4375 15.7808 13.7509 15.7808 14.1375C15.7808 14.5241 16.0942 14.8375 16.4808 14.8375H18.4808C18.8674 14.8375 19.1808 14.5241 19.1808 14.1375C19.1808 13.7509 18.8674 13.4375 18.4808 13.4375H16.4808Z" fill="#333333"/>
</svg>
