<svg width="24" height="24" viewBox="0 0 24 24" fill="none" xmlns="http://www.w3.org/2000/svg">
<path d="M11.1846 12.8674C11.1846 13.1059 11.2874 13.3205 11.4511 13.4692C11.4505 13.4794 11.4502 13.4898 11.4502 13.5002V14.5002C11.4502 14.804 11.6964 15.0502 12.0002 15.0502C12.304 15.0502 12.5502 14.804 12.5502 14.5002V13.5002C12.5502 13.4881 12.5498 13.476 12.549 13.4641C12.7095 13.3156 12.81 13.1032 12.81 12.8674C12.81 12.4185 12.4461 12.0547 11.9973 12.0547C11.5484 12.0547 11.1846 12.4185 11.1846 12.8674Z" fill="#333333"/>
<path fill-rule="evenodd" clip-rule="evenodd" d="M12.0143 7.11719C10.6027 7.11719 9.44922 8.3289 9.44922 9.58563V10.1407C8.77591 10.2423 8.25977 10.8234 8.25977 11.525V14.9333C8.25977 15.7065 8.88657 16.3333 9.65977 16.3333H14.3391C15.1123 16.3333 15.7391 15.7065 15.7391 14.9333V11.525C15.7391 10.7518 15.1123 10.125 14.3391 10.125H10.5492V9.58563C10.5492 8.94652 11.2001 8.21719 12.0143 8.21719C12.7691 8.21719 13.3209 8.71894 13.4714 9.2329L14.5271 8.92382C14.2415 7.94856 13.2653 7.11719 12.0143 7.11719ZM14.3391 11.225H9.65977C9.49408 11.225 9.35977 11.3593 9.35977 11.525V14.9333C9.35977 15.099 9.49408 15.2333 9.65977 15.2333H14.3391C14.5048 15.2333 14.6391 15.099 14.6391 14.9333V11.525C14.6391 11.3593 14.5048 11.225 14.3391 11.225Z" fill="#333333"/>
</svg>
