<svg width="24" height="24" viewBox="0 0 24 24" fill="none" xmlns="http://www.w3.org/2000/svg">
<path d="M10.998 13.0667C10.998 13.4005 11.1616 13.6961 11.4129 13.8778C11.4047 13.9174 11.4004 13.9584 11.4004 14.0004V15.0004C11.4004 15.3318 11.669 15.6004 12.0004 15.6004C12.3318 15.6004 12.6004 15.3318 12.6004 15.0004V14.0004C12.6004 13.9574 12.5959 13.9156 12.5873 13.8752C12.8366 13.6933 12.9985 13.3989 12.9985 13.0667C12.9985 12.5142 12.5507 12.0664 11.9983 12.0664C11.4459 12.0664 10.998 12.5142 10.998 13.0667Z" fill="#333333"/>
<path fill-rule="evenodd" clip-rule="evenodd" d="M12.0187 6.06738C10.3308 6.06738 8.9502 7.51542 8.9502 9.01214V9.70923C8.07308 9.82973 7.39746 10.5822 7.39746 11.4924V15.5334C7.39746 16.5275 8.20335 17.3334 9.19746 17.3334H14.8028C15.797 17.3334 16.6028 16.5275 16.6028 15.5334V11.4924C16.6028 10.4983 15.797 9.69238 14.8028 9.69238H10.1502V9.01214C10.1502 8.19173 10.9799 7.26738 12.0187 7.26738C12.9775 7.26738 13.6814 7.90322 13.8745 8.56109L15.0259 8.2232C14.6849 7.06092 13.517 6.06738 12.0187 6.06738ZM14.8028 10.8924H9.19746C8.86609 10.8924 8.59746 11.161 8.59746 11.4924V15.5334C8.59746 15.8648 8.86609 16.1334 9.19746 16.1334H14.8028C15.1342 16.1334 15.4028 15.8648 15.4028 15.5334V11.4924C15.4028 11.161 15.1342 10.8924 14.8028 10.8924Z" fill="#333333"/>
</svg>
