<svg width="24" height="24" viewBox="0 0 24 24" fill="none" xmlns="http://www.w3.org/2000/svg">
<path d="M11.9974 12.083C11.3069 12.083 10.7471 12.6428 10.7471 13.3333C10.7471 13.7867 10.9884 14.1837 11.3496 14.4029V15.4996C11.3496 15.8586 11.6406 16.1496 11.9996 16.1496C12.3586 16.1496 12.6496 15.8586 12.6496 15.4996V14.4002C13.0083 14.1805 13.2477 13.7848 13.2477 13.3333C13.2477 12.6428 12.6879 12.083 11.9974 12.083Z" fill="#333333"/>
<path fill-rule="evenodd" clip-rule="evenodd" d="M8.2998 8.33346C8.2998 6.50612 9.96051 4.69922 12.0228 4.69922C13.8542 4.69922 15.2655 5.93982 15.6746 7.36505L14.425 7.7237C14.1692 6.83236 13.2503 5.99922 12.0228 5.99922C10.6908 5.99922 9.5998 7.21172 9.5998 8.33346V9.11426H15.4538C16.7241 9.11426 17.7538 10.144 17.7538 11.4143V16.3655C17.7538 17.6358 16.7241 18.6655 15.4538 18.6655H8.54707C7.27681 18.6655 6.24707 17.6358 6.24707 16.3655V11.4143C6.24707 10.2275 7.14583 9.25074 8.2998 9.12739V8.33346ZM15.4538 10.4143H8.54707C7.99478 10.4143 7.54707 10.862 7.54707 11.4143V16.3655C7.54707 16.9178 7.99478 17.3655 8.54707 17.3655H15.4538C16.0061 17.3655 16.4538 16.9178 16.4538 16.3655V11.4143C16.4538 10.862 16.0061 10.4143 15.4538 10.4143Z" fill="#333333"/>
</svg>
