<svg width="24" height="24" viewBox="0 0 24 24" fill="none" xmlns="http://www.w3.org/2000/svg">
<path d="M12.6998 14.9998C12.6998 14.9754 12.6986 14.9513 12.6961 14.9276C13.1723 14.6761 13.4968 14.1759 13.4968 13.6C13.4968 12.7713 12.8251 12.0996 11.9965 12.0996C11.1678 12.0996 10.4961 12.7713 10.4961 13.6C10.4961 14.1785 10.8235 14.6805 11.3032 14.9309C11.3009 14.9536 11.2998 14.9766 11.2998 14.9998V16.4998C11.2998 16.8864 11.6132 17.1998 11.9998 17.1998C12.3864 17.1998 12.6998 16.8864 12.6998 16.4998V14.9998Z" fill="#333333"/>
<path fill-rule="evenodd" clip-rule="evenodd" d="M7.64941 7.55247C7.64941 5.41367 9.60613 3.2998 12.027 3.2998C14.18 3.2998 15.8407 4.75102 16.322 6.41903L14.9769 6.80714C14.6624 5.71734 13.5346 4.6998 12.027 4.6998C10.3857 4.6998 9.04941 6.18047 9.04941 7.55247V8.53809H16.2038C17.6949 8.53809 18.9038 9.74692 18.9038 11.2381V17.2996C18.9038 18.7908 17.6949 19.9996 16.2038 19.9996H7.7957C6.30453 19.9996 5.0957 18.7908 5.0957 17.2996V11.2381C5.0957 9.796 6.22627 8.61797 7.64941 8.54198V7.55247ZM16.2038 9.93809H7.7957C7.07773 9.93809 6.4957 10.5201 6.4957 11.2381V17.2996C6.4957 18.0176 7.07773 18.5996 7.7957 18.5996H16.2038C16.9218 18.5996 17.5038 18.0176 17.5038 17.2996V11.2381C17.5038 10.5201 16.9217 9.93809 16.2038 9.93809Z" fill="#333333"/>
</svg>
