<svg width="24" height="24" viewBox="0 0 24 24" fill="none" xmlns="http://www.w3.org/2000/svg">
<path fill-rule="evenodd" clip-rule="evenodd" d="M6.35669 7.42154L9.38997 10.4548L8.50796 11.1293L8.23826 10.8588L8.22419 10.8451C7.53198 10.189 6.46739 10.2752 5.82395 10.92C5.18126 11.564 5.09504 12.6282 5.74757 13.3213L5.76177 13.336L7.44428 15.022L7.71519 15.294L4.50483 18.5043C4.23146 18.7777 4.23146 19.2209 4.50483 19.4943C4.7782 19.7676 5.22141 19.7676 5.49478 19.4943L8.70309 16.286L10.6563 18.2416C10.6628 18.2481 10.6694 18.2544 10.6761 18.2607C11.3703 18.9028 12.4241 18.8118 13.0623 18.1718C13.6998 17.5326 13.7901 16.4791 13.1509 15.7845C13.1446 15.7776 13.1381 15.7708 13.1315 15.7642L12.8595 15.4915L13.5365 14.6014L15.9613 17.0261C16.2346 17.2995 16.6778 17.2995 16.9512 17.0261C17.2246 16.7527 17.2246 16.3095 16.9512 16.0362L7.34663 6.43159C7.07327 6.15822 6.63005 6.15822 6.35669 6.43159C6.08332 6.70495 6.08332 7.14817 6.35669 7.42154ZM11.3756 15.1297L12.5375 13.6023L10.3887 11.4535L8.87086 12.6142C8.59188 12.8275 8.19802 12.8011 7.95002 12.5524L7.25646 11.857C7.16737 11.7778 6.97379 11.7497 6.81489 11.9089C6.65532 12.0688 6.68251 12.266 6.76257 12.3569L8.43576 14.0335L9.93023 15.5342L11.6334 17.2388C11.7239 17.3153 11.9147 17.3399 12.071 17.1832C12.228 17.0258 12.2042 16.8315 12.1266 16.7392L11.4371 16.0479C11.1901 15.8002 11.1639 15.4082 11.3756 15.1297Z" fill="#333333"/>
<path d="M14.1411 11.4942L15.9568 9.1072C16.0793 8.94622 16.2654 8.84608 16.4672 8.83256C16.669 8.81905 16.8668 8.89348 17.0096 9.03669L17.7297 9.75875C17.815 9.84443 18.0162 9.88199 18.1816 9.7165C18.3476 9.55038 18.312 9.34591 18.2256 9.25871L14.7372 5.76298C14.6481 5.68377 14.4545 5.65566 14.2956 5.81491C14.136 5.97484 14.1632 6.17206 14.2433 6.26293L14.9487 6.97021C15.091 7.11297 15.165 7.31019 15.1515 7.51136C15.138 7.71253 15.0384 7.89811 14.8782 8.02058L12.4921 9.84516L11.4934 8.84645L13.3935 7.39347L13.2423 7.2418L13.2283 7.22731C12.5757 6.53415 12.6619 5.46994 13.3046 4.82596C13.9481 4.18122 15.0127 4.09494 15.7049 4.75111L15.7188 4.76467L19.2177 8.27089C19.9032 8.95981 19.8272 10.0504 19.1719 10.7061C18.5158 11.3626 17.4249 11.437 16.738 10.747L16.5851 10.5937L15.1402 12.4932L14.1411 11.4942Z" fill="#333333"/>
</svg>
