<svg width="24" height="24" viewBox="0 0 24 24" fill="none" xmlns="http://www.w3.org/2000/svg">
<path fill-rule="evenodd" clip-rule="evenodd" d="M17.1 9.02772C17.1008 8.69142 16.9615 8.35383 16.7322 8.12173L14.4071 5.7656C14.1785 5.53378 13.8536 5.39922 13.5386 5.4L13.5351 5.40001L8.13158 5.40001C7.4842 5.40001 6.9 5.97456 6.9 6.66667V17.3334C6.9 18.0254 7.48421 18.6 8.13158 18.6H15.8684C16.5158 18.6 17.1 18.0254 17.1 17.3334V9.02772ZM13.5351 4.00001H8.13158C6.68353 4.00001 5.5 5.22912 5.5 6.66667V17.3334C5.5 18.7709 6.68355 20 8.13158 20H15.8684C17.3165 20 18.5 18.7709 18.5 17.3334V9.03112C18.5017 8.32797 18.219 7.63469 17.7281 7.13778L15.4035 4.78223C14.9131 4.28472 14.229 3.99828 13.5351 4.00001Z" fill="#333333"/>
<path fill-rule="evenodd" clip-rule="evenodd" d="M9.2502 15.8311C9.2502 15.4445 9.5636 15.1311 9.9502 15.1311H14.05C14.4366 15.1311 14.75 15.4445 14.75 15.8311C14.75 16.2177 14.4366 16.5311 14.05 16.5311H9.9502C9.5636 16.5311 9.2502 16.2177 9.2502 15.8311Z" fill="#333333"/>
<path fill-rule="evenodd" clip-rule="evenodd" d="M11.9999 7.92904C12.3865 7.92904 12.6999 8.24244 12.6999 8.62904V13.629C12.6999 14.0156 12.3865 14.329 11.9999 14.329C11.6133 14.329 11.2999 14.0156 11.2999 13.629V8.62904C11.2999 8.24244 11.6133 7.92904 11.9999 7.92904Z" fill="#333333"/>
<path fill-rule="evenodd" clip-rule="evenodd" d="M12.4949 8.13405C12.7683 8.40741 12.7683 8.85063 12.495 9.124L10.4451 11.174C10.1717 11.4474 9.72848 11.4474 9.45511 11.174C9.18174 10.9007 9.18173 10.4574 9.45509 10.1841L11.505 8.13407C11.7783 7.8607 12.2216 7.86069 12.4949 8.13405Z" fill="#333333"/>
<path fill-rule="evenodd" clip-rule="evenodd" d="M11.505 8.13407C11.7783 7.8607 12.2216 7.86069 12.4949 8.13405L14.5448 10.1841C14.8182 10.4574 14.8182 10.9006 14.5448 11.174C14.2715 11.4474 13.8283 11.4474 13.5549 11.174L11.5049 9.12401C11.2315 8.85065 11.2316 8.40744 11.505 8.13407Z" fill="#333333"/>
</svg>
