<svg width="24" height="24" viewBox="0 0 24 24" fill="none" xmlns="http://www.w3.org/2000/svg">
<path d="M12.0001 9.7998C12.1901 9.7998 12.3701 9.8798 12.5001 10.0098L14.5101 12.0198C14.7801 12.2898 14.7801 12.7398 14.5101 13.0098C14.3701 13.1498 14.1901 13.2198 14.0101 13.2198C13.8301 13.2198 13.6501 13.1498 13.5101 13.0098L12.7101 12.1998V16.0098C12.7101 16.3998 12.4001 16.7098 12.0101 16.7098C11.6201 16.7098 11.3101 16.3998 11.3101 16.0098V12.1998L10.5001 12.9998C10.2301 13.2698 9.78012 13.2698 9.51012 12.9998C9.24012 12.7298 9.24012 12.2798 9.51012 12.0098L11.5101 10.0098C11.6401 9.8698 11.8101 9.7998 12.0001 9.7998Z" fill="#333333"/>
<path fill-rule="evenodd" clip-rule="evenodd" d="M14.6701 6.9698C16.9601 6.9698 18.8501 8.7398 19.0601 10.9898H19.0701C20.6701 11.6598 21.7301 13.2198 21.7101 14.9398C21.7601 17.2198 19.8701 19.1398 17.5001 19.1998H7.6701C4.7201 19.1998 2.3101 16.7798 2.3101 13.8098C2.2801 11.7498 3.5201 9.8298 5.4201 8.9298C5.6201 6.6198 7.5601 4.7998 9.9101 4.7998C11.5701 4.8198 13.0401 5.6798 13.8201 7.0498C14.1001 6.9998 14.3801 6.9698 14.6701 6.9698ZM17.4601 17.7998C19.0501 17.7598 20.3201 16.4798 20.2901 14.9498C20.3001 13.6698 19.4301 12.5398 18.1701 12.1698C17.8801 12.0898 17.6701 11.8098 17.6701 11.4998V11.4298C17.6701 9.73981 16.3201 8.3798 14.6601 8.3798C14.3201 8.3798 13.9801 8.43981 13.6601 8.5498C13.3001 8.6798 12.9101 8.4998 12.7701 8.1498C12.3301 6.9998 11.1701 6.2198 9.8901 6.2098C8.1901 6.2098 6.7901 7.6098 6.7901 9.3398C6.7901 9.6298 6.6101 9.9598 6.3401 10.0598C4.7401 10.6598 3.6801 12.1698 3.7001 13.8098C3.7001 16.0098 5.4701 17.7998 7.6601 17.7998H17.4601Z" fill="#333333"/>
</svg>
