<svg width="24" height="24" viewBox="0 0 24 24" fill="none" xmlns="http://www.w3.org/2000/svg">
<path d="M14.05 16.1396H9.95C9.56 16.1396 9.25 16.4496 9.25 16.8396C9.25 17.2296 9.56 17.5396 9.95 17.5396H14.05C14.44 17.5396 14.75 17.2296 14.75 16.8396C14.75 16.4496 14.44 16.1396 14.05 16.1396Z" fill="#333333"/>
<path d="M12.2701 9.64961C12.3601 9.67961 12.4401 9.73961 12.5001 9.79961L14.5501 11.8496C14.8201 12.1196 14.8201 12.5696 14.5501 12.8396C14.4101 12.9796 14.2301 13.0496 14.0501 13.0496C13.8701 13.0496 13.6901 12.9796 13.5501 12.8396L12.7001 11.9896V14.7996C12.7001 15.1896 12.3901 15.4996 12.0001 15.4996C11.6101 15.4996 11.3001 15.1896 11.3001 14.7996V11.9896L10.4501 12.8396C10.3101 12.9796 10.1301 13.0496 9.95006 13.0496C9.77006 13.0496 9.59006 12.9796 9.45006 12.8396C9.18006 12.5696 9.18006 12.1196 9.45006 11.8496L11.5001 9.79961C11.5701 9.73961 11.6401 9.68961 11.7301 9.64961C11.8001 9.61961 11.8801 9.59961 11.9601 9.59961H12.0001C12.0101 9.59961 12.0201 9.60211 12.0301 9.60461C12.0401 9.60711 12.0501 9.60961 12.0601 9.60961C12.1301 9.60961 12.2001 9.61961 12.2701 9.64961Z" fill="#333333"/>
<path fill-rule="evenodd" clip-rule="evenodd" d="M18.2998 8.01C18.1698 7.68 17.9698 7.39 17.7298 7.14L15.4098 4.78C15.1598 4.53 14.8798 4.34 14.5498 4.2C14.2298 4.07 13.9198 4.02 13.5398 4H8.13977C7.43977 4 6.77977 4.28 6.27977 4.78C5.77977 5.28 5.50977 5.95 5.50977 6.67V17.34C5.50977 18.05 5.77977 18.72 6.27977 19.23C6.76977 19.73 7.44977 20.01 8.13977 20.01H15.8798C16.5798 20.01 17.2398 19.73 17.7398 19.23C18.2398 18.73 18.5098 18.06 18.5098 17.34V9.04C18.5098 8.69 18.4398 8.34 18.3098 8.02L18.2998 8.01ZM16.7298 8.12C16.8003 8.19056 16.8475 8.27668 16.892 8.35777L16.9098 8.39H14.7798C14.5998 8.39 14.4198 8.32 14.2898 8.19C14.1598 8.06 14.0898 7.89 14.0898 7.71V5.55C14.1998 5.61 14.3098 5.67 14.3998 5.76L16.7298 8.12ZM16.7298 18.24C16.4998 18.48 16.1898 18.6 15.8598 18.6H8.11977C7.79977 18.6 7.47977 18.47 7.25977 18.24C7.01977 18 6.88977 17.68 6.88977 17.34V6.67C6.88977 6.33 7.01977 6 7.25977 5.77C7.48977 5.54 7.79977 5.41 8.11977 5.41H12.6798V7.72C12.6798 8.28 12.8998 8.8 13.2898 9.2C13.6798 9.59 14.2198 9.81 14.7698 9.81H17.0798V17.35C17.0798 17.69 16.9498 18.01 16.7098 18.25L16.7298 18.24Z" fill="#333333"/>
</svg>
