<svg width="24" height="24" viewBox="0 0 24 24" fill="none" xmlns="http://www.w3.org/2000/svg">
<path d="M12.1934 9.92266C12.1934 9.53606 12.5068 9.22266 12.8934 9.22266H16.657C17.0436 9.22266 17.357 9.53606 17.357 9.92266C17.357 10.3093 17.0436 10.6227 16.657 10.6227H12.8934C12.5068 10.6227 12.1934 10.3093 12.1934 9.92266Z" fill="#1BCE7B"/>
<path d="M12.8934 11.8447C12.5068 11.8447 12.1934 12.1581 12.1934 12.5447C12.1934 12.9313 12.5068 13.2447 12.8934 13.2447H15.3898C15.7764 13.2447 16.0898 12.9313 16.0898 12.5447C16.0898 12.1581 15.7764 11.8447 15.3898 11.8447H12.8934Z" fill="#1BCE7B"/>
<path fill-rule="evenodd" clip-rule="evenodd" d="M8.38277 8.79589C8.56901 8.73415 8.7935 8.68555 9.02084 8.68555C9.71178 8.68555 10.2626 8.98342 10.6197 9.45099C10.9603 9.89703 11.0948 10.4547 11.0824 10.9712C11.0701 11.4882 10.9092 12.0322 10.5731 12.4634C10.2244 12.9107 9.69234 13.2232 9.02083 13.2232C7.8648 13.2232 7.2105 12.3479 7.0265 11.5097C6.84814 10.6971 7.04229 9.65408 7.84186 9.06549C8.00264 8.94714 8.19882 8.85687 8.38277 8.79589ZM8.68382 10.1854C8.67592 10.19 8.67183 10.1929 8.67183 10.1929C8.4449 10.36 8.29614 10.764 8.39394 11.2095C8.4861 11.6294 8.72705 11.8232 9.02083 11.8232C9.21962 11.8232 9.35909 11.7436 9.46898 11.6026C9.5915 11.4454 9.67643 11.205 9.68283 10.9376C9.68925 10.6696 9.61561 10.4429 9.50697 10.3006C9.41476 10.1799 9.27533 10.0855 9.02084 10.0855C8.98226 10.0855 8.90998 10.096 8.8233 10.1248C8.78302 10.1381 8.74693 10.153 8.71783 10.1673C8.7035 10.1742 8.69217 10.1804 8.68382 10.1854Z" fill="#1BCE7B"/>
<path fill-rule="evenodd" clip-rule="evenodd" d="M3.8335 8.48418C3.8335 6.99301 5.04233 5.78418 6.5335 5.78418H17.4671C18.9583 5.78418 20.1671 6.99301 20.1671 8.48418V15.5169C20.1671 17.0081 18.9583 18.2169 17.4671 18.2169H6.5335C5.04233 18.2169 3.8335 17.0081 3.8335 15.5169V8.48418ZM6.5335 7.18418C5.81552 7.18418 5.2335 7.76621 5.2335 8.48418V15.5169C5.2335 15.5591 5.23551 15.6009 5.23944 15.642C5.25755 15.5961 5.27801 15.5501 5.30094 15.5041C6.06684 13.9671 7.75049 13.6221 9.02373 13.6221C9.8315 13.6221 10.7563 13.7565 11.534 14.2145C12.3474 14.6935 12.9448 15.4967 13.0902 16.6868C13.0956 16.7309 13.0986 16.7743 13.0991 16.8169H17.4671C18.1851 16.8169 18.7671 16.2349 18.7671 15.5169V8.48418C18.7671 7.76621 18.1851 7.18418 17.4671 7.18418H6.5335ZM6.55399 16.1285C6.94633 15.3411 7.88272 15.0221 9.02373 15.0221C9.70475 15.0221 10.347 15.1402 10.8235 15.4208C11.2055 15.6458 11.5147 15.9923 11.6505 16.5716H7.12285C6.89818 16.5716 6.70072 16.471 6.59869 16.3564C6.55129 16.3032 6.53571 16.2604 6.53135 16.2355C6.528 16.2165 6.52619 16.1843 6.55399 16.1285Z" fill="#1BCE7B"/>
</svg>
