<svg width="24" height="24" viewBox="0 0 24 24" fill="none" xmlns="http://www.w3.org/2000/svg">
<path fill-rule="evenodd" clip-rule="evenodd" d="M12.0111 11.3535C11.1582 11.3535 10.1874 11.4861 9.37179 11.9349C8.51996 12.4036 7.87332 13.2015 7.7154 14.4075C7.61655 15.1624 8.24437 15.6981 8.87819 15.6981H15.144C15.7778 15.6981 16.4056 15.1624 16.3068 14.4075C16.1489 13.2015 15.5022 12.4036 14.6504 11.9349C13.8348 11.4861 12.864 11.3535 12.0111 11.3535ZM13.9754 13.1614C14.3949 13.3923 14.7192 13.7385 14.863 14.2981H9.15914C9.30298 13.7385 9.62725 13.3923 10.0467 13.1614C10.5709 12.873 11.2738 12.7535 12.0111 12.7535C12.7483 12.7535 13.4513 12.873 13.9754 13.1614Z" fill="#333333"/>
<path fill-rule="evenodd" clip-rule="evenodd" d="M10.8544 6.7995C9.31233 7.94325 9.82411 11.18 12.0021 11.18C14.617 11.18 14.8427 6.43066 12.0021 6.43066C11.6026 6.43066 11.1105 6.60958 10.8544 6.7995ZM11.6802 7.93024C11.4819 8.08536 11.2744 8.53889 11.4011 9.12065C11.4579 9.38131 11.5658 9.55799 11.6635 9.65309C11.7413 9.72883 11.8347 9.78001 12.0021 9.78001C12.1788 9.78001 12.2901 9.71995 12.3974 9.58122C12.53 9.40984 12.6401 9.11843 12.6483 8.77207C12.6566 8.4244 12.5599 8.16011 12.4524 8.01835C12.3782 7.92032 12.2716 7.83066 12.0021 7.83066C12.0023 7.83066 12.0023 7.83066 12.0021 7.83066C12.0001 7.83075 11.9812 7.8315 11.9458 7.83806C11.9084 7.84502 11.8642 7.85632 11.818 7.87175C11.7717 7.88722 11.7322 7.90386 11.7035 7.91799C11.692 7.92367 11.6843 7.92788 11.6802 7.93024Z" fill="#333333"/>
<path fill-rule="evenodd" clip-rule="evenodd" d="M20 12C20 16.4183 16.4183 20 12 20C7.58172 20 4 16.4183 4 12C4 7.58172 7.58172 4 12 4C16.4183 4 20 7.58172 20 12ZM14.8983 17.9313C14.0234 18.3596 13.0398 18.6 12 18.6C10.9602 18.6 9.97662 18.3596 9.10173 17.9312L14.8983 17.9313ZM16.7917 16.5387C16.7583 16.5338 16.7241 16.5313 16.6893 16.5313L7.21172 16.5312C7.20825 16.5312 7.20478 16.5313 7.20132 16.5313C6.08463 15.3492 5.4 13.7545 5.4 12C5.4 8.35492 8.35492 5.4 12 5.4C15.6451 5.4 18.6 8.35492 18.6 12C18.6 13.7582 17.9125 15.3558 16.7917 16.5387Z" fill="#333333"/>
</svg>
