<svg width="24" height="24" viewBox="0 0 24 24" fill="none" xmlns="http://www.w3.org/2000/svg">
<path fill-rule="evenodd" clip-rule="evenodd" d="M10.1688 4.67434C11.1569 4.758 12.1604 5.19471 12.8124 6.05406C13.0435 6.35871 13.2065 6.67867 13.3246 6.99248C13.47 6.91855 13.6251 6.85074 13.7957 6.77984C15.7255 5.96261 18.0011 6.69205 18.801 8.59696C18.873 8.76838 18.8738 8.96138 18.8033 9.13341C18.7328 9.30544 18.5968 9.44236 18.4252 9.51396L17.7812 9.78273C19.1725 10.8706 19.8596 12.7133 19.0988 14.3657C18.9424 14.7129 18.5361 14.872 18.1849 14.7215L15.8732 13.7308L15.4699 13.5554L14.8686 13.2975L13.5469 12.7334C13.3225 14.151 13.0827 16.1082 13.726 19.2205C13.7686 19.4266 13.7161 19.641 13.5832 19.8042C13.4503 19.9674 13.251 20.0622 13.0405 20.0622H8.96194C8.60249 20.0622 8.30146 19.7899 8.26546 19.4323C7.95785 16.3767 8.37189 14.1172 9.49172 12.2175L4.92702 12.2236C4.74089 12.2239 4.56233 12.15 4.4308 12.0183C4.29927 11.8866 4.2256 11.7079 4.22608 11.5218C4.22763 10.9142 4.38872 10.3399 4.66876 9.82887C5.15314 8.90998 6.01731 8.20866 7.05237 7.87669C7.4028 7.75953 7.77076 7.68581 8.14703 7.66236L7.22511 6.45722C6.99421 6.15538 7.04631 5.72445 7.34249 5.48634C8.13329 4.8506 9.18307 4.59089 10.1688 4.67434ZM15.4192 12.0103L13.2915 11.0977C13.2414 11.0762 13.1902 11.061 13.1387 11.0517C12.9739 11.0171 12.8004 11.0429 12.6511 11.1271C12.4614 11.2341 12.3323 11.4233 12.3018 11.6389C12.2766 11.8177 12.2453 12.0101 12.2116 12.2177C11.9929 13.5648 11.6695 15.5562 12.1964 18.6622H9.60507C9.40039 15.6522 10.0197 13.6835 11.3145 12.0261C11.4508 11.8982 11.5358 11.7164 11.5355 11.5147C11.5351 11.1635 11.276 10.873 10.9387 10.8232C10.9021 10.8173 10.8647 10.8142 10.8268 10.8142H5.7686C5.80609 10.7046 5.85201 10.5977 5.9058 10.4942C6.22163 9.92273 6.78213 9.44467 7.46925 9.21002C7.76003 9.11658 8.07642 9.06509 8.41139 9.06509C8.58579 9.06509 8.75622 9.07991 8.92151 9.10777C9.63059 9.25494 10.25 9.68738 10.6132 10.1766C10.8437 10.487 11.2821 10.5518 11.5926 10.3213C11.903 10.0909 11.9678 9.65241 11.7373 9.34201C11.3787 8.85896 10.8628 8.41367 10.2459 8.10191L8.8198 6.23764C9.19496 6.09369 9.62224 6.03308 10.0507 6.06935C10.7299 6.12686 11.3325 6.41977 11.697 6.90023C12.0044 7.30531 12.1349 7.78823 12.2201 8.31452C12.2638 8.58502 12.4614 8.80511 12.7256 8.87772C12.9898 8.95033 13.2721 8.8621 13.448 8.65195C13.6811 8.37336 13.8432 8.27611 14.3352 8.07175L14.34 8.06971C15.3985 7.62068 16.4875 7.8782 17.1186 8.54222L16.021 9.00032C15.5233 8.93466 15.0109 8.96241 14.58 9.01666C13.8718 9.10581 13.1985 9.29236 12.8778 9.44645C12.5293 9.61387 12.3826 10.0321 12.55 10.3806C12.7174 10.729 13.1356 10.8758 13.4841 10.7084C13.6186 10.6437 14.1288 10.4845 14.7549 10.4057C15.3498 10.3308 15.8906 10.3504 16.2386 10.4825C16.8259 10.75 17.3434 11.2044 17.6634 11.7485C17.9116 12.1705 18.0369 12.6358 17.9947 13.115L16.0243 12.2699L15.8626 12.1995L15.8583 12.1977L15.4192 12.0103Z" fill="#333333"/>
</svg>
