<svg width="24" height="24" viewBox="0 0 24 24" fill="none" xmlns="http://www.w3.org/2000/svg">
<path d="M15.5105 10.4786C15.7749 10.1965 15.7606 9.75354 15.4786 9.48913C15.1965 9.22472 14.7535 9.23901 14.4891 9.52105L11.2054 13.0237L9.46487 11.4766C9.17592 11.2198 8.73347 11.2458 8.47663 11.5348C8.21978 11.8237 8.24581 12.2662 8.53476 12.523L10.7848 14.523C11.0683 14.775 11.501 14.7553 11.7605 14.4786L15.5105 10.4786Z" fill="#1BCE7B"/>
<path fill-rule="evenodd" clip-rule="evenodd" d="M11.3548 4.03687C9.91637 3.07503 7.95781 3.78788 7.47413 5.44933C7.34293 5.90002 6.95302 6.2272 6.48639 6.27815C4.76619 6.46597 3.72407 8.27099 4.42151 9.85463C4.6107 10.2842 4.52231 10.7855 4.1976 11.1244C3.00059 12.3741 3.36251 14.4266 4.91473 15.1915C5.33579 15.399 5.59029 15.8398 5.55943 16.3081C5.44569 18.0348 7.04233 19.3745 8.72302 18.9627C9.17893 18.851 9.65723 19.0251 9.93467 19.4037C10.9574 20.7995 13.0417 20.7995 14.0644 19.4037C14.3419 19.0251 14.8202 18.851 15.2761 18.9627C16.9568 19.3745 18.5534 18.0348 18.4397 16.3081C18.4088 15.8398 18.6633 15.399 19.0844 15.1915C20.6366 14.4266 20.9985 12.3741 19.8015 11.1244C19.4768 10.7855 19.3884 10.2842 19.5776 9.85463C20.275 8.27099 19.2329 6.46597 17.5127 6.27815C17.0461 6.2272 16.6562 5.90002 16.525 5.44933C16.0413 3.78788 14.0827 3.07503 12.6443 4.03687C12.254 4.29778 11.7451 4.29778 11.3548 4.03687ZM8.81833 5.84065C9.03748 5.08786 9.9249 4.76486 10.5767 5.20067C11.4379 5.77651 12.5612 5.77651 13.4224 5.20067C14.0742 4.76486 14.9616 5.08786 15.1808 5.84065C15.4703 6.83534 16.3309 7.55743 17.3608 7.66988C18.1402 7.75498 18.6124 8.57282 18.2963 9.29037C17.8788 10.2385 18.0739 11.3448 18.7905 12.0929C19.3329 12.6591 19.1689 13.5891 18.4656 13.9357C17.5363 14.3936 16.9746 15.3664 17.0427 16.4002C17.0942 17.1825 16.3708 17.7895 15.6093 17.6029C14.6031 17.3564 13.5475 17.7406 12.9351 18.5762C12.4717 19.2087 11.5274 19.2087 11.064 18.5762C10.4516 17.7406 9.39603 17.3564 8.38982 17.6029C7.6283 17.7895 6.90487 17.1825 6.95641 16.4002C7.0245 15.3664 6.46282 14.3936 5.53352 13.9357C4.83022 13.5891 4.66623 12.6591 5.2086 12.0929C5.92523 11.3448 6.12031 10.2385 5.70276 9.29037C5.38675 8.57282 5.85893 7.75498 6.63835 7.66988C7.66821 7.55743 8.52876 6.83534 8.81833 5.84065Z" fill="#1BCE7B"/>
</svg>
