<svg width="24" height="24" viewBox="0 0 24 24" fill="none" xmlns="http://www.w3.org/2000/svg">
<path fill-rule="evenodd" clip-rule="evenodd" d="M5.4538 8.54489C5.58523 6.24209 7.73345 4.44434 9.92823 4.44434H9.93583C11.5507 4.46186 13.0195 5.34719 13.7929 6.66049C15.1172 6.40388 16.4185 6.82274 17.3805 7.62712C17.6771 7.87511 17.7165 8.31658 17.4685 8.61315C17.2205 8.90973 16.779 8.94912 16.4824 8.70112C15.7032 8.04952 14.655 7.79109 13.655 8.14535C13.3014 8.27064 12.9119 8.09485 12.7718 7.7468C12.3356 6.66242 11.2014 5.85977 9.92445 5.84434C8.26978 5.8466 6.73557 7.33447 6.8543 8.95467C6.87701 9.26453 6.69275 9.55229 6.40181 9.66131C4.79905 10.2619 3.77212 11.7453 3.79088 13.3665L3.79097 13.3746C3.79097 15.5529 5.54781 17.3135 7.7087 17.3135L7.88261 17.3135L7.8835 17.313L7.89045 17.3129L7.89261 17.3129L7.90008 17.3129L8.8199 17.3132L8.82984 17.3133L8.83385 17.3134L8.8353 17.3134L9.01039 17.3135C9.39699 17.3136 9.71026 17.6272 9.71009 18.0138C9.70993 18.4004 9.3964 18.7136 9.0098 18.7135L8.76638 18.7134C8.64602 18.7134 8.33311 18.7135 7.7087 18.7135C4.76989 18.7135 2.3931 16.3222 2.39093 13.3787C2.36857 11.3076 3.58178 9.44221 5.4538 8.54489Z" fill="#1BCE7B"/>
<path fill-rule="evenodd" clip-rule="evenodd" d="M12.5191 9.93535C11.5803 9.93535 10.8191 10.6965 10.8191 11.6354V12.3248C10.8191 13.2637 11.5803 14.0248 12.5191 14.0248H18.1793C19.1182 14.0248 19.8793 13.2637 19.8793 12.3248V11.6354C19.8793 10.6965 19.1182 9.93535 18.1793 9.93535H12.5191ZM12.2191 11.6354C12.2191 11.4697 12.3535 11.3354 12.5191 11.3354H18.1793C18.345 11.3354 18.4793 11.4697 18.4793 11.6354V12.3248C18.4793 12.4905 18.345 12.6248 18.1793 12.6248H12.5191C12.3535 12.6248 12.2191 12.4905 12.2191 12.3248V11.6354Z" fill="#1BCE7B"/>
<path d="M12.7723 17.442C12.7723 17.0554 13.0857 16.742 13.4723 16.742H14.4685C14.8551 16.742 15.1685 17.0554 15.1685 17.442C15.1685 17.8286 14.8551 18.142 14.4685 18.142H13.4723C13.0857 18.142 12.7723 17.8286 12.7723 17.442Z" fill="#1BCE7B"/>
<path fill-rule="evenodd" clip-rule="evenodd" d="M10.8191 16.4674C10.8191 15.5285 11.5803 14.7674 12.5191 14.7674H18.1793C19.1182 14.7674 19.8793 15.5285 19.8793 16.4674V18.5006C19.8793 19.4395 19.1182 20.2006 18.1793 20.2006H12.5191C11.5803 20.2006 10.8191 19.4395 10.8191 18.5006V16.4674ZM12.5191 16.1674C12.3535 16.1674 12.2191 16.3017 12.2191 16.4674V18.5006C12.2191 18.6663 12.3535 18.8006 12.5191 18.8006H18.1793C18.345 18.8006 18.4793 18.6663 18.4793 18.5006V16.4674C18.4793 16.3017 18.345 16.1674 18.1793 16.1674H12.5191Z" fill="#1BCE7B"/>
</svg>
