<svg width="24" height="24" viewBox="0 0 24 24" fill="none" xmlns="http://www.w3.org/2000/svg">
<path fill-rule="evenodd" clip-rule="evenodd" d="M5.4538 8.54489C5.58523 6.24209 7.73345 4.44434 9.92823 4.44434H9.93583C11.5507 4.46186 13.0195 5.34719 13.7929 6.66049C15.1172 6.40388 16.4185 6.82274 17.3805 7.62712C17.6771 7.87511 17.7165 8.31658 17.4685 8.61315C17.2205 8.90973 16.779 8.94912 16.4824 8.70112C15.7032 8.04952 14.655 7.79109 13.655 8.14535C13.3014 8.27064 12.9119 8.09485 12.7718 7.7468C12.3356 6.66242 11.2014 5.85977 9.92445 5.84434C8.26978 5.8466 6.73557 7.33447 6.8543 8.95467C6.87701 9.26453 6.69275 9.55229 6.40181 9.66131C4.79905 10.2619 3.77212 11.7453 3.79088 13.3665L3.79097 13.3746C3.79097 15.5529 5.54781 17.3135 7.7087 17.3135L7.88261 17.3135L7.8835 17.313L7.89045 17.3129L7.89261 17.3129L7.90008 17.3129L8.8199 17.3132L8.82984 17.3133L8.83385 17.3134L8.8353 17.3134L9.01039 17.3135C9.39699 17.3136 9.71026 17.6272 9.71009 18.0138C9.70993 18.4004 9.3964 18.7136 9.0098 18.7135L8.76638 18.7134C8.64602 18.7134 8.33311 18.7135 7.7087 18.7135C4.76989 18.7135 2.3931 16.3222 2.39093 13.3787C2.36857 11.3076 3.58178 9.44221 5.4538 8.54489Z" fill="#1BCE7B"/>
<path fill-rule="evenodd" clip-rule="evenodd" d="M12.8528 10.8019C13.7129 10.4336 14.8523 10.2229 16.0742 10.2229C17.2961 10.2229 18.4355 10.4336 19.2956 10.8019C19.7244 10.9855 20.1162 11.2222 20.4109 11.5206C20.6114 11.7236 20.7819 11.9721 20.8719 12.2603C20.9175 12.3533 20.9432 12.4578 20.9432 12.5684V17.5559C20.9432 17.5957 20.9398 17.6348 20.9335 17.6727C20.8933 18.0928 20.6788 18.4453 20.4109 18.7166C20.1162 19.015 19.7244 19.2517 19.2956 19.4353C18.4355 19.8036 17.2961 20.0143 16.0742 20.0143C14.8523 20.0143 13.7129 19.8036 12.8528 19.4353C12.424 19.2517 12.0323 19.015 11.7376 18.7166C11.4808 18.4566 11.2731 18.122 11.2209 17.7248C11.2075 17.6707 11.2004 17.6142 11.2004 17.5559V12.5684C11.2004 12.4478 11.2309 12.3343 11.2846 12.2352C11.3765 11.9576 11.5429 11.7177 11.7376 11.5206C12.0323 11.2222 12.424 10.9855 12.8528 10.8019ZM12.7336 12.5044C12.6097 12.6299 12.6082 12.6975 12.6082 12.7069C12.6082 12.7163 12.6097 12.784 12.7336 12.9095C12.8605 13.0379 13.0789 13.1858 13.404 13.325C14.0517 13.6024 14.9953 13.791 16.0742 13.791C17.1532 13.791 18.0968 13.6024 18.7445 13.325C19.0696 13.1858 19.2879 13.0379 19.4148 12.9095C19.5388 12.784 19.5402 12.7163 19.5402 12.7069C19.5402 12.6975 19.5388 12.6299 19.4148 12.5044C19.2879 12.3759 19.0696 12.2281 18.7445 12.0889C18.0968 11.8115 17.1532 11.6229 16.0742 11.6229C14.9953 11.6229 14.0517 11.8115 13.404 12.0889C13.0789 12.2281 12.8605 12.3759 12.7336 12.5044ZM12.6004 17.4253C12.6055 17.4596 12.6082 17.4946 12.6082 17.5303C12.6082 17.5397 12.6097 17.6073 12.7336 17.7328C12.8605 17.8613 13.0789 18.0091 13.404 18.1483C14.0517 18.4257 14.9953 18.6143 16.0742 18.6143C17.1532 18.6143 18.0968 18.4257 18.7445 18.1483C19.0696 18.0091 19.2879 17.8613 19.4148 17.7328C19.5388 17.6073 19.5402 17.5397 19.5402 17.5303C19.5402 17.5086 19.5412 17.4871 19.5432 17.4659V16.9109C19.4624 16.9511 19.3797 16.9891 19.2956 17.0251C18.4355 17.3935 17.2961 17.6042 16.0742 17.6042C14.8523 17.6042 13.7129 17.3935 12.8528 17.0251C12.767 16.9884 12.6827 16.9495 12.6004 16.9085V17.4253ZM12.6004 15.0152C12.6055 15.0494 12.6082 15.0845 12.6082 15.1201C12.6082 15.1295 12.6097 15.1972 12.7336 15.3227C12.8605 15.4511 13.0789 15.5989 13.404 15.7382C14.0517 16.0155 14.9953 16.2042 16.0742 16.2042C17.1532 16.2042 18.0968 16.0155 18.7445 15.7382C19.0696 15.5989 19.2879 15.4511 19.4148 15.3227C19.5388 15.1972 19.5402 15.1295 19.5402 15.1201C19.5402 15.0984 19.5412 15.077 19.5432 15.0558V14.4977C19.4624 14.5379 19.3797 14.5759 19.2956 14.6119C18.4355 14.9803 17.2961 15.191 16.0742 15.191C14.8523 15.191 13.7129 14.9803 12.8528 14.6119C12.767 14.5752 12.6827 14.5363 12.6004 14.4953V15.0152Z" fill="#1BCE7B"/>
</svg>
