<svg width="24" height="24" viewBox="0 0 24 24" fill="none" xmlns="http://www.w3.org/2000/svg">
<path d="M13.3701 14.6045C13.6893 14.6696 13.9297 14.9516 13.9297 15.29C13.9297 15.6285 13.6893 15.9105 13.3701 15.9756L13.2295 15.9902H8.22949C7.84289 15.9902 7.5293 15.6766 7.5293 15.29C7.5293 14.9034 7.84289 14.5898 8.22949 14.5898H13.2295L13.3701 14.6045Z" fill="#15C674"/>
<path d="M9.56543 7.80176C9.67791 7.82452 9.7633 7.92292 9.76562 8.04199C9.79833 9.79663 10.4678 10.6316 11.042 10.9434V8.04688L11.0469 7.99609C11.0703 7.8824 11.1714 7.79698 11.292 7.79688H12.5303L12.5811 7.80176C12.695 7.82504 12.7803 7.92604 12.7803 8.04688V9.58496C12.9845 9.49808 13.1976 9.34431 13.3955 9.12988C13.6819 8.81949 13.9151 8.40837 14.0322 7.98047L14.0674 7.90625C14.1129 7.83943 14.1892 7.79702 14.2734 7.79688H15.4912L15.5459 7.80273C15.5988 7.81451 15.647 7.84361 15.6826 7.88574C15.7182 7.92788 15.7385 7.98011 15.7412 8.03418L15.7383 8.08887C15.5636 9.11944 14.9224 9.91713 14.3486 10.374C14.9543 10.7697 15.6958 11.5139 16.0156 12.6924C16.036 12.7675 16.02 12.8483 15.9727 12.9102C15.9254 12.9718 15.8521 13.0078 15.7744 13.0078H14.4355C14.3265 13.0078 14.2301 12.937 14.1973 12.833C13.9676 12.1062 13.4534 11.5504 12.7803 11.374V12.7578C12.7803 12.8959 12.6683 13.0078 12.5303 13.0078H12.3828C11.0459 13.0078 9.94881 12.5419 9.18164 11.6709C8.41849 10.8043 8.00455 9.5628 7.97363 8.05176C7.97232 7.98474 7.99806 7.91999 8.04492 7.87207C8.09193 7.82409 8.15646 7.79689 8.22363 7.79688H9.51562L9.56543 7.80176Z" fill="#15C674"/>
<path fill-rule="evenodd" clip-rule="evenodd" d="M16.167 4.84375C17.7132 4.84377 18.9666 6.09735 18.9668 7.64355V16.332C18.9668 17.8784 17.7134 19.1318 16.167 19.1318H7.83203C6.28581 19.1316 5.03223 17.8783 5.03223 16.332V7.64355C5.03244 6.09747 6.28594 4.84396 7.83203 4.84375H16.167ZM7.83203 6.24414C7.05914 6.24435 6.43283 6.87067 6.43262 7.64355V16.332C6.43262 17.1051 7.05901 17.7322 7.83203 17.7324H16.167C16.9402 17.7324 17.5674 17.1052 17.5674 16.332V7.64355C17.5672 6.87054 16.94 6.24416 16.167 6.24414H7.83203Z" fill="#15C674"/>
</svg>
