<svg width="24" height="24" viewBox="0 0 24 24" fill="none" xmlns="http://www.w3.org/2000/svg">
<path fill-rule="evenodd" clip-rule="evenodd" d="M15.7639 15.225C16.6199 15.225 17.3139 14.531 17.3139 13.675C17.3139 12.819 16.6199 12.125 15.7639 12.125C14.9078 12.125 14.2139 12.819 14.2139 13.675C14.2139 14.531 14.9078 15.225 15.7639 15.225Z" fill="#333333"/>
<path fill-rule="evenodd" clip-rule="evenodd" d="M17.3758 7.41513V5.4045C17.3758 4.23592 16.224 3.41577 15.1197 3.79802L6.11661 6.91449C5.02916 7.29091 4.2998 8.3152 4.2998 9.46595V16.5688C4.2998 18.4465 5.82204 19.9688 7.6998 19.9688H16.6703C18.5481 19.9688 20.0703 18.4465 20.0703 16.5688V10.7418C20.0703 9.10597 18.915 7.73994 17.3758 7.41513ZM15.9758 5.4045C15.9758 5.19828 15.7726 5.05355 15.5777 5.121L9.16198 7.34183H15.9758V5.4045ZM5.92015 8.74183C5.77972 8.95118 5.6998 9.20164 5.6998 9.46595V16.5688C5.6998 17.6733 6.59524 18.5688 7.6998 18.5688H16.6703C17.7749 18.5688 18.6703 17.6733 18.6703 16.5688V10.7418C18.6703 9.63726 17.7749 8.74183 16.6703 8.74183H5.92015Z" fill="#333333"/>
</svg>
