<svg width="24" height="24" viewBox="0 0 24 24" fill="none" xmlns="http://www.w3.org/2000/svg">
<path d="M4.6874 5.70605C4.3008 5.70605 3.9874 6.01946 3.9874 6.40605C3.9874 6.79265 4.3008 7.10605 4.6874 7.10605H9.33975C9.72634 7.10605 10.0397 6.79265 10.0397 6.40605C10.0397 6.01946 9.72634 5.70605 9.33975 5.70605H4.6874Z" fill="#1BCE7B"/>
<path fill-rule="evenodd" clip-rule="evenodd" d="M14.263 15.9111L13.7434 14.485H10.2469L9.72599 15.9115C9.5934 16.2747 9.19152 16.4616 8.82837 16.329C8.46522 16.1964 8.27832 15.7945 8.41091 15.4313L10.8699 8.69663C11.2539 7.64502 12.7414 7.64552 13.1246 8.69738L15.5784 15.4318C15.7108 15.795 15.5236 16.1968 15.1604 16.3291C14.7971 16.4615 14.3954 16.2743 14.263 15.9111ZM11.997 9.69186L13.2333 13.085H10.758L11.997 9.69186Z" fill="#1BCE7B"/>
<path d="M3.9874 15.4061C3.9874 15.0195 4.3008 14.7061 4.6874 14.7061H5.56826C5.95486 14.7061 6.26826 15.0195 6.26826 15.4061C6.26826 15.7927 5.95486 16.1061 5.56826 16.1061H4.6874C4.3008 16.1061 3.9874 15.7927 3.9874 15.4061Z" fill="#1BCE7B"/>
<path d="M14.703 5.70605C14.3164 5.70605 14.003 6.01946 14.003 6.40605C14.003 6.79265 14.3164 7.10605 14.703 7.10605H19.3554C19.742 7.10605 20.0554 6.79265 20.0554 6.40605C20.0554 6.01946 19.742 5.70605 19.3554 5.70605H14.703Z" fill="#1BCE7B"/>
<path d="M20.0558 18.4064C20.0558 18.793 19.7424 19.1064 19.3558 19.1064L4.68633 19.1064C4.29973 19.1064 3.98633 18.793 3.98633 18.4064C3.98633 18.0198 4.29973 17.7064 4.68633 17.7064L19.3558 17.7064C19.7424 17.7064 20.0558 18.0198 20.0558 18.4064Z" fill="#1BCE7B"/>
<path d="M4.6874 8.70605C4.3008 8.70605 3.9874 9.01946 3.9874 9.40605C3.9874 9.79265 4.3008 10.1061 4.6874 10.1061H7.9623C8.3489 10.1061 8.6623 9.79265 8.6623 9.40605C8.6623 9.01946 8.3489 8.70605 7.9623 8.70605H4.6874Z" fill="#1BCE7B"/>
<path d="M15.38 9.40605C15.38 9.01946 15.6934 8.70605 16.08 8.70605H19.3549C19.7415 8.70605 20.0549 9.01946 20.0549 9.40605C20.0549 9.79265 19.7415 10.1061 19.3549 10.1061H16.08C15.6934 10.1061 15.38 9.79265 15.38 9.40605Z" fill="#1BCE7B"/>
<path d="M4.6874 11.7061C4.3008 11.7061 3.9874 12.0195 3.9874 12.4061C3.9874 12.7927 4.3008 13.1061 4.6874 13.1061H6.80312C7.18972 13.1061 7.50312 12.7927 7.50312 12.4061C7.50312 12.0195 7.18972 11.7061 6.80312 11.7061H4.6874Z" fill="#1BCE7B"/>
<path d="M16.5392 12.4061C16.5392 12.0195 16.8526 11.7061 17.2392 11.7061H19.3549C19.7415 11.7061 20.0549 12.0195 20.0549 12.4061C20.0549 12.7927 19.7415 13.1061 19.3549 13.1061H17.2392C16.8526 13.1061 16.5392 12.7927 16.5392 12.4061Z" fill="#1BCE7B"/>
<path d="M18.4745 14.7061C18.0879 14.7061 17.7745 15.0195 17.7745 15.4061C17.7745 15.7927 18.0879 16.1061 18.4745 16.1061H19.3554C19.742 16.1061 20.0554 15.7927 20.0554 15.4061C20.0554 15.0195 19.742 14.7061 19.3554 14.7061H18.4745Z" fill="#1BCE7B"/>
</svg>
