<svg width="24" height="24" viewBox="0 0 24 24" fill="none" xmlns="http://www.w3.org/2000/svg">
<path fill-rule="evenodd" clip-rule="evenodd" d="M11.9648 5.26914C8.25746 5.26914 5.24717 8.27822 5.24717 11.9966C5.24717 13.1522 5.54261 14.2435 6.06125 15.1914L6.0625 15.1937C6.19481 15.4376 6.20132 15.703 6.19424 15.8708C6.18622 16.061 6.15226 16.2636 6.11043 16.4567C6.02669 16.8431 5.8891 17.2886 5.76257 17.6908C5.74884 17.7344 5.73525 17.7775 5.72184 17.8201C5.64832 18.0533 5.5803 18.269 5.52435 18.4615C5.72391 18.3988 5.95017 18.3198 6.19911 18.2329L6.24881 18.2155C6.63666 18.0802 7.07533 17.9284 7.46339 17.837C7.6581 17.7912 7.86648 17.754 8.06704 17.747C8.25442 17.7404 8.51665 17.7563 8.76109 17.8908C9.70829 18.4089 10.7993 18.7043 11.9648 18.7043C15.6727 18.7043 18.6824 15.6947 18.6824 11.9867C18.6824 8.27883 15.6727 5.26914 11.9648 5.26914ZM4.9533 18.5935C4.95358 18.5932 4.95845 18.5931 4.96705 18.594C4.95731 18.5942 4.95301 18.5937 4.9533 18.5935ZM3.84717 11.9966C3.84717 7.50623 7.48305 3.86914 11.9648 3.86914C16.4459 3.86914 20.0824 7.50563 20.0824 11.9867C20.0824 16.4679 16.4459 20.1043 11.9648 20.1043C10.5797 20.1043 9.27593 19.7576 8.13846 19.1458C8.13222 19.1457 8.12479 19.1458 8.11609 19.1461C8.0444 19.1486 7.93544 19.1642 7.78415 19.1998C7.48021 19.2713 7.11222 19.397 6.7101 19.5374C6.68449 19.5463 6.65869 19.5553 6.63273 19.5644C6.27251 19.6903 5.88211 19.8267 5.55411 19.9083C5.37947 19.9517 5.18192 19.9904 4.99253 19.9938C4.83472 19.9966 4.49944 19.9806 4.24011 19.7213C4.08309 19.5643 4.02926 19.3814 4.00835 19.2714C3.98629 19.1554 3.98674 19.0457 3.99193 18.9606C4.00233 18.7903 4.03996 18.605 4.08151 18.4349C4.15622 18.1292 4.27341 17.7578 4.38554 17.4025C4.3995 17.3582 4.41338 17.3142 4.4271 17.2707C4.55647 16.8594 4.67417 16.4741 4.74218 16.1602C4.77623 16.0031 4.79226 15.8881 4.79549 15.8118C4.79575 15.8056 4.79591 15.7999 4.796 15.7948C4.19044 14.6621 3.84717 13.3651 3.84717 11.9966ZM8.16471 19.1472C8.16467 19.1472 8.16366 19.1471 8.16174 19.1468L8.16471 19.1472Z" fill="#333333"/>
<path fill-rule="evenodd" clip-rule="evenodd" d="M8.63347 7.26818C9.11242 6.85007 9.75092 6.95566 10.1348 7.25886L10.1359 7.25971C10.8516 7.82722 11.281 8.50736 11.4757 8.81564C11.5179 8.88244 11.5491 8.93178 11.5697 8.95873L11.5787 8.97067C11.8197 9.29949 11.913 9.79731 11.6328 10.229C11.4799 10.474 11.2177 10.8069 10.8142 11.1245C10.8155 11.1308 10.817 11.1373 10.8187 11.1442C10.8431 11.2447 10.893 11.374 10.9705 11.5227C11.1269 11.8228 11.3539 12.1231 11.5473 12.3166L11.602 12.3713C11.7984 12.5634 12.0999 12.7908 12.3998 12.9482C12.5492 13.0266 12.6786 13.0772 12.7791 13.1021C12.7851 13.1036 12.7909 13.1049 12.7964 13.1061C13.1143 12.7022 13.4475 12.44 13.6923 12.2874C13.8769 12.169 14.066 12.1469 14.1763 12.143C14.2986 12.1386 14.4091 12.1544 14.4876 12.1695C14.5696 12.1853 14.6406 12.2053 14.6899 12.2206C14.7152 12.2284 14.7364 12.2356 14.7524 12.2412L14.7728 12.2485L14.7801 12.2512L14.7829 12.2523L14.7841 12.2527C14.7843 12.2528 14.7852 12.2532 14.5352 12.907C14.8491 12.2813 14.8492 12.2813 14.8493 12.2814L14.8516 12.2826L14.8556 12.2846L14.8679 12.2909C14.8779 12.2961 14.8915 12.3032 14.9085 12.3122C14.9423 12.3303 14.9895 12.3561 15.0472 12.3891C15.1624 12.455 15.3212 12.5507 15.5012 12.673C15.8544 12.913 16.3203 13.2759 16.6918 13.739L16.6953 13.7434C17.0065 14.1377 17.0944 14.7594 16.6909 15.2388L16.6889 15.2411C16.2294 15.7822 15.2606 16.5514 13.9156 16.7163C12.5607 16.8825 10.9632 16.4193 9.28039 14.7861C9.27002 14.7769 9.25986 14.7673 9.24992 14.7573L9.165 14.6724C9.16468 14.6721 9.16436 14.6718 9.16405 14.6714C9.15424 14.6616 9.14479 14.6516 9.13569 14.6414C7.5059 12.9619 7.028 11.3756 7.17978 10.0286C7.33017 8.694 8.08431 7.73237 8.63347 7.26818ZM10.197 13.7243C11.668 15.1774 12.884 15.4324 13.7452 15.3268C14.5351 15.2299 15.145 14.8157 15.485 14.4813C15.2525 14.2268 14.9681 14.0033 14.7145 13.8311C14.5695 13.7325 14.4419 13.6557 14.352 13.6043C14.3307 13.5921 14.3116 13.5814 14.295 13.5722C14.1657 13.6724 14.002 13.8255 13.8424 14.0432C13.7537 14.1665 13.5797 14.3644 13.2966 14.4588C13.287 14.462 13.2773 14.465 13.2676 14.4678C12.9719 14.5523 12.6779 14.5192 12.443 14.4611C12.2009 14.4013 11.9636 14.3003 11.7492 14.1878C11.3226 13.964 10.9097 13.6532 10.6194 13.3685L10.6144 13.3637L10.5572 13.3064C10.264 13.0131 9.95188 12.5974 9.72896 12.1697C9.61681 11.9544 9.51702 11.7168 9.45821 11.4745C9.40221 11.2438 9.37088 10.9578 9.44892 10.6696C9.5331 10.3334 9.78424 10.1473 9.85967 10.0914C9.86308 10.0889 9.86613 10.0867 9.86879 10.0847L9.87541 10.0797C10.0859 9.92564 10.2362 9.7677 10.3369 9.64036C10.2925 9.57476 10.2495 9.50777 10.2056 9.43938C10.015 9.14231 9.80731 8.81865 9.39838 8.46606C9.06554 8.80124 8.6592 9.40242 8.57098 10.1854C8.47487 11.0383 8.74085 12.2493 10.197 13.7243ZM9.55542 8.32174C9.55342 8.32351 9.55142 8.32525 9.5494 8.32694L9.55542 8.32174ZM14.5352 12.907L14.8493 12.2814C14.8285 12.271 14.807 12.2615 14.7852 12.2532L14.5352 12.907Z" fill="#333333"/>
</svg>
