<svg width="24" height="24" viewBox="0 0 24 24" fill="none" xmlns="http://www.w3.org/2000/svg">
<path d="M4.76326 10.6839C8.70152 6.74679 15.2987 6.74678 19.237 10.6839C19.5104 10.9572 19.9536 10.9571 20.2269 10.6837C20.5002 10.4103 20.5002 9.96709 20.2268 9.69376C15.7418 5.21014 8.25842 5.21016 3.77346 9.69376C3.50005 9.96709 3.49998 10.4103 3.77331 10.6837C4.04664 10.9571 4.48985 10.9572 4.76326 10.6839Z" fill="#333333"/>
<path fill-rule="evenodd" clip-rule="evenodd" d="M12.0308 16.1631C11.277 16.1631 10.666 16.7741 10.666 17.5278C10.666 18.2816 11.277 18.8926 12.0308 18.8926C12.7845 18.8926 13.3955 18.2816 13.3955 17.5278C13.3955 16.7741 12.7845 16.1631 12.0308 16.1631Z" fill="#333333"/>
<path d="M14.5535 15.31C13.1673 13.9221 10.834 13.9222 9.4477 15.3101C9.17449 15.5836 8.73128 15.5838 8.45775 15.3106C8.18423 15.0374 8.18397 14.5942 8.45718 14.3207C10.3903 12.3854 13.611 12.3852 15.5441 14.3207C15.8173 14.5942 15.817 15.0375 15.5435 15.3107C15.2699 15.5838 14.8267 15.5836 14.5535 15.31Z" fill="#333333"/>
<path d="M7.0822 13.0022C9.75734 10.3269 14.2438 10.3268 16.9188 13.0022C17.1922 13.2756 17.6354 13.2756 17.9088 13.0023C18.1822 12.7289 18.1822 12.2857 17.9088 12.0123C14.687 8.79008 9.31406 8.79026 6.09222 12.0123C5.81886 12.2857 5.81887 12.7289 6.09225 13.0022C6.36562 13.2756 6.80884 13.2756 7.0822 13.0022Z" fill="#333333"/>
</svg>
