<svg width="24" height="24" viewBox="0 0 24 24" fill="none" xmlns="http://www.w3.org/2000/svg">
<path d="M3.07764 7.01641C3.07764 6.62981 3.39104 6.31641 3.77764 6.31641H6.1202C6.5068 6.31641 6.8202 6.62981 6.8202 7.01641C6.8202 7.40301 6.5068 7.71641 6.1202 7.71641H5.71844L9.25385 17.2798L11.1691 12.1104L9.54469 7.71641H9.34795C8.96135 7.71641 8.64795 7.40301 8.64795 7.01641C8.64795 6.62981 8.96135 6.31641 9.34795 6.31641H10.9322C11.3188 6.31641 11.6322 6.62981 11.6322 7.01641C11.6322 7.36824 11.3726 7.65944 11.0345 7.70898L11.9162 10.0938L12.8007 7.70641C12.4705 7.65009 12.2192 7.3626 12.2192 7.01641C12.2192 6.62981 12.5326 6.31641 12.9192 6.31641H14.5035C14.8901 6.31641 15.2035 6.62981 15.2035 7.01641C15.2035 7.40301 14.8901 7.71641 14.5035 7.71641H14.29L12.6619 12.1109L14.5727 17.2798L18.1158 7.71641H17.8792C17.4926 7.71641 17.1792 7.40301 17.1792 7.01641C17.1792 6.62981 17.4926 6.31641 17.8792 6.31641H20.2218C20.6084 6.31641 20.9218 6.62981 20.9218 7.01641C20.9218 7.40301 20.6084 7.71641 20.2218 7.71641H19.6088L15.6977 18.273C15.3108 19.3175 13.8332 19.317 13.4469 18.2722L11.9147 14.1275L10.3789 18.273C9.99191 19.3175 8.51434 19.317 8.12809 18.2722L4.22584 7.71641H3.77764C3.39104 7.71641 3.07764 7.40301 3.07764 7.01641Z" fill="#1BCE7B"/>
</svg>
