<svg width="24" height="24" viewBox="0 0 24 24" fill="none" xmlns="http://www.w3.org/2000/svg">
<path fill-rule="evenodd" clip-rule="evenodd" d="M16.5 5.9H7.5C6.61634 5.9 5.9 6.61634 5.9 7.5V16.5C5.9 17.3837 6.61634 18.1 7.5 18.1H16.5C17.3837 18.1 18.1 17.3837 18.1 16.5V7.5C18.1 6.61634 17.3837 5.9 16.5 5.9ZM7.5 4.5C5.84315 4.5 4.5 5.84315 4.5 7.5V16.5C4.5 18.1569 5.84315 19.5 7.5 19.5H16.5C18.1569 19.5 19.5 18.1569 19.5 16.5V7.5C19.5 5.84315 18.1569 4.5 16.5 4.5H7.5Z" fill="#333333"/>
<path fill-rule="evenodd" clip-rule="evenodd" d="M9.5 7.8C9.8866 7.8 10.2 8.1134 10.2 8.5L10.2 15.5C10.2 15.8866 9.8866 16.2 9.5 16.2C9.1134 16.2 8.8 15.8866 8.8 15.5L8.8 8.5C8.8 8.1134 9.1134 7.8 9.5 7.8Z" fill="#333333"/>
<path fill-rule="evenodd" clip-rule="evenodd" d="M9.83548 8.00428C10.1936 7.90444 10.6974 7.8 11.25 7.8C11.8728 7.8 12.3839 8.03406 12.755 8.20402C12.7672 8.20959 12.7792 8.21509 12.791 8.22051C13.1985 8.40679 13.4558 8.51429 13.75 8.51429C14.1654 8.51429 14.381 8.42796 14.4626 8.38597C14.7618 8.23207 15.0617 8.3009 15.24 8.3917C15.4142 8.48046 15.7 8.71428 15.7 9.12329V13.1429C15.7 13.3124 15.6385 13.4762 15.5268 13.6038L15 13.1429C15.5268 13.6038 15.5261 13.6046 15.5261 13.6046L15.5254 13.6054L15.5241 13.6069L15.5212 13.6102L15.5149 13.6171L15.5006 13.6323C15.4902 13.6431 15.4782 13.655 15.4645 13.6679C15.437 13.6938 15.4026 13.7236 15.3608 13.7555C15.2767 13.8195 15.1638 13.8912 15.0176 13.9581C14.7229 14.0928 14.3099 14.2 13.75 14.2C13.1272 14.2 12.6161 13.9659 12.245 13.796C12.2328 13.7904 12.2208 13.7849 12.209 13.7795C11.8015 13.5932 11.5442 13.4857 11.25 13.4857C10.8651 13.4857 10.4939 13.5598 10.2114 13.6386C10.0722 13.6774 9.95955 13.7159 9.88374 13.7438C9.84594 13.7578 9.81763 13.769 9.80012 13.7761L9.78221 13.7835C9.78221 13.7835 9.78168 13.7837 9.5 13.1429M9.5 13.1429C9.21832 12.502 9.21859 12.5019 9.21859 12.5019L9.21954 12.5015L9.22106 12.5008L9.22501 12.4991L9.23649 12.4942C9.24572 12.4903 9.25807 12.4852 9.27337 12.4789C9.30395 12.4665 9.34644 12.4498 9.39947 12.4303C9.50529 12.3913 9.65436 12.3405 9.83548 12.29C10.1936 12.1902 10.6974 12.0857 11.25 12.0857C11.8728 12.0857 12.3839 12.3198 12.755 12.4897C12.7672 12.4953 12.7792 12.5008 12.791 12.5062C13.1985 12.6925 13.4558 12.8 13.75 12.8C14.0024 12.8 14.1808 12.7681 14.3 12.7339V9.87616C14.135 9.90031 13.9521 9.91429 13.75 9.91429C13.1272 9.91429 12.6161 9.68023 12.245 9.51027C12.2328 9.5047 12.2208 9.4992 12.209 9.49377C11.8015 9.30749 11.5442 9.2 11.25 9.2C10.8651 9.2 10.4939 9.27413 10.2114 9.35287C10.0722 9.39166 9.95955 9.43018 9.88374 9.45813C9.84594 9.47206 9.81763 9.48325 9.80012 9.49036L9.78221 9.49776L9.77971 9.49883L9.78076 9.49837L9.78221 9.49776C9.42835 9.65314 9.01471 9.49266 8.85918 9.13882C8.70361 8.78491 8.8644 8.37189 9.21832 8.21632L9.49998 8.85709C9.21832 8.21632 9.21832 8.21632 9.21832 8.21632L9.21954 8.21578L9.22106 8.21512L9.22501 8.21341L9.23649 8.2085C9.24572 8.2046 9.25807 8.19945 9.27337 8.19323C9.30395 8.18082 9.34644 8.1641 9.39947 8.14455C9.50529 8.10554 9.65436 8.05476 9.83548 8.00428" fill="#333333"/>
</svg>
