<svg width="24" height="24" viewBox="0 0 24 24" fill="none" xmlns="http://www.w3.org/2000/svg">
<path d="M10.161 15.0268C10.3339 14.681 10.7543 14.5408 11.1001 14.7137C11.3662 14.8467 11.6772 14.9202 11.9994 14.9202C12.3216 14.9202 12.6326 14.8467 12.8986 14.7137C13.2444 14.5408 13.6649 14.681 13.8378 15.0268C14.0107 15.3725 13.8705 15.793 13.5247 15.9659C13.0566 16.2 12.5302 16.3202 11.9994 16.3202C11.4686 16.3202 10.9422 16.2 10.474 15.9659C10.1282 15.793 9.98808 15.3725 10.161 15.0268Z" fill="#333333"/>
<path fill-rule="evenodd" clip-rule="evenodd" d="M11.9983 7.64844C11.7714 7.64846 11.5611 7.68275 11.4813 7.6971C11.458 7.70129 11.4353 7.70556 11.415 7.70942C9.89894 7.99712 9.1539 9.38348 9.1539 10.3917C9.1539 10.807 9.15597 11.1625 9.15803 11.4609L9.15921 11.628C9.16042 11.7973 9.16147 11.944 9.16191 12.0706C9.14651 12.0885 9.12563 12.1109 9.09822 12.1376C8.98708 12.2457 8.84071 12.3544 8.72963 12.4304C8.46562 12.6109 8.28467 12.9172 8.28467 13.2674C8.28467 13.8188 8.73172 14.2659 9.28318 14.2659H14.7166C15.268 14.2659 15.7151 13.8188 15.7151 13.2673C15.7151 12.9173 15.5343 12.6111 15.2705 12.4305C15.1596 12.3546 15.0134 12.2459 14.9024 12.1378C14.875 12.1111 14.8541 12.0887 14.8387 12.0708C14.8392 11.9444 14.8401 11.798 14.8413 11.6293L14.8424 11.4606C14.8444 11.1623 14.8463 10.8069 14.8463 10.3917C14.8463 9.38172 14.0986 7.99238 12.5777 7.70775C12.559 7.70424 12.5379 7.70032 12.5162 7.69647C12.4383 7.68264 12.2266 7.64841 11.9983 7.64844ZM14.8068 12.0296C14.8051 12.0262 14.804 12.0245 14.8039 12.0244C14.8038 12.0244 14.8041 12.0251 14.8049 12.0264C14.8054 12.0272 14.806 12.0283 14.8068 12.0296ZM11.7289 9.07503C11.7792 9.06599 11.8946 9.04845 11.9985 9.04844C12.1049 9.04843 12.2225 9.06622 12.2716 9.07493L12.3202 9.08385C13.0572 9.22178 13.4463 9.92389 13.4463 10.3917C13.4463 10.8025 13.4444 11.1544 13.4424 11.4515L13.4413 11.6158C13.4398 11.839 13.4385 12.0296 13.4385 12.1852C13.4385 12.4484 13.5474 12.6596 13.6303 12.7884C13.6474 12.815 13.6652 12.8408 13.6836 12.8659H10.317C10.3352 12.8409 10.353 12.8152 10.37 12.7887C10.4531 12.6599 10.5621 12.4486 10.5621 12.1852C10.5621 12.0294 10.5608 11.8389 10.5592 11.6154L10.558 11.4512C10.5559 11.1541 10.5539 10.8023 10.5539 10.3917C10.5539 9.92488 10.9416 9.22423 11.676 9.08487C11.6953 9.0812 11.7125 9.07797 11.7289 9.07503Z" fill="#333333"/>
<path fill-rule="evenodd" clip-rule="evenodd" d="M7.5 4.5C5.84315 4.5 4.5 5.84315 4.5 7.5V16.5C4.5 18.1569 5.84315 19.5 7.5 19.5H16.5C18.1569 19.5 19.5 18.1569 19.5 16.5V7.5C19.5 5.84315 18.1569 4.5 16.5 4.5H7.5ZM16.5 5.9H7.5C6.61634 5.9 5.9 6.61634 5.9 7.5V16.5C5.9 17.3837 6.61634 18.1 7.5 18.1H16.5C17.3837 18.1 18.1 17.3837 18.1 16.5V7.5C18.1 6.61634 17.3837 5.9 16.5 5.9Z" fill="#333333"/>
</svg>
