<svg width="24" height="24" viewBox="0 0 24 24" fill="none" xmlns="http://www.w3.org/2000/svg">
<path opacity="0.4" d="M12.0005 4.7793C8.28031 4.7793 5.26465 7.74856 5.26465 11.4116C5.26465 13.2424 6.01806 14.9001 7.23658 16.1003C8.45544 17.301 11.327 19.0387 11.4954 20.8626C11.5206 21.136 11.7217 21.36 12.0005 21.36C12.2794 21.36 12.4805 21.136 12.5057 20.8626C12.6741 19.0387 15.5457 17.301 16.7645 16.1003C17.983 14.9001 18.7365 13.2424 18.7365 11.4116C18.7365 7.74856 15.7208 4.7793 12.0005 4.7793Z" stroke="#909090" stroke-width="1.4"/>
<path opacity="0.4" d="M12.0005 4.7793C8.28031 4.7793 5.26465 7.74856 5.26465 11.4116C5.26465 13.4784 5.93606 14.7745 7.23658 16.1003C8.43475 17.3217 11.3087 19.1375 11.4954 20.8626C11.5206 21.136 11.6586 21.36 12.0005 21.36C12.1964 21.36 12.4681 21.1346 12.5057 20.8626C12.7833 18.8584 15.5664 17.3217 16.7645 16.1003C18.041 14.7989 18.7365 13.4295 18.7365 11.4116C18.7365 7.74856 15.6934 4.7793 12.0005 4.7793Z" stroke="#909090" stroke-width="1.4"/>
<path d="M12.0004 13.8387C13.5165 13.8387 14.7455 12.6097 14.7455 11.0937C14.7455 9.57763 13.5165 8.34863 12.0004 8.34863C10.4844 8.34863 9.25537 9.57763 9.25537 11.0937C9.25537 12.6097 10.4844 13.8387 12.0004 13.8387Z" stroke="#909090" stroke-width="1.4"/>
<path fill-rule="evenodd" clip-rule="evenodd" d="M12.0002 7.64844C10.0976 7.64844 8.55518 9.19083 8.55518 11.0935C8.55518 12.9961 10.0976 14.5385 12.0002 14.5385C13.9029 14.5385 15.4453 12.9961 15.4453 11.0935C15.4453 9.19085 13.9029 7.64844 12.0002 7.64844ZM9.95518 11.0935C9.95518 9.96404 10.8708 9.04844 12.0002 9.04844C13.1297 9.04844 14.0453 9.96403 14.0453 11.0935C14.0453 12.2229 13.1297 13.1385 12.0002 13.1385C10.8708 13.1385 9.95518 12.2229 9.95518 11.0935Z" fill="#333333"/>
<path fill-rule="evenodd" clip-rule="evenodd" d="M12.0004 4.0791C7.90379 4.0791 4.56445 7.35158 4.56445 11.4114C4.56445 12.5244 4.74602 13.4643 5.1224 14.3164C5.49733 15.1653 6.0489 15.8891 6.73668 16.5903C7.06466 16.9246 7.49654 17.2894 7.93178 17.6537L8.04928 17.7519C8.45838 18.094 8.8777 18.4446 9.27051 18.8069C9.70193 19.2048 10.0782 19.5959 10.3535 19.9742C10.6313 20.3559 10.7697 20.6747 10.7988 20.9337C10.8203 21.1565 10.894 21.4412 11.1065 21.6795C11.3401 21.9415 11.6626 22.0598 12.0004 22.0598C12.3371 22.0598 12.6163 21.8864 12.7891 21.7256C12.9749 21.5527 13.1531 21.2895 13.1989 20.9584C13.3002 20.2269 13.8845 19.4893 14.7564 18.7094C15.1316 18.3738 15.5291 18.0562 15.9222 17.7422L16.0699 17.6241C16.4983 17.2812 16.9302 16.9306 17.264 16.5902C18.6493 15.178 19.4363 13.6388 19.4363 11.4114C19.4363 7.34974 16.0677 4.0791 12.0004 4.0791ZM5.96445 11.4114C5.96445 8.14516 8.65644 5.4791 12.0004 5.4791C15.3187 5.4791 18.0363 8.147 18.0363 11.4114C18.0363 13.2198 17.4323 14.4195 16.2646 15.6099C15.9994 15.8802 15.6341 16.1797 15.195 16.5311L15.0486 16.6481C14.6588 16.9595 14.2294 17.3025 13.823 17.666C13.1085 18.3051 12.3568 19.0982 11.9981 20.0461C11.8677 19.7263 11.6862 19.4262 11.4854 19.1503C11.132 18.6647 10.6798 18.2022 10.2196 17.7778C9.80032 17.391 9.35496 17.0187 8.94993 16.6801L8.83031 16.5801C8.38387 16.2064 8.0072 15.8862 7.7361 15.6099C7.12335 14.9852 6.68895 14.3981 6.40305 13.7508C6.11859 13.1068 5.96445 12.3652 5.96445 11.4114Z" fill="#333333"/>
</svg>
