<svg width="24" height="24" viewBox="0 0 24 24" fill="none" xmlns="http://www.w3.org/2000/svg">
<path d="M8.3001 10.0996C7.9135 10.0996 7.6001 10.413 7.6001 10.7996C7.6001 11.1862 7.9135 11.4996 8.3001 11.4996H10.1001L10.1001 13.2996C10.1001 13.6862 10.4135 13.9996 10.8001 13.9996C11.1867 13.9996 11.5001 13.6862 11.5001 13.2996L11.5001 11.4996H13.3001C13.6867 11.4996 14.0001 11.1862 14.0001 10.7996C14.0001 10.413 13.6867 10.0996 13.3001 10.0996H11.5001L11.5001 8.29961C11.5001 7.91301 11.1867 7.59961 10.8001 7.59961C10.4135 7.59961 10.1001 7.91301 10.1001 8.29961L10.1001 10.0996H8.3001Z" fill="#333333"/>
<path fill-rule="evenodd" clip-rule="evenodd" d="M10.7999 3.89941C6.98914 3.89941 3.8999 6.98865 3.8999 10.7994C3.8999 14.6102 6.98914 17.6994 10.7999 17.6994C12.4532 17.6994 13.9706 17.118 15.1589 16.1484L19.0052 19.9947C19.2786 20.2681 19.7218 20.2681 19.9952 19.9947C20.2685 19.7213 20.2685 19.2781 19.9952 19.0047L16.1489 15.1585C17.1185 13.9701 17.6999 12.4527 17.6999 10.7994C17.6999 6.98865 14.6107 3.89941 10.7999 3.89941ZM5.2999 10.7994C5.2999 7.76185 7.76234 5.29941 10.7999 5.29941C13.8375 5.29941 16.2999 7.76185 16.2999 10.7994C16.2999 13.837 13.8375 16.2994 10.7999 16.2994C7.76234 16.2994 5.2999 13.837 5.2999 10.7994Z" fill="#333333"/>
</svg>
