<svg width="24" height="24" viewBox="0 0 24 24" fill="none" xmlns="http://www.w3.org/2000/svg">
<path d="M8.3001 10.0996C7.9135 10.0996 7.6001 10.413 7.6001 10.7996C7.6001 11.1862 7.9135 11.4996 8.3001 11.4996H13.3001C13.6867 11.4996 14.0001 11.1862 14.0001 10.7996C14.0001 10.413 13.6867 10.0996 13.3001 10.0996H8.3001Z" fill="#333333"/>
<path fill-rule="evenodd" clip-rule="evenodd" d="M3.8999 10.7994C3.8999 6.98865 6.98914 3.89941 10.7999 3.89941C14.6107 3.89941 17.6999 6.98865 17.6999 10.7994C17.6999 12.4528 17.1184 13.9704 16.1487 15.1587L19.9948 19.0048C20.2681 19.2782 20.2681 19.7214 19.9948 19.9948C19.7214 20.2681 19.2782 20.2681 19.0048 19.9948L15.1587 16.1486C13.9704 17.1181 12.453 17.6994 10.7999 17.6994C6.98914 17.6994 3.8999 14.6102 3.8999 10.7994ZM10.7999 5.29941C7.76234 5.29941 5.2999 7.76185 5.2999 10.7994C5.2999 13.837 7.76234 16.2994 10.7999 16.2994C13.8375 16.2994 16.2999 13.837 16.2999 10.7994C16.2999 7.76185 13.8375 5.29941 10.7999 5.29941Z" fill="#333333"/>
</svg>
