<svg width="24" height="24" viewBox="0 0 24 24" fill="none" xmlns="http://www.w3.org/2000/svg">
	<path
		fill="#525C69"
		fill-rule="evenodd"
		d="M16.8,11c0,.2-.2,1.3.9,1.3s.8-.7.9-1.3c0,0,.2-1.3,1.5-1.6.3,0,1.3.2,1.3-.9s-1.3-.9-1.3-.9c-.5,0-1.4-.2-1.5-1.5,0,0,.1-1.2-.9-1.4,0,0-1.1,0-1,1.4,0,0-.2,1.3-1.5,1.5,0,0-1.1,0-1.2,1,0,0,0,1,1.3.9,0,0,1.3,0,1.5,1.5h0Z"
	/>
	<g>
		<path
			fill="none"
			fill-rule="evenodd"
			clip-rule="evenodd"
			stroke="#525C69"
			stroke-width="2px"
			d="M12.8,15.6c-2.8-1.9-4-5.3-2.9-8.4.6-1.6,1.6-2.9,2.9-3.8.2-.2,0-.2,0-.2-5.8-.2-10.5,4.7-9.4,10.3.6,3.6,3.6,6.5,7.4,7.2,4,.7,8-1.3,9.9-4.3.2-.4-.5,0-.6,0-2.3.9-5.1.7-7.3-.8Z"
		/>
	</g>
</svg>