<svg width="24" height="24" viewBox="0 0 24 24" fill="none" xmlns="http://www.w3.org/2000/svg">
<path d="M17.0808 3.79297C17.0808 3.51683 17.3047 3.29297 17.5808 3.29297H18.5808C18.8569 3.29297 19.0808 3.51683 19.0808 3.79297V5.83398H21.0815C21.3577 5.83398 21.5815 6.05784 21.5815 6.33398V7.33398C21.5815 7.61013 21.3577 7.83398 21.0815 7.83398H19.0808V9.875C19.0808 10.1511 18.8569 10.375 18.5808 10.375H17.5808C17.3047 10.375 17.0808 10.1511 17.0808 9.875V7.83398H15.0801C14.8039 7.83398 14.5801 7.61013 14.5801 7.33398V6.33398C14.5801 6.05784 14.8039 5.83398 15.0801 5.83398H17.0808V3.79297Z" fill="#525C69"/>
<path fill-rule="evenodd" clip-rule="evenodd" d="M18.5845 12.718C19.072 12.718 19.546 12.6603 20.0001 12.5515V16.1168C20.0001 16.5105 19.6273 16.7975 19.2467 16.6969L14.2781 15.3836V16.9731C14.2781 17.5254 13.8304 17.9731 13.2781 17.9731H8.60401C8.05172 17.9731 7.60401 17.5254 7.60401 16.9731V13.6194L6.31834 13.2796L6.31308 13.278C6.28585 13.2983 6.25487 13.3141 6.22103 13.3244L4.41954 13.8699C4.2269 13.9283 4.03259 13.7841 4.03259 13.5828V8.57359C4.03259 8.37231 4.2269 8.22813 4.41954 8.28647L6.22103 8.832C6.2565 8.84274 6.28883 8.85964 6.31699 8.8813L6.32321 8.87978L12.596 7.55332C13.0259 10.4752 15.5433 12.718 18.5845 12.718ZM12.9631 15.036L8.91895 13.967V16.4978C8.91895 16.6634 9.05326 16.7978 9.21895 16.7978H12.6631C12.8288 16.7978 12.9631 16.6634 12.9631 16.4978V15.036Z" fill="#525C69"/>
</svg>
