<svg width="28" height="28" viewBox="0 0 28 28" fill="none" xmlns="http://www.w3.org/2000/svg">
<path fill-rule="evenodd" clip-rule="evenodd" d="M11.7936 6.41826C12.7887 4.746 15.21 4.746 16.2051 6.41826L22.918 17.7C24.0286 19.5664 22.6836 21.9317 20.5118 21.9317H7.48691C5.31506 21.9317 3.97009 19.5664 5.08067 17.7L11.7936 6.41826ZM15.0019 7.13415C14.5496 6.37403 13.449 6.37403 12.9967 7.13415L6.28379 18.4159C5.7285 19.3491 6.40099 20.5317 7.48691 20.5317H20.5118C21.5977 20.5317 22.2702 19.3491 21.7149 18.4159L15.0019 7.13415ZM14.0001 9.5402C13.6135 9.5402 13.3001 9.8536 13.3001 10.2402L13.3001 15.4268C13.3001 15.8134 13.6135 16.1268 14.0001 16.1268C14.3867 16.1268 14.7001 15.8134 14.7001 15.4268V10.2402C14.7001 9.8536 14.3867 9.5402 14.0001 9.5402ZM14 17.1657C13.5168 17.1657 13.125 17.5574 13.125 18.0407V18.1221C13.125 18.6053 13.5168 18.9971 14 18.9971C14.4832 18.9971 14.875 18.6053 14.875 18.1221V18.0407C14.875 17.5574 14.4832 17.1657 14 17.1657Z" fill="white"/>
<rect width="28" height="28" rx="3" fill="white" fill-opacity="0.01"/>
</svg>
