<svg width="24" height="24" viewBox="0 0 24 24" fill="none" xmlns="http://www.w3.org/2000/svg">
<path fill-rule="evenodd" clip-rule="evenodd" d="M10.5605 4.09268C11.4514 3.57853 12.5497 3.57843 13.4404 4.09268L18.1279 6.79971C19.0185 7.31409 19.5683 8.26439 19.5684 9.29288V14.706L19.5615 14.8983C19.4979 15.8521 18.9629 16.7179 18.1279 17.2001L13.4404 19.9062L13.2715 19.997C12.4709 20.3908 11.5312 20.3906 10.7305 19.997L10.5605 19.9062L5.87305 17.2001C5.03792 16.7179 4.5031 15.8522 4.43945 14.8983L4.43262 14.706V9.29288C4.43268 8.32864 4.9158 7.43328 5.70996 6.90127L5.87305 6.79971L10.5605 4.09268ZM15.9648 9.31827C15.68 9.05712 15.2369 9.07652 14.9756 9.36124L11.4395 13.2177L9.41211 11.4804L9.2959 11.3993C9.01141 11.2416 8.64588 11.3001 8.42578 11.5565C8.2056 11.8134 8.20351 12.1842 8.40332 12.4413L8.50195 12.5439L11.043 14.7216C11.3296 14.967 11.7596 14.9412 12.0146 14.663L16.0078 10.3065C16.2682 10.0217 16.2491 9.57935 15.9648 9.31827Z" fill="#15C674"/>
</svg>
