<svg width="24" height="24" viewBox="0 0 24 24" fill="none" xmlns="http://www.w3.org/2000/svg">
<path d="M17.3848 16.5332C17.7232 16.5332 18.0052 16.7736 18.0703 17.0928L18.085 17.2334V17.916H18.7666L18.9072 17.9307C19.2262 17.996 19.4658 18.2779 19.4658 18.6162C19.4658 18.9545 19.2262 19.2365 18.9072 19.3018L18.7666 19.3164H18.085V19.998L18.0703 20.1387C18.005 20.4576 17.723 20.6973 17.3848 20.6973C17.0465 20.6973 16.7645 20.4576 16.6992 20.1387L16.6846 19.998V19.3164H16.002C15.6154 19.3164 15.3018 19.0028 15.3018 18.6162C15.3018 18.2296 15.6154 17.916 16.002 17.916H16.6846V17.2334C16.6846 16.8468 16.9982 16.5332 17.3848 16.5332Z" fill="#15C674"/>
<path d="M11.3438 4.9375C11.6733 4.35198 12.5386 4.35198 12.8682 4.9375L12.9307 5.07129L14.4014 9.04688L14.4551 9.17383C14.5983 9.46039 14.8468 9.68345 15.1504 9.7959L19.125 11.2666L19.2598 11.3281C19.8452 11.6577 19.8452 12.5229 19.2598 12.8525L19.125 12.915L15.1504 14.3857C14.8034 14.5143 14.5299 14.7878 14.4014 15.1348L12.9307 19.1094C12.6653 19.8262 11.6968 19.8715 11.3438 19.2441L11.2822 19.1094L9.81152 15.1348C9.69905 14.8311 9.47513 14.5837 9.18848 14.4404L9.0625 14.3857L5.08691 12.915C4.32247 12.6319 4.32251 11.5498 5.08691 11.2666L9.0625 9.7959C9.40935 9.66734 9.68299 9.39374 9.81152 9.04688L11.2822 5.07129L11.3438 4.9375Z" fill="#15C674"/>
<path d="M6.35645 3.86328C6.69486 3.86328 6.97687 4.10368 7.04199 4.42285L7.05664 4.56348V5.24805H7.74121L7.88281 5.2627C8.20158 5.32813 8.44141 5.61011 8.44141 5.94824C8.44141 6.28637 8.20158 6.56836 7.88281 6.63379L7.74121 6.64844H7.05664V7.33398L7.04199 7.47559C6.97656 7.79436 6.69457 8.03418 6.35645 8.03418C6.01832 8.03418 5.73633 7.79436 5.6709 7.47559L5.65625 7.33398V6.64844H4.9707C4.5841 6.64844 4.27051 6.33484 4.27051 5.94824C4.27051 5.56164 4.5841 5.24805 4.9707 5.24805H5.65625V4.56348C5.65625 4.17688 5.96985 3.86328 6.35645 3.86328Z" fill="#15C674"/>
</svg>
