<svg width="24" height="24" viewBox="0 0 24 24" fill="none" xmlns="http://www.w3.org/2000/svg">
<path fill-rule="evenodd" clip-rule="evenodd" d="M12 4C16.4183 4 20 7.58173 20 12C20 16.4183 16.4183 20 12 20C7.58173 20 4 16.4183 4 12C4 7.58173 7.58173 4 12 4ZM11.9951 14.4033C11.526 14.4035 11.1457 14.7838 11.1455 15.2529V15.3262C11.1456 15.7954 11.5259 16.1756 11.9951 16.1758C12.4645 16.1758 12.8456 15.7955 12.8457 15.3262V15.2529C12.8455 14.7837 12.4644 14.4033 11.9951 14.4033ZM11.9951 7.30078C11.6087 7.30094 11.2959 7.61447 11.2959 8.00098V13.001C11.296 13.3874 11.6087 13.701 11.9951 13.7012C12.3817 13.7012 12.6952 13.3875 12.6953 13.001V8.00098C12.6953 7.61438 12.3817 7.30078 11.9951 7.30078Z" fill="#15C674"/>
</svg>
