<svg width="24" height="24" viewBox="0 0 24 24" fill="none" xmlns="http://www.w3.org/2000/svg">
<path fill-rule="evenodd" clip-rule="evenodd" d="M10.0234 5.45202C10.9151 3.95349 13.0849 3.9535 13.9765 5.45202L19.7305 15.122C20.7221 16.7885 19.5212 18.9004 17.582 18.9004H6.4179C4.47875 18.9004 3.27788 16.7885 4.26947 15.122L10.0234 5.45202ZM12.0004 7.92846C11.5309 7.92846 11.1504 8.30902 11.1504 8.77846V12.8934C11.1504 13.3629 11.5309 13.7434 12.0004 13.7434C12.4698 13.7434 12.8504 13.3629 12.8504 12.8934V8.77846C12.8504 8.30902 12.4698 7.92846 12.0004 7.92846ZM11.0504 15.465C11.0504 14.9403 11.4757 14.515 12.0004 14.515C12.525 14.515 12.9504 14.9403 12.9504 15.465V15.5347C12.9504 16.0594 12.525 16.4847 12.0004 16.4847C11.4757 16.4847 11.0504 16.0594 11.0504 15.5347V15.465Z" fill="#15C674"/>
</svg>
