<svg width="24" height="24" viewBox="0 0 24 24" fill="none" xmlns="http://www.w3.org/2000/svg">
<path d="M9.6084 12.6104C9.67448 12.6171 9.73969 12.6266 9.80371 12.6396C9.81424 12.6418 9.82449 12.6452 9.83496 12.6475C9.88584 12.6587 9.93601 12.6715 9.98535 12.6865C10.0101 12.6941 10.0342 12.7034 10.0586 12.7119C10.0883 12.7222 10.1184 12.7315 10.1475 12.7432L10.1807 12.7568L10.3125 12.8184C10.3191 12.8217 10.3255 12.8256 10.332 12.8291C10.36 12.8438 10.3869 12.86 10.4141 12.876C10.4404 12.8915 10.4666 12.9072 10.4922 12.9238C10.5171 12.9401 10.5413 12.9573 10.5654 12.9746C10.5919 12.9936 10.6181 13.013 10.6436 13.0332C10.6686 13.0531 10.6928 13.0737 10.7168 13.0947C10.739 13.1142 10.7609 13.1339 10.7822 13.1543C10.8035 13.1747 10.8243 13.1955 10.8447 13.2168C10.868 13.2411 10.891 13.2656 10.9131 13.291C10.9343 13.3155 10.9546 13.3407 10.9746 13.3662C10.9897 13.3854 11.0042 13.405 11.0186 13.4248C11.0393 13.4534 11.0599 13.482 11.0791 13.5117C11.0977 13.5404 11.1147 13.57 11.1318 13.5996C11.1449 13.6222 11.1577 13.6448 11.1699 13.668C11.1865 13.6994 11.2019 13.7313 11.2168 13.7637C11.2288 13.7899 11.241 13.816 11.252 13.8428C11.2644 13.8732 11.2752 13.9043 11.2861 13.9355C11.2956 13.9625 11.3061 13.9891 11.3145 14.0166C11.3267 14.057 11.336 14.0982 11.3457 14.1396C11.3507 14.1611 11.356 14.1824 11.3604 14.2041C11.3856 14.3308 11.4004 14.4616 11.4004 14.5957V17.0039L11.3896 17.208C11.3832 17.2712 11.3725 17.3332 11.3604 17.3945C11.3567 17.4129 11.3528 17.4311 11.3486 17.4492C11.3396 17.4887 11.3297 17.5278 11.3184 17.5664C11.3108 17.5922 11.3015 17.6173 11.293 17.6426C11.2804 17.6798 11.2676 17.7167 11.2529 17.7529C11.2466 17.7686 11.2402 17.7843 11.2334 17.7998C11.2165 17.8386 11.198 17.8766 11.1787 17.9141C11.1654 17.9399 11.1511 17.9651 11.1367 17.9902C11.1229 18.0144 11.1085 18.038 11.0938 18.0615C11.0766 18.0889 11.0595 18.1161 11.041 18.1426C11.0222 18.1695 11.0025 18.1957 10.9824 18.2217C10.9668 18.2419 10.9519 18.2626 10.9355 18.2822C10.8589 18.3739 10.7743 18.4585 10.6826 18.5352C10.663 18.5515 10.6423 18.5664 10.6221 18.582C10.5961 18.6021 10.5699 18.6218 10.543 18.6406C10.5165 18.6591 10.4893 18.6762 10.4619 18.6934C10.4384 18.7081 10.4148 18.7225 10.3906 18.7363C10.3654 18.7507 10.3403 18.765 10.3145 18.7783C10.2818 18.7951 10.2485 18.8102 10.2148 18.8252C10.1944 18.8343 10.1742 18.8441 10.1533 18.8525C10.1171 18.8672 10.0802 18.88 10.043 18.8926C10.0196 18.9005 9.99641 18.909 9.97266 18.916C9.93507 18.9272 9.89688 18.9363 9.8584 18.9453C9.83728 18.9502 9.81629 18.9557 9.79492 18.96C9.73362 18.9721 9.67158 18.9828 9.6084 18.9893L9.4043 19H6.99609L6.79199 18.9893C6.72816 18.9828 6.66542 18.9723 6.60352 18.96C6.58309 18.9559 6.56316 18.95 6.54297 18.9453C6.50356 18.9362 6.46426 18.9275 6.42578 18.916C6.40005 18.9084 6.37489 18.8993 6.34961 18.8906C6.31665 18.8793 6.2841 18.8674 6.25195 18.8545C6.22659 18.8443 6.2016 18.8335 6.17676 18.8223C6.14535 18.8081 6.1145 18.7931 6.08398 18.7773C6.05998 18.765 6.03612 18.7526 6.0127 18.7393C5.98443 18.7232 5.95707 18.7058 5.92969 18.6885C5.90616 18.6736 5.88222 18.6594 5.85938 18.6436C5.82799 18.6218 5.79761 18.5987 5.76758 18.5752C5.75059 18.5619 5.73334 18.549 5.7168 18.5352C5.62516 18.4585 5.54044 18.3739 5.46387 18.2822C5.4475 18.2626 5.43261 18.2419 5.41699 18.2217C5.39666 18.1953 5.37645 18.169 5.35742 18.1416C5.34144 18.1186 5.32655 18.095 5.31152 18.0713C5.29337 18.0427 5.2755 18.0139 5.25879 17.9844C5.24624 17.9622 5.23437 17.9397 5.22266 17.917C5.20286 17.8786 5.18432 17.8396 5.16699 17.7998C5.16018 17.7842 5.15291 17.7688 5.14648 17.7529C5.13143 17.7158 5.11831 17.6779 5.10547 17.6396C5.09836 17.6185 5.0904 17.5976 5.08398 17.5762C5.07153 17.5345 5.06152 17.492 5.05176 17.4492C5.04767 17.4313 5.04266 17.4136 5.03906 17.3955C5.02681 17.334 5.0172 17.2714 5.01074 17.208L5 17.0039V14.5957C5 14.4616 5.01385 14.3308 5.03906 14.2041C5.04337 14.1824 5.0487 14.1611 5.05371 14.1396C5.06339 14.0983 5.07275 14.057 5.08496 14.0166C5.0933 13.989 5.10477 13.9626 5.11426 13.9355C5.12517 13.9045 5.13508 13.8731 5.14746 13.8428C5.15838 13.816 5.17058 13.7899 5.18262 13.7637C5.19749 13.7313 5.21296 13.6994 5.22949 13.668C5.24166 13.6448 5.25454 13.6222 5.26758 13.5996C5.28529 13.569 5.303 13.5384 5.32227 13.5088C5.33657 13.4868 5.35206 13.4657 5.36719 13.4443C5.38995 13.4122 5.41292 13.3803 5.4375 13.3496C5.45152 13.3321 5.46587 13.3149 5.48047 13.2979C5.50434 13.27 5.52934 13.2433 5.55469 13.2168C5.57507 13.1955 5.59588 13.1747 5.61719 13.1543C5.63984 13.1326 5.66287 13.1114 5.68652 13.0908C5.70743 13.0726 5.72834 13.0544 5.75 13.0371C5.77668 13.0158 5.80425 12.9956 5.83203 12.9756C5.85841 12.9566 5.88479 12.9376 5.91211 12.9199C5.93599 12.9045 5.96078 12.8904 5.98535 12.876C6.01097 12.8609 6.03616 12.845 6.0625 12.8311C6.09372 12.8145 6.12603 12.8001 6.1582 12.7852C6.18501 12.7727 6.21182 12.7603 6.23926 12.749C6.26562 12.7382 6.29242 12.7285 6.31934 12.7188C6.35132 12.7072 6.3833 12.6955 6.41602 12.6855C6.46244 12.6715 6.50983 12.6601 6.55762 12.6494C6.57038 12.6466 6.58285 12.6423 6.5957 12.6396C6.66003 12.6266 6.72558 12.6171 6.79199 12.6104L6.99609 12.5996H9.4043L9.6084 12.6104Z" fill="#15C674"/>
<path d="M17.0049 12.5996L17.209 12.6104C17.3377 12.6235 17.4627 12.6492 17.583 12.6855C17.6157 12.6955 17.6477 12.7072 17.6797 12.7188C17.7066 12.7284 17.7334 12.7382 17.7598 12.749C17.7872 12.7603 17.814 12.7727 17.8408 12.7852C17.8734 12.8002 17.9059 12.8153 17.9375 12.832C17.9594 12.8437 17.9805 12.8567 18.002 12.8691C18.0328 12.887 18.0639 12.9044 18.0938 12.9238C18.1171 12.9391 18.1395 12.9555 18.1621 12.9717C18.1917 12.9928 18.2207 13.0145 18.249 13.0371C18.2676 13.052 18.2857 13.0675 18.3037 13.083C18.3331 13.1083 18.3618 13.1342 18.3896 13.1611C18.4072 13.1781 18.4245 13.1953 18.4414 13.2129C18.467 13.2395 18.4915 13.267 18.5156 13.2949C18.533 13.3151 18.5498 13.3356 18.5664 13.3564C18.5887 13.3845 18.6101 13.4131 18.6309 13.4424C18.6448 13.462 18.6586 13.4818 18.6719 13.502C18.6956 13.538 18.7179 13.5747 18.7393 13.6123C18.7492 13.6298 18.7591 13.6472 18.7686 13.665C18.7856 13.6973 18.8011 13.7304 18.8164 13.7637C18.8269 13.7864 18.838 13.8088 18.8477 13.832C18.865 13.8739 18.88 13.9167 18.8945 13.96C18.9009 13.9788 18.9073 13.9975 18.9131 14.0166C18.9245 14.0542 18.9342 14.0923 18.9434 14.1309C18.9492 14.1552 18.956 14.1794 18.9609 14.2041C18.9663 14.2312 18.9703 14.2586 18.9746 14.2861C18.9805 14.3236 18.9865 14.3613 18.9902 14.3994C18.9965 14.464 19.001 14.5294 19.001 14.5957V17.0039L18.9922 17.1641C18.9844 17.2613 18.9694 17.3564 18.9482 17.4492C18.9392 17.4888 18.9293 17.5278 18.918 17.5664C18.9107 17.5911 18.9027 17.6154 18.8945 17.6396C18.8816 17.678 18.8677 17.7157 18.8525 17.7529C18.8462 17.7686 18.8398 17.7843 18.833 17.7998C18.8161 17.8386 18.7976 17.8766 18.7783 17.9141C18.767 17.9361 18.7553 17.9579 18.7432 17.9795C18.7257 18.0106 18.7076 18.0412 18.6885 18.0713C18.6753 18.092 18.6623 18.1127 18.6484 18.1328C18.545 18.2831 18.4219 18.4185 18.2822 18.5352C18.2657 18.549 18.2484 18.5619 18.2314 18.5752C18.2042 18.5965 18.1768 18.6178 18.1484 18.6377C18.1232 18.6554 18.0973 18.6719 18.0713 18.6885C18.0434 18.7062 18.0151 18.7229 17.9863 18.7393C17.9629 18.7525 17.9391 18.765 17.915 18.7773C17.8836 18.7935 17.8517 18.8087 17.8193 18.8232C17.797 18.8333 17.7747 18.8433 17.752 18.8525C17.7163 18.867 17.6802 18.8802 17.6436 18.8926C17.6202 18.9005 17.597 18.909 17.5732 18.916C17.5348 18.9275 17.4955 18.9362 17.4561 18.9453C17.4359 18.95 17.4159 18.9559 17.3955 18.96C17.3342 18.9722 17.2722 18.9828 17.209 18.9893L17.0049 19H14.5957C14.52 19 14.4455 18.9936 14.3721 18.9854C14.3156 18.979 14.26 18.9709 14.2051 18.96C14.1843 18.9558 14.1641 18.9501 14.1436 18.9453C14.1041 18.9362 14.0649 18.9275 14.0264 18.916C14.0026 18.909 13.9794 18.9005 13.9561 18.8926C13.9188 18.88 13.8819 18.8672 13.8457 18.8525C13.8249 18.8441 13.8047 18.8343 13.7842 18.8252C13.7502 18.81 13.7166 18.7943 13.6836 18.7773C13.6582 18.7642 13.6332 18.7505 13.6084 18.7363C13.5836 18.7222 13.5592 18.7076 13.5352 18.6924C13.5094 18.6762 13.4839 18.6599 13.459 18.6426C13.4337 18.625 13.4092 18.6066 13.3848 18.5879C13.2954 18.5194 13.2123 18.4436 13.1357 18.3613C13.1114 18.3352 13.0864 18.3097 13.0635 18.2822C13.0498 18.2658 13.0376 18.2483 13.0244 18.2314C12.9992 18.1992 12.9744 18.1666 12.9512 18.1328C12.941 18.1181 12.9316 18.1029 12.9219 18.0879C12.8999 18.054 12.8784 18.0197 12.8584 17.9844C12.8434 17.9578 12.8293 17.9307 12.8154 17.9033C12.804 17.8807 12.7928 17.858 12.7822 17.835C12.7675 17.8029 12.7542 17.7702 12.7412 17.7373C12.7316 17.7131 12.7225 17.6887 12.7139 17.6641C12.7021 17.6305 12.6907 17.5968 12.6807 17.5625C12.6749 17.5428 12.6702 17.5229 12.665 17.5029C12.6239 17.3433 12.6006 17.1764 12.6006 17.0039V14.5957C12.6006 14.4903 12.6102 14.3871 12.626 14.2861C12.6303 14.2587 12.6333 14.2312 12.6387 14.2041C12.6394 14.2005 12.6399 14.1969 12.6406 14.1934L12.6797 14.0371C12.6806 14.0338 12.6817 14.0306 12.6826 14.0273C12.6929 13.9927 12.7047 13.9587 12.7168 13.9248C12.7267 13.8972 12.737 13.8698 12.748 13.8428C12.7617 13.8093 12.7766 13.7766 12.792 13.7441C12.8023 13.7223 12.8121 13.7002 12.8232 13.6787C12.8375 13.6512 12.8527 13.6244 12.8682 13.5977C12.8872 13.5648 12.9069 13.5326 12.9277 13.501C12.9405 13.4816 12.9544 13.4632 12.9678 13.4443C12.9891 13.4143 13.0103 13.3843 13.0332 13.3555C13.0498 13.3346 13.0666 13.3141 13.084 13.2939C13.1067 13.2676 13.1302 13.2419 13.1543 13.2168C13.1747 13.1955 13.1955 13.1747 13.2168 13.1543C13.2381 13.1339 13.26 13.1142 13.2822 13.0947C13.3062 13.0737 13.3305 13.0531 13.3555 13.0332C13.381 13.013 13.4071 12.9936 13.4336 12.9746C13.4577 12.9573 13.4819 12.9401 13.5068 12.9238C13.5326 12.907 13.5593 12.8916 13.5859 12.876C13.6128 12.8602 13.6393 12.8437 13.667 12.8291C13.6973 12.8131 13.7285 12.7986 13.7598 12.7842C13.7847 12.7726 13.8095 12.7605 13.835 12.75C13.8666 12.7369 13.8992 12.7263 13.9316 12.7148C13.9598 12.7049 13.9878 12.6943 14.0166 12.6855C14.1305 12.6511 14.2487 12.627 14.3701 12.6133C14.4442 12.6049 14.5194 12.5996 14.5957 12.5996H17.0049Z" fill="#15C674"/>
<path d="M9.6084 5.01074C9.67448 5.01747 9.73969 5.02703 9.80371 5.04004C9.81424 5.04218 9.82449 5.04555 9.83496 5.04785C9.88584 5.05905 9.93601 5.07191 9.98535 5.08691C10.0101 5.09445 10.0342 5.10384 10.0586 5.1123C10.0883 5.12263 10.1184 5.13188 10.1475 5.14355L10.1807 5.15723L10.3125 5.21875C10.3191 5.22214 10.3255 5.22603 10.332 5.22949C10.36 5.24419 10.3869 5.2604 10.4141 5.27637C10.4404 5.29188 10.4666 5.30755 10.4922 5.32422C10.5171 5.34048 10.5413 5.35767 10.5654 5.375C10.5919 5.394 10.6181 5.41335 10.6436 5.43359C10.6686 5.45346 10.6928 5.4741 10.7168 5.49512C10.739 5.51456 10.7609 5.53429 10.7822 5.55469C10.8035 5.57507 10.8243 5.59588 10.8447 5.61719C10.868 5.64149 10.891 5.66595 10.9131 5.69141C10.9343 5.71591 10.9546 5.74108 10.9746 5.7666C10.9897 5.78582 11.0042 5.80542 11.0186 5.8252C11.0393 5.85376 11.0599 5.88243 11.0791 5.91211C11.0977 5.94076 11.1147 5.97036 11.1318 6C11.1449 6.02258 11.1577 6.04523 11.1699 6.06836C11.1865 6.09977 11.2019 6.13169 11.2168 6.16406C11.2288 6.19025 11.241 6.21638 11.252 6.24316C11.2644 6.27364 11.2752 6.30473 11.2861 6.33594C11.2956 6.36289 11.3061 6.38952 11.3145 6.41699C11.3267 6.45736 11.336 6.49863 11.3457 6.54004C11.3507 6.56146 11.356 6.58281 11.3604 6.60449C11.3856 6.73121 11.4004 6.86195 11.4004 6.99609V9.4043L11.3896 9.6084C11.3832 9.67158 11.3725 9.73362 11.3604 9.79492C11.3567 9.81326 11.3528 9.83146 11.3486 9.84961C11.3396 9.88913 11.3297 9.9282 11.3184 9.9668C11.3108 9.99256 11.3015 10.0177 11.293 10.043C11.2804 10.0802 11.2676 10.1171 11.2529 10.1533C11.2466 10.169 11.2402 10.1847 11.2334 10.2002C11.2165 10.239 11.198 10.2769 11.1787 10.3145C11.1654 10.3403 11.1511 10.3654 11.1367 10.3906C11.1229 10.4148 11.1085 10.4384 11.0938 10.4619C11.0766 10.4893 11.0595 10.5165 11.041 10.543C11.0222 10.5699 11.0025 10.5961 10.9824 10.6221C10.9668 10.6423 10.9519 10.663 10.9355 10.6826C10.8589 10.7743 10.7743 10.8589 10.6826 10.9355C10.663 10.9519 10.6423 10.9668 10.6221 10.9824C10.5961 11.0025 10.5699 11.0222 10.543 11.041C10.5165 11.0595 10.4893 11.0766 10.4619 11.0938C10.4384 11.1085 10.4148 11.1229 10.3906 11.1367C10.3654 11.1511 10.3403 11.1654 10.3145 11.1787C10.2818 11.1955 10.2485 11.2106 10.2148 11.2256C10.1944 11.2347 10.1742 11.2445 10.1533 11.2529C10.1171 11.2676 10.0802 11.2804 10.043 11.293C10.0196 11.3009 9.99641 11.3094 9.97266 11.3164C9.93507 11.3276 9.89688 11.3367 9.8584 11.3457C9.83728 11.3506 9.81629 11.3561 9.79492 11.3604C9.73362 11.3725 9.67158 11.3832 9.6084 11.3896L9.4043 11.4004H6.99609L6.79199 11.3896C6.72816 11.3832 6.66542 11.3727 6.60352 11.3604C6.58309 11.3563 6.56316 11.3504 6.54297 11.3457C6.50356 11.3365 6.46426 11.3279 6.42578 11.3164C6.40005 11.3087 6.37489 11.2997 6.34961 11.291C6.31665 11.2797 6.2841 11.2678 6.25195 11.2549C6.22659 11.2447 6.2016 11.2339 6.17676 11.2227C6.14535 11.2085 6.1145 11.1935 6.08398 11.1777C6.05998 11.1654 6.03612 11.1529 6.0127 11.1396C5.98443 11.1236 5.95707 11.1062 5.92969 11.0889C5.90616 11.0739 5.88222 11.0598 5.85938 11.0439C5.82799 11.0221 5.79761 10.9991 5.76758 10.9756C5.75059 10.9623 5.73334 10.9494 5.7168 10.9355C5.62516 10.8589 5.54044 10.7743 5.46387 10.6826C5.4475 10.663 5.43261 10.6423 5.41699 10.6221C5.39666 10.5957 5.37645 10.5693 5.35742 10.542C5.34144 10.519 5.32655 10.4953 5.31152 10.4717C5.29337 10.4431 5.2755 10.4143 5.25879 10.3848C5.24624 10.3626 5.23437 10.3401 5.22266 10.3174C5.20286 10.279 5.18432 10.24 5.16699 10.2002C5.16018 10.1846 5.15291 10.1692 5.14648 10.1533C5.13143 10.1162 5.11831 10.0782 5.10547 10.04C5.09836 10.0189 5.0904 9.99802 5.08398 9.97656C5.07153 9.93488 5.06152 9.89239 5.05176 9.84961C5.04767 9.8317 5.04266 9.81398 5.03906 9.7959C5.02681 9.73436 5.0172 9.67184 5.01074 9.6084L5 9.4043V6.99609C5 6.86201 5.01385 6.73115 5.03906 6.60449C5.04337 6.58282 5.0487 6.56145 5.05371 6.54004C5.06339 6.49865 5.07275 6.45735 5.08496 6.41699C5.0933 6.38942 5.10477 6.36299 5.11426 6.33594C5.12517 6.30485 5.13508 6.27353 5.14746 6.24316C5.15838 6.21638 5.17058 6.19025 5.18262 6.16406C5.19749 6.1317 5.21296 6.09976 5.22949 6.06836C5.24166 6.04523 5.25454 6.02258 5.26758 6C5.28529 5.96935 5.303 5.93878 5.32227 5.90918C5.33657 5.8872 5.35206 5.86609 5.36719 5.84473C5.38995 5.81259 5.41292 5.78069 5.4375 5.75C5.45152 5.73248 5.46587 5.71527 5.48047 5.69824C5.50434 5.67041 5.52934 5.64366 5.55469 5.61719C5.57507 5.59588 5.59588 5.57507 5.61719 5.55469C5.63984 5.53302 5.66287 5.5118 5.68652 5.49121C5.70743 5.473 5.72834 5.45484 5.75 5.4375C5.77668 5.41615 5.80425 5.39596 5.83203 5.37598C5.85841 5.35699 5.88479 5.33802 5.91211 5.32031C5.93599 5.30484 5.96078 5.29083 5.98535 5.27637C6.01097 5.26128 6.03616 5.24541 6.0625 5.23145C6.09372 5.21491 6.12603 5.20045 6.1582 5.18555C6.18501 5.17312 6.21182 5.16067 6.23926 5.14941C6.26562 5.1386 6.29242 5.12884 6.31934 5.11914C6.35132 5.10761 6.3833 5.09586 6.41602 5.08594C6.46244 5.07186 6.50983 5.06052 6.55762 5.0498C6.57038 5.04694 6.58285 5.04266 6.5957 5.04004C6.66003 5.02695 6.72558 5.01749 6.79199 5.01074L6.99609 5H9.4043L9.6084 5.01074Z" fill="#15C674"/>
<path d="M17.209 5.01074C17.3377 5.02387 17.4627 5.04954 17.583 5.08594C17.6157 5.09584 17.6477 5.10762 17.6797 5.11914C17.7066 5.12883 17.7334 5.13862 17.7598 5.14941C17.7872 5.16066 17.814 5.17313 17.8408 5.18555C17.8734 5.20062 17.9059 5.21567 17.9375 5.23242C17.9594 5.24406 17.9805 5.25711 18.002 5.26953C18.0328 5.28741 18.0639 5.30476 18.0938 5.32422C18.1171 5.33945 18.1395 5.3559 18.1621 5.37207C18.1917 5.39317 18.2207 5.41486 18.249 5.4375C18.2676 5.45238 18.2857 5.46787 18.3037 5.4834C18.3331 5.50866 18.3618 5.53462 18.3896 5.56152C18.4072 5.57849 18.4245 5.59568 18.4414 5.61328C18.467 5.63986 18.4915 5.66735 18.5156 5.69531C18.533 5.71547 18.5498 5.73598 18.5664 5.75684C18.5887 5.78488 18.6101 5.81353 18.6309 5.84277C18.6448 5.86244 18.6586 5.88216 18.6719 5.90234C18.6956 5.93834 18.7179 5.97512 18.7393 6.0127C18.7492 6.03018 18.7591 6.04762 18.7686 6.06543C18.7856 6.09771 18.8011 6.13076 18.8164 6.16406C18.8269 6.18681 18.838 6.20922 18.8477 6.23242C18.865 6.27428 18.88 6.31711 18.8945 6.36035C18.9009 6.37917 18.9073 6.39793 18.9131 6.41699C18.9245 6.45461 18.9342 6.49273 18.9434 6.53125C18.9492 6.55562 18.956 6.57978 18.9609 6.60449C18.9663 6.63161 18.9703 6.65902 18.9746 6.68652C18.9805 6.72402 18.9865 6.76165 18.9902 6.7998C18.9965 6.8644 19.001 6.92984 19.001 6.99609V9.4043L18.9922 9.56445C18.9844 9.66173 18.9694 9.75676 18.9482 9.84961C18.9392 9.88914 18.9293 9.9282 18.918 9.9668C18.9107 9.99147 18.9027 10.0158 18.8945 10.04C18.8816 10.0784 18.8677 10.1161 18.8525 10.1533C18.8462 10.169 18.8398 10.1847 18.833 10.2002C18.8161 10.239 18.7976 10.2769 18.7783 10.3145C18.767 10.3365 18.7553 10.3583 18.7432 10.3799C18.7257 10.411 18.7076 10.4416 18.6885 10.4717C18.6753 10.4924 18.6623 10.513 18.6484 10.5332C18.545 10.6835 18.4219 10.8188 18.2822 10.9355C18.2657 10.9494 18.2484 10.9623 18.2314 10.9756C18.2042 10.9969 18.1768 11.0182 18.1484 11.0381C18.1232 11.0558 18.0973 11.0723 18.0713 11.0889C18.0434 11.1065 18.0151 11.1233 17.9863 11.1396C17.9629 11.1529 17.9391 11.1654 17.915 11.1777C17.8836 11.1939 17.8517 11.2091 17.8193 11.2236C17.797 11.2337 17.7747 11.2437 17.752 11.2529C17.7163 11.2674 17.6802 11.2806 17.6436 11.293C17.6202 11.3009 17.597 11.3093 17.5732 11.3164C17.5348 11.3278 17.4955 11.3366 17.4561 11.3457C17.4359 11.3504 17.4159 11.3563 17.3955 11.3604C17.3342 11.3725 17.2722 11.3832 17.209 11.3896L17.0049 11.4004H14.5957C14.52 11.4004 14.4455 11.394 14.3721 11.3857C14.3156 11.3794 14.26 11.3713 14.2051 11.3604C14.1843 11.3562 14.1641 11.3505 14.1436 11.3457C14.1041 11.3366 14.0649 11.3279 14.0264 11.3164C14.0026 11.3093 13.9794 11.3009 13.9561 11.293C13.9188 11.2804 13.8819 11.2676 13.8457 11.2529C13.8249 11.2445 13.8047 11.2347 13.7842 11.2256C13.7502 11.2104 13.7166 11.1947 13.6836 11.1777C13.6582 11.1646 13.6332 11.1509 13.6084 11.1367C13.5836 11.1226 13.5592 11.1079 13.5352 11.0928C13.5094 11.0766 13.4839 11.0603 13.459 11.043C13.4337 11.0254 13.4092 11.007 13.3848 10.9883C13.2954 10.9198 13.2123 10.844 13.1357 10.7617C13.1114 10.7356 13.0864 10.7101 13.0635 10.6826C13.0498 10.6662 13.0376 10.6487 13.0244 10.6318C12.9992 10.5996 12.9744 10.567 12.9512 10.5332C12.941 10.5185 12.9316 10.5033 12.9219 10.4883C12.8999 10.4543 12.8784 10.4201 12.8584 10.3848C12.8434 10.3582 12.8293 10.3311 12.8154 10.3037C12.804 10.2811 12.7928 10.2584 12.7822 10.2354C12.7675 10.2033 12.7542 10.1706 12.7412 10.1377C12.7316 10.1135 12.7225 10.0891 12.7139 10.0645C12.7021 10.0309 12.6907 9.99722 12.6807 9.96289C12.6749 9.94321 12.6702 9.92325 12.665 9.90332C12.6239 9.74368 12.6006 9.57678 12.6006 9.4043V6.99609C12.6006 6.8907 12.6102 6.7875 12.626 6.68652C12.6303 6.65908 12.6333 6.63155 12.6387 6.60449C12.6394 6.60092 12.6399 6.59731 12.6406 6.59375L12.6797 6.4375C12.6806 6.43424 12.6817 6.43099 12.6826 6.42773C12.6929 6.39307 12.7047 6.35904 12.7168 6.3252C12.7267 6.29756 12.737 6.27022 12.748 6.24316C12.7617 6.20974 12.7766 6.17703 12.792 6.14453C12.8023 6.12265 12.8121 6.10054 12.8232 6.0791C12.8375 6.05163 12.8527 6.02476 12.8682 5.99805C12.8872 5.96523 12.9069 5.93297 12.9277 5.90137C12.9405 5.88202 12.9544 5.86359 12.9678 5.84473C12.9891 5.81467 13.0103 5.78466 13.0332 5.75586C13.0498 5.73502 13.0666 5.71448 13.084 5.69434C13.1067 5.66796 13.1302 5.64233 13.1543 5.61719C13.1747 5.59588 13.1955 5.57507 13.2168 5.55469C13.2381 5.53429 13.26 5.51456 13.2822 5.49512C13.3062 5.4741 13.3305 5.45346 13.3555 5.43359C13.381 5.41334 13.4071 5.39401 13.4336 5.375C13.4577 5.35767 13.4819 5.34048 13.5068 5.32422C13.5326 5.30739 13.5593 5.29202 13.5859 5.27637C13.6128 5.26054 13.6393 5.24407 13.667 5.22949C13.6973 5.2135 13.7285 5.19902 13.7598 5.18457C13.7847 5.17303 13.8095 5.16092 13.835 5.15039C13.8666 5.13734 13.8992 5.12668 13.9316 5.11523C13.9598 5.10527 13.9878 5.09465 14.0166 5.08594C14.1305 5.05145 14.2487 5.02737 14.3701 5.01367C14.4442 5.00532 14.5194 5.00002 14.5957 5H17.0049L17.209 5.01074Z" fill="#15C674"/>
</svg>
