<svg width="24" height="24" viewBox="0 0 24 24" fill="none" xmlns="http://www.w3.org/2000/svg">
<path fill-rule="evenodd" clip-rule="evenodd" d="M7.38045 7.19969C8.99295 5.58719 11.2397 5.95232 12.126 6.81467C12.7545 7.42624 13.5605 8.23778 14.3742 9.05841C14.4253 9.10989 14.4764 9.16141 14.5274 9.21291C15.2863 9.97832 16.0418 10.7403 16.6414 11.3284C17.0357 11.7151 17.6688 11.7089 18.0556 11.3146C18.4423 10.9203 18.4361 10.2872 18.0418 9.90046C17.4526 9.32265 16.7067 8.57026 15.9436 7.80069C15.894 7.75058 15.8442 7.7004 15.7944 7.65019C14.984 6.83289 14.1646 6.00775 13.5207 5.38125C11.8622 3.76748 8.3638 3.38792 5.96624 5.78547C3.5754 8.17629 3.95415 11.6025 5.54698 13.1953C6.49702 14.1454 9.4521 17.0095 10.9999 18.5097C11.4136 18.9107 11.7268 19.2143 11.8743 19.3577C12.4458 19.9139 13.4369 20.2808 14.3962 20.3631C15.3865 20.4479 16.6012 20.2509 17.5191 19.3577C19.1854 17.7365 19.1188 15.1778 17.7034 13.8006C17.2064 13.317 15.7462 11.8977 14.3665 10.5567C14.0171 10.2171 13.6728 9.8825 13.3507 9.56938C12.4004 8.64579 11.6423 7.90901 11.5107 7.7809C11.1749 7.4542 10.634 7.17412 10.0339 7.09672C9.38877 7.01353 8.62582 7.16227 7.99004 7.7809C7.36829 8.38587 7.17678 9.13584 7.19227 9.75778C7.19993 10.0654 7.25754 10.3557 7.34674 10.607C7.42887 10.8384 7.56579 11.1153 7.78765 11.3311C8.0648 11.6008 11.756 15.2772 12.1163 15.6375C12.5068 16.0281 13.14 16.0281 13.5305 15.6375C13.921 15.247 13.921 14.6139 13.5305 14.2233C13.19 13.8828 9.77586 10.4822 9.23615 9.95045C9.2347 9.94671 9.23314 9.94254 9.2315 9.93792C9.21208 9.88322 9.19399 9.80174 9.19165 9.70799C9.18715 9.52727 9.23849 9.35667 9.38479 9.21432C9.46218 9.13902 9.52803 9.10771 9.57943 9.09239C9.63492 9.07586 9.70075 9.07033 9.77805 9.0803C9.85726 9.09051 9.93801 9.11591 10.0089 9.1498C10.0755 9.18161 10.11 9.20959 10.1153 9.2139C10.1157 9.21421 10.1161 9.21447 10.1153 9.2139C10.2476 9.34255 11.0084 10.0819 11.9603 11.007C12.2815 11.3192 12.6245 11.6526 12.9725 11.9909C14.3525 13.3322 15.8122 14.7509 16.3087 15.2341C16.8805 15.7904 17.0206 17.0523 16.1244 17.9243C15.7611 18.2778 15.2046 18.425 14.567 18.3704C13.8984 18.3131 13.4051 18.0567 13.269 17.9243C13.116 17.7755 12.7949 17.4642 12.3728 17.0551C10.8192 15.5492 7.89794 12.7179 6.9612 11.7811C6.15882 10.9787 5.76122 8.8189 7.38045 7.19969Z" fill="#15C674"/>
</svg>
