<svg width="24" height="24" viewBox="0 0 24 24" fill="none" xmlns="http://www.w3.org/2000/svg">
<path fill-rule="evenodd" clip-rule="evenodd" d="M6.25684 5.32031C5.15227 5.32031 4.25684 6.21574 4.25684 7.32031V15.8496H4.15312C3.76653 15.8496 3.45312 16.163 3.45312 16.5496C3.45312 16.9362 3.76653 17.2496 4.15312 17.2496L11.3433 17.2497V17.4163L9.16876 19.4607C8.8871 19.7255 8.87344 20.1685 9.13825 20.4502C9.40306 20.7318 9.84607 20.7455 10.1277 20.4807L12.0883 18.6374L13.9588 20.3964C14.2404 20.6612 14.6834 20.6476 14.9483 20.366C15.2131 20.0844 15.1995 19.6414 14.9179 19.3765L12.7433 17.3316V17.2497L19.868 17.2496C20.2546 17.2496 20.568 16.9362 20.568 16.5496C20.568 16.163 20.2546 15.8496 19.868 15.8496H19.7428V7.32031C19.7428 6.21574 18.8473 5.32031 17.7428 5.32031H6.25684ZM7.80244 8.39551C7.36061 8.39551 7.00244 8.75368 7.00244 9.19551V9.86016C7.00244 10.302 7.36061 10.6602 7.80244 10.6602H10.346C10.7878 10.6602 11.146 10.302 11.146 9.86016V9.19551C11.146 8.75368 10.7878 8.39551 10.346 8.39551H7.80244ZM7.80244 11.5322C7.36061 11.5322 7.00244 11.8904 7.00244 12.3322V13.0369C7.00244 13.4787 7.36061 13.8369 7.80244 13.8369H10.346C10.7878 13.8369 11.146 13.4787 11.146 13.0369V12.3322C11.146 11.8904 10.7878 11.5322 10.346 11.5322H7.80244ZM12.7754 11.042C12.7754 9.84573 13.7451 8.87598 14.9414 8.87598C16.1377 8.87598 17.1074 9.84573 17.1074 11.042C17.1074 12.2382 16.1377 13.208 14.9414 13.208C13.7451 13.208 12.7754 12.2382 12.7754 11.042Z" fill="#15C674"/>
</svg>
