<svg width="24" height="24" viewBox="0 0 24 24" fill="none" xmlns="http://www.w3.org/2000/svg">
<path fill-rule="evenodd" clip-rule="evenodd" d="M8.2793 4.04884C8.58232 4.04928 8.8892 4.06062 9.15625 4.09571C9.39878 4.1276 9.7026 4.18889 9.92383 4.35255C10.0478 4.44424 10.3795 4.71965 10.791 5.05469C11.2141 5.39915 11.7457 5.82724 12.2969 6.24805C12.8495 6.66998 13.4148 7.07929 13.9062 7.38966C14.1522 7.54497 14.3729 7.67134 14.5586 7.76075C14.7525 7.85407 14.8743 7.89 14.9336 7.89747C15.478 7.9651 16.6502 8.04346 17.7041 8.10548C18.227 8.13624 18.715 8.16292 19.0723 8.18165C19.2508 8.191 19.3969 8.19902 19.498 8.20411C19.5486 8.20665 19.5885 8.20767 19.6152 8.20899C19.6284 8.20964 19.6387 8.21061 19.6455 8.21094C19.6488 8.21111 19.6533 8.21094 19.6533 8.21094L19.6553 8.21192C19.9216 8.22489 20.1308 8.44428 20.1309 8.71094V14.8223C20.1309 15.0917 19.9177 15.313 19.6484 15.3223H19.6455C19.6455 15.3223 19.6409 15.3231 19.6377 15.3232C19.6307 15.3235 19.6199 15.3237 19.6064 15.3242C19.5791 15.3252 19.5388 15.3262 19.4873 15.3281C19.3838 15.332 19.2349 15.3381 19.0537 15.3457C18.6908 15.361 18.1983 15.384 17.6816 15.4131C17.1644 15.4422 16.6251 15.4776 16.167 15.5186C15.6944 15.5609 15.3484 15.6058 15.1914 15.6465C15.1914 15.6465 15.1819 15.6493 15.167 15.6553C15.149 15.6625 15.1249 15.6737 15.0947 15.6885C15.0338 15.7185 14.9567 15.7603 14.8643 15.8154C14.6792 15.9258 14.4491 16.0778 14.1865 16.2598C13.6623 16.6231 13.0289 17.0931 12.4014 17.5693C11.7736 18.0458 11.1595 18.5219 10.667 18.8994C10.422 19.0872 10.2066 19.2514 10.0371 19.377C9.88023 19.4931 9.7318 19.5999 9.63867 19.6514C9.4405 19.7608 9.20581 19.8107 8.99121 19.8379C8.76847 19.8662 8.51831 19.8754 8.26367 19.877C8.00834 19.8785 7.73128 19.8723 7.45605 19.8672C7.17771 19.862 6.89687 19.8582 6.62012 19.8623C6.48635 19.8643 6.35705 19.8126 6.26172 19.7188C6.16638 19.6248 6.11333 19.4961 6.11328 19.3623V15.207H7.78613L7.04688 15.9473C6.85168 16.1425 6.85167 16.4591 7.04688 16.6543C7.24212 16.8495 7.55865 16.8495 7.75391 16.6543L9.3916 15.0156C9.39325 15.014 9.39583 15.0133 9.39746 15.0117C9.54393 14.8653 9.58109 14.6503 9.50781 14.4697C9.48341 14.4093 9.44646 14.3527 9.39746 14.3037C9.39567 14.3019 9.39341 14.3006 9.3916 14.2988L7.74512 12.6524C7.54986 12.4571 7.23334 12.4571 7.03809 12.6524C6.84287 12.8476 6.84285 13.1641 7.03809 13.3594L7.88574 14.207H6.11328V9.74415H7.78809L7.04688 10.4863C6.85168 10.6816 6.85167 10.9981 7.04688 11.1934C7.24212 11.3886 7.55865 11.3886 7.75391 11.1934L9.39746 9.54981C9.54392 9.40334 9.58109 9.18838 9.50781 9.00782C9.48341 8.94738 9.44646 8.89081 9.39746 8.8418L7.74512 7.18946C7.54986 6.99422 7.23334 6.99421 7.03809 7.18946C6.84287 7.38472 6.84285 7.70124 7.03809 7.89649L7.88574 8.74415H6.11328V4.77344C6.11328 4.4414 6.36291 4.07025 6.71202 4.06934C7.23458 4.06934 7.75703 4.04808 8.2793 4.04884ZM13.1191 9.74219C12.9239 9.54695 12.6074 9.54694 12.4121 9.74219C12.2169 9.93745 12.2169 10.254 12.4121 10.4492L13.2598 11.2969H10.4248C10.1487 11.2969 9.92481 11.5207 9.9248 11.7969C9.92485 12.073 10.1487 12.2969 10.4248 12.2969H13.1602L12.4209 13.0371C12.2257 13.2324 12.2257 13.5489 12.4209 13.7441C12.6161 13.9394 12.9327 13.9393 13.1279 13.7441L14.7656 12.1055C14.7673 12.1039 14.7699 12.1032 14.7715 12.1016C14.918 11.9551 14.9551 11.7401 14.8818 11.5596C14.8574 11.4991 14.8205 11.4426 14.7715 11.3936C14.7697 11.3918 14.7674 11.3904 14.7656 11.3887L13.1191 9.74219Z" fill="#15C674"/>
<path d="M6.11328 15.207H4.61523C4.33909 15.207 4.11523 14.9832 4.11523 14.707C4.11523 14.4309 4.33909 14.207 4.61523 14.207H6.11328V15.207Z" fill="#15C674"/>
<path d="M6.11328 9.74415H4.61523C4.33909 9.74415 4.11523 9.52029 4.11523 9.24415C4.11523 8.968 4.33909 8.74415 4.61523 8.74415H6.11328V9.74415Z" fill="#15C674"/>
</svg>
