<svg width="24" height="24" viewBox="0 0 24 24" fill="none" xmlns="http://www.w3.org/2000/svg">
<path fill-rule="evenodd" clip-rule="evenodd" d="M6.69453 4.91406C5.14813 4.91406 3.89453 6.16767 3.89453 7.71406V16.2982C3.89453 17.8446 5.14813 19.0982 6.69453 19.0982H17.3109C18.8573 19.0982 20.1109 17.8446 20.1109 16.2982V7.71406C20.1109 6.16767 18.8573 4.91406 17.3109 4.91406H6.69453ZM5.29453 10.9938H18.7109V16.2982C18.7109 17.0714 18.0841 17.6982 17.3109 17.6982H6.69453C5.92133 17.6982 5.29453 17.0714 5.29453 16.2982V10.9938ZM7.19023 7.30859C6.80364 7.30859 6.49023 7.62199 6.49023 8.00859C6.49023 8.39519 6.80363 8.70859 7.19023 8.70859H7.98125C8.36785 8.70859 8.68125 8.39519 8.68125 8.00859C8.68125 7.62199 8.36785 7.30859 7.98125 7.30859H7.19023ZM10.1702 7.30859C9.78362 7.30859 9.47021 7.62199 9.47021 8.00859C9.47021 8.39519 9.78362 8.70859 10.1702 8.70859H10.9612C11.3478 8.70859 11.6612 8.39519 11.6612 8.00859C11.6612 7.62199 11.3478 7.30859 10.9612 7.30859H10.1702Z" fill="#15C674"/>
</svg>
