<svg width="24" height="24" viewBox="0 0 24 24" fill="none" xmlns="http://www.w3.org/2000/svg">
<path d="M14.1357 3.42762C14.4013 3.23957 14.7707 3.25815 15.0176 3.48915C15.2997 3.75341 15.315 4.19626 15.0508 4.4784L14.6045 4.95301C15.1239 5.58327 15.3364 6.37494 15.3457 7.01942C15.7924 7.14243 16.2027 7.36096 16.5303 7.67469L17.6865 6.70399C17.9825 6.45531 18.4241 6.49399 18.6729 6.78993C18.9214 7.08587 18.8837 7.52757 18.5879 7.77626L17.2783 8.87489C17.7137 9.84057 18.0378 10.9269 18.1504 11.997H19.9062L20.0479 12.0116C20.3667 12.077 20.6064 12.359 20.6064 12.6972C20.6064 13.0353 20.3666 13.3173 20.0479 13.3827L19.9062 13.3974H18.1748C18.0956 14.6845 17.763 15.8479 17.2402 16.8349L18.7793 18.3524C19.0544 18.624 19.0576 19.0675 18.7861 19.3427C18.5147 19.6174 18.072 19.6204 17.7969 19.3495L16.4512 18.0214C15.3247 19.3866 13.7474 20.1972 11.999 20.1972C10.2504 20.1971 8.67235 19.3869 7.5459 18.0214L6.20117 19.3495C5.92604 19.6204 5.4833 19.6174 5.21191 19.3427C4.94042 19.0675 4.94364 18.624 5.21875 18.3524L6.75684 16.8339C6.23448 15.8472 5.9034 14.6839 5.82422 13.3974H4.0918L3.9502 13.3827C3.6314 13.3173 3.39169 13.0353 3.3916 12.6972C3.3916 12.359 3.63136 12.077 3.9502 12.0116L4.0918 11.997H5.85254C5.97402 10.9426 6.31958 9.87286 6.76855 8.91786L5.40918 7.77626C5.11336 7.52757 5.07566 7.08587 5.32422 6.78993C5.57293 6.49399 6.01458 6.45531 6.31055 6.70399L7.5166 7.71669C7.83244 7.40392 8.22615 7.17984 8.65723 7.04676C8.65237 6.38229 8.88685 5.57266 9.44043 4.93544L9.04395 4.43251C8.80533 4.12887 8.85779 3.68915 9.16113 3.45008C9.46477 3.21106 9.90533 3.26284 10.1445 3.5663L10.582 4.12391C10.9927 3.95655 11.4766 3.85732 12.042 3.85731C12.5976 3.85731 13.0699 3.95425 13.4688 4.11805L14.0283 3.52137L14.1357 3.42762Z" fill="#15C674"/>
</svg>
