<svg width="24" height="24" viewBox="0 0 24 24" fill="none" xmlns="http://www.w3.org/2000/svg">
<path fill-rule="evenodd" clip-rule="evenodd" d="M12.2881 7.24639C14.865 7.36847 16.9207 9.47278 16.9678 12.0687C16.8473 12.0829 16.7264 12.1096 16.6074 12.1526C15.7713 12.4551 15.3391 13.379 15.6416 14.2151L15.9717 15.1292C15.0734 16.313 13.6524 17.0783 12.0518 17.0784C11.0532 17.0784 10.1245 16.7801 9.34863 16.2688C9.43319 16.0809 9.48242 15.8731 9.48242 15.6536C9.48239 14.8236 8.80854 14.1507 7.97852 14.1507H7.55273C7.28274 13.5419 7.13187 12.8683 7.13184 12.1595C7.13186 10.32 8.14212 8.71647 9.6377 7.87236C10.2967 8.40269 11.2626 8.34302 11.8496 7.71514L12.2881 7.24639ZM9.52441 13.0374C9.19306 13.0374 8.92483 13.3057 8.9248 13.637C8.9248 13.9682 9.19229 14.2364 9.52344 14.2366H14.5449C14.8763 14.2366 15.1455 13.9684 15.1455 13.637C15.1455 13.3058 14.877 13.0377 14.5459 13.0374H9.52441ZM9.52441 10.0374C9.19306 10.0374 8.92483 10.3057 8.9248 10.637C8.9248 10.9682 9.19229 11.2364 9.52344 11.2366H14.5449C14.8763 11.2366 15.1455 10.9684 15.1455 10.637C15.1455 10.3058 14.877 10.0377 14.5459 10.0374H9.52441Z" fill="#15C674"/>
<path d="M5.7793 15.0438H7.67773C8.11956 15.0438 8.47754 15.4017 8.47754 15.8436C8.47728 16.2852 8.1194 16.6434 7.67773 16.6434H7.36523C7.52027 16.8006 7.68248 16.9525 7.85352 17.0965C8.85494 17.9394 9.93995 18.429 11.1299 18.5691C12.3262 18.7099 13.6819 18.5037 15.2256 17.8719C15.6342 17.7048 16.101 17.9001 16.2686 18.3084C16.4359 18.7172 16.2398 19.1849 15.8311 19.3523C14.0978 20.0618 12.4662 20.3376 10.9414 20.158C9.41034 19.9776 8.03884 19.3442 6.82324 18.3211C6.5962 18.13 6.38169 17.9269 6.17773 17.7166V18.1473C6.17729 18.5887 5.81943 18.947 5.37793 18.9471C4.93637 18.9471 4.57856 18.5887 4.57812 18.1473V15.8436C4.57812 15.4017 4.9361 15.0438 5.37793 15.0438H5.66406C5.70273 15.0414 5.74093 15.0406 5.7793 15.0438Z" fill="#15C674"/>
<path d="M14.8613 5.21953C15.0691 4.82965 15.5544 4.68174 15.9443 4.88945C17.4951 5.71567 18.7144 7.12953 19.4482 8.71074C20.1812 10.2902 20.4609 12.1057 20.0371 13.7625C19.9496 14.1046 19.8417 14.4384 19.7158 14.7625L20.0264 14.6434C20.4387 14.4848 20.9019 14.691 21.0605 15.1033C21.2189 15.5155 21.0128 15.9789 20.6006 16.1375L18.4512 16.9647C18.039 17.1233 17.5759 16.9176 17.417 16.5057L16.5908 14.3582C16.4322 13.9459 16.6376 13.4828 17.0498 13.324C17.4621 13.1653 17.9253 13.3716 18.084 13.784L18.2305 14.1658C18.3304 13.9063 18.4173 13.6396 18.4873 13.366C18.8018 12.1365 18.6083 10.7005 17.9971 9.38359C17.3867 8.06856 16.3909 6.94017 15.1924 6.30156C14.8026 6.0939 14.6539 5.60941 14.8613 5.21953Z" fill="#15C674"/>
<path d="M9.92285 2.7166C10.2069 2.37858 10.7115 2.33525 11.0498 2.61895L12.8145 4.09942C13.1336 4.36724 13.1907 4.83098 12.958 5.1668C12.9538 5.17534 12.9479 5.18285 12.9434 5.19121C12.933 5.21057 12.9221 5.2295 12.9102 5.24785C12.8615 5.32265 12.8015 5.38761 12.7314 5.44219L11.4346 6.98906C11.1506 7.32752 10.6461 7.3717 10.3076 7.0877C9.96924 6.80368 9.92501 6.29917 10.209 5.96074L10.3564 5.78399C10.2367 5.81098 10.1171 5.84048 9.99805 5.87383C9.16408 6.10751 8.40973 6.52337 7.76562 7.07402C6.47721 8.20714 5.72182 9.91637 5.48926 11.8855C5.48141 11.9519 5.46403 12.0152 5.44141 12.075C5.43974 12.1377 5.43751 12.2005 5.4375 12.2635C5.4375 12.7052 5.07943 13.0641 4.6377 13.0643C4.19587 13.0643 3.83789 12.7053 3.83789 12.2635C3.83809 9.85658 4.84583 7.56223 6.54785 6.01348C7.35788 5.25572 8.35862 4.67037 9.56348 4.33281C9.83508 4.25674 10.1087 4.19539 10.3828 4.14629L10.0215 3.84356C9.68326 3.55956 9.63903 3.05499 9.92285 2.7166Z" fill="#15C674"/>
</svg>
