<svg width="24" height="24" viewBox="0 0 24 24" fill="none" xmlns="http://www.w3.org/2000/svg">
<path fill-rule="evenodd" clip-rule="evenodd" d="M8.55225 3.62109C8.06064 3.62109 7.66211 4.01962 7.66211 4.51123V5.18262H6.73828C5.35757 5.18262 4.23828 6.30191 4.23828 7.68262V16.3096C4.23828 17.6903 5.35757 18.8096 6.73828 18.8096H17.2627C18.6434 18.8096 19.7627 17.6903 19.7627 16.3096V7.68262C19.7627 6.30191 18.6434 5.18262 17.2627 5.18262H16.323V4.51794C16.323 4.02263 15.9215 3.62109 15.4261 3.62109C14.9308 3.62109 14.5293 4.02263 14.5293 4.51794V5.18262H9.44238V4.51123C9.44238 4.01962 9.04386 3.62109 8.55225 3.62109ZM11.654 9.3252C11.2122 9.3252 10.854 9.68337 10.854 10.1252V10.9713C10.854 11.4131 11.2122 11.7713 11.654 11.7713H12.4621C12.9039 11.7713 13.2621 11.4131 13.2621 10.9713V10.1252C13.2621 9.68337 12.9039 9.3252 12.4621 9.3252H11.654ZM14.3843 10.1252C14.3843 9.68337 14.7424 9.3252 15.1843 9.3252H15.9924C16.4342 9.3252 16.7924 9.68337 16.7924 10.1252V10.9713C16.7924 11.4131 16.4342 11.7713 15.9924 11.7713H15.1843C14.7424 11.7713 14.3843 11.4131 14.3843 10.9713V10.1252ZM7.97334 9.32537C7.53151 9.32537 7.17334 9.68354 7.17334 10.1254V10.9715C7.17334 11.4133 7.53151 11.7715 7.97334 11.7715H8.78144C9.22327 11.7715 9.58144 11.4133 9.58144 10.9715V10.1254C9.58144 9.68354 9.22327 9.32537 8.78144 9.32537H7.97334ZM7.17332 14.2738C7.17332 13.832 7.53149 13.4738 7.97332 13.4738H8.78143C9.22325 13.4738 9.58143 13.832 9.58143 14.2738V15.1199C9.58143 15.5617 9.22325 15.9199 8.78143 15.9199H7.97332C7.53149 15.9199 7.17332 15.5617 7.17332 15.1199V14.2738Z" fill="#15C674"/>
</svg>
