<svg width="24" height="24" viewBox="0 0 24 24" fill="none" xmlns="http://www.w3.org/2000/svg">
<path fill-rule="evenodd" clip-rule="evenodd" d="M13.3662 4.69727C14.0042 4.69733 14.6019 5.01047 14.9648 5.53516L16.0088 7.04395H17.8311C18.9042 7.04417 19.7744 7.91412 19.7744 8.9873V16.3711L19.7646 16.5703C19.665 17.55 18.837 18.3142 17.8311 18.3145H6.16992L5.97168 18.3047C5.05699 18.212 4.32943 17.4849 4.23633 16.5703L4.22656 16.3711V8.9873C4.22662 7.98094 4.99152 7.15307 5.97168 7.05371L6.16992 7.04395H7.93945L8.92871 5.5625C9.26666 5.05623 9.82091 4.73888 10.4238 4.70117L10.5449 4.69727H13.3662ZM12 9.93164C10.5927 9.93164 9.45215 11.0732 9.45215 12.4805C9.45228 13.8877 10.5928 15.0283 12 15.0283C13.4071 15.0282 14.5477 13.8876 14.5479 12.4805C14.5479 11.0732 13.4072 9.93174 12 9.93164Z" fill="#15C674"/>
</svg>
