<svg width="24" height="24" viewBox="0 0 24 24" fill="none" xmlns="http://www.w3.org/2000/svg">
<path d="M6.27344 4.86328C4.89273 4.86328 3.77344 5.98257 3.77344 7.36328V12.2642C3.77344 13.3542 4.47107 14.2813 5.4442 14.6233V16.4348C5.4442 17.2196 6.3788 17.6283 6.95518 17.0956L7.32975 16.7494C7.29379 16.5736 7.2749 16.3917 7.2749 16.2053V10.3443C7.2749 8.74271 8.57328 7.44434 10.1749 7.44434H16.1311V7.36328C16.1311 5.98257 15.0118 4.86328 13.6311 4.86328H6.27344Z" fill="#15C674"/>
<path d="M19.9092 11.4811C19.9092 10.1556 18.8347 9.08105 17.5092 9.08105H11.6247C10.2992 9.08105 9.22472 10.1556 9.22472 11.4811V15.4845C9.22472 16.81 10.2992 17.8845 11.6247 17.8845H15.252L17.3692 19.8346C17.8178 20.2478 18.5435 19.9296 18.5435 19.3197V17.6508C19.3512 17.2645 19.9092 16.4396 19.9092 15.4845V11.4811Z" fill="#15C674"/>
</svg>
