<svg width="24" height="24" viewBox="0 0 24 24" fill="none" xmlns="http://www.w3.org/2000/svg">
<path fill-rule="evenodd" clip-rule="evenodd" d="M12 4C16.4183 4 20 7.58172 20 12C20 16.4183 16.4183 20 12 20C7.58172 20 4 16.4183 4 12C4 7.58172 7.58172 4 12 4ZM15.8467 9.2373C15.5211 8.9391 15.0143 8.96079 14.7158 9.28613L11.2451 13.0723L9.29199 11.3975C8.95663 11.1105 8.45149 11.1494 8.16406 11.4844C7.87663 11.8197 7.91587 12.3247 8.25098 12.6123L10.792 14.791C11.1196 15.0717 11.6108 15.0416 11.9023 14.7236L15.8955 10.3682C16.1939 10.0425 16.1722 9.53582 15.8467 9.2373Z" fill="#15C674"/>
</svg>
