<svg width="24" height="24" viewBox="0 0 24 24" fill="none" xmlns="http://www.w3.org/2000/svg">
<path fill-rule="evenodd" clip-rule="evenodd" d="M12 4.28516C16.2603 4.28516 19.7146 7.73874 19.7148 11.999C19.7148 16.2595 16.2604 19.7139 12 19.7139C7.73972 19.7137 4.28613 16.2594 4.28613 11.999C4.28633 7.73886 7.73984 4.28535 12 4.28516ZM11.9189 7.30078C11.5323 7.30078 11.2188 7.61438 11.2188 8.00098V12.1045C11.2188 12.2901 11.2926 12.4684 11.4238 12.5996C11.5551 12.7309 11.7333 12.8047 11.9189 12.8047H15.3721L15.5127 12.79C15.8318 12.7249 16.0722 12.4428 16.0723 12.1045C16.0723 11.7661 15.8318 11.4841 15.5127 11.4189L15.3721 11.4043H12.6191V8.00098C12.6191 7.61438 12.3055 7.30078 11.9189 7.30078Z" fill="#15C674"/>
</svg>
