<svg width="24" height="24" viewBox="0 0 24 24" fill="none" xmlns="http://www.w3.org/2000/svg">
<path fill-rule="evenodd" clip-rule="evenodd" d="M10.2425 5.01562C11.7209 5.14108 13.0325 5.99715 13.7083 7.28125C14.0225 7.20738 14.345 7.1689 14.6692 7.16895L14.886 7.1748C17.0242 7.28374 18.7378 8.99389 18.8714 11.1299C20.4514 11.7411 21.5138 13.2342 21.4983 14.9219C21.5455 17.1353 19.7351 18.9401 17.4837 19H7.82059C7.81042 19 7.80034 18.9977 7.79032 18.9971C7.753 18.9984 7.70804 19 7.66532 19C4.89989 19 2.6455 16.819 2.50712 14.0811L2.50028 13.8145C2.47868 11.761 3.71049 9.91192 5.6038 9.06348C5.74174 6.79882 7.61252 5 9.90751 5H9.91239L10.2425 5.01562ZM8.8284 13.4365C8.72186 13.4081 8.61192 13.4716 8.58329 13.5781L8.09403 15.4072C8.05972 15.5362 8.19811 15.642 8.31376 15.5752L8.92508 15.2207L8.93583 15.2393L9.11747 15.4707C10.0659 16.582 11.6435 16.9863 13.0442 16.5898L13.221 16.5361C14.0307 16.2693 14.6236 15.799 15.0218 15.0918L15.1038 14.9375C15.2642 14.6165 15.1337 14.226 14.8128 14.0654C14.5319 13.9252 14.1976 14.0065 14.011 14.2441L13.9407 14.3555C13.7256 14.7857 13.4197 15.0771 12.9173 15.2646L12.6897 15.3389C11.726 15.6115 10.6951 15.3148 10.1057 14.627L10.0589 14.5664L10.6917 14.2012C10.8072 14.1343 10.7844 13.9615 10.6556 13.9268L8.8284 13.4365ZM14.7464 10.7695C13.7995 9.68815 12.296 9.2404 11.0774 9.47949L10.8206 9.54102C9.78239 9.83975 9.07772 10.4458 8.67508 11.4121C8.53722 11.7433 8.6937 12.1245 9.02469 12.2627C9.35599 12.4005 9.73627 12.2433 9.8743 11.9121C10.1159 11.3322 10.4978 10.9874 11.18 10.791L11.3401 10.7529C12.1037 10.6077 13.1284 10.8989 13.764 11.6201L13.8597 11.7402L13.2532 12.0918C13.138 12.1587 13.1606 12.3315 13.2893 12.3662L15.1165 12.8555C15.2229 12.8839 15.3328 12.8211 15.3616 12.7148L15.8518 10.8857C15.8864 10.7568 15.7478 10.6504 15.6321 10.7168L14.9866 11.0889L14.9407 11.0107L14.7464 10.7695Z" fill="#15C674"/>
</svg>
