<svg width="24" height="24" viewBox="0 0 24 24" fill="none" xmlns="http://www.w3.org/2000/svg">
<path fill-rule="evenodd" clip-rule="evenodd" d="M13.1205 6.02349C13.4778 7.35716 12.6864 8.728 11.3527 9.08536C10.0191 9.44271 8.64821 8.65126 8.29086 7.31759C7.9335 5.98392 8.72496 4.61308 10.0586 4.25573C11.3923 3.89837 12.7631 4.68983 13.1205 6.02349Z" fill="#15C674"/>
<path fill-rule="evenodd" clip-rule="evenodd" d="M10.1371 16.1407C10.4944 17.4743 9.70299 18.8452 8.36932 19.2025C7.03566 19.5599 5.66481 18.7684 5.30746 17.4348C4.95011 16.1011 5.74156 14.7303 7.07523 14.3729C8.40889 14.0156 9.77973 14.807 10.1371 16.1407Z" fill="#15C674"/>
<path fill-rule="evenodd" clip-rule="evenodd" d="M18.9953 16.3559C20.329 15.9985 21.1204 14.6277 20.7631 13.294C20.4057 11.9603 19.0349 11.1689 17.7012 11.5262C16.3675 11.8836 15.5761 13.2544 15.9334 14.5881C16.2908 15.9218 17.6616 16.7132 18.9953 16.3559Z" fill="#15C674"/>
<path d="M5.28421 13.8165C4.5933 11.238 5.41755 8.61045 7.21118 6.87917C7.22523 7.1105 7.2626 7.34387 7.32491 7.57643C7.427 7.95742 7.58817 8.30682 7.79592 8.61738C6.78057 9.92655 6.36781 11.6786 6.82969 13.4024L6.81656 13.4067C6.26879 13.5534 5.78636 13.8223 5.3907 14.1762C5.3523 14.0579 5.31677 13.938 5.28421 13.8165Z" fill="#15C674"/>
<path d="M14.0864 5.76469C14.1886 6.146 14.2237 6.52947 14.1989 6.90258C15.7322 7.52889 16.9651 8.83958 17.4269 10.5628L17.4417 10.5596C17.989 10.413 18.5407 10.4045 19.0599 10.5129C19.034 10.3914 19.0049 10.27 18.9724 10.1487C18.2816 7.57087 16.2549 5.70777 13.8367 5.10479C13.94 5.31192 14.0242 5.53244 14.0864 5.76469Z" fill="#15C674"/>
<path d="M13.548 17.2812C14.3502 17.0662 15.063 16.6842 15.659 16.1825C16.0146 16.6084 16.4655 16.9416 16.9698 17.1579C16.1469 17.9291 15.1276 18.5144 13.9621 18.8267C12.797 19.1389 11.6219 19.1417 10.524 18.8855C10.8527 18.4461 11.0767 17.932 11.1718 17.3854C11.9384 17.5216 12.7463 17.496 13.548 17.2812Z" fill="#15C674"/>
</svg>
