<svg width="24" height="24" viewBox="0 0 24 24" fill="none" xmlns="http://www.w3.org/2000/svg">
<path d="M12.9975 7.02035C12.3799 6.66379 11.619 6.66379 11.0014 7.02035L8.18651 8.64556C7.56893 9.00212 7.18848 9.66108 7.18848 10.3742V13.6246C7.18848 14.3377 7.56893 14.9967 8.18651 15.3533L11.0014 16.9785C11.619 17.335 12.3799 17.335 12.9975 16.9785L15.8125 15.3533C16.43 14.9967 16.8105 14.3377 16.8105 13.6246V10.3742C16.8105 9.66108 16.43 9.00212 15.8125 8.64556L12.9975 7.02035Z" fill="#15C674"/>
<path fill-rule="evenodd" clip-rule="evenodd" d="M9.99979 3.89527C11.2374 3.18074 12.7622 3.18074 13.9998 3.89527L18.0181 6.21527C19.2557 6.9298 20.0181 8.25031 20.0181 9.67937V14.3194C20.0181 15.7484 19.2557 17.0689 18.0181 17.7835L13.9998 20.1034C12.7622 20.818 11.2374 20.818 9.99979 20.1034L5.98145 17.7835C4.74384 17.0689 3.98145 15.7484 3.98145 14.3194V9.67937C3.98145 8.25031 4.74384 6.9298 5.98145 6.21527L9.99979 3.89527ZM13.2998 5.10771L17.3181 7.4277C18.1226 7.89215 18.6181 8.75048 18.6181 9.67937V14.3194C18.6181 15.2482 18.1226 16.1066 17.3181 16.571L13.2998 18.891C12.4953 19.3555 11.5042 19.3555 10.6998 18.891L6.68145 16.571C5.877 16.1066 5.38145 15.2482 5.38145 14.3194V9.67937C5.38145 8.75048 5.877 7.89215 6.68145 7.4277L10.6998 5.10771C11.5042 4.64326 12.4953 4.64326 13.2998 5.10771Z" fill="#15C674"/>
</svg>
