<svg width="24" height="24" viewBox="0 0 24 24" fill="none" xmlns="http://www.w3.org/2000/svg">
<path fill-rule="evenodd" clip-rule="evenodd" d="M11.8535 4.58577C13.1554 4.26451 14.4219 5.26506 14.4219 6.64144V8.618L18.0908 9.34456C18.855 9.49593 19.4053 10.1609 19.4053 10.9325V18.3006H20L20.1406 18.3153C20.4598 18.3804 20.7002 18.6624 20.7002 19.0008C20.7 19.3391 20.4597 19.6213 20.1406 19.6864L20 19.701H4C3.61351 19.701 3.29998 19.3873 3.2998 19.0008C3.2998 18.6142 3.6134 18.3006 4 18.3006H4.59473V7.84066C4.59492 6.86737 5.24692 6.02353 6.16992 5.7889L6.18262 5.78499L11.8535 4.58577ZM16.5 14.6004C16.1135 14.6004 15.7999 14.9141 15.7998 15.3006V16.3006L15.8145 16.4412C15.8796 16.7604 16.1616 17.0008 16.5 17.0008C16.8384 17.0008 17.1204 16.7604 17.1855 16.4412L17.2002 16.3006V15.3006C17.2001 14.9141 16.8865 14.6004 16.5 14.6004ZM8 14.7996C7.61349 14.7996 7.29995 15.1134 7.2998 15.4998C7.2998 15.8864 7.6134 16.2 8 16.2H11L11.1406 16.1854C11.4598 16.1202 11.7002 15.8382 11.7002 15.4998C11.7001 15.1615 11.4597 14.8794 11.1406 14.8143L11 14.7996H8ZM16.5 11.2996C16.1135 11.2996 15.7999 11.6134 15.7998 11.9998V12.9998L15.8145 13.1405C15.8796 13.4596 16.1616 13.7 16.5 13.7C16.8384 13.7 17.1204 13.4596 17.1855 13.1405L17.2002 12.9998V11.9998C17.2001 11.6134 16.8865 11.2996 16.5 11.2996ZM8 11.7996C7.61349 11.7996 7.29995 12.1134 7.2998 12.4998C7.2998 12.8864 7.6134 13.2 8 13.2H11L11.1406 13.1854C11.4598 13.1202 11.7002 12.8382 11.7002 12.4998C11.7001 12.1615 11.4597 11.8794 11.1406 11.8143L11 11.7996H8ZM8 8.79964C7.61349 8.79964 7.29995 9.11336 7.2998 9.49984C7.2998 9.88643 7.6134 10.2 8 10.2H11L11.1406 10.1854C11.4598 10.1202 11.7002 9.83823 11.7002 9.49984C11.7001 9.16154 11.4597 8.8794 11.1406 8.81429L11 8.79964H8Z" fill="#15C674"/>
</svg>
