<svg width="24" height="24" viewBox="0 0 24 24" fill="none" xmlns="http://www.w3.org/2000/svg">
<path fill-rule="evenodd" clip-rule="evenodd" d="M13.0322 5.10254C12.5638 5.94407 12.2959 6.91287 12.2959 7.94434C12.296 11.1762 14.9165 13.7959 18.1484 13.7959C18.5371 13.7959 18.9167 13.7569 19.2842 13.6846V16.1182L19.2705 16.3955C19.1405 17.6709 18.1247 18.684 16.8467 18.8135L16.5693 18.8281H7.32812L7.0498 18.8135C5.77214 18.6837 4.75596 17.6707 4.62598 16.3955L4.6123 16.1182V7.81348C4.6123 6.41035 5.68064 5.2552 7.0498 5.11621L7.32812 5.10254H13.0322ZM8.55957 13.5527C8.17314 13.5527 7.85944 13.8664 7.85938 14.2529C7.85938 14.6395 8.1731 14.9531 8.55957 14.9531H13.1855L13.3271 14.9385C13.6458 14.8731 13.8857 14.5911 13.8857 14.2529C13.8857 13.9148 13.6458 13.6328 13.3271 13.5674L13.1855 13.5527H8.55957ZM8.55566 10.0547C8.16906 10.0547 7.85547 10.3683 7.85547 10.7549C7.85547 11.1415 8.16906 11.4551 8.55566 11.4551H9.9502L10.0908 11.4404C10.4099 11.3752 10.6504 11.0932 10.6504 10.7549C10.6504 10.4165 10.4099 10.1345 10.0908 10.0693L9.9502 10.0547H8.55566Z" fill="#15C674"/>
<path d="M20.8721 5.69238C21.1331 5.49792 21.5035 5.50634 21.7559 5.73145C22.0442 5.98885 22.0689 6.4313 21.8115 6.71973L17.9248 11.0762C17.6686 11.3632 17.2282 11.39 16.9395 11.1357L14.4658 8.95703L14.3701 8.85352C14.1738 8.59382 14.18 8.22365 14.4033 7.96973C14.6269 7.7158 14.9938 7.6623 15.2764 7.82422L15.3916 7.90625L17.3428 9.625L20.7676 5.78809L20.8721 5.69238Z" fill="#15C674"/>
</svg>
