<svg width="24" height="24" viewBox="0 0 24 24" fill="none" xmlns="http://www.w3.org/2000/svg">
<path fill-rule="evenodd" clip-rule="evenodd" d="M9.6084 12.6104C10.6147 12.7128 11.4004 13.5623 11.4004 14.5957V17.0039L11.3896 17.208C11.2941 18.1471 10.5475 18.8937 9.6084 18.9893L9.4043 19H6.99609L6.79199 18.9893C5.8527 18.8939 5.10633 18.1472 5.01074 17.208L5 17.0039V14.5957C5 13.5622 5.78548 12.7126 6.79199 12.6104L6.99609 12.5996H9.4043L9.6084 12.6104Z" fill="#15C674"/>
<path fill-rule="evenodd" clip-rule="evenodd" d="M17.209 12.6104C18.2151 12.713 19.001 13.5625 19.001 14.5957V17.0039L18.9902 17.208C18.8947 18.147 18.1479 18.8935 17.209 18.9893L17.0049 19H14.5967L14.3926 18.9893C13.4533 18.8939 12.7069 18.1472 12.6113 17.208L12.6006 17.0039V14.5957C12.6006 13.5622 13.3861 12.7126 14.3926 12.6104L14.5967 12.5996H17.0049L17.209 12.6104Z" fill="#15C674"/>
<path fill-rule="evenodd" clip-rule="evenodd" d="M9.6084 5.01074C10.6147 5.11316 11.4004 5.96274 11.4004 6.99609V9.4043L11.3896 9.6084C11.2941 10.5475 10.5475 11.2941 9.6084 11.3896L9.4043 11.4004H6.99609L6.79199 11.3896C5.8527 11.2943 5.10633 10.5476 5.01074 9.6084L5 9.4043V6.99609C5 5.96261 5.78548 5.11298 6.79199 5.01074L6.99609 5H9.4043L9.6084 5.01074Z" fill="#15C674"/>
<path fill-rule="evenodd" clip-rule="evenodd" d="M17.209 5.01074C18.2151 5.11338 19.001 5.9629 19.001 6.99609V9.4043L18.9902 9.6084C18.8947 10.5474 18.1479 11.2939 17.209 11.3896L17.0049 11.4004H14.5967L14.3926 11.3896C13.4533 11.2943 12.7069 10.5476 12.6113 9.6084L12.6006 9.4043V6.99609C12.6006 5.96261 13.3861 5.11298 14.3926 5.01074L14.5967 5H17.0049L17.209 5.01074ZM14.5967 6.2998C14.2123 6.2998 13.9004 6.61166 13.9004 6.99609V9.4043C13.9006 9.78856 14.2124 10.0996 14.5967 10.0996H17.0049C17.3888 10.0991 17.7 9.78827 17.7002 9.4043V6.99609C17.7002 6.61195 17.3889 6.30027 17.0049 6.2998H14.5967Z" fill="#15C674"/>
</svg>
