<svg width="24" height="24" viewBox="0 0 24 24" fill="none" xmlns="http://www.w3.org/2000/svg">
<path d="M15.5034 5.82812C15.6118 5.82812 15.7161 5.84536 15.8138 5.87724C16.0867 5.94845 16.3279 6.13402 16.461 6.40748L17.9133 9.39272C18.0091 9.19945 18.1035 9.00994 18.1975 8.82113L18.2364 8.74302C18.5928 8.02736 18.9471 7.31394 19.3651 6.42101C19.5062 6.1196 19.7784 5.9215 20.0819 5.86288C20.1655 5.84022 20.2535 5.82812 20.3442 5.82812C20.8965 5.82812 21.3442 6.27584 21.3442 6.82812V17.1372C21.3442 17.6894 20.8965 18.1372 20.3442 18.1372C19.792 18.1372 19.3442 17.6894 19.3442 17.1372V11.0155C19.2055 11.3007 19.0619 11.5996 18.9102 11.9215C18.5189 12.7516 17.3325 12.7705 16.9256 11.9341L16.5034 11.0664V17.1372C16.5034 17.6894 16.0557 18.1372 15.5034 18.1372C14.9511 18.1372 14.5034 17.6894 14.5034 17.1372V6.82812C14.5034 6.27584 14.9511 5.82812 15.5034 5.82812Z" fill="#15C674"/>
<path d="M2.6543 9.33398C2.6543 7.40098 4.2213 5.83398 6.1543 5.83398H6.79639C7.34867 5.83398 7.79639 6.2817 7.79639 6.83398C7.79639 7.38627 7.34867 7.83398 6.79639 7.83398H6.1543C5.32587 7.83398 4.6543 8.50556 4.6543 9.33398V14.6177C4.6543 15.4461 5.32587 16.1177 6.1543 16.1177H6.79639C7.34867 16.1177 7.79639 16.5654 7.79639 17.1177C7.79639 17.6699 7.34867 18.1177 6.79639 18.1177H6.1543C4.2213 18.1177 2.6543 16.5507 2.6543 14.6177V9.33398Z" fill="#15C674"/>
<path fill-rule="evenodd" clip-rule="evenodd" d="M10.1827 13.9023C10.3729 13.9023 10.5596 13.8876 10.7418 13.8592L11.838 17.503C11.9973 18.0323 12.5575 18.342 13.0894 18.1949C13.6212 18.0477 13.9233 17.4993 13.7641 16.97L12.569 12.9979C13.3135 12.3383 13.7827 11.3751 13.7827 10.3023V9.44659C13.7827 7.45836 12.1709 5.84659 10.1827 5.84659L9.1588 5.84659C8.60651 5.84659 8.1588 6.2943 8.1588 6.84659V6.98818C8.15808 7.00375 8.15771 7.01941 8.15771 7.03516V17.1403C8.15771 17.6925 8.60543 18.1403 9.15771 18.1403C9.71 18.1403 10.1577 17.6925 10.1577 17.1403V13.9023H10.1827ZM10.1577 11.3414C10.1584 11.357 10.1588 11.3727 10.1588 11.3884V11.9023H10.1827C11.0664 11.9023 11.7827 11.186 11.7827 10.3023V9.44659C11.7827 8.56293 11.0664 7.84659 10.1827 7.84659H10.1588V8.51915C10.1588 8.53489 10.1584 8.55055 10.1577 8.56612V11.3414Z" fill="#15C674"/>
</svg>
