<svg width="24" height="24" viewBox="0 0 24 24" fill="none" xmlns="http://www.w3.org/2000/svg">
<path d="M5.86631 5.62207C4.77092 5.62207 4.03662 6.7475 4.47786 7.75009L4.49873 7.79751C4.74102 8.34804 5.28569 8.70342 5.88718 8.70342H18.7922C19.3937 8.70342 19.9384 8.34805 20.1807 7.79752L20.2015 7.75009C20.6428 6.7475 19.9085 5.62207 18.8131 5.62207H5.86631Z" fill="#15C674"/>
<path d="M7.91427 11.0459C6.82758 11.0459 6.09335 12.155 6.51781 13.1554L6.53793 13.2028C6.77574 13.7633 7.32557 14.1273 7.93439 14.1273H16.7457C17.3545 14.1273 17.9044 13.7633 18.1422 13.2028L18.1623 13.1554C18.5868 12.155 17.8525 11.0459 16.7658 11.0459H7.91427Z" fill="#15C674"/>
<path d="M10.5334 16.3467C9.41856 16.3467 8.68456 17.5089 9.16369 18.5156L9.18627 18.563C9.43777 19.0914 9.97079 19.428 10.556 19.428H14.1248C14.71 19.428 15.243 19.0914 15.4945 18.563L15.5171 18.5156C15.9962 17.5089 15.2622 16.3467 14.1474 16.3467H10.5334Z" fill="#15C674"/>
</svg>
