<svg width="24" height="24" viewBox="0 0 24 24" fill="none" xmlns="http://www.w3.org/2000/svg">
<path d="M10.9983 5.00331C11.4129 4.18173 12.5683 4.18097 12.9836 5.00233L15.7063 10.3871C15.74 10.4539 15.8069 10.467 15.8538 10.4428L18.8762 8.88026C19.7964 8.40495 20.707 9.30931 20.4573 10.1976C20.4399 10.2593 20.4356 10.272 20.4338 10.2826L19.3616 17.3099C19.3473 17.4033 19.3196 17.5376 19.2463 17.6723C19.0108 18.1045 18.5588 18.386 18.0549 18.3861H6.01587C5.50794 18.3861 5.05268 18.1004 4.8186 17.6625C4.74994 17.5339 4.72264 17.4064 4.70825 17.3178L3.56665 10.2826C3.56498 10.2725 3.56192 10.2611 3.54517 10.2025C3.29079 9.31156 4.20364 8.40281 5.12524 8.88026L8.13696 10.4418C8.18389 10.466 8.25073 10.4529 8.28442 10.3861L10.9983 5.00331Z" fill="#15C674"/>
</svg>
