<svg width="24" height="24" viewBox="0 0 24 24" fill="none" xmlns="http://www.w3.org/2000/svg">
<path fill-rule="evenodd" clip-rule="evenodd" d="M5.0498 11.8848H5.06355C5.06355 12.1439 5.18356 12.4365 5.49495 12.7518C5.80862 13.0694 6.28976 13.38 6.9266 13.6527C8.19834 14.1973 9.99335 14.5472 12.004 14.5472C14.0143 14.5472 15.8087 14.1972 17.0803 13.6527C17.717 13.38 18.1983 13.0694 18.512 12.7518C18.8233 12.4365 18.9434 12.1439 18.9434 11.8848H18.9497V9.48145C18.5506 9.80076 18.0603 10.0791 17.5096 10.3146C16.072 10.9295 14.1234 11.2969 11.9998 11.2969C9.876 11.2969 7.92758 10.9295 6.48991 10.3146C5.93922 10.0791 5.44893 9.80076 5.0498 9.48145V11.8848Z" fill="#15C674"/>
<path fill-rule="evenodd" clip-rule="evenodd" d="M11.9998 4.44922C9.98635 4.44922 8.18852 4.79904 6.91497 5.34374C6.27735 5.61647 5.79635 5.92806 5.48226 6.24565C5.1705 6.56093 5.04984 6.85277 5.0498 7.11162C5.0498 7.37052 5.1704 7.6633 5.48226 7.97865C5.79634 8.29611 6.27762 8.60688 6.91497 8.87951C8.18852 9.4242 9.98635 9.77402 11.9998 9.77402C14.013 9.77399 15.81 9.42415 17.0835 8.87951C17.7212 8.60677 18.2031 8.29626 18.5172 7.97865C18.8291 7.6633 18.9497 7.37052 18.9497 7.11162C18.9497 6.85284 18.8288 6.56083 18.5172 6.24565C18.2031 5.92801 17.7212 5.6165 17.0835 5.34374C15.81 4.79911 14.013 4.44925 11.9998 4.44922Z" fill="#15C674"/>
<path fill-rule="evenodd" clip-rule="evenodd" d="M5.0498 16.6336L5.05509 16.7319C5.08234 16.9656 5.20933 17.2235 5.48226 17.4995C5.79633 17.8171 6.27739 18.1287 6.91497 18.4015C8.18852 18.9462 9.98635 19.296 11.9998 19.296C14.013 19.2959 15.81 18.9461 17.0835 18.4015C17.7212 18.1287 18.2031 17.8172 18.5172 17.4995C18.8288 17.1844 18.9486 16.8923 18.9486 16.6336L18.9497 14.2281C18.55 14.5493 18.0587 14.8301 17.5064 15.0666C16.0705 15.6814 14.1249 16.0488 12.004 16.0489C9.88279 16.0489 7.93648 15.6815 6.50049 15.0666C5.94417 14.8283 5.45077 14.5448 5.0498 14.2207V16.6336Z" fill="#15C674"/>
</svg>
