<svg width="24" height="24" viewBox="0 0 24 24" fill="none" xmlns="http://www.w3.org/2000/svg">
<path d="M6.87105 11.9972C7.41612 11.6825 8.08789 11.6825 8.63296 11.9972L10.5669 13.1134C11.112 13.4281 11.4474 14.0102 11.4474 14.6395V16.872C11.4474 17.5014 11.112 18.0834 10.5669 18.3981L8.63296 19.5144C8.08789 19.8291 7.41611 19.8291 6.87105 19.5144L4.93709 18.3981C4.39208 18.0834 4.05664 17.5014 4.05664 16.872V14.6395C4.05664 14.0102 4.39216 13.4281 4.93709 13.1134L6.87105 11.9972ZM15.3689 11.9445C15.914 11.6298 16.5858 11.6298 17.1308 11.9445L19.0648 13.0608C19.6098 13.3755 19.9452 13.9575 19.9452 14.5869V16.8194C19.9452 17.4488 19.6099 18.0308 19.0648 18.3455L17.1308 19.4618C16.5858 19.7764 15.914 19.7764 15.3689 19.4618L13.435 18.3455C12.8899 18.0308 12.5545 17.4488 12.5545 16.8194V14.5869C12.5545 13.9576 12.89 13.3755 13.435 13.0608L15.3689 11.9445ZM11.0466 4.48602C11.5917 4.17133 12.2634 4.17133 12.8085 4.48602L14.7425 5.60227C15.2875 5.91698 15.6229 6.49901 15.6229 7.12838V9.36088C15.6229 9.99028 15.2876 10.5723 14.7425 10.887L12.8085 12.0032C12.2635 12.3179 11.5917 12.3179 11.0466 12.0032L9.11266 10.887C8.56764 10.5723 8.2322 9.99024 8.2322 9.36088V7.12838C8.2322 6.49908 8.56772 5.917 9.11266 5.60227L11.0466 4.48602Z" fill="#15C674"/>
</svg>
