<svg width="24" height="24" viewBox="0 0 24 24" fill="none" xmlns="http://www.w3.org/2000/svg">
<path d="M14.5481 3.53309C15.1034 3.70017 15.4181 4.28578 15.251 4.84109L10.7603 19.7659C10.5933 20.3212 10.0076 20.6359 9.45233 20.4688C8.89703 20.3018 8.58231 19.7161 8.74939 19.1608L13.24 4.23603C13.4071 3.68072 13.9927 3.366 14.5481 3.53309Z" fill="#15C674"/>
<path d="M8.18391 6.78404C8.62574 7.11541 8.71529 7.74222 8.38391 8.18404L5.52148 12.0006L8.38391 15.8172C8.71529 16.259 8.62574 16.8858 8.18391 17.2172C7.74209 17.5486 7.11529 17.459 6.78391 17.0172L3.47148 12.6006C3.20482 12.2451 3.20482 11.7562 3.47148 11.4006L6.78391 6.98404C7.11529 6.54222 7.74209 6.45267 8.18391 6.78404Z" fill="#15C674"/>
<path d="M17.2171 6.98404C16.8857 6.54222 16.2589 6.45267 15.8171 6.78404C15.3752 7.11541 15.2857 7.74222 15.6171 8.18404L18.4795 12.0006L15.6171 15.8172C15.2857 16.259 15.3752 16.8858 15.8171 17.2172C16.2589 17.5486 16.8857 17.459 17.2171 17.0172L20.5295 12.6006C20.7961 12.2451 20.7961 11.7562 20.5295 11.4006L17.2171 6.98404Z" fill="#15C674"/>
</svg>
