<svg width="25" height="24" viewBox="0 0 25 24" fill="none" xmlns="http://www.w3.org/2000/svg">
<path fill-rule="evenodd" clip-rule="evenodd" d="M13.2873 4.00195H8.62572C7.92778 4.00195 7.25843 4.2829 6.76492 4.783C6.2714 5.28309 5.99414 5.96137 5.99414 6.66862V17.3353C5.99414 18.0425 6.2714 18.7208 6.76492 19.2209C7.25843 19.721 7.92778 20.0019 8.62572 20.0019H11.0644C10.9977 19.8153 10.9834 19.605 11.0399 19.3893L11.3422 18.2358L11.6142 17.3024C11.647 17.1771 11.8586 16.7545 11.9501 16.6629L13.2779 15.3083L17.4267 11.161C17.8518 10.736 18.4493 10.5884 18.9941 10.7182V9.75005H15.1383C14.6483 9.75005 14.1777 9.55618 13.8304 9.21018C13.4829 8.86409 13.2873 8.39412 13.2873 7.90355V4.00195ZM8.73803 11.7541C8.73803 11.3675 9.05143 11.0541 9.43803 11.0541H13.7818C14.1684 11.0541 14.4818 11.3675 14.4818 11.7541C14.4818 12.1407 14.1684 12.4541 13.7818 12.4541H9.43803C9.05143 12.4541 8.73803 12.1407 8.73803 11.7541ZM9.43803 14.0541C9.05143 14.0541 8.73803 14.3675 8.73803 14.7541C8.73803 15.1407 9.05143 15.4541 9.43803 15.4541H11.0845C11.4711 15.4541 11.7845 15.1407 11.7845 14.7541C11.7845 14.3675 11.4711 14.0541 11.0845 14.0541H9.43803Z" fill="#15C674"/>
<path d="M18.9081 8.35005C18.878 8.23392 18.8402 8.11973 18.7948 8.00828C18.6623 7.68335 18.4677 7.38818 18.2222 7.13973L15.8977 4.78417C15.6525 4.53542 15.3612 4.33825 15.0405 4.204C14.9254 4.15582 14.8074 4.11609 14.6873 4.08499V7.90355C14.6873 8.02111 14.7342 8.13439 14.8184 8.21831C14.9028 8.30233 15.0178 8.35005 15.1383 8.35005H18.9081Z" fill="#15C674"/>
<path d="M13.0923 19.2111L13.4242 17.9447C13.5141 17.6013 13.6939 17.2881 13.9449 17.0372L18.1376 12.8461C18.4891 12.4948 19.0589 12.4948 19.4103 12.8463L19.8254 13.2614C20.1769 13.6129 20.1768 14.1828 19.8253 14.5342L15.638 18.7207C15.3882 18.9704 15.0767 19.1496 14.7352 19.2399L13.4592 19.5772C13.2371 19.6359 13.0341 19.4334 13.0923 19.2111Z" fill="#15C674"/>
</svg>
