<svg width="24" height="24" viewBox="0 0 24 24" fill="none" xmlns="http://www.w3.org/2000/svg">
<path d="M8.34766 14.8701C8.72898 16.5559 9.4115 18.165 10.3633 19.625C7.79466 19.0763 5.69477 17.2649 4.74609 14.8701H8.34766Z" fill="#15C674"/>
<path d="M19.2529 14.8701C18.304 17.2653 16.2042 19.0769 13.6348 19.625C14.5866 18.1648 15.2702 16.5562 15.6514 14.8701H19.2529Z" fill="#15C674"/>
<path d="M14.21 14.8701C13.7891 16.5379 13.0417 18.1187 12 19.5234C10.9582 18.1186 10.2102 16.5379 9.78906 14.8701H14.21Z" fill="#15C674"/>
<path d="M19.6611 10.5303C19.7518 11.006 19.7998 11.4969 19.7998 11.999L19.79 12.4004C19.7716 12.764 19.7277 13.1209 19.6611 13.4697H15.8945C15.9412 13.0944 15.9761 12.7168 15.9932 12.3369L16.0049 12C15.9943 11.5067 15.957 11.0163 15.8965 10.5303H19.6611Z" fill="#15C674"/>
<path d="M8.10352 10.5303C8.04303 11.0163 8.00572 11.5067 7.99512 12L8.00586 12.3369C8.02292 12.7168 8.05776 13.0944 8.10449 13.4697H4.33887C4.27231 13.1209 4.22838 12.764 4.20996 12.4004L4.2002 11.999C4.20021 11.4968 4.24916 11.006 4.33984 10.5303H8.10352Z" fill="#15C674"/>
<path d="M14.4844 10.5303C14.5515 11.0158 14.5918 11.5063 14.6035 12C14.5918 12.4937 14.5516 12.9842 14.4844 13.4697H9.51465C9.44741 12.9842 9.40727 12.4937 9.39551 12C9.40725 11.5063 9.44747 11.0158 9.51465 10.5303H14.4844Z" fill="#15C674"/>
<path d="M13.6338 4.37109C16.2045 4.91902 18.3053 6.73319 19.2539 9.12988H15.6523C15.2708 7.44241 14.5868 5.83228 13.6338 4.37109Z" fill="#15C674"/>
<path d="M10.3652 4.37109C9.41233 5.83217 8.72912 7.44258 8.34766 9.12988H4.74805C5.69677 6.73401 7.79532 4.91924 10.3652 4.37109Z" fill="#15C674"/>
<path d="M12 4.47461C13.0422 5.87977 13.7893 7.46139 14.21 9.12988H9.78906C10.21 7.46137 10.9578 5.8798 12 4.47461Z" fill="#15C674"/>
</svg>
