<svg width="24" height="24" viewBox="0 0 24 24" fill="none" xmlns="http://www.w3.org/2000/svg">
<path fill-rule="evenodd" clip-rule="evenodd" d="M5.50273 4.94531C4.01157 4.94531 2.80273 6.14843 2.80273 7.63254V14.5071C2.80273 15.9912 4.01157 17.1943 5.50273 17.1943H16.2664C17.7576 17.1943 18.9664 15.9912 18.9664 14.5071V7.63254C18.9664 6.14843 17.7576 4.94531 16.2664 4.94531H5.50273ZM4.88064 13.5501C5.57355 13.218 6.46259 13.0684 7.19973 13.0684C7.93687 13.0684 8.71786 13.2097 9.41076 13.5417C10.1306 13.8867 10.715 14.5196 10.8488 15.412C10.9268 15.9323 10.6707 16.1124 10.2014 16.1124H5.73071L5.73778 16.1018C5.73778 16.1018 4.57769 16.2123 4.1802 15.209C3.8633 14.4092 4.24901 14.0101 4.24901 14.0101L4.24252 14.0109C4.43585 13.8289 4.65279 13.6702 4.88064 13.5501ZM6.22904 8.69628C4.96672 9.60433 5.38565 12.1741 7.16855 12.1741C9.30904 12.1741 9.49384 8.40345 7.16856 8.40345C6.84155 8.40345 6.43865 8.5455 6.22904 8.69628ZM11.2178 8.32246C10.8312 8.32246 10.5178 8.63586 10.5178 9.02246C10.5178 9.40906 10.8312 9.72246 11.2178 9.72246H15.5128C15.8994 9.72246 16.2128 9.40906 16.2128 9.02246C16.2128 8.63586 15.8994 8.32246 15.5128 8.32246H11.2178ZM10.5178 11.6436C10.5178 11.257 10.8312 10.9436 11.2178 10.9436H14.0667C14.4533 10.9436 14.7667 11.257 14.7667 11.6436C14.7667 12.0302 14.4533 12.3436 14.0667 12.3436H11.2178C10.8312 12.3436 10.5178 12.0302 10.5178 11.6436Z" fill="#15C674"/>
<path d="M8.5765 19.2952C7.58445 19.2952 6.71737 18.7601 6.24805 17.9629H17.727C17.9173 17.9629 18.1013 17.9363 18.2757 17.8867C19.0816 17.8039 19.7102 17.123 19.7102 16.2952V16.2237C19.7213 16.1384 19.727 16.0513 19.727 15.9629V7.92969C20.5523 8.39162 21.1102 9.27431 21.1102 10.2873V16.2952C21.1102 17.952 19.767 19.2952 18.1102 19.2952H8.5765Z" fill="#15C674"/>
</svg>
