<svg width="24" height="24" viewBox="0 0 24 24" fill="none" xmlns="http://www.w3.org/2000/svg">
<path d="M12.3057 19.1399C12.212 19.4394 11.7884 19.4393 11.6946 19.1399L9.03428 10.5989H14.9661L12.3057 19.1399Z" fill="#15C674"/>
<path d="M12.7229 4.63477C12.8488 4.63477 12.9631 4.70877 13.0149 4.82352L14.8482 8.89069H9.15108L10.9844 4.82352C11.0362 4.70866 11.1515 4.63477 11.2775 4.63477H12.7229Z" fill="#15C674"/>
<path d="M14.6977 18.5559C14.5611 18.7646 14.2385 18.6096 14.316 18.3724L16.8565 10.5989H19.8974L14.6977 18.5559Z" fill="#15C674"/>
<path d="M17.0139 4.63477C17.0863 4.63482 17.154 4.67198 17.1933 4.73279L19.8818 8.89069H16.7292L14.9073 4.93824C14.8423 4.79687 14.9458 4.63504 15.1013 4.63477H17.0139Z" fill="#15C674"/>
<path d="M9.30225 18.5559C9.43885 18.7646 9.76144 18.6096 9.68394 18.3724L7.14353 10.5989H4.10254L9.30225 18.5559Z" fill="#15C674"/>
<path d="M6.98605 4.63477C6.91364 4.63482 6.846 4.67198 6.80668 4.73279L4.11818 8.89069H7.27076L9.09264 4.93824C9.1577 4.79687 9.05422 4.63504 8.89866 4.63477H6.98605Z" fill="#15C674"/>
</svg>
