<svg width="24" height="24" viewBox="0 0 24 24" fill="none" xmlns="http://www.w3.org/2000/svg">
<path fill-rule="evenodd" clip-rule="evenodd" d="M12.7931 4H8.13158C7.43364 4 6.76429 4.28095 6.27078 4.78105C5.77726 5.28114 5.5 5.95942 5.5 6.66666V17.3334C5.5 18.0406 5.77726 18.7189 6.27078 19.2189C6.76429 19.719 7.43364 20 8.13158 20H15.8684C16.5663 20 17.2357 19.719 17.7292 19.2189C18.2228 18.7189 18.5 18.0406 18.5 17.3334V9.74848H14.6441C14.1541 9.74848 13.6835 9.55461 13.3362 9.20861C12.9888 8.86252 12.7931 8.39255 12.7931 7.90198V4ZM8.8 11.9746C8.8 11.588 9.1134 11.2746 9.5 11.2746H14.5C14.8866 11.2746 15.2 11.588 15.2 11.9746C15.2 12.3612 14.8866 12.6746 14.5 12.6746H9.5C9.1134 12.6746 8.8 12.3612 8.8 11.9746ZM9.5 14.2746C9.1134 14.2746 8.8 14.588 8.8 14.9746C8.8 15.3612 9.1134 15.6746 9.5 15.6746H13.2178C13.6044 15.6746 13.9178 15.3612 13.9178 14.9746C13.9178 14.588 13.6044 14.2746 13.2178 14.2746H9.5Z" fill="#15C674"/>
<path d="M18.414 8.34848C18.384 8.23222 18.3461 8.1179 18.3006 8.00633C18.1682 7.6814 17.9736 7.38622 17.7281 7.13777L15.4035 4.78222C15.1583 4.53347 14.867 4.33629 14.5464 4.20205C14.4313 4.15387 14.3132 4.11413 14.1931 4.08303V7.90198C14.1931 8.01954 14.24 8.13282 14.3242 8.21674C14.4086 8.30076 14.5236 8.34848 14.6441 8.34848H18.414Z" fill="#15C674"/>
</svg>
