<svg width="24" height="24" viewBox="0 0 24 24" fill="none" xmlns="http://www.w3.org/2000/svg">
<path fill-rule="evenodd" clip-rule="evenodd" d="M17.5605 6.87109C18.8589 6.87139 19.9121 7.92422 19.9121 9.22266V10.4385H20.3613C20.6374 10.4385 20.8613 10.6624 20.8613 10.9385V13.0625L20.8516 13.1631C20.8049 13.3909 20.6029 13.5625 20.3613 13.5625H19.9121V14.7773C19.9121 16.0758 18.8589 17.1286 17.5605 17.1289H6.4541C5.1555 17.1289 4.10156 16.076 4.10156 14.7773V9.22266C4.10156 7.92403 5.1555 6.87109 6.4541 6.87109H17.5605ZM7.4873 9.42773C7.10071 9.42773 6.78711 9.74133 6.78711 10.1279V13.8721C6.78714 14.2586 7.10073 14.5723 7.4873 14.5723C7.87388 14.5723 8.18746 14.2586 8.1875 13.8721V10.1279C8.1875 9.74133 7.8739 9.42773 7.4873 9.42773ZM10.5107 9.42773C10.1241 9.42773 9.81055 9.74133 9.81055 10.1279V13.8721C9.81058 14.2586 10.1242 14.5723 10.5107 14.5723C10.8973 14.5723 11.2109 14.2586 11.2109 13.8721V10.1279C11.2109 9.74133 10.8973 9.42773 10.5107 9.42773ZM13.5283 9.42773C13.1417 9.42773 12.8281 9.74133 12.8281 10.1279V13.8721C12.8282 14.2586 13.1417 14.5723 13.5283 14.5723C13.9149 14.5723 14.2285 14.2586 14.2285 13.8721V10.1279C14.2285 9.74133 13.9149 9.42773 13.5283 9.42773ZM16.5264 9.42773C16.1398 9.42773 15.8262 9.74133 15.8262 10.1279V13.8721C15.8262 14.2586 16.1398 14.5723 16.5264 14.5723C16.9129 14.5723 17.2265 14.2586 17.2266 13.8721V10.1279C17.2266 9.74133 16.913 9.42773 16.5264 9.42773Z" fill="#15C674"/>
</svg>
