<svg width="24" height="24" viewBox="0 0 24 24" fill="none" xmlns="http://www.w3.org/2000/svg">
<path d="M17.2362 16.8804C14.3417 19.1916 9.87979 19.3488 6.76356 16.8804V13.2603L11.5721 15.2896C11.8456 15.4049 12.1542 15.4049 12.4276 15.2896L17.2352 13.2603L17.2362 16.8804Z" fill="#15C674"/>
<path d="M11.6522 5.62549C11.8759 5.53109 12.1287 5.53109 12.3524 5.62549L20.7831 9.18311C21.3531 9.42398 21.3531 10.2313 20.7831 10.4722L19.7997 10.8872V14.6997C19.7997 15.0863 19.4861 15.3999 19.0995 15.3999C18.713 15.3998 18.3993 15.0862 18.3993 14.6997V11.478L12.3915 14.0142C12.1429 14.1191 11.8617 14.1191 11.6132 14.0142L3.22156 10.4722C2.6514 10.2314 2.65141 9.42393 3.22156 9.18311L11.6522 5.62549Z" fill="#15C674"/>
</svg>
