<svg width="24" height="24" viewBox="0 0 24 24" fill="none" xmlns="http://www.w3.org/2000/svg">
<path d="M10.127 4.71953C10.127 4.05679 10.6642 3.51953 11.327 3.51953H12.777C13.4397 3.51953 13.977 4.05679 13.977 4.71953V17.7287C13.977 18.3915 13.4397 18.9287 12.777 18.9287H11.327C10.6642 18.9287 10.127 18.3915 10.127 17.7287V4.71953Z" fill="#15C674"/>
<path d="M4.25879 12.2312C4.25879 11.5685 4.79605 11.0312 5.45879 11.0312H6.90879C7.57153 11.0312 8.10879 11.5685 8.10879 12.2312V17.5727C8.10879 18.2354 7.57153 18.7727 6.90879 18.7727H5.45879C4.79605 18.7727 4.25879 18.2354 4.25879 17.5727V12.2312Z" fill="#15C674"/>
<path d="M17.2151 8.96777C16.5524 8.96777 16.0151 9.50503 16.0151 10.1678V17.5733C16.0151 18.236 16.5524 18.7733 17.2151 18.7733H18.6651C19.3279 18.7733 19.8651 18.236 19.8651 17.5733V10.1678C19.8651 9.50503 19.3279 8.96777 18.6651 8.96777H17.2151Z" fill="#15C674"/>
</svg>
