<svg width="24" height="24" viewBox="0 0 24 24" fill="none" xmlns="http://www.w3.org/2000/svg">
<path d="M9.94305 11.9528C6.57199 11.9528 5.77988 6.94414 8.16665 5.17426C8.56298 4.88037 9.32477 4.60352 9.94308 4.60352C14.3397 4.60352 13.9903 11.9528 9.94305 11.9528Z" fill="#15C674"/>
<path d="M9.94953 12.9072C8.54774 12.9072 6.98947 13.1321 5.72395 13.8658C4.41635 14.6238 3.47084 15.8998 3.32099 17.8445C3.26589 18.5596 3.85015 19.0997 4.50011 19.0997H15.3989C16.0489 19.0997 16.6332 18.5596 16.5781 17.8445C16.4282 15.8998 15.4827 14.6238 14.1751 13.8658C12.9096 13.1321 11.3513 12.9072 9.94953 12.9072Z" fill="#15C674"/>
<path d="M17.5505 19.0995H19.3969C20.0092 19.0995 20.5597 18.5753 20.5077 17.8815C20.3666 15.9945 19.4758 14.7563 18.2439 14.0208C17.3199 13.4691 16.2302 13.2139 15.1719 13.127C18.9694 15.5449 18.4238 18.8038 17.5505 19.0995Z" fill="#15C674"/>
<path d="M13.0635 11.8305C13.8287 11.0785 14.575 10.0646 14.575 8.30375C14.575 6.54288 13.9037 5.46783 13.1377 4.81445C13.3881 4.74776 13.6463 4.70703 13.8833 4.70703C18.2414 4.70703 17.895 11.9387 13.8833 11.9387C13.5902 11.9387 13.3168 11.9008 13.0635 11.8305Z" fill="#15C674"/>
</svg>
