<svg width="24" height="24" viewBox="0 0 24 24" fill="none" xmlns="http://www.w3.org/2000/svg">
<path d="M5.51456 6.53112C5.9365 6.00125 6.63348 5.77549 7.29092 5.95202C7.59511 6.04033 7.96825 6.12849 8.25284 6.18737C8.32592 6.20026 8.38962 6.21159 8.44717 6.22155C8.52093 6.23431 8.5848 6.24568 8.64542 6.2567C9.02813 6.30579 9.28335 6.65918 9.23428 7.03209C9.1851 7.4147 8.83174 7.67002 8.45889 7.62096C8.32158 7.60135 7.86789 7.57213 7.60733 7.63561C6.94712 7.9236 6.42485 8.93663 6.37393 9.33288C6.30947 9.83463 6.32282 10.7048 8.23038 11.8837C8.67599 12.159 9.74922 12.2772 10.1903 12.2626C11.0475 12.2341 12.104 11.8037 12.8144 11.7098C13.3026 11.6453 13.443 11.773 13.9853 12.1669C14.006 12.1819 14.0263 12.1978 14.0468 12.2128C13.9592 12.2642 13.8806 12.3339 13.8202 12.4237C13.6048 12.7445 13.6899 13.1798 14.0106 13.3954L18.1024 16.1424C17.9701 16.4566 17.7782 16.7235 17.5331 16.9423C17.5184 16.9309 17.505 16.9174 17.4892 16.9071L13.6317 14.4022C13.3076 14.1919 12.8745 14.2842 12.664 14.6083C12.4537 14.9324 12.5461 15.3655 12.87 15.576L16.4013 17.87C16.2174 18.1507 15.9788 18.3923 15.6952 18.579C15.6524 18.5302 15.6043 18.4847 15.5468 18.4481L12.3515 16.4227C12.0251 16.2158 11.5928 16.3124 11.3856 16.6385C11.1787 16.965 11.275 17.3983 11.6015 17.6053L14.0175 19.1366C13.5013 19.6709 12.6942 20.0056 11.9433 20.0057C11.6784 20.0057 11.4132 19.9563 11.1679 19.868C11.001 19.7895 8.17453 18.4453 6.62393 16.8163C5.48554 15.619 3.78759 13.1063 2.87491 11.7128C2.4924 11.1143 2.52159 10.3394 2.9628 9.78014L5.51456 6.53112Z" fill="#15C674"/>
<path d="M17.4013 13.9852C17.5001 14.0254 17.6011 14.0625 17.7069 14.0917C18.1975 14.2266 18.727 14.221 19.4218 14.162C19.4209 14.1666 19.4218 14.172 19.4208 14.1766C19.342 14.5566 19.2047 14.8456 19.0224 15.0751L17.4013 13.9852Z" fill="#15C674"/>
<path d="M17.244 5.95788C17.7587 5.70542 18.2348 5.54111 18.8368 5.91979C19.157 6.12352 19.2153 6.19146 19.5937 6.65709L19.7587 6.8612C20.312 7.53102 21.5158 9.4918 21.6327 9.89049L21.662 9.97838L21.6425 9.96862C21.759 10.289 21.7786 10.5804 21.5165 10.9881C21.2344 11.4253 19.5749 12.5611 19.1962 12.6971C18.9729 12.7845 18.8368 12.8231 18.6718 12.8231C18.5942 12.8231 18.5069 12.8132 18.4003 12.7938C18.0216 12.7453 17.6606 12.417 16.913 11.9413L16.748 11.8339C16.515 11.6882 16.2236 11.4848 15.913 11.2616C15.8756 11.2351 15.8363 11.2073 15.7958 11.1786C15.0797 10.6697 13.8842 9.83558 13.3603 9.93639C12.9816 10.0141 12.8159 10.0826 12.5731 10.1991C12.418 10.2767 12.2433 10.354 12.0009 10.4413L11.8554 10.4999L11.8466 10.5028C11.0901 10.7841 10.1798 11.115 9.38663 10.8153C9.02738 10.6794 7.99876 10.4666 7.95987 9.61217C7.95987 9.42771 7.94685 9.03292 8.47647 8.67565C9.00625 8.31835 9.62051 8.06056 10.244 7.62975C11.1276 7.09577 11.811 6.7407 12.5683 6.50768C13.476 6.23066 14.2637 6.43796 14.9374 6.68834L14.9696 6.70006C15.3289 6.83597 15.6423 6.81254 15.9433 6.84166C16.0889 6.85137 16.3215 6.65693 16.5448 6.46276C16.561 6.44878 16.5775 6.43482 16.5937 6.42077C16.7914 6.24935 16.9928 6.07453 17.244 5.95788Z" fill="#15C674"/>
</svg>
