<svg width="24" height="24" viewBox="0 0 24 24" fill="none" xmlns="http://www.w3.org/2000/svg">
<path fill-rule="evenodd" clip-rule="evenodd" d="M19.2313 6.53683C20.0494 7.33285 20.5771 8.49341 20.6787 10.0149C20.826 12.2199 19.7028 14.1944 18.1982 15.8653C16.6871 17.5433 14.7034 19.0133 12.9305 20.2225C12.3818 20.5967 11.6621 20.6154 11.0947 20.2599C9.16614 19.0513 7.17511 17.5746 5.69239 15.8812C4.21276 14.1913 3.17482 12.2094 3.3214 10.0149C3.42283 8.49645 3.9419 7.33674 4.75062 6.54013C5.55565 5.74716 6.59093 5.37008 7.62554 5.31025C9.22345 5.21784 10.9532 5.88536 11.986 7.12308C12.9964 5.87874 14.7352 5.21714 16.3341 5.30927C17.3737 5.36917 18.4179 5.74533 19.2313 6.53683Z" fill="#15C674"/>
</svg>
