<svg width="24" height="24" viewBox="0 0 24 24" fill="none" xmlns="http://www.w3.org/2000/svg">
<path d="M13.1376 4.47765C12.5235 3.8512 11.4769 3.8512 10.8628 4.47765L4.42003 11.0496C3.95528 11.5236 3.89971 12.1652 4.1463 12.6735C4.38954 13.1749 4.91434 13.5311 5.55745 13.5311H5.85133V19.0347C5.85133 19.5704 6.28558 20.0047 6.82126 20.0047H9.78063C10.3163 20.0047 10.7506 19.5704 10.7506 19.0347V15.3807H13.2498V19.0347C13.2498 19.5704 13.684 20.0047 14.2197 20.0047H17.1791C17.7147 20.0047 18.149 19.5704 18.149 19.0347V13.5311H18.4429C19.086 13.5311 19.6108 13.1749 19.8541 12.6735C20.1007 12.1652 20.0451 11.5236 19.5804 11.0496L13.1376 4.47765Z" fill="#15C674"/>
</svg>
