<svg width="24" height="24" viewBox="0 0 24 24" fill="none" xmlns="http://www.w3.org/2000/svg">
<path fill-rule="evenodd" clip-rule="evenodd" d="M15.9521 4.94727C17.6641 4.94727 19.0525 6.33497 19.0527 8.04688V15.9531C19.0527 17.6652 17.6642 19.0537 15.9521 19.0537H8.0459C6.33399 19.0535 4.94629 17.6651 4.94629 15.9531V8.04688C4.9465 6.3351 6.33413 4.94748 8.0459 4.94727H15.9521ZM15.293 7.48828C14.8788 7.48828 14.543 7.82407 14.543 8.23828V14.4248C14.5432 14.8388 14.8789 15.1748 15.293 15.1748C15.707 15.1748 16.0427 14.8388 16.043 14.4248V8.23828C16.043 7.82407 15.7072 7.48828 15.293 7.48828ZM8.70605 7.48828C8.29184 7.48828 7.95605 7.82407 7.95605 8.23828V13.1875C7.95626 13.6015 8.29197 13.9375 8.70605 13.9375C9.12014 13.9375 9.45585 13.6015 9.45605 13.1875V8.23828C9.45605 7.82407 9.12027 7.48828 8.70605 7.48828ZM12 7.48828C11.5858 7.48828 11.25 7.82407 11.25 8.23828V11.5371C11.25 11.9513 11.5858 12.2871 12 12.2871C12.4142 12.2871 12.75 11.9513 12.75 11.5371V8.23828C12.75 7.82407 12.4142 7.48828 12 7.48828Z" fill="#15C674"/>
</svg>
