<svg width="24" height="24" viewBox="0 0 24 24" fill="none" xmlns="http://www.w3.org/2000/svg">
<path fill-rule="evenodd" clip-rule="evenodd" d="M11.7842 4.67517C12.8333 4.01703 14.075 3.73333 15.3057 3.87243C16.5363 4.01161 17.6838 4.56505 18.5596 5.44079C19.435 6.31643 19.9878 7.46335 20.127 8.69372C20.2661 9.92441 19.9833 11.167 19.3252 12.2162C18.667 13.2652 17.6714 14.0598 16.5029 14.4701C15.4347 14.8451 14.2793 14.877 13.1953 14.5687L12.3389 15.4261C12.2452 15.5199 12.1179 15.5726 11.9854 15.5726H10.9561V17.3666C10.9561 17.6426 10.7321 17.8664 10.4561 17.8666H8.66211V19.6605C8.66211 19.9366 8.43814 20.1604 8.16211 20.1605H5.10352C4.76053 20.1605 4.43551 20.0442 4.19531 19.8041C3.95521 19.5639 3.83887 19.2388 3.83887 18.8959V16.6019C3.83896 16.4694 3.89167 16.3421 3.98535 16.2484L9.42969 10.8031C9.12186 9.71943 9.15442 8.56429 9.5293 7.49646C9.93962 6.32789 10.735 5.33338 11.7842 4.67517ZM15.5596 6.87439C14.6948 6.87439 13.9932 7.576 13.9932 8.44079C13.9933 9.30552 14.6948 10.0062 15.5596 10.0062C16.4241 10.0059 17.1249 9.30535 17.125 8.44079C17.1249 7.57617 16.4241 6.87466 15.5596 6.87439Z" fill="#15C674"/>
</svg>
