<svg width="24" height="24" viewBox="0 0 24 24" fill="none" xmlns="http://www.w3.org/2000/svg">
<path d="M18.416 17.1406C18.4026 17.1609 18.3885 17.1809 18.3721 17.1992L18.3711 17.2002C18.3687 17.2029 18.3645 17.2084 18.3584 17.2158L18.3555 17.2197C18.3426 17.2353 18.3226 17.2592 18.2998 17.29C18.2497 17.3579 18.1819 17.4595 18.1133 17.5859C17.9738 17.8431 17.8468 18.1809 17.8467 18.5498C17.8467 19.0118 18.0442 19.4709 18.2178 19.7783L18.2607 19.8701C18.2648 19.8803 18.267 19.8911 18.2705 19.9014H8.14453C7.75477 19.9013 7.38461 19.7515 7.11523 19.4902C6.88025 19.2622 6.73889 18.9661 6.70703 18.6553L6.7002 18.5215C6.7002 18.1625 6.84689 17.8134 7.11523 17.5527C7.38462 17.2914 7.75471 17.1406 8.14453 17.1406H18.416Z" fill="#15C674"/>
<path fill-rule="evenodd" clip-rule="evenodd" d="M16.7051 4.1084C17.7133 4.21091 18.5 5.06227 18.5 6.09766V15.7402H8.14453C7.39684 15.7403 6.67559 16.0288 6.14062 16.5479C5.8592 16.821 5.64338 17.1474 5.5 17.5029V6.09766C5.50018 4.99312 6.3957 4.09872 7.5 4.09863L16.501 4.09766L16.7051 4.1084ZM9 10.7021C8.6134 10.7021 8.2998 11.0157 8.2998 11.4023C8.2998 11.7889 8.6134 12.1025 9 12.1025H15L15.1406 12.0879C15.4598 12.0228 15.7002 11.7408 15.7002 11.4023C15.7002 11.0639 15.4598 10.7819 15.1406 10.7168L15 10.7021H9ZM9 7.70215C8.6134 7.70215 8.2998 8.01574 8.2998 8.40234C8.2998 8.78894 8.6134 9.10254 9 9.10254H15L15.1406 9.08789C15.4598 9.02277 15.7002 8.74075 15.7002 8.40234C15.7002 8.06393 15.4598 7.78192 15.1406 7.7168L15 7.70215H9Z" fill="#15C674"/>
</svg>
