<svg width="24" height="24" viewBox="0 0 24 24" fill="none" xmlns="http://www.w3.org/2000/svg">
<path d="M19.916 7.96973C20.6326 8.45517 21.1035 9.27628 21.1035 10.207V16.1348C21.1034 17.7915 19.7603 19.1348 18.1035 19.1348H8.57031C7.62453 19.1348 6.7918 18.6483 6.30957 17.9121H17.916C19.0204 17.912 19.9159 17.0165 19.916 15.9121V7.96973Z" fill="#15C674"/>
<path d="M13.4756 10.0566C13.6818 10.0567 13.8504 10.2251 13.8506 10.4346C13.8504 10.6441 13.6819 10.8115 13.4756 10.8115C13.2694 10.8113 13.0998 10.644 13.0996 10.4346C13.0998 10.2252 13.2694 10.0568 13.4756 10.0566Z" fill="#15C674"/>
<path fill-rule="evenodd" clip-rule="evenodd" d="M16.2598 4.86523C17.7509 4.86523 18.96 6.07426 18.96 7.56543V14.4727C18.9599 15.9637 17.7509 17.1729 16.2598 17.1729H10.5967C10.921 16.967 11.1442 16.5968 11.0762 16.1367C10.755 13.966 8.70841 13.1827 7.18555 13.1826C5.96747 13.1827 4.35878 13.6268 3.58789 14.9727C3.30963 15.4587 3.35212 15.9582 3.56641 16.3584C3.0906 15.8716 2.79595 15.207 2.7959 14.4727V7.56543C2.7959 6.07436 4.00506 4.86539 5.49609 4.86523H16.2598ZM14.2705 7.08887C13.5127 6.91011 12.715 6.99325 12.0098 7.32324C11.3049 7.65332 10.7319 8.21208 10.3838 8.9082C10.0356 9.60462 9.93277 10.399 10.0918 11.1611C10.251 11.9232 10.6632 12.6095 11.2607 13.1084C11.8586 13.6073 12.6083 13.8899 13.3867 13.9102C13.8792 13.9229 14.3661 13.8308 14.8145 13.6426C15.1129 13.5171 15.2529 13.1726 15.1279 12.874C15.0022 12.5758 14.6579 12.4353 14.3594 12.5605C14.0633 12.6847 13.7421 12.7457 13.417 12.7373C12.903 12.7239 12.4075 12.5374 12.0127 12.208C11.6182 11.8786 11.3455 11.4249 11.2402 10.9219C11.1352 10.4184 11.2036 9.89262 11.4336 9.43262C11.6636 8.97288 12.0422 8.6037 12.5078 8.38574C12.9734 8.1679 13.4996 8.11355 14 8.23145C14.4342 8.33395 14.8595 8.55741 15.1719 8.9082C15.4769 9.25112 15.703 9.7467 15.7031 10.4541C15.703 10.6136 15.5551 10.7957 15.3301 10.7959C15.1696 10.7958 15.0746 10.7408 15.0195 10.6963C15.0134 10.6912 15.0083 10.6846 15.0029 10.6797C15.0156 10.5998 15.0244 10.518 15.0244 10.4346C15.0242 9.57923 14.3321 8.88386 13.4756 8.88379C12.6192 8.88396 11.927 9.5793 11.9268 10.4346C11.9269 11.2899 12.6191 11.9852 13.4756 11.9854C13.8175 11.9853 14.1317 11.8722 14.3877 11.6846C14.6133 11.8385 14.9263 11.9686 15.3301 11.9688C16.2137 11.9686 16.8759 11.2512 16.876 10.4541C16.8758 9.47482 16.5557 8.69787 16.0498 8.12891C15.5511 7.56842 14.8984 7.23716 14.2705 7.08887ZM7.17969 8.21484C6.96663 8.21485 6.75598 8.26072 6.58203 8.31836C6.41031 8.37532 6.22603 8.45928 6.0752 8.57031C5.32667 9.12136 5.1462 10.0971 5.3125 10.8555C5.48435 11.6384 6.09679 12.459 7.17969 12.459C7.8083 12.4589 8.30641 12.1658 8.63281 11.7471C8.94701 11.3439 9.09772 10.8361 9.10938 10.3535C9.12092 9.87136 8.9955 9.34913 8.67676 8.93164C8.34237 8.49372 7.82593 8.21491 7.17969 8.21484Z" fill="#15C674"/>
</svg>
