<svg width="24" height="24" viewBox="0 0 24 24" fill="none" xmlns="http://www.w3.org/2000/svg">
<path d="M10.3504 18.4944L10.3572 18.4945L10.5955 18.5091C10.7533 18.5186 10.9797 18.5323 11.2539 18.5488C11.8023 18.5817 12.5421 18.6255 13.3074 18.6694C14.8269 18.7564 16.4779 18.8454 16.9029 18.8454C17.5366 18.8454 18.0175 18.4191 18.2904 17.9886C18.4857 17.6806 18.6269 17.2897 18.6313 16.9096C18.7859 16.8004 18.909 16.6598 19.0033 16.5155C19.1695 16.2612 19.2719 15.9596 19.3225 15.6717C19.373 15.384 19.3773 15.0782 19.3201 14.8068C19.3063 14.7414 19.2873 14.6707 19.2611 14.5989C19.5885 14.2837 19.7697 13.8447 19.8439 13.4519C19.8986 13.1622 19.9041 12.8606 19.8547 12.5845C19.8376 12.489 19.8129 12.3912 19.7787 12.2953C19.9697 12.1277 20.1082 11.9338 20.2025 11.7199C20.3476 11.3908 20.3723 11.0489 20.3748 10.765C20.3775 10.4728 20.3447 10.0624 20.1709 9.70757C20.0809 9.52381 19.9462 9.34092 19.7464 9.20472C19.5431 9.06611 19.3005 8.99511 19.0297 8.99511H15.5809C15.4755 8.99511 15.363 8.99843 15.2646 9.00134C15.2171 9.00274 15.1729 9.00405 15.1343 9.00483C15.1118 9.00529 15.0906 9.0056 15.0707 9.00575L15.0753 8.99481C15.1486 8.81778 15.2472 8.57705 15.3478 8.32314C15.4482 8.06993 15.5519 7.8003 15.6348 7.56641C15.7118 7.34939 15.7883 7.11638 15.8111 6.96149L15.8112 6.96048C15.8704 6.5515 15.883 6.36225 15.883 6.25513V5.47149C15.883 5.10164 15.754 4.73716 15.4666 4.45014C15.2027 4.18658 14.8544 4.02449 14.4951 4.01964C14.124 4.01463 13.7583 4.1811 13.5284 4.53341C12.5957 5.96226 11.5671 7.09085 10.771 7.8622C10.3735 8.24745 10.0351 8.54242 9.79761 8.74001C9.67889 8.83878 9.58546 8.91313 9.52255 8.96218C9.49109 8.9867 9.46727 9.00489 9.45175 9.01663L9.43476 9.0294L9.43055 9.03253C9.40926 9.04818 9.38932 9.06558 9.37093 9.08455C9.10819 9.35559 8.96045 9.72213 8.96045 10.1009V17.0489C8.96045 17.3719 9.03995 17.6458 9.18375 17.8682C9.32608 18.0883 9.51357 18.2304 9.68875 18.3207C9.86177 18.4099 10.0293 18.4521 10.1497 18.4728C10.211 18.4834 10.2632 18.4888 10.3019 18.4917C10.3214 18.4931 10.3377 18.4939 10.3504 18.4944Z" fill="#15C674"/>
<path d="M5.16843 9.13867C4.31334 9.13867 3.63743 9.86345 3.69702 10.7165L4.15405 17.2589C4.20804 18.0318 4.85073 18.6311 5.62546 18.6311H6.29957C7.11419 18.6311 7.77457 17.9708 7.77457 17.1561V10.6137C7.77457 9.79905 7.11419 9.13867 6.29957 9.13867H5.16843Z" fill="#15C674"/>
</svg>
