<svg width="24" height="24" viewBox="0 0 24 24" fill="none" xmlns="http://www.w3.org/2000/svg">
<path fill-rule="evenodd" clip-rule="evenodd" d="M11.999 4.18262C15.6671 4.18262 18.6748 7.04749 18.6748 10.6221C18.6748 12.6315 17.5985 14.7068 16.3887 16.4199C15.1673 18.1493 13.7512 19.5913 12.959 20.3467C12.42 20.8605 11.589 20.8746 11.0352 20.3711C10.2361 19.6441 8.81983 18.2578 7.60059 16.5439C6.3896 14.8417 5.32422 12.7492 5.32422 10.6221C5.32424 7.04764 8.33112 4.18286 11.999 4.18262ZM12 8.54199C10.869 8.54199 9.95215 9.45889 9.95215 10.5898C9.95219 11.7208 10.8691 12.6377 12 12.6377C13.1309 12.6377 14.0478 11.7207 14.0479 10.5898C14.0479 9.45892 13.1309 8.54204 12 8.54199Z" fill="#15C674"/>
</svg>
