<svg width="24" height="24" viewBox="0 0 24 24" fill="none" xmlns="http://www.w3.org/2000/svg">
<path d="M16.7042 11.1777L8.51082 19.3711C8.00322 19.8783 7.17955 19.8783 6.67195 19.3711L5.61628 18.3154C5.14079 17.8396 5.11142 17.0866 5.52742 16.5762L5.61628 16.4775L13.8096 8.2832L16.7042 11.1777Z" fill="#15C674"/>
<path d="M17.6241 14.2197C17.8357 13.8433 18.4158 13.8699 18.5753 14.2998L18.7833 14.8623L18.8243 14.957C18.9316 15.1719 19.1173 15.3396 19.3448 15.4238L19.9073 15.6318L19.9884 15.6689C20.3637 15.8809 20.337 16.4606 19.9073 16.6201L19.9063 16.6211L19.6827 16.7031L19.6817 16.7021L19.3575 16.8232L19.2462 16.8701C19.0599 16.9641 18.9103 17.1182 18.8194 17.3066L18.7833 17.3896L18.6573 17.7266L18.6583 17.7275L18.5762 17.9512L18.5684 17.9707L18.5587 17.9893L18.5137 18.0684L18.504 18.085L18.4913 18.1006C18.2831 18.3602 17.8785 18.3612 17.67 18.1006L17.6573 18.084L17.6466 18.0664L17.6026 17.9873L17.5938 17.9707L17.587 17.9521L17.504 17.7285L17.379 17.3896C17.2956 17.1643 17.1302 16.9798 16.918 16.8721L16.8067 16.8242L16.255 16.6201C15.7969 16.4502 15.7966 15.8022 16.254 15.6318L16.4757 15.5488H16.4776L16.8175 15.4238L16.9014 15.3887C17.0885 15.2982 17.24 15.1479 17.3341 14.9629L17.3839 14.8496L17.587 14.2998L17.6241 14.2197Z" fill="#15C674"/>
<path d="M8.07722 3.11719C8.28886 2.7406 8.86898 2.76751 9.02839 3.19726L9.6573 4.89551L9.69832 4.99023C9.8056 5.20507 9.99137 5.37284 10.2188 5.45703L11.9171 6.08496L11.9981 6.12207C12.3738 6.33416 12.3459 6.91378 11.9171 7.07324L11.9161 7.07422L11.6925 7.15625L11.6915 7.15527L10.2315 7.69726L10.1202 7.74414C9.93389 7.83807 9.78432 7.99221 9.69343 8.18066L9.6573 8.26367L9.11042 9.73633L9.1114 9.7373L9.02937 9.96094L9.02253 9.97949L8.95906 10.0937L8.94539 10.1103C8.73694 10.3709 8.3323 10.3699 8.1241 10.1103L8.11238 10.0947L8.10261 10.0781L8.05769 9.99902L8.04695 9.98144L8.04011 9.96191L7.9571 9.73828L7.41218 8.26367C7.3288 8.03838 7.16334 7.85383 6.95125 7.74609L6.83992 7.69824L5.15242 7.07324C4.69449 6.90337 4.69381 6.25536 5.15144 6.08496L5.37312 6.00195H5.37507L6.85066 5.45703L6.93464 5.42187C7.12175 5.33144 7.27318 5.18112 7.36726 4.99609L7.41707 4.88281L8.04011 3.19726L8.07722 3.11719Z" fill="#15C674"/>
<path d="M16.3292 5.76465C16.8368 5.2575 17.6605 5.25732 18.168 5.76465L19.2227 6.81933C19.7302 7.32681 19.7308 8.15047 19.2237 8.6582L17.6944 10.1875L14.7999 7.29297L16.3292 5.76465Z" fill="#15C674"/>
</svg>
