<svg width="24" height="24" viewBox="0 0 24 24" fill="none" xmlns="http://www.w3.org/2000/svg">
<path d="M4.08248 7.37919C4.03324 7.54815 4.00684 7.72685 4.00684 7.91172V16.0873C4.00684 17.1366 4.85749 17.9873 5.90684 17.9873H18.0932C19.1425 17.9873 19.9932 17.1366 19.9932 16.0873V7.91172C19.9932 7.77091 19.9778 7.63367 19.9488 7.50159L13.1872 13.0289C12.479 13.6078 11.459 13.5999 10.7598 13.0103L4.08248 7.37919Z" fill="#15C674"/>
<path d="M18.977 6.22939C18.713 6.09039 18.4123 6.01172 18.0932 6.01172H5.90684C5.6324 6.01172 5.37155 6.0699 5.13596 6.17461L11.7913 11.7872C11.9017 11.8803 12.0627 11.8815 12.1745 11.7901L18.977 6.22939Z" fill="#15C674"/>
</svg>
