<svg width="24" height="24" viewBox="0 0 24 24" fill="none" xmlns="http://www.w3.org/2000/svg">
<path d="M10.8167 14.0528C11.4694 13.4002 12.5282 13.4001 13.1809 14.0528L15.0891 15.962C15.7417 16.6147 15.7418 17.6726 15.0891 18.3253L13.1809 20.2345C12.5282 20.8872 11.4694 20.8871 10.8167 20.2345L8.90848 18.3253C8.25573 17.6725 8.25573 16.6148 8.90848 15.962L10.8167 14.0528Z" fill="#15C674"/>
<path d="M5.66727 8.90244C6.32 8.24975 7.37879 8.24975 8.03152 8.90244L9.93973 10.8116C10.5924 11.4644 10.5924 12.5222 9.93973 13.1749L8.03152 15.0841C7.37878 15.7368 6.32001 15.7368 5.66727 15.0841L3.75906 13.1749C3.10636 12.5222 3.10635 11.4644 3.75906 10.8116L5.66727 8.90244Z" fill="#15C674"/>
<path d="M15.968 8.90342C16.6208 8.25067 17.6786 8.25067 18.3313 8.90342L20.2405 10.8116C20.893 11.4643 20.8928 12.5222 20.2405 13.1749L18.3313 15.0841C17.6786 15.7366 16.6208 15.7366 15.968 15.0841L14.0589 13.1749C13.4065 12.5222 13.4064 11.4643 14.0589 10.8116L15.968 8.90342Z" fill="#15C674"/>
<path d="M10.8177 3.76377C11.4703 3.11124 12.5282 3.11135 13.1809 3.76377L15.0901 5.67295C15.7426 6.32568 15.7427 7.38356 15.0901 8.03623L13.1809 9.94541C12.5282 10.5976 11.4703 10.5978 10.8177 9.94541L8.90848 8.03623C8.25616 7.3836 8.25625 6.32564 8.90848 5.67295L10.8177 3.76377Z" fill="#15C674"/>
</svg>
