<svg width="24" height="24" viewBox="0 0 24 24" fill="none" xmlns="http://www.w3.org/2000/svg">
<path d="M7.38792 7.19776C8.30827 5.40477 10.4517 4.74047 12.1754 5.71404C12.2831 5.77489 12.3238 5.91507 12.2663 6.02713L6.64152 16.93C6.15259 17.8826 5.01389 18.2355 4.09818 17.7183C3.18247 17.2011 2.8365 16.0096 3.32543 15.057L7.38792 7.19776Z" fill="#15C674"/>
<path d="M16.0115 13.9524C15.9905 13.9933 15.9795 14.0391 15.9795 14.0856L15.9797 16.0532C15.9797 17.1898 16.8586 18.1116 17.9421 18.1116C19.0245 18.1116 19.9016 17.1916 19.9015 16.0562L19.9011 8.84539C19.9011 8.84539 19.6798 8.41943 19.3052 8.4074C18.9306 8.39537 18.5509 9.00542 18.5509 9.00542L16.0115 13.9524Z" fill="#15C674"/>
<path d="M18.2017 5.71404C16.4781 4.74047 14.3346 5.40477 13.4143 7.19776L9.3518 15.057C8.86286 16.0096 9.20883 17.2011 10.1245 17.7183C11.0403 18.2355 12.179 17.8826 12.6679 16.93L18.2927 6.02713C18.3502 5.91507 18.3095 5.77489 18.2017 5.71404Z" fill="#15C674"/>
</svg>
