<svg width="25" height="24" viewBox="0 0 25 24" fill="none" xmlns="http://www.w3.org/2000/svg">
<path fill-rule="evenodd" clip-rule="evenodd" d="M18.3613 4.47751L18.7767 5.86684L20.1036 6.23408C20.6949 6.39773 20.8895 7.1386 20.455 7.5717L18.5207 9.49968C18.3157 9.70407 18.0162 9.78172 17.7377 9.70271L16.4155 9.32767L14.2957 11.4475C14.3552 11.6303 14.3873 11.8255 14.3873 12.0281C14.3873 13.0641 13.5475 13.9039 12.5115 13.9039C11.4756 13.9039 10.6357 13.0641 10.6357 12.0281C10.6357 10.9922 11.4756 10.1523 12.5115 10.1523C12.754 10.1523 12.9857 10.1983 13.1984 10.2821L15.2699 8.21053L14.8742 6.88288C14.7901 6.60088 14.8677 6.29549 15.0761 6.08775L17.0301 4.14006C17.4587 3.71289 18.188 3.89777 18.3613 4.47751Z" fill="#15C674"/>
<path d="M9.14802 6.47946C10.2617 5.80433 11.5528 5.47993 12.8533 5.54844C13.2945 5.57168 13.671 5.23285 13.6943 4.79163C13.7175 4.35042 13.3787 3.9739 12.9375 3.95066C11.3163 3.86525 9.70686 4.26964 8.31859 5.11123C6.93031 5.95282 5.82738 7.19266 5.15325 8.66952C4.47911 10.1464 4.26495 11.7919 4.53862 13.3921C4.8123 14.9924 5.56114 16.4732 6.68776 17.6421C7.81438 18.811 9.26666 19.6138 10.8557 19.9462C12.4448 20.2786 14.0971 20.1252 15.5978 19.5059C17.0984 18.8865 18.378 17.83 19.2702 16.4736C20.1623 15.1173 20.6256 13.5239 20.6 11.9006C20.593 11.4589 20.2292 11.1064 19.7874 11.1134C19.3457 11.1204 18.9932 11.4842 19.0002 11.9259C19.0208 13.2281 18.6491 14.5063 17.9334 15.5944C17.2177 16.6825 16.1912 17.53 14.9874 18.0269C13.7835 18.5237 12.458 18.6468 11.1833 18.3801C9.90856 18.1135 8.74355 17.4694 7.83977 16.5317C6.93599 15.594 6.33527 14.4061 6.11572 13.1224C5.89618 11.8387 6.06798 10.5187 6.60878 9.33393C7.14957 8.14918 8.03434 7.15458 9.14802 6.47946Z" fill="#15C674"/>
<path d="M10.6656 8.80634C11.3177 8.43267 12.0679 8.26566 12.8169 8.32739C13.2573 8.36368 13.6437 8.03614 13.68 7.59581C13.7162 7.15547 13.3887 6.76909 12.9484 6.7328C11.8766 6.64447 10.8032 6.88343 9.87013 7.41809C8.93704 7.95275 8.18815 8.75795 7.72241 9.72729C7.25667 10.6966 7.09601 11.7845 7.26167 12.847C7.42732 13.9096 7.91149 14.8969 8.6502 15.6785C9.3889 16.46 10.3474 16.9991 11.3989 17.2243C12.4505 17.4496 13.5456 17.3505 14.5397 16.9401C15.5337 16.5297 16.3798 15.8273 16.9662 14.9259C17.5526 14.0244 17.8516 12.9662 17.8238 11.8911C17.8124 11.4495 17.4451 11.1007 17.0034 11.1121C16.5617 11.1235 16.2129 11.4908 16.2244 11.9325C16.2438 12.6838 16.0348 13.4234 15.625 14.0534C15.2152 14.6835 14.6238 15.1743 13.9291 15.4612C13.2344 15.748 12.469 15.8173 11.7341 15.6598C10.9991 15.5024 10.3293 15.1257 9.813 14.5794C9.29673 14.0332 8.95835 13.3432 8.84257 12.6006C8.72679 11.8579 8.83908 11.0977 9.16458 10.4202C9.49008 9.74275 10.0135 9.18001 10.6656 8.80634Z" fill="#15C674"/>
</svg>
