<svg width="24" height="24" viewBox="0 0 24 24" fill="none" xmlns="http://www.w3.org/2000/svg">
<path fill-rule="evenodd" clip-rule="evenodd" d="M16.9004 5.16016C18.5243 5.16016 19.8408 6.47665 19.8408 8.10059V15.1748C19.8407 16.7986 18.5242 18.1152 16.9004 18.1152H10.9766L8.53223 20.5596C7.67313 21.4184 6.2041 20.8095 6.2041 19.5947V17.9756C5.01812 17.5968 4.15931 16.4864 4.15918 15.1748V8.10059C4.15918 6.47665 5.47566 5.16016 7.09961 5.16016H16.9004ZM8.17383 11.9023C7.75961 11.9023 7.42383 12.2381 7.42383 12.6523C7.42383 13.0666 7.75961 13.4023 8.17383 13.4023H13.7393L13.8154 13.3984C14.1938 13.3602 14.4893 13.0408 14.4893 12.6523C14.4893 12.2639 14.1938 11.9445 13.8154 11.9062L13.7393 11.9023H8.17383ZM8.17383 9.11914C7.75961 9.11914 7.42383 9.45493 7.42383 9.86914C7.42383 10.2834 7.75961 10.6191 8.17383 10.6191H15.4785L15.5547 10.6152C15.933 10.5769 16.2285 10.2575 16.2285 9.86914C16.2285 9.48074 15.933 9.16136 15.5547 9.12305L15.4785 9.11914H8.17383Z" fill="#15C674"/>
</svg>
