<svg width="24" height="24" viewBox="0 0 24 24" fill="none" xmlns="http://www.w3.org/2000/svg">
<path d="M6.01685 10.9551C6.4046 10.964 6.71804 11.266 6.7483 11.6445L6.75025 11.7217C6.70212 13.937 8.5253 16.9434 11.9895 16.9434C15.3602 16.9427 17.233 14.0799 17.2512 11.9473L17.2473 11.7441V11.667C17.2673 11.2875 17.5715 10.977 17.9592 10.958C18.3469 10.9395 18.681 11.2189 18.7376 11.5947L18.7454 11.6709L18.7502 11.9414C18.732 14.5994 16.6057 18.0055 12.7454 18.4033V19.8154H14.3743C14.7882 19.8157 15.1242 20.1515 15.1243 20.5654C15.1243 20.9795 14.7882 21.3151 14.3743 21.3154H9.61744C9.20322 21.3154 8.86744 20.9796 8.86744 20.5654C8.86753 20.1513 9.20328 19.8154 9.61744 19.8154H11.2454V18.4043C7.24093 18.0017 5.19157 14.3811 5.25025 11.6885L5.25611 11.6123C5.30279 11.2351 5.62865 10.9466 6.01685 10.9551Z" fill="#15C674"/>
<path d="M12.1633 2.88672C13.9282 2.976 15.3322 4.43566 15.3323 6.22266V11.582L15.3274 11.7529C15.238 13.5177 13.7784 14.9218 11.9915 14.9219L11.8196 14.917C10.1121 14.83 8.74195 13.4606 8.65552 11.7529L8.65162 11.582V6.22266C8.65169 4.3784 10.1473 2.88325 11.9915 2.88281L12.1633 2.88672Z" fill="#15C674"/>
</svg>
