<svg width="24" height="24" viewBox="0 0 24 24" fill="none" xmlns="http://www.w3.org/2000/svg">
<path fill-rule="evenodd" clip-rule="evenodd" d="M12 4.00195C16.4176 4.00205 19.999 7.58339 19.999 12.001C19.9989 16.4185 16.4175 19.9999 12 20C7.58241 20 4.00107 16.4185 4.00098 12.001C4.00098 7.58333 7.58236 4.00195 12 4.00195ZM9.66504 13.5391C9.25083 13.5391 8.91504 13.8748 8.91504 14.2891C8.91504 14.7033 9.25083 15.0391 9.66504 15.0391H14.3359L14.4131 15.0352C14.7911 14.9966 15.0859 14.6773 15.0859 14.2891C15.0859 13.9008 14.7911 13.5815 14.4131 13.543L14.3359 13.5391H9.66504ZM9.74512 9.19727C9.24806 9.19727 8.84473 9.6006 8.84473 10.0977V10.5293C8.84473 11.0264 9.24806 11.4297 9.74512 11.4297C10.2422 11.4297 10.6455 11.0264 10.6455 10.5293V10.0977C10.6455 9.6006 10.2422 9.19727 9.74512 9.19727ZM14.2549 9.19727C13.7578 9.19727 13.3545 9.6006 13.3545 10.0977V10.5293C13.3545 11.0264 13.7578 11.4297 14.2549 11.4297C14.7519 11.4297 15.1553 11.0264 15.1553 10.5293V10.0977C15.1553 9.6006 14.7519 9.19727 14.2549 9.19727Z" fill="#15C674"/>
</svg>
