<svg width="24" height="24" viewBox="0 0 24 24" fill="none" xmlns="http://www.w3.org/2000/svg">
<path fill-rule="evenodd" clip-rule="evenodd" d="M15.0498 4C16.5875 4 17.834 5.24653 17.834 6.78418V17.2246C17.834 17.8806 17.6052 18.4822 17.2256 18.958C18.1775 18.7636 18.8944 17.9223 18.8945 16.9131V8.35449C18.8954 8.33568 18.9357 7.59185 19.6426 7.57031C20.0035 8.03974 20.2206 8.6258 20.2207 9.26367V17.2256C20.2207 18.7631 18.9739 20.0095 17.4365 20.0098H9.08398C9.07339 20.0098 9.06233 20.0089 9.05176 20.0088H7.39355C5.85591 20.0088 4.60938 18.7623 4.60938 17.2246V6.78418C4.60937 5.24653 5.85591 4 7.39355 4H15.0498ZM8.09082 13.7402C7.70422 13.7402 7.39062 14.0538 7.39062 14.4404C7.39073 14.8269 7.70429 15.1406 8.09082 15.1406H12.2666C12.6531 15.1406 12.9667 14.8269 12.9668 14.4404C12.9668 14.0538 12.6532 13.7402 12.2666 13.7402H8.09082ZM8.09082 10.9561C7.70422 10.9561 7.39062 11.2697 7.39062 11.6562C7.39073 12.0428 7.70429 12.3564 8.09082 12.3564H13.6592C14.0456 12.3563 14.3593 12.0427 14.3594 11.6562C14.3594 11.2697 14.0457 10.9562 13.6592 10.9561H8.09082ZM8.78516 6.78418C8.01671 6.78444 7.39381 7.40734 7.39355 8.17578C7.39355 8.94445 8.01655 9.5681 8.78516 9.56836C9.55398 9.56836 10.1777 8.9446 10.1777 8.17578C10.1775 7.40718 9.55382 6.78418 8.78516 6.78418ZM11.9209 7.47559C11.5343 7.47559 11.2207 7.78918 11.2207 8.17578C11.2208 8.56229 11.5344 8.87598 11.9209 8.87598H13.6592C14.0456 8.87584 14.3593 8.56221 14.3594 8.17578C14.3594 7.78927 14.0457 7.47572 13.6592 7.47559H11.9209Z" fill="#15C674"/>
</svg>
