<svg width="24" height="24" viewBox="0 0 24 24" fill="none" xmlns="http://www.w3.org/2000/svg">
<path fill-rule="evenodd" clip-rule="evenodd" d="M7 5.00001C5.89543 5.00001 5 5.89544 5 7.00001V17C5 18.1046 5.89543 19 7 19H17C18.1046 19 19 18.1046 19 17V10.4308C19 9.76429 18.7338 9.12537 18.2607 8.65597L15.3063 5.72516C14.838 5.26065 14.2052 5 13.5456 5L7 5.00001ZM7.55518 9.91894C7.55518 9.50473 7.89096 9.16894 8.30518 9.16894H14.2988C14.713 9.16894 15.0488 9.50473 15.0488 9.91894C15.0488 10.3332 14.713 10.6689 14.2988 10.6689H8.30518C7.89096 10.6689 7.55518 10.3332 7.55518 9.91894ZM7.55518 13.1641C7.55518 12.7498 7.89096 12.4141 8.30518 12.4141H12.9971C13.4113 12.4141 13.7471 12.7498 13.7471 13.1641C13.7471 13.5783 13.4113 13.9141 12.9971 13.9141H8.30518C7.89096 13.9141 7.55518 13.5783 7.55518 13.1641Z" fill="#15C674"/>
</svg>
