<svg width="24" height="24" viewBox="0 0 24 24" fill="none" xmlns="http://www.w3.org/2000/svg">
<path d="M13.9442 18.607C14.1554 18.6071 14.3835 18.6649 14.4733 18.8561C14.7039 19.3474 13.7656 20.0223 13.3571 20.2024C12.9381 20.3869 12.4696 20.4804 12.0004 20.4805C11.5312 20.4805 11.0629 20.3869 10.6438 20.2024C10.2647 20.0354 9.32044 19.3782 9.5266 18.8561C9.61642 18.6648 9.84531 18.607 10.0567 18.607H13.9442Z" fill="#15C674"/>
<path d="M11.9995 3.64258C12.7517 3.64258 13.3649 4.24027 13.3889 4.98667C16.0733 5.65019 17.4087 8.18709 17.4087 10.0232C17.4087 10.9399 17.4043 11.7249 17.4 12.385L17.3981 12.7538C17.3947 13.2424 17.4014 13.7252 17.4014 14.0595L17.4023 14.0604C17.4052 14.0698 17.4174 14.1126 17.469 14.1927C17.5403 14.3035 17.6539 14.4356 17.803 14.5809C18.1006 14.8706 18.4705 15.1435 18.7319 15.3225C19.098 15.573 19.3431 15.9497 19.3432 16.4233C19.3432 17.1707 18.7277 17.7467 17.9803 17.7469H5.94331C5.19582 17.7469 4.59962 17.1707 4.59962 16.4233C4.59976 15.9496 4.84552 15.5729 5.21181 15.3225C5.47346 15.1436 5.84382 14.8706 6.14166 14.5809C6.29108 14.4356 6.4043 14.3026 6.47576 14.1918C6.5272 14.1119 6.54051 14.0698 6.54335 14.0604C6.54328 13.7262 6.53003 13.2426 6.52652 12.7538L6.52459 12.386C6.52003 11.7257 6.51494 10.9402 6.51494 10.0232C6.51494 8.17015 7.87551 5.60297 10.611 4.96929C10.6438 4.23107 11.2531 3.64267 11.9995 3.64258Z" fill="#15C674"/>
</svg>
