<svg width="24" height="24" viewBox="0 0 24 24" fill="none" xmlns="http://www.w3.org/2000/svg">
<path fill-rule="evenodd" clip-rule="evenodd" d="M12.0918 6.19502C15.4304 6.10814 17.9913 8.17744 20.0244 10.7312L20.2168 10.9714C20.2878 11.0624 20.3616 11.162 20.4248 11.2634C20.5567 11.4748 20.6826 11.75 20.6826 12.0788C20.6825 12.4063 20.5585 12.6817 20.4287 12.8942C20.3666 12.9958 20.2944 13.0964 20.2246 13.1882L20.0352 13.4314C18.0134 16.0472 15.4271 18.0545 12.0918 17.9675C8.78127 18.0532 6.07088 16.0974 4.14551 13.4606L3.77051 12.9235L3.74023 12.8708L3.73926 12.8698L3.72852 12.8483C3.72228 12.8355 3.71417 12.8173 3.7041 12.7956C3.68394 12.7522 3.65643 12.6907 3.62891 12.6218C3.58458 12.5108 3.50008 12.2865 3.5 12.0808C3.50008 11.8753 3.58467 11.651 3.62891 11.5397C3.65633 11.4708 3.683 11.4095 3.70312 11.3659C3.71317 11.3442 3.72226 11.3261 3.72852 11.3132L3.73633 11.2976L3.73828 11.2927L3.73926 11.2907L3.77441 11.2312C5.71998 8.40977 8.55588 6.10373 12.0918 6.19502ZM12.0781 9.55928C10.6856 9.55928 9.55675 10.6883 9.55664 12.0808C9.55664 13.4733 10.6855 14.6022 12.0781 14.6022C13.4705 14.6021 14.5996 13.4732 14.5996 12.0808C14.5995 10.6884 13.4705 9.55948 12.0781 9.55928Z" fill="#15C674"/>
</svg>
