<svg width="24" height="24" viewBox="0 0 24 24" fill="none" xmlns="http://www.w3.org/2000/svg">
<path fill-rule="evenodd" clip-rule="evenodd" d="M8.55225 3.62109C8.06064 3.62109 7.66211 4.01962 7.66211 4.51123V5.18262H6.73828C5.35757 5.18262 4.23828 6.30191 4.23828 7.68262V16.3096C4.23828 17.6903 5.35757 18.8096 6.73828 18.8096H11.3799V14.9512C11.3799 13.8466 12.2753 12.9512 13.3799 12.9512H19.7627V7.68262C19.7627 6.30191 18.6434 5.18262 17.2627 5.18262H16.323V4.51794C16.323 4.02263 15.9215 3.62109 15.4261 3.62109C14.9308 3.62109 14.5293 4.02263 14.5293 4.51794V5.18262H9.44238V4.51123C9.44238 4.01962 9.04386 3.62109 8.55225 3.62109ZM10.854 10.1252C10.854 9.68337 11.2122 9.3252 11.654 9.3252H12.4621C12.9039 9.3252 13.2621 9.68337 13.2621 10.1252V10.9713C13.2621 11.4131 12.9039 11.7713 12.4621 11.7713H11.654C11.2122 11.7713 10.854 11.4131 10.854 10.9713V10.1252ZM15.1843 9.3252C14.7424 9.3252 14.3843 9.68337 14.3843 10.1252V10.9713C14.3843 11.4131 14.7424 11.7713 15.1843 11.7713H15.9924C16.4342 11.7713 16.7924 11.4131 16.7924 10.9713V10.1252C16.7924 9.68337 16.4342 9.3252 15.9924 9.3252H15.1843ZM7.17334 10.1254C7.17334 9.68354 7.53151 9.32537 7.97334 9.32537H8.78144C9.22327 9.32537 9.58144 9.68354 9.58144 10.1254V10.9715C9.58144 11.4133 9.22327 11.7715 8.78144 11.7715H7.97334C7.53151 11.7715 7.17334 11.4133 7.17334 10.9715V10.1254ZM7.97332 13.4738C7.53149 13.4738 7.17332 13.832 7.17332 14.2738V15.1199C7.17332 15.5617 7.53149 15.9199 7.97332 15.9199H8.78143C9.22325 15.9199 9.58143 15.5617 9.58143 15.1199V14.2738C9.58143 13.832 9.22325 13.4738 8.78143 13.4738H7.97332Z" fill="#15C674"/>
<path d="M13.424 15.3359C13.424 14.9493 13.7374 14.6359 14.124 14.6359L20.4603 14.6359C20.8469 14.6359 21.1603 14.9493 21.1603 15.3359C21.1603 15.7225 20.8469 16.0359 20.4603 16.0359L14.124 16.0359C13.7374 16.0359 13.424 15.7225 13.424 15.3359Z" fill="#15C674"/>
<path d="M14.124 17.6955C13.7374 17.6955 13.424 18.0089 13.424 18.3955C13.424 18.7821 13.7374 19.0955 14.124 19.0955L20.4603 19.0955C20.8469 19.0955 21.1603 18.7821 21.1603 18.3955C21.1603 18.0089 20.8469 17.6955 20.4603 17.6955L14.124 17.6955Z" fill="#15C674"/>
</svg>
