<svg width="24" height="24" viewBox="0 0 24 24" fill="none" xmlns="http://www.w3.org/2000/svg">
<path d="M11.6006 3.28125C16.2475 3.28125 20.0176 7.05303 20.0176 11.709C20.0175 13.1286 19.6598 14.4736 19.0312 15.6484C19.0312 15.6566 19.0307 15.6667 19.0312 15.6787C19.0347 15.7604 19.0514 15.8818 19.0869 16.0459C19.158 16.3739 19.2805 16.7764 19.415 17.2041C19.544 17.6141 19.6873 18.0567 19.7744 18.4131C19.8175 18.5895 19.8565 18.7804 19.8672 18.9551C19.8725 19.0423 19.8729 19.154 19.8506 19.2715C19.8294 19.383 19.7748 19.5669 19.6172 19.7246L19.5156 19.8115C19.2735 19.9898 18.9965 20.0025 18.8545 20C18.6606 19.9965 18.4573 19.9571 18.2764 19.9121C17.9122 19.8215 17.473 19.6649 17.0762 19.5264C16.6583 19.3805 16.2738 19.2496 15.9561 19.1748C15.7979 19.1376 15.6826 19.1209 15.6055 19.1182C15.5911 19.1177 15.5798 19.1179 15.5713 19.1182C14.3911 19.7538 13.0383 20.1152 11.6006 20.1152C6.95432 20.1152 3.18359 16.3445 3.18359 11.6982C3.18359 7.05197 6.95432 3.28125 11.6006 3.28125ZM14.0742 12.1172C13.7798 11.877 13.345 11.8946 13.0703 12.1689C12.796 12.4433 12.7787 12.8773 13.0186 13.1719L13.0703 13.2295L13.29 13.4492H8.60059C8.18637 13.4492 7.85059 13.785 7.85059 14.1992C7.85074 14.6133 8.18647 14.9492 8.60059 14.9492H13.29L13.0703 15.1689C12.7776 15.4617 12.7777 15.9366 13.0703 16.2295C13.3631 16.522 13.838 16.522 14.1309 16.2295L15.6309 14.7314C15.7715 14.591 15.8504 14.3999 15.8506 14.2012C15.8507 14.0521 15.806 13.9074 15.7246 13.7852L15.6309 13.6709L14.1309 12.1689L14.0742 12.1172ZM10.1309 7.16895C9.85647 6.89455 9.42253 6.87736 9.12793 7.11719L9.07031 7.16895L7.57031 8.66699C7.42977 8.80753 7.35071 8.9985 7.35059 9.19727C7.3506 9.39602 7.42983 9.58692 7.57031 9.72754L9.07031 11.2295L9.12695 11.2812C9.42133 11.5212 9.85626 11.5036 10.1309 11.2295C10.4052 10.9552 10.4222 10.5212 10.1826 10.2266L10.1309 10.1689L9.91113 9.94922H14.6006L14.6777 9.94531C15.0556 9.9067 15.3504 9.58725 15.3506 9.19922C15.3506 8.81106 15.0557 8.49176 14.6777 8.45312L14.6006 8.44922H9.91113L10.1309 8.22949L10.1826 8.17285C10.4228 7.87847 10.405 7.44361 10.1309 7.16895Z" fill="#15C674"/>
</svg>
