<svg width="24" height="24" viewBox="0 0 24 24" fill="none" xmlns="http://www.w3.org/2000/svg">
<path fill-rule="evenodd" clip-rule="evenodd" d="M9.40039 5C10.2837 5.00021 10.9998 5.71626 11 6.59961V17.4004L10.9922 17.5635C10.9103 18.3702 10.2287 18.9998 9.40039 19H7.59961C6.7713 18.9998 6.08966 18.3702 6.00781 17.5635L6 17.4004V6.59961C6.00021 5.71626 6.71626 5.00021 7.59961 5H9.40039Z" fill="#15C674"/>
<path fill-rule="evenodd" clip-rule="evenodd" d="M16.4004 5C17.2837 5.00021 17.9998 5.71626 18 6.59961V17.4004L17.9922 17.5635C17.9103 18.3702 17.2287 18.9998 16.4004 19H14.5996C13.7713 18.9998 13.0897 18.3702 13.0078 17.5635L13 17.4004V6.59961C13.0002 5.71626 13.7163 5.00021 14.5996 5H16.4004Z" fill="#15C674"/>
</svg>
