<svg width="24" height="24" viewBox="0 0 24 24" fill="none" xmlns="http://www.w3.org/2000/svg">
<path d="M16.5 4C17.3284 4 18 4.67157 18 5.5V10.8809C18 11.3178 17.857 11.7429 17.5928 12.0908L17.2871 12.4932V18.5117C17.2868 19.3398 16.6153 20.0116 15.7871 20.0117H8.33301C7.50484 20.0116 6.83327 19.3399 6.83301 18.5117V12.4932L6.50391 12.123C6.17908 11.7571 6 11.2842 6 10.7949V5.5C6 4.67157 6.67157 4 7.5 4H16.5ZM10.0898 15.9678C9.75858 15.9678 9.48942 16.2362 9.48926 16.5674C9.48926 16.8988 9.75847 17.168 10.0898 17.168H10.8896C11.221 17.168 11.4893 16.8988 11.4893 16.5674C11.4891 16.2362 11.2209 15.9678 10.8896 15.9678H10.0898ZM13.1113 15.9678C12.7801 15.9678 12.5109 16.2362 12.5107 16.5674C12.5107 16.8988 12.78 17.168 13.1113 17.168H13.9111C14.2425 17.168 14.5107 16.8988 14.5107 16.5674C14.5106 16.2362 14.2424 15.9678 13.9111 15.9678H13.1113ZM10.0898 13.8633C9.75847 13.8633 9.48926 14.1325 9.48926 14.4639C9.48942 14.7951 9.75857 15.0635 10.0898 15.0635H10.8896C11.2209 15.0635 11.4891 14.7951 11.4893 14.4639C11.4893 14.1325 11.221 13.8633 10.8896 13.8633H10.0898ZM13.1113 13.8633C12.78 13.8633 12.5107 14.1325 12.5107 14.4639C12.5109 14.7951 12.7801 15.0635 13.1113 15.0635H13.9111C14.2424 15.0635 14.5106 14.7951 14.5107 14.4639C14.5107 14.1325 14.2425 13.8633 13.9111 13.8633H13.1113ZM14.9385 7.15918C14.7059 6.92343 14.3268 6.92097 14.0908 7.15332L11.5811 9.62402L10.3672 8.53711C10.1204 8.31631 9.74151 8.33736 9.52051 8.58398C9.29949 8.83088 9.32049 9.21062 9.56738 9.43164L11.2012 10.8936C11.4372 11.1048 11.7968 11.0963 12.0225 10.874L14.9326 8.00781C15.1685 7.77527 15.1709 7.39521 14.9385 7.15918Z" fill="#15C674"/>
</svg>
