<svg width="24" height="24" viewBox="0 0 24 24" fill="none" xmlns="http://www.w3.org/2000/svg">
<path d="M12.001 13.5352C13.5279 13.5352 15.2199 13.7775 16.5869 14.5615C17.9966 15.3701 19.0096 16.7295 19.1543 18.8066L19.1562 18.8525C19.1562 19.4968 18.6246 20.0194 17.9688 20.0195H6.02246C5.36664 20.0194 4.83496 19.4968 4.83496 18.8525L4.83691 18.8066C4.98166 16.7287 5.99736 15.3687 7.40918 14.5605C8.77856 13.7767 10.474 13.5352 12.001 13.5352Z" fill="#15C674"/>
<path d="M11.9902 3.96484C13.291 3.96492 14.2397 4.51055 14.8604 5.31738L14.8623 5.32031C15.4774 6.12842 15.7643 7.20536 15.7422 8.27246C15.72 9.33923 15.3879 10.4171 14.748 11.2246C14.1158 12.0376 13.183 12.5722 11.9902 12.5723C9.99279 12.5723 8.76274 11.0964 8.38184 9.37109C8.01469 7.69686 8.45585 5.75768 9.79883 4.69824C9.82618 4.67093 9.85631 4.6459 9.88867 4.62305C10.1207 4.45928 10.4501 4.29312 10.8389 4.16699C11.2189 4.04062 11.6275 3.96484 11.9902 3.96484Z" fill="#15C674"/>
</svg>
