<svg width="24" height="24" viewBox="0 0 24 24" fill="none" xmlns="http://www.w3.org/2000/svg">
<path d="M8.61905 15.4472C8.60853 15.4366 8.60071 15.424 8.59129 15.4128C5.74348 12.5048 4.75559 10.061 4.75099 8.10649C4.74667 6.23683 5.6405 4.91717 6.46211 4.16632L6.62475 4.02302C7.07903 3.64347 7.69515 3.67041 8.16263 3.94908L8.25379 4.00845C8.29441 4.0368 8.33041 4.06672 8.36175 4.09522L8.44113 4.17328C9.084 4.85566 9.57574 5.40735 9.96345 5.84261C10.2584 6.17374 10.485 6.42753 10.6721 6.62276L10.8468 6.79882C10.884 6.83464 10.9413 6.89159 10.997 6.96625L11.0514 7.04582C11.2531 7.38082 11.3042 7.79221 11.1518 8.15803L11.0739 8.3119C10.8285 8.71779 10.3807 9.30373 9.62322 9.83852L9.53086 9.91569C9.52635 9.92085 9.5246 9.92536 9.523 9.9277C9.49194 10.0544 9.49545 10.2452 9.56486 10.5059C9.63392 10.7654 9.75788 11.0592 9.92224 11.3653C10.2521 11.9796 10.7165 12.5886 11.1212 12.9934L11.2282 13.1004C11.633 13.5051 12.2421 13.9695 12.8563 14.2994C13.1624 14.4637 13.4562 14.5877 13.7157 14.6567C13.9767 14.7262 14.1679 14.7305 14.2946 14.6993C14.2969 14.6977 14.3009 14.6951 14.3059 14.6907C14.3245 14.6745 14.3495 14.6459 14.3831 14.5984L14.5856 14.3281C14.9934 13.8171 15.4136 13.4724 15.7489 13.2491L15.9097 13.1477C16.3001 12.9117 16.7646 12.9384 17.1416 13.1505L17.2972 13.2532C17.312 13.2644 17.3263 13.2765 17.3399 13.2892L20.1505 15.9462C20.1672 15.9621 20.1831 15.9793 20.1975 15.9972C20.5612 16.4491 20.6642 17.1091 20.3213 17.6136L20.2463 17.7121C19.5206 18.5805 18.1353 19.5641 16.1312 19.5277C14.169 19.4922 11.7169 18.4786 8.8095 15.631C8.79789 15.6213 8.78466 15.6128 8.77373 15.6019L8.61905 15.4472Z" fill="#15C674"/>
</svg>
