<svg width="24" height="24" viewBox="0 0 24 24" fill="none" xmlns="http://www.w3.org/2000/svg">
<path d="M6.14064 4.58407C6.59492 4.20452 7.21125 4.23118 7.67873 4.50985L7.76955 4.56942C7.81007 4.59772 7.84569 4.62789 7.87697 4.65634L7.95705 4.73446C8.59974 5.41667 9.09187 5.96823 9.47951 6.40341C9.77436 6.73441 10.0005 6.9885 10.1875 7.18368L10.3623 7.35946C10.3995 7.39528 10.457 7.45277 10.5127 7.52743L10.5674 7.60653C10.769 7.94151 10.8194 8.35306 10.667 8.71884L10.5899 8.87216C10.3445 9.27805 9.89621 9.86471 9.13869 10.3995L9.04689 10.4766C9.04252 10.4817 9.04064 10.486 9.03908 10.4884C9.00803 10.615 9.01076 10.8058 9.08009 11.0665C9.14914 11.3259 9.27323 11.6198 9.43752 11.9259C9.76732 12.5401 10.2321 13.1491 10.6367 13.5538L10.7442 13.6612C11.1489 14.0659 11.7579 14.5307 12.3721 14.8604C12.6781 15.0247 12.9721 15.1488 13.2315 15.2179C13.4924 15.2873 13.6839 15.291 13.8106 15.2599C13.8129 15.2582 13.8165 15.2553 13.8213 15.2511C13.8398 15.2348 13.865 15.2067 13.8985 15.1593L14.1016 14.8888C14.5093 14.3778 14.9294 14.0329 15.2647 13.8097L15.4258 13.7081C15.8161 13.4724 16.2804 13.499 16.6572 13.711L16.8125 13.8136C16.8273 13.8247 16.842 13.837 16.8555 13.8497L19.666 16.5069C19.6827 16.5227 19.6985 16.5398 19.7129 16.5577C20.0765 17.0095 20.1796 17.6694 19.8369 18.1739L19.7617 18.2725C19.0361 19.1409 17.6507 20.1243 15.6465 20.088C13.6843 20.0523 11.2324 19.0389 8.32521 16.1915C8.31362 16.1818 8.29998 16.1731 8.28908 16.1622L8.13478 16.0079C8.12426 15.9974 8.11588 15.9849 8.10646 15.9737C5.25876 13.0658 4.27122 10.6215 4.26662 8.66708C4.26234 6.79748 5.15596 5.47748 5.97755 4.72665L6.14064 4.58407Z" fill="#15C674"/>
<path d="M16.3799 4.34384C16.8217 4.34384 17.1806 4.70187 17.1807 5.14364V7.19637H19.2354L19.3164 7.20126C19.7197 7.24215 20.0339 7.58217 20.0342 7.99618C20.0342 8.438 19.6762 8.79694 19.2344 8.79696H17.1807V10.8487L17.1758 10.9307C17.1348 11.3341 16.7941 11.6495 16.3799 11.6495C15.9384 11.6492 15.5803 11.2912 15.5801 10.8497V8.79696H13.5293L13.4473 8.79208C12.4721 8.69297 12.5443 7.1969 13.5283 7.19637H15.5801V5.14266L15.585 5.06161C15.6259 4.65834 15.9659 4.34408 16.3799 4.34384Z" fill="#15C674"/>
</svg>
