<svg width="24" height="24" viewBox="0 0 24 24" fill="none" xmlns="http://www.w3.org/2000/svg">
<path d="M6.14064 4.58349C6.5949 4.2041 7.21131 4.23063 7.67873 4.50927L7.76955 4.56884C7.81004 4.5971 7.8457 4.62733 7.87697 4.65575L7.95705 4.73388C8.59985 5.41619 9.09182 5.9676 9.47951 6.40282C9.77434 6.7338 10.0005 6.9879 10.1875 7.1831L10.3623 7.35985C10.3995 7.39567 10.4571 7.45227 10.5127 7.52685L10.5674 7.60595C10.7691 7.9409 10.8193 8.35247 10.667 8.71825L10.5899 8.87255C10.3445 9.27844 9.89621 9.86412 9.13869 10.3989L9.04689 10.4761C9.04238 10.4812 9.04068 10.4864 9.03908 10.4888C9.00811 10.6155 9.01075 10.8063 9.08009 11.0669C9.14917 11.3263 9.2732 11.6202 9.43752 11.9263C9.76737 12.5406 10.232 13.1495 10.6367 13.5542L10.7442 13.6606C11.1489 14.0653 11.7578 14.53 12.3721 14.8599C12.6781 15.0242 12.972 15.1482 13.2315 15.2173C13.4925 15.2867 13.6839 15.2914 13.8106 15.2602C13.8129 15.2586 13.8164 15.2557 13.8213 15.2515C13.8399 15.2352 13.8649 15.2063 13.8985 15.1587L14.1016 14.8892C14.5093 14.3781 14.9294 14.0333 15.2647 13.81L15.4258 13.7085C15.8161 13.4726 16.2803 13.4993 16.6572 13.7114L16.8125 13.814C16.8273 13.8252 16.8419 13.8374 16.8555 13.8501L19.666 16.5063C19.6828 16.5222 19.6984 16.5401 19.7129 16.5581C20.0766 17.01 20.1799 17.6698 19.8369 18.1743L19.7617 18.2729C19.036 19.1413 17.6505 20.1247 15.6465 20.0884C13.6844 20.0527 11.2323 19.0392 8.32521 16.1919C8.31361 16.1821 8.3 16.1735 8.28908 16.1626L8.13478 16.0073C8.12439 15.9968 8.11677 15.9842 8.10744 15.9731C5.25982 13.0653 4.27134 10.6219 4.26662 8.66747C4.2623 6.79796 5.15599 5.47792 5.97755 4.72704L6.14064 4.58349Z" fill="#15C674"/>
<path d="M19.2354 3.87255C19.5494 3.61653 20.0128 3.63493 20.3057 3.92724C20.618 4.23958 20.6179 4.74665 20.3057 5.05907L15.5938 9.77099H19.0244L19.1065 9.77489C19.5096 9.81578 19.8248 10.1569 19.8252 10.5708C19.825 10.9849 19.5098 11.3258 19.1065 11.3667L19.0244 11.3716H13.6631C13.2214 11.3715 12.8635 11.0124 12.8633 10.5708V5.20946C12.8636 4.76794 13.2215 4.40973 13.6631 4.40966C14.1047 4.40966 14.4626 4.7679 14.4629 5.20946V8.63915L19.1748 3.92724L19.2354 3.87255Z" fill="#15C674"/>
</svg>
