<svg width="24" height="24" viewBox="0 0 24 24" fill="none" xmlns="http://www.w3.org/2000/svg">
<path d="M6.14064 4.58407C6.59492 4.20452 7.21125 4.23118 7.67873 4.50985L7.76955 4.56942C7.81007 4.59772 7.84569 4.62789 7.87697 4.65634L7.95705 4.73446C8.59974 5.41667 9.09187 5.96823 9.47951 6.40341C9.77436 6.73441 10.0005 6.9885 10.1875 7.18368L10.3623 7.35946C10.3995 7.39528 10.457 7.45277 10.5127 7.52743L10.5674 7.60653C10.769 7.94151 10.8194 8.35306 10.667 8.71884L10.5899 8.87216C10.3445 9.27805 9.89621 9.86471 9.13869 10.3995L9.04689 10.4766C9.04252 10.4817 9.04064 10.486 9.03908 10.4884C9.00803 10.615 9.01076 10.8058 9.08009 11.0665C9.14914 11.3259 9.27323 11.6198 9.43752 11.9259C9.76732 12.5401 10.2321 13.1491 10.6367 13.5538L10.7442 13.6612C11.1489 14.0659 11.7579 14.5307 12.3721 14.8604C12.6781 15.0247 12.9721 15.1488 13.2315 15.2179C13.4924 15.2873 13.6839 15.291 13.8106 15.2599C13.8129 15.2582 13.8165 15.2553 13.8213 15.2511C13.8398 15.2348 13.865 15.2067 13.8985 15.1593L14.1016 14.8888C14.5093 14.3778 14.9294 14.0329 15.2647 13.8097L15.4258 13.7081C15.8161 13.4724 16.2804 13.499 16.6572 13.711L16.8125 13.8136C16.8273 13.8247 16.842 13.837 16.8555 13.8497L19.666 16.5069C19.6827 16.5227 19.6985 16.5398 19.7129 16.5577C20.0765 17.0095 20.1796 17.6694 19.8369 18.1739L19.7617 18.2725C19.0361 19.1409 17.6507 20.1243 15.6465 20.088C13.6843 20.0523 11.2324 19.0389 8.32521 16.1915C8.31362 16.1818 8.29998 16.1731 8.28908 16.1622L8.13478 16.0079C8.12426 15.9974 8.11588 15.9849 8.10646 15.9737C5.25876 13.0658 4.27122 10.6215 4.26662 8.66708C4.26234 6.79748 5.15596 5.47748 5.97755 4.72665L6.14064 4.58407Z" fill="#15C674"/>
<path d="M17.5537 5.62509C17.8661 5.31274 18.3721 5.3129 18.6846 5.62509C18.9969 5.93752 18.997 6.44354 18.6846 6.75595L17.0811 8.35946L18.6846 9.96298L18.7393 10.0235C18.9958 10.3377 18.9775 10.8008 18.6846 11.0938C18.3917 11.3863 17.9284 11.4055 17.6143 11.1495L17.5537 11.0938L15.9502 9.49032L14.3496 11.0909L14.2891 11.1456C13.9749 11.4019 13.5117 11.3837 13.2188 11.0909C12.9262 10.7981 12.9072 10.3347 13.1631 10.0206L13.2188 9.96005L14.8194 8.35946L13.2188 6.75887C12.9066 6.44656 12.9067 5.94043 13.2188 5.62802C13.5312 5.3157 14.0372 5.31573 14.3496 5.62802L15.9502 7.2286L17.5537 5.62509Z" fill="#15C674"/>
</svg>
