<svg width="24" height="24" viewBox="0 0 24 24" fill="none" xmlns="http://www.w3.org/2000/svg">
<path d="M13.3471 4.90041C13.9776 4.2687 15.02 4.18393 15.6983 4.82673L15.7126 4.84013L19.1412 8.27545C19.8128 8.95048 19.7382 10.0195 19.0963 10.662C18.4534 11.3053 17.3837 11.3784 16.7107 10.7022L16.5614 10.5519L12.8172 15.4558L13.0832 15.7227C13.0896 15.7292 13.0961 15.7361 13.1023 15.7428C13.7286 16.4234 13.6399 17.4561 13.0153 18.0825C12.3899 18.7092 11.3576 18.7985 10.6775 18.1696C10.6709 18.1635 10.6647 18.1567 10.6584 18.1504L8.77804 16.2663L5.54737 19.4915C5.26042 19.7783 4.79513 19.7782 4.50816 19.4915C4.2212 19.2045 4.22128 18.7393 4.50816 18.4523L7.73979 15.2251L5.86233 13.3438L5.84798 13.3295C5.20865 12.6504 5.29309 11.6075 5.92262 10.9764C6.55305 10.3447 7.59642 10.26 8.27471 10.9028L8.28906 10.9162L8.55317 11.1812L13.4342 7.41614L13.2859 7.26686L13.2715 7.25346C12.6321 6.57425 12.7174 5.53144 13.3471 4.90041Z" fill="#15C674"/>
</svg>
