<svg width="24" height="24" viewBox="0 0 24 24" fill="none" xmlns="http://www.w3.org/2000/svg">
<path d="M11 18.3002C11 18.8525 11.4477 19.3002 12 19.3002C12.5523 19.3002 13 18.8525 13 18.3002V13.0004H18.3002C18.8525 13.0004 19.3002 12.5527 19.3002 12.0004C19.3002 11.4481 18.8525 11.0004 18.3002 11.0004H13V5.7002C13 5.14791 12.5523 4.7002 12 4.7002C11.4477 4.7002 11 5.14791 11 5.7002V11.0004H5.7002C5.14791 11.0004 4.7002 11.4481 4.7002 12.0004C4.7002 12.5527 5.14791 13.0004 5.7002 13.0004H11V18.3002Z" fill="#15C674"/>
</svg>
