<svg width="24" height="24" viewBox="0 0 24 24" fill="none" xmlns="http://www.w3.org/2000/svg">
<path d="M6.19962 14.3207C6.7519 14.3207 7.19961 14.7684 7.19961 15.3207V16.5003C7.19975 16.6658 7.33399 16.8 7.49941 16.8002H10.5297V15.8392L10.5355 15.7601C10.5905 15.404 11.0126 15.2279 11.3041 15.4408L11.3646 15.4916L13.3265 17.4535L13.389 17.5296C13.4966 17.6926 13.4963 17.906 13.389 18.0687L13.3265 18.1458L11.3519 20.1195L11.3373 20.1302L11.2767 20.1751L11.2601 20.1878L11.2416 20.1966C11.0084 20.3168 10.726 20.2266 10.598 20.0111L10.5531 19.9105L10.5472 19.8929L10.5326 19.8001L10.5297 19.7806V18.8001H7.49941C6.22943 18.7999 5.19976 17.7704 5.19962 16.5003V15.3207C5.19962 14.7684 5.64742 14.3208 6.19962 14.3207ZM17.5296 10.6107C17.6926 10.5031 17.9059 10.5034 18.0687 10.6107L18.1458 10.6732L20.1195 12.6478L20.1302 12.6625L20.1751 12.723L20.1878 12.7396L20.1966 12.7582C20.3166 12.9913 20.2266 13.2739 20.0111 13.4017L19.9105 13.4467L19.8929 13.4525L19.8001 13.4672L19.7806 13.4701H18.7992V16.5003C18.799 17.7705 17.7695 18.8001 16.4994 18.8001H15.3177C14.7657 18.7999 14.3179 18.3522 14.3177 17.8001C14.3178 17.2481 14.7657 16.8004 15.3177 16.8002H16.4994C16.665 16.8002 16.799 16.6659 16.7992 16.5003V13.4701H15.8392L15.7601 13.4642C15.404 13.4093 15.2279 12.9872 15.4408 12.6957L15.4916 12.6351L17.4535 10.6732L17.5296 10.6107ZM8.78554 5.20548C9.2899 5.25659 9.68397 5.68275 9.68397 6.20059C9.68375 6.71823 9.28975 7.14461 8.78554 7.19571L8.68398 7.20059H7.49941C7.33397 7.20079 7.19972 7.33492 7.19961 7.50039V10.5307H8.18105L8.20058 10.5336L8.29336 10.5482L8.31093 10.5541L8.41152 10.599C8.62692 10.727 8.71726 11.0094 8.59706 11.2426L8.58828 11.2611L8.57558 11.2777L8.53066 11.3383L8.51992 11.3529L6.54629 13.3275L6.46915 13.39C6.30644 13.4972 6.09303 13.4975 5.93009 13.39L5.85392 13.3275L3.89201 11.3656L3.84123 11.3051C3.62836 11.0136 3.80447 10.5915 4.16056 10.5365L4.23967 10.5307H5.19962V7.50039C5.19973 6.23036 6.2294 5.2008 7.49941 5.2006H8.68398L8.78554 5.20548ZM12.6947 3.84123C12.9862 3.62836 13.4083 3.80447 13.4633 4.16057L13.4691 4.23967V5.2006H16.4994C17.7696 5.2006 18.7991 6.23023 18.7992 7.50039V8.68398C18.7989 9.23606 18.3513 9.68398 17.7992 9.68398C17.2473 9.68367 16.7994 9.23587 16.7992 8.68398V7.50039C16.7991 7.3348 16.665 7.20059 16.4994 7.20059H13.4691V8.18105L13.4662 8.20058L13.4515 8.29336L13.4457 8.31094L13.4008 8.41152C13.2728 8.62701 12.9904 8.71729 12.7572 8.59707L12.7386 8.58828L12.722 8.57558L12.6615 8.53066L12.6468 8.51992L10.6722 6.5463L10.6097 6.46915C10.5025 6.30641 10.5022 6.09304 10.6097 5.93009L10.6722 5.85392L12.6342 3.89201L12.6947 3.84123Z" fill="#15C674"/>
</svg>
