<svg width="24" height="24" viewBox="0 0 24 24" fill="none" xmlns="http://www.w3.org/2000/svg">
<path d="M19.5215 8.47681C19.7321 8.96726 19.8457 9.50289 19.8457 10.0549V13.8762C19.8456 15.3384 19.0475 16.6844 17.7646 17.386L13.9346 19.4807C13.5898 19.6693 13.224 19.8032 12.8496 19.8831V12.4846L15.3291 10.9944V13.3889L15.3438 13.4963C15.4095 13.7349 15.6876 13.8669 15.9209 13.7395L16.6064 13.3645L16.6758 13.3215C16.806 13.2254 16.8913 13.0796 16.9131 12.9192L16.9189 12.8381V10.0393L19.5215 8.47681Z" fill="#15C674"/>
<path d="M11.1494 12.4837V19.8762C10.7859 19.7957 10.4308 19.664 10.0957 19.4807L6.26562 17.386C4.98276 16.6844 4.18464 15.3384 4.18457 13.8762V10.0549C4.18457 9.50833 4.29628 8.97794 4.50293 8.49146L11.1494 12.4837Z" fill="#15C674"/>
<path d="M9.51855 6.50514L14.4932 9.51295L12 11.012L5.48828 7.09986C5.72128 6.88726 5.98174 6.70042 6.26562 6.54517L8.0127 5.58814L9.51855 6.50514Z" fill="#15C674"/>
<path d="M10.0957 4.45045C11.2916 3.79647 12.7387 3.79647 13.9346 4.45045L17.7646 6.54517C18.0437 6.69775 18.3004 6.88104 18.5303 7.08912L16.0439 8.58131L11.0439 5.55787L9.63281 4.7024L10.0957 4.45045Z" fill="#15C674"/>
</svg>
