<svg width="24" height="24" viewBox="0 0 24 24" fill="none" xmlns="http://www.w3.org/2000/svg">
<path d="M13.9344 4.45143C12.7385 3.79744 11.2919 3.79744 10.096 4.45143L6.26537 6.54622C5.98147 6.70147 5.72132 6.88827 5.48832 7.10089L12 11.0126L18.53 7.08993C18.3 6.88184 18.044 6.6988 17.765 6.54622L13.9344 4.45143Z" fill="#15C674"/>
<path d="M19.5213 8.47755L12.8494 12.4855V19.8839C13.2239 19.804 13.5895 19.6698 13.9344 19.4813L17.765 17.3865C19.0479 16.6849 19.8458 15.3392 19.8458 13.877V10.0557C19.8458 9.50359 19.732 8.96806 19.5213 8.47755Z" fill="#15C674"/>
<path d="M11.1494 19.877V12.4847L4.50283 8.49204C4.29611 8.9786 4.18457 9.50902 4.18457 10.0557V13.877C4.18457 15.3392 4.98244 16.6849 6.26536 17.3865L10.096 19.4813C10.4311 19.6645 10.7859 19.7965 11.1494 19.877Z" fill="#15C674"/>
</svg>
