<svg width="24" height="24" viewBox="0 0 24 24" fill="none" xmlns="http://www.w3.org/2000/svg">
<path d="M19.3017 11.3008C19.85 11.3651 20.2428 11.8618 20.1787 12.4102C19.8042 15.6143 18.1431 18.6233 14.8496 19.7109L14.5263 19.8096C11.7397 20.5983 8.74154 19.9357 6.64549 18.082V19.334L6.64061 19.4355C6.58962 19.94 6.16342 20.334 5.64549 20.334C5.12762 20.3339 4.70134 19.94 4.65037 19.4355L4.64549 19.334V15.6338C4.64549 15.0816 5.09328 14.6339 5.64549 14.6338H9.34568L9.44725 14.6387C9.95175 14.6896 10.3457 15.1158 10.3457 15.6338C10.3457 16.1517 9.95175 16.5779 9.44725 16.6289L9.34568 16.6338H8.02732C9.59399 17.9823 11.8446 18.4905 13.9814 17.8857L14.2099 17.8154C16.5406 17.0476 17.8745 14.8979 18.1924 12.1777C18.2566 11.6293 18.7533 11.2367 19.3017 11.3008Z" fill="#15C674"/>
<path d="M18.5029 3.63281C19.055 3.63302 19.5029 4.08066 19.5029 4.63281V8.33398L19.498 8.43555C19.4844 8.57039 19.4427 8.6969 19.3808 8.81055C19.3192 8.92397 19.2365 9.02392 19.1377 9.10547C19.1152 9.12398 19.0914 9.1407 19.0674 9.15723C19.0311 9.18221 18.9936 9.2055 18.9541 9.22559C18.9467 9.22934 18.9391 9.23275 18.9316 9.23633C18.8307 9.28444 18.7206 9.31729 18.6045 9.3291L18.5166 9.33301C18.512 9.33307 18.5075 9.33398 18.5029 9.33398L18.5019 9.33301L14.8037 9.33398C14.2516 9.33373 13.8037 8.88611 13.8037 8.33398C13.8037 7.78186 14.2516 7.33424 14.8037 7.33398H16.1279C14.6215 6.0217 12.4729 5.49507 10.4033 5.99805L10.1582 6.0625C7.68955 6.76286 6.2792 8.96512 5.95115 11.7773L5.93455 11.8789C5.8251 12.3736 5.35592 12.7152 4.84178 12.6553C4.29364 12.5909 3.90091 12.0942 3.96482 11.5459L4.00486 11.2363C4.46203 8.04438 6.21559 5.10224 9.61228 4.13867L9.92869 4.05566C12.6289 3.39923 15.487 4.08498 17.5029 5.87988V4.63281C17.5029 4.08053 17.9506 3.63281 18.5029 3.63281Z" fill="#15C674"/>
</svg>
