<svg width="24" height="24" viewBox="0 0 24 24" fill="none" xmlns="http://www.w3.org/2000/svg">
<path d="M7.89896 4.38184C6.1206 4.38184 4.67896 5.82348 4.67896 7.60183V8.53973C4.67896 8.99886 4.9916 9.39899 5.4371 9.51004C6.06807 9.66732 6.67896 9.19002 6.67896 8.53973V7.60183C6.67896 6.92805 7.22517 6.38184 7.89896 6.38184H16.1527C16.8265 6.38184 17.3727 6.92805 17.3727 7.60184V9.43436L15.9892 9.43436C15.6963 9.43436 15.4343 9.61676 15.3327 9.8915C15.231 10.1662 15.3112 10.4752 15.5336 10.6658L18.0748 12.8439C18.3402 13.0715 18.7329 13.0683 18.9946 12.8363L21.4522 10.6582C21.6698 10.4653 21.7455 10.158 21.6424 9.88608C21.5392 9.61417 21.2787 9.43437 20.9879 9.43437L19.3727 9.43436V7.60184C19.3727 5.82348 17.9311 4.38184 16.1527 4.38184H7.89896Z" fill="#15C674"/>
<path d="M19.3727 15.5392C19.3727 15.08 19.0601 14.6799 18.6146 14.5688C17.9836 14.4116 17.3727 14.8889 17.3727 15.5392V16.4222C17.3727 17.096 16.8265 17.6422 16.1527 17.6422H7.89896C7.22517 17.6422 6.67896 17.096 6.67896 16.4222V14.6392L8.11376 14.6392C8.40669 14.6392 8.66865 14.4568 8.77028 14.1821C8.87191 13.9074 8.79173 13.5984 8.56931 13.4078L6.02819 11.2297C5.76271 11.0021 5.37002 11.0053 5.10834 11.2373L2.65078 13.4154C2.43314 13.6083 2.35743 13.9156 2.46058 14.1875C2.56373 14.4594 2.82426 14.6392 3.11507 14.6392L4.67896 14.6392V16.4222C4.67896 18.2006 6.1206 19.6422 7.89896 19.6422H16.1527C17.9311 19.6422 19.3727 18.2006 19.3727 16.4222V15.5392Z" fill="#15C674"/>
</svg>
