<svg width="24" height="24" viewBox="0 0 24 24" fill="none" xmlns="http://www.w3.org/2000/svg">
<path d="M10.6712 12.3278C10.6712 12.792 10.2949 13.1683 9.83071 13.1683C9.36653 13.1683 8.99023 12.792 8.99023 12.3278C8.99023 11.8636 9.36653 11.4873 9.83071 11.4873C10.2949 11.4873 10.6712 11.8636 10.6712 12.3278Z" fill="#15C674"/>
<path d="M14.1325 13.1683C14.5966 13.1683 14.9729 12.792 14.9729 12.3278C14.9729 11.8636 14.5966 11.4873 14.1325 11.4873C13.6683 11.4873 13.292 11.8636 13.292 12.3278C13.292 12.792 13.6683 13.1683 14.1325 13.1683Z" fill="#15C674"/>
<path fill-rule="evenodd" clip-rule="evenodd" d="M17.7287 4.72069C17.3755 4.56364 16.9618 4.72271 16.8047 5.07597L15.803 7.32931C13.4034 5.93047 10.1361 6.31713 8.35465 7.3243L7.16252 5.15063C6.97661 4.81166 6.55112 4.68758 6.21216 4.87349C5.87319 5.05939 5.74911 5.48488 5.93501 5.82385L7.19395 8.11935C5.1113 9.79843 3.96578 12.28 3.91343 15.2572C3.84775 18.9919 6.24212 18.8266 9.4768 18.6031C10.331 18.5441 11.2438 18.4811 12.1854 18.4847C13.126 18.4884 14.0351 18.5657 14.8825 18.6377C18.0098 18.9036 20.2974 19.0981 20.2296 15.2572C20.1757 12.2055 18.7098 9.72619 16.9566 8.1807L18.084 5.64469C18.241 5.29142 18.082 4.87774 17.7287 4.72069ZM10.7175 14.2095C8.6614 14.2622 7.15576 14.3009 7.15576 12.9845C7.15576 11.3929 9.35707 10.1006 12.0712 10.1006C14.7853 10.1006 16.9897 11.3916 16.9897 12.9845C16.9897 14.3014 15.4853 14.2627 13.4287 14.2097C12.9976 14.1986 12.5421 14.1868 12.0712 14.1868C11.6017 14.1868 11.1476 14.1985 10.7175 14.2095Z" fill="#15C674"/>
</svg>
