<svg width="24" height="24" viewBox="0 0 24 24" fill="none" xmlns="http://www.w3.org/2000/svg">
<path d="M16.1429 14.862C16.3181 14.7175 16.5856 14.8061 16.603 15.0326C16.6345 15.4426 16.5849 15.8974 16.3501 16.3213L16.2681 16.4561C15.9323 16.9622 15.1862 17.8277 14.5395 18.5508L13.9448 19.208C13.4159 19.786 12.4728 19.551 12.2573 18.8115L12.0238 18.0111C11.9587 17.7879 12.0561 17.5492 12.2588 17.4353L12.3052 17.4092L12.3169 17.4033C13.0453 16.981 13.6653 16.5853 14.4559 16.0931C14.4563 16.0929 14.4567 16.093 14.457 16.0933C14.4573 16.0936 14.4577 16.0936 14.4581 16.0934L14.4692 16.0869C14.4849 16.0778 14.501 16.0676 14.5161 16.0576L14.9751 15.7461C15.3951 15.4533 15.7835 15.1584 16.1429 14.862Z" fill="#15C674"/>
<path d="M5.92821 15.0684C6.08895 14.7789 6.45399 14.6745 6.74364 14.835C6.77294 14.8512 6.80122 14.8695 6.82664 14.8896L8.79149 16.7568C8.82681 16.7901 8.85889 16.8284 8.88621 16.8711C9.0643 17.1501 8.98232 17.5207 8.7036 17.6992L8.61571 17.75C8.52018 17.7993 8.40326 17.846 8.28953 17.8867C8.12164 17.9468 7.90921 18.011 7.66746 18.0664C7.18744 18.1763 6.56087 18.2582 5.91063 18.1895C5.60338 18.1566 5.37137 17.8959 5.3745 17.5869C5.3893 16.2349 5.7253 15.4344 5.92821 15.0684Z" fill="#15C674"/>
<path fill-rule="evenodd" clip-rule="evenodd" d="M18.3315 4.65723C18.3915 4.66201 18.4501 4.67246 18.5063 4.6875C18.5624 4.70251 18.6169 4.72189 18.6684 4.74609C18.7413 4.7804 18.807 4.82665 18.8686 4.87695C18.912 4.91233 18.952 4.95105 18.9888 4.99316C19.1218 5.14591 19.2118 5.33755 19.2319 5.54883L19.2358 5.65039C19.2334 6.01306 19.2261 6.37567 19.2095 6.73828C19.2044 6.84771 19.196 6.95699 19.1889 7.06641C19.1705 7.35128 19.1455 7.63607 19.1089 7.9209C19.0693 8.22917 19.0181 8.53749 18.9497 8.8457C18.8836 9.14335 18.8018 9.4407 18.7016 9.73828C18.6498 9.89252 18.5932 10.0469 18.5307 10.2012C18.495 10.2895 18.4589 10.3785 18.4194 10.4668C17.9564 11.5016 17.2403 12.5131 16.1538 13.5244C15.5471 14.089 14.8251 14.6553 13.9653 15.2227L13.9536 15.2295C13.1409 15.7352 12.5337 16.1214 11.8149 16.5381L11.6255 16.6445L11.0464 16.9707C10.7063 17.1568 10.2964 17.1255 9.99071 16.9082L9.86668 16.8027L6.85594 13.8154C6.57732 13.5389 6.4719 13.1041 6.64891 12.7178L6.75242 12.5029C6.80689 12.3954 6.86315 12.2924 6.92039 12.1934C7.05797 11.9562 7.20339 11.7411 7.35203 11.5371L7.56492 11.2539C7.89512 10.8243 8.21579 10.4402 8.54735 9.93066C9.08897 9.07934 9.69646 8.3381 10.3628 7.70117C12.1805 5.96363 14.4407 5.00591 17.0259 4.73242C17.0557 4.72927 17.0858 4.72562 17.1157 4.72266C17.4798 4.68649 17.8505 4.66379 18.227 4.6543L18.3315 4.65723ZM14.2319 8.23535C13.4295 8.23535 12.7788 8.88607 12.7788 9.68848C12.7788 10.4909 13.4295 11.1416 14.2319 11.1416C15.0342 11.1415 15.685 10.4908 15.685 9.68848C15.685 8.88615 15.0342 8.23549 14.2319 8.23535Z" fill="#15C674"/>
<path d="M7.5366 7.50684C7.94939 7.27833 8.39173 7.22476 8.79335 7.25094C9.02626 7.26612 9.11255 7.54443 8.95808 7.71941C8.59824 8.12701 8.25717 8.56702 7.93602 9.04004L7.7036 9.39355C7.55411 9.62274 7.41101 9.81967 7.26121 10.0156L6.77196 10.6445C6.57332 10.903 6.36462 11.1881 6.16214 11.5173C6.03908 11.7173 5.79973 11.8185 5.57419 11.753L5.04637 11.5996C4.30688 11.3841 4.07181 10.441 4.64989 9.91211L5.30711 9.31738C6.03016 8.67075 6.89579 7.92461 7.40184 7.58887L7.5366 7.50684Z" fill="#15C674"/>
</svg>
