<svg width="24" height="24" viewBox="0 0 24 24" fill="none" xmlns="http://www.w3.org/2000/svg">
<path d="M18.1172 16.5794C17.9614 17.0085 17.8291 17.5491 17.8291 18.1555C17.8292 18.8122 17.984 19.425 18.1562 19.9055H8.07031C7.73912 19.9054 7.39905 19.7563 7.13281 19.4524C6.86397 19.1455 6.70021 18.7112 6.7002 18.2425C6.70022 17.7737 6.86396 17.3395 7.13281 17.0325C7.39905 16.7286 7.73911 16.5795 8.07031 16.5794H18.1172Z" fill="#15C674"/>
<path d="M11.9902 8.38895C12.2707 8.38895 12.3861 8.48317 12.4658 8.58817C12.5787 8.73705 12.6784 9.01136 12.6699 9.36844C12.6614 9.72398 12.5481 10.0249 12.4102 10.2034C12.2973 10.3491 12.1773 10.4143 11.9902 10.4143C11.8145 10.4142 11.7139 10.3594 11.6309 10.2786C11.528 10.1783 11.4158 9.99466 11.3574 9.72684C11.2258 9.12217 11.4453 8.64582 11.6582 8.48758C11.6408 8.50049 11.6447 8.49557 11.6768 8.47977C11.7067 8.46504 11.7484 8.44784 11.7959 8.43192C11.8433 8.41607 11.8897 8.40405 11.9287 8.39676C11.9474 8.3933 11.9634 8.39108 11.9746 8.38992C11.9827 8.38911 11.9902 8.38895 11.9902 8.38895Z" fill="#15C674"/>
<path fill-rule="evenodd" clip-rule="evenodd" d="M16.501 4.09696C17.605 4.09732 18.4998 4.99278 18.5 6.09696V15.179H16.3369C16.1549 14.0165 15.5166 13.2403 14.6797 12.7786C13.8527 12.3225 12.8667 12.1868 12 12.1868C11.1333 12.1868 10.1473 12.3224 9.32031 12.7786C8.51097 13.2251 7.88557 13.9651 7.68066 15.0647L7.65723 15.2132C7.05031 15.314 6.49719 15.6337 6.08008 16.1097C5.82658 16.399 5.63159 16.7357 5.5 17.0979V6.09696C5.50033 4.99257 6.39581 4.09804 7.5 4.09793C10.5001 4.09769 13.5006 4.09604 16.501 4.09696ZM11.9902 6.98856C11.5845 6.98877 11.0843 7.17073 10.8242 7.36356L10.6836 7.47879C9.33718 8.68811 9.81344 11.6169 11.7881 11.805L11.9902 11.8138C14.5641 11.8138 14.86 7.28528 12.252 7.00223L11.9902 6.98856Z" fill="#15C674"/>
<path d="M12 13.5872C12.7508 13.5872 13.4679 13.7092 14.0029 14.0042C14.4337 14.2418 14.7651 14.6 14.9102 15.179H9.08887C9.23383 14.6001 9.56546 14.2419 9.99609 14.0042C10.5312 13.7091 11.249 13.5872 12 13.5872Z" fill="#15C674"/>
</svg>
