<svg width="24" height="24" viewBox="0 0 24 24" fill="none" xmlns="http://www.w3.org/2000/svg">
<path fill-rule="evenodd" clip-rule="evenodd" d="M12 4C16.4183 4 19.9999 7.58171 20 12C20 16.4184 16.4184 20 12 20C7.58171 19.9999 4 16.4183 4 12C4.00009 7.58176 7.58176 4.00009 12 4ZM12 12.9561C10.725 12.9562 9.75175 13.5245 9.15527 14.0039L8.92285 14.2021L8.86816 14.2559C8.6135 14.5381 8.60958 14.9728 8.87012 15.2607C9.13063 15.5485 9.563 15.5874 9.86914 15.3623L9.92871 15.3135L10.1006 15.168C10.5322 14.8221 11.1839 14.4562 12 14.4561C12.9331 14.4562 13.6522 14.9334 14.0723 15.3135C14.3794 15.5913 14.853 15.5678 15.1309 15.2607C15.4082 14.9537 15.3848 14.48 15.0781 14.2021C14.5213 13.6984 13.4574 12.9562 12 12.9561ZM9.74414 9.19727C9.24708 9.19727 8.84375 9.6006 8.84375 10.0977V10.5293C8.84375 11.0264 9.24708 11.4297 9.74414 11.4297C10.241 11.4295 10.6445 11.0262 10.6445 10.5293V10.0977C10.6445 9.60072 10.241 9.19746 9.74414 9.19727ZM14.2539 9.19727C13.7569 9.19727 13.3535 9.6006 13.3535 10.0977V10.5293C13.3535 11.0264 13.7569 11.4297 14.2539 11.4297C14.7508 11.4295 15.1543 11.0262 15.1543 10.5293V10.0977C15.1543 9.60072 14.7508 9.19746 14.2539 9.19727Z" fill="#15C674"/>
</svg>
