<svg width="24" height="24" viewBox="0 0 24 24" fill="none" xmlns="http://www.w3.org/2000/svg">
<path d="M16.1406 18.3145C16.4598 18.3796 16.7002 18.6616 16.7002 19C16.7002 19.3384 16.4598 19.6204 16.1406 19.6855L16 19.7002H8C7.6134 19.7002 7.2998 19.3866 7.2998 19C7.2998 18.6134 7.6134 18.2998 8 18.2998H16L16.1406 18.3145Z" fill="#15C674"/>
<path d="M17.8467 5.16406C18.9231 5.16406 19.7959 6.03685 19.7959 7.11328V14.9092C19.7958 15.9855 18.9231 16.8584 17.8467 16.8584H6.15234C5.07611 16.8582 4.2032 15.9854 4.20312 14.9092V7.11328C4.20312 6.03696 5.07606 5.16424 6.15234 5.16406H17.8467Z" fill="#15C674"/>
</svg>
