<svg width="24" height="24" viewBox="0 0 24 24" fill="none" xmlns="http://www.w3.org/2000/svg">
<path d="M5.03677 8.08825C4.79213 7.84361 4.37968 7.91662 4.26921 8.24448C3.52039 10.4669 4.06403 13.0621 5.88106 14.8791C7.63633 16.6344 10.1177 17.2013 12.2878 16.5628C12.634 16.4609 13.0155 16.5331 13.2707 16.7883L16.3804 19.8979C17.0833 20.6009 18.223 20.6009 18.9259 19.8979L19.8589 18.965C20.5618 18.262 20.5618 17.1223 19.8589 16.4194L16.685 13.2455C16.4365 12.9971 16.3611 12.628 16.4516 12.2885C17.0197 10.1557 16.4388 7.74935 14.7248 6.03536C12.9589 4.26949 10.4582 3.70632 8.27881 4.36332C7.94168 4.46495 7.86068 4.88507 8.10966 5.13405L11.2444 8.26881C11.6349 8.65933 11.6349 9.2925 11.2444 9.68302L9.64508 11.2824C9.25456 11.6729 8.6214 11.6729 8.23087 11.2824L5.03677 8.08825Z" fill="#15C674"/>
</svg>
