<svg width="24" height="24" viewBox="0 0 24 24" fill="none" xmlns="http://www.w3.org/2000/svg">
<path fill-rule="evenodd" clip-rule="evenodd" d="M12.8548 3.68392C12.3003 3.62747 11.7304 3.62536 11.1508 3.68266C10.6218 3.73497 10.213 4.11579 10.0727 4.59164L9.87827 5.25133C9.85199 5.34051 9.77367 5.43167 9.64488 5.48189C9.45593 5.55557 9.26925 5.63949 9.08573 5.73253C8.96292 5.79479 8.83963 5.78883 8.75388 5.74212L8.20655 5.44399C7.76416 5.20302 7.19856 5.22869 6.78729 5.57365C6.34931 5.94101 5.94049 6.34987 5.57316 6.78789C5.22826 7.19916 5.20261 7.76471 5.44357 8.20707L5.74258 8.75601C5.78924 8.84167 5.79525 8.96486 5.73313 9.08763C5.64068 9.27038 5.55726 9.45626 5.48401 9.64438C5.43381 9.7733 5.34259 9.85169 5.25337 9.87799L4.5916 10.073C4.11572 10.2133 3.73488 10.6222 3.68261 11.1512C3.62533 11.7309 3.62749 12.3009 3.684 12.8556C3.73774 13.3829 4.11853 13.7881 4.59125 13.9274L5.25568 14.1232C5.34652 14.15 5.43562 14.2288 5.48071 14.3535C5.55365 14.5553 5.63567 14.7527 5.72628 14.9452C5.78276 15.0653 5.77553 15.184 5.73017 15.2673L5.39929 15.8748C5.16354 16.3076 5.18082 16.8632 5.51548 17.2741C5.87678 17.7177 6.28267 18.1235 6.72634 18.4847C7.13722 18.8192 7.69274 18.8364 8.12546 18.6007L8.73313 18.2697C8.81639 18.2244 8.93515 18.2171 9.05517 18.2736C9.24755 18.3641 9.44479 18.446 9.64638 18.5189C9.77115 18.5639 9.84993 18.6531 9.8767 18.7439L10.0724 19.4078C10.2117 19.8806 10.6169 20.2614 11.1444 20.3151C11.6992 20.3715 12.2695 20.3736 12.8494 20.3162C13.3784 20.2639 13.7872 19.8831 13.9274 19.4072L14.1181 18.7602C14.1452 18.6684 14.2254 18.5783 14.3526 18.5337C14.5619 18.4603 14.7665 18.3769 14.9659 18.2843C15.0861 18.2284 15.2044 18.2359 15.2873 18.2811L15.9027 18.6163C16.3347 18.8516 16.8896 18.8351 17.3005 18.501C17.7405 18.1433 18.1428 17.741 18.5005 17.301C18.8346 16.8902 18.8512 16.3352 18.6159 15.9032L18.2816 15.2896C18.2364 15.2067 18.229 15.0882 18.285 14.9679C18.3782 14.7678 18.462 14.5623 18.5359 14.3521C18.5806 14.225 18.6706 14.1448 18.7624 14.1178L19.4072 13.9277C19.883 13.7875 20.2638 13.3788 20.3162 12.8498C20.3736 12.27 20.3716 11.6999 20.3152 11.1451C20.2615 10.6176 19.8807 10.2124 19.4079 10.073L18.7489 9.87878C18.658 9.85198 18.5688 9.77309 18.5238 9.64817C18.4503 9.44432 18.3675 9.24491 18.276 9.05047C18.2195 8.93043 18.2268 8.81163 18.2721 8.72836L18.6006 8.12531C18.8363 7.69257 18.8191 7.13704 18.4846 6.72616C18.1234 6.28262 17.7177 5.87684 17.2743 5.51563C16.8634 5.18094 16.3077 5.16365 15.8749 5.39941L15.2721 5.72777C15.1888 5.77314 15.07 5.78036 14.9499 5.72383C14.7553 5.63219 14.5558 5.54932 14.3517 5.47575C14.2268 5.43071 14.148 5.34155 14.1212 5.25063L13.9268 4.59118C13.7874 4.11842 13.3823 3.73761 12.8548 3.68392ZM11.3275 9.05051C13.5136 8.58522 15.4071 10.4781 14.9419 12.6647C14.6996 13.8041 13.8025 14.7012 12.6631 14.9435C10.4766 15.4085 8.58383 13.5152 9.04893 11.3292C9.15201 10.8448 9.45781 10.3253 9.89072 9.89237C10.3236 9.45944 10.8431 9.1536 11.3275 9.05051Z" fill="#15C674"/>
</svg>
