<svg width="24" height="24" viewBox="0 0 24 24" fill="none" xmlns="http://www.w3.org/2000/svg">
<path fill-rule="evenodd" clip-rule="evenodd" d="M12.107 4.19928C14.4659 4.19341 16.8368 4.60586 18.6714 5.50397C19.0746 5.70135 19.3085 6.10439 19.3277 6.51471C19.5866 12.0512 18.0952 15.5066 16.3638 17.6202C14.6434 19.7204 12.7429 20.4265 12.2837 20.5733C12.0976 20.6327 11.9015 20.6331 11.7154 20.5753C11.2547 20.4319 9.36515 19.7434 7.64995 17.6495C5.92467 15.5431 4.43422 12.0859 4.66656 6.51471C4.68478 6.07888 4.9446 5.65941 5.37652 5.47272C7.32377 4.6314 9.74435 4.20519 12.107 4.19928ZM15.6978 9.53619C15.4508 9.28772 15.0686 9.25557 14.7867 9.44049L14.6724 9.53229L11.6197 12.5655L10.1441 11.2315L10.0259 11.1446C9.73555 10.9731 9.35466 11.0235 9.11968 11.2833C8.88496 11.5431 8.87331 11.9267 9.07281 12.1983L9.17144 12.3077L11.1587 14.1026C11.4446 14.3605 11.8827 14.3496 12.1558 14.0782L15.6949 10.5616C15.9786 10.2794 15.9798 9.82013 15.6978 9.53619Z" fill="#15C674"/>
</svg>
