<svg width="24" height="24" viewBox="0 0 24 24" fill="none" xmlns="http://www.w3.org/2000/svg">
<path d="M11.6604 4.15524C11.884 4.03489 12.1511 4.02678 12.3811 4.1318L12.4934 4.1943L12.8938 4.45602C13.3932 4.77584 14.1667 5.25161 15.0257 5.71384C16.1862 6.33832 17.4445 6.90404 18.388 7.05856L18.513 7.08981C18.7582 7.17124 18.9633 7.36723 19.0403 7.62985L19.0686 7.76657L19.1058 8.15426C19.4293 12.1368 17.7667 15.2113 16.0198 17.2881C15.1182 18.3598 14.1886 19.1733 13.4847 19.7187C13.1326 19.9914 12.8359 20.1983 12.6253 20.3379C12.52 20.4076 12.4357 20.4609 12.3772 20.497C12.348 20.5151 12.3249 20.5294 12.3089 20.539C12.3011 20.5437 12.2948 20.5471 12.2903 20.5498L12.2825 20.5537L12.2378 20.5772L12.2815 20.5547C12.1486 20.6318 11.9888 20.6432 11.8479 20.5879L11.7884 20.5595L11.7864 20.5586C11.7864 20.5586 11.7829 20.556 11.7806 20.5547C11.7759 20.552 11.7692 20.5486 11.761 20.5439C11.7447 20.5346 11.7213 20.5214 11.6917 20.5039C11.6321 20.4686 11.5462 20.4168 11.4388 20.3486C11.2239 20.2122 10.9207 20.0092 10.5618 19.7412C9.84501 19.2059 8.89967 18.4056 7.98563 17.3437C6.15612 15.2183 4.43223 12.0185 4.96122 7.80661L4.98856 7.67868C5.0745 7.38985 5.31757 7.17382 5.61063 7.11813L6.1077 7.00876C8.58053 6.38795 10.9037 4.71947 11.553 4.22458L11.6604 4.15524Z" fill="#15C674"/>
</svg>
