<svg width="24" height="24" viewBox="0 0 24 24" fill="none" xmlns="http://www.w3.org/2000/svg">
<path fill-rule="evenodd" clip-rule="evenodd" d="M3.2998 5.00078C3.2998 4.61418 3.61321 4.30078 3.9998 4.30078H5.49681C5.82289 4.30078 6.10578 4.52593 6.17895 4.84368L6.58029 6.58634H18.9998C19.2088 6.58634 19.4069 6.67973 19.5398 6.84097C19.6728 7.00221 19.7268 7.21444 19.687 7.41961L18.4522 13.7868C18.3528 14.3028 18.0997 14.7824 17.7161 15.136C17.3302 15.4918 16.8337 15.6994 16.3065 15.7004L8.99281 15.7004C8.45749 15.7114 7.94949 15.5086 7.55394 15.1508C7.16209 14.7963 6.90374 14.3125 6.8027 13.7903L4.9397 5.70078H3.9998C3.61321 5.70078 3.2998 5.38738 3.2998 5.00078Z" fill="#15C674"/>
<path fill-rule="evenodd" clip-rule="evenodd" d="M7.2998 18.0008C7.2998 17.0619 8.06092 16.3008 8.9998 16.3008C9.93869 16.3008 10.6998 17.0619 10.6998 18.0008C10.6998 18.9397 9.93869 19.7008 8.9998 19.7008C8.06092 19.7008 7.2998 18.9397 7.2998 18.0008Z" fill="#15C674"/>
<path fill-rule="evenodd" clip-rule="evenodd" d="M15.9998 16.3008C15.0609 16.3008 14.2998 17.0619 14.2998 18.0008C14.2998 18.9397 15.0609 19.7008 15.9998 19.7008C16.9387 19.7008 17.6998 18.9397 17.6998 18.0008C17.6998 17.0619 16.9387 16.3008 15.9998 16.3008Z" fill="#15C674"/>
</svg>
