<svg width="24" height="24" viewBox="0 0 24 24" fill="none" xmlns="http://www.w3.org/2000/svg">
<path d="M14.5317 4.95605L13.1797 6.3058L16.7519 9.84981L18.0878 8.51491C18.674 7.92921 18.6742 6.97918 18.0883 6.39323L16.6521 4.95696C16.0667 4.37147 15.1176 4.37107 14.5317 4.95605Z" fill="#15C674"/>
<path d="M5.10769 14.9617L4.44296 17.4983C4.28764 18.091 4.82897 18.6311 5.42131 18.4745L8.49775 17.6612C8.66848 17.616 8.8242 17.5265 8.94909 17.4016L15.6141 10.7396L12.1843 7.30957L5.88917 13.6C5.51243 13.9765 5.2427 14.4465 5.10769 14.9617Z" fill="#15C674"/>
<path fill-rule="evenodd" clip-rule="evenodd" d="M19.5718 14.9225C19.1986 14.5942 18.6299 14.6306 18.3017 15.0039C17.9734 15.3771 18.0098 15.9458 18.383 16.274C18.706 16.5581 18.8992 16.8949 18.9693 17.1843C19.0388 17.471 18.9806 17.6546 18.8987 17.7601C18.8185 17.8635 18.5925 18.0499 17.9996 18.0807C17.3999 18.1118 16.5023 17.9743 15.2435 17.4972C14.0889 17.0596 13.2391 16.8026 12.6162 16.6998C12.3048 16.6483 12.0041 16.6272 11.7275 16.6636C11.4447 16.7009 11.1296 16.8069 10.8772 17.0603C10.6216 17.3168 10.5315 17.6227 10.5042 17.86C10.4784 18.0847 10.5027 18.2979 10.5248 18.4468C10.5272 18.4632 10.5299 18.4805 10.5328 18.4984C10.3418 18.4466 10.1063 18.3689 9.82726 18.2599C9.36426 18.0791 8.84234 18.3078 8.66152 18.7708C8.48069 19.2338 8.70944 19.7558 9.17244 19.9366C9.78143 20.1744 10.4057 20.363 10.9238 20.381C11.1756 20.3898 11.5357 20.3648 11.8589 20.1585C12.2512 19.9081 12.4252 19.5011 12.4252 19.0983C12.4252 18.8945 12.3962 18.7008 12.3712 18.5553L12.3583 18.4817C12.8028 18.5596 13.5096 18.765 14.6056 19.1804C15.9981 19.7081 17.1562 19.9269 18.0929 19.8783C19.0363 19.8293 19.8273 19.4998 20.321 18.8634C20.813 18.2291 20.8855 17.4491 20.7188 16.7606C20.5527 16.0747 20.1427 15.4246 19.5718 14.9225ZM11.0296 18.5819C11.0352 18.5815 11.0376 18.5809 11.0376 18.5809L11.036 18.581C11.036 18.581 11.0325 18.5814 11.0296 18.5819Z" fill="#15C674"/>
</svg>
