<svg width="24" height="24" viewBox="0 0 24 24" fill="none" xmlns="http://www.w3.org/2000/svg">
<path fill-rule="evenodd" clip-rule="evenodd" d="M10.0502 7.19512C8.21117 8.01359 6.92897 9.85692 6.92897 11.9997C6.92897 14.9027 9.28231 17.2561 12.1853 17.2561C15.0883 17.2561 17.4417 14.9027 17.4417 11.9997C17.4417 9.49118 15.6844 7.39306 13.3337 6.86921L12.7234 7.49752C12.0693 8.17101 10.993 8.1867 10.3195 7.53255C10.2134 7.42948 10.1236 7.31593 10.0502 7.19512ZM15.0608 9.84828C15.3458 10.1095 15.3651 10.5523 15.1038 10.8373L12.1618 14.0468C11.9067 14.3251 11.4768 14.351 11.1902 14.1053L9.31796 12.5005C9.02443 12.2489 8.99043 11.807 9.24203 11.5135C9.49363 11.22 9.93554 11.186 10.2291 11.4376L11.5872 12.6017L14.0718 9.89128C14.3331 9.6063 14.7758 9.58705 15.0608 9.84828Z" fill="#15C674"/>
<path fill-rule="evenodd" clip-rule="evenodd" d="M17.1617 7.53838C16.7825 7.11637 16.3518 6.74507 15.8816 6.43282C15.591 6.23983 15.4479 5.87873 15.5637 5.54963C15.7059 5.14528 16.1731 4.95657 16.5344 5.18727C17.1501 5.58049 17.7122 6.05638 18.2031 6.60273C18.4615 6.89031 18.4378 7.33289 18.1502 7.59126C17.8626 7.84964 17.4201 7.82596 17.1617 7.53838ZM4.79523 15.2717C4.54338 14.7018 4.35413 14.094 4.23717 13.4558C4.12021 12.8176 4.08167 12.1822 4.11506 11.56C4.13577 11.1739 4.46551 10.8778 4.85155 10.8985C5.2376 10.9192 5.53376 11.249 5.51305 11.635C5.4855 12.1485 5.51721 12.6739 5.61424 13.2034C5.71127 13.733 5.86795 14.2355 6.07578 14.7059C6.12905 14.8264 6.14556 14.9539 6.13018 15.0758C6.10199 15.2991 5.90041 15.4435 5.69702 15.54C5.49364 15.6365 5.25433 15.7013 5.06351 15.5819C4.94898 15.5102 4.85395 15.4046 4.79523 15.2717ZM7.25577 17.1545C6.8081 17.3669 6.70156 17.9555 7.08607 18.2681C7.74265 18.8018 8.48108 19.2316 9.27393 19.5387C9.63444 19.6783 10.0399 19.4992 10.1795 19.1387C10.3191 18.7782 10.14 18.3727 9.77951 18.2331C9.16243 17.9942 8.58499 17.6651 8.06635 17.2593C7.83475 17.078 7.52147 17.0285 7.25577 17.1545ZM5.04663 9.99248C4.68612 9.85287 4.50704 9.44744 4.64666 9.08693C5.10664 7.89914 5.84222 6.83348 6.78973 5.98221C7.07731 5.72383 7.51989 5.74751 7.77826 6.03509C8.03664 6.32267 8.01296 6.76525 7.72538 7.02362C6.94156 7.72784 6.3327 8.60991 5.95218 9.59251C5.81257 9.95302 5.40714 10.1321 5.04663 9.99248ZM8.55624 5.53143C8.39998 5.17781 8.55998 4.76448 8.91359 4.60823C9.48354 4.35638 10.0913 4.16712 10.7295 4.05017C11.3678 3.93321 12.0031 3.89467 12.6253 3.92806C13.0114 3.94877 13.3075 4.27851 13.2868 4.66455C13.2661 5.0506 12.9364 5.34676 12.5503 5.32605C12.0368 5.2985 11.5114 5.3302 10.9819 5.42724C10.4523 5.52427 9.94977 5.68095 9.47944 5.88878C9.12582 6.04503 8.71249 5.88504 8.55624 5.53143ZM11.0855 19.3338C11.1062 18.9477 11.436 18.6516 11.822 18.6723C12.3355 18.6998 12.8609 18.6681 13.3905 18.5711C13.92 18.474 14.4225 18.3174 14.8929 18.1095C15.2465 17.9533 15.6598 18.1133 15.8161 18.4669C15.9723 18.8205 15.8123 19.2338 15.4587 19.3901C14.8888 19.6419 14.281 19.8312 13.6428 19.9481C13.0046 20.0651 12.3692 20.1036 11.747 20.0703C11.3609 20.0495 11.0648 19.7198 11.0855 19.3338ZM16.594 17.9632C16.3357 17.6756 16.3594 17.2331 16.6469 16.9747C17.4307 16.2705 18.0396 15.3884 18.4201 14.4058C18.5597 14.0453 18.9652 13.8662 19.3257 14.0058C19.6862 14.1454 19.8653 14.5509 19.7257 14.9114C19.2657 16.0992 18.5301 17.1648 17.5826 18.0161C17.295 18.2745 16.8524 18.2508 16.594 17.9632ZM19.5208 13.0998C19.1347 13.0791 18.8386 12.7494 18.8593 12.3633C18.8868 11.8498 18.8551 11.3244 18.7581 10.7949C18.661 10.2653 18.5044 9.76277 18.2965 9.29244C18.1403 8.93882 18.3003 8.52549 18.6539 8.36924C19.0075 8.21298 19.4208 8.37298 19.5771 8.72659C19.8289 9.29654 20.0182 9.90427 20.1351 10.5425C20.2521 11.1808 20.2906 11.8161 20.2573 12.4383C20.2365 12.8244 19.9068 13.1205 19.5208 13.0998Z" fill="#15C674"/>
<path fill-rule="evenodd" clip-rule="evenodd" d="M11.2424 2.66178C11.5407 2.41591 11.9819 2.45845 12.2277 2.75679L13.4934 4.29264C13.7203 4.56789 13.7039 4.96968 13.4554 5.22553L12.0281 6.69503C11.7588 6.97235 11.3156 6.97881 11.0383 6.70946C10.7609 6.4401 10.7545 5.99694 11.0238 5.71961L12.0146 4.69953L11.1473 3.64716C10.9015 3.34881 10.944 2.90764 11.2424 2.66178Z" fill="#15C674"/>
<path fill-rule="evenodd" clip-rule="evenodd" d="M6.71993 17.0093C6.97901 16.7224 7.42164 16.6998 7.70859 16.9589C8.40982 17.592 9.23735 18.0692 10.1366 18.359C11.0358 18.6488 11.9862 18.7446 12.9252 18.6401C13.8641 18.5356 14.7703 18.2331 15.5837 17.7527C16.3972 17.2723 17.0996 16.6248 17.6444 15.8529C18.1892 15.0811 18.5642 14.2025 18.7446 13.2751C18.9249 12.3477 18.9065 11.3927 18.6906 10.4729C18.4747 9.55314 18.0662 8.68963 17.492 7.93935C16.9179 7.18907 16.1912 6.56909 15.3598 6.12032C15.0196 5.93668 14.8927 5.51202 15.0763 5.17182C15.26 4.83162 15.6846 4.70471 16.0248 4.88835C17.0304 5.43115 17.9094 6.18105 18.6039 7.08854C19.2983 7.99603 19.7924 9.04048 20.0536 10.153C20.3147 11.2654 20.3369 12.4207 20.1188 13.5424C19.9007 14.6641 19.4471 15.7268 18.7881 16.6603C18.1291 17.5939 17.2796 18.377 16.2957 18.9582C15.3117 19.5393 14.2158 19.9051 13.08 20.0315C11.9443 20.1579 10.7947 20.042 9.70711 19.6915C8.61947 19.341 7.61855 18.7638 6.77039 17.998C6.48344 17.7389 6.46085 17.2963 6.71993 17.0093Z" fill="#15C674"/>
</svg>
