<svg width="24" height="24" viewBox="0 0 24 24" fill="none" xmlns="http://www.w3.org/2000/svg">
<path fill-rule="evenodd" clip-rule="evenodd" d="M11.999 4C16.4171 4.00009 19.999 7.58187 19.999 12C19.9989 16.418 16.4171 19.9999 11.999 20C7.5809 20 3.99912 16.4181 3.99902 12C3.99902 7.58182 7.58084 4 11.999 4ZM15.4502 13.4004C15.1395 13.1674 14.7069 13.2117 14.4492 13.4912L14.4004 13.5488L14.3984 13.5518C14.3939 13.5575 14.3851 13.5677 14.373 13.582C14.3482 13.6116 14.3088 13.6586 14.2539 13.7158C14.1434 13.8311 13.9767 13.9872 13.7617 14.1436C13.3289 14.4582 12.7307 14.75 12 14.75C11.2693 14.75 10.6711 14.4582 10.2383 14.1436C10.0233 13.9872 9.85657 13.8311 9.74609 13.7158C9.69125 13.6586 9.65182 13.6117 9.62695 13.582C9.61491 13.5677 9.60612 13.5575 9.60156 13.5518L9.59863 13.5488L9.55078 13.4912C9.29316 13.2116 8.86049 13.1674 8.5498 13.4004C8.23927 13.6335 8.16097 14.0612 8.35742 14.3867L8.40039 14.4512L8.40137 14.4521L8.40332 14.4551C8.40483 14.4571 8.4071 14.4592 8.40918 14.4619C8.41333 14.4673 8.41839 14.4743 8.4248 14.4824C8.43773 14.4988 8.45553 14.5207 8.47754 14.5469C8.52151 14.5993 8.58432 14.6697 8.66406 14.7529C8.82308 14.9189 9.05495 15.1379 9.35547 15.3564C9.95392 15.7917 10.8559 16.25 12 16.25C13.1441 16.25 14.0461 15.7917 14.6445 15.3564C14.9451 15.1379 15.1769 14.9188 15.3359 14.7529C15.4157 14.6697 15.4785 14.5993 15.5225 14.5469C15.5445 14.5207 15.5623 14.4988 15.5752 14.4824C15.5816 14.4743 15.5867 14.4673 15.5908 14.4619C15.5929 14.4592 15.5952 14.4571 15.5967 14.4551L15.5986 14.4521L15.5996 14.4502L15.6426 14.3867C15.839 14.0612 15.7607 13.6335 15.4502 13.4004ZM9.74414 9.19727C9.24708 9.19727 8.84375 9.6006 8.84375 10.0977V10.5293C8.84375 11.0264 9.24708 11.4297 9.74414 11.4297C10.2412 11.4297 10.6445 11.0263 10.6445 10.5293V10.0977C10.6445 9.60061 10.2412 9.19729 9.74414 9.19727ZM14.2539 9.19727C13.7568 9.19727 13.3535 9.6006 13.3535 10.0977V10.5293C13.3535 11.0264 13.7568 11.4297 14.2539 11.4297C14.7509 11.4297 15.1543 11.0263 15.1543 10.5293V10.0977C15.1543 9.60061 14.7509 9.19729 14.2539 9.19727Z" fill="#15C674"/>
</svg>
