<svg width="24" height="24" viewBox="0 0 24 24" fill="none" xmlns="http://www.w3.org/2000/svg">
<path d="M12.7578 5.20027C13.6618 4.75417 14.7702 5.40403 14.7705 6.45906V17.4727C14.7705 18.5228 13.6713 19.1743 12.7676 18.7374L12.5898 18.6348L8.41211 15.8321H5.87305C5.1485 15.8318 4.55134 15.2811 4.47949 14.5753L4.47266 14.4317V9.5577C4.47272 8.78445 5.10014 8.15761 5.87305 8.15731H8.41113L12.5801 5.30379L12.7578 5.20027Z" fill="#15C674"/>
<path d="M17.7627 6.10164C17.9786 5.84128 18.3436 5.77647 18.6309 5.92977L18.748 6.00887L19.0928 6.30867C20.7669 7.84084 21.7274 9.86481 21.7275 12.0001C21.7275 14.2778 20.6342 16.4295 18.748 17.9923C18.4504 18.2386 18.0093 18.197 17.7627 17.8995C17.5161 17.6018 17.5578 17.1608 17.8555 16.9141C19.46 15.5846 20.3281 13.8123 20.3281 12.0001C20.328 10.3011 19.565 8.63745 18.1475 7.3409L17.8555 7.08699L17.7559 6.98641C17.5516 6.7327 17.5469 6.36225 17.7627 6.10164Z" fill="#15C674"/>
<path d="M16.1113 8.25106C16.3272 7.9907 16.6923 7.92588 16.9795 8.07918L17.0967 8.15828L17.3154 8.34871C18.3803 9.3233 19.002 10.6205 19.002 12.0001L18.9932 12.2745C18.9167 13.551 18.3094 14.7418 17.3154 15.6514L17.0967 15.8419C16.799 16.0882 16.3579 16.0466 16.1113 15.7491C15.8647 15.4514 15.9064 15.0104 16.2041 14.7638L16.3701 14.6182C17.1243 13.9286 17.5433 13.067 17.5957 12.1886L17.6016 12.0001C17.6016 11.0571 17.1781 10.1209 16.3701 9.38192L16.2041 9.23641L16.1045 9.13582C15.9003 8.88211 15.8956 8.51166 16.1113 8.25106Z" fill="#15C674"/>
</svg>
