<svg width="24" height="24" viewBox="0 0 24 24" fill="none" xmlns="http://www.w3.org/2000/svg">
<path d="M13.0371 5.31737C14.0775 4.60585 15.4902 5.35076 15.4902 6.61131V17.4023C15.4902 18.6564 14.0903 19.4034 13.0488 18.7051L9.00391 15.9912H6.5752C5.70977 15.9908 5.00781 15.2888 5.00781 14.4228V9.64744C5.00782 8.78154 5.7098 8.07954 6.5752 8.07908H9.00098L13.0371 5.31737Z" fill="#15C674"/>
<path d="M21.0117 9.45897C21.2834 9.27987 21.6525 9.30974 21.8916 9.54881C22.1305 9.78789 22.1605 10.1571 21.9814 10.4287L21.8916 10.539L20.3867 12.0439L21.8916 13.5488L21.9814 13.6592C22.1603 13.9308 22.1306 14.3001 21.8916 14.539C21.6526 14.778 21.2833 14.8078 21.0117 14.6289L20.9014 14.539L19.3965 13.0342L17.8916 14.539C17.6183 14.8123 17.1747 14.8122 16.9014 14.539C16.628 14.2657 16.6281 13.8222 16.9014 13.5488L18.4062 12.0439L16.9014 10.539L16.8115 10.4287C16.6324 10.157 16.6623 9.78789 16.9014 9.54881C17.1404 9.30974 17.5096 9.27987 17.7812 9.45897L17.8916 9.54881L19.3965 11.0537L20.9014 9.54881L21.0117 9.45897Z" fill="#15C674"/>
</svg>
