<svg width="24" height="24" viewBox="0 0 24 24" fill="none" xmlns="http://www.w3.org/2000/svg">
<path fill-rule="evenodd" clip-rule="evenodd" d="M6.09974 18.9986H7.49206L7.4998 18.9986H16.4998L16.5075 18.9986H17.8999C18.8941 18.9986 19.6998 18.1926 19.6998 17.1986V8.62468C19.6998 7.6206 19.0996 6.71394 18.1746 6.32238C16.6172 5.66309 14.4823 4.75886 13.2569 4.2398C12.4609 3.90265 11.5648 3.90175 10.7682 4.23763C9.53732 4.75659 7.38883 5.66261 5.82578 6.32272C4.90002 6.71369 4.2998 7.62067 4.2998 8.62468V17.1986C4.2998 18.1926 5.10556 18.9986 6.09974 18.9986ZM8.1998 13.5348V17.5986H15.7998V13.5348H8.1998ZM8.1998 12.1348H15.7998V10.4986H8.1998V12.1348Z" fill="#15C674"/>
</svg>
