<svg width="24" height="24" viewBox="0 0 24 24" fill="none" xmlns="http://www.w3.org/2000/svg">
<path fill-rule="evenodd" clip-rule="evenodd" d="M11.9054 3.07617C12.5213 3.07617 13.0207 3.57559 13.0207 4.19141V11.1729C13.0207 11.3695 13.1805 11.529 13.3771 11.5293C13.574 11.5293 13.7335 11.3697 13.7336 11.1729V6.02832C13.7336 5.47278 14.1849 5.02166 14.7404 5.02148C15.2958 5.02173 15.7463 5.47282 15.7463 6.02832V11.4893C15.7464 11.6874 15.9075 11.8475 16.1056 11.8477C16.3037 11.8474 16.4639 11.6873 16.464 11.4893V8.86133C16.464 8.29308 16.9252 7.83242 17.4933 7.83203C18.0618 7.83203 18.5226 8.29279 18.5226 8.86133V15.084C18.5225 15.5464 18.3619 16.0674 18.1213 16.5732C17.8783 17.0838 17.5431 17.6026 17.1701 18.0674C16.7975 18.5316 16.3795 18.9509 15.967 19.2568C15.5648 19.5551 15.124 19.7783 14.714 19.7783H10.6633C10.3414 19.7782 10.0137 19.6705 9.70427 19.5156C9.39228 19.3595 9.07891 19.1461 8.78239 18.9111C8.18966 18.4413 7.63443 17.8647 7.23943 17.4336L7.23259 17.4268L3.84587 13.4902C3.43341 13.0102 3.47252 12.2898 3.93474 11.8574C4.39623 11.4261 5.116 11.4344 5.56755 11.876L7.55193 13.8184V5.85059C7.55193 5.19326 8.08507 4.66033 8.74236 4.66016C9.3996 4.66038 9.93279 5.19329 9.93279 5.85059V11.1006C9.93304 11.3373 10.1248 11.5291 10.3615 11.5293C10.5984 11.5293 10.7909 11.3374 10.7912 11.1006V4.19141C10.7912 3.57579 11.2899 3.0765 11.9054 3.07617Z" fill="#15C674"/>
</svg>
