<svg width="24" height="24" viewBox="0 0 24 24" fill="none" xmlns="http://www.w3.org/2000/svg">
<path d="M7.59237 5.96094C6.74034 5.96094 5.9383 6.36311 5.42865 7.04591L4.29883 8.55957H19.7177L18.4849 6.99191C17.973 6.34097 17.1907 5.96094 16.3626 5.96094H7.59237Z" fill="#15C674"/>
<path fill-rule="evenodd" clip-rule="evenodd" d="M5.7 9.89469C4.20883 9.89469 3 11.1035 3 12.5947V15.2523C3 16.7435 4.20883 17.9523 5.7 17.9523H18.3C19.7912 17.9523 21 16.7435 21 15.2523V12.5947C21 11.1035 19.7912 9.89469 18.3 9.89469H5.7ZM10.4238 13.2093C10.0372 13.2093 9.72383 13.5227 9.72383 13.9093C9.72383 14.2959 10.0372 14.6093 10.4238 14.6093L15.991 14.6093C16.3776 14.6093 16.691 14.2959 16.691 13.9093C16.691 13.5227 16.3776 13.2093 15.991 13.2093L10.4238 13.2093ZM8.54783 13.9098C8.54783 14.6786 7.92457 15.3019 7.15575 15.3019C6.38693 15.3019 5.76367 14.6786 5.76367 13.9098C5.76367 13.141 6.38693 12.5177 7.15575 12.5177C7.92457 12.5177 8.54783 13.141 8.54783 13.9098Z" fill="#15C674"/>
</svg>
