<svg width="24" height="24" viewBox="0 0 24 24" fill="none" xmlns="http://www.w3.org/2000/svg">
<path fill-rule="evenodd" clip-rule="evenodd" d="M7.07139 6.56016C7.07139 5.23467 8.1459 4.16016 9.47139 4.16016H14.5276C15.8531 4.16016 16.9276 5.23467 16.9276 6.56016V17.4105C16.9276 18.736 15.8531 19.8105 14.5276 19.8105H9.47139C8.1459 19.8105 7.07139 18.736 7.07139 17.4105V6.56016ZM14.4038 10.481C14.4038 11.8085 13.3276 12.8848 12 12.8848C10.6724 12.8848 9.59619 11.8085 9.59619 10.481C9.59619 9.15337 10.6724 8.07715 12 8.07715C13.3276 8.07715 14.4038 9.15337 14.4038 10.481Z" fill="#15C674"/>
<path d="M6.14439 6.81641H5.44082C4.55717 6.81641 3.84082 7.53275 3.84082 8.41641V15.5828C3.84082 16.4665 4.55716 17.1828 5.44082 17.1828H6.14439V6.81641Z" fill="#15C674"/>
<path d="M17.9469 6.81641H18.6505C19.5341 6.81641 20.2505 7.53275 20.2505 8.41641V15.5828C20.2505 16.4665 19.5341 17.1828 18.6505 17.1828H17.9469V6.81641Z" fill="#15C674"/>
</svg>
