<svg width="24" height="24" viewBox="0 0 24 24" fill="none" xmlns="http://www.w3.org/2000/svg">
<path fill-rule="evenodd" clip-rule="evenodd" d="M7.60547 4.67578C5.98745 4.67578 4.67578 5.98745 4.67578 7.60547V16.3945C4.67578 18.0126 5.98745 19.3242 7.60547 19.3242H16.3945C18.0126 19.3242 19.3242 18.0126 19.3242 16.3945V7.60547C19.3242 5.98745 18.0126 4.67578 16.3945 4.67578H7.60547ZM15.4786 9.48913C15.7606 9.75354 15.7749 10.1965 15.5105 10.4786L11.7605 14.4786C11.501 14.7553 11.0683 14.775 10.7848 14.523L8.53476 12.523C8.24581 12.2662 8.21978 11.8237 8.47663 11.5348C8.73347 11.2458 9.17592 11.2198 9.46487 11.4766L11.2054 13.0237L14.4891 9.52105C14.7535 9.23901 15.1965 9.22472 15.4786 9.48913Z" fill="#15C674"/>
</svg>
