<svg width="24" height="24" viewBox="0 0 24 24" fill="none" xmlns="http://www.w3.org/2000/svg">
<path d="M17.2778 4.70605C18.7628 4.70605 19.9668 5.91006 19.9668 7.39504V16.6067C19.9667 18.0915 18.7627 19.2956 17.2778 19.2956H6.72219C5.23728 19.2956 4.03331 18.0915 4.0332 16.6067V7.39504C4.0332 5.91006 5.23721 4.70605 6.72219 4.70605H17.2778ZM10.8028 12.8839C10.5634 12.6473 10.1951 12.6195 9.92564 12.7993L9.81672 12.8897L8.57968 14.1394L8.00299 13.6813L7.88434 13.6055C7.59523 13.4586 7.23332 13.5305 7.02367 13.7942C6.81431 14.0578 6.82635 14.4258 7.03437 14.6743L7.13551 14.7735L8.20235 15.6205C8.4809 15.8416 8.88196 15.818 9.13207 15.5651L10.8087 13.87L10.8972 13.7601C11.074 13.4887 11.0421 13.1207 10.8028 12.8839ZM13.0153 13.6279C12.6304 13.6279 12.3181 13.9402 12.318 14.3251C12.318 14.7101 12.6303 15.0224 13.0153 15.0224H16.5008L16.6408 15.0078C16.9584 14.9428 17.1981 14.662 17.1981 14.3251C17.198 13.9883 16.9584 13.7074 16.6408 13.6424L16.5008 13.6279H13.0153ZM10.8028 8.42785C10.5634 8.19125 10.1951 8.16343 9.92564 8.34324L9.81672 8.43368L8.57968 9.68336L8.00299 9.22531L7.88434 9.14945C7.59523 9.00258 7.23332 9.07448 7.02367 9.33812C6.81431 9.60177 6.82635 9.9698 7.03437 10.2182L7.13551 10.3174L8.20235 11.1645C8.4809 11.3856 8.88196 11.3619 9.13207 11.1091L10.8087 9.41397L10.8972 9.30408C11.074 9.03263 11.0421 8.66462 10.8028 8.42785ZM13.0153 9.14264C12.6304 9.14264 12.3181 9.455 12.318 9.83993C12.318 10.2249 12.6303 10.5372 13.0153 10.5372H16.5008L16.6408 10.5226C16.9584 10.4576 17.1981 10.1768 17.1981 9.83993C17.198 9.50312 16.9584 9.22222 16.6408 9.15723L16.5008 9.14264H13.0153Z" fill="#15C674"/>
</svg>
