<svg width="24" height="24" viewBox="0 0 24 24" fill="none" xmlns="http://www.w3.org/2000/svg">
<path d="M10.3439 5.72671C8.06936 7.39271 8.82423 12.1074 12.0368 12.1074C15.8938 12.1074 16.2268 5.18945 12.0369 5.18945C11.4476 5.18945 10.7216 5.45006 10.3439 5.72671Z" fill="#15C674"/>
<path d="M11.9753 13.2031C10.7097 13.2031 9.30093 13.4098 8.15428 14.0854C6.96857 14.784 6.10648 15.9621 5.96467 17.7584C5.91022 18.4482 6.4594 18.9668 7.06614 18.9668H16.8845C17.4912 18.9668 18.0404 18.4482 17.9859 17.7584C17.8441 15.9621 16.982 14.784 15.7963 14.0854C14.6497 13.4098 13.2409 13.2031 11.9753 13.2031Z" fill="#15C674"/>
<path d="M16.0656 12.4363C19.171 12.4363 19.5238 7.07154 16.3671 6.75119C16.5302 7.24412 16.6185 7.75966 16.6396 8.27092C16.6645 9.43856 16.4535 10.3486 16.12 11.4437C16.0599 11.641 15.9611 11.858 15.877 12.0428C15.8049 12.2012 15.7435 12.336 15.7266 12.4144C15.8356 12.4288 15.9486 12.4363 16.0656 12.4363Z" fill="#15C674"/>
<path d="M16.6729 12.7971C17.4444 12.868 18.2481 13.0685 18.938 13.5019C19.8828 14.0953 20.5421 15.082 20.6484 16.5384C20.6954 17.1817 20.1705 17.6654 19.5887 17.6654H19.5523C19.2832 15.7624 17.9747 14.03 16.8121 13.3866C16.7144 13.2524 16.6774 13.0876 16.6763 12.9216C16.6759 12.875 16.675 12.8337 16.6729 12.7971Z" fill="#15C674"/>
<path d="M7.75989 6.75119C4.60311 7.07154 4.95593 12.4363 8.06137 12.4363C8.17831 12.4363 8.29133 12.4288 8.40039 12.4144C8.38344 12.336 8.3221 12.2013 8.24998 12.0429C8.16584 11.858 8.06702 11.641 8.00694 11.4437C7.6735 10.3486 7.46243 9.43856 7.48735 8.27092C7.50849 7.75966 7.59678 7.24412 7.75989 6.75119Z" fill="#15C674"/>
<path d="M5.18898 13.5019C5.87886 13.0685 6.68258 12.868 7.45404 12.7971C7.45195 12.8337 7.45104 12.875 7.4507 12.9216C7.44951 13.0876 7.41258 13.2524 7.31486 13.3866C6.15222 14.03 4.84372 15.7624 4.57461 17.6654H4.5383C3.9565 17.6654 3.43154 17.1817 3.47852 16.5384C3.58486 15.082 4.24413 14.0953 5.18898 13.5019Z" fill="#15C674"/>
</svg>
