<svg width="24" height="24" viewBox="0 0 24 24" fill="none" xmlns="http://www.w3.org/2000/svg">
<path fill-rule="evenodd" clip-rule="evenodd" d="M17.6455 8.12988C18.2371 8.12993 18.6995 8.64083 18.6406 9.22949L17.7383 18.2139C17.6355 19.2357 16.7751 20.0137 15.748 20.0137H8.2041C7.17193 20.0137 6.30933 19.2279 6.21289 18.2002L5.37012 9.22363C5.31507 8.63702 5.77702 8.12988 6.36621 8.12988H17.6455ZM10.3965 11.0049C10.0099 11.0049 9.69629 11.3185 9.69629 11.7051V16.1045L9.71094 16.2451C9.77628 16.564 10.0583 16.8037 10.3965 16.8037C10.7346 16.8035 11.0168 16.564 11.082 16.2451L11.0967 16.1045V11.7051L11.082 11.5645C11.0169 11.2454 10.7347 11.0051 10.3965 11.0049ZM13.6104 11.0049C13.2238 11.0049 12.9102 11.3185 12.9102 11.7051V16.1045L12.9248 16.2451C12.9901 16.564 13.2722 16.8037 13.6104 16.8037C13.9486 16.8037 14.2306 16.564 14.2959 16.2451L14.3105 16.1045V11.7051L14.2959 11.5645C14.2308 11.2453 13.9488 11.0049 13.6104 11.0049Z" fill="#15C674"/>
<path fill-rule="evenodd" clip-rule="evenodd" d="M12.8057 2.41406C14.0158 2.4142 15.0662 3.24963 15.3389 4.42871L15.5879 5.50781H19.1758C19.5622 5.508 19.875 5.82152 19.875 6.20801C19.8749 6.5944 19.5622 6.90802 19.1758 6.9082H4.8252C4.4388 6.90805 4.12511 6.59442 4.125 6.20801C4.125 5.82151 4.43873 5.50797 4.8252 5.50781H8.38672L8.60547 4.47461C8.86023 3.27327 9.92133 2.41406 11.1494 2.41406H12.8057ZM11.1494 3.81445C10.5826 3.81445 10.0931 4.21109 9.97559 4.76562L9.84082 5.39844H14.126L13.9746 4.74414C13.8488 4.2 13.3641 3.81459 12.8057 3.81445H11.1494Z" fill="#15C674"/>
</svg>
