<svg width="24" height="24" viewBox="0 0 24 24" fill="none" xmlns="http://www.w3.org/2000/svg">
<path fill-rule="evenodd" clip-rule="evenodd" d="M16.429 5.47684C15.9643 3.88029 14.0822 3.19528 12.6999 4.11955C12.2761 4.40295 11.7232 4.40295 11.2993 4.11955C9.91706 3.19528 8.03501 3.88029 7.57023 5.47684C7.42771 5.96638 7.00418 6.32177 6.49733 6.37711C4.84433 6.55759 3.84291 8.2921 4.5131 9.81388C4.7186 10.2805 4.6226 10.825 4.2699 11.1932C3.11964 12.394 3.46743 14.3664 4.95901 15.1013C5.41637 15.3267 5.69281 15.8055 5.6593 16.3143C5.55 17.9735 7.08426 19.2609 8.6993 18.8651C9.19452 18.7438 9.71405 18.9329 10.0154 19.3442C10.9982 20.6854 13.001 20.6854 13.9839 19.3442C14.2852 18.9329 14.8047 18.7438 15.3 18.8651C16.915 19.2609 18.4493 17.9735 18.34 16.3143C18.3065 15.8055 18.5829 15.3267 19.0403 15.1013C20.5318 14.3664 20.8796 12.394 19.7294 11.1932C19.3767 10.825 19.2807 10.2805 19.4862 9.81388C20.1564 8.2921 19.1549 6.55759 17.5019 6.37711C16.9951 6.32177 16.5715 5.96638 16.429 5.47684ZM15.51 10.4786C15.7744 10.1965 15.7601 9.75354 15.4781 9.48913C15.196 9.22472 14.7531 9.23901 14.4886 9.52105L11.2049 13.0237L9.46438 11.4766C9.17543 11.2198 8.73298 11.2458 8.47614 11.5348C8.21929 11.8237 8.24532 12.2662 8.53427 12.523L10.7843 14.523C11.0678 14.775 11.5005 14.7553 11.76 14.4786L15.51 10.4786Z" fill="#15C674"/>
</svg>
