<svg width="24" height="24" viewBox="0 0 24 24" fill="none" xmlns="http://www.w3.org/2000/svg">
<path d="M17.3703 3.02637L8.36678 6.13613H17.3703V3.02637Z" fill="#15C674"/>
<path fill-rule="evenodd" clip-rule="evenodd" d="M16.71 7.38071C18.5324 7.38082 20.0098 8.85902 20.0098 10.6815V16.6024C20.0097 18.4248 18.5323 19.9021 16.71 19.9022H7.6543C5.83191 19.9021 4.3546 18.4248 4.35449 16.6024V9.38071C4.3547 8.27632 5.25005 7.38071 6.35449 7.38071H16.71ZM15.7637 12.1249C14.9079 12.1251 14.2141 12.8189 14.2139 13.6747C14.2139 14.5306 14.9078 15.2252 15.7637 15.2254C16.6197 15.2254 17.3145 14.5307 17.3145 13.6747C17.3142 12.8188 16.6196 12.1249 15.7637 12.1249Z" fill="#15C674"/>
</svg>
