<svg width="24" height="24" viewBox="0 0 24 24" fill="none" xmlns="http://www.w3.org/2000/svg">
<path fill-rule="evenodd" clip-rule="evenodd" d="M16.5 4.40039C18.2121 4.40039 19.5996 5.78792 19.5996 7.5V16.5C19.5996 18.2121 18.2121 19.5996 16.5 19.5996H7.5C5.78792 19.5996 4.40039 18.2121 4.40039 16.5V7.5C4.40039 5.78792 5.78792 4.40039 7.5 4.40039H16.5ZM7.5 6C6.67157 6 6 6.67157 6 7.5V16.5C6 17.3284 6.67157 18 7.5 18H16.5C17.3284 18 18 17.3284 18 16.5V7.5C18 6.67157 17.3284 6 16.5 6H7.5Z" fill="#15C674"/>
<path fill-rule="evenodd" clip-rule="evenodd" d="M11.25 7.80078C11.8728 7.80079 12.3838 8.03512 12.7549 8.20508C12.767 8.21064 12.7792 8.21626 12.791 8.22168C13.1984 8.40792 13.4558 8.51465 13.75 8.51465C14.1654 8.51465 14.3812 8.42871 14.4629 8.38672C14.762 8.23299 15.0621 8.30181 15.2402 8.39258C15.4145 8.48144 15.7002 8.71526 15.7002 9.12402V13.1436C15.7002 13.3131 15.638 13.4769 15.5264 13.6045L15 13.1436C15.5197 13.5983 15.5264 13.6045 15.5264 13.6045L15.5244 13.6074L15.5215 13.6113L15.5146 13.6182L15.501 13.6328C15.4906 13.6436 15.4785 13.656 15.4648 13.6689C15.4373 13.6948 15.4022 13.7239 15.3604 13.7559C15.2763 13.8199 15.1638 13.8921 15.0176 13.959C14.7228 14.0937 14.3099 14.2012 13.75 14.2012C13.1272 14.2012 12.6162 13.9668 12.2451 13.7969C12.233 13.7913 12.2208 13.7857 12.209 13.7803C11.8015 13.594 11.5442 13.4863 11.25 13.4863C10.8651 13.4863 10.4934 13.5609 10.2109 13.6396C10.2073 13.6406 10.2038 13.6416 10.2002 13.6426V15.501C10.2001 15.8874 9.88644 16.2011 9.5 16.2012C9.11347 16.2012 8.79991 15.8875 8.7998 15.501V8.50098C8.7998 8.11438 9.1134 7.80078 9.5 7.80078C9.75855 7.80085 9.98138 7.94282 10.1025 8.15137L10.1299 7.93066C10.4485 7.85918 10.8356 7.80078 11.25 7.80078Z" fill="#15C674"/>
</svg>
